<?xml version="1.0" encoding="UTF-8"?>
<svg id="Layer_1" data-name="Layer 1" xmlns="http://www.w3.org/2000/svg" xmlns:xlink="http://www.w3.org/1999/xlink" viewBox="0 0 429.42 238.52">
  <defs>
    <style>
      .cls-1 {
        fill: #faf2cf;
      }

      .cls-1, .cls-2, .cls-3, .cls-4, .cls-5, .cls-6, .cls-7, .cls-8, .cls-9, .cls-10, .cls-11, .cls-12, .cls-13, .cls-14, .cls-15, .cls-16, .cls-17, .cls-18, .cls-19, .cls-20, .cls-21, .cls-22, .cls-23, .cls-24, .cls-25, .cls-26, .cls-27, .cls-28, .cls-29, .cls-30 {
        stroke-width: 0px;
      }

      .cls-31 {
        clip-path: url(#clippath);
      }

      .cls-2 {
        fill: none;
      }

      .cls-3 {
        fill: #f0ce8e;
      }

      .cls-4 {
        fill: #b85727;
      }

      .cls-5 {
        fill: #f9fafb;
      }

      .cls-6 {
        fill: #f2e3a3;
      }

      .cls-7 {
        fill: #525252;
      }

      .cls-8 {
        fill: #fdfdf8;
      }

      .cls-9 {
        fill: #f5fbfc;
      }

      .cls-10 {
        fill: #c28730;
      }

      .cls-11 {
        fill: #eab72a;
      }

      .cls-12 {
        fill: #313030;
      }

      .cls-32 {
        clip-path: url(#clippath-1);
      }

      .cls-33 {
        clip-path: url(#clippath-4);
      }

      .cls-34 {
        clip-path: url(#clippath-3);
      }

      .cls-35 {
        clip-path: url(#clippath-2);
      }

      .cls-36 {
        clip-path: url(#clippath-7);
      }

      .cls-37 {
        clip-path: url(#clippath-8);
      }

      .cls-38 {
        clip-path: url(#clippath-6);
      }

      .cls-39 {
        clip-path: url(#clippath-5);
      }

      .cls-40 {
        clip-path: url(#clippath-9);
      }

      .cls-13 {
        fill: #383838;
      }

      .cls-14 {
        fill: #f1f9fb;
      }

      .cls-15 {
        fill: #000;
      }

      .cls-16 {
        fill: #edbf65;
      }

      .cls-17 {
        fill: #b55827;
      }

      .cls-41 {
        clip-path: url(#clippath-20);
      }

      .cls-42 {
        clip-path: url(#clippath-21);
      }

      .cls-43 {
        clip-path: url(#clippath-24);
      }

      .cls-44 {
        clip-path: url(#clippath-23);
      }

      .cls-45 {
        clip-path: url(#clippath-22);
      }

      .cls-46 {
        clip-path: url(#clippath-25);
      }

      .cls-47 {
        clip-path: url(#clippath-27);
      }

      .cls-48 {
        clip-path: url(#clippath-28);
      }

      .cls-49 {
        clip-path: url(#clippath-26);
      }

      .cls-50 {
        clip-path: url(#clippath-29);
      }

      .cls-51 {
        clip-path: url(#clippath-33);
      }

      .cls-52 {
        clip-path: url(#clippath-32);
      }

      .cls-53 {
        clip-path: url(#clippath-30);
      }

      .cls-54 {
        clip-path: url(#clippath-31);
      }

      .cls-55 {
        clip-path: url(#clippath-14);
      }

      .cls-56 {
        clip-path: url(#clippath-13);
      }

      .cls-57 {
        clip-path: url(#clippath-12);
      }

      .cls-58 {
        clip-path: url(#clippath-10);
      }

      .cls-59 {
        clip-path: url(#clippath-15);
      }

      .cls-60 {
        clip-path: url(#clippath-17);
      }

      .cls-61 {
        clip-path: url(#clippath-16);
      }

      .cls-62 {
        clip-path: url(#clippath-19);
      }

      .cls-63 {
        clip-path: url(#clippath-11);
      }

      .cls-64 {
        clip-path: url(#clippath-18);
      }

      .cls-18 {
        fill: #e9a62e;
      }

      .cls-19 {
        fill: #52878a;
      }

      .cls-20 {
        fill: #e19a57;
      }

      .cls-21 {
        fill: #e8c481;
      }

      .cls-22 {
        fill: #b0b546;
      }

      .cls-23 {
        fill: #ce965b;
      }

      .cls-24 {
        fill: #61a8ad;
      }

      .cls-25 {
        fill: #484848;
      }

      .cls-26 {
        fill: #b78552;
      }

      .cls-27 {
        fill: #c76b3a;
      }

      .cls-28 {
        fill: #fafdff;
      }

      .cls-29 {
        fill: #faedb9;
      }

      .cls-30 {
        fill: #fff;
      }
    </style>
    <clipPath id="clippath">
      <rect class="cls-2" x="42.29" y="53.54" width="324.99" height="172.89"/>
    </clipPath>
    <clipPath id="clippath-1">
      <rect class="cls-2" x="42.29" width="324.99" height="226.43"/>
    </clipPath>
    <clipPath id="clippath-2">
      <rect class="cls-2" x="42.29" y="53.54" width="324.99" height="172.89"/>
    </clipPath>
    <clipPath id="clippath-3">
      <rect class="cls-2" x="42.29" width="324.99" height="226.43"/>
    </clipPath>
    <clipPath id="clippath-4">
      <polygon class="cls-2" points="337.6 180.42 367.29 180.52 367.29 145.84 324.42 145.69 337.6 180.42"/>
    </clipPath>
    <clipPath id="clippath-5">
      <rect class="cls-2" x="42.29" width="324.99" height="226.43"/>
    </clipPath>
    <clipPath id="clippath-6">
      <rect class="cls-2" x="42.29" y="53.54" width="324.99" height="172.89"/>
    </clipPath>
    <clipPath id="clippath-7">
      <rect class="cls-2" x="42.29" width="324.99" height="226.43"/>
    </clipPath>
    <clipPath id="clippath-8">
      <path class="cls-2" d="M272.32,165.83c0,1.87,1.6,3.4,3.57,3.4s3.57-1.52,3.57-3.4-1.6-3.4-3.57-3.4-3.57,1.52-3.57,3.4"/>
    </clipPath>
    <clipPath id="clippath-9">
      <rect class="cls-2" x="42.29" width="324.99" height="226.43"/>
    </clipPath>
    <clipPath id="clippath-10">
      <rect class="cls-2" x="108.07" y="112.19" width="57.42" height="58.76"/>
    </clipPath>
    <clipPath id="clippath-11">
      <rect class="cls-2" x="42.29" width="324.99" height="226.43"/>
    </clipPath>
    <clipPath id="clippath-12">
      <polygon class="cls-2" points="198.26 44.38 198.26 93.99 165.49 93.99 165.49 170.96 248.68 170.96 248.68 44.38 198.26 44.38"/>
    </clipPath>
    <clipPath id="clippath-13">
      <rect class="cls-2" x="42.29" width="324.99" height="226.43"/>
    </clipPath>
    <clipPath id="clippath-14">
      <path class="cls-2" d="M186.91,143.38v10.85h11.19v-10.85c-.05-3.05-2.54-5.5-5.6-5.5s-5.54,2.46-5.59,5.5"/>
    </clipPath>
    <clipPath id="clippath-15">
      <rect class="cls-2" x="42.29" width="324.99" height="226.43"/>
    </clipPath>
    <clipPath id="clippath-16">
      <path class="cls-2" d="M186.91,107.17v10.85h11.19v-10.85c-.05-3.04-2.54-5.5-5.6-5.5s-5.54,2.46-5.59,5.5"/>
    </clipPath>
    <clipPath id="clippath-17">
      <rect class="cls-2" x="42.29" width="324.99" height="226.43"/>
    </clipPath>
    <clipPath id="clippath-18">
      <path class="cls-2" d="M129.9,125.03v10.85h11.19v-10.85c-.05-3.05-2.54-5.5-5.6-5.5s-5.54,2.46-5.6,5.5"/>
    </clipPath>
    <clipPath id="clippath-19">
      <rect class="cls-2" x="42.29" width="324.99" height="226.43"/>
    </clipPath>
    <clipPath id="clippath-20">
      <path class="cls-2" d="M216.84,143.38v10.85h11.19v-10.85c-.05-3.05-2.54-5.5-5.6-5.5s-5.55,2.46-5.59,5.5"/>
    </clipPath>
    <clipPath id="clippath-21">
      <rect class="cls-2" x="42.29" width="324.99" height="226.43"/>
    </clipPath>
    <clipPath id="clippath-22">
      <path class="cls-2" d="M216.84,107.17v10.85h11.19v-10.85c-.05-3.04-2.54-5.5-5.6-5.5s-5.55,2.46-5.59,5.5"/>
    </clipPath>
    <clipPath id="clippath-23">
      <rect class="cls-2" x="42.29" width="324.99" height="226.43"/>
    </clipPath>
    <clipPath id="clippath-24">
      <path class="cls-2" d="M216.84,69.93v10.85h11.19v-10.85c-.05-3.05-2.54-5.5-5.6-5.5s-5.55,2.46-5.59,5.5"/>
    </clipPath>
    <clipPath id="clippath-25">
      <rect class="cls-2" x="42.29" width="324.99" height="226.43"/>
    </clipPath>
    <clipPath id="clippath-26">
      <path class="cls-2" d="M64.73,134.68c-8.91,0-16.47,2.52-22.44,5.68v86.07h63.95l-.87-20.16,29.97-32.07-29.33-22.42c-15.71-12.8-29.64-17.1-41.27-17.1h0Z"/>
    </clipPath>
    <clipPath id="clippath-27">
      <rect class="cls-2" x="42.29" width="324.99" height="226.43"/>
    </clipPath>
    <clipPath id="clippath-28">
      <path class="cls-2" d="M62.17,134.95s9.24,8.76,18,2.84l-1.47-7.71-13.44-10.06-3.09,14.92Z"/>
    </clipPath>
    <clipPath id="clippath-29">
      <rect class="cls-2" x="42.29" width="324.99" height="226.43"/>
    </clipPath>
    <clipPath id="clippath-30">
      <path class="cls-2" d="M77.02,86.53c-3.68,0-7.11,1.8-9.55,6.82-5.34,11.01-5.06,27.35-.92,33.57,4.2,6.32,16.98,10.06,21.45,6.29,7.7-6.48,9.53-34.8,9.53-34.8,0,0-11.07-11.87-20.52-11.87h0"/>
    </clipPath>
    <clipPath id="clippath-31">
      <rect class="cls-2" x="42.29" width="324.99" height="226.43"/>
    </clipPath>
    <clipPath id="clippath-32">
      <path class="cls-2" d="M95.82,188.02c-2.39,20.95-11.51,29.38-23.78,31.3-1.64.26-3.3.03-4.75-2.23,0,0,.58,2.79,5.67,3.71,9.84,1.77,54.78.86,54.78.86,0,0,9.76-3.76,13.58-28.85.07-.45.14-.89.22-1.33,4.36-24.87,22.25-35.62,22.25-35.62l-56.27-1.25s-9.38,12.99-11.71,33.42"/>
    </clipPath>
    <clipPath id="clippath-33">
      <rect class="cls-2" x="42.29" width="324.99" height="226.43"/>
    </clipPath>
  </defs>
  <rect class="cls-21" x="42.29" y="162.25" width="324.99" height="64.18"/>
  <g class="cls-31">
    <path class="cls-29" d="M429.42,185.18c-19.62-.03-429.42.04-429.42.04,0,0,47.77-4.67,58.63-20.4,9.87-14.29-19.91-35.8,3.56-49.31,10.85-6.25,23.79-4.44,36.7-2.64,13.7,1.91,27.36,3.82,38.47-3.88,20.84-14.44-5.53-52.71,31.91-60.8,26.97-5.82,51.2,26.41,65.4,40.16,8.05,7.8,17.32,15.23,27.21,21.52,6.76,4.3,15,8.52,23.71,9.5,7.27.81,13.87.16,20.1-.49,13.18-1.38,24.68-2.77,37.28,9.8,17.09,17.05,52.85,52.07,86.45,56.51"/>
  </g>
  <polygon class="cls-3" points="279.61 77.81 279.61 95.15 276.16 95.15 276.16 159.31 270.14 159.31 270.14 109.86 256.78 109.86 256.78 159.31 254.91 159.31 254.91 117.14 242.94 117.14 242.94 159.31 230.77 159.31 230.77 114.59 195.61 114.59 195.61 100.64 164.02 100.64 164.02 159.31 155.48 159.31 155.48 126.46 132.91 126.46 132.91 159.31 129.44 159.31 129.44 81.6 122.12 81.6 122.12 109.86 109.89 109.86 109.89 159.31 107.13 159.31 107.13 138.06 82.73 138.06 82.73 159.31 77.68 159.31 77.68 117.14 42.29 117.14 42.29 186.32 367.29 186.32 367.29 104.51 353.91 104.51 353.91 115.22 347.31 115.22 347.31 159.31 339.01 159.31 339.01 117.14 315.52 117.14 315.52 159.31 302.34 159.31 302.34 138.06 284.63 138.06 284.63 95.15 281.82 95.15 281.82 77.81 279.61 77.81"/>
  <rect class="cls-27" x="277.01" y="179.48" width="42.65" height="4.79"/>
  <rect class="cls-27" x="320.85" y="176.47" width="18.97" height="3.44"/>
  <rect class="cls-27" x="349.01" y="178.84" width="18.28" height="6.22"/>
  <polygon class="cls-11" points="320.42 142.4 325.87 179.47 275.26 179.46 274.83 164.01 293.11 143.12 320.42 142.4"/>
  <g class="cls-32">
    <path class="cls-11" d="M275.88,162.43c1.97,0,3.57,1.52,3.57,3.4s-1.6,3.4-3.57,3.4-3.57-1.52-3.57-3.4,1.6-3.4,3.57-3.4"/>
    <polygon class="cls-24" points="289.17 147.63 278.66 159.64 299.41 159.64 299.41 147.63 289.17 147.63"/>
    <polygon class="cls-24" points="303.4 147.63 303.4 159.64 322.95 159.64 321.19 147.63 303.4 147.63"/>
    <rect class="cls-13" x="289.7" y="141.5" width="31.34" height="2.45"/>
    <rect class="cls-13" x="272.78" y="175.87" width="54.64" height="4.32"/>
    <rect class="cls-4" x="273.15" y="182.72" width="107.7" height="8.05"/>
  </g>
  <g class="cls-35">
    <path class="cls-7" d="M330.29,145.31l2.95-4.09-.04-4.06,3.9.3.92,2.69,4.2-2.05.74-3.81,4.98-.35,1.15,2.68,2.52-3.52,3.76.88,3.01-2.36,2.39-.3,3.91,2.36,4.7-1.07s2.81.13,3.33.13c.52,0,2.91,1.17,2.91,1.17l3.91-.24,1.8-.51,2.5,2.22,1.44,2.01,1.8-4,1.91-.42s3.13-1.32,3.65-1.22c.52.1,6.84,8.2,6.84,8.2l2.31,5.53-71.49-.15Z"/>
  </g>
  <g class="cls-34">
    <polygon class="cls-24" points="337.6 180.42 380.85 180.56 380.85 145.89 324.42 145.69 337.6 180.42"/>
  </g>
  <g class="cls-33">
    <path class="cls-19" d="M357.06,137.88c0-2.4-2.43-4.35-5.42-4.35s-5.42,1.95-5.42,4.35v34.64c0,2.4,2.43,4.35,5.42,4.35s5.42-1.95,5.42-4.35v-34.64Z"/>
    <path class="cls-19" d="M374.24,137.88c0-2.4-2.43-4.35-5.42-4.35s-5.42,1.95-5.42,4.35v34.64c0,2.4,2.43,4.35,5.42,4.35s5.42-1.95,5.42-4.35v-34.64Z"/>
    <path class="cls-19" d="M391.41,137.88c0-2.4-2.43-4.35-5.42-4.35s-5.42,1.95-5.42,4.35v34.64c0,2.4,2.43,4.35,5.42,4.35s5.42-1.95,5.42-4.35v-34.64Z"/>
  </g>
  <g class="cls-39">
    <rect class="cls-13" x="323.56" y="143.61" width="57.29" height="2.88"/>
    <path class="cls-13" d="M295,185.1c6.13,0,11.11,3.99,11.11,8.91s-4.98,8.91-11.11,8.91-11.11-3.99-11.11-8.91,4.98-8.91,11.11-8.91"/>
  </g>
  <g class="cls-38">
    <path class="cls-13" d="M343.3,185.1c6.13,0,11.11,3.99,11.11,8.91s-4.98,8.91-11.11,8.91-11.11-3.99-11.11-8.91,4.98-8.91,11.11-8.91"/>
    <path class="cls-13" d="M373.57,185.1c6.13,0,11.11,3.99,11.11,8.91s-4.98,8.91-11.11,8.91-11.11-3.99-11.11-8.91,4.98-8.91,11.11-8.91"/>
  </g>
  <g class="cls-36">
    <path class="cls-12" d="M295,189.3c3.24,0,5.87,2.11,5.87,4.71s-2.63,4.71-5.87,4.71-5.88-2.11-5.88-4.71,2.63-4.71,5.88-4.71"/>
    <path class="cls-12" d="M343.3,189.3c3.24,0,5.87,2.11,5.87,4.71s-2.63,4.71-5.87,4.71-5.88-2.11-5.88-4.71,2.63-4.71,5.88-4.71"/>
    <path class="cls-12" d="M373.57,189.3c3.24,0,5.88,2.11,5.88,4.71s-2.63,4.71-5.88,4.71-5.87-2.11-5.87-4.71,2.63-4.71,5.87-4.71"/>
    <path class="cls-13" d="M301.09,161.77l-.2,12.13s.05.09.11.09c.06,0,.11-.04.11-.09l.2-12.13c0-.05-.05-.09-.11-.09-.06,0-.12.04-.12.09"/>
  </g>
  <g class="cls-37">
    <path class="cls-30" d="M274.68,162.4c1.97,0,3.57,1.36,3.57,3.03s-1.6,3.04-3.57,3.04-3.57-1.36-3.57-3.04,1.6-3.03,3.57-3.03"/>
  </g>
  <g class="cls-40">
    <path class="cls-8" d="M270.35,38.07c-1.74.52-99.29.05-99.01-.08,1.15-.53,3.32-1.13,4.59-1.49,3.63-1.04,7.08-1.75,10.71-2.78,1.93-.55,4.27-1.08,5.74-2.55.74-.74.68-1.51.29-2.44-.91-2.17-4.87-7.24-.49-8.37,2.24-.58,4.75.25,6.88.88,2.81.83,5.66,1.77,8.56,2.22,1.61.25,3.78.79,5.36.07,1.31-.6.71-2.37.32-3.4-1.06-2.8-3.19-8.53,1.73-9.04,2.78-.29,5.48,1.76,7.58,3.31,4.57,3.39,8.76,7.41,13.7,10.29,1.4.81,4.5,2.85,6.17,1.51,1.52-1.22,1.02-6.25,4.34-4.83,1.8.77,2.77,2.58,3.98,4.02,2.01,2.41,4.15,4.79,6.62,6.73,2.13,1.67,4.42,3.2,6.87,4.38.83.39,1.8.62,2.67.91,1.03.35,3.6.62,3.41.68"/>
    <path class="cls-8" d="M352.7,51.3l-55.22-.04s1.32-.3,1.63-.4c.81-.26,1.65-.4,2.49-.56,2.17-.4,4.35-.77,6.49-1.3.87-.22,2.34-.5,2.89-1.34.83-1.25-2.9-4.48-.81-5.39.71-.31,1.69-.05,2.39.15,1.77.48,3.48,1.24,5.33,1.46.82.1,2.34.24,2.93-.55.39-.53.19-1.22-.02-1.78-.55-1.45-3.58-6.2-.21-6.77,1.56-.26,3.26.92,4.44,1.79,3.28,2.43,5.95,5.6,9.17,8.1,1.42,1.1,3.4,2.09,5.26,1.93,1.17-.1,2.39-.92,3.57-.57,2.02.6,2.07,3.1,9.66,5.26"/>
    <path class="cls-8" d="M122.39,51.87l-70.08-.05s1.68-.38,2.07-.51c1.03-.33,2.1-.51,3.16-.71,2.75-.51,5.52-.98,8.24-1.65,1.11-.28,2.97-.64,3.67-1.7,1.05-1.58-3.68-5.68-1.03-6.83.9-.39,2.14-.06,3.04.18,2.25.61,4.42,1.57,6.76,1.85,1.04.12,2.97.31,3.71-.7.5-.67.24-1.55-.03-2.26-.7-1.84-4.55-7.88-.26-8.6,1.98-.33,4.14,1.17,5.64,2.28,4.16,3.08,7.55,7.11,11.64,10.28,1.81,1.4,4.31,2.65,6.67,2.45,1.48-.13,3.04-1.17,4.53-.72,2.57.77,2.63,3.94,12.27,6.68"/>
    <rect class="cls-25" x="121.67" y="22.97" width="1.85" height="95.95"/>
    <rect class="cls-25" x="148.74" y="22.97" width="1.85" height="95.95"/>
    <rect class="cls-25" x="179.32" y="22.97" width="1.85" height="95.95"/>
    <rect class="cls-25" x="221.72" y="22.97" width="1.85" height="95.95"/>
    <rect class="cls-25" x="107.8" y="32.73" width="139.17" height="1.76"/>
    <rect class="cls-25" x="107.8" y="53.54" width="139.17" height="1.76"/>
    <rect class="cls-25" x="107.8" y="74.35" width="139.17" height="1.76"/>
    <rect class="cls-25" x="107.8" y="93.29" width="139.17" height="1.76"/>
    <rect class="cls-26" x="108.07" y="112.19" width="57.42" height="58.76"/>
  </g>
  <g class="cls-58">
    <path class="cls-13" d="M181.82,119.95v-4.54s10.54.03,10.54.03c.09,0,.16-.07.16-.16,0-.09-.07-.16-.16-.16l-76.43-.24c-.09,0-.16.07-.16.16s.07.16.16.16l54.54.17v4.54s-13.1-.04-13.1-.04c-.09,0-.16.07-.16.16s.07.16.16.16l34.95.11c.09,0,.16-.07.16-.16,0-.09-.07-.16-.16-.16l-10.49-.03ZM181.49,115.41l-10.69-.03v4.54s10.7.03,10.7.03v-4.54ZM140.29,127.76h0v-.05s0-4.67,0-4.67h2.19c.09,0,.16-.07.16-.16s-.07-.16-.16-.16l-19.62-.06c-.09,0-.16.07-.16.16,0,.09.07.16.16.16l6.09.02h0s0,4.69,0,4.69l-2.75-.02c-.09,0-.16.07-.16.16,0,.09.07.16.16.16l17.3.1c.09,0,.16-.07.16-.16s-.07-.16-.16-.16l-3.21-.02ZM139.98,127.76v-.05s-.01-4.67-.01-4.67l-10.69-.03h0s0,4.69,0,4.69l10.7.06ZM142.29,138.45l10.69.03v4.6c0,.09.08.16.17.16.09,0,.16-.07.16-.16v-4.6s31.18.1,31.18.1c.09,0,.16-.07.16-.16,0-.09-.07-.16-.16-.16l-37.14-.12v-4.61s45.43.14,45.43.14c.09,0,.16-.07.16-.16,0-.09-.07-.16-.16-.16l-76.43-.24c-.09,0-.16.07-.16.16s.07.16.16.16l19.65.06v4.61s-11.87-.04-11.87-.04c-.09,0-.16.07-.16.16s.07.16.16.16l17.83.05v4.69c.01.09.08.16.17.16s.16-.07.16-.16v-4.69ZM147.02,133.52l-10.69-.03v4.61s10.7.03,10.7.03v-4.61ZM163.5,152.44h0v-.05s0-4.67,0-4.67h2.19c.09,0,.16-.07.16-.16,0-.09-.07-.16-.16-.16l-19.62-.06c-.09,0-.16.07-.16.16,0,.09.07.16.16.16l6.09.02h0s0,4.69,0,4.69h-2.75c-.09-.02-.16.06-.16.15,0,.09.07.16.16.16l17.3.1c.09,0,.16-.07.16-.16s-.07-.16-.16-.16l-3.21-.02ZM163.19,152.44v-.05s-.01-4.67-.01-4.67l-10.69-.03h0s0,4.69,0,4.69l10.7.06ZM163.32,173.53h0s0-.06,0-.06v-4.67s24.55.08,24.55.08c.09,0,.16-.07.16-.16,0-.09-.07-.16-.16-.16l-19.3-.06.02-.08v-4.69s-.04-.09-.04-.09l17.53.05c.09,0,.16-.07.16-.16s-.07-.16-.16-.16l-41.09-.13v-4.6s23.17.07,23.17.07c.09,0,.16-.07.16-.16,0-.09-.07-.16-.16-.16l-43.1-.13c-.09,0-.16.07-.16.16s.07.16.16.16l8.57.03v4.6s-9.1-.03-9.1-.03c-.09,0-.16.07-.16.16,0,.09.07.16.16.16l32.74.1s-.04.07-.04.11v4.74s-11.36-.04-11.36-.04c-.09,0-.16.07-.16.16,0,.09.07.16.16.16l6.09.02h0s0,4.73,0,4.73l-17.69-.06c-.09,0-.16.07-.16.16,0,.09.07.16.16.16l41.99.13c.09,0,.16-.07.16-.16,0-.09-.07-.16-.16-.16l-12.97-.04ZM144.67,158.64l-10.69-.03v4.6s10.7.03,10.7.03v-4.6ZM168.3,168.49l-.02-.08v-4.69s.02-.09.02-.09l-10.77-.03s.04.07.04.11v4.74s10.72.03,10.72.03ZM163.02,173.53v-.06s-.02-4.67-.02-4.67l-10.69-.03h0s0,4.73,0,4.73l10.7.03Z"/>
    <path class="cls-11" d="M143.87,148.16c0-5.06-4.1-9.16-9.16-9.16s-9.16,4.1-9.16,9.16v25.51c0,5.06,4.1,9.16,9.16,9.16s9.16-4.1,9.16-9.16v-25.51Z"/>
  </g>
  <g class="cls-63">
    <polygon class="cls-26" points="248.68 170.95 165.49 170.95 165.49 93.99 198.26 93.99 198.26 44.38 248.68 44.38 248.68 170.95"/>
  </g>
  <g class="cls-57">
    <path class="cls-13" d="M191.15,155.16v4.54s-10.54-.03-10.54-.03c-.09,0-.16.07-.16.16,0,.09.07.16.16.16l76.43.24c.09,0,.16-.07.16-.16s-.07-.16-.16-.16l-54.54-.17v-4.54s13.1.04,13.1.04c.09,0,.16-.07.16-.16s-.07-.16-.16-.16l-34.95-.11c-.09,0-.16.07-.16.16s.07.16.16.16l10.49.03ZM191.48,159.7l10.69.03v-4.54s-10.7-.03-10.7-.03v4.54ZM232.68,147.35h0v.05s0,4.67,0,4.67h-2.19c-.09,0-.16.07-.16.16s.07.16.16.16l19.62.06c.09,0,.16-.07.16-.16s-.07-.16-.16-.16l-6.09-.02h0s0-4.69,0-4.69l2.75.02c.09,0,.16-.07.16-.16,0-.09-.07-.16-.16-.16l-17.3-.1c-.09,0-.16.07-.16.16s.07.16.16.17l3.21.02ZM232.99,147.35v.05s.01,4.67.01,4.67l10.69.03h0s0-4.69,0-4.69l-10.7-.06ZM230.68,136.67l-10.69-.03v-4.6c0-.09-.08-.16-.17-.16s-.16.07-.16.16v4.6s-31.18-.1-31.18-.1c-.09,0-.16.07-.16.16s.07.16.16.16l37.14.12v4.61s-45.43-.14-45.43-.14c-.09,0-.16.07-.16.16,0,.09.07.16.16.16l76.43.24c.09,0,.16-.07.16-.16s-.07-.16-.16-.16l-19.64-.06v-4.61s11.87.04,11.87.04c.09,0,.16-.07.16-.16s-.07-.16-.16-.16l-17.83-.06v-4.69c0-.09-.08-.16-.17-.16s-.16.07-.16.16v4.69ZM225.95,141.59l10.69.03v-4.61s-10.7-.03-10.7-.03v4.61ZM209.47,122.68h0v.05s0,4.67,0,4.67h-2.19c-.09,0-.16.07-.16.16,0,.09.07.16.16.16l19.62.06c.09,0,.16-.07.16-.16,0-.09-.07-.16-.16-.16l-6.09-.02h0s0-4.69,0-4.69l2.75.02c.09,0,.16-.07.16-.16,0-.09-.07-.16-.16-.16l-17.3-.1c-.09,0-.16.07-.16.16s.07.16.16.16l3.21.02ZM209.78,122.68v.05s.01,4.67.01,4.67l10.69.03h0s0-4.69,0-4.69l-10.7-.06ZM209.65,101.58h0v.06s0,4.67,0,4.67l-24.56-.08c-.09,0-.16.07-.16.16,0,.09.07.16.16.16l19.3.06-.02.08v4.69s.04.09.04.09l-17.53-.05c-.09,0-.16.07-.16.16,0,.09.07.16.16.16l41.09.13v4.6s-23.17-.07-23.17-.07c-.09,0-.16.07-.16.16,0,.09.07.16.16.16l43.1.13c.09,0,.16-.07.16-.16s-.07-.16-.16-.16l-8.57-.03v-4.6s9.1.03,9.1.03c.09,0,.16-.07.16-.16,0-.09-.07-.16-.16-.16l-32.74-.1s.04-.07.04-.11v-4.74s11.36.04,11.36.04c.09,0,.16-.07.16-.16,0-.09-.07-.16-.16-.16l-6.09-.02h0s0-4.73,0-4.73l17.69.05c.09,0,.16-.07.16-.16,0-.09-.07-.16-.16-.16l-41.99-.13c-.09,0-.16.07-.16.16,0,.09.07.16.16.16l12.97.04ZM228.29,116.48l10.69.03v-4.6s-10.7-.03-10.7-.03v4.6ZM204.67,106.62l.02.08v4.69s-.02.09-.02.09l10.77.03s-.04-.07-.04-.11v-4.74s-10.72-.03-10.72-.03ZM209.95,101.58v.06s.02,4.67.02,4.67l10.69.03h0s0-4.73,0-4.73l-10.7-.03Z"/>
    <path class="cls-13" d="M186.03,85.53v4.54s-10.54-.03-10.54-.03c-.09,0-.16.07-.16.16,0,.09.07.16.16.16l76.43.24c.09,0,.16-.07.16-.16s-.07-.16-.16-.17l-54.54-.17v-4.54s13.1.04,13.1.04c.09,0,.16-.07.16-.16,0-.09-.07-.16-.16-.16l-34.95-.11c-.09,0-.16.07-.16.16s.07.16.16.16l10.49.03ZM186.37,90.07l10.69.03v-4.54s-10.7-.03-10.7-.03v4.54ZM227.57,77.72h0v.05s0,4.67,0,4.67h-2.19c-.09,0-.16.07-.16.15s.07.16.16.16l19.62.06c.09,0,.16-.07.16-.16,0-.09-.07-.16-.16-.16l-6.09-.02h0s0-4.69,0-4.69l2.75.02c.09,0,.16-.07.16-.16,0-.09-.07-.16-.16-.17l-17.3-.1c-.09,0-.16.07-.16.16s.07.16.16.16l3.21.02ZM227.88,77.72v.05s.01,4.67.01,4.67l10.69.03h0s0-4.69,0-4.69l-10.7-.06ZM225.57,67.03l-10.69-.04v-4.6c0-.09-.08-.16-.17-.16-.09,0-.16.07-.16.16v4.6s-31.18-.1-31.18-.1c-.09,0-.16.07-.16.16,0,.09.07.16.16.16l37.14.12v4.61s-45.44-.14-45.44-.14c-.09,0-.16.07-.16.16,0,.09.07.16.16.16l76.43.24c.09,0,.16-.07.16-.16s-.07-.16-.16-.16l-19.65-.06v-4.61s11.87.04,11.87.04c.09,0,.16-.07.16-.16,0-.09-.07-.16-.16-.16l-17.83-.06v-4.69c0-.09-.08-.16-.17-.16s-.16.07-.16.16v4.69ZM220.83,71.96l10.69.03v-4.61s-10.7-.03-10.7-.03v4.61ZM204.36,53.04h0v.05s0,4.67,0,4.67h-2.19c-.09,0-.16.07-.16.16s.07.16.16.16l19.62.06c.09,0,.16-.07.16-.16,0-.09-.07-.16-.16-.16l-6.09-.02h0s0-4.69,0-4.69l2.75.02c.09,0,.16-.07.16-.16,0-.09-.07-.16-.16-.16l-17.3-.1c-.09,0-.16.07-.16.16s.07.16.16.16l3.21.02ZM204.67,53.04v.05s.01,4.67.01,4.67l10.69.03h0s0-4.69,0-4.69l-10.7-.06ZM204.53,31.95h0v.06s0,4.67,0,4.67l-24.56-.08c-.09,0-.16.07-.16.16,0,.09.07.16.16.16l19.3.06-.02.08v4.69s.03.09.03.09l-17.53-.05c-.09,0-.16.07-.16.16s.07.16.16.16l41.09.13v4.6s-23.17-.07-23.17-.07c-.09,0-.16.07-.16.16,0,.09.07.16.16.16l43.1.13c.09,0,.16-.07.16-.16s-.07-.16-.16-.16l-8.58-.03v-4.6s9.1.03,9.1.03c.09,0,.16-.07.16-.16,0-.09-.07-.16-.16-.16l-32.74-.1s.05-.07.05-.11v-4.74s11.36.03,11.36.03c.09,0,.16-.07.16-.16,0-.09-.07-.16-.16-.16l-6.09-.02h0s0-4.73,0-4.73l17.69.05c.09,0,.16-.07.16-.16s-.07-.16-.16-.16l-41.99-.13c-.09,0-.16.07-.16.16,0,.09.07.16.16.16l12.97.04ZM223.18,46.84l10.69.03v-4.6s-10.7-.03-10.7-.03v4.6ZM199.56,36.99l.02.08v4.69s-.02.09-.02.09l10.77.03s-.04-.07-.04-.11v-4.74s-10.72-.04-10.72-.04ZM204.84,31.95v.06s.02,4.67.02,4.67l10.69.03h0s0-4.73,0-4.73l-10.7-.03Z"/>
  </g>
  <g class="cls-56">
    <path class="cls-19" d="M186.91,143.38h0v10.85h11.19v-10.85h0c-.05-3.04-2.54-5.5-5.59-5.5s-5.55,2.46-5.6,5.5"/>
  </g>
  <g class="cls-55">
    <path class="cls-14" d="M187.93,143.87h0v9.22h9.03v-9.22h0c-.04-2.59-2.05-4.68-4.51-4.68s-4.47,2.09-4.51,4.68"/>
    <rect class="cls-19" x="191.76" y="137.94" width="1.12" height="17.67"/>
    <rect class="cls-19" x="183.48" y="146.21" width="17.67" height="1.11"/>
  </g>
  <g class="cls-59">
    <path class="cls-19" d="M186.91,107.17h0v10.85h11.19v-10.85h0c-.05-3.04-2.54-5.5-5.59-5.5s-5.55,2.46-5.6,5.5"/>
  </g>
  <g class="cls-61">
    <path class="cls-5" d="M187.93,107.67h0v9.22h9.03v-9.22h0c-.04-2.59-2.05-4.68-4.51-4.68s-4.47,2.09-4.51,4.68"/>
    <rect class="cls-19" x="191.76" y="101.73" width="1.12" height="17.67"/>
    <rect class="cls-19" x="183.48" y="110.01" width="17.67" height="1.11"/>
  </g>
  <g class="cls-60">
    <path class="cls-19" d="M129.91,125.03h0v10.85h11.19v-10.85h0c-.05-3.05-2.54-5.5-5.6-5.5s-5.55,2.46-5.6,5.5"/>
  </g>
  <g class="cls-64">
    <path class="cls-28" d="M130.93,125.52h0v9.22h9.03v-9.22h0c-.04-2.59-2.05-4.68-4.51-4.68s-4.47,2.09-4.51,4.68"/>
    <rect class="cls-19" x="134.76" y="119.59" width="1.11" height="17.67"/>
    <rect class="cls-19" x="126.48" y="127.86" width="17.67" height="1.11"/>
  </g>
  <g class="cls-62">
    <path class="cls-19" d="M216.84,143.38h0v10.85h11.19v-10.85h0c-.05-3.04-2.54-5.5-5.59-5.5s-5.55,2.46-5.6,5.5"/>
  </g>
  <g class="cls-41">
    <path class="cls-9" d="M217.86,143.87h0v9.22h9.03v-9.22h0c-.04-2.59-2.05-4.68-4.51-4.68s-4.47,2.09-4.51,4.68"/>
    <rect class="cls-19" x="221.69" y="137.94" width="1.12" height="17.67"/>
    <rect class="cls-19" x="213.42" y="146.21" width="17.67" height="1.11"/>
  </g>
  <g class="cls-42">
    <path class="cls-19" d="M216.84,107.17h0v10.85h11.19v-10.85h0c-.05-3.04-2.54-5.5-5.59-5.5s-5.55,2.46-5.6,5.5"/>
  </g>
  <g class="cls-45">
    <path class="cls-30" d="M217.86,107.67h0v9.22h9.03v-9.22h0c-.04-2.59-2.05-4.68-4.51-4.68s-4.47,2.09-4.51,4.68"/>
    <rect class="cls-19" x="221.69" y="101.73" width="1.12" height="17.67"/>
    <rect class="cls-19" x="213.42" y="110.01" width="17.67" height="1.11"/>
  </g>
  <g class="cls-44">
    <path class="cls-19" d="M216.84,69.93h0v10.85h11.19v-10.85h0c-.05-3.05-2.54-5.5-5.59-5.5s-5.55,2.46-5.6,5.5"/>
  </g>
  <g class="cls-43">
    <path class="cls-9" d="M217.86,70.42h0v9.22h9.03v-9.22h0c-.04-2.59-2.05-4.68-4.51-4.68s-4.47,2.09-4.51,4.68"/>
    <rect class="cls-19" x="221.69" y="64.49" width="1.12" height="17.67"/>
    <rect class="cls-19" x="213.42" y="72.77" width="17.67" height="1.11"/>
  </g>
  <g class="cls-46">
    <path class="cls-6" d="M140.53,155.86c.73,0,1.32.59,1.32,1.32s-.59,1.33-1.32,1.33-1.32-.59-1.32-1.33.59-1.32,1.32-1.32"/>
    <path class="cls-11" d="M333.18,175.83c3.86,2.63,6.42,4.06,9.19,7.51,5.12,6.39,4.34,14.59-3.38,19.08-7.39,4.3-15.38,1.07-18.21-6.62-1.52-4.13-1.8-7.75-1.91-11.71l14.32-8.26Z"/>
    <path class="cls-7" d="M334.21,175c-.17-.3-.56-.4-.86-.23l-15.32,8.84c-.3.17-.4.56-.23.86.17.3.56.4.86.23l15.32-8.84c.3-.17.4-.56.23-.86"/>
    <rect class="cls-7" x="342.99" y="187.88" width="1.14" height="27.22" transform="translate(-51.36 149.8) rotate(-22.93)"/>
    <rect class="cls-7" x="319.76" y="191.17" width="26.48" height="1.14" transform="translate(-51.23 187.46) rotate(-29.29)"/>
    <rect class="cls-7" x="318.04" y="204" width="19.53" height="1.14" transform="translate(118.64 529.46) rotate(-89.19)"/>
    <path class="cls-13" d="M337.62,191.15l-7.99,4.61s-.06.09-.04.13c.03.05.09.06.13.03l7.99-4.61s.06-.09.04-.13c-.03-.04-.08-.06-.13-.03M325.94,181.42l-6.2,3.58s-.06.09-.04.13c.03.05.09.06.13.04l6.2-3.58s.06-.09.04-.13c-.03-.05-.09-.06-.13-.03"/>
    <rect class="cls-7" x="156.78" y="181.98" width="7.05" height="1.48"/>
    <rect class="cls-7" x="200.23" y="201.23" width="1.48" height="12.08" transform="translate(-87.7 202.81) rotate(-45)"/>
    <path class="cls-12" d="M166.99,186.08c-.14-1.1-.37-2.41.09-3.47.56-1.3,1.78-1.64,2.91-2.32,1.13-.67,2.16-1.59,2.95-2.65,1.36-1.84,2.03-4.82,4.53-5.49,2.13-.58,3.65,1.68,5.77,1.33,1.04-.17,1.76-.97,2.58-1.55,1.07-.75,2.3-1.12,3.6-.83,1.99.45,2.65,3.42,3.92,4.76,1.2,1.27,3.01,1.25,4.45,2.07,2.03,1.16,1.28,3.47,1.96,5.36.46,1.29,1.55,2.16,2.05,3.4.32.79.39,1.74-.47,2.19-2.21,1.16-5.32.53-7.65.25-2.28-.27-4.37-.16-6.65.04-4.3.38-8.64.06-12.91-.47"/>
    <polygon class="cls-24" points="163.59 183.64 208.26 183.68 197.15 204.57 163.32 204.55 163.59 183.64"/>
    <rect class="cls-7" x="162.54" y="181.96" width="1.48" height="32.94"/>
    <path class="cls-25" d="M205.75,210.18c1.31,0,2.37,1.06,2.37,2.37s-1.06,2.37-2.37,2.37-2.37-1.06-2.37-2.37,1.06-2.37,2.37-2.37"/>
    <path class="cls-13" d="M165.78,185.49l39.35.04c.07,0,.12-.06.12-.12s-.06-.12-.12-.12l-39.35-.04c-.07,0-.12.06-.12.13s.06.12.12.12"/>
    <polygon class="cls-11" points="303.89 191.6 309.96 211.19 293.41 211.19 299.48 191.6 303.89 191.6"/>
    <polygon class="cls-8" points="297 199.61 295.2 205.41 308.17 205.41 306.37 199.61 297 199.61"/>
    <path class="cls-25" d="M311.7,211.71c0-.58-.47-1.05-1.05-1.05h-17.93c-.58,0-1.05.47-1.05,1.05s.47,1.05,1.05,1.05h17.93c.58,0,1.05-.47,1.05-1.05"/>
    <path class="cls-13" d="M300.64,209.84h7.73c.06,0,.11-.05.11-.11,0-.06-.05-.11-.11-.11h-7.73c-.06,0-.11.05-.11.11s.05.11.11.11"/>
    <rect class="cls-7" x="212.87" y="164.29" width="1.78" height="32.03"/>
    <rect class="cls-7" x="253.7" y="164.29" width="1.78" height="32.03"/>
    <rect class="cls-7" x="213.98" y="184.14" width="40.4" height="1.78"/>
    <rect class="cls-25" x="210.94" y="163.61" width="46.48" height="9.67"/>
    <polygon class="cls-11" points="213.53 163.61 210.94 166.2 210.94 168.72 216.05 163.61 213.53 163.61"/>
    <polygon class="cls-11" points="219.46 163.61 210.94 172.13 210.94 173.28 212.31 173.28 221.98 163.61 219.46 163.61"/>
    <polygon class="cls-11" points="225.39 163.61 215.72 173.28 218.24 173.28 227.9 163.61 225.39 163.61"/>
    <polygon class="cls-11" points="231.32 163.61 221.65 173.28 224.16 173.28 233.83 163.61 231.32 163.61"/>
    <polygon class="cls-11" points="237.24 163.61 227.58 173.28 230.09 173.28 239.76 163.61 237.24 163.61"/>
    <polygon class="cls-11" points="243.17 163.61 233.5 173.28 236.02 173.28 245.69 163.61 243.17 163.61"/>
    <polygon class="cls-11" points="249.1 163.61 239.43 173.28 241.95 173.28 251.61 163.61 249.1 163.61"/>
    <polygon class="cls-11" points="255.03 163.61 245.36 173.28 247.87 173.28 257.42 163.73 257.42 163.61 255.03 163.61"/>
    <polygon class="cls-11" points="251.29 173.28 253.8 173.28 257.42 169.66 257.42 167.15 251.29 173.28"/>
    <path class="cls-17" d="M26.87,152.55s31.4-39.69,79.14-.77l29.33,22.42-29.97,32.07.96,22.12-72.26,1.51-7.2-77.35Z"/>
  </g>
  <g class="cls-49">
    <rect class="cls-22" x="36.04" y="130.58" width="70.16" height="107.94"/>
    <rect class="cls-11" x="48.39" y="134.07" width="13.58" height="99.25"/>
    <rect class="cls-11" x="80.19" y="135.4" width="13.64" height="99.09"/>
    <path class="cls-17" d="M103.16,148.09c-.33,5.34-1.09,11.11,1.59,16.05.53.99,1.13,1.93,1.8,2.83.16.22.51.86.87.81.7-.1,1.23-.79,1.61-1.32,1.08-1.5,1.53-3.25,1.67-5.07.43-5.56-.72-11.79-5-15.65"/>
    <path class="cls-17" d="M36.24,137.03c2.14.67,4.36,2.19,5.42,4.07,1.78,3.17,3.2,5.14,3.45,8.78.25,3.64,1.4,11.34-2.13,9.71-1.49-.69-7.62-5.72-8.38-7.1-1.05-1.94-1.86-4.11-2.6-6.19-1.12-3.16-.74-6.45-.87-9.74"/>
  </g>
  <g class="cls-47">
    <path class="cls-20" d="M65.56,110.14c-.84-1.05-2.33-1.85-3.7-1.61-2.06.35-2.64,2.34-1.96,4.22.98,2.69,4.7,2.56,5.5,0"/>
    <path class="cls-10" d="M65.26,120.03l-3.09,14.92s9.24,8.76,18,2.84l-1.47-7.71"/>
  </g>
  <g class="cls-48">
    <path class="cls-13" d="M64.86,122.38c1.54,3.14,2.53,6.8,4.89,9.37,1.94,2.12,3.55,3.91,6.87,5.09,1.71.61,6.63,2.14,7.04-.89.04-.28.01-.79-.05-1.07-.46-2.2-2.18-3.98-3.68-5.53-1.29-1.32-2.62-2.59-3.98-3.83-2.24-2.04-4.62-3.9-7.01-5.75"/>
  </g>
  <g class="cls-50">
    <path class="cls-23" d="M97.54,98.4s-1.83,28.32-9.53,34.8c-4.48,3.77-17.25.03-21.45-6.29-4.14-6.22-4.42-22.56.92-33.57,8.67-17.88,30.06,5.06,30.06,5.06"/>
  </g>
  <g class="cls-53">
    <path class="cls-23" d="M74.72,115.06c-1.83,0-3.32,1.49-3.32,3.32s1.49,3.32,3.32,3.32,3.32-1.48,3.32-3.32-1.49-3.32-3.32-3.32"/>
    <path class="cls-23" d="M94.15,116.48c-1.83,0-3.32,1.49-3.32,3.32,0,1.57,1.1,2.89,2.57,3.23.63-2.05,1.17-4.24,1.63-6.43-.28-.08-.58-.12-.89-.12"/>
  </g>
  <g class="cls-54">
    <path class="cls-1" d="M68.12,218.33s-3.48-4.09-.48-6.34l26.41.45-9.22,6.84-11.18,1.42-3.79-1.01-1.74-1.35Z"/>
    <path class="cls-30" d="M163.8,155.85l-56.27-1.25s-9.38,12.99-11.71,33.42c-2.39,20.95-11.5,29.38-23.78,31.3-1.65.26-3.31.03-4.75-2.23,0,0,.58,2.79,5.67,3.71,9.84,1.77,54.79.86,54.79.86,0,0,9.76-3.76,13.58-28.85.07-.45.14-.9.22-1.33,4.36-24.88,22.25-35.62,22.25-35.62"/>
  </g>
  <g class="cls-52">
    <path class="cls-13" d="M131.58,169.44l-.02-.1-.08-.05-11.92-.9c-.05,0-.1.03-.12.08l-11.55,42.48.02.1.09.05,11.93.47c.05,0,.1-.03.11-.08l11.54-42.04ZM131.32,169.51l-11.47,41.83-11.7-.46,11.48-42.25,11.69.89Z"/>
    <path class="cls-13" d="M118.04,167.19l-12.07,44.12c-.02.06.02.12.08.14.06.02.12-.02.14-.08l12.07-44.12c.02-.06-.02-.12-.08-.14-.06-.02-.12.02-.14.08"/>
    <path class="cls-13" d="M117.45,167.24l1.29.14c.06,0,.12-.04.12-.1,0-.06-.04-.12-.1-.12l-1.29-.14c-.06,0-.12.04-.12.1,0,.06.04.12.1.12"/>
    <path class="cls-13" d="M136,169.53l1.3.14c.06,0,.12-.04.12-.1,0-.06-.04-.12-.1-.12l-1.29-.14c-.06,0-.12.04-.12.1,0,.06.04.12.1.12"/>
    <path class="cls-13" d="M101.25,214.72l-.12-1.3c0-.06-.06-.11-.12-.1-.06,0-.11.06-.1.12l.12,1.3c0,.06.06.11.12.1.06,0,.11-.06.1-.12"/>
    <path class="cls-13" d="M110.31,182.93l1.29.14c.06,0,.12-.04.12-.1,0-.06-.04-.12-.1-.12l-1.29-.14c-.06,0-.12.04-.13.1,0,.06.04.12.1.12"/>
    <path class="cls-13" d="M130.43,190.37l1.3.14c.06,0,.12-.04.12-.1,0-.06-.04-.12-.1-.12l-1.3-.14c-.06,0-.12.04-.12.1,0,.06.04.12.1.12"/>
    <path class="cls-13" d="M122.77,216.02l-.12-1.3c0-.06-.06-.11-.12-.1-.06,0-.11.06-.1.12l.12,1.3c0,.06.06.11.12.1.06,0,.11-.06.1-.12"/>
    <path class="cls-13" d="M104.74,203.77l1.29.14c.06,0,.12-.04.13-.1,0-.06-.04-.12-.1-.12l-1.3-.14c-.06,0-.12.04-.12.1,0,.06.04.12.1.12"/>
    <path class="cls-13" d="M136.59,169.54l-5.61,20.73c-.02.06.02.12.08.14.06.02.12-.02.14-.08l5.61-20.73c.02-.06-.02-.12-.08-.14-.06-.01-.12.02-.14.08"/>
    <path class="cls-13" d="M101.14,214.14l21.44,1.37c.06,0,.12-.05.12-.11,0-.06-.04-.12-.11-.12l-21.44-1.36c-.06,0-.12.04-.12.11,0,.06.04.12.11.12"/>
    <path class="cls-13" d="M110.9,182.94l-5.61,20.73c-.02.06.02.12.08.14.06.02.12-.02.14-.08l5.61-20.73c.02-.06-.02-.12-.08-.14-.06-.02-.12.02-.14.08"/>
    <path class="cls-13" d="M126.11,195.12c-4.56,0-8.27,3.7-8.27,8.27s3.7,8.27,8.27,8.27,8.26-3.7,8.26-8.27-3.7-8.27-8.26-8.27M126.11,195.35c4.44,0,8.04,3.6,8.04,8.04s-3.6,8.04-8.04,8.04-8.04-3.6-8.04-8.04,3.6-8.04,8.04-8.04"/>
  </g>
  <g class="cls-51">
    <path class="cls-10" d="M82.97,214.66l4.53-1.04s9.89,3.12,11.93,2.93c1.03-.09,2.46-.15,3.46-.26,5.24-.61,5.3-1.84,4.62-2.91-.34-.53-2.46-.31-4.48-.31-2.05,0-3.13-.59-3.13-.59,0,0,3.07.04,6.6-.98,3.14-.9,5.94-2.42,6.08-3.43.32-2.31-2.42-1.22-6.26-.35-1.73.39-3.94.33-5.75.51-1.14.11,2.15-.23,7.3-2.28,4.19-1.67,8-4.84,7.28-6.05-1.26-2.14-4.95.82-9.09,2.76-2.16,1.01-4.84,1.27-6.52,1.48-.88.11,11.08-4.45,9.1-7.21-1.24-1.73-4,.39-6.7,1.85-6.86,3.69-7.19,1.77-7.87,1.01-.27-.31-.39-1.31-.21-1.57l1.02-4.18c-.93-.2-1.79.74-2.53,1.29-2.34,1.77-4.1,4.34-4.66,6.75-.08.37-4.24,1.33-4.24,1.33l-.51,11.25Z"/>
    <path class="cls-10" d="M147.34,191.83c.11.3,1.65,4.93-2.37,10.27-.79,1.06-4.22,2.97-5.95,3.02-.87.03-2.07.13-2.92.13-4.44.03-4.62-1-4.15-1.96.23-.48,2.03-.51,3.71-.72,1.71-.2,2.55-.81,2.55-.81,0,0-2.56.35-5.62-.14-2.72-.44-5.21-1.41-5.43-2.25-.5-1.9,1.9-1.26,5.19-.93,1.48.15,3.33-.13,4.86-.16.97-.02-1.82.03-6.34-1.16-3.67-.96-7.18-3.22-6.7-4.32.83-1.92,4.22.18,7.89,1.38,1.91.63,4.17.57,5.6.57.75,0-9.72-2.59-8.34-5.1.86-1.58,3.38-.08,5.79.86,6.11,2.38,6.71.35,6.67-.51,0-.11.6-3.56.6-3.56,0,0,.26.13.38.2,2.14,1.24,3.87,3.21,4.59,5.17"/>
    <path class="cls-17" d="M45.39,157.68s-2.17,30.61,7.06,37.91c7.9,6.25,31.98,4.03,31.98,4.03l-1.51,18.04s-39,1.87-52.84-10.05c-14.12-12.16-12.04-51.17-12.04-51.17"/>
    <path class="cls-13" d="M63.52,112.74s-.39-.98-1.03-1.78c-.44-.55-1-1.02-1.63-1.05-.06,0-.12.05-.12.11,0,.06.05.12.11.12.57.03,1.07.46,1.47.96.62.78,1,1.73,1,1.73.02.06.09.09.15.06.06-.02.09-.09.06-.15"/>
    <path class="cls-13" d="M62.63,111.27s-1.11-.46-1.81.51c-.04.05-.02.12.03.16.05.04.12.03.16-.03.6-.83,1.54-.44,1.54-.44.06.02.12,0,.15-.06.02-.06,0-.12-.06-.15"/>
    <path class="cls-13" d="M72.1,146.21l-1.14,47.35c0,.06.05.12.11.12.06,0,.11-.05.12-.11l1.14-47.35c0-.06-.05-.11-.11-.11-.06,0-.11.05-.12.11"/>
    <path class="cls-12" d="M67.33,109.17c1.59-.87,2.51-2.69,2.67-4.5,3.84,1.75,8.96-.43,10.35-4.41,2.16,2.51,6.16,3.21,9.04,1.57,1.12,1.75,2.74,3.28,4.74,3.87,2,.6,4.38.1,5.69-1.52,1.4-1.73,1.26-4.36.13-6.27-1.13-1.92-3.08-3.22-5.1-4.15-7.44-3.41-16.78-2.18-23.09,3.04-.59.49-1.16,1.02-1.83,1.39-.5.28-1.05.47-1.58.71-2.28,1.04-4.65,1.95-5.47,4.32-1.78.13-3.12,1.91-4.03,3.44-.8,1.34-.91,4.67.95,4.96-.16-1.4,1.55-3.42,2.95-2.84,1.54.64,2.95,1.27,4.58.39"/>
    <path class="cls-16" d="M60.25,102.26c-.17-.98-.63-2.86-.63-3.88,0-10.29,8.51-18.64,18.99-18.64,9.5,0,17.38,6.86,18.77,15.81-1.28.42-2.39,1.71-3.54,2.03-1.89.52-3.63,1.44-5.58,1.46-3.46.02-6.11-1.13-9.46-1.58-3.45-.46-6.64-.03-9.54.69-3.27.81-6.45,1.84-9,4.11"/>
    <path class="cls-18" d="M101.45,97.88c-4.33,4.08-11.15,4.02-16.87,3.1-4.68-.75-9.16-1.03-13.83-.07-2.29.47-4.59,1.29-6.58,2.52-1.25.77-3.6,2.21-5.13,1.69-.75-.26-2.48-1.78-.06-4.27,2.61-2.69,6.31-3.92,9.84-4.79,2.9-.72,6.15-1.21,9.6-.75,3.35.44,5.93.69,9.39.66,1.95-.01,3.65.05,5.53-.47,2-.55,4.36-1.92,6.5-1.83,1.89.07,3.26,2.16,1.62,4.22"/>
    <path class="cls-18" d="M80.36,79.08c.9.45,1.77,1.29,2.62,2.05,1.44,1.29,2.47,2.57,3.37,4.22.34.63,1.06,2.01.14,2.58-.83.51-1.56-.17-1.96-.72-.99-1.34-1.85-2.62-3-3.83-.85-.9-1.84-1.76-2.7-2.73-.89-1,.37-2.21,1.54-1.57"/>
    <path class="cls-18" d="M72.44,80.34c.9.45,1.77,1.29,2.62,2.05,1.44,1.29,2.47,2.57,3.37,4.23.34.63,1.06,2.01.14,2.57-.82.51-1.56-.17-1.96-.72-.99-1.34-1.85-2.62-3-3.84-.85-.89-1.83-1.75-2.7-2.72-.89-1,.37-2.21,1.54-1.57"/>
    <path class="cls-13" d="M80.23,123.05c.75,1.16,1.97,2.01,3.35,2.24,1.45.24,2.92-.18,4.05-1.11.34-.28-.15-.76-.48-.48-1.96,1.62-4.95,1.14-6.33-.98-.24-.37-.83-.03-.59.34"/>
    <path class="cls-13" d="M86.25,111.51c-.03,1.74,0,3.63,1.15,5.06.49.61,1.42,1.04,1.14,1.98-.24.81-1.24.96-1.96,1.07-.43.07-.25.72.18.66.79-.12,1.66-.31,2.17-1,.46-.62.45-1.51,0-2.14-.27-.37-.66-.61-.96-.95-.34-.39-.57-.86-.73-1.35-.35-1.07-.32-2.22-.3-3.33,0-.44-.67-.44-.68,0"/>
    <polygon class="cls-27" points="267.04 201.5 267.04 193.92 249.4 193.92 249.4 201.5 240.71 201.5 240.71 209.23 275.74 209.23 275.74 201.5 267.04 201.5"/>
    <path class="cls-13" d="M258.26,201.74h0s0,6.77,0,6.77c0,.09.08.17.17.17s.17-.08.17-.17v-6.76s0,0,0,0l7.48.05c.1,0,.17-.08.17-.17,0-.1-.08-.17-.17-.18l-15.71-.1c-.1,0-.17.08-.17.17,0,.1.08.17.17.17l7.89.05Z"/>
    <path class="cls-12" d="M83.72,108.86s-4.5-4.98-12.61,0c0,0,6.24-2.61,12.61,0"/>
    <path class="cls-12" d="M87.28,109.85s3.79-5.9,10.63,0c0,0-5.26-3.09-10.63,0"/>
    <path class="cls-30" d="M83.7,111.48s-4.9-4.49-14.67-.66c0,0,5.6,2.98,14.67.66"/>
    <path class="cls-15" d="M83.78,111.39s-2.45-2.23-7.28-2.23c-2.07,0-4.57.4-7.5,1.56l-.23.09.22.12s2.93,1.56,7.95,1.56c1.96,0,4.24-.24,6.8-.89l-.06-.22c-2.54.65-4.8.88-6.74.88-2.49,0-4.46-.38-5.8-.77-.67-.19-1.18-.38-1.53-.53-.17-.07-.3-.13-.39-.17-.09-.04-.13-.06-.13-.06l-.05.1.04.11c2.91-1.14,5.39-1.54,7.42-1.54,2.38,0,4.17.55,5.36,1.09.6.27,1.04.54,1.34.75.15.1.26.19.33.24l.08.07.03.02.15-.17Z"/>
    <path class="cls-30" d="M97.86,112.23s-3.04-3.84-9.42-.46c0,0,3.6,2.51,9.52.43"/>
    <path class="cls-15" d="M97.95,112.16s-1.51-1.89-4.59-1.89c-1.36,0-3.01.36-4.98,1.41l-.16.09.15.11s1.84,1.27,5.01,1.27c1.32,0,2.87-.22,4.61-.83l-.07-.21c-1.72.61-3.25.82-4.54.82-1.56,0-2.78-.31-3.61-.62-.42-.15-.73-.31-.95-.42-.11-.06-.19-.11-.24-.14-.05-.03-.08-.05-.08-.05l-.07.09.05.1c1.94-1.03,3.56-1.38,4.87-1.38,1.49,0,2.6.46,3.33.91.37.23.64.45.82.62.09.08.16.15.2.2l.05.06v.02s.19-.14.19-.14Z"/>
    <path class="cls-15" d="M74.92,109.35s1.07,2.63,3.62,1.47c0,0,1.16-.65,1.15-1.19,0,0-3.65-.66-4.77-.28"/>
    <path class="cls-15" d="M91.36,110.53s.85,2.63,2.88,1.47c0,0,.82-.84.81-1.39,0,0-2.8-.46-3.69-.08"/>
  </g>
</svg>