<?xml version="1.0" encoding="UTF-8"?>
<svg id="Layer_1" data-name="Layer 1" xmlns="http://www.w3.org/2000/svg" xmlns:xlink="http://www.w3.org/1999/xlink" viewBox="0 0 623.11 458.53">
  <defs>
    <style>
      .cls-1 {
        fill: #566f6e;
      }

      .cls-1, .cls-2, .cls-3, .cls-4, .cls-5, .cls-6, .cls-7, .cls-8, .cls-9, .cls-10, .cls-11, .cls-12, .cls-13, .cls-14, .cls-15, .cls-16, .cls-17, .cls-18, .cls-19, .cls-20, .cls-21, .cls-22, .cls-23, .cls-24, .cls-25, .cls-26, .cls-27, .cls-28, .cls-29, .cls-30, .cls-31, .cls-32, .cls-33, .cls-34, .cls-35, .cls-36, .cls-37, .cls-38, .cls-39 {
        stroke-width: 0px;
      }

      .cls-2 {
        fill: #dc9373;
      }

      .cls-3 {
        fill: #f68e57;
      }

      .cls-4 {
        fill: #7ac9aa;
      }

      .cls-5 {
        fill: #faa82c;
      }

      .cls-40 {
        clip-path: url(#clippath);
      }

      .cls-6, .cls-41 {
        fill: none;
      }

      .cls-41 {
        stroke: #19181b;
        stroke-miterlimit: 10;
        stroke-width: .06px;
      }

      .cls-7 {
        fill: #f3703a;
      }

      .cls-8 {
        fill: #f26a68;
      }

      .cls-9 {
        fill: #fbc65b;
      }

      .cls-10 {
        fill: #140000;
      }

      .cls-11 {
        fill: #dc756a;
      }

      .cls-12 {
        fill: #d44b57;
      }

      .cls-13 {
        fill: #f4854e;
      }

      .cls-14 {
        fill: #f48577;
      }

      .cls-15 {
        fill: #dad8d3;
      }

      .cls-16 {
        fill: #000;
      }

      .cls-17 {
        fill: #fdc58e;
      }

      .cls-18 {
        fill: #d28164;
      }

      .cls-19 {
        fill: #fab070;
      }

      .cls-20 {
        fill: #19181b;
      }

      .cls-21 {
        fill: #688382;
      }

      .cls-22 {
        fill: #cfc4b9;
      }

      .cls-23 {
        fill: #4b2639;
      }

      .cls-24 {
        fill: #bde5f1;
      }

      .cls-25 {
        fill: #f3d3b6;
      }

      .cls-26 {
        fill: #e3c0a3;
      }

      .cls-27 {
        fill: #63394c;
      }

      .cls-28 {
        fill: #120000;
      }

      .cls-29 {
        fill: #54a256;
      }

      .cls-30 {
        fill: #133c6e;
      }

      .cls-31 {
        fill: #746c64;
      }

      .cls-32 {
        fill: #5c544c;
      }

      .cls-33 {
        fill: #32773f;
      }

      .cls-34 {
        fill: #fcf9d5;
      }

      .cls-35 {
        fill: #e7e2dc;
      }

      .cls-36 {
        fill: #fff;
      }

      .cls-37 {
        fill: #e7e2dd;
      }

      .cls-38 {
        fill: #f9a573;
      }

      .cls-39 {
        fill: #faad5e;
      }
    </style>
    <clipPath id="clippath">
      <rect class="cls-6" x="15.72" width="607.38" height="458.53"/>
    </clipPath>
  </defs>
  <g class="cls-40">
    <path class="cls-4" d="M0,369.1s4.5-9.77,21.6-6.47c0,0-.12-11.28,12.08-13.3,12.2-2.02,11.76,10.5,11.76,10.5,0,0,1.03-10.03,10.86-6.98,9.83,3.04,3.52-18.43,26.91-21.31,0,0,15.5-1.44,19.23,12.4,0,0,9.15-13.85,17.01,0,0,0,21.05-2.41,17.61,18.63,0,0,14.09-13.7,24.89.29,0,0,26.44-10.18,29.87-.02,0,0,15.55-8.87,20.74-1.27,0,0,13.28-2.97,12.38,9.51,0,0,22.04-8.12,26.55,3.33,0,0,4.5-5.25,12.6,0,0,0,9.96-17.8,24.78-7,0,0,19.52-2.16,18.74,6.98,0,0,5.38-11.93,15.35-2.87,0,0,18.95-20.53,37.41-.5,0,0,10.53-11.53,19.44.47,0,0,6.64-32.02,42.64-18.66,0,0,13.87-1.25,15.49,12.03,0,0,23.35-8.69,27.33,7.54,0,0,11.61-18.11,29.17-3.55,0,0,1.49-11.06,15.59-6.32,0,0,1.19-11.19,14.09-10.23,0,0,12.6-2.19,15.6,11.32,0,0,15.59-3.68,20.1,8.72,0,0,6.6-6.37,15.6-.65,0,0,24.88-22.92,47.68-13.49v25.14S0,383.68,0,383.68"/>
    <polygon class="cls-13" points="447.15 351.37 447.15 358.84 458.33 358.84 458.33 364.44 474.13 364.44 474.13 373.16 484.09 373.16 484.09 384.37 545.12 384.37 545.12 351.37 447.15 351.37"/>
    <polygon class="cls-13" points="171.28 384.37 232.31 384.37 232.31 373.16 242.28 373.16 242.28 364.44 258.08 364.44 258.08 358.84 269.26 358.84 269.26 351.37 171.28 351.37 171.28 384.37"/>
    <polygon class="cls-13" points="300.07 182.37 291.36 182.37 291.36 216.82 425.05 216.82 425.05 182.37 416.33 182.37 300.07 182.37"/>
    <path class="cls-32" d="M359.68,57.24c-.96-1.25-1.95-2.41-2.96-3.42v43.88h2.96v-40.46Z"/>
    <path class="cls-32" d="M374.76,105.4c-5.21-1.71-10.77-2.65-16.55-2.65s-11.35.94-16.55,2.65c-21.2,6.96-36.5,26.89-36.5,50.41h106.12c0-23.52-15.31-43.46-36.51-50.41"/>
    <polygon class="cls-32" points="470.89 185.3 470.89 189.9 473.07 189.9 493 189.9 495.18 189.9 495.18 185.3 470.89 185.3"/>
    <polygon class="cls-32" points="221.23 189.9 223.41 189.9 243.34 189.9 245.52 189.9 245.52 185.3 221.23 185.3 221.23 189.9"/>
    <path class="cls-7" d="M402.42,49.29c-10.47-3.43-20.67-12.25-30.87-19.08-5.22-3.7-10.42-6.85-14.84-9.24v7.22c4.89,2.79,11.42,8.01,17.83,14.26,8.5,7.88,16.8,17.46,27.37,21.71,1-4.97,1.18-9.98.51-14.87"/>
    <path class="cls-22" d="M374.76,105.4v-7.7h-33.11v7.7c5.21-1.71,10.77-2.65,16.55-2.65s11.34.94,16.55,2.65"/>
    <polygon class="cls-22" points="416.33 155.81 411.26 155.81 305.15 155.81 300.07 155.81 300.07 182.37 416.33 182.37 416.33 155.81"/>
    <polygon class="cls-22" points="509.47 216.82 509.47 206.95 503.97 206.95 503.97 200.27 497.69 200.27 497.69 194.18 493 194.18 493 189.9 473.07 189.9 473.07 194.18 468.38 194.18 468.38 200.27 462.1 200.27 462.1 206.95 456.61 206.95 456.61 216.82 425.05 216.82 291.36 216.82 259.8 216.82 259.8 206.95 254.31 206.95 254.31 200.27 248.02 200.27 248.02 194.18 243.34 194.18 243.34 189.9 223.41 189.9 223.41 194.18 218.72 194.18 218.72 200.27 212.43 200.27 212.43 206.95 206.94 206.95 206.94 216.82 171.28 216.82 171.28 344.68 171.28 351.37 269.26 351.37 269.26 358.84 258.08 358.84 258.08 364.44 242.28 364.44 242.28 373.16 232.31 373.16 232.31 384.37 484.09 384.37 484.09 373.16 474.13 373.16 474.13 364.44 458.33 364.44 458.33 358.84 447.15 358.84 447.15 351.37 545.12 351.37 545.12 344.68 545.12 216.82 509.47 216.82"/>
    <path class="cls-22" d="M371.76,53.99c.34.44.69.89,1.03,1.35.42.53.84,1.07,1.26,1.61,6.29,8.11,12.49,17.11,22.38,21.84,2.64-4.73,4.48-9.65,5.48-14.62-10.57-4.25-18.87-13.83-27.37-21.71-6.41-6.26-12.93-11.47-17.83-14.26v10.83c4.59,2.67,9.91,8.3,15.05,14.96"/>
    <path class="cls-33" d="M374.04,56.94c-.42-.54-.84-1.08-1.26-1.61-.34-.45-.68-.9-1.03-1.34-5.14-6.66-10.47-12.3-15.06-14.96v14.77s.02.02.03.03c1.01,1.01,1.99,2.17,2.96,3.42,2.35,3.05,4.59,6.74,6.71,10.67,4.97,8.69,9.37,18.5,19.75,24.33,4.19-4.2,7.63-8.73,10.27-13.45-9.89-4.74-16.09-13.74-22.38-21.84"/>
    <path class="cls-35" d="M389.55,59.15c-3.72-3.11-8.52-7.79-13.62-12.82-5.13-5.04-9.5-8.42-12.12-9.94-2.63-1.67,4.73,5.39,4.8,6.6-.21.94-5.86-2.82-6.89-3.07v.32l.06.08c1.43,2.28,4.7,4.59,12.85,15.23,4.02,5.36,8.48,9.21,12.69,10.67,4.14,1.58,7.71.56,8.07-.77.45-1.53-2.15-3.07-5.83-6.29"/>
    <path class="cls-30" d="M378.6,54.37c-.5,2.28-2.56,2.35-4.18.26-1.63-2.09-2.55-5.4-2.46-7.54.11-2.14,1.5-2.41,3.54-.45,2.03,1.95,3.61,5.46,3.1,7.73"/>
    <path class="cls-35" d="M377.68,52.91c.02-.11.37.21.37.21,0-.22,0-.45-.02-.68,0,0-.35-.27-.37-.4-.02-.13.32.04.32.04-.06-.27-.12-.54-.18-.8,0,0-.33-.11-.37-.25-.05-.14.26-.14.26-.14-.11-.27-.21-.53-.32-.8,0,0-.27.03-.34-.11-.06-.14.17-.26.17-.26-.15-.27-.3-.53-.45-.79,0,0-.19.19-.27.06-.08-.13.05-.38.05-.38-.17-.23-.33-.46-.5-.69,0,0-.13.28-.22.17l-.09-.52-.24-.24-.24-.24-.11.32-.2-.58c-.17-.11-.34-.22-.51-.34l.03.44-.25-.56c-.15-.05-.31-.1-.46-.15l.13.53-.31-.53c-.12.02-.24.03-.36.05l.21.57-.35-.47-.26.27.27.55-.36-.36c-.04.14-.09.28-.13.42l.32.51-.36-.24c-.01.15-.02.31-.04.47l.34.46c0,.11-.34-.17-.34-.16.02.21.03.42.05.64,0,0,.32.23.34.36.02.13-.29-.01-.29-.01.05.24.1.49.14.73,0,0,.31.12.34.26.04.14-.24.15-.24.15.08.24.15.48.22.73,0,0,.28.01.34.15.05.14-.17.31-.17.31.09.21.18.42.26.62,0,0,.26-.08.33.05.06.13-.11.41-.11.41.12.2.23.4.35.61l.29-.07-.05.44.25.3.25.31.14-.33.13.59c.14.11.28.21.42.32l.1-.45.2.61c.13.05.26.09.39.13l.02-.53.25.57c.14-.02.27-.03.4-.05l-.1-.58.31.5c.11-.08.23-.17.34-.25l-.2-.59.34.41c.07-.14.15-.28.23-.43l-.29-.56.37.3c.03-.16.07-.32.09-.49,0,0-.35-.41-.33-.52"/>
    <path class="cls-30" d="M376.15,52.11c.49.68.97,1.37,1.46,2.06-.45-.75-.91-1.5-1.38-2.23-.21-.28-.42-.55-.63-.82l.02-.06c.21.27.42.53.63.8.52.54,1.05,1.09,1.58,1.64-.52-.63-1.03-1.25-1.55-1.86-.22-.21-.44-.42-.65-.63v-.06c.22.21.44.41.66.62.53.38,1.06.75,1.6,1.13-.54-.47-1.08-.93-1.61-1.4-.22-.14-.44-.28-.65-.42v-.08c.2.12.42.25.64.37.49.16.99.33,1.49.49-.53-.26-1.04-.52-1.55-.78-.2-.05-.41-.1-.61-.15l-.02-.08c.19.03.39.06.59.1.42-.06.84-.12,1.26-.19-.46-.04-.92-.08-1.37-.11-.17.04-.34.09-.51.13l-.03-.08c.16-.06.32-.12.49-.19.31-.28.62-.56.92-.84-.35.19-.71.37-1.07.56-.13.13-.25.27-.38.4l-.04-.07c.12-.15.23-.31.34-.46.18-.48.36-.95.51-1.43-.21.39-.44.78-.68,1.17-.07.22-.14.44-.21.66l-.04-.05c.05-.24.11-.48.15-.72.02-.65.03-1.31,0-1.96-.04.58-.11,1.18-.2,1.76,0,.29,0,.58,0,.87l-.05-.05c0-.3-.01-.6-.02-.89-.12-.77-.26-1.53-.43-2.29.11.71.19,1.43.24,2.15.06.33.11.66.16.99l-.05-.03c-.06-.34-.13-.68-.2-1.01-.25-.83-.52-1.65-.82-2.46.24.79.46,1.59.65,2.4.11.35.22.7.32,1.05h-.04c-.11-.36-.23-.72-.35-1.07-.36-.83-.73-1.65-1.13-2.46.35.81.68,1.64.99,2.48.15.34.3.69.46,1.04h-.04c-.16-.33-.32-.67-.48-1.02-.45-.78-.9-1.55-1.37-2.3.43.79.85,1.58,1.26,2.39.19.32.37.64.56.96l-.03.03c-.19-.31-.38-.62-.57-.93-.49-.67-1-1.34-1.5-1.99.48.7.96,1.42,1.43,2.14.21.27.42.54.62.81l-.02.05c-.21-.26-.42-.52-.63-.78-.52-.52-1.04-1.03-1.55-1.54.51.57,1.01,1.16,1.52,1.76.21.2.43.41.64.61v.08c-.22-.19-.43-.38-.65-.57-.51-.34-1.01-.67-1.51-.99.51.41,1.02.83,1.53,1.26.21.13.42.25.63.38v.08c-.2-.11-.41-.22-.61-.33-.47-.13-.93-.25-1.4-.38.48.22.97.44,1.46.67.19.04.39.08.58.12l.02.08c-.19-.02-.38-.04-.57-.06-.4.09-.81.18-1.21.27.44,0,.88.02,1.32.03.16-.05.33-.11.49-.16l.03.08c-.16.07-.32.14-.47.21-.31.3-.63.6-.97.9.37-.21.74-.41,1.1-.61.12-.14.25-.29.37-.43l.04.07c-.11.16-.23.32-.35.48-.21.5-.43.99-.66,1.48.29-.41.56-.82.83-1.23.08-.22.15-.45.23-.67l.05.06c-.07.24-.13.48-.2.71-.08.66-.18,1.32-.31,1.97.19-.59.35-1.18.49-1.77.02-.29.05-.58.07-.87l.04.04c0,.31,0,.62-.01.93.06.79.1,1.58.11,2.37.05-.75.07-1.49.07-2.24-.04-.34-.08-.68-.12-1.03l.05.03c.06.35.11.7.16,1.05.2.85.36,1.7.51,2.55-.08-.84-.19-1.67-.33-2.49-.09-.36-.19-.73-.29-1.09h.04c.11.37.22.73.32,1.1.32.85.61,1.7.89,2.56-.22-.87-.47-1.73-.73-2.58-.14-.36-.29-.71-.44-1.07h.04c.16.34.31.69.46,1.04.42.79.82,1.59,1.21,2.4-.35-.84-.71-1.67-1.09-2.5-.18-.33-.36-.65-.55-.98l.03-.03c.19.32.38.63.57.95"/>
    <path class="cls-5" d="M391.1,47.48c-4.65-2.92-10.9-7.67-17.78-12.77-5.64-4.17-10.49-7.15-13.86-9.01,0,0,20.31,14.84,15.11,13.13-5.69-2.36,11.81,9.56,16.77,12.46,4.49,2.47,7.51,2.36,7.45,1.48-.05-1.11-3.05-2.22-7.69-5.29"/>
    <path class="cls-29" d="M385.32,75.97c-3.62-3.58-7.88-9.1-12.2-15.11-4.35-6.03-8.32-10.25-11.01-12.27-1.16-.91-2.09-1.4-2.82-1.63,0,0,5.12,10.68,10.79,20.2,3.72,6.19.35-5.12,2.98-1.08,9.45,14.39,17.4,17.36,17.99,16.26.7-1.04-2.2-2.67-5.73-6.38"/>
    <rect class="cls-37" x="245.52" y="257.19" width="11.01" height="4.98"/>
    <rect class="cls-37" x="241.37" y="266.11" width="11.01" height="4.98"/>
    <rect class="cls-37" x="248.79" y="279.08" width="11.01" height="4.98"/>
    <rect class="cls-37" x="240.01" y="240.9" width="11.01" height="4.98"/>
    <rect class="cls-37" x="243.28" y="293.61" width="11.01" height="4.98"/>
    <rect class="cls-37" x="251.02" y="307.1" width="11.01" height="4.98"/>
    <rect class="cls-37" x="243.28" y="318.31" width="11.01" height="4.98"/>
    <rect class="cls-37" x="408.53" y="257.19" width="11.01" height="4.98"/>
    <rect class="cls-37" x="404.38" y="266.11" width="11.02" height="4.98"/>
    <rect class="cls-37" x="411.8" y="279.08" width="11.01" height="4.98"/>
    <rect class="cls-37" x="403.02" y="240.9" width="11.02" height="4.98"/>
    <rect class="cls-37" x="406.29" y="293.61" width="11.02" height="4.98"/>
    <rect class="cls-37" x="414.04" y="307.1" width="11.01" height="4.98"/>
    <rect class="cls-37" x="406.29" y="318.31" width="11.02" height="4.98"/>
    <rect class="cls-37" x="319.7" y="241.43" width="11.01" height="4.55"/>
    <rect class="cls-37" x="334.41" y="235.08" width="11.02" height="4.55"/>
    <rect class="cls-37" x="360.32" y="239.63" width="11.01" height="4.55"/>
    <rect class="cls-37" x="307.33" y="232.8" width="11.02" height="4.55"/>
    <rect class="cls-37" x="353.86" y="232.8" width="11.01" height="4.55"/>
    <rect class="cls-37" x="378.6" y="231.76" width="11.01" height="4.55"/>
    <rect class="cls-37" x="384.11" y="239.63" width="11.02" height="4.55"/>
    <rect class="cls-37" x="326.68" y="170.88" width="11.01" height="4.55"/>
    <rect class="cls-37" x="341.38" y="164.53" width="11.01" height="4.55"/>
    <rect class="cls-37" x="367.29" y="169.08" width="11.01" height="4.55"/>
    <rect class="cls-37" x="314.31" y="162.26" width="11.02" height="4.55"/>
    <rect class="cls-37" x="360.83" y="162.26" width="11.02" height="4.55"/>
    <rect class="cls-37" x="385.58" y="161.21" width="11.02" height="4.55"/>
    <rect class="cls-37" x="391.09" y="169.08" width="11.01" height="4.55"/>
    <rect class="cls-37" x="462.11" y="257.19" width="11.02" height="4.98"/>
    <rect class="cls-37" x="457.96" y="266.11" width="11.02" height="4.98"/>
    <rect class="cls-37" x="465.38" y="279.08" width="11.02" height="4.98"/>
    <rect class="cls-37" x="456.61" y="240.9" width="11.02" height="4.98"/>
    <rect class="cls-37" x="459.88" y="293.61" width="11.02" height="4.98"/>
    <rect class="cls-37" x="467.62" y="307.1" width="11.01" height="4.98"/>
    <rect class="cls-37" x="459.88" y="318.31" width="11.02" height="4.98"/>
    <rect class="cls-37" x="298.73" y="262.65" width="8.6" height="3.89"/>
    <rect class="cls-37" x="295.49" y="269.62" width="8.6" height="3.89"/>
    <rect class="cls-37" x="301.29" y="279.74" width="8.6" height="3.89"/>
    <rect class="cls-37" x="294.43" y="249.93" width="8.6" height="3.89"/>
    <rect class="cls-37" x="296.99" y="291.08" width="8.6" height="3.89"/>
    <rect class="cls-37" x="303.03" y="301.61" width="8.6" height="3.89"/>
    <rect class="cls-37" x="296.99" y="310.36" width="8.6" height="3.89"/>
    <rect class="cls-32" x="188.57" y="236.74" width="10.32" height="94.64"/>
    <rect class="cls-32" x="206.85" y="236.74" width="10.33" height="94.64"/>
    <rect class="cls-32" x="225.14" y="236.74" width="10.32" height="94.64"/>
    <rect class="cls-32" x="268.26" y="236.74" width="23.1" height="94.64"/>
    <rect class="cls-32" x="519.28" y="236.74" width="10.32" height="94.64"/>
    <rect class="cls-32" x="500.99" y="236.74" width="10.33" height="94.64"/>
    <rect class="cls-32" x="482.7" y="236.74" width="10.33" height="94.64"/>
    <rect class="cls-32" x="426.81" y="236.74" width="23.1" height="94.64"/>
    <rect class="cls-32" x="353.04" y="252.52" width="10.33" height="78.86"/>
    <rect class="cls-32" x="334.75" y="252.52" width="10.33" height="78.86"/>
    <rect class="cls-32" x="316.46" y="252.52" width="10.33" height="78.86"/>
    <rect class="cls-32" x="389.62" y="252.52" width="10.33" height="78.86"/>
    <rect class="cls-32" x="371.33" y="252.52" width="10.33" height="78.86"/>
    <rect class="cls-31" x="175.63" y="223.88" width="365.15" height="4.36"/>
    <rect class="cls-31" x="175.63" y="337.46" width="365.15" height="4.36"/>
    <rect class="cls-31" x="287.04" y="351.37" width="142.33" height="2.9"/>
    <rect class="cls-31" x="278.72" y="359.72" width="158.97" height="2.89"/>
    <rect class="cls-31" x="265.83" y="368.07" width="184.76" height="2.89"/>
    <rect class="cls-31" x="251.61" y="376.43" width="213.18" height="2.9"/>
    <rect class="cls-39" x="295.56" y="201.13" width="125.29" height="10.39"/>
    <rect class="cls-39" x="302.43" y="187.67" width="60.04" height="7.34"/>
    <rect class="cls-39" x="177.52" y="367.69" width="43.55" height="8.74"/>
    <rect class="cls-39" x="179.91" y="356.37" width="20.87" height="6.18"/>
    <rect class="cls-39" x="495.34" y="367.69" width="43.55" height="8.74"/>
    <rect class="cls-39" x="515.63" y="356.37" width="20.87" height="6.18"/>
    <path class="cls-15" d="M248.03,456.92c0,.89-4.81,1.62-10.73,1.62s-10.73-.72-10.73-1.62,4.81-1.62,10.73-1.62,10.73.72,10.73,1.62"/>
    <path class="cls-8" d="M233.07,453.85c-.5-.12-2.7.72-3.5,1.32-.8.6-.8,1.56-.1,1.68.7.12,4.4.48,5.7,0,1.3-.48,1-2.28.3-2.76-1.17-.8-2.4-.24-2.4-.24"/>
    <path class="cls-17" d="M236.28,430.72s0,.13,0,.38c-.07,2.94-.54,21.75-.83,22.91-.32,1.25-1.68.87-2.21.29-.53-.58-3.47-23.67-3.26-25.79l6.31,2.21Z"/>
    <path class="cls-8" d="M241.08,453.85c.5-.12,2.72.72,3.52,1.32.8.6.8,1.56.1,1.68-.71.12-4.43.48-5.74,0-1.31-.48-1.01-2.28-.3-2.76,1.17-.8,2.42-.24,2.42-.24"/>
    <path class="cls-17" d="M237.85,430.72s0,.13,0,.38c.07,2.94.54,21.75.83,22.91.32,1.25,1.68.87,2.21.29.53-.58,3.47-23.67,3.26-25.79l-6.31,2.21Z"/>
    <path class="cls-10" d="M236.9,351.74c-8.99,0-8.72,8.01-8.45,11.55.27,3.54-1.58,6.42-2.68,7.65,0,0,2.06,3.75,10.51,3.75s10.44-4.4,10.44-4.4c0,0-2.27-2.82-1.79-7.72.48-4.91-.82-10.83-8.03-10.83"/>
    <path class="cls-19" d="M232.57,372.31s1.65-.04,1.51-3.61c-.07-1.9,5.56-.47,5.56-.47,0,0-1.68,3.11.39,3.94,1.23.49.02,3.18.02,3.18l-4.32,1.95-2.06-1.08-1.44-2.53.34-1.08"/>
    <path class="cls-8" d="M232.57,372.31s1.36,3.03,4.14,2.82c2.79-.22,3.32-2.96,3.32-2.96,0,0,2.71.94,3.84,1.37,1.13.43,12.05,15.73,12.13,16.82l-11.33-3.13s.9,11.65,2.96,20.16c3.43,14.18,7.68,19.05,7.68,19.05,0,0-8.89,5.12-19.06,5.12s-16.12-5.27-16.12-5.27c0,0,6.57-10.76,7.66-20.02,1.1-9.33.4-17.03.4-17.03l-7.08,1.47s6.48-15.52,7.23-16.46c.75-.94,4.22-1.95,4.22-1.95"/>
    <path class="cls-23" d="M239.3,382l-.24,7.46c0,.32.22.59.52.61l2.51.18c.29.02.55-.2.59-.5l1.07-7.48c.05-.35-.2-.66-.53-.68l-3.35-.16c-.31-.01-.58.24-.59.57"/>
    <path class="cls-17" d="M234.35,387.32s2.3-1.99,3.05-2.17c.76-.18,2.64-.43,2.85-.29.21.14.03.47.03.47,0,0,.65.11.65.4s-.34.58-.34.58c0,0,.41.22.45.4.03.18-.34.58-.34.58,0,0,.41.25.41.58s-1.51.97-2.4,1.26c-.89.29-2.68.32-3.54.36-.86.04-.82-2.17-.82-2.17"/>
    <path class="cls-17" d="M247.53,388.09s-1.77-2.14-2.42-2.42c-.65-.28-2.3-.81-2.51-.71-.21.1-.1.41-.1.41,0,0-.6,0-.64.25-.04.26.22.57.22.57,0,0-.4.13-.46.28-.06.15.22.57.22.57,0,0-.4.16-.45.45-.05.29,1.21,1.11,1.97,1.51.76.4,2.35.72,3.11.89.76.17,1.05-1.81,1.05-1.81"/>
    <path class="cls-17" d="M237.22,370.38c5.83,0,9-15.59,0-15.59s-6.93,15.59,0,15.59"/>
    <path class="cls-8" d="M224.05,389.12c-2.59,1.18-1.62,4.91,1.58,5.2,3.2.29,10.21-3.83,10.57-4.11.37-.29-1.65-3.75-1.65-3.75,0,0-7.76,1.42-10.51,2.67"/>
    <path class="cls-14" d="M247.12,386.67c-.27-.07-1.85,3.14-1.82,3.54.04.4,4.94,3.36,7.11,3.68,2.16.32,2.92-2.71,2.54-3.93-.38-1.23-2.23-1.73-7.83-3.28"/>
    <path class="cls-10" d="M237.51,358.45s-3.57,3.39-7.55,2.6c0,0,.27-7.07,7.48-7.07s6.46,7.36,6.46,7.36c0,0-4.6.07-6.39-2.89"/>
    <path class="cls-12" d="M234.21,386.59c-1.67.17-3.18.68-4.82.99-1.79.34-3.6.57-5.29,1.32-.17.07-.05.36.12.31,1.58-.51,3.17-.79,4.8-1.07,1.76-.31,3.48-.78,5.24-1.12.24-.04.18-.47-.06-.44"/>
    <path class="cls-12" d="M235.81,390.23c-1.07.37-2,1.1-3.05,1.54-1.13.48-2.27.93-3.33,1.56-.25.15-.03.53.22.4,2.1-1.09,4.28-1.88,6.3-3.13.18-.12.06-.44-.15-.37"/>
    <path class="cls-12" d="M253.44,388.26c-1.94-.9-4.16-1.41-6.26-1.67-.16-.02-.19.27-.04.29,2.14.31,4.09,1.15,6.18,1.68.16.04.29-.22.12-.3"/>
    <path class="cls-12" d="M240.53,372.72c-.13,0-.27.15-.22.3.12.33.42.5.37.9-.04.31-.22.43-.46.43-.01-.03-.02-.05-.04-.07-.1-.18-.4-.16-.44.06-.1.51.06,1.05-.32,1.49-.37.43-.96.1-1.33-.2,0-.02,0-.04,0-.07,0-.25-.27-.33-.43-.19-.39.36-.26.92-.91.97-.46.04-.91-.25-1.15-.66.05-.08.09-.17.11-.27.03-.17-.1-.32-.26-.28-.05.01-.1.03-.14.05-.06,0-.12.03-.15.08-.1.06-.19.12-.3.16-.21.07-.43.04-.62-.06-.16-.08-.26-.22-.31-.39-.05-.19.06-.36.07-.55,0,0,.01-.02.02-.03.06-.16-.09-.28-.22-.3-.21-.03-.39.14-.6.14-.18,0-.35-.1-.47-.24-.29-.33-.15-.76.19-.96.18-.11.02-.38-.16-.29-.57.28-.74.94-.41,1.5.16.27.43.46.73.52.09.02.19.03.29.02-.01.1-.01.2,0,.29.05.34.25.6.52.8.33.25.98.31,1.41.08.53,1.08,2.28,1.29,2.71.11.45.45,1.03.69,1.64.34.48-.27.75-.99.7-1.6.33,0,.65-.21.8-.59.19-.48.04-1.52-.61-1.5"/>
    <path class="cls-12" d="M236.89,377.69c-.33,0-.61.29-.61.64s.28.64.61.64.61-.29.61-.64-.28-.64-.61-.64"/>
    <path class="cls-12" d="M236.89,382.02c-.33,0-.61.29-.61.64s.28.64.61.64.61-.29.61-.64-.28-.64-.61-.64"/>
    <path class="cls-12" d="M251.67,425.45c-1.67,1.53-4.41,2.34-6.51,2.94-2.71.77-5.58,1.02-8.38,1.06-4.42.06-10.3-.39-13.57-3.93-.14-.15-.4.05-.29.23,1.19,1.85,3.33,2.72,5.29,3.33,2.6.81,5.35,1.12,8.05,1.19,3.05.08,6.15-.26,9.12-1,1.44-.36,2.81-.95,4.19-1.5.99-.39,1.99-.82,2.74-1.63.42-.46-.21-1.09-.65-.69"/>
    <path class="cls-12" d="M226.77,426.68s-.02-.02-.04-.03c-.2-.16-.52-.08-.52.23s.32.39.52.23c.01-.01.02-.02.04-.03.1-.09.1-.31,0-.39"/>
    <path class="cls-12" d="M230.78,427.91c-.49,0-.49.8,0,.8s.49-.8,0-.8"/>
    <path class="cls-12" d="M235.21,428.22s-.02-.01-.02-.02c-.28-.2-.66.06-.66.4s.38.6.66.4c0,0,.02-.01.02-.02.27-.19.27-.58,0-.76"/>
    <path class="cls-12" d="M239.77,428.2s-.02,0-.03,0c-.25-.05-.51.11-.51.41s.26.45.51.41h.03c.38-.08.38-.74,0-.81"/>
    <path class="cls-12" d="M243.55,427.52c-.71,0-.71,1.16,0,1.16s.71-1.16,0-1.16"/>
    <path class="cls-12" d="M248.01,426.61c-.49,0-.49.8,0,.8s.49-.8,0-.8"/>
    <path class="cls-36" d="M240.11,381.94c-.39,0-.39.64,0,.64s.39-.64,0-.64"/>
    <path class="cls-36" d="M241.01,382.2c-.26,0-.26.42,0,.42s.26-.42,0-.42"/>
    <path class="cls-19" d="M237.67,365.48c-.27.1-.5.25-.78.08-.1-.06-.24.07-.16.17.12.17.3.34.52.34.26,0,.49-.08.64-.31.09-.14-.06-.35-.21-.29"/>
    <path class="cls-2" d="M238.17,367.24c-.21.03-.38.14-.58.2-.22.06-.47-.07-.68-.13-.18-.05-.29.18-.18.32.44.52,1.46.72,1.74-.07.08-.21-.14-.34-.3-.32"/>
    <path class="cls-36" d="M236.05,363.43s-2.8-1.91-5.79,0c0,0,2.51,1.48,5.79,0"/>
    <path class="cls-41" d="M236.05,363.43s-2.8-1.91-5.79,0c0,0,2.51,1.48,5.79,0Z"/>
    <path class="cls-36" d="M244.39,363.43s-2.68-1.91-5.53,0c0,0,2.4,1.48,5.53,0"/>
    <path class="cls-41" d="M244.39,363.43s-2.68-1.91-5.53,0c0,0,2.4,1.48,5.53,0Z"/>
    <path class="cls-20" d="M235.82,362.22s-2.51-1.24-5.34.23c0,0,2.87-2.07,5.34-.23"/>
    <path class="cls-20" d="M238.74,362.36s2.51-1.24,5.34.23c0,0-2.87-2.07-5.34-.23"/>
    <path class="cls-41" d="M236.25,362.71s.94-.04.7,1.98l-.11.68"/>
    <path class="cls-16" d="M232.51,362.67s0,.93,1.11.72c0,0,.5-.12.56-.69,0,0-1.33-.19-1.67-.03"/>
    <path class="cls-16" d="M240.24,362.78s.23.9,1.32.61c0,0,.38-.22.4-.79,0,0-1.4,0-1.72.18"/>
    <path class="cls-12" d="M237.48,361.95c0,.11-.09.21-.2.21s-.2-.09-.2-.21.09-.21.2-.21.2.09.2.21"/>
    <path class="cls-12" d="M386.96,410.42c-.21,0-.21.33,0,.33s.21-.33,0-.33"/>
    <path class="cls-15" d="M491.26,451.2c0,1.14-7.64,2.06-17.08,2.06s-17.07-.92-17.07-2.06,7.64-2.06,17.07-2.06,17.08.92,17.08,2.06"/>
    <path class="cls-3" d="M463.91,366.3s.6,4-1.07,4.67c-1.39.56,1.73,3.94,1.73,3.94l4.27-.13,2.14-1.87-.73-1.93s-1.27-.37-1.67-5.44c-.15-1.9-4.67.77-4.67.77"/>
    <path class="cls-23" d="M462.71,448.47c-.83.23-4.54.93-4.47,2.47.04,1.05,1.47.68,3.93.56,2.47-.12,2.98-.04,3.07-.56.27-1.48.13-3.22-2.54-2.47"/>
    <path class="cls-38" d="M460.84,443.08s1,4.54,1.4,5.6c.4,1.07,1.8.87,2.07.27.27-.6.13-6-.2-6.94-.33-.93-3.27,1.07-3.27,1.07"/>
    <path class="cls-23" d="M484.59,447.81c.85.16,4.6.52,4.67,2.07.05,1.05-1.4.81-3.87.9-2.47.1-2.97.23-3.11-.28-.4-1.45-.42-3.19,2.31-2.69"/>
    <path class="cls-38" d="M484.47,442.13s.48,4.62.43,5.76c-.04,1.14-1.44,1.39-1.88.9-.44-.49-2.01-5.66-1.99-6.65.02-.99,3.44-.01,3.44-.01"/>
    <path class="cls-25" d="M457.44,402.19s-.93,20.01-.87,23.88c.07,3.87,3.67,15.88,3.93,17.08.27,1.2,3.34.47,3.94.2.6-.27-.73-13.41-.47-17.14.27-3.74,4.14-13.08,4.74-13.54.6-.47.87-.4,1.13.13.27.53,3.87,11.14,4.74,13.67.87,2.54,5.8,15.74,6.2,16.48.4.73,3.74.2,4.14-.4.4-.6-2.07-16.14-2.4-20.28-.33-4.14-.27-14.88-.73-17.34-.47-2.47-1.4-4.54-1.4-4.54l-22.95,1.8Z"/>
    <path class="cls-38" d="M481.06,387.65s1.2,1.2,1.8,3.54c.6,2.33-.13,11.01-3,13.54,0,0,.4,2.07,1.67,2.74,0,0,7.2-7.74,5.47-17.68-.63-3.61-2.34-4-3.2-5.2-.87-1.2-2.73,3.07-2.73,3.07"/>
    <path class="cls-3" d="M462.4,362.18c0,1.27-1.03,2.3-2.3,2.3s-2.3-1.03-2.3-2.3,1.03-2.3,2.3-2.3,2.3,1.03,2.3,2.3"/>
    <path class="cls-3" d="M474.32,362.18c0,1.27-1.03,2.3-2.3,2.3s-2.3-1.03-2.3-2.3,1.03-2.3,2.3-2.3,2.3,1.03,2.3,2.3"/>
    <path class="cls-38" d="M466.33,369.62c6.39,0,9.86-15.51,0-15.51s-7.59,15.51,0,15.51"/>
    <path class="cls-10" d="M472.55,361.17c-1.18.17-3.05-1.87-3.42-3.16,0,0-2.6,1.65-3.57,1.29-.97-.36-.6-1.15-.6-1.15,0,0-2.31,2.08-3.05,2.15-.74.07-.6-.65-.6-.65,0,0-.67,1.44-2.08,1.51-1.41.07-1.12-3.66-.22-4.95,0,0-1.34.93-1.64.29-.3-.65,2.31-4.24,5.73-4.38,0,0-1.19-.29-1.19-1.08s5.88-.65,7.59,1.08c0,0,2.75.36,3.64,1.44.89,1.08-.07,1.29-.07,1.29,0,0,2.01,5.96-.52,6.32"/>
    <path class="cls-23" d="M462.85,370.97s.13,2.47,3.47,2.6c3.33.13,3.94-2.6,3.94-2.6,0,0,4.47.47,6.14,2.2,1.67,1.74,7.47,8.81,8.67,12.14,0,0-2.54,3.13-4.27,3.4,0,0-2.27-3.8-3.27-4.4,0,0,2.8,15.74,3.8,17.54,0,0-5.74,3.67-12.94,3.67s-12.14-2.33-12.14-2.33c0,0,2.27-10.87,1.73-15.28l-6.94,4.74s5.34-16.68,6.27-18.41c.93-1.74,5.54-3.27,5.54-3.27"/>
    <path class="cls-36" d="M461.46,377.9l1.96,6.48c.09.31-.08.64-.39.75l-1.8.6c-.3.1-.62-.05-.74-.34l-2.69-6.32c-.14-.33.04-.71.38-.81l2.53-.75c.32-.09.65.09.75.4"/>
    <path class="cls-38" d="M463.45,380.24c0-.67-.2-1-.2-1-.13-.6-1-.47-1-.47-.13-.4-.67-.47-1.07-.07-.4.4-.53,1.07-.8,1.27-.27.2-.8.27-1.4.6-.6.33-1.47,3.74-1.47,3.74-1.8,1.93-5.47,5.47-6.67,7.74-1.2,2.27,1.2,3.94,3.27,3.67,2.07-.27,4.27-5.2,5-6.8.71-1.56.68-2.58,1.33-3.53,1.94-1.47,3.09-3.62,3.14-4.07.07-.67-.13-1.07-.13-1.07"/>
    <path class="cls-27" d="M462.69,372.14c-.03-.14-.05-.29-.05-.43,0-.22-.34-.27-.39-.05-.07.29-.15.79.17.94.08.04.21.03.25-.07.03-.06.06-.11.06-.18s-.03-.14-.04-.21"/>
    <path class="cls-27" d="M463.59,373.5c-.11-.11-.25-.17-.37-.26-.12-.1-.18-.24-.29-.34-.07-.06-.16-.03-.19.05-.06.19.04.43.14.6.13.21.38.36.62.29.14-.04.2-.24.09-.34"/>
    <path class="cls-27" d="M465.33,374.09c-.25-.27-.69-.18-1-.33-.16-.07-.35.13-.2.26.28.25.73.47,1.11.42.17-.02.19-.25.09-.36"/>
    <path class="cls-27" d="M467.11,374.1c-.14-.05-.29-.05-.44-.06-.14-.01-.28-.04-.42-.05-.17,0-.24.21-.13.32.24.26.74.42,1.04.19.15-.11.14-.33-.05-.4"/>
    <path class="cls-27" d="M468.71,373.7c-.18-.03-.3.05-.44.14-.12.08-.25.13-.4.16-.2.04-.14.34.05.35.3.01.84-.04.94-.39.03-.1-.04-.25-.15-.26"/>
    <path class="cls-27" d="M469.67,372.88s-.08.03-.12.05c-.04.02-.05.02-.02.01-.07.03-.13.07-.2.1-.19.1-.24.35-.14.53.11.19.34.23.53.14.18-.09.3-.23.37-.41.09-.24-.18-.49-.41-.41"/>
    <path class="cls-27" d="M470.87,371.98c-.04-.11-.16-.2-.28-.16-.24.09-.32.33-.36.56-.04.21.22.42.39.23.15-.17.33-.39.26-.63"/>
    <path class="cls-27" d="M481.44,387.84c-.12.05-.24.13-.37.16-.2.06-.17.39.05.37.23-.02.43-.09.54-.3.08-.16-.08-.29-.23-.23"/>
    <path class="cls-27" d="M482.62,386.81c-.25.12-.41.36-.66.47-.08.04-.11.14-.09.22.03.11.13.15.24.13.32-.06.65-.25.79-.55.08-.18-.08-.37-.27-.27"/>
    <path class="cls-27" d="M483.4,386.11c-.19.06-.3.17-.44.31-.17.18.06.52.28.36.06-.05.13-.09.19-.13.09-.06.15-.13.21-.22.11-.16-.07-.37-.24-.31"/>
    <path class="cls-27" d="M484.2,385.1c-.15.1-.25.23-.33.4-.18.35.3.62.52.31.11-.15.17-.3.19-.49.02-.19-.23-.32-.38-.22"/>
    <path class="cls-27" d="M472.79,381.74c-.82,0-1.51.69-1.51,1.51s.69,1.51,1.51,1.51,1.51-.69,1.51-1.51-.69-1.51-1.51-1.51"/>
    <path class="cls-27" d="M458.01,402.89c-.26-.21-.57-.25-.9-.26-.38-.01-.37.56,0,.58.25.01.49.09.73.08.18,0,.34-.26.17-.4"/>
    <path class="cls-27" d="M460.15,403.35c-.3-.19-.71-.19-1.06-.26-.22-.04-.3.25-.09.33.33.13.69.32,1.05.3.2,0,.28-.27.1-.38"/>
    <path class="cls-27" d="M462.55,403.88c-.41-.23-.98-.19-1.44-.2-.21,0-.24.3-.05.36.22.06.43.1.66.13.24.03.48.1.72.1.2,0,.29-.28.11-.39"/>
    <path class="cls-27" d="M465.17,404.27c-.33-.14-.75-.22-1.12-.21-.26,0-.26.39,0,.41.37.02.7.24,1.07.19.23-.03.26-.3.05-.39"/>
    <path class="cls-27" d="M467.77,404.52c-.43-.2-.92-.2-1.39-.17-.31.02-.31.47,0,.48.42.02.84.14,1.27.13.22,0,.34-.33.12-.44"/>
    <path class="cls-27" d="M470.1,404.48c-.36-.08-.75,0-1.12.02-.2.02-.2.3,0,.31.37.03.75.11,1.12.02.18-.04.18-.32,0-.36"/>
    <path class="cls-27" d="M472.25,404.18c-.27-.03-.53.03-.8.03-.33,0-.32.47,0,.5.34.03.67.08.95-.17.15-.14.02-.35-.15-.37"/>
    <path class="cls-27" d="M474.05,403.81c-.3-.01-.7-.02-.94.18-.11.09-.05.24.04.31.29.21.73,0,.99-.15.17-.09.08-.33-.09-.34"/>
    <path class="cls-27" d="M476.25,403.15c-.32.03-.62.13-.93.21-.29.08-.17.53.12.45.31-.09.63-.15.89-.35.12-.09.1-.34-.09-.32"/>
    <path class="cls-27" d="M478.93,401.97c-.45.09-.93.32-1.34.53-.3.15-.04.57.26.44.43-.19.95-.27,1.3-.6.18-.16-.01-.42-.22-.38"/>
    <path class="cls-27" d="M480.47,401.06c-.16.04-.29.08-.42.19-.11.1-.26.21-.3.36-.03.1.03.19.12.22.15.05.34-.04.47-.11.09-.05.17-.09.23-.18.04-.06.08-.12.12-.18.1-.15-.07-.34-.23-.3"/>
    <path class="cls-26" d="M460.84,405.74c-.29.65-.68,1.12-1.26,1.53-.53.38-1.14.61-1.65,1.01-.21.16.02.49.25.43,1.21-.34,2.87-1.46,3.09-2.78.04-.24-.31-.44-.43-.18"/>
    <path class="cls-26" d="M481.64,408.46c-.78-.39-1.54-.69-2.17-1.31-.66-.64-.99-1.51-1.12-2.4-.03-.18-.33-.14-.32.04.18,1.9,1.46,3.73,3.43,4.1.25.04.43-.3.18-.43"/>
    <path class="cls-26" d="M463.12,442.35c-.34.08-.67.18-1.03.21-.37.03-.75-.02-1.12-.05-.2-.02-.22.28-.05.34.71.25,1.71.35,2.35-.12.19-.14.08-.44-.16-.38"/>
    <path class="cls-26" d="M483.89,441.97c-.77.35-1.43.57-2.3.56-.28,0-.27.41,0,.43.82.06,2.07.07,2.58-.71.12-.19-.11-.35-.28-.28"/>
    <path class="cls-26" d="M469.07,406.73c0-.19-.3-.19-.3,0-.03,1.13-.14,2.33-.12,3.49-1.37-.93-.33-2.5-1.06-3.74-.11-.19-.45-.12-.43.12.06.78.08,1.63.22,2.4.14.78.54,1.24,1.28,1.5.01.33.03.65.08.97.03.24.34.24.38,0,.2-1.54,0-3.19-.04-4.74"/>
    <path class="cls-26" d="M463.21,427.6c.28-5.02,2.21-9.58,3.83-14.25.02-.07-.08-.11-.11-.05-2.05,4.15-3.57,8.76-4.13,13.35-.3,2.41-.04,4.76.23,7.16.3,2.65.35,5.29.54,7.94.02.22.37.3.41.06.7-4.69-1.04-9.48-.77-14.2"/>
    <path class="cls-26" d="M481.56,441.13c-.73-2.67-2.05-5.2-3.23-7.69-1.4-2.96-2.34-6.05-3.36-9.16-.81-2.45-1.74-4.85-2.37-7.35-.35-1.4-.74-3.42-2.12-4.18-.07-.04-.12.06-.06.1,1.54,1.12,1.77,3.59,2.19,5.31.62,2.6,1.63,5.15,2.4,7.71,1.6,5.3,3.85,10.31,5.95,15.42.15.36.71.23.6-.17"/>
    <path class="cls-23" d="M459.73,378.65c-.45,0-.45.7,0,.7s.45-.7,0-.7"/>
    <path class="cls-23" d="M460,379.57c-.18,0-.18.28,0,.28s.18-.28,0-.28"/>
    <path class="cls-3" d="M465.97,364.65c-.26.07-.52.27-.77.03-.13-.12-.31.03-.24.18.22.44.99.59,1.25.1.08-.16-.05-.37-.24-.31"/>
    <path class="cls-18" d="M466.48,366.11c-.26,0-.47.11-.71.19-.29.09-.55.09-.82-.05-.28-.14-.53.19-.33.43.49.57,1.71.56,2.12-.1.13-.2-.04-.45-.27-.46"/>
    <path class="cls-12" d="M492.89,421.76c-.13.13-.13.35,0,.49"/>
    <path class="cls-36" d="M464.68,362.69s-2.73-1.76-5.62,0c0,0,2.44,1.37,5.62,0"/>
    <path class="cls-41" d="M464.68,362.69s-2.73-1.76-5.62,0c0,0,2.44,1.37,5.62,0Z"/>
    <path class="cls-36" d="M472.79,362.69s-2.61-1.76-5.37,0c0,0,2.33,1.37,5.37,0"/>
    <path class="cls-41" d="M472.79,362.69s-2.61-1.76-5.37,0c0,0,2.33,1.37,5.37,0Z"/>
    <path class="cls-20" d="M464.46,361.77s-2.44-1.15-5.19.21c0,0,2.78-1.91,5.19-.21"/>
    <path class="cls-20" d="M467.3,361.9s2.44-1.15,5.19.21c0,0-2.78-1.91-5.19-.21"/>
    <path class="cls-16" d="M461.25,361.98s0,.86,1.08.66c0,0,.48-.11.54-.63,0,0-1.3-.18-1.62-.03"/>
    <path class="cls-16" d="M468.76,362.08s.22.83,1.28.57c0,0,.37-.21.39-.73,0,0-1.36,0-1.67.16"/>
    <path class="cls-15" d="M417.35,453.66c0,.81-5.88,1.47-13.13,1.47s-13.13-.66-13.13-1.47,5.88-1.47,13.13-1.47,13.13.66,13.13,1.47"/>
    <path class="cls-28" d="M410.97,359.09s-5.51-3.32-8.65.96c-3.15,4.28-2.53,9.79-2.45,13.63.09,3.85-11.19,21.24,2.1,24.91,13.28,3.67,17.57-2.1,17.92-7.78.35-5.68-4.81-15.56-4.11-19.93.7-4.37.17-13.72-4.81-11.8"/>
    <path class="cls-21" d="M396.72,451.38c-1.13.08-3.93.87-4.02,1.84-.09.96,3.76.52,4.98.35,1.22-.17,1.4-2.36-.96-2.18"/>
    <path class="cls-17" d="M396.64,445.44s-.26,4.81-.26,6.12,1.49,1.14,1.92.35c.44-.79,1.83-6.64,1.83-6.64l-3.5.17Z"/>
    <path class="cls-21" d="M411.4,451.27c1.13.11,3.91.96,3.98,1.92.07.96-3.77.44-4.99.24-1.22-.2-1.35-2.39,1.01-2.16"/>
    <path class="cls-17" d="M412.75,445.55s-.6,4.78-.83,6.07c-.23,1.29-1.66.86-1.95,0-.29-.85-.63-6.86-.63-6.86l3.41.79Z"/>
    <path class="cls-23" d="M399.43,407.07s-3.32,37.93-3.15,38.8c.17.87,3.15,1.4,3.76,1.05.61-.35,3.23-9.7,4.28-15.73,1.05-6.03,1.92-12.5,2.18-13.02.26-.52,1.14,10.92,1.14,13.37s.87,14.07,1.22,14.59c.35.52,3.67.79,4.37-.26.7-1.05,2.62-36.97,2.01-38.72-.61-1.75-15.82-.09-15.82-.09"/>
    <path class="cls-19" d="M405.38,374.32s1.18,2.98-1.24,3.41c-1.71.3.98,3.21.98,3.21l5.83-.66.13-2.56s-1.61-.13-1.38-3.8c.11-1.83-4.33.39-4.33.39"/>
    <path class="cls-17" d="M393.71,405.21s-.59,2.49-.39,3.74c.2,1.24,1.64,2.75,2.29,2.62.65-.13,0-.92-.46-1.77-.46-.85-.59-1.51-.2-1.7.39-.2.79,1.51,1.18,1.51s.39-.92.33-1.77c-.07-.85-.72-1.31-.59-2.56.13-1.25-2.16-.07-2.16-.07"/>
    <path class="cls-21" d="M404.13,377.73s2.82,3.54,6.95,0c0,0,2.48.15,3.61,1.05,3.29,2.63,6.48,15.39,6.72,16.68l-6.06,1.87s.52,9.7.85,10.75c0,0-12.58,3.28-17.96-.65,0,0,3.63-15.82,3.04-20.01,0,0-1.92,8.83-4.81,18.79,0,0-2.69.26-4.13-.66,0,0,4.03-14.47,5.09-20.32,1.22-6.73,3.49-7.17,6.71-7.49"/>
    <path class="cls-23" d="M408.07,397.28h-3.34c-.32,0-.58-.26-.58-.58v-8.06c0-.32.26-.58.58-.58h3.34c.32,0,.58.26.58.58v8.06c0,.32-.26.58-.58.58"/>
    <path class="cls-17" d="M408.02,375.61c5.83,0,9-14.16,0-14.16s-6.93,14.16,0,14.16"/>
    <path class="cls-17" d="M410.8,395.01s-1.75-1.27-2.45-2.1c-.7-.83-1.4-1.75-1.66-1.79-.26-.04-.52.13-.52.13,0,0-.61-.31-.79-.13-.17.18-.22.7-.22.7,0,0-.65.44-.26,1.14,0,0-.22.18-.13.79s1.7,2.23,2.88,2.67c1.18.44,1.79.61,2.62.83.83.22.83-2.01.52-2.23"/>
    <path class="cls-21" d="M410.62,394.14s-1.54,2.46-1.66,3.32c-.09.61,5.27,4.24,10.84,1.92,2.1-.87,2.18-4.89.61-5.07-1.57-.18-4.98,1.31-9.79-.18"/>
    <path class="cls-28" d="M410.03,364.82s-6.29,2.88-8.85,2.16c0,0,.2-6.29,7.14-6.29s5.9,7.08,5.9,7.08c0,0-3.15-1.31-4.2-2.95"/>
    <path class="cls-1" d="M419.8,394.03c-1.21.22-2.41.45-3.61.56-.13-1.14-.52-2.27-.79-3.39-.34-1.39-.64-2.79-.9-4.2-.04-.19-.32-.11-.29.08.4,2.53,1.03,5.02,1.39,7.55-1.01.06-2.02.02-3.05-.19-.53-.11-2.39-1.04-2.38.07,0,.12.2.16.22.03.1-.53,1.78.2,2.06.28.87.23,1.74.34,2.64.33,1.43-.02,3.68.21,4.88-.7.2-.15.09-.46-.17-.41"/>
    <path class="cls-1" d="M415.07,399.8c-2.23-.48-4.27-.91-6.17-2.23-.09-.06-.19.08-.11.14,1.7,1.43,3.97,2.47,6.23,2.51.25,0,.3-.38.06-.43"/>
    <path class="cls-1" d="M395.86,405.4c-.47-.16-1-.14-1.49-.24-.49-.11-.97-.3-1.47-.38-.16-.03-.29.2-.12.28.46.23.97.38,1.47.52.5.15,1.1.33,1.61.18.19-.05.17-.31,0-.37"/>
    <path class="cls-1" d="M415.34,406.84c-5.48.57-10.89,2.04-16.26.04-.23-.08-.38.29-.16.39,5.13,2.47,11.15.91,16.51.19.35-.05.27-.66-.08-.62"/>
    <path class="cls-1" d="M403.89,377.82c-.24.07-.57.17-.7.4-.08.15.05.3.21.27.12-.02.22-.1.32-.17.1-.06.2-.13.31-.18.18-.09.05-.38-.13-.32"/>
    <path class="cls-1" d="M404.14,378.38c-.26.11-.62.39-.46.71.05.09.15.12.24.1.12-.02.19-.12.26-.21.05-.08.12-.14.2-.19.26-.17.04-.52-.24-.41"/>
    <path class="cls-1" d="M404.72,378.9c-.11.1-.18.27-.24.41-.08.17-.13.31-.05.49.04.1.19.13.27.07.13-.09.17-.22.21-.37.04-.15.12-.3.14-.45.02-.18-.22-.24-.33-.14"/>
    <path class="cls-1" d="M405.75,379.58c-.04-.19-.3-.16-.36,0-.07.21-.15.48-.07.69.04.12.22.21.32.08.17-.22.16-.51.11-.77"/>
    <path class="cls-1" d="M406.69,379.69c0-.25-.39-.25-.39,0,0,.22-.07.53.07.71.05.07.19.07.25,0,.14-.18.08-.49.07-.71"/>
    <path class="cls-1" d="M407.91,380.13c-.03-.12-.07-.24-.1-.36-.03-.12-.16-.18-.27-.15-.13.03-.17.15-.15.27.03.23.03.57.24.71.09.06.24.02.29-.08.07-.14.03-.25,0-.39"/>
    <path class="cls-1" d="M409.03,380.17c-.02-.13-.05-.26-.08-.39-.05-.19-.37-.15-.34.05.01.12.02.23.03.35,0,.13-.03.28.06.4.08.11.23.12.31,0,.08-.12.04-.26.02-.4"/>
    <path class="cls-1" d="M409.92,379.87c-.13-.12-.22-.26-.29-.42-.1-.23-.47-.07-.4.17.07.23.18.43.33.62.05.07.17.09.25.07.1-.03.15-.08.18-.18.03-.08,0-.19-.07-.25"/>
    <path class="cls-1" d="M410.57,379.32c-.13-.11-.25-.22-.36-.33-.13-.13-.35.04-.26.2.08.14.17.28.26.41.1.14.21.32.4.3.12-.01.19-.08.21-.21.02-.18-.13-.27-.25-.37"/>
    <path class="cls-1" d="M411.55,379.05c-.04-.25-.3-.39-.51-.5-.19-.1-.37.14-.23.3.06.07.12.14.18.22.08.12.16.19.29.25.17.07.29-.13.27-.26"/>
    <path class="cls-1" d="M412.32,378.4c-.17-.26-.56-.32-.84-.39-.32-.08-.43.37-.13.48.26.1.56.31.85.23.13-.04.21-.2.13-.32"/>
    <path class="cls-27" d="M401.44,410.14c-.18.53-.44.92-.87,1.3-.35.31-.94.48-1.2.87-.09.13.03.29.17.3.52.03,1.11-.6,1.44-.94.37-.38.77-.93.73-1.49-.01-.16-.22-.19-.27-.04"/>
    <path class="cls-27" d="M414.76,411.81c-.41-.32-.92-.46-1.34-.76-.48-.33-.81-.82-.91-1.4-.05-.29-.52-.22-.5.07.04.67.33,1.23.81,1.69.43.42,1.11.89,1.74.88.23,0,.41-.33.2-.49"/>
    <path class="cls-27" d="M396.95,445.31c-.02-.2-.3-.2-.32,0-.01.1-.02.21-.03.31-.01.11.02.19.07.28.05.09.2.09.25,0,.05-.1.07-.17.07-.28,0-.1-.02-.21-.03-.31"/>
    <path class="cls-27" d="M397.11,445.04c-.02.2-.04.4-.07.6-.03.18-.11.37-.06.56.03.1.17.15.24.06.12-.14.12-.31.14-.49.02-.24.03-.48.03-.72,0-.19-.27-.18-.29,0"/>
    <path class="cls-27" d="M397.67,445.34c-.03.11-.06.23-.1.34-.04.11-.09.2-.05.31.03.09.14.11.21.05.09-.08.09-.18.11-.3.02-.13.03-.25.04-.38,0-.12-.17-.14-.2-.03"/>
    <path class="cls-27" d="M398.37,445.4c-.03.16-.07.32-.12.48-.05.15-.1.28-.08.44.01.1.16.12.22.06.11-.12.13-.26.16-.41.03-.18.05-.36.07-.53.01-.14-.22-.18-.25-.03"/>
    <path class="cls-27" d="M398.89,445.9c-.01.11-.04.22-.07.33-.03.11-.08.18-.06.3.01.08.14.13.2.08.19-.14.19-.49.19-.71,0-.18-.25-.17-.27,0"/>
    <path class="cls-27" d="M399.57,445.93c-.09.14-.17.3-.12.47.04.11.2.18.28.08.09-.11.11-.23.18-.35.13-.22-.2-.42-.35-.2"/>
    <path class="cls-27" d="M409.31,445.37c-.02-.17-.25-.17-.27,0-.02.16-.07.32.03.45.05.08.16.08.21,0,.09-.14.05-.3.03-.45"/>
    <path class="cls-27" d="M409.86,445.48c-.03-.2-.05-.4-.11-.59-.04-.15-.25-.09-.23.06.06.37-.06.89.21,1.18.08.09.26.02.24-.1-.02-.19-.09-.36-.12-.55"/>
    <path class="cls-27" d="M410.5,445.17c0-.18-.28-.18-.29,0,0,.23-.05.47.03.69.04.11.18.11.23,0,.08-.21.04-.46.03-.69"/>
    <path class="cls-27" d="M410.98,445.41c-.04-.25-.06-.51-.08-.76,0-.11-.17-.11-.17,0-.01.24-.02.47-.01.71,0,.22,0,.48.12.67.07.11.24.07.25-.07,0-.18-.07-.37-.1-.55"/>
    <path class="cls-27" d="M411.68,445.11c-.01-.18-.27-.18-.29,0-.02.25-.09.56.02.79.05.09.19.09.24,0,.12-.23.04-.54.02-.79"/>
    <path class="cls-27" d="M412.34,445.5c-.01-.15-.02-.31-.03-.46-.01-.15-.23-.15-.24,0-.01.15-.02.31-.03.46,0,.14-.04.3,0,.43.06.14.22.14.28,0,.05-.13.02-.29,0-.43"/>
    <path class="cls-27" d="M412.65,444.72c.01.19,0,.38-.02.57-.02.18-.05.35,0,.53.03.13.24.17.3.04.07-.16.07-.32.09-.49.02-.22.04-.43.03-.65-.01-.26-.41-.26-.4,0"/>
    <path class="cls-36" d="M404.98,388.53c-.52,0-.52.81,0,.81s.52-.81,0-.81"/>
    <path class="cls-36" d="M405.77,388.72c-.28,0-.28.43,0,.43s.28-.43,0-.43"/>
    <path class="cls-19" d="M408.42,370.99c-.24.03-.44.06-.67-.06-.14-.07-.32.12-.18.23.15.12.32.22.52.24.22.02.37-.03.5-.21.08-.12-.05-.22-.16-.21"/>
    <path class="cls-11" d="M408.57,372.3c-.21.03-.38.15-.58.2-.2.05-.4-.11-.59-.12-.09,0-.18.08-.17.17.04.79,1.56.87,1.68.07.03-.22-.11-.36-.33-.33"/>
    <path class="cls-36" d="M406.74,369.27s-2.68-1.73-5.52,0c0,0,2.4,1.35,5.52,0"/>
    <path class="cls-41" d="M406.74,369.27s-2.68-1.73-5.52,0c0,0,2.4,1.35,5.52,0Z"/>
    <path class="cls-36" d="M414.7,369.27s-2.56-1.73-5.28,0c0,0,2.29,1.35,5.28,0"/>
    <path class="cls-41" d="M414.7,369.27s-2.56-1.73-5.28,0c0,0,2.29,1.35,5.28,0Z"/>
    <path class="cls-20" d="M406.52,368.37s-2.39-1.13-5.1.21c0,0,2.74-1.88,5.1-.21"/>
    <path class="cls-20" d="M409.31,368.49s2.39-1.13,5.1.21c0,0-2.74-1.88-5.1-.21"/>
    <path class="cls-16" d="M403.36,368.57s0,.84,1.06.65c0,0,.48-.11.53-.62,0,0-1.27-.17-1.59-.03"/>
    <path class="cls-16" d="M410.75,368.68s.22.81,1.26.56c0,0,.36-.2.39-.72,0,0-1.33,0-1.64.16"/>
    <path class="cls-34" d="M540.67,77.62c-.7-2.34-4.35-4.08-7.81-2.39.37-3.45-1.52-6.74-4.64-8.13-2.79-1.24-6.12-.78-8.54,1.2-.14-.53-2.53-8.89-9.76-11-7.15-2.09-16.37,2.73-19.52,12.19-1.11-2-3.47-2.99-5.61-2.39-2.34.65-3.86,3.03-3.42,5.5-4.22-4.51-10.66-4.71-13.91-1.67-2.2,2.06-2.86,5.53-1.95,8.84-2.11.03-3.71,1.3-4.36,2.77h77.44c1.74-1.35,2.51-3.37,2.05-4.92"/>
    <path class="cls-34" d="M229.13,154.4c-.53-1.79-3.32-3.11-5.95-1.82.28-2.63-1.16-5.13-3.53-6.19-2.12-.95-4.66-.59-6.51.91-.11-.4-1.93-6.77-7.44-8.38-5.45-1.59-12.47,2.08-14.87,9.29-.84-1.53-2.65-2.28-4.28-1.82-1.78.5-2.94,2.31-2.6,4.19-3.22-3.43-8.12-3.59-10.6-1.27-1.68,1.57-2.18,4.21-1.49,6.74-1.61.02-2.83.99-3.32,2.11h59.02c1.32-1.03,1.92-2.57,1.56-3.75"/>
    <path class="cls-24" d="M580.53,106.43c-.47-1.57-2.91-2.73-5.22-1.6.25-2.31-1.02-4.5-3.1-5.43-1.86-.83-4.09-.52-5.71.8-.09-.35-1.69-5.94-6.52-7.35-4.78-1.39-10.94,1.83-13.04,8.15-.74-1.34-2.32-2-3.75-1.6-1.56.43-2.58,2.03-2.28,3.67-2.82-3.01-7.12-3.15-9.29-1.12-1.47,1.37-1.91,3.69-1.3,5.91-1.41.02-2.48.87-2.91,1.85h51.74c1.16-.9,1.68-2.25,1.37-3.29"/>
    <path class="cls-24" d="M278.13,119.29c-.46-1.57-2.91-2.73-5.21-1.6.25-2.31-1.02-4.5-3.1-5.43-1.86-.83-4.09-.52-5.71.8-.1-.35-1.69-5.94-6.52-7.35-4.78-1.39-10.94,1.83-13.04,8.15-.74-1.34-2.32-2-3.75-1.6-1.56.43-2.58,2.03-2.28,3.67-2.82-3.01-7.12-3.15-9.29-1.12-1.47,1.37-1.91,3.69-1.31,5.91-1.41.02-2.48.87-2.91,1.85h51.74c1.16-.9,1.68-2.25,1.37-3.29"/>
    <path class="cls-9" d="M525.63,17.65l-5.06-.76c-.05-.51-.13-1.01-.24-1.5l4.57-2.23c.51-.25.26-1.01-.31-.92l-5.05.79c-.21-.47-.45-.92-.71-1.35l3.63-3.49c.41-.39-.07-1.04-.59-.78l-4.55,2.27c-.35-.38-.72-.74-1.11-1.07l2.34-4.41c.26-.5-.4-.96-.8-.57l-3.61,3.52c-.45-.26-.91-.49-1.4-.69l.82-4.89c.09-.55-.69-.8-.95-.3l-2.31,4.43c-.51-.11-1.02-.19-1.55-.24l-.78-4.9c-.09-.55-.91-.55-1,0l-.78,4.9c-.53.05-1.04.13-1.55.24l-2.31-4.43c-.26-.5-1.04-.25-.95.3l.82,4.89c-.48.2-.95.43-1.4.69l-3.6-3.52c-.4-.4-1.07.07-.81.57l2.34,4.41c-.39.34-.76.7-1.11,1.07l-4.55-2.27c-.51-.26-1,.39-.59.78l3.63,3.49c-.26.44-.5.89-.71,1.35l-5.05-.79c-.57-.09-.82.67-.31.92l4.57,2.23c-.11.49-.19.99-.24,1.5l-5.06.76c-.57.09-.57.88,0,.96l5.06.76c.05.51.13,1.01.24,1.5l-4.57,2.23c-.51.25-.26,1.01.31.92l5.05-.79c.21.47.45.92.71,1.35l-3.63,3.49c-.41.39.07,1.04.59.78l4.55-2.27c.35.38.72.74,1.11,1.07l-2.34,4.41c-.26.5.4.96.81.57l3.6-3.52c.45.26.92.49,1.4.69l-.82,4.89c-.09.55.69.8.95.3l2.31-4.43c.51.11,1.02.19,1.55.24l.78,4.9c.09.55.91.55,1,0l.78-4.9c.53-.05,1.04-.13,1.55-.24l2.31,4.43c.26.5,1.04.25.95-.3l-.82-4.89c.48-.2.95-.43,1.4-.69l3.61,3.52c.4.4,1.07-.07.8-.57l-2.34-4.41c.39-.34.76-.7,1.11-1.07l4.55,2.27c.51.26.99-.39.59-.78l-3.63-3.49c.27-.43.5-.89.71-1.35l5.05.79c.57.09.82-.67.31-.92l-4.57-2.23c.11-.49.19-.99.24-1.5l5.06-.76c.57-.08.57-.88,0-.96"/>
  </g>
</svg>