<?xml version="1.0" encoding="UTF-8"?>
<svg id="Layer_1" data-name="Layer 1" xmlns="http://www.w3.org/2000/svg" xmlns:xlink="http://www.w3.org/1999/xlink" viewBox="0 0 357.83 212.63">
  <defs>
    <style>
      .cls-1 {
        fill: #a34b28;
      }

      .cls-1, .cls-2, .cls-3, .cls-4, .cls-5, .cls-6, .cls-7, .cls-8, .cls-9, .cls-10, .cls-11, .cls-12, .cls-13, .cls-14, .cls-15, .cls-16, .cls-17, .cls-18, .cls-19, .cls-20, .cls-21, .cls-22, .cls-23 {
        stroke-width: 0px;
      }

      .cls-2 {
        fill: #dedec7;
      }

      .cls-3 {
        fill: #c5deef;
      }

      .cls-24 {
        clip-path: url(#clippath);
      }

      .cls-4 {
        fill: none;
      }

      .cls-5 {
        fill: #cee3ef;
      }

      .cls-6 {
        fill: #57a66b;
      }

      .cls-7 {
        fill: #429157;
      }

      .cls-25 {
        clip-path: url(#clippath-1);
      }

      .cls-26 {
        clip-path: url(#clippath-4);
      }

      .cls-27 {
        clip-path: url(#clippath-3);
      }

      .cls-28 {
        clip-path: url(#clippath-2);
      }

      .cls-8 {
        fill: #e5824e;
      }

      .cls-9 {
        fill: #e6e3d9;
      }

      .cls-10 {
        fill: #dcf2fd;
      }

      .cls-11 {
        fill: #f5f2e6;
      }

      .cls-12 {
        fill: #4d873e;
      }

      .cls-13 {
        fill: #44965a;
      }

      .cls-14 {
        fill: #4ea366;
      }

      .cls-15 {
        fill: #d2ecfb;
      }

      .cls-16 {
        fill: #b35730;
      }

      .cls-17 {
        fill: #261e1e;
      }

      .cls-18 {
        fill: #d1d2bb;
      }

      .cls-19 {
        fill: #f0f0f0;
      }

      .cls-20 {
        fill: #c6c4ab;
      }

      .cls-21 {
        fill: #fff;
      }

      .cls-22 {
        fill: #d4d2b6;
      }

      .cls-23 {
        fill: #f68d55;
      }
    </style>
    <clipPath id="clippath">
      <rect class="cls-4" width="357.83" height="212.63"/>
    </clipPath>
    <clipPath id="clippath-1">
      <rect class="cls-4" width="357.83" height="212.63"/>
    </clipPath>
    <clipPath id="clippath-2">
      <rect class="cls-4" width="357.83" height="212.63"/>
    </clipPath>
    <clipPath id="clippath-3">
      <rect class="cls-4" width="357.83" height="212.63"/>
    </clipPath>
    <clipPath id="clippath-4">
      <rect class="cls-4" width="357.83" height="212.63"/>
    </clipPath>
  </defs>
  <g class="cls-24">
    <path class="cls-13" d="M19.3,199.04h25.59c-.72-1.6-2.32-2.71-4.19-2.71-.1,0-.2,0-.3.02.14-.17.22-.38.22-.62,0-.54-.44-.99-.99-.99-.36,0-.68.2-.85.49-.73-1.57-2.32-2.65-4.16-2.65-.49,0-.96.08-1.4.22.04-.1.06-.21.06-.33,0-.5-.41-.91-.91-.91-.47,0-.85.36-.9.81-.82-.77-1.92-1.24-3.13-1.24-2.17,0-3.99,1.51-4.47,3.54-.1-.08-.22-.13-.36-.13-.33,0-.59.27-.59.59,0,.19.09.35.22.46-1.88.25-3.4,1.63-3.85,3.44"/>
    <path class="cls-13" d="M241.68,195.67h25.59c-.72-1.6-2.32-2.71-4.19-2.71-.1,0-.2,0-.3.02.14-.17.22-.38.22-.62,0-.54-.44-.99-.99-.99-.36,0-.68.2-.85.49-.73-1.57-2.32-2.65-4.16-2.65-.49,0-.96.08-1.4.22.04-.1.06-.21.06-.33,0-.5-.41-.91-.91-.91-.47,0-.85.36-.9.81-.82-.77-1.92-1.24-3.13-1.24-2.17,0-3.99,1.51-4.47,3.54-.1-.08-.22-.13-.36-.13-.33,0-.59.27-.59.59,0,.19.09.35.23.46-1.88.25-3.4,1.63-3.85,3.44"/>
    <path class="cls-13" d="M283.07,197.86h35.62c-1-2.22-3.23-3.77-5.83-3.77-.14,0-.28.01-.41.02.19-.24.31-.53.31-.86,0-.76-.61-1.37-1.37-1.37-.51,0-.95.28-1.18.69-1.02-2.18-3.23-3.69-5.79-3.69-.68,0-1.34.11-1.96.31.06-.14.09-.3.09-.46,0-.7-.57-1.27-1.27-1.27-.65,0-1.19.5-1.26,1.13-1.14-1.07-2.67-1.72-4.36-1.72-3.02,0-5.55,2.1-6.22,4.92-.14-.11-.31-.18-.51-.18-.45,0-.82.37-.82.82,0,.26.12.49.31.64-2.62.34-4.74,2.27-5.36,4.79"/>
    <path class="cls-12" d="M266.43,196.77h23.17c-.65-1.45-2.1-2.46-3.79-2.46-.09,0-.18,0-.27.01.12-.15.2-.34.2-.56,0-.49-.4-.89-.89-.89-.33,0-.61.18-.77.45-.66-1.42-2.1-2.4-3.77-2.4-.44,0-.87.07-1.27.2.04-.09.06-.19.06-.3,0-.46-.37-.83-.83-.83-.43,0-.77.32-.82.74-.74-.69-1.74-1.12-2.83-1.12-1.97,0-3.61,1.37-4.05,3.2-.09-.07-.2-.11-.33-.11-.3,0-.54.24-.54.54,0,.17.08.32.2.42-1.71.22-3.08,1.48-3.49,3.12"/>
    <path class="cls-12" d="M315.09,198.51h15.29c-.43-.95-1.39-1.62-2.5-1.62-.06,0-.12,0-.18,0,.08-.1.13-.23.13-.37,0-.33-.26-.59-.59-.59-.22,0-.41.12-.51.3-.44-.94-1.38-1.59-2.49-1.59-.29,0-.57.05-.84.13.02-.06.04-.13.04-.2,0-.3-.24-.55-.55-.55-.28,0-.51.21-.54.49-.49-.46-1.15-.74-1.87-.74-1.3,0-2.38.9-2.67,2.11-.06-.05-.14-.08-.22-.08-.2,0-.35.16-.35.35,0,.11.05.21.14.27-1.12.15-2.03.98-2.3,2.06"/>
  </g>
  <rect class="cls-17" x="21.46" y="104.16" width="2.44" height="95.74"/>
  <g class="cls-25">
    <path class="cls-6" d="M33.89,130.5c1.18-.09,2.1-1.07,2.1-2.27s-1-2.25-2.24-2.27c.47-1.28.73-2.66.73-4.1,0-4.62-2.66-8.63-6.53-10.57.32-.2.53-.56.53-.96,0-.2-.05-.38-.14-.54,1.43-1.44,2.32-3.43,2.32-5.63,0-2.57-1.21-4.85-3.09-6.31.09-.16.15-.35.15-.55,0-.63-.51-1.14-1.14-1.14-.42,0-.78.23-.98.56-.91-.36-1.9-.56-2.94-.56-4.42,0-8,3.58-8,8,0,1.46.39,2.82,1.07,4-.92.29-1.59,1.15-1.59,2.17,0,.94.57,1.75,1.39,2.09-2.85,2.16-4.7,5.58-4.7,9.43,0,1.61.32,3.15.91,4.55-.13-.02-.27-.04-.41-.04-1.26,0-2.28,1.02-2.28,2.27,0,1.16.86,2.11,1.98,2.25-2.8,2.9-4.52,6.85-4.52,11.2,0,8.91,7.22,16.13,16.14,16.13s16.13-7.22,16.13-16.13c0-4.55-1.89-8.66-4.92-11.59"/>
  </g>
  <rect class="cls-17" x="293.02" y="70.2" width="3.27" height="128.01"/>
  <rect class="cls-17" x="313.71" y="122.18" width="3.06" height="77.46"/>
  <g class="cls-28">
    <path class="cls-7" d="M325.46,119.52c1.11-.08,1.98-1.01,1.98-2.14s-.94-2.12-2.11-2.14c.45-1.21.69-2.51.69-3.87,0-4.36-2.51-8.13-6.15-9.96.3-.19.5-.52.5-.9,0-.18-.05-.35-.13-.51,1.35-1.36,2.19-3.24,2.19-5.31,0-2.42-1.14-4.57-2.91-5.94.09-.15.14-.33.14-.52,0-.59-.48-1.07-1.07-1.07-.39,0-.73.21-.92.53-.86-.34-1.79-.53-2.77-.53-4.16,0-7.54,3.37-7.54,7.54,0,1.37.37,2.66,1.01,3.77-.87.28-1.5,1.09-1.5,2.04,0,.89.54,1.65,1.31,1.97-2.69,2.03-4.43,5.26-4.43,8.89,0,1.52.31,2.97.86,4.29-.12-.02-.25-.04-.39-.04-1.18,0-2.14.96-2.14,2.14,0,1.09.81,1.99,1.87,2.12-2.64,2.74-4.26,6.45-4.26,10.55,0,8.4,6.81,15.21,15.21,15.21s15.21-6.81,15.21-15.21c0-4.29-1.78-8.16-4.64-10.93"/>
    <path class="cls-13" d="M309.65,105.41c1.57-.12,2.82-1.43,2.82-3.03s-1.33-3.01-2.99-3.04c.63-1.71.98-3.56.98-5.48,0-6.18-3.55-11.53-8.73-14.13.42-.27.7-.74.7-1.28,0-.26-.07-.5-.19-.72,1.92-1.93,3.1-4.59,3.1-7.53,0-3.43-1.62-6.48-4.13-8.43.12-.22.2-.47.2-.73,0-.84-.68-1.52-1.52-1.52-.56,0-1.04.3-1.3.75-1.22-.48-2.54-.75-3.93-.75-5.9,0-10.69,4.79-10.69,10.69,0,1.95.52,3.77,1.44,5.35-1.23.39-2.12,1.54-2.12,2.9,0,1.26.76,2.34,1.85,2.8-3.81,2.88-6.28,7.46-6.28,12.61,0,2.16.43,4.21,1.21,6.08-.18-.03-.36-.05-.55-.05-1.68,0-3.04,1.36-3.04,3.04,0,1.55,1.15,2.82,2.65,3.01-3.74,3.88-6.04,9.15-6.04,14.97,0,11.92,9.66,21.57,21.57,21.57s21.57-9.66,21.57-21.57c0-6.08-2.52-11.58-6.58-15.5"/>
    <path class="cls-14" d="M307.68,103.77c1.37-.11,2.44-1.31,2.44-2.79s-1.16-2.77-2.6-2.8c.55-1.57.85-3.27.85-5.05,0-5.69-3.08-10.62-7.58-13.01.37-.25.61-.68.61-1.18,0-.24-.06-.46-.16-.66,1.66-1.78,2.69-4.23,2.69-6.93,0-3.16-1.4-5.97-3.58-7.77.1-.2.17-.43.17-.68,0-.77-.59-1.4-1.32-1.4-.48,0-.9.28-1.13.69-1.06-.44-2.21-.69-3.41-.69-5.12,0-9.28,4.41-9.28,9.85,0,1.79.45,3.48,1.25,4.92-1.07.36-1.84,1.42-1.84,2.67,0,1.16.66,2.15,1.61,2.58-3.31,2.66-5.45,6.87-5.45,11.61,0,1.99.38,3.88,1.06,5.6-.15-.03-.31-.05-.48-.05-1.46,0-2.64,1.25-2.64,2.8,0,1.42,1,2.6,2.3,2.78-3.25,3.57-5.25,8.43-5.25,13.79,0,10.97,8.39,19.87,18.73,19.87s18.73-8.89,18.73-19.87c0-5.61-2.19-10.66-5.71-14.28"/>
    <path class="cls-6" d="M348.12,199.63c-40.98-3.41-101.53-5.57-169.07-5.57s-128.09,2.16-169.07,5.57h338.14Z"/>
  </g>
  <rect class="cls-2" x="30.97" y="108.21" width="213.81" height="91.42"/>
  <rect class="cls-11" x="30.97" y="189.24" width="213.81" height=".37"/>
  <rect class="cls-22" x="30.97" y="188.87" width="213.81" height=".37"/>
  <rect class="cls-11" x="30.97" y="177.46" width="213.81" height=".37"/>
  <rect class="cls-22" x="30.97" y="177.09" width="213.81" height=".37"/>
  <rect class="cls-11" x="30.97" y="165.68" width="213.81" height=".37"/>
  <rect class="cls-22" x="30.97" y="165.31" width="213.81" height=".37"/>
  <rect class="cls-11" x="30.97" y="153.9" width="213.81" height=".37"/>
  <rect class="cls-22" x="30.97" y="153.53" width="213.81" height=".37"/>
  <rect class="cls-11" x="30.97" y="142.12" width="213.81" height=".37"/>
  <rect class="cls-22" x="30.97" y="141.75" width="213.81" height=".37"/>
  <rect class="cls-11" x="30.97" y="130.34" width="213.81" height=".37"/>
  <rect class="cls-22" x="30.97" y="129.97" width="213.81" height=".37"/>
  <rect class="cls-11" x="30.97" y="118.57" width="213.81" height=".37"/>
  <rect class="cls-22" x="30.97" y="118.19" width="213.81" height=".37"/>
  <path class="cls-18" d="M244.78,115.76h-54.46l-.97,1.33h55.43v-1.33ZM85.41,115.76H30.97v1.33h55.41l-.97-1.33Z"/>
  <polygon class="cls-18" points="191.23 166.05 191.23 166.05 191.23 171.13 236.6 171.13 236.6 170.57 191.23 170.57 191.23 166.05"/>
  <rect class="cls-21" x="191.23" y="130.17" width="45.37" height="40.4"/>
  <rect class="cls-15" x="194.77" y="133.59" width="38.29" height="33.56"/>
  <polygon class="cls-10" points="219.65 134.45 199.3 134.45 194.77 138.99 194.77 159.34 200.02 154.09 194.77 154.09 194.77 153.23 200.88 153.23 219.65 134.45"/>
  <path class="cls-10" d="M228.19,134.45h-4.7l-18.77,18.77h4.7l18.77-18.77ZM208.55,154.09h-4.71l-9.08,9.08v3.99h.72l13.06-13.06Z"/>
  <path class="cls-10" d="M233.06,134.45h-.89l-18.77,18.77h19.66v-18.77ZM232.89,154.09h-20.35l-13.06,13.06h20.35l13.06-13.06Z"/>
  <polygon class="cls-10" points="233.06 157.74 223.65 167.15 228.36 167.15 233.06 162.45 233.06 157.74"/>
  <path class="cls-3" d="M232.89,154.09h.18v-.17l-.18.17ZM200.88,153.23l-.86.86h3.83l.86-.86h-3.83ZM209.41,153.23l-.86.86h3.99l.86-.86h-3.99Z"/>
  <polygon class="cls-5" points="194.77 153.23 194.77 154.09 200.02 154.09 200.88 153.23 194.77 153.23"/>
  <polygon class="cls-5" points="204.71 153.23 203.85 154.09 208.55 154.09 209.41 153.23 204.71 153.23"/>
  <polygon class="cls-5" points="213.4 153.23 212.54 154.09 232.89 154.09 233.06 153.91 233.06 153.23 213.4 153.23"/>
  <path class="cls-3" d="M194.77,133.59v.86h4.53l.86-.86h-5.39ZM220.51,133.59l-.86.86h3.83l.86-.86h-3.83ZM229.05,133.59l-.86.86h3.99l.86-.86h-3.99Z"/>
  <polygon class="cls-5" points="200.16 133.59 199.3 134.45 219.65 134.45 220.51 133.59 200.16 133.59"/>
  <polygon class="cls-5" points="224.34 133.59 223.48 134.45 228.19 134.45 229.05 133.59 224.34 133.59"/>
  <polygon class="cls-5" points="233.03 133.59 232.17 134.45 233.06 134.45 233.06 133.59 233.03 133.59"/>
  <rect class="cls-21" x="194.77" y="147.52" width="38.29" height="5.71"/>
  <polygon class="cls-18" points="38.4 166.05 38.4 166.05 38.4 171.13 83.76 171.13 83.76 170.57 38.4 170.57 38.4 166.05"/>
  <rect class="cls-21" x="38.4" y="130.17" width="45.37" height="40.4"/>
  <rect class="cls-15" x="41.93" y="133.59" width="38.29" height="33.56"/>
  <polygon class="cls-10" points="66.82 134.45 46.47 134.45 41.93 138.99 41.93 159.34 47.18 154.09 41.93 154.09 41.93 153.23 48.04 153.23 66.82 134.45"/>
  <path class="cls-10" d="M75.35,134.45h-4.71l-18.77,18.77h4.71l18.77-18.77ZM55.72,154.09h-4.71l-9.08,9.08v3.99h.72l13.06-13.06Z"/>
  <path class="cls-10" d="M80.23,134.45h-.89l-18.77,18.77h19.66v-18.77ZM80.05,154.09h-20.35l-13.06,13.06h20.35l13.06-13.06Z"/>
  <polygon class="cls-10" points="80.23 157.74 70.82 167.15 75.52 167.15 80.23 162.45 80.23 157.74"/>
  <path class="cls-3" d="M80.05,154.09h.18v-.17l-.18.17ZM48.04,153.23l-.86.86h3.83l.86-.86h-3.83ZM56.58,153.23l-.86.86h3.99l.86-.86h-3.99Z"/>
  <polygon class="cls-5" points="41.93 153.23 41.93 154.09 47.18 154.09 48.04 153.23 41.93 153.23"/>
  <polygon class="cls-5" points="51.87 153.23 51.01 154.09 55.72 154.09 56.58 153.23 51.87 153.23"/>
  <polygon class="cls-5" points="60.56 153.23 59.7 154.09 80.05 154.09 80.23 153.91 80.23 153.23 60.56 153.23"/>
  <path class="cls-3" d="M41.93,133.59v.86h4.53l.86-.86h-5.39ZM67.68,133.59l-.86.86h3.83l.86-.86h-3.83ZM76.21,133.59l-.86.86h3.99l.86-.86h-3.99Z"/>
  <polygon class="cls-5" points="47.33 133.59 46.47 134.45 66.82 134.45 67.68 133.59 47.33 133.59"/>
  <polygon class="cls-5" points="71.51 133.59 70.65 134.45 75.35 134.45 76.21 133.59 71.51 133.59"/>
  <polygon class="cls-5" points="80.2 133.59 79.34 134.45 80.23 134.45 80.23 133.59 80.2 133.59"/>
  <rect class="cls-21" x="41.93" y="147.52" width="38.29" height="5.71"/>
  <rect class="cls-17" x="19.3" y="111.45" width="237.15" height="4.31"/>
  <polygon class="cls-1" points="256.45 111.45 19.3 111.45 50.17 73.94 225.58 73.94 256.45 111.45"/>
  <polygon class="cls-16" points="50.2 73.94 19.31 111.45 20.37 111.45 50.98 73.94 50.2 73.94"/>
  <polygon class="cls-16" points="56.91 73.94 28.39 111.45 29.45 111.45 57.7 73.94 56.91 73.94"/>
  <polygon class="cls-16" points="63.63 73.94 37.47 111.45 38.53 111.45 64.41 73.94 63.63 73.94"/>
  <polygon class="cls-16" points="70.34 73.94 46.55 111.45 47.61 111.45 71.12 73.94 70.34 73.94"/>
  <polygon class="cls-16" points="77.05 73.94 55.63 111.45 56.69 111.45 77.84 73.94 77.05 73.94"/>
  <polygon class="cls-16" points="83.77 73.94 64.71 111.45 65.77 111.45 84.55 73.94 83.77 73.94"/>
  <polygon class="cls-16" points="90.48 73.94 73.79 111.45 74.85 111.45 91.27 73.94 90.48 73.94"/>
  <polygon class="cls-16" points="97.2 73.94 82.87 111.45 83.9 111.45 83.94 111.43 97.98 73.94 97.2 73.94"/>
  <polygon class="cls-16" points="103.91 73.94 94.37 103.86 95.67 102.91 104.7 73.94 103.91 73.94"/>
  <polygon class="cls-16" points="110.63 73.94 104.93 96.19 106.09 95.35 111.41 73.94 110.63 73.94"/>
  <polygon class="cls-16" points="117.34 73.94 114.37 89.34 115.41 88.59 118.12 73.94 117.34 73.94"/>
  <polygon class="cls-16" points="124.05 73.94 122.85 83.18 123.79 82.51 124.84 73.94 124.05 73.94"/>
  <polygon class="cls-16" points="130.77 73.94 130.52 77.62 131.37 77 131.55 73.94 130.77 73.94"/>
  <polygon class="cls-16" points="144.2 73.94 144.38 77 145.23 77.62 144.98 73.94 144.2 73.94"/>
  <polygon class="cls-16" points="150.91 73.94 151.96 82.51 152.9 83.19 151.7 73.94 150.91 73.94"/>
  <polygon class="cls-16" points="157.63 73.94 160.34 88.59 161.38 89.35 158.41 73.94 157.63 73.94"/>
  <polygon class="cls-16" points="164.34 73.94 169.66 95.36 170.82 96.2 165.12 73.94 164.34 73.94"/>
  <polygon class="cls-16" points="171.05 73.94 180.09 102.92 181.39 103.87 171.84 73.94 171.05 73.94"/>
  <polygon class="cls-16" points="177.77 73.94 191.82 111.44 191.83 111.45 192.88 111.45 178.55 73.94 177.77 73.94"/>
  <polygon class="cls-16" points="184.48 73.94 200.9 111.45 201.96 111.45 185.27 73.94 184.48 73.94"/>
  <polygon class="cls-16" points="191.2 73.94 209.98 111.45 211.04 111.45 191.98 73.94 191.2 73.94"/>
  <polygon class="cls-16" points="197.91 73.94 219.06 111.45 220.12 111.45 198.7 73.94 197.91 73.94"/>
  <polygon class="cls-16" points="204.62 73.94 228.14 111.45 229.2 111.45 205.41 73.94 204.62 73.94"/>
  <polygon class="cls-16" points="211.34 73.94 237.22 111.45 238.28 111.45 212.12 73.94 211.34 73.94"/>
  <polygon class="cls-16" points="218.05 73.94 246.3 111.45 247.36 111.45 218.84 73.94 218.05 73.94"/>
  <polygon class="cls-16" points="224.77 73.94 255.38 111.45 256.44 111.45 225.55 73.94 224.77 73.94"/>
  <polygon class="cls-11" points="183.67 113.65 137.87 80.51 92.08 113.65 92.08 199.63 183.67 199.63 183.67 113.65"/>
  <rect class="cls-21" x="92.08" y="188.14" width="91.58" height=".37"/>
  <rect class="cls-22" x="92.08" y="187.76" width="91.58" height=".37"/>
  <rect class="cls-21" x="92.08" y="176.36" width="91.58" height=".37"/>
  <rect class="cls-22" x="92.08" y="175.99" width="91.58" height=".37"/>
  <rect class="cls-21" x="92.08" y="164.58" width="91.58" height=".37"/>
  <rect class="cls-22" x="92.08" y="164.21" width="91.58" height=".37"/>
  <rect class="cls-21" x="92.08" y="152.8" width="91.58" height=".37"/>
  <rect class="cls-22" x="92.08" y="152.43" width="91.58" height=".37"/>
  <rect class="cls-21" x="92.08" y="141.02" width="91.58" height=".37"/>
  <rect class="cls-22" x="92.08" y="140.65" width="91.58" height=".37"/>
  <rect class="cls-21" x="92.08" y="129.24" width="91.58" height=".37"/>
  <rect class="cls-22" x="92.08" y="128.87" width="91.58" height=".37"/>
  <rect class="cls-21" x="92.08" y="117.46" width="91.58" height=".37"/>
  <rect class="cls-22" x="92.08" y="117.09" width="91.58" height=".37"/>
  <rect class="cls-21" x="107.47" y="105.68" width="60.81" height=".37"/>
  <rect class="cls-22" x="107.47" y="105.31" width="60.81" height=".37"/>
  <rect class="cls-21" x="115.84" y="93.91" width="44.07" height=".37"/>
  <rect class="cls-22" x="115.84" y="93.53" width="44.07" height=".37"/>
  <polygon class="cls-23" points="192.89 112.22 137.87 72.28 82.85 112.22 88.89 120.55 137.88 85 186.84 120.55 192.89 112.22"/>
  <path class="cls-9" d="M137.88,85l-11.76,8.54h6.07l5.69-4.13,5.69,4.13h6.07l-11.76-8.54ZM150.66,94.28h-6.07l15.21,11.03h6.05l-15.19-11.03ZM131.16,94.28h-6.07l-15.2,11.03h6.07l15.21-11.03ZM166.88,106.06h-6.05l15.21,11.03h6.04l-15.2-11.03ZM114.93,106.06h-6.07l-15.2,11.03h6.07l15.21-11.03ZM183.11,117.84h-6.04l6.6,4.79v-4.38l-.56-.41ZM98.7,117.84h-6.07l-.54.4v4.4l6.61-4.8Z"/>
  <path class="cls-19" d="M93.14,117.46l-.51.37h6.07l.51-.37h-6.07ZM176.55,117.46l.51.37h6.04l-.51-.37h-6.04Z"/>
  <path class="cls-20" d="M93.66,117.09l-.51.37h6.07l.51-.37h-6.07ZM176.04,117.09l.51.37h6.04l-.51-.37h-6.04Z"/>
  <path class="cls-19" d="M109.37,105.68l-.51.37h6.07l.51-.37h-6.07ZM160.32,105.68l.51.37h6.05l-.51-.37h-6.05Z"/>
  <path class="cls-20" d="M109.89,105.31l-.51.37h6.07l.51-.37h-6.07ZM159.8,105.31l.51.37h6.05l-.51-.37h-6.05Z"/>
  <path class="cls-19" d="M125.6,93.91l-.51.37h6.07l.51-.37h-6.07ZM144.08,93.91l.51.37h6.07l-.51-.37h-6.07Z"/>
  <path class="cls-20" d="M126.12,93.53l-.51.37h6.07l.51-.37h-6.07ZM143.57,93.53l.51.37h6.07l-.51-.37h-6.07Z"/>
  <polygon class="cls-8" points="137.87 80.51 92.08 113.65 92.08 118.23 92.63 117.84 93.14 117.46 93.66 117.09 108.86 106.06 109.37 105.68 109.89 105.31 125.09 94.28 125.6 93.91 126.12 93.53 137.88 85 149.64 93.53 150.15 93.91 150.66 94.28 165.86 105.31 166.37 105.68 166.88 106.06 182.08 117.09 182.59 117.46 183.11 117.84 183.67 118.24 183.67 113.65 137.87 80.51"/>
  <polygon class="cls-21" points="192.14 113.3 137.87 73.94 83.63 113.3 89.67 121.63 137.88 86.65 186.09 121.63 192.14 113.3"/>
  <rect class="cls-11" x="61.08" y="58.94" width="27.61" height="18.35"/>
  <rect class="cls-21" x="61.08" y="69.49" width="27.61" height=".37"/>
  <rect class="cls-22" x="61.08" y="69.11" width="27.61" height=".37"/>
  <rect class="cls-1" x="59.89" y="52.24" width="29.99" height="10.4"/>
  <rect class="cls-23" x="59.89" y="52.23" width="29.99" height=".47"/>
  <g class="cls-27">
    <path class="cls-17" d="M143.48,157.26h-11.23c-.31,0-.56.25-.56.56v1.88c0,.31.25.56.56.56h11.23c.31,0,.56-.25.56-.56v-1.88c0-.31-.25-.56-.56-.56"/>
  </g>
  <rect class="cls-2" x="111.89" y="118.96" width="51.98" height="80.67"/>
  <rect class="cls-17" x="114.19" y="121.1" width="47.38" height="78.53"/>
  <rect class="cls-21" x="114.41" y="121.29" width="46.94" height="78.34"/>
  <rect class="cls-11" x="120.34" y="126.25" width="35.06" height="28.14"/>
  <rect class="cls-21" x="120.76" y="126.71" width="34.21" height="27.21"/>
  <rect class="cls-15" x="121.12" y="127.14" width="33.49" height="26.35"/>
  <polygon class="cls-10" points="143.23 127.14 125.22 127.14 121.12 131.24 121.12 149.25 143.23 127.14"/>
  <polygon class="cls-10" points="149.66 127.14 145.92 127.14 121.12 151.94 121.12 153.49 123.31 153.49 149.66 127.14"/>
  <polygon class="cls-10" points="154.61 127.14 153.02 127.14 126.67 153.49 144.68 153.49 154.61 143.57 154.61 127.14"/>
  <polygon class="cls-10" points="154.61 146.26 147.37 153.49 151.11 153.49 154.61 149.99 154.61 146.26"/>
  <path class="cls-11" d="M127.42,163.32h-7.08v33.53h7.08v-33.53ZM127.15,196.57h-6.53v-32.98h6.53v32.98Z"/>
  <path class="cls-11" d="M136.75,163.32h-7.08v33.53h7.08v-33.53ZM136.47,196.57h-6.53v-32.98h6.53v32.98Z"/>
  <path class="cls-11" d="M146.07,163.32h-7.08v33.53h7.08v-33.53ZM145.8,196.57h-6.53v-32.98h6.53v32.98Z"/>
  <path class="cls-11" d="M155.4,163.32h-7.08v33.53h7.08v-33.53ZM155.12,196.57h-6.53v-32.98h6.53v32.98Z"/>
  <g class="cls-26">
    <path class="cls-13" d="M215.88,199.63h26.38c-.74-1.65-2.39-2.8-4.32-2.8-.1,0-.2,0-.31.02.14-.17.23-.39.23-.64,0-.56-.46-1.02-1.02-1.02-.38,0-.7.21-.88.51-.76-1.61-2.39-2.74-4.29-2.74-.51,0-.99.08-1.45.23.04-.11.07-.22.07-.34,0-.52-.42-.94-.94-.94-.48,0-.88.37-.93.84-.85-.79-1.98-1.28-3.23-1.28-2.24,0-4.11,1.56-4.6,3.65-.1-.08-.23-.13-.37-.13-.34,0-.61.27-.61.61,0,.19.09.36.23.48-1.94.25-3.51,1.68-3.97,3.55"/>
    <path class="cls-6" d="M197.15,199.63h32.43c-.91-2.02-2.94-3.44-5.31-3.44-.13,0-.25.01-.38.02.17-.21.28-.48.28-.78,0-.69-.56-1.25-1.25-1.25-.46,0-.86.25-1.08.62-.93-1.98-2.93-3.36-5.27-3.36-.62,0-1.22.1-1.78.28.05-.13.08-.27.08-.42,0-.64-.52-1.16-1.16-1.16-.6,0-1.08.45-1.14,1.03-1.04-.97-2.43-1.57-3.97-1.57-2.75,0-5.05,1.91-5.66,4.48-.13-.1-.28-.16-.46-.16-.41,0-.75.33-.75.75,0,.24.11.45.29.58-2.38.31-4.31,2.07-4.88,4.36"/>
    <path class="cls-13" d="M188.42,199.63h16.21c-.46-1.01-1.47-1.72-2.65-1.72-.06,0-.13,0-.19.01.09-.11.14-.24.14-.39,0-.34-.28-.62-.62-.62-.23,0-.43.13-.54.31-.46-.99-1.47-1.68-2.64-1.68-.31,0-.61.05-.89.14.03-.07.04-.14.04-.21,0-.32-.26-.58-.58-.58-.3,0-.54.23-.57.52-.52-.49-1.21-.78-1.98-.78-1.38,0-2.53.96-2.83,2.24-.06-.05-.14-.08-.23-.08-.21,0-.38.17-.38.38,0,.12.06.22.14.29-1.19.16-2.15,1.03-2.44,2.18"/>
    <path class="cls-6" d="M42.88,199.63h32.42c-.91-2.02-2.94-3.44-5.31-3.44-.13,0-.25.01-.38.02.17-.21.28-.48.28-.78,0-.69-.56-1.25-1.25-1.25-.46,0-.86.25-1.08.62-.93-1.98-2.93-3.36-5.27-3.36-.62,0-1.22.1-1.78.28.05-.13.08-.27.08-.42,0-.64-.52-1.16-1.16-1.16-.6,0-1.08.45-1.14,1.03-1.04-.97-2.43-1.57-3.97-1.57-2.75,0-5.05,1.91-5.66,4.48-.13-.1-.28-.16-.46-.16-.41,0-.75.33-.75.75,0,.24.11.45.28.58-2.39.31-4.31,2.07-4.88,4.36"/>
    <path class="cls-13" d="M72.54,199.63h13.19c-.37-.82-1.2-1.4-2.16-1.4-.05,0-.1,0-.15,0,.07-.09.11-.2.11-.32,0-.28-.23-.51-.51-.51-.19,0-.35.1-.44.26-.38-.81-1.19-1.37-2.14-1.37-.25,0-.5.04-.72.11.02-.05.03-.11.03-.17,0-.26-.21-.47-.47-.47-.24,0-.44.18-.46.42-.42-.39-.99-.64-1.61-.64-1.12,0-2.06.78-2.3,1.82-.05-.04-.12-.06-.19-.06-.17,0-.31.14-.31.31,0,.1.05.18.12.24-.97.13-1.75.84-1.99,1.77"/>
    <path class="cls-13" d="M34.16,199.63h16.21c-.46-1.01-1.47-1.72-2.65-1.72-.06,0-.13,0-.19.01.09-.11.14-.24.14-.39,0-.34-.28-.62-.62-.62-.23,0-.43.13-.54.31-.46-.99-1.47-1.68-2.64-1.68-.31,0-.61.05-.89.14.03-.07.04-.14.04-.21,0-.32-.26-.58-.58-.58-.3,0-.54.23-.57.52-.52-.49-1.22-.78-1.98-.78-1.38,0-2.53.96-2.83,2.24-.06-.05-.14-.08-.23-.08-.21,0-.38.17-.38.38,0,.12.06.22.14.29-1.19.16-2.15,1.03-2.44,2.18"/>
    <path class="cls-17" d="M353.97,199.63H4.14c-1.79,0-3.25,1.45-3.25,3.25s1.46,3.25,3.25,3.25h18.41c-1.8,0-3.25,1.45-3.25,3.25s1.45,3.25,3.25,3.25h313.02c1.79,0,3.25-1.45,3.25-3.25s-1.45-3.25-3.25-3.25h18.41c1.8,0,3.25-1.45,3.25-3.25s-1.45-3.25-3.25-3.25"/>
  </g>
  <rect class="cls-23" x="250.68" y="155.12" width="31.51" height="37.74"/>
  <rect class="cls-17" x="253.39" y="192.87" width="2.55" height="5"/>
  <rect class="cls-17" x="276.92" y="192.87" width="2.55" height="5"/>
  <polygon class="cls-1" points="281.26 155.99 281.26 155.85 251.47 155.85 251.47 192.14 281.39 192.14 281.39 155.85 281.26 155.85 281.26 155.99 281.12 155.99 281.12 191.86 251.75 191.86 251.75 156.12 281.26 156.12 281.26 155.99 281.12 155.99 281.26 155.99"/>
</svg>