<?xml version="1.0" encoding="UTF-8"?>
<svg id="Layer_1" data-name="Layer 1" xmlns="http://www.w3.org/2000/svg" viewBox="0 0 357.83 201.05">
  <defs>
    <style>
      .cls-1 {
        fill: #e9f6fb;
        stroke-width: 0px;
      }
    </style>
  </defs>
  <path class="cls-1" d="M18.33,191.97c-1.88,3.01-4.28,5.55-7.22,7.38l-.07.1c-.48.4-.75.97-.75,1.61h337.95c2.01-3.48,4.59-10.02,5.17-11.4,2.11-5.08,3.71-10.45,4.24-16,1.05-11.09-2.6-21.43-9.5-29.64-3.63-4.33-8.03-7.95-12.77-10.57-14.56-8.04-32.07-7.97-47.92-5.71-4.55.65-9.16,1.41-13.72.85-12.63-1.57-18.63-15.51-17.16-27.85,2.95-24.86,23.82-42.81,21.71-68.85-1.73-21.3-20.63-30.6-38.46-31.73-19.42-1.23-38.93,5.54-55.45,16.15-17.08,10.97-30.04,27.43-46.51,39.22-14.25,10.21-30.9,15.69-48.15,14.25-16.85-1.4-32.97-8.35-49.99-8.17-17.85.18-33.06,10.09-38.36,28.93-9.89,35.18,38.08,67.7,16.97,101.45"/>
</svg>