<?xml version="1.0" encoding="UTF-8"?>
<svg id="Layer_1" data-name="Layer 1" xmlns="http://www.w3.org/2000/svg" xmlns:xlink="http://www.w3.org/1999/xlink" viewBox="0 0 383.92 183.93">
  <defs>
    <style>
      .cls-1 {
        fill: #f382a3;
      }

      .cls-1, .cls-2, .cls-3, .cls-4, .cls-5, .cls-6, .cls-7, .cls-8, .cls-9, .cls-10, .cls-11, .cls-12, .cls-13, .cls-14, .cls-15, .cls-16, .cls-17, .cls-18, .cls-19, .cls-20, .cls-21, .cls-22, .cls-23, .cls-24, .cls-25, .cls-26, .cls-27, .cls-28, .cls-29, .cls-30, .cls-31, .cls-32, .cls-33, .cls-34, .cls-35, .cls-36, .cls-37, .cls-38 {
        stroke-width: 0px;
      }

      .cls-2 {
        fill: #252a64;
      }

      .cls-3 {
        fill: #fbcac1;
      }

      .cls-4 {
        fill: #010101;
      }

      .cls-39 {
        clip-path: url(#clippath);
      }

      .cls-5, .cls-40, .cls-41, .cls-42, .cls-43, .cls-44 {
        fill: none;
      }

      .cls-40 {
        stroke: #ffcb05;
      }

      .cls-40, .cls-41, .cls-42, .cls-44 {
        stroke-width: .71px;
      }

      .cls-40, .cls-41, .cls-43, .cls-44 {
        stroke-miterlimit: 10;
      }

      .cls-6 {
        fill: #80b2e0;
      }

      .cls-7 {
        fill: #997b8e;
      }

      .cls-8 {
        fill: #f69ea2;
      }

      .cls-9 {
        fill: #e78c8c;
      }

      .cls-10 {
        fill: #c9ad6d;
      }

      .cls-11 {
        fill: #fcfbf0;
      }

      .cls-12 {
        fill: #1e2255;
      }

      .cls-41 {
        stroke: #2f2c7f;
      }

      .cls-13 {
        fill: #fbc6b9;
      }

      .cls-14 {
        fill: #c67c40;
      }

      .cls-15 {
        fill: #e5f5fd;
      }

      .cls-16 {
        fill: #e3e3e3;
      }

      .cls-17 {
        fill: #011f36;
      }

      .cls-42 {
        stroke-linecap: round;
        stroke-linejoin: round;
      }

      .cls-42, .cls-43, .cls-44 {
        stroke: #010101;
      }

      .cls-18 {
        fill: #bba3ce;
      }

      .cls-43 {
        stroke-width: .11px;
      }

      .cls-19 {
        fill: #977787;
      }

      .cls-20 {
        fill: #280f0e;
      }

      .cls-21 {
        fill: #c9c9c9;
      }

      .cls-22 {
        fill: #25110b;
      }

      .cls-23 {
        fill: #9cce95;
      }

      .cls-24 {
        fill: #fab48b;
      }

      .cls-25 {
        fill: #ffe900;
      }

      .cls-26 {
        fill: #90655f;
      }

      .cls-27 {
        fill: #db8485;
      }

      .cls-28 {
        fill: #f7a6ac;
      }

      .cls-29 {
        fill: #755267;
      }

      .cls-30 {
        fill: #fac5c0;
      }

      .cls-31 {
        fill: #072d4d;
      }

      .cls-32 {
        fill: #fff;
      }

      .cls-33 {
        fill: #b0b0af;
      }

      .cls-34 {
        fill: #ee2f24;
      }

      .cls-35 {
        fill: #f3beb5;
      }

      .cls-36 {
        fill: #bdc3de;
      }

      .cls-37 {
        fill: #755266;
      }

      .cls-38 {
        fill: #3e3f41;
      }
    </style>
    <clipPath id="clippath">
      <rect class="cls-5" width="383.92" height="183.93"/>
    </clipPath>
  </defs>
  <g class="cls-39">
    <path class="cls-16" d="M200.18,167.84c0-.61-44.81-1.11-100.09-1.11S0,167.23,0,167.84s44.81,1.11,100.09,1.11,100.09-.5,100.09-1.11"/>
    <path class="cls-24" d="M309.88,68.35l-1.11,8.86s-1.61,2.28,2.59,8.22h2.21l1.29-9.14v-6.89l-4.99-1.04Z"/>
    <path class="cls-16" d="M344.5,172.71c0-1.08-73.74-1.96-164.71-1.96s-164.71.88-164.71,1.96,73.75,1.96,164.71,1.96,164.71-.88,164.71-1.96"/>
    <path class="cls-16" d="M379.8,181.97c0-1.08-45.83-1.96-102.36-1.96s-102.36.88-102.36,1.96,45.83,1.96,102.36,1.96,102.36-.88,102.36-1.96"/>
    <path class="cls-16" d="M383.92,162.23c0-.76-33.78-1.37-75.46-1.37s-75.46.61-75.46,1.37,33.78,1.37,75.46,1.37,75.46-.61,75.46-1.37"/>
    <path class="cls-16" d="M382.71,166.65c0-.48-41.46-.87-92.6-.87s-92.6.39-92.6.87,41.46.87,92.6.87,92.6-.39,92.6-.87"/>
    <path class="cls-16" d="M249.39,159.41c0-1.22-44.81-2.22-100.09-2.22s-100.09.99-100.09,2.22,44.81,2.22,100.09,2.22,100.09-.99,100.09-2.22"/>
    <line class="cls-18" x1="146.59" y1="89.2" x2="147.03" y2="103.8"/>
    <line class="cls-41" x1="146.59" y1="89.2" x2="147.03" y2="103.8"/>
    <path class="cls-21" d="M229.64,124.84l16.24-78.06s.18-4.61,8.67-4.06h43.92s8.72.14,6.37,9.36l-1.2,7.06-11.44,64.78-62.84.51"/>
    <path class="cls-44" d="M229.64,124.84l16.24-78.06s.18-4.61,8.67-4.06h43.92s8.72.14,6.37,9.36l-1.2,7.06-11.44,64.78-62.84.51"/>
    <polygon class="cls-19" points="196.67 124.33 196.67 167.84 199.99 167.84 199.99 126.13 196.67 124.33"/>
    <polygon class="cls-19" points="219.43 105.22 219.43 168.67 222.13 168.67 222.13 107.13 219.43 105.22"/>
    <path class="cls-4" d="M218.56,146.29s1.11,7.7,4.06,9.64l15.32-7.97s-2.58-2.81-8.58-1.8c0,0-3.97-.01-5.44-1.76l-5.35,1.89Z"/>
    <path class="cls-4" d="M181.47,150.12s-5.35,4.61-5.54,6.64l14.95,8.64s1.11-2.24-1.66-4.33c0,0-4.58-5.51-3.26-9.2l-4.49-1.75Z"/>
    <polygon class="cls-7" points="170.16 124.84 160.25 164.37 162.48 165.56 172.43 124.84 170.16 124.84"/>
    <polygon class="cls-7" points="161.15 124.69 166.64 165.41 168.93 165.41 163.02 124.18 161.15 124.69"/>
    <polygon class="cls-26" points="59.14 124.35 59.14 167.84 62.28 167.84 62.28 122.26 58.14 122.26 59.14 124.35"/>
    <polygon class="cls-37" points="91.97 126.13 97.63 166.23 100.09 165.99 93.94 124.84 91.97 126.13"/>
    <polyline class="cls-29" points="138.77 131.58 131.58 162.49 133.77 162.49 141.18 130.1 139.97 130.1"/>
    <polygon class="cls-14" points="144.12 126.13 185.96 126.13 174.25 120.41 147.08 119.43 144.12 126.13"/>
    <path class="cls-38" d="M116.42,158.43s-1.75,4.24-1.11,6.83c0,0,6.83,0,11.07.74,4.24.74,10.33-.46,13.56-2.4,0,0,.52-3.14-4.31-2.03,0,0-9.9-.37-12.39-5.63l-6.83,2.49Z"/>
    <path class="cls-12" d="M186.21,116.97s-6.4,28.05-6.15,34.2l7.38,1.6,9.23-26.17-3.07-8.58-7.38-1.91v.86Z"/>
    <polygon class="cls-4" points="296.12 101.73 309.73 159.41 311.51 159.41 297.26 95.24 296.12 101.73"/>
    <polygon class="cls-30" points="159.05 98.78 158.5 101.73 168.41 100.85 169.48 97.99 166.62 96.56 158.77 96.56 159.05 98.78"/>
    <path class="cls-23" d="M153.14,62.93l-6.67,2.78-5.66,6.72-5.23,16.2s-4.28,11.73,3.51,12.34l19.93.36.49-4.08-15.13-3.78,2.22-4.27.44,14.61,11.99-2.47,1.35-4.08h6.28l2.58.74,7.87-16.75-4.49-10.7s-3.37-5.95-8.81-6.28l-.28,5.35-10.38-6.69Z"/>
    <path class="cls-30" d="M168.12,47.95l-12.72,5.17v7.38l-1.43,3.58s8.12,6.87,8.24,8.35c0,0,1.81-2.03,1.63-6.46l-.05-1.71s4.84,2.63,6.41-4.47l.92-5.81-3.01-6.03Z"/>
    <polygon class="cls-26" points="27.01 105.22 27.01 167.84 29.78 167.84 29.78 106.39 27.01 105.22"/>
    <path class="cls-26" d="M48.79,122.26h-6.83s-.74,4.43,4.43,4.25h56.29s-4.06-8.49-4.06-8.49l-49.83,4.25Z"/>
    <polygon class="cls-3" points="80.11 90.15 87.72 100.25 94.6 100.25 95.57 94.9 85.88 81.24 79.24 89.2 80.11 90.15"/>
    <path class="cls-3" d="M37.34,82.15l-7.14,9.1s-7.01,7.38,4.31,9.96l13.16,1.41,22.27.43,4.27-1.26s1.75-2-2.74-3.66l-2.34-2.15-8.06-1.54-13.66-5.26,1.97-4.22-12.06-2.83Z"/>
    <path class="cls-35" d="M65.18,57.73l-3.47,6.35s-.43,1.83-3.57,2.01c0,0,2.09,6.15,9.1,6.27,0,0,4.43-.18,7.87-4.8,0,0-1.78,1.05-3.01-.74,0,0-.65-.49,1.27-2.55l-.41-2.18-7.78-4.37Z"/>
    <path class="cls-35" d="M83.23,47.7s1.48,4.55,0,6.64c0,0-.83.83-.34,2.12.49,1.29.68,1.88.68,1.88,0,0,.65.95-2,.55l-1.2-.21,1.54-.19s-.37,1.43-.37,1.57-.88.23-.88.23h-.29s0,.69.8.72c0,0,.37.25-.06.68,0,0-.28.28-1.2,0,0,0-.83,1.69-.22,3.44,0,0-2.83,2.09-7.54-1.75,0,0-6.06-2-6.98-5.66l-.77-7.38.83-2.43,6.95-3.23h4.8l6.24,3.01Z"/>
    <path class="cls-13" d="M335.1,162.02l-1.44,3.91-.86,1.91,3.57,2.15,3.63-1.41s-.49-2.22-.46-2.15c.03.06.77-1.48.46-4.74l-5.17-.55.28.88Z"/>
    <path class="cls-31" d="M332.8,131.58c.09.37.55,30.08.55,30.08,0,0,4.52,1.29,7.94,0l3.58-29,1.4-2.56-13.47,1.48Z"/>
    <path class="cls-31" d="M305.05,128.63l-5.29,13.37-6.74,18.36s-.23,2.91,5.35,2.63c0,0,1.8-.41,2.08.46,0,0,15.64-26.53,18.5-35.29l-11.44-2.03-2.21.83-.28,1.29"/>
    <path class="cls-6" d="M326.2,27.93l-.83,5.49,3.53,1.22,3.58-2.12,1.94-5.33,4.91-.3-3.92,11-4.27,7.96,1.97,9.84,2.58,18.95,2.21,12.92,12.43,6.77s-4.43,33.22-2.46,38.63l-43.8-4.43,9.65-47.24,4.9-39.31s2.46-14.44,7.58-14.05"/>
    <path class="cls-24" d="M335.26,56.38l1.11,6.61-16.62-3.35s-7-.43-9.03-1.23l-2.64-.37s2.52-.74,3.08-.62c0,0-.49-.37-2.15-.25,0,0-1.33.49-2.08.49,0,0-.87-1.6,1.59-2.46,0,0,1.43-.76,3.43-.99,0,0,2.45-.68,3.84-.09l3.49,1.2,16.42.86-.43.18Z"/>
    <path class="cls-40" d="M322.73,55.72c.7-.41,1.49-.63,2.3-.63,2.47,0,4.5,2.03,4.5,4.5s-2.03,4.5-4.5,4.5c-2.29,0-4.25-2.05-4.5-4.32"/>
    <path class="cls-24" d="M325.94,25.12v2.93s.53-.18-.76,2.72c0,0-.88,2.72,0,3.55,0,0,1.8,3.55,7.2-1.34,0,0,2.03-2.31,2.03-5.31l-.51-3.46-.79-4.34-4.98,2.35-2.19,2.88Z"/>
    <path class="cls-25" d="M322.87,22.84c0,1.04-.84,1.87-1.87,1.87s-1.87-.84-1.87-1.87.84-1.87,1.87-1.87,1.87.84,1.87,1.87"/>
    <path class="cls-25" d="M320.1,20.57c0,.22-.18.39-.39.39s-.39-.18-.39-.39.18-.39.39-.39.39.18.39.39"/>
    <path class="cls-25" d="M319.12,21.36c0,.22-.18.39-.39.39s-.39-.18-.39-.39.18-.39.39-.39.39.18.39.39"/>
    <path class="cls-25" d="M318.86,22.59c0,.22-.18.39-.39.39s-.39-.18-.39-.39.18-.39.39-.39.39.18.39.39"/>
    <path class="cls-25" d="M319.12,23.86c0,.22-.18.39-.39.39s-.39-.18-.39-.39.18-.39.39-.39.39.18.39.39"/>
    <path class="cls-25" d="M319.86,24.79c0,.22-.18.39-.39.39s-.39-.18-.39-.39.18-.39.39-.39.39.18.39.39"/>
    <path class="cls-25" d="M321.17,25.22c0,.22-.18.39-.39.39s-.39-.18-.39-.39.18-.39.39-.39.39.18.39.39"/>
    <path class="cls-25" d="M322.41,25.11c0,.22-.18.39-.39.39s-.39-.18-.39-.39.18-.39.39-.39.39.18.39.39"/>
    <path class="cls-25" d="M323.39,24.4c0,.22-.18.39-.39.39s-.39-.18-.39-.39.18-.39.39-.39.39.18.39.39"/>
    <path class="cls-25" d="M323.98,23.31c0,.22-.18.39-.39.39s-.39-.18-.39-.39.18-.39.39-.39.39.18.39.39"/>
    <path class="cls-25" d="M323.9,22.2c0,.22-.18.39-.39.39s-.39-.18-.39-.39.18-.39.39-.39.39.18.39.39"/>
    <path class="cls-25" d="M323.39,21.16c0,.22-.18.39-.39.39s-.39-.18-.39-.39.18-.39.39-.39.39.18.39.39"/>
    <path class="cls-25" d="M322.34,20.46c0,.22-.18.39-.39.39s-.39-.18-.39-.39.18-.39.39-.39.39.18.39.39"/>
    <path class="cls-25" d="M321.3,20.28c0,.22-.18.39-.39.39s-.39-.18-.39-.39.18-.39.39-.39.39.18.39.39"/>
    <path class="cls-24" d="M318.2,11.7s-.45,2.44.66,5.12c0,0-.52,2.43,1.1,4.83,0,0,2.03,4.13,2.67,4.22,0,0,1.86.82,3.55-.35.22-.15.45-.27.71-.32,1.2-.25,4.88-1.2,5.57-3.39l1.66-1.06.28-4.57-1.24-2.35s-5.44-1.57-5.63-1.57-2.49-3.78-2.49-3.78l-2.26-1.2-4.57,4.43Z"/>
    <path class="cls-27" d="M322.32,22.46s0,.46.65.72c0,0,1.41.34,2.05-.8"/>
    <path class="cls-22" d="M343.78,29.25s-2.77-3.51-2.68-10.06c0,0,1.57-14.21-9.69-17.9,0,0-5.91-1.29-12.09,7.01,0,0-4.31,2.37-.8,7.54,0,0-.76-4.22,2.28-5.97l1.75-1.29s2.98,5.17,10.89,7.38c0,0,2.03,2.9-.28,5,0,0,.28,2.66.55,3.67.28,1.02.55,2.77.55,2.77,0,0,4.52-.28,9.5,1.85"/>
    <path class="cls-1" d="M325.94,28.05s-5.14,1.2-7.3,2.68c0,0-3.32,1.78-4.61,6.71,0,0-.92,3.14-.92,8.24,0,0-.61,7.26-1.6,8.55h.86s2.46-.55,3.26,0h.61l3.82-1.23s-.12-8.67.55-14.82c0,0,1.31-7.57,5.33-10.12"/>
    <path class="cls-1" d="M336.86,27.5l-6.77,13.64s-3.37,5.58-.49,11.86l1.47,3.63,4.18-.25s0,5.35.98,6.46l-3.59-.55s-.22,1.54,1.5,8.92c0,0,1.66,8.74,1.91,12.49.25,3.75-.18,11.26,4.8,12.61,0,0,4.49,1.54,11.93-1.66,0,0,3.94-1.72,5.04-1.11,0,0-10.33-23.56-9.29-29.96,0,0,3.63.37,4.49-3.94,0,0,.55-13.84-1.11-21.22,0,0,.09-9.35-15.07-10.91"/>
    <path class="cls-1" d="M310.6,58.04s-3.83,10.33-3.69,10.47c.14.14,6,3.69,6,3.69,0,0-.88,8.07-.83,10.06.05,1.98-1.29,9.37-2.45,10.33,0,0-.83.32,2.12.51.46.14,3.32,1.01,4.2,1.61.88.6,3.83,1.34,4.57-1.85l-.55-33.17s-8.49-.65-9.36-1.66"/>
    <polygon class="cls-17" points="316.04 54.06 321.62 52.38 323.66 52.69 322.43 54.22 305.91 58.5 302.59 58.5 305.05 56.77 316.04 54.06"/>
    <path class="cls-25" d="M335.8,22.1c0,1.04-.84,1.87-1.87,1.87s-1.87-.84-1.87-1.87.84-1.87,1.87-1.87,1.87.84,1.87,1.87"/>
    <path class="cls-25" d="M333.04,19.83c0,.22-.18.39-.39.39s-.39-.18-.39-.39.18-.39.39-.39.39.18.39.39"/>
    <path class="cls-25" d="M332.05,20.62c0,.22-.18.39-.39.39s-.39-.18-.39-.39.18-.39.39-.39.39.18.39.39"/>
    <path class="cls-25" d="M331.8,21.85c0,.22-.18.39-.39.39s-.39-.18-.39-.39.18-.39.39-.39.39.18.39.39"/>
    <path class="cls-25" d="M332.05,23.12c0,.22-.18.39-.39.39s-.39-.18-.39-.39.18-.39.39-.39.39.18.39.39"/>
    <path class="cls-25" d="M332.8,24.05c0,.22-.18.39-.39.39s-.39-.18-.39-.39.18-.39.39-.39.39.18.39.39"/>
    <path class="cls-25" d="M334.1,24.48c0,.22-.18.39-.39.39s-.39-.18-.39-.39.18-.39.39-.39.39.18.39.39"/>
    <path class="cls-25" d="M335.35,24.37c0,.22-.18.39-.39.39s-.39-.18-.39-.39.18-.39.39-.39.39.18.39.39"/>
    <path class="cls-25" d="M336.32,23.66c0,.22-.18.39-.39.39s-.39-.18-.39-.39.18-.39.39-.39.39.18.39.39"/>
    <path class="cls-25" d="M336.91,22.57c0,.22-.18.39-.39.39s-.39-.18-.39-.39.18-.39.39-.39.39.18.39.39"/>
    <path class="cls-25" d="M336.83,21.46c0,.22-.18.39-.39.39s-.39-.18-.39-.39.18-.39.39-.39.39.18.39.39"/>
    <path class="cls-25" d="M336.32,20.42c0,.22-.18.39-.39.39s-.39-.18-.39-.39.18-.39.39-.39.39.18.39.39"/>
    <path class="cls-25" d="M335.27,19.72c0,.22-.18.39-.39.39s-.39-.18-.39-.39.18-.39.39-.39.39.18.39.39"/>
    <path class="cls-25" d="M334.23,19.54c0,.22-.18.39-.39.39s-.39-.18-.39-.39.18-.39.39-.39.39.18.39.39"/>
    <path class="cls-11" d="M321.57,17.03s-3.24-2.29-6.76.61c.31.09,3.75,1.6,6.76-.61"/>
    <path class="cls-43" d="M321.57,17.03s-3.24-2.29-6.76.61c.31.09,3.75,1.6,6.76-.61Z"/>
    <path class="cls-11" d="M333.04,16.27s-3.85-2.75-8.02.73c.37.1,4.45,1.92,8.02-.73"/>
    <path class="cls-43" d="M333.04,16.27s-3.85-2.75-8.02.73c.37.1,4.45,1.92,8.02-.73Z"/>
    <path class="cls-4" d="M316.99,16.55s.61.84,2,.42c0,0,.8-.38.67-.73,0,0-1.91-.25-2.68.31"/>
    <path class="cls-4" d="M326.96,15.69s.72,1.24,2.3.45c0,0,.55-.4.4-.85,0,0-2,.07-2.7.4"/>
    <path class="cls-34" d="M323.17,15.36c0,.16-.13.3-.3.3s-.3-.14-.3-.3.13-.3.3-.3.3.14.3.3"/>
    <path class="cls-4" d="M322.02,16.34c1.37.08,1.02,3.55,1.01,4.55.01.09.15.19.27.21.4.08.82-.02,1.21-.11-.39.12-.81.25-1.23.17-.13-.03-.3-.11-.33-.28-.04-.99.34-4.42-.94-4.54"/>
    <path class="cls-9" d="M322.21,22.44l.43-.15c.53-.24.78-.04.78-.04,0,0,.11-.3,1.29-.01l.45.12s-1.78.42-2.96.09"/>
    <path class="cls-22" d="M321.66,16.13s-1.98-1.4-5.29-.29c0,0,2.19-1.75,5.29.29"/>
    <path class="cls-22" d="M324.43,15.75s2.12-3.32,7.82-.87c0,0-4.04-1.75-7.82.87"/>
    <path class="cls-24" d="M293.69,161.86l-3.46,4.13s1.48,1.97,4.49,1.11l2.58-.31s1.14-1.86,1.11-2.83l.55-1.73-4.37-1.1-.91.73Z"/>
    <path class="cls-36" d="M333.52,166.23s-2.39.07-5.46,1.67c0,0-6.15,2.09-6.64,2.77-.49.68-.31,1.54,1.6,1.29l16.24.04s3.01.2,1.78-3.49l-.31-2.29s-3.01,1.34-6.95,0"/>
    <polyline class="cls-42" points="249.01 109.16 251.78 111.56 257.87 104.36 260 104.36 266.3 109.06 268.57 109.34 275.68 100.94 278.76 103.9 285.74 97.25"/>
    <polyline class="cls-44" points="282.32 97.71 286.2 97.25 285.18 100.48"/>
    <path class="cls-22" d="M85.94,45.55s-2.28,4.92-11.26.8c0,0,.13,1.85-.53,2.98s-.57,1.54-1.34,1.78c0,0-.28.42-1.43-.32-.06-.04-.11-.07-.17-.12,0,0,.52,2.83-.65,3.63h-.52s-.71-4.92-4-3.08c0,0-2.06,2.52,1.78,5.69l-2.72.12s-.88-.37-1.77-3.04c0,0-2.89-10.92,3.97-12.18,0,0,.65.03,1.88-.92,1.23-.95,6.8.12,8.52.55,1.72.43,2.86.21,5.29,2.21,0,0,2.18,2.06,2.95,1.88"/>
    <path class="cls-10" d="M75.52,67.54s3-1.45,7.52,5l5.48,8.74s-8.37,4.92-7.88,9.84l-2.58-1.94s-1.03,10.67-2.54,12.39l-1.3.21s.34-2.06-1.2-2.68l-2.15-.49s.37-1.35-1.75-1.51l-1.57.15s-1.01.21-2,1.91c0,0-.34.46-1.54.34,0,0-3.88-.06-15.22-3.2,0,0-6.43-2.92-8.92-3.38l1.45-1.42,5.07-4.43s1.2-.37-.37-1.29c0,0-7.1-3.78-9.97-2.49,0,0-.28-.83,1.11-2.58,0,0,7.2-10.33,10.8-12.55,0,0,2.37-3.08,10.18-2.09,0,0,4.91,13.07,17.39,1.45"/>
    <path class="cls-10" d="M41.96,107.13l.46,5.72s9.18-4.01,13.19-5.44c0,0-11.07-.09-13.66-.28"/>
    <path class="cls-32" d="M81.27,54.96s-2.03-2.28-7.11-.62c0,0,2.92,1.66,7.11.62"/>
    <path class="cls-43" d="M81.27,54.96s-2.03-2.28-7.11-.62c0,0,2.92,1.66,7.11.62Z"/>
    <path class="cls-4" d="M77.35,53.94s.4,1.2,1.71.66c0,0,.56-.29.6-.54,0,0-1.43-.54-2.32-.27"/>
    <path class="cls-4" d="M81.63,53.71s-.92-1.89-6.77-.93c0,0,5.69-2.04,6.77.93"/>
    <path class="cls-20" d="M168.37,45.3s4.52-.83,5.63,5.72c0,0,1.11,3.97-1.29,5.54,0,0-1.96,4.43-1.4,12.18,0,0-2.94-2.56-7.74-3.03v-1.95s2.12,1.48,3.51-1.01c0,0,3.41-3.41,3.05-9.32,0,0-.83-2.31-2.21-4.15,0,0-4.06,7.1-10.98,4.24,0,0-1.01,1.35-.74,3.49l.46,1.68s-.03,2.09-1.12,4.74c0,0-.63,1.69-4.04,1.54,0,0-7.57,1.2-10.06,8.4l-3.88,9.41s-2.58-2.95.55-9.04c0,0,1.57-2.12,3.51-3.78,1.94-1.66,7.2-8.3,7.2-14.39,0,0,0-9.04,7.2-12.87,0,0,7.93-4.84,12.36,2.63"/>
    <polygon class="cls-33" points="101.29 78.95 92.23 99.74 74.14 101.59 69.7 103.07 125.45 103.07 135.64 78.95 101.29 78.95"/>
    <polygon class="cls-26" points="17.05 103.07 17.05 105.83 24.24 105.83 24.24 107.37 225.95 107.37 225.95 106.02 233.24 106.02 234.17 103.07 17.05 103.07"/>
    <polygon class="cls-33" points="176.37 79.93 168.25 100.48 153.97 101.81 149.3 103.07 197.28 103.07 206.38 81.24 176.37 79.93"/>
    <polygon class="cls-4" points="236.65 124.37 229.36 159.41 231.48 159.41 240.84 124.33 236.65 124.37"/>
    <polygon class="cls-4" points="280.31 124.37 273.02 162.49 275.14 162.49 284.49 124.33 280.31 124.37"/>
    <path class="cls-36" d="M290.23,165.99l7.39.24s1.59,1.89.67,5.12h-20.21s.55-1.6,2.58-2.23l9.57-3.12Z"/>
    <path class="cls-2" d="M145.36,107.13s-5.66,13.78,7.14,15.14c0,0,20.18,2.46,34.69-4.25,0,0,2.22.4,6.15,6.32l24.85,23.64,7.14-3.18-27.56-39.58h-52.66l.25,1.91Z"/>
    <path class="cls-38" d="M135.64,119.31s11.69-3.51,15.75-4.98c0,0,5.72,0-3.14,8.86l-7.75,8.86s-5.49-.65-6.74-6l1.88-6.74Z"/>
    <path class="cls-4" d="M42.35,111.99s.35,4.42,2.87,8.11c0,0,2.89,4.8,10.4,4.37l41.71-1.48s6.7,15.44,11.44,23.25l7.63,13.16s3.38-2.77,8.06-2.77l-11.93-37.77,21.84,8.06s.99-6.21,2.52-8.49l-23.13-10.83-61.02-.25-10.37,4.62Z"/>
    <path class="cls-25" d="M156.94,59.58c0,.69-.56,1.25-1.25,1.25s-1.25-.56-1.25-1.25.56-1.25,1.25-1.25,1.25.56,1.25,1.25"/>
    <path class="cls-25" d="M155.09,58.06c0,.15-.12.26-.26.26s-.26-.12-.26-.26.12-.26.26-.26.26.12.26.26"/>
    <path class="cls-25" d="M154.43,58.59c0,.15-.12.26-.26.26s-.26-.12-.26-.26.12-.26.26-.26.26.12.26.26"/>
    <path class="cls-25" d="M154.26,59.41c0,.15-.12.26-.26.26s-.26-.12-.26-.26.12-.26.26-.26.26.12.26.26"/>
    <path class="cls-25" d="M154.43,60.26c0,.15-.12.26-.26.26s-.26-.12-.26-.26.12-.26.26-.26.26.12.26.26"/>
    <path class="cls-25" d="M154.93,60.88c0,.15-.12.26-.26.26s-.26-.12-.26-.26.12-.26.26-.26.26.12.26.26"/>
    <path class="cls-25" d="M155.8,61.17c0,.15-.12.26-.26.26s-.26-.12-.26-.26.12-.26.26-.26.26.12.26.26"/>
    <path class="cls-25" d="M156.63,61.09c0,.15-.12.26-.26.26s-.26-.12-.26-.26.12-.26.26-.26.26.12.26.26"/>
    <path class="cls-25" d="M157.28,60.62c0,.15-.12.26-.26.26s-.26-.12-.26-.26.12-.26.26-.26.26.12.26.26"/>
    <path class="cls-25" d="M157.68,59.89c0,.15-.12.26-.26.26s-.26-.12-.26-.26.12-.26.26-.26.26.12.26.26"/>
    <path class="cls-25" d="M157.63,59.15c0,.15-.12.26-.26.26s-.26-.12-.26-.26.12-.26.26-.26.26.12.26.26"/>
    <path class="cls-25" d="M157.28,58.45c0,.15-.12.26-.26.26s-.26-.12-.26-.26.12-.26.26-.26.26.12.26.26"/>
    <path class="cls-25" d="M156.58,57.98c0,.15-.12.26-.26.26s-.26-.12-.26-.26.12-.26.26-.26.26.12.26.26"/>
    <path class="cls-25" d="M155.89,57.86c0,.15-.12.26-.26.26s-.26-.12-.26-.26.12-.26.26-.26.26.12.26.26"/>
    <path class="cls-25" d="M170.4,61.42c0,.69-.56,1.25-1.25,1.25s-1.25-.56-1.25-1.25.56-1.25,1.25-1.25,1.25.56,1.25,1.25"/>
    <path class="cls-25" d="M168.55,59.9c0,.15-.12.26-.26.26s-.26-.12-.26-.26.12-.26.26-.26.26.12.26.26"/>
    <path class="cls-25" d="M167.89,60.43c0,.15-.12.26-.26.26s-.26-.12-.26-.26.12-.26.26-.26.26.12.26.26"/>
    <path class="cls-25" d="M167.72,61.25c0,.15-.12.26-.26.26s-.26-.12-.26-.26.12-.26.26-.26.26.12.26.26"/>
    <path class="cls-25" d="M167.89,62.1c0,.15-.12.26-.26.26s-.26-.12-.26-.26.12-.26.26-.26.26.12.26.26"/>
    <path class="cls-25" d="M168.39,62.72c0,.15-.12.26-.26.26s-.26-.12-.26-.26.12-.26.26-.26.26.12.26.26"/>
    <path class="cls-25" d="M169.26,63.01c0,.15-.12.26-.26.26s-.26-.12-.26-.26.12-.26.26-.26.26.12.26.26"/>
    <path class="cls-25" d="M170.09,62.93c0,.15-.12.26-.26.26s-.26-.12-.26-.26.12-.26.26-.26.26.12.26.26"/>
    <path class="cls-25" d="M170.74,62.46c0,.15-.12.26-.26.26s-.26-.12-.26-.26.12-.26.26-.26.26.12.26.26"/>
    <path class="cls-25" d="M171.14,61.73c0,.15-.12.26-.26.26s-.26-.12-.26-.26.12-.26.26-.26.26.12.26.26"/>
    <path class="cls-25" d="M171.09,60.99c0,.15-.12.26-.26.26s-.26-.12-.26-.26.12-.26.26-.26.26.12.26.26"/>
    <path class="cls-25" d="M170.74,60.29c0,.15-.12.26-.26.26s-.26-.12-.26-.26.12-.26.26-.26.26.12.26.26"/>
    <path class="cls-25" d="M170.04,59.82c0,.15-.12.26-.26.26s-.26-.12-.26-.26.12-.26.26-.26.26.12.26.26"/>
    <path class="cls-25" d="M169.35,59.7c0,.15-.12.26-.26.26s-.26-.12-.26-.26.12-.26.26-.26.26.12.26.26"/>
    <path class="cls-11" d="M163.86,55.92s-2.81-1.99-5.86.53c.27.07,3.25,1.39,5.86-.53"/>
    <path class="cls-43" d="M163.86,55.92s-2.81-1.99-5.86.53c.27.07,3.25,1.39,5.86-.53Z"/>
    <path class="cls-11" d="M172.34,55.57s-2.74-2.2-5.99.2c.27.09,3.22,1.61,5.99-.2"/>
    <path class="cls-43" d="M172.34,55.57s-2.74-2.2-5.99.2c.27.09,3.22,1.61,5.99-.2Z"/>
    <path class="cls-4" d="M159.89,55.5s.53.73,1.74.37c0,0,.69-.33.58-.64,0,0-1.66-.21-2.32.27"/>
    <path class="cls-4" d="M167.85,54.88s.48.95,1.69.43c0,0,.42-.27.33-.62,0,0-1.49-.03-2.02.18"/>
    <path class="cls-4" d="M164.31,55.34c1.37.08,1.02,3.55,1.01,4.55.01.09.15.19.28.21.4.08.82-.02,1.21-.11-.39.12-.81.25-1.22.17-.13-.03-.3-.11-.33-.28-.04-.99.34-4.42-.94-4.54"/>
    <path class="cls-8" d="M167.07,61.2s.04.46-.55.76c0,0-1.31.44-2-.64"/>
    <path class="cls-28" d="M167.17,61.17l-.42-.12c-.52-.21-.74.01-.74.01,0,0-.12-.3-1.22.08l-.42.15s1.71.29,2.8-.13"/>
    <path class="cls-22" d="M166.34,54.68s1.72-2.38,5.84-.31c0,0-2.92-1.47-5.84.31"/>
    <path class="cls-22" d="M163.98,54.79s-1.72-2.38-5.84-.31c0,0,2.92-1.47,5.84.31"/>
    <polygon class="cls-15" points="283.63 57.6 288.39 57.6 281.36 90.7 276.19 90.7 283.63 57.6"/>
    <polygon class="cls-15" points="275.29 61.88 280.05 61.88 273.02 90.69 267.85 90.69 275.29 61.88"/>
    <polygon class="cls-15" points="267.44 61.88 272.19 61.88 265.16 90.69 259.99 90.69 267.44 61.88"/>
    <polygon class="cls-15" points="257.36 69.39 261.16 70.19 256.98 91.44 252.12 91.28 257.36 69.39"/>
    <path class="cls-32" d="M163.28,79.2c0,.4-.32.73-.73.73s-.73-.32-.73-.73.33-.73.73-.73.73.32.73.73"/>
    <path class="cls-32" d="M162.95,76.25c0,.4-.32.73-.73.73s-.73-.32-.73-.73.33-.73.73-.73.73.32.73.73"/>
    <path class="cls-32" d="M163.68,82.64c0,.4-.32.73-.73.73s-.73-.32-.73-.73.33-.73.73-.73.73.32.73.73"/>
  </g>
</svg>