<?xml version="1.0" standalone="no"?>
<!DOCTYPE svg PUBLIC "-//W3C//DTD SVG 20010904//EN"
 "http://www.w3.org/TR/2001/REC-SVG-20010904/DTD/svg10.dtd">
<svg version="1.0" xmlns="http://www.w3.org/2000/svg"
 width="1280.000000pt" height="755.000000pt" viewBox="0 0 1280.000000 755.000000"
 preserveAspectRatio="xMidYMid meet">
<metadata>
Created by potrace 1.15, written by Peter Selinger 2001-2017
</metadata>
<g transform="translate(0.000000,755.000000) scale(0.100000,-0.100000)"
fill="#c0bbbd" stroke="none">
<path d="M11765 7003 c-362 -485 -838 -1017 -1211 -1353 -596 -536 -1122 -803
-1554 -788 -102 3 -121 7 -169 32 -113 59 -175 142 -337 458 -61 119 -133 249
-160 290 -62 94 -166 198 -229 229 -47 22 -60 24 -205 23 -138 -1 -165 -4
-245 -28 -121 -36 -271 -110 -380 -187 -119 -85 -337 -304 -455 -457 -176
-230 -277 -384 -607 -930 -376 -623 -557 -882 -773 -1105 l-115 -119 -149 31
c-82 17 -151 30 -153 28 -2 -2 14 -55 36 -116 l40 -113 -94 -44 c-229 -109
-517 -133 -673 -56 -95 46 -203 188 -187 245 7 22 7 22 -8 2 -15 -19 -17 -16
-53 60 -50 105 -50 104 -25 73 12 -15 29 -44 39 -65 28 -60 45 -52 21 10 -51
130 -123 223 -202 264 -100 50 -224 18 -392 -103 -42 -30 -78 -54 -80 -52 -1
2 -14 53 -29 113 -15 61 -29 118 -32 127 -4 12 11 30 50 60 37 29 51 44 40 46
-23 5 -84 -40 -84 -63 0 -17 -2 -17 -10 -5 -17 26 -11 38 26 64 27 18 45 23
68 19 41 -6 159 29 208 62 65 44 149 33 234 -31 17 -13 34 -21 37 -17 4 3 7
-1 7 -10 0 -23 22 -67 31 -62 6 4 54 -100 82 -178 5 -15 11 -26 14 -23 7 7
-53 160 -97 246 -21 41 -55 120 -75 175 -58 156 -126 273 -185 316 -99 73
-191 73 -328 -1 -114 -62 -214 -142 -381 -305 -231 -226 -386 -401 -879 -998
-167 -202 -310 -367 -318 -367 -8 0 -46 11 -86 24 -40 13 -91 28 -114 33 l-41
8 406 486 c501 601 685 811 871 998 355 357 569 468 726 376 42 -25 102 -90
92 -101 -3 -2 -17 11 -32 30 -14 19 -51 47 -81 62 -80 38 -150 31 -264 -28
-51 -26 -85 -50 -87 -61 -3 -22 -3 -22 53 13 103 66 221 88 297 56 19 -8 52
-30 73 -50 22 -20 42 -33 45 -31 3 3 22 -33 44 -80 21 -46 43 -84 47 -85 4 0
3 9 -3 20 -6 11 -8 20 -6 20 10 0 -33 89 -69 145 -141 221 -283 239 -532 69
-237 -162 -521 -467 -1168 -1250 -181 -219 -369 -445 -418 -501 l-88 -103 -57
-1 c-31 0 -94 -6 -140 -12 l-83 -12 60 -81 59 -81 -107 -119 c-151 -167 -409
-416 -519 -501 -180 -139 -303 -203 -437 -228 -44 -8 -58 -13 -38 -14 50 -2
132 19 202 50 66 30 86 35 77 20 -15 -23 -165 -74 -241 -82 l-80 -8 85 3 c67
2 102 9 165 34 51 21 83 28 89 22 7 -7 3 -15 -10 -24 -19 -15 -19 -15 2 -10
18 5 27 -8 67 -96 26 -56 45 -105 42 -110 -12 -19 -174 -73 -240 -80 l-70 -7
55 -2 c64 -1 136 16 214 52 62 29 78 18 18 -12 -62 -31 -133 -53 -207 -61
l-70 -9 82 4 c67 2 97 9 164 39 62 26 85 32 91 23 4 -7 -1 -19 -15 -30 l-22
-18 23 11 c21 10 25 6 78 -104 31 -63 54 -121 51 -129 -7 -20 -146 -76 -218
-89 -33 -6 -58 -12 -56 -15 11 -11 137 20 209 51 45 20 83 34 85 32 10 -10
-169 -80 -234 -92 -77 -14 -78 -14 -17 -9 66 5 130 23 209 61 27 13 50 22 51
21 3 -4 96 -201 120 -253 l23 -51 -97 -51 c-89 -46 -121 -57 -237 -81 -58 -13
-9 -13 57 -1 67 13 157 48 228 90 28 17 49 26 45 20 -9 -14 -128 -79 -188
-102 -29 -11 -83 -26 -122 -34 l-70 -13 64 5 c92 8 195 46 308 115 31 20 31
20 38 -1 4 -12 5 -23 3 -24 -1 -2 -37 -22 -78 -44 -41 -23 -71 -42 -66 -42 5
0 41 18 82 40 l72 41 46 -97 c53 -111 59 -95 -62 -165 -109 -63 -188 -91 -277
-100 l-80 -8 90 4 c115 4 210 41 353 138 24 16 45 27 48 24 4 -4 -70 -54 -157
-105 -59 -36 -166 -72 -237 -81 -54 -7 -59 -9 -25 -10 136 -4 315 83 533 258
130 105 371 341 542 532 78 87 146 159 150 159 23 0 -5 -37 -146 -194 -326
-363 -598 -607 -801 -717 -74 -41 -83 -54 -12 -18 209 106 528 391 887 792 99
110 118 127 144 127 17 0 54 11 81 24 91 43 135 112 135 212 l0 56 322 387
c398 477 626 737 794 905 71 71 123 126 117 122 -9 -5 -11 -2 -7 11 9 28 -263
-254 -436 -452 -153 -176 -671 -797 -747 -895 -38 -50 -53 -60 -53 -37 0 15
577 708 808 972 92 104 227 250 300 325 l134 135 14 -40 c8 -22 21 -67 30
-100 8 -33 22 -84 31 -113 l15 -54 34 33 c40 39 46 35 65 -43 l11 -48 85 78
c47 42 111 107 142 144 122 144 133 220 51 352 l-20 34 64 -13 c66 -12 119
-41 168 -89 30 -30 96 -163 123 -244 9 -29 19 -51 21 -49 7 6 -43 140 -86 232
-54 115 -115 194 -180 229 -50 27 -57 28 -138 23 -72 -5 -89 -4 -111 12 -14
10 -43 26 -63 35 -50 24 -120 86 -93 83 11 -1 52 15 91 35 81 42 159 59 212
47 56 -12 49 -3 -12 16 -67 21 -106 15 -199 -30 -87 -43 -209 -133 -201 -148
4 -7 -2 -4 -12 6 -19 18 -18 18 6 38 184 144 328 191 431 139 47 -24 132 -106
124 -120 -7 -11 68 -183 100 -232 14 -21 25 -41 25 -46 0 -10 94 -222 115
-260 8 -15 30 -68 48 -117 40 -105 95 -216 131 -264 14 -19 23 -39 19 -45 -3
-6 -3 -8 2 -4 5 5 34 -17 66 -47 32 -31 84 -68 116 -83 51 -23 73 -27 189 -30
177 -6 293 19 487 103 13 5 17 2 17 -14 0 -12 4 -29 10 -39 11 -20 70 -190 70
-203 0 -5 -11 -4 -26 1 -14 6 -51 10 -82 10 -100 0 -229 -80 -248 -154 -5 -20
-13 -24 -59 -29 -100 -10 -231 8 -301 43 -85 41 -168 133 -234 258 -28 54 -48
88 -44 77 4 -11 8 -33 9 -50 5 -81 170 -314 245 -345 16 -7 28 -15 26 -19 -3
-4 3 -7 12 -8 9 -1 35 -6 57 -12 22 -6 97 -11 166 -11 100 0 129 -3 139 -15
11 -13 8 -15 -21 -14 -32 1 -32 2 -9 9 24 8 -5 7 -145 -5 -35 -3 -44 -2 -30 5
15 6 8 9 -30 10 -27 0 -67 7 -87 14 -21 8 -35 10 -32 5 2 -5 34 -18 70 -29 51
-15 94 -20 189 -20 95 0 129 -4 156 -17 19 -9 60 -19 91 -21 36 -3 55 -8 51
-15 -11 -18 110 -1 155 22 56 29 100 90 108 152 6 47 10 51 98 123 50 41 135
119 188 173 117 117 288 329 288 356 0 11 -31 -22 -80 -85 -166 -213 -377
-416 -493 -474 -62 -31 -60 -29 69 74 127 101 282 263 404 421 52 67 96 116
98 109 2 -7 16 -40 32 -73 55 -117 57 -130 30 -167 -160 -223 -400 -477 -546
-580 -103 -73 -236 -139 -350 -174 -82 -26 -103 -28 -259 -28 -164 -1 -172 0
-227 26 -32 15 -73 39 -93 55 -83 65 -175 217 -236 391 -17 51 -34 91 -36 89
-7 -8 75 -224 120 -313 25 -49 61 -111 81 -137 20 -26 33 -47 29 -47 -15 0 93
-102 132 -125 156 -93 495 -64 725 62 330 180 596 482 1005 1147 182 295 200
327 183 321 -7 -3 -69 -99 -138 -213 -500 -830 -849 -1191 -1273 -1313 -102
-29 -328 -38 -415 -15 -64 16 -140 54 -162 81 -19 22 -3 18 33 -9 53 -40 107
-57 206 -65 331 -28 621 100 928 410 62 63 154 166 203 229 110 139 319 451
463 690 123 203 125 206 154 215 19 5 25 1 33 -20 6 -17 14 -24 22 -19 29 17
473 296 477 300 2 2 -26 77 -63 166 -36 90 -66 170 -66 179 0 8 -5 20 -12 27
-13 13 4 41 127 208 223 301 440 507 658 624 77 42 77 42 77 18 0 -35 9 -39
38 -20 74 48 265 87 432 87 82 0 103 -4 150 -26 131 -63 197 -147 350 -449 99
-196 161 -302 196 -341 14 -14 22 -28 18 -31 -3 -4 4 -9 15 -13 12 -3 21 -11
21 -16 0 -6 -6 -7 -12 -4 -7 4 12 -18 43 -48 104 -99 197 -126 382 -107 237
24 456 101 732 259 205 118 256 153 420 291 139 117 299 244 291 232 -12 -20
2 -13 39 19 19 17 35 37 35 44 0 7 81 98 181 202 170 177 466 503 456 503 -3
0 -77 -80 -165 -177 -169 -188 -450 -469 -459 -459 -4 3 -13 0 -22 -7 -9 -6
72 80 179 192 276 289 341 361 560 626 162 197 417 525 406 525 -3 0 -33 -37
-68 -82 -94 -125 -288 -367 -298 -373 -22 -14 -6 11 68 103 107 132 304 392
298 392 -3 0 -33 -37 -68 -82 -160 -212 -348 -442 -536 -655 l-125 -142 -34
77 c-18 42 -36 85 -39 95 -4 12 17 42 68 100 148 165 210 237 205 237 -3 0
-67 -70 -143 -156 -125 -142 -139 -155 -151 -138 -11 15 -10 21 10 43 94 103
327 377 327 383 0 3 -7 5 -15 5 -8 0 -38 -28 -67 -61 -29 -34 -104 -119 -167
-189 l-114 -128 -42 99 c-24 55 -48 109 -54 121 -11 19 -6 27 37 74 86 93 264
297 258 297 -2 0 -71 -74 -151 -165 -81 -91 -151 -165 -155 -165 -4 0 -10 6
-13 14 -4 9 18 40 51 78 175 192 381 437 573 678 55 70 209 280 205 280 -2 0
-73 -89 -158 -197 -242 -313 -592 -724 -669 -788 -13 -11 -3 3 22 30 207 225
617 720 606 731 -2 3 -24 -20 -48 -52 -168 -219 -597 -711 -609 -697 -11 13
-100 219 -100 232 0 6 30 44 68 84 94 103 254 287 249 287 -3 0 -53 -55 -113
-122 -180 -206 -232 -255 -222 -214 2 8 75 97 164 198 180 206 309 361 435
523 135 173 240 315 235 315 -3 0 -40 -46 -83 -102 -156 -208 -398 -503 -567
-693 -133 -149 -243 -265 -251 -265 -4 0 30 41 76 91 254 278 637 742 758 919
44 64 -4 6 -134 -160 -199 -255 -553 -670 -637 -748 l-25 -23 -46 106 -47 106
146 164 c80 91 143 165 141 165 -4 0 -189 -203 -259 -284 -14 -17 -30 -26 -36
-22 -8 4 51 79 161 204 225 256 433 511 575 705 81 110 33 56 -81 -91 -138
-178 -290 -362 -440 -532 -144 -164 -287 -314 -287 -302 0 5 33 45 73 88 204
224 443 509 634 759 151 197 186 245 180 245 -2 0 -31 -35 -62 -77z m-772
-1023 c-7 -28 -29 -44 -39 -29 -4 7 2 20 16 31 28 23 29 23 23 -2z m-153 -106
c-179 -181 -505 -467 -635 -556 -50 -35 -6 4 100 88 124 99 368 320 500 453
55 56 104 101 110 101 5 0 -29 -39 -75 -86z m210 -26 c39 -90 45 -128 20 -128
-9 0 -48 78 -87 173 -12 30 -13 40 -3 53 17 20 21 15 70 -98z m-47 -201 c-108
-112 -324 -306 -340 -304 -16 1 -518 -298 -552 -329 -13 -12 -12 -24 14 -85 5
-13 -16 -30 -92 -75 -107 -64 -261 -144 -278 -144 -5 0 -10 21 -10 47 0 57
-14 67 -35 24 -16 -33 -35 -42 -26 -13 2 9 6 39 8 67 5 82 -18 69 -90 -50 -35
-57 -75 -113 -88 -124 -36 -28 -107 -36 -184 -22 -134 26 -127 27 -149 -10
-12 -19 -21 -42 -21 -52 0 -17 -6 -18 -57 -11 -141 17 -227 77 -333 234 -39
57 -163 289 -142 265 44 -51 72 -97 66 -107 -4 -7 -4 -10 1 -6 5 5 32 -15 62
-43 29 -27 82 -63 117 -80 60 -28 71 -30 182 -30 486 1 1037 317 1729 993
l140 136 58 -120 58 -121 -38 -40z m-2850 150 c56 -29 147 -117 147 -141 0 -6
-18 10 -40 35 -46 54 -118 103 -175 118 -22 6 -47 16 -55 22 -33 23 67 -4 123
-34z m-448 4 c-3 -5 -40 -21 -83 -35 -100 -34 -255 -117 -258 -139 -1 -9 -1
-17 0 -17 2 0 37 20 80 44 42 24 104 54 137 66 34 13 63 29 66 37 3 7 9 13 14
13 4 0 2 -19 -6 -41 -19 -51 -19 -80 -1 -146 l14 -53 -91 -47 c-51 -26 -135
-80 -187 -119 -94 -71 -268 -240 -352 -341 -25 -31 -51 -53 -63 -53 -16 0 -17
-2 -6 -9 12 -7 7 -19 -25 -58 -129 -157 -272 -376 -607 -933 -104 -173 -226
-371 -270 -440 -84 -129 -216 -320 -222 -320 -1 0 -22 44 -45 98 l-42 99 125
189 c68 104 236 374 372 599 136 226 295 481 352 568 224 344 440 596 658 772
53 43 82 83 52 72 -7 -3 -11 -10 -9 -16 1 -7 -2 -9 -9 -5 -7 4 -9 3 -6 -3 4
-6 -1 -10 -11 -9 -10 0 -16 -5 -14 -14 2 -8 0 -12 -3 -8 -10 9 -50 -19 -50
-35 0 -6 -4 -12 -10 -12 -19 0 -85 -57 -78 -68 3 -5 1 -7 -4 -4 -13 8 -36 -17
-25 -28 4 -5 2 -5 -5 -2 -14 9 -105 -91 -96 -106 3 -5 1 -7 -5 -3 -12 7 -75
-68 -64 -78 4 -4 2 -6 -4 -4 -23 7 -201 -235 -374 -507 -61 -96 -189 -306
-285 -465 -211 -351 -374 -609 -449 -710 -31 -41 -56 -81 -56 -88 0 -7 -4 -11
-9 -8 -5 4 50 95 123 204 72 108 246 386 385 617 360 596 508 813 714 1053
201 232 449 412 667 483 64 21 73 22 65 10z m548 -119 c33 -32 57 -50 52 -42
-7 13 -6 13 8 0 8 -8 45 -71 81 -140 36 -69 53 -109 38 -90 -62 81 -135 143
-205 176 -40 18 -66 33 -59 34 21 0 -5 39 -39 58 -16 10 -29 25 -29 35 0 10
-6 32 -14 50 l-13 33 60 -29 c33 -16 87 -54 120 -85z m-653 58 c-8 -5 -19 -10
-25 -10 -5 0 -3 5 5 10 8 5 20 10 25 10 6 0 3 -5 -5 -10z m-41 -14 c-10 -9
-129 -66 -129 -61 0 6 111 64 124 65 5 0 7 -2 5 -4z m3558 -68 c-7 -10 -15
-18 -19 -18 -12 0 -9 35 4 48 17 17 29 -6 15 -30z m-241 -174 c-99 -96 -183
-174 -186 -174 -4 0 74 81 174 179 99 99 183 177 186 174 3 -3 -76 -84 -174
-179z m-3456 171 c0 -2 -10 -9 -22 -15 -22 -11 -22 -10 -4 4 21 17 26 19 26
11z m3773 -124 c46 -104 49 -113 34 -129 -9 -8 -18 -14 -20 -11 -2 2 -26 56
-54 119 -37 84 -48 118 -40 128 5 7 14 11 20 9 5 -1 32 -54 60 -116z m-123 86
c0 -25 -356 -361 -372 -351 -11 7 352 371 365 366 4 -2 7 -9 7 -15z m96 -214
c16 -42 16 -42 -11 -75 -49 -59 -339 -328 -347 -320 -4 4 -27 57 -51 117 l-45
110 181 183 182 183 37 -78 c21 -43 45 -97 54 -120z m-3418 156 c-20 -13 -38
-11 -38 5 0 9 8 12 26 8 19 -3 22 -7 12 -13z m-488 -13 c0 -2 -8 -10 -17 -17
-16 -13 -17 -12 -4 4 13 16 21 21 21 13z m1010 -41 c32 -16 106 -75 94 -75 -4
0 10 -18 33 -39 61 -59 119 -153 246 -398 131 -251 131 -251 208 -353 91 -121
170 -170 284 -177 56 -3 66 -2 51 8 -10 6 -33 9 -52 6 -19 -3 -34 -2 -34 4 0
5 -11 9 -23 9 -33 0 -138 54 -168 87 -21 23 -19 23 17 -6 54 -42 133 -71 194
-71 47 0 54 -4 93 -43 50 -52 76 -67 114 -67 38 0 127 43 180 86 23 19 59 41
80 50 21 8 28 13 16 10 -21 -4 -21 -3 -6 20 8 13 21 24 27 24 10 0 8 -38 -6
-157 -10 -86 -20 -158 -21 -159 -1 -1 -48 -10 -105 -19 -67 -11 -139 -16 -210
-14 -92 4 -115 8 -163 32 -67 33 -144 107 -203 196 -24 37 -95 165 -158 287
-133 256 -188 341 -267 417 -76 73 -127 97 -220 106 -125 13 -320 -16 -434
-64 -20 -8 -37 -13 -37 -9 0 3 -14 58 -31 121 -16 63 -29 116 -27 118 11 9
165 33 221 33 38 0 74 5 81 11 6 5 41 13 76 17 76 7 137 -6 195 -43 22 -14 33
-18 25 -9 -9 9 -45 32 -80 51 -59 33 -50 40 10 10z m-1070 -8 c0 -2 -12 -14
-27 -28 l-28 -24 24 28 c23 25 31 32 31 24z m570 -17 c-8 -5 -22 -10 -30 -10
-13 0 -13 1 0 10 8 5 22 10 30 10 13 0 13 -1 0 -10z m-77 -42 c2 -13 19 -74
36 -136 17 -62 31 -116 31 -121 0 -5 -33 -27 -72 -49 -79 -44 -218 -144 -257
-186 -19 -21 -34 -26 -69 -26 -27 0 -52 6 -63 16 -17 15 -203 39 -221 28 -4
-3 -8 -1 -8 5 0 18 243 255 325 317 88 66 262 172 286 174 4 0 9 -10 12 -22z
m3557 -52 c0 -2 -8 -10 -17 -17 -16 -13 -17 -12 -4 4 13 16 21 21 21 13z m23
-28 c2 -7 -2 -21 -11 -30 -8 -10 -10 -18 -4 -18 6 0 12 6 15 13 6 17 7 16 65
-111 44 -96 50 -116 39 -133 -6 -10 -14 -19 -18 -19 -3 0 -33 64 -67 141 -49
110 -60 144 -51 155 14 17 26 18 32 2z m-83 -31 c0 -2 -17 -19 -37 -38 l-38
-34 34 38 c33 34 41 42 41 34z m80 -155 c33 -73 60 -136 60 -141 0 -16 -373
-372 -381 -364 -4 5 -28 58 -53 119 l-45 112 184 183 c102 100 183 184 182
186 -2 1 -42 -34 -88 -80 -189 -182 -289 -269 -294 -255 -4 10 26 45 82 99 48
46 131 127 183 181 52 54 99 96 103 95 4 -1 35 -62 67 -135z m-615 47 c-21
-33 -433 -345 -443 -335 -4 4 2 12 12 18 37 21 253 188 336 261 47 41 88 73
93 70 4 -2 5 -9 2 -14z m-2310 -14 c76 -20 143 -63 200 -129 64 -72 56 -79 -9
-9 -76 82 -137 113 -238 122 -131 11 -353 -22 -440 -65 -32 -17 -38 -17 -38
-4 0 13 57 36 147 61 141 39 285 48 378 24z m3453 -93 c-132 -156 -253 -290
-257 -286 -2 2 29 41 69 86 40 46 115 134 168 196 52 62 97 111 99 108 3 -3
-33 -50 -79 -104z m-1083 -33 c26 -61 44 -116 42 -124 -7 -17 -188 -165 -324
-263 l-111 -81 -48 119 c-26 66 -46 121 -43 123 2 2 35 25 74 51 80 56 233
177 302 241 26 24 51 44 55 45 3 0 27 -50 53 -111z m-2382 92 c-10 -2 5 -10
35 -17 64 -17 153 -73 188 -120 14 -18 31 -32 37 -31 7 1 11 -6 11 -16 -1 -10
1 -16 4 -12 8 7 53 -73 148 -260 90 -177 149 -282 176 -311 10 -12 18 -27 16
-35 -2 -7 4 -13 12 -14 8 0 14 -9 13 -18 0 -10 26 -47 59 -83 79 -84 157 -123
260 -131 75 -6 305 17 258 26 l-25 4 25 8 c22 8 22 8 -5 4 -16 -3 -89 -8 -160
-12 -105 -4 -142 -2 -187 11 -63 18 -164 88 -199 137 -19 28 -12 24 36 -20 82
-74 146 -102 249 -108 71 -5 217 7 282 23 20 5 21 2 18 -38 -7 -111 -28 -278
-35 -290 -6 -10 -41 -13 -141 -13 -117 0 -139 3 -182 23 -95 43 -181 134 -258
270 -17 28 -34 50 -39 46 -5 -3 -6 3 -2 12 5 13 3 15 -7 9 -8 -5 -11 -4 -6 3
8 14 -151 335 -164 327 -5 -3 -12 0 -16 6 -4 8 -3 9 4 5 24 -15 10 16 -48 102
-103 154 -189 216 -328 236 -63 8 -81 15 -97 36 -40 50 -198 180 -220 180 -3
0 12 -26 34 -57 59 -87 94 -163 79 -167 -7 -2 -40 -9 -73 -16 -33 -7 -88 -23
-122 -35 l-63 -22 -11 41 c-37 135 -58 221 -55 224 15 14 214 73 270 79 65 7
68 8 31 13 -22 3 18 5 88 5 71 0 121 -2 110 -4z m-256 -7 c-3 -3 -12 -4 -19
-1 -8 3 -5 6 6 6 11 1 17 -2 13 -5z m-50 -10 c-3 -3 -12 -4 -19 -1 -8 3 -5 6
6 6 11 1 17 -2 13 -5z m-40 -10 c-3 -3 -12 -4 -19 -1 -8 3 -5 6 6 6 11 1 17
-2 13 -5z m-207 -46 c0 -7 -31 -29 -68 -50 -76 -41 -236 -157 -228 -166 3 -3
1 -11 -5 -19 -23 -27 4 -11 66 40 35 29 102 76 150 104 47 28 80 53 73 56 -8
4 -7 6 4 6 13 1 22 -16 37 -66 29 -99 54 -203 50 -207 -2 -1 -31 -18 -64 -36
-33 -18 -82 -49 -109 -67 l-48 -35 -57 35 c-62 38 -119 111 -116 148 1 13 -3
27 -9 31 -21 14 88 103 235 192 80 49 89 53 89 34z m-21 -42 c-2 -2 -15 -9
-29 -15 -24 -11 -24 -11 -6 3 16 13 49 24 35 12z m3652 -47 c-15 -26 -14 -34
4 -19 19 15 13 23 58 -78 31 -70 35 -86 24 -102 -6 -11 -14 -20 -18 -20 -3 0
-20 35 -38 78 -19 42 -42 94 -53 116 -18 36 -18 39 -2 58 17 17 18 18 27 2 7
-11 6 -23 -2 -35z m-3726 5 c-26 -20 -55 -36 -55 -30 0 5 63 46 70 46 3 -1 -4
-8 -15 -16z m3678 -44 c8 -30 -373 -398 -386 -374 -8 13 28 54 179 205 104
104 192 189 195 189 4 0 9 -9 12 -20z m-3743 7 c0 -2 -27 -25 -60 -50 -33 -26
-60 -45 -60 -42 0 4 112 95 118 95 1 0 2 -2 2 -3z m3793 -119 c20 -46 37 -88
37 -94 0 -6 -86 -96 -191 -199 l-192 -188 -37 90 -38 91 186 190 c103 105 189
191 192 191 3 1 23 -36 43 -81z m-4373 56 c0 -3 -11 -20 -25 -38 -14 -18 -22
-36 -17 -40 4 -4 2 -6 -5 -4 -25 7 -256 -332 -486 -713 -76 -124 -137 -229
-137 -233 0 -21 31 24 151 222 173 284 314 497 432 654 52 69 93 129 90 132
-4 3 -2 6 4 6 18 0 73 -69 101 -126 14 -30 32 -54 39 -54 19 0 16 -14 -7 -35
-31 -28 -157 -195 -248 -329 -45 -65 -97 -129 -115 -142 -36 -24 -67 -77 -67
-113 0 -11 -25 -62 -56 -112 -54 -85 -58 -90 -83 -82 -53 17 -153 8 -201 -17
-25 -13 -48 -23 -51 -23 -3 1 -16 -19 -30 -45 -13 -26 -26 -49 -29 -52 -3 -3
-63 -97 -133 -210 -71 -113 -162 -252 -202 -309 -67 -94 -93 -143 -65 -126 24
15 357 533 386 600 11 27 13 28 19 10 4 -11 26 -68 50 -127 l43 -107 -98 -160
c-106 -173 -173 -274 -258 -394 l-55 -77 -50 117 c-27 65 -53 126 -58 135 -7
13 21 62 124 215 73 109 235 369 361 578 267 442 376 615 494 780 135 190 182
246 182 219z m3739 -50 c-21 -26 -240 -199 -333 -264 -128 -89 -131 -61 -4 32
57 42 157 121 223 176 81 68 121 96 123 86 2 -8 -2 -22 -9 -30z m75 -130 c38
-93 44 -119 35 -131 -51 -60 -417 -340 -429 -327 -5 5 -28 59 -53 121 l-45
111 92 69 c103 77 321 256 331 272 12 20 22 3 69 -115z m-694 101 c0 -8 -6
-14 -12 -12 -7 1 -12 -4 -10 -11 1 -8 -2 -11 -8 -7 -5 3 -24 -4 -41 -16 -17
-12 -98 -56 -180 -98 -82 -43 -146 -80 -143 -84 3 -3 -3 -3 -15 0 -12 3 -21 7
-21 9 0 2 57 33 128 68 70 36 163 87 207 115 88 55 95 58 95 36z m-1980 -23
c0 -5 -37 -17 -82 -26 -45 -10 -104 -26 -131 -37 -32 -13 -47 -15 -45 -7 5 13
86 43 173 63 74 16 85 17 85 7z m273 -8 c25 -8 57 -26 71 -39 14 -13 26 -21
26 -17 0 3 23 -16 51 -43 54 -54 121 -148 163 -233 15 -29 31 -50 36 -47 6 4
7 -1 3 -11 -4 -12 -3 -15 5 -10 8 5 10 1 5 -10 -4 -12 -3 -15 5 -10 8 5 10 1
5 -10 -4 -12 -3 -15 5 -10 8 5 10 1 5 -10 -4 -12 -3 -15 5 -10 8 5 10 1 5 -10
-4 -12 -3 -15 5 -10 8 5 10 1 5 -10 -5 -13 -3 -15 7 -9 9 5 11 4 6 -3 -4 -6 0
-24 9 -39 9 -16 14 -20 11 -10 -4 11 -2 16 5 12 6 -4 8 -14 5 -22 -9 -22 76
-178 149 -275 35 -46 87 -103 116 -128 29 -24 49 -39 45 -31 -5 8 4 6 25 -6
28 -15 57 -18 172 -18 l139 0 -7 -82 c-6 -70 -4 -83 8 -83 10 0 17 17 21 58
10 78 15 92 33 92 14 0 15 -11 9 -77 -4 -43 -9 -93 -12 -110 -5 -25 -3 -33 8
-33 10 0 17 26 25 101 6 55 14 103 16 106 3 2 31 11 63 18 173 41 443 153 457
190 4 8 5 15 3 15 -2 0 -50 -22 -107 -50 -106 -50 -312 -123 -384 -135 -69
-11 -26 10 99 49 202 64 369 145 569 275 43 28 82 49 88 46 11 -7 12 -36 2
-33 -5 1 -21 -5 -38 -15 l-30 -16 27 -1 c15 0 30 5 33 10 10 16 23 12 35 -10
10 -19 9 -20 -44 -14 -65 8 -115 -9 -188 -63 -100 -73 -84 -182 33 -216 l44
-14 -150 -74 c-260 -130 -454 -183 -670 -183 -121 -1 -134 1 -188 26 -71 33
-151 108 -210 196 -24 37 -99 173 -166 302 -210 404 -292 489 -496 519 -33 5
-52 9 -43 10 38 3 32 136 -9 176 -13 13 -9 15 36 15 27 0 62 -5 78 -11 17 -6
24 -6 18 0 -5 5 -37 19 -70 30 -33 11 -53 20 -44 21 8 0 36 -7 62 -16z m1766
-108 c23 -55 41 -105 41 -112 0 -27 -265 -174 -437 -243 -109 -44 -123 -47
-123 -28 0 54 32 263 40 265 6 2 7 9 4 14 -5 7 -2 8 5 3 15 -9 93 24 85 36 -3
5 3 6 12 2 12 -4 15 -3 10 5 -5 8 -1 10 10 5 12 -4 15 -3 10 5 -5 8 -1 10 10
5 12 -4 15 -3 10 5 -5 8 -1 10 10 5 13 -5 15 -3 9 7 -5 9 -4 11 3 6 15 -9 75
22 67 34 -3 6 0 7 7 5 8 -3 22 2 33 11 11 8 14 12 6 8 -9 -4 -12 -3 -7 4 4 6
12 9 19 6 7 -2 21 3 32 12 11 8 14 12 6 8 -9 -4 -12 -3 -7 4 4 6 14 8 23 5 12
-5 14 -3 8 7 -5 7 -4 11 1 7 5 -3 20 1 34 8 14 8 28 11 31 7 4 -4 25 -52 48
-106z m-565 47 c-9 -78 -15 -86 -73 -105 l-50 -16 51 66 c28 37 55 77 61 89
16 36 19 28 11 -34z m1866 53 c0 -2 -8 -10 -17 -17 -16 -13 -17 -12 -4 4 13
16 21 21 21 13z m-3340 -31 c0 -38 -35 -130 -69 -184 -23 -36 -41 -50 -77 -64
-26 -9 -50 -15 -53 -12 -8 8 -41 135 -45 178 -3 22 -1 35 5 31 5 -3 42 6 82
19 40 14 90 29 112 33 32 6 36 9 20 15 -19 7 -19 8 3 8 17 1 22 -5 22 -24z
m523 -144 c27 -46 15 -38 -23 17 -19 26 -55 70 -80 98 -25 28 -16 21 20 -16
36 -37 73 -81 83 -99z m-580 152 c-7 -2 -19 -2 -25 0 -7 3 -2 5 12 5 14 0 19
-2 13 -5z m203 -88 c-1 -60 2 -95 9 -96 5 -1 -21 -7 -60 -14 -38 -7 -71 -12
-72 -11 0 0 21 30 47 66 27 35 55 83 62 107 7 24 13 43 14 43 1 0 1 -43 0 -95z
m3125 38 c-11 -16 -79 -86 -152 -158 l-132 -130 149 158 c81 86 150 157 152
157 2 0 -6 -12 -17 -27z m-3553 -60 c28 -90 52 -177 49 -178 -88 -48 -135 -76
-189 -112 l-66 -45 -76 49 c-42 26 -79 56 -82 66 -3 9 -9 15 -14 12 -5 -3 -12
-1 -15 5 -7 11 49 65 133 129 46 35 221 141 233 141 3 0 16 -30 27 -67z m1825
50 c-7 -19 -22 -33 -36 -33 -10 0 25 49 35 50 4 0 4 -8 1 -17z m-2437 -25
c-21 -12 -167 -190 -261 -320 -42 -60 -82 -108 -87 -108 -12 0 3 25 85 140
137 192 241 311 264 303 13 -5 13 -7 -1 -15z m99 -7 c-3 -5 -19 -12 -35 -16
-16 -4 -43 -19 -60 -35 -42 -39 -42 -100 -1 -157 16 -23 38 -47 49 -54 18 -13
14 -20 -71 -123 -50 -59 -93 -103 -95 -97 -6 18 -58 41 -93 41 -17 0 -49 5
-69 11 l-38 11 75 100 c41 55 76 108 77 117 2 9 8 16 14 16 6 0 25 19 42 43
18 23 29 42 25 42 -4 0 -2 7 5 15 7 8 16 13 20 10 9 -6 31 18 34 37 3 21 17
39 26 33 5 -3 11 -1 15 5 3 5 24 10 46 10 22 0 38 -4 34 -9z m165 -21 c34 -1
8 -15 -44 -25 -26 -4 -52 -19 -74 -41 -33 -33 -34 -37 -29 -85 6 -47 5 -50
-11 -37 -26 20 -41 41 -42 58 0 8 30 43 68 77 49 47 72 62 87 58 11 -2 31 -5
45 -5z m2146 -65 c-11 -8 -22 -12 -25 -9 -6 6 19 24 34 24 6 -1 1 -7 -9 -15z
m-3276 -25 c-6 -11 -13 -20 -16 -20 -2 0 0 9 6 20 6 11 13 20 16 20 2 0 0 -9
-6 -20z m3270 -148 c-14 -130 -16 -137 -38 -140 -22 -3 -23 -1 -18 40 4 24 11
84 17 133 5 50 14 92 20 93 5 2 7 7 4 12 -3 4 3 6 13 3 17 -4 17 -11 2 -141z
m1240 119 c0 -9 4 -21 9 -26 5 -6 12 -20 15 -32 7 -21 5 -22 -41 -17 -38 5
-60 1 -108 -20 l-60 -26 45 37 c25 21 63 54 85 75 41 37 55 40 55 9z m-4540
-21 c-6 -11 -13 -20 -16 -20 -2 0 0 9 6 20 6 11 13 20 16 20 2 0 0 -9 -6 -20z
m2181 -37 c37 -16 76 -45 115 -86 l59 -61 -56 51 c-67 61 -132 96 -162 88 -18
-5 -19 -4 -7 5 11 9 2 10 -40 6 -39 -3 -46 -3 -25 3 22 6 4 9 -65 10 -69 1
-122 -6 -195 -23 -55 -14 -102 -23 -104 -20 -10 10 73 34 150 43 187 24 247
21 330 -16z m1725 20 c3 -10 10 -27 15 -38 23 -53 98 -239 96 -241 -48 -36
-217 -133 -327 -188 -131 -65 -372 -156 -414 -156 -13 0 -15 8 -10 43 3 23 11
89 17 146 l12 104 85 29 c164 55 520 243 520 274 0 12 -4 12 -20 4 -11 -6 -17
-16 -14 -22 4 -6 3 -8 -4 -5 -5 4 -45 -13 -87 -38 -142 -84 -366 -186 -444
-201 -44 -9 -39 12 7 27 147 47 430 188 527 263 26 20 34 20 41 -1z m-3936
-33 c-6 -11 -13 -20 -16 -20 -2 0 0 9 6 20 6 11 13 20 16 20 2 0 0 -9 -6 -20z
m-30 -50 c-6 -11 -13 -20 -16 -20 -2 0 0 9 6 20 6 11 13 20 16 20 2 0 0 -9 -6
-20z m1110 -66 c0 -3 -4 -3 -9 0 -9 6 -99 -92 -193 -209 -75 -94 -228 -313
-228 -326 0 -5 -4 -7 -10 -4 -5 3 -10 13 -10 22 0 14 81 133 165 243 19 25 52
67 72 95 21 27 69 85 106 127 59 67 71 76 88 68 10 -6 19 -13 19 -16z m3235
-10 c-31 -45 -31 -73 -3 -109 26 -33 75 -55 124 -55 33 0 35 -2 23 -17 -27
-33 -224 -173 -237 -168 -7 3 -11 1 -8 -4 3 -5 -1 -14 -9 -21 -10 -9 -15 -9
-15 -1 0 6 4 11 9 11 8 0 -24 102 -53 170 -4 9 2 20 16 29 54 32 118 86 118
99 0 13 -72 -30 -118 -71 -18 -17 -25 -18 -35 -8 -9 10 -8 14 5 22 10 5 59 43
110 84 51 41 94 74 95 75 1 0 -9 -16 -22 -36z m-3133 -5 c29 -5 70 -12 91 -15
20 -4 37 -9 37 -13 -1 -3 -26 -26 -56 -51 -124 -100 -307 -309 -465 -530 -39
-56 -75 -98 -79 -93 -4 4 -20 40 -35 80 l-28 72 54 78 c29 43 74 107 100 143
26 35 45 68 42 74 -3 5 -1 6 5 2 11 -7 38 32 34 47 -1 5 2 6 7 2 9 -5 37 33
33 45 -1 3 3 5 9 5 13 0 40 35 34 45 -3 4 5 16 18 26 l22 19 -20 -25 c-16 -21
-14 -20 13 5 18 16 30 35 28 41 -3 7 6 22 20 35 13 12 24 19 24 14 0 -5 5 -4
12 3 7 7 20 10 30 6 9 -3 41 -9 70 -15z m-4044 -16 c-16 -2 -40 -2 -55 0 -16
2 -3 4 27 4 30 0 43 -2 28 -4z m-91 -9 c-3 -3 -12 -4 -19 -1 -8 3 -5 6 6 6 11
1 17 -2 13 -5z m-58 -17 c-15 -12 -119 -66 -119 -62 0 6 103 65 114 65 5 0 7
-1 5 -3z m6571 -27 c-8 -5 -19 -10 -25 -10 -5 0 -3 5 5 10 8 5 20 10 25 10 6
0 3 -5 -5 -10z m-3700 -30 c-6 -11 -13 -20 -16 -20 -2 0 0 9 6 20 6 11 13 20
16 20 2 0 0 -9 -6 -20z m3630 0 c-8 -5 -19 -10 -25 -10 -5 0 -3 5 5 10 8 5 20
10 25 10 6 0 3 -5 -5 -10z m-180 -30 c0 -6 -10 -15 -22 -20 -14 -5 -17 -9 -8
-10 13 0 13 -1 0 -10 -13 -8 -12 -10 4 -10 15 0 17 -6 13 -32 -3 -18 -11 -83
-18 -145 -10 -95 -14 -112 -30 -116 -24 -6 -24 3 -3 193 9 80 22 148 28 152
16 11 36 10 36 -2z m-3480 -20 c-6 -11 -13 -20 -16 -20 -2 0 0 9 6 20 6 11 13
20 16 20 2 0 0 -9 -6 -20z m4710 -63 c-101 -93 -299 -236 -276 -198 4 6 79 70
168 141 165 134 224 165 108 57z m-4740 13 c-6 -11 -13 -20 -16 -20 -2 0 0 9
6 20 6 11 13 20 16 20 2 0 0 -9 -6 -20z m3343 3 c-7 -2 -21 -2 -30 0 -10 3 -4
5 12 5 17 0 24 -2 18 -5z m-533 -23 c6 -11 8 -20 6 -20 -3 0 -10 9 -16 20 -6
11 -8 20 -6 20 3 0 10 -9 16 -20z m423 13 c-23 -2 -64 -2 -90 0 -26 2 -7 3 42
3 50 0 71 -1 48 -3z m-3263 -43 c-6 -11 -13 -20 -16 -20 -2 0 0 9 6 20 6 11
13 20 16 20 2 0 0 -9 -6 -20z m-2455 -46 c83 -34 186 -171 244 -323 l20 -52
-50 46 c-48 45 -102 75 -134 75 -9 0 -29 15 -45 34 -17 18 -45 39 -62 47 -18
7 -47 24 -65 37 -60 44 -170 66 -226 43 -44 -17 -22 4 38 39 117 67 208 85
280 54z m2425 -4 c-6 -11 -13 -20 -16 -20 -2 0 0 9 6 20 6 11 13 20 16 20 2 0
0 -9 -6 -20z m2955 -45 c57 -74 58 -75 52 -75 -6 0 -88 104 -102 130 -11 21 4
5 50 -55z m-2985 -5 c-6 -11 -13 -20 -16 -20 -2 0 0 9 6 20 6 11 13 20 16 20
2 0 0 -9 -6 -20z m709 -25 c5 -5 27 -58 50 -116 l42 -106 -123 -201 c-68 -111
-125 -202 -128 -202 -6 0 -85 201 -85 217 0 7 -6 18 -12 24 -16 16 14 69 40
69 33 0 125 50 156 86 41 46 49 80 27 117 -16 28 -15 31 5 63 11 19 19 40 17
46 -3 7 -16 -6 -29 -30 -23 -40 -39 -53 -39 -32 0 5 15 33 32 62 26 42 34 49
36 33 2 -11 7 -24 11 -30z m119 -40 c28 -68 31 -83 22 -105 -12 -24 -12 -24
-36 33 -13 31 -33 80 -44 108 l-20 50 22 -3 c17 -2 30 -20 56 -83z m104 17
c-19 -29 -36 -51 -38 -50 -1 2 -11 26 -22 54 l-20 51 57 -1 58 -1 -35 -53z
m3088 -17 c-36 -19 -69 -34 -75 -34 -5 0 19 15 55 34 36 19 70 34 75 34 6 0
-19 -15 -55 -34z m-4070 -15 c-6 -11 -13 -20 -16 -20 -2 0 0 9 6 20 6 11 13
20 16 20 2 0 0 -9 -6 -20z m3970 -30 c-8 -5 -19 -10 -25 -10 -5 0 -3 5 5 10 8
5 20 10 25 10 6 0 3 -5 -5 -10z m-6794 -52 c-23 -33 -19 -101 13 -215 l28
-103 -130 -132 c-174 -178 -413 -451 -757 -868 -157 -189 -300 -360 -317 -380
l-32 -35 -1 42 c0 66 -19 139 -46 179 -14 20 -23 42 -21 48 8 18 565 683 751
896 93 107 240 265 325 350 85 85 156 164 158 174 3 19 3 19 -16 2 -11 -10
-19 -21 -18 -25 1 -3 -1 -6 -5 -6 -15 0 -247 -239 -241 -248 3 -6 2 -7 -4 -4
-11 7 -100 -92 -95 -105 1 -5 -2 -7 -7 -6 -14 4 -312 -343 -304 -355 3 -5 1
-7 -5 -3 -13 8 -55 -48 -44 -59 4 -5 2 -5 -5 -1 -14 7 -56 -47 -45 -59 4 -5 2
-5 -5 -1 -13 7 -56 -47 -45 -58 4 -4 2 -6 -5 -4 -9 2 -264 -295 -394 -460 -10
-13 -23 -22 -29 -20 -20 6 731 898 999 1187 93 99 295 291 308 291 2 0 -3 -10
-11 -22z m2774 2 c-6 -11 -13 -20 -16 -20 -2 0 0 9 6 20 6 11 13 20 16 20 2 0
0 -9 -6 -20z m3920 10 c-8 -5 -22 -9 -30 -9 -10 0 -8 3 5 9 27 12 43 12 25 0z
m-60 -20 c-8 -5 -22 -9 -30 -9 -10 0 -8 3 5 9 27 12 43 12 25 0z m640 -5 c-7
-9 -47 -38 -89 -67 -42 -28 -75 -54 -74 -59 2 -5 -5 -5 -14 -2 -12 5 -14 3 -8
-7 5 -8 4 -11 -2 -7 -6 4 -67 -20 -136 -53 -138 -66 -298 -122 -404 -142 -55
-10 -62 -14 -39 -18 16 -3 -38 -6 -119 -7 -82 -2 -158 -5 -170 -9 -16 -4 -17
-3 -5 6 12 9 9 11 -17 8 -18 -3 -30 -1 -28 3 3 4 -7 10 -23 14 -34 8 -113 58
-138 87 -22 25 -9 18 51 -25 66 -48 104 -59 212 -64 251 -13 576 93 918 301
102 62 102 61 85 41z m-855 -25 c-3 -5 -13 -10 -21 -10 -8 0 -14 5 -14 10 0 6
9 10 21 10 11 0 17 -4 14 -10z m132 4 c-3 -3 -12 -4 -19 -1 -8 3 -5 6 6 6 11
1 17 -2 13 -5z m-2791 -46 c-4 -29 -3 -38 3 -28 13 19 14 17 51 -74 28 -71 29
-81 16 -94 -14 -14 -16 -13 -25 9 -80 206 -78 198 -59 217 19 19 21 15 14 -30z
m2747 35 c-7 -2 -19 -2 -25 0 -7 3 -2 5 12 5 14 0 19 -2 13 -5z m-6583 -46 c0
-1 -53 -54 -117 -117 l-118 -115 115 118 c107 109 120 122 120 114z m756 -48
c26 -19 54 -45 62 -59 14 -22 12 -22 -19 6 -61 55 -78 63 -133 59 -47 -2 -48
-2 -11 5 l40 7 -37 1 c-21 1 -38 7 -38 13 0 24 88 3 136 -32z m3013 -47 c-93
-157 -231 -378 -239 -380 -26 -9 -2 42 98 205 146 240 135 224 147 212 7 -7 5
-19 -6 -37z m-446 -4 c10 -25 11 -39 3 -57 -10 -23 -11 -22 -33 25 -27 61 -27
64 -3 64 13 0 25 -11 33 -32z m3827 27 c0 -6 -157 -85 -167 -84 -6 0 154 86
165 88 1 1 2 -1 2 -4z m-6970 -31 c15 -39 12 -68 -9 -81 -17 -11 -20 -7 -34
48 l-15 59 24 0 c17 0 27 -8 34 -26z m3646 -82 l31 -77 -50 -80 c-28 -44 -84
-135 -125 -203 -41 -68 -75 -122 -77 -120 -1 2 -17 37 -34 80 l-32 76 102 169
c56 92 112 185 123 205 11 20 23 34 26 32 2 -3 18 -40 36 -82z m-3486 14 c0
-3 -15 -14 -32 -26 l-33 -22 30 26 c31 27 35 29 35 22z m6600 -6 c-8 -5 -19
-10 -25 -10 -5 0 -3 5 5 10 8 5 20 10 25 10 6 0 3 -5 -5 -10z m-3575 -50 c-5
-23 -3 -29 7 -25 9 3 26 -28 56 -101 38 -95 41 -108 28 -126 -17 -23 -16 -25
-70 122 -16 41 -33 85 -38 96 -11 24 -2 64 13 64 7 0 8 -12 4 -30z m-3145 -9
c0 -5 -7 -14 -15 -21 -17 -14 -20 -40 -5 -40 6 0 10 8 10 17 0 40 20 -10 52
-129 l35 -127 -22 -21 -23 -21 -21 81 c-12 45 -28 110 -36 145 -7 35 -16 69
-20 75 -4 6 1 20 11 31 18 20 34 25 34 10z m3725 -21 c-5 -23 -3 -29 7 -25 9
3 26 -30 56 -107 36 -94 40 -114 29 -125 -11 -12 -20 4 -56 99 -24 62 -48 123
-54 135 -7 16 -7 26 3 38 18 22 22 19 15 -15z m2770 0 c-11 -5 -29 -8 -40 -8
-16 0 -15 2 5 8 34 11 60 11 35 0z m-68 -16 c-3 -3 -12 -4 -19 -1 -8 3 -5 6 6
6 11 1 17 -2 13 -5z m-6927 -17 c0 -2 -12 -14 -27 -28 l-28 -24 24 28 c23 25
31 32 31 24z m6808 -4 c-10 -2 -26 -2 -35 0 -10 3 -2 5 17 5 19 0 27 -2 18 -5z
m-6388 -17 c0 -8 -16 -27 -35 -41 -92 -71 -660 -715 -641 -727 6 -5 3 -8 -9
-8 -12 0 -26 -5 -33 -12 -6 -6 -14 -9 -17 -6 -6 5 258 317 404 478 131 144
313 330 322 330 5 0 9 -7 9 -14z m3170 4 c0 -21 -257 -427 -347 -546 -29 -40
-53 -78 -53 -85 0 -9 -3 -10 -10 -3 -7 7 35 79 132 225 79 118 170 261 203
317 55 93 75 118 75 92z m3103 3 c-13 -2 -33 -2 -45 0 -13 2 -3 4 22 4 25 0
35 -2 23 -4z m-3751 -166 c21 -48 38 -90 38 -92 0 -9 -160 -203 -197 -237
l-39 -38 -37 45 c-21 25 -55 54 -76 64 l-38 20 64 68 c131 139 246 293 220
293 -8 0 -72 -96 -69 -103 1 -5 -2 -6 -7 -2 -10 6 -37 -34 -33 -48 1 -5 -2 -6
-7 -2 -10 6 -37 -34 -33 -48 1 -5 -1 -6 -6 -3 -12 7 -54 -38 -45 -48 5 -4 3
-6 -2 -4 -6 2 -33 -18 -60 -44 -78 -75 -63 -49 25 43 44 46 115 128 158 181
l77 98 14 -28 c8 -15 32 -67 53 -115z m1228 129 c0 -8 13 -44 30 -80 l29 -66
-92 -63 c-103 -70 -137 -90 -137 -82 0 3 -11 -7 -24 -22 -52 -61 -29 -10 72
155 101 163 122 191 122 158z m-3706 -136 l34 -125 -157 -160 c-86 -88 -210
-222 -275 -298 -109 -125 -121 -136 -136 -122 -9 8 -20 15 -24 15 -4 0 -24 18
-45 40 -28 30 -46 40 -69 40 -24 0 -30 4 -29 19 0 11 4 18 8 15 8 -4 45 43 49
61 1 6 6 9 10 8 11 -3 52 52 44 59 -2 3 4 11 13 19 17 13 17 12 4 -6 -7 -11 1
-5 18 14 17 19 28 37 26 39 -7 8 16 32 25 27 5 -3 18 8 30 25 12 16 18 30 14
30 -3 0 -1 7 6 15 7 8 16 13 20 10 10 -6 31 19 34 39 3 20 47 67 57 61 9 -6
50 45 44 54 -2 4 18 30 45 56 28 27 50 45 50 40 0 -5 22 13 50 40 27 26 46 53
43 58 -3 6 -2 7 4 4 5 -4 23 8 39 26 l29 32 -30 -25 -30 -25 24 28 c14 15 28
24 33 19 4 -4 23 -64 42 -132z m3185 24 l43 -101 -97 -159 c-93 -151 -304
-474 -310 -474 -1 0 -24 50 -50 110 -44 101 -46 112 -32 128 26 29 237 352
317 485 41 69 78 122 81 119 3 -4 25 -53 48 -108z m-3739 63 c0 -2 -10 -12
-22 -23 l-23 -19 19 23 c18 21 26 27 26 19z m1231 -34 c13 -16 12 -17 -3 -4
-17 13 -22 21 -14 21 2 0 10 -8 17 -17z m-143 0 c-10 -2 -26 -2 -35 0 -10 3
-2 5 17 5 19 0 27 -2 18 -5z m-108 -28 c-14 -8 -29 -14 -35 -14 -5 0 1 6 15
14 14 8 30 14 35 14 6 0 -1 -6 -15 -14z m324 -57 c22 -39 11 -29 -29 27 -17
23 -21 33 -9 23 10 -9 28 -32 38 -50z m-1374 39 c0 -2 -10 -12 -22 -23 l-23
-19 19 23 c18 21 26 27 26 19z m960 -27 c-14 -11 -29 -20 -35 -20 -5 0 4 9 20
20 38 25 48 25 15 0z m2974 -51 c-4 -13 -7 -27 -6 -31 4 -15 -8 -8 -18 12 -8
14 -7 25 2 40 16 25 33 10 22 -21z m-3010 -26 c11 -15 34 -51 53 -81 l33 -55
-48 -31 c-26 -18 -62 -42 -79 -56 -18 -13 -34 -22 -36 -19 -5 5 -47 175 -47
187 0 5 18 22 40 37 21 15 39 30 38 34 -3 28 19 21 46 -16z m-1454 23 c0 -2
-8 -10 -17 -17 -16 -13 -17 -12 -4 4 13 16 21 21 21 13z m460 0 c0 -2 -8 -10
-17 -17 -16 -13 -17 -12 -4 4 13 16 21 21 21 13z m925 -16 c-3 -5 -16 -15 -28
-21 -19 -9 -19 -8 3 10 28 23 34 26 25 11z m2025 7 c0 -2 -10 -12 -22 -23
l-23 -19 19 23 c18 21 26 27 26 19z m1109 -85 c25 -61 29 -76 18 -93 -6 -10
-15 -19 -18 -19 -3 0 -19 34 -36 77 -24 62 -28 80 -19 99 14 29 17 25 55 -64z
m-3229 34 c0 -7 -7 -19 -15 -26 -8 -7 -13 -16 -10 -20 3 -5 1 -11 -4 -14 -19
-12 -23 35 -5 55 20 22 34 25 34 5z m-1340 0 c0 -2 -8 -10 -17 -17 -16 -13
-17 -12 -4 4 13 16 21 21 21 13z m4499 -108 l41 -96 -118 -194 c-122 -199
-269 -425 -282 -433 -7 -4 -52 94 -80 175 -11 35 -10 37 77 170 86 130 266
419 292 469 7 13 16 19 20 15 5 -5 27 -52 50 -106z m-680 -70 c22 -53 41 -102
41 -107 0 -29 -199 -255 -340 -384 -82 -76 -257 -205 -264 -195 -2 3 -71 209
-82 246 -2 7 1 10 6 7 5 -3 22 1 37 9 49 26 156 120 159 139 2 15 -1 15 -27
-3 -16 -12 -28 -24 -26 -28 1 -4 -2 -9 -8 -10 -29 -11 -45 -24 -39 -34 4 -7 3
-8 -4 -4 -7 4 -32 -7 -58 -24 -25 -18 -48 -30 -51 -27 -3 3 13 17 34 30 21 14
73 52 115 86 42 33 80 61 84 61 4 0 3 -5 -4 -12 -8 -8 -8 -17 -1 -30 7 -12 8
-45 4 -81 -8 -77 3 -64 46 55 38 105 54 124 63 73 12 -64 37 -41 42 38 3 54
-3 45 144 227 33 41 60 81 60 90 -1 10 -9 5 -25 -14 -13 -17 -21 -34 -18 -39
3 -6 2 -7 -4 -4 -11 7 -99 -101 -95 -117 2 -6 0 -8 -4 -3 -4 4 -26 -10 -48
-30 -37 -35 -38 -36 -16 -6 14 17 65 81 114 141 l90 109 17 -31 c9 -18 35 -75
58 -128z m-2444 34 l23 -87 -20 -22 c-12 -13 -23 -21 -26 -19 -2 2 -14 46 -27
97 -22 86 -23 95 -8 111 9 10 13 18 9 18 -4 0 -4 5 0 11 10 17 23 -10 49 -109z
m-1415 95 c0 -2 -10 -12 -22 -23 l-23 -19 19 23 c18 21 26 27 26 19z m1303
-39 c3 -18 17 -73 31 -123 l25 -90 -152 -155 c-188 -193 -408 -446 -805 -927
-169 -205 -309 -372 -312 -372 -3 -1 -15 14 -27 32 -12 17 -33 48 -48 68 l-26
36 299 359 c164 198 321 378 349 401 62 52 116 142 115 194 -1 33 12 51 121
175 127 146 405 434 417 434 5 0 10 -15 13 -32z m1821 -13 l59 -22 -57 -42
c-32 -24 -59 -41 -60 -39 -2 1 -11 28 -21 58 -10 30 -20 61 -23 69 -6 15 4 13
102 -24z m-1179 -14 c22 -10 58 -38 80 -62 l40 -43 -42 36 c-55 48 -79 60
-106 53 -17 -5 -19 -4 -7 4 12 9 9 11 -15 12 -16 1 -45 0 -62 -1 -18 -1 -33 3
-33 9 0 18 101 12 145 -8z m-1995 6 c0 -2 -12 -14 -27 -28 l-28 -24 24 28 c23
25 31 32 31 24z m3770 -41 c0 -2 -8 -10 -17 -17 -16 -13 -17 -12 -4 4 13 16
21 21 21 13z m-473 -24 c-10 -10 -14 -22 -10 -27 5 -4 2 -5 -6 0 -10 6 -12 4
-6 -5 5 -8 4 -11 -3 -6 -13 8 -112 -60 -112 -77 0 -7 -5 -6 -12 2 -11 11 -10
14 0 18 6 3 42 29 80 58 67 54 99 71 69 37z m-3347 5 c0 -2 -10 -12 -22 -23
l-23 -19 19 23 c18 21 26 27 26 19z m1759 -90 c1 -51 -31 -139 -76 -207 l-37
-55 -23 90 c-12 50 -23 100 -23 112 0 12 -5 23 -12 25 -15 5 21 39 97 90 l60
40 6 -29 c4 -15 7 -45 8 -66z m1694 24 c20 -22 43 -53 51 -70 l16 -29 -58 -49
c-59 -51 -182 -137 -186 -131 -7 9 -66 182 -66 192 1 6 25 28 56 49 31 22 52
43 48 49 -4 6 -3 8 3 5 5 -3 22 5 39 18 34 27 45 23 97 -34z m-3538 -36 c-26
-30 -50 -55 -53 -55 -5 0 8 16 67 83 45 50 33 28 -14 -28z m2399 -56 c106 -98
276 -131 491 -94 104 18 186 45 279 91 38 19 70 33 71 31 10 -16 38 -89 60
-156 31 -96 37 -85 -73 -131 -109 -46 -215 -70 -332 -77 -195 -10 -302 22
-402 123 -53 54 -157 219 -145 231 4 3 -3 17 -13 31 -11 13 -20 29 -20 35 0 5
10 -3 22 -18 12 -15 40 -45 62 -66z m-744 -34 c5 -11 19 -58 31 -103 l22 -84
-25 -25 -25 -25 -23 93 c-13 51 -24 102 -26 113 -1 12 -5 28 -9 37 -4 11 2 22
17 33 21 15 23 15 26 -1 2 -10 7 -27 12 -38z m-1756 -32 c-26 -32 -84 -101
-128 -153 -43 -52 -86 -102 -94 -110 -13 -13 -14 -13 -6 1 12 21 265 319 271
319 3 0 -16 -26 -43 -57z m4204 4 c-110 -155 -381 -430 -469 -478 -18 -9 -19
-13 -8 -21 11 -8 10 -9 -4 -4 -19 6 -97 -37 -97 -55 0 -5 -4 -7 -10 -4 -18 11
-11 32 16 43 98 45 360 287 496 459 45 56 85 100 90 97 5 -3 -2 -20 -14 -37z
m-2162 -14 c-8 -22 -23 -58 -35 -80 -21 -43 -116 -166 -131 -171 -5 -2 -13 12
-18 30 -8 32 -6 36 75 121 46 48 90 102 99 118 21 42 27 31 10 -18z m2239 -93
l48 -110 -29 -41 c-58 -85 -234 -287 -318 -366 -81 -77 -171 -149 -242 -194
l-31 -19 -42 118 c-22 66 -41 123 -41 129 0 5 12 15 26 22 36 16 94 61 91 71
-1 5 30 34 68 66 39 32 64 50 56 41 -7 -9 -9 -17 -4 -17 12 0 55 45 48 51 -2
3 19 27 48 55 l52 49 -45 -50 c-35 -40 -31 -37 18 12 35 34 61 66 58 71 -3 5
7 20 22 33 l27 24 -20 -26 c-11 -14 -3 -8 17 14 21 21 36 44 35 50 -1 7 3 11
10 10 11 -3 39 35 35 47 -1 3 2 5 7 5 16 0 53 54 45 66 -4 7 -3 9 3 6 6 -4 32
-56 58 -117z m-2655 47 c0 -1 -26 -27 -57 -57 l-58 -55 55 58 c50 53 60 62 60
54z m2070 -21 c0 -2 -8 -10 -17 -17 -16 -13 -17 -12 -4 4 13 16 21 21 21 13z
m-2825 -75 c3 -5 -11 -15 -32 -22 -72 -23 -173 -146 -173 -211 0 -10 -4 -18
-8 -18 -16 0 -32 49 -26 79 8 37 86 136 127 161 33 21 102 27 112 11z m1755
-91 c29 -34 74 -70 112 -91 63 -34 64 -34 188 -33 101 1 113 -1 60 -6 -53 -6
-47 -7 32 -4 118 5 213 24 315 64 86 34 135 59 115 60 -7 0 -11 4 -7 10 3 5
-24 -4 -59 -20 -77 -35 -225 -79 -270 -81 l-31 -1 30 -7 c16 -3 -39 -6 -122
-6 -83 0 -149 3 -147 6 2 4 -16 9 -40 12 -48 7 -109 37 -141 69 -14 15 -8 13
22 -7 150 -97 474 -80 705 36 68 34 68 34 68 11 0 -10 4 -22 9 -28 5 -5 23
-54 41 -109 18 -55 35 -106 38 -113 6 -17 -112 -69 -228 -99 -111 -29 -309
-36 -397 -14 -113 28 -221 126 -297 271 -43 81 -83 184 -61 155 8 -10 37 -45
65 -75z m-1749 -27 c-23 -45 -83 -104 -128 -127 -30 -15 -33 -15 -33 -1 0 52
80 153 143 180 41 17 46 2 18 -52z m92 43 c3 -8 -3 -22 -14 -32 -19 -17 -19
-16 -8 14 12 36 15 38 22 18z m467 -29 c0 -2 -19 -21 -42 -42 l-43 -40 40 43
c36 39 45 47 45 39z m1980 -12 c-14 -8 -29 -14 -35 -14 -5 0 1 6 15 14 14 8
30 14 35 14 6 0 -1 -6 -15 -14z m-96 -40 c-17 -8 -44 -16 -60 -20 -16 -3 -6 4
21 14 57 22 86 26 39 6z m-2748 -25 c-10 -50 35 -130 73 -130 15 -1 81 -54 81
-66 0 -8 -502 -614 -509 -614 -4 0 -36 39 -71 86 -60 81 -63 88 -49 109 8 13
115 143 237 289 123 146 222 271 220 277 -4 12 -308 -348 -319 -379 -6 -16 -7
-16 -14 0 -4 9 -3 23 2 31 10 18 347 426 352 426 2 1 1 -13 -3 -29z m373 -34
c-18 -25 -44 -53 -58 -63 -25 -16 -26 -16 -11 3 83 107 137 153 69 60z m2278
28 c-3 -3 -12 -4 -19 -1 -8 3 -5 6 6 6 11 1 17 -2 13 -5z m-40 -10 c-3 -3 -12
-4 -19 -1 -8 3 -5 6 6 6 11 1 17 -2 13 -5z m-3579 -24 c11 -18 10 -25 -7 -46
l-19 -24 -31 39 c-17 21 -31 42 -31 45 0 3 17 6 38 6 27 0 41 -6 50 -20z m512
-4 c0 -2 -8 -10 -17 -17 -16 -13 -17 -12 -4 4 13 16 21 21 21 13z m1210 1 c0
-2 -12 -14 -27 -28 l-28 -24 24 28 c23 25 31 32 31 24z m-1610 -23 c0 -3 -7
-12 -15 -21 -20 -19 -32 -9 -15 12 12 15 30 20 30 9z m189 -29 c22 -15 41 -32
41 -37 0 -14 -113 -147 -125 -147 -8 0 -111 134 -123 159 -1 3 10 18 25 34 24
27 30 28 83 23 39 -3 70 -13 99 -32z m-269 2 c0 -2 -10 -12 -22 -23 l-23 -19
19 23 c18 21 26 27 26 19z m1158 -27 c-8 -12 -23 -20 -38 -20 -23 1 -23 2 10
20 19 11 36 19 38 20 1 0 -3 -9 -10 -20z m-1128 3 c-1 -14 -40 -56 -47 -49 -4
3 4 17 17 31 25 26 30 30 30 18z m1580 -17 c0 -2 -8 -10 -17 -17 -16 -13 -17
-12 -4 4 13 16 21 21 21 13z m-1517 -78 c29 -40 56 -78 60 -85 8 -12 -12 -53
-25 -53 -4 0 -35 36 -68 80 -61 80 -61 80 -43 105 10 13 19 25 20 25 1 0 26
-33 56 -72z m-214 -20 c-213 -242 -613 -618 -635 -596 -3 3 35 36 83 74 95 74
428 397 533 518 36 41 69 75 74 75 4 1 -21 -32 -55 -71z m608 28 c32 -41 63
-113 63 -143 0 -13 -155 -203 -166 -203 -8 0 -134 174 -134 184 0 7 25 41 55
76 76 90 69 101 -10 15 -35 -38 -67 -67 -70 -63 -7 6 112 155 125 157 9 2 47
-93 61 -149 7 -30 16 -59 19 -63 10 -11 21 165 14 202 -9 42 5 38 43 -13z
m705 -2 c-18 -14 -30 -30 -26 -35 3 -5 1 -8 -4 -7 -6 2 -126 -136 -267 -307
-141 -170 -262 -310 -268 -310 -5 0 -12 5 -13 10 -2 6 119 156 269 335 219
262 278 326 302 331 17 4 32 7 35 8 3 0 -10 -11 -28 -25z m3378 22 c0 -2 -8
-10 -17 -17 -16 -13 -17 -12 -4 4 13 16 21 21 21 13z m-4593 -37 c14 -16 47
-60 74 -96 l48 -66 -31 -36 c-112 -130 -325 -355 -420 -443 -132 -122 -257
-228 -270 -228 -9 0 -98 179 -98 197 0 5 37 38 83 73 84 65 520 495 571 563
59 77 16 44 -76 -60 -120 -136 -408 -418 -511 -501 -62 -51 -78 -60 -83 -47
-4 10 1 22 16 32 121 85 450 395 595 562 39 44 71 80 73 81 2 0 15 -14 29 -31z
m1563 7 c0 -2 -8 -10 -17 -17 -16 -13 -17 -12 -4 4 13 16 21 21 21 13z m2970
-39 c0 -1 -46 -47 -102 -102 l-103 -100 100 103 c93 95 105 107 105 99z
m-3040 -41 c0 -2 -8 -10 -17 -17 -16 -13 -17 -12 -4 4 13 16 21 21 21 13z
m1594 -73 c9 -18 14 -33 12 -33 -6 0 -36 55 -36 66 0 11 5 3 24 -33z m-2854 0
c0 -3 -7 -15 -17 -25 -9 -10 -13 -21 -9 -26 4 -4 14 2 22 12 7 11 15 18 17 15
29 -35 137 -184 137 -189 0 -4 -8 -15 -19 -24 -18 -16 -22 -12 -101 94 -80
107 -82 111 -65 130 18 20 35 26 35 13z m363 -76 c-3 -7 -35 -46 -69 -88 -35
-42 -60 -79 -57 -83 4 -4 0 -4 -10 0 -9 3 -17 10 -17 16 0 16 142 178 152 172
4 -3 5 -11 1 -17z m-490 -74 c-128 -148 -307 -335 -410 -431 -115 -107 -252
-222 -265 -222 -27 0 5 38 95 111 130 107 344 315 505 493 69 76 128 133 130
127 2 -6 -22 -42 -55 -78z m4617 83 c0 -2 -8 -10 -17 -17 -16 -13 -17 -12 -4
4 13 16 21 21 21 13z m-405 -25 c-3 -5 -24 -24 -48 -41 l-42 -32 45 41 c46 41
56 48 45 32z m-4225 -4 c0 -2 -10 -12 -22 -23 l-23 -19 19 23 c18 21 26 27 26
19z m141 -72 c25 -33 55 -74 66 -91 l22 -30 -71 -80 c-191 -215 -363 -394
-477 -498 -121 -110 -220 -192 -224 -184 -36 68 -107 222 -107 231 0 6 17 24
38 38 120 85 369 324 562 538 74 82 138 146 141 143 3 -4 26 -34 50 -67z
m2974 -12 c31 -37 37 -47 16 -28 -31 28 -77 85 -69 85 2 0 26 -26 53 -57z
m-3225 -38 c-24 -25 -46 -45 -49 -45 -3 0 15 20 39 45 24 25 46 45 49 45 3 0
-15 -20 -39 -45z m4650 42 c0 -2 -17 -19 -37 -38 l-38 -34 34 38 c33 34 41 42
41 34z m-4217 -119 c-9 -10 -20 -18 -25 -18 -14 0 -9 22 9 42 12 14 18 15 24
6 5 -7 1 -20 -8 -30z m-643 -141 c-168 -167 -341 -317 -363 -317 -7 0 1 11 18
23 81 60 224 186 355 314 80 78 147 142 150 142 3 1 -69 -73 -160 -162z m734
61 c32 -45 61 -89 63 -98 4 -15 -23 -49 -31 -39 -1 2 -33 44 -69 92 -62 84
-65 89 -49 108 9 10 19 19 22 19 3 0 31 -37 64 -82z m3913 -12 c-63 -59 -157
-132 -157 -123 0 2 35 31 78 64 42 34 90 75 106 92 17 17 32 31 35 31 3 -1
-25 -30 -62 -64z m-4057 39 c0 -7 6 -18 13 -22 11 -7 108 -133 131 -171 9 -14
-28 -59 -265 -323 -204 -227 -519 -532 -533 -518 -3 2 -30 57 -60 123 l-56
118 28 22 c97 76 221 186 326 290 161 160 419 443 414 456 -1 5 -48 -41 -103
-102 -254 -286 -494 -524 -622 -618 -38 -28 -63 -32 -63 -11 0 5 44 44 98 88
141 116 345 316 522 512 84 94 157 171 162 171 4 0 8 -7 8 -15z m-1165 -165
c-3 -5 -11 -10 -16 -10 -6 0 -7 5 -4 10 3 6 11 10 16 10 6 0 7 -4 4 -10z m65
-6 c0 -8 -4 -12 -10 -9 -5 3 -10 10 -10 16 0 5 5 9 10 9 6 0 10 -7 10 -16z
m1350 -39 c-12 -23 -15 -24 -29 -11 -13 14 -13 18 4 36 12 14 22 17 29 10 6
-6 5 -18 -4 -35z m3625 29 c-24 -18 -83 -50 -73 -39 10 10 81 54 88 54 3 0 -4
-7 -15 -15z m-5017 -21 c-5 -25 -28 -28 -28 -4 0 12 6 21 16 21 9 0 14 -7 12
-17z m4097 -3 c10 -11 16 -20 13 -20 -3 0 -13 9 -23 20 -10 11 -16 20 -13 20
3 0 13 -9 23 -20z m-3995 -87 c56 -121 53 -113 42 -113 -8 0 -102 189 -102
205 0 3 3 5 8 5 4 0 28 -44 52 -97z m1365 19 c52 -73 52 -72 17 -72 -23 0 -37
9 -59 38 -43 54 -45 59 -32 81 17 26 27 19 74 -47z m-1515 48 c0 -5 -2 -10 -4
-10 -3 0 -8 5 -11 10 -3 6 -1 10 4 10 6 0 11 -4 11 -10z m110 -97 c38 -80 47
-109 38 -114 -18 -12 -120 191 -106 209 6 6 12 12 14 12 2 0 26 -48 54 -107z
m4870 92 c0 -6 -56 -35 -67 -35 -4 1 8 9 27 20 39 22 40 22 40 15z m-3595 -25
c9 -15 -11 -37 -40 -43 -31 -5 -31 0 -3 30 24 25 34 28 43 13z m-1325 -97 c52
-110 56 -121 45 -111 -13 13 -104 208 -97 208 4 0 28 -44 52 -97z m4805 67
c-22 -10 -53 -21 -70 -24 -16 -4 -3 4 30 18 71 28 97 32 40 6z m-142 -47 c-7
-2 -19 -2 -25 0 -7 3 -2 5 12 5 14 0 19 -2 13 -5z m-50 -10 c-7 -2 -21 -2 -30
0 -10 3 -4 5 12 5 17 0 24 -2 18 -5z m-110 -10 c-29 -2 -78 -2 -110 0 -32 2
-8 3 52 3 61 0 87 -1 58 -3z m-2973 -67 c0 -2 -8 -10 -17 -17 -16 -13 -17 -12
-4 4 13 16 21 21 21 13z m-1430 -46 c-8 -5 -17 -7 -19 -4 -3 3 1 9 9 14 8 5
17 7 19 4 3 -3 -1 -9 -9 -14z m70 9 c0 -6 29 -69 65 -140 35 -71 60 -131 55
-134 -6 -4 -14 4 -19 17 -5 13 -34 75 -65 138 -59 121 -62 130 -46 130 6 0 10
-5 10 -11z m-40 -33 c0 -16 -18 -31 -27 -22 -8 8 5 36 17 36 5 0 10 -6 10 -14z
m-50 -31 c0 -8 -2 -15 -4 -15 -2 0 -6 7 -10 15 -3 8 -1 15 4 15 6 0 10 -7 10
-15z m115 -107 c57 -118 63 -138 42 -138 -16 0 -121 225 -112 239 3 6 8 11 11
11 3 0 30 -51 59 -112z m767 -56 c-105 -114 -327 -331 -394 -385 -44 -36 -68
-41 -68 -14 0 7 21 29 48 50 83 68 294 271 397 384 87 96 100 107 103 86 3
-18 -17 -46 -86 -121z m-812 18 c32 -66 56 -120 51 -120 -7 0 -31 44 -87 168
-54 116 -29 83 36 -48z m1270 116 c0 -2 -8 -10 -17 -17 -16 -13 -17 -12 -4 4
13 16 21 21 21 13z m-244 -104 c30 -2 54 -7 54 -11 0 -27 -593 -641 -618 -641
-9 0 -98 178 -91 183 89 63 529 495 529 518 0 6 16 -2 36 -17 25 -20 51 -29
90 -32z m-793 -254 c37 -78 66 -146 63 -152 -3 -9 -146 275 -146 290 0 2 3 4
8 4 4 0 38 -64 75 -142z m-99 96 c7 -17 0 -34 -14 -34 -11 0 -21 30 -14 41 8
14 21 11 28 -7z m-50 -30 c10 -25 -1 -29 -14 -5 -6 12 -7 21 -1 21 5 0 12 -7
15 -16z m121 -121 c50 -106 60 -144 38 -143 -10 1 -122 243 -116 253 11 19 27
-2 78 -110z m-42 -45 c31 -65 52 -118 48 -118 -5 0 -32 51 -61 113 -61 131
-67 146 -53 132 6 -5 36 -63 66 -127z m216 -203 c30 -63 51 -118 48 -122 -6
-5 -117 212 -117 230 0 26 22 -8 69 -108z m-85 44 c-8 -14 -21 -10 -28 7 -10
25 5 40 20 19 7 -10 11 -22 8 -26z m376 18 c0 -1 -26 -27 -57 -57 l-58 -55 55
58 c50 53 60 62 60 54z m-375 -135 c60 -123 59 -122 46 -122 -5 0 -13 10 -17
23 -4 12 -29 66 -55 120 -27 54 -44 97 -39 95 5 -2 34 -54 65 -116z m55 17
c30 -64 40 -93 32 -101 -7 -7 -24 16 -57 81 -41 83 -48 111 -26 111 4 0 27
-41 51 -91z m165 -29 c-21 -22 -40 -38 -43 -36 -4 4 69 75 78 76 2 0 -13 -18
-35 -40z"/>
<path d="M10819 5794 c-228 -230 -637 -573 -767 -643 -12 -7 -20 -17 -16 -23
4 -7 3 -8 -4 -4 -7 4 -31 -6 -54 -22 -76 -51 -241 -140 -338 -183 -234 -101
-424 -144 -612 -137 -100 3 -119 7 -167 32 -30 15 -79 51 -110 80 l-55 51 32
-42 c40 -51 111 -105 172 -130 56 -22 258 -25 365 -4 327 63 732 283 1125 611
178 148 550 503 539 514 -3 3 -52 -42 -110 -100z m-1179 -894 c-8 -5 -19 -10
-25 -10 -5 0 -3 5 5 10 8 5 20 10 25 10 6 0 3 -5 -5 -10z m-50 -20 c-8 -5 -19
-10 -25 -10 -5 0 -3 5 5 10 8 5 20 10 25 10 6 0 3 -5 -5 -10z m-183 -66 c-3
-3 -12 -4 -19 -1 -8 3 -5 6 6 6 11 1 17 -2 13 -5z m-74 -21 c-7 -2 -19 -2 -25
0 -7 3 -2 5 12 5 14 0 19 -2 13 -5z m-50 -10 c-7 -2 -19 -2 -25 0 -7 3 -2 5
12 5 14 0 19 -2 13 -5z m-55 -10 c-10 -2 -26 -2 -35 0 -10 3 -2 5 17 5 19 0
27 -2 18 -5z m-110 -10 c-26 -2 -71 -2 -100 0 -29 2 -8 3 47 3 55 0 79 -1 53
-3z"/>
<path d="M7339 5628 c-7 -23 -5 -38 3 -36 14 5 20 38 7 38 -5 0 -9 -1 -10 -2z"/>
<path d="M7586 5392 c-52 -28 -90 -55 -92 -65 -3 -19 7 -22 23 -6 6 6 48 30
94 54 46 25 78 45 71 45 -7 0 -10 5 -7 10 9 14 8 14 -89 -38z m83 25 c-15 -12
-162 -86 -153 -78 13 14 136 80 148 81 5 0 7 -1 5 -3z"/>
<path d="M7390 5261 c-104 -84 -300 -281 -280 -281 8 0 65 49 127 109 61 60
142 132 179 160 58 44 89 82 66 81 -4 0 -45 -31 -92 -69z m80 45 c0 -2 -17
-16 -37 -31 l-38 -26 35 30 c34 31 40 35 40 27z m-80 -59 c0 -2 -15 -16 -32
-33 l-33 -29 29 33 c28 30 36 37 36 29z m-70 -60 c0 -1 -44 -45 -97 -97 l-98
-95 95 98 c88 90 100 102 100 94z"/>
<path d="M9225 3790 c3 -4 29 -17 58 -26 64 -22 238 -27 244 -6 4 9 -24 12
-116 12 -84 0 -132 5 -157 15 -19 8 -32 10 -29 5z m263 -37 c-21 -2 -57 -2
-80 0 -24 2 -7 4 37 4 44 0 63 -2 43 -4z"/>
<path d="M7790 4660 c-36 -21 -65 -43 -65 -48 0 -6 -4 -14 -9 -19 -5 -5 -6 -3
-2 5 12 20 -4 14 -48 -20 -94 -74 -134 -112 -129 -125 4 -9 21 1 56 32 56 51
206 154 255 176 30 13 37 29 16 35 -5 2 -38 -14 -74 -36z m80 26 c0 -2 -7 -7
-16 -10 -8 -3 -12 -2 -9 4 6 10 25 14 25 6z m-45 -24 c-18 -15 -85 -54 -85
-48 0 3 19 16 43 30 43 26 59 33 42 18z m-116 -75 c-2 -2 -22 -15 -44 -31
l-40 -27 35 30 c19 17 39 31 44 31 5 0 7 -1 5 -3z m-89 -60 c0 -2 -15 -16 -32
-33 l-33 -29 29 33 c28 30 36 37 36 29z"/>
<path d="M10895 4500 c-10 -11 -14 -20 -8 -20 5 0 18 9 28 20 10 11 14 20 8
20 -5 0 -18 -9 -28 -20z"/>
<path d="M7404 4318 l-19 -23 23 19 c12 11 22 21 22 23 0 8 -8 2 -26 -19z"/>
<path d="M3550 4036 c-30 -7 -77 -24 -105 -38 -50 -27 -50 -27 -15 -23 19 2
60 13 90 24 69 26 133 26 188 1 53 -24 45 -7 -9 21 -29 14 -50 18 -71 14 -21
-5 -28 -4 -24 4 4 6 6 11 4 10 -2 0 -28 -6 -58 -13z m17 -12 c-3 -3 -12 -4
-19 -1 -8 3 -5 6 6 6 11 1 17 -2 13 -5z m-76 -24 c-24 -11 -46 -20 -50 -20
-12 1 64 39 79 39 8 0 -5 -8 -29 -19z"/>
<path d="M6545 3610 c-9 -16 -11 -30 -6 -30 6 0 17 14 26 30 9 17 11 30 6 30
-6 0 -17 -13 -26 -30z"/>
<path d="M6915 3245 c-43 -69 -75 -128 -72 -131 6 -6 26 21 106 149 65 104 66
107 52 107 -5 0 -44 -56 -86 -125z"/>
<path d="M3050 3185 c-24 -25 -42 -45 -39 -45 3 0 25 20 49 45 24 25 42 45 39
45 -3 0 -25 -20 -49 -45z"/>
<path d="M2929 3053 l-24 -28 28 24 c25 23 32 31 24 31 -2 0 -14 -12 -28 -27z"/>
<path d="M6481 2967 c-94 -155 -256 -403 -287 -440 -26 -31 -36 -84 -10 -57
45 49 380 593 375 609 -2 6 -37 -45 -78 -112z"/>
<path d="M3204 2888 c-217 -223 -408 -448 -379 -448 1 0 67 73 146 162 79 90
198 218 264 286 67 67 118 127 115 133 -4 5 -69 -55 -146 -133z m136 119 c0
-1 -42 -43 -92 -92 l-93 -90 90 93 c83 85 95 97 95 89z m-240 -250 c0 -2 -15
-16 -32 -33 l-33 -29 29 33 c28 30 36 37 36 29z m-100 -110 c0 -2 -10 -12 -22
-23 l-23 -19 19 23 c18 21 26 27 26 19z m-70 -81 c0 -2 -8 -10 -17 -17 -16
-13 -17 -12 -4 4 13 16 21 21 21 13z"/>
<path d="M3623 2883 c-36 -27 -59 -51 -56 -59 6 -15 126 69 129 92 3 21 -6 17
-73 -33z m66 24 c-2 -2 -20 -14 -39 -26 l-35 -23 30 26 c17 14 34 26 39 26 5
0 7 -1 5 -3z m-79 -51 c0 -2 -8 -10 -17 -17 -16 -13 -17 -12 -4 4 13 16 21 21
21 13z"/>
<path d="M4230 2812 c0 -26 109 -110 181 -139 36 -15 73 -18 209 -18 141 0
177 4 244 23 82 24 256 100 256 112 0 19 -18 15 -93 -20 -166 -78 -353 -110
-518 -90 -108 13 -178 43 -238 103 -23 22 -41 35 -41 29z m880 -17 c0 -13
-214 -105 -243 -105 -6 1 26 15 73 33 47 18 103 43 125 55 45 24 45 24 45 17z
m-263 -111 c-3 -3 -12 -4 -19 -1 -8 3 -5 6 6 6 11 1 17 -2 13 -5z m-44 -11
c-7 -2 -21 -2 -30 0 -10 3 -4 5 12 5 17 0 24 -2 18 -5z m-275 -10 c-10 -2 -26
-2 -35 0 -10 3 -2 5 17 5 19 0 27 -2 18 -5z m200 0 c-10 -2 -28 -2 -40 0 -13
2 -5 4 17 4 22 1 32 -1 23 -4z"/>
<path d="M3494 2777 c-8 -21 2 -35 16 -21 5 5 6 15 0 24 -8 12 -10 12 -16 -3z"/>
<path d="M5575 2289 c-62 -50 -60 -49 -49 -49 9 0 113 89 104 89 -3 0 -27 -18
-55 -40z"/>
<path d="M942 1178 c-17 -17 -15 -53 6 -70 9 -8 33 -14 52 -14 30 1 35 5 38
27 2 16 -4 31 -15 39 -15 12 -16 12 -5 0 17 -20 15 -60 -3 -60 -11 0 -14 7 -9
24 4 17 -1 31 -15 45 -24 24 -32 26 -49 9z"/>
<path d="M1036 914 c-21 -20 -20 -37 3 -65 16 -20 23 -22 38 -13 10 6 19 23
21 38 3 22 8 27 23 23 11 -3 16 -1 13 4 -3 6 -13 9 -22 7 -10 -1 -27 3 -39 10
-18 10 -24 9 -37 -4z"/>
<path d="M1141 863 c-1 -12 -9 -24 -18 -26 -17 -4 -17 -5 0 -6 19 -1 32 21 24
41 -3 7 -6 3 -6 -9z"/>
<path d="M11829 7033 c-13 -16 -12 -17 4 -4 9 7 17 15 17 17 0 8 -8 3 -21 -13z"/>
<path d="M11799 6993 c-13 -16 -12 -17 4 -4 16 13 21 21 13 21 -2 0 -10 -8
-17 -17z"/>
<path d="M11969 6793 c-13 -16 -12 -17 4 -4 9 7 17 15 17 17 0 8 -8 3 -21 -13z"/>
<path d="M11939 6753 c-13 -16 -12 -17 4 -4 9 7 17 15 17 17 0 8 -8 3 -21 -13z"/>
<path d="M11519 6573 c-13 -16 -12 -17 4 -4 9 7 17 15 17 17 0 8 -8 3 -21 -13z"/>
<path d="M11474 6518 l-19 -23 23 19 c21 18 27 26 19 26 -2 0 -12 -10 -23 -22z"/>
<path d="M11429 6463 l-24 -28 28 24 c25 23 32 31 24 31 -2 0 -14 -12 -28 -27z"/>
<path d="M11379 6403 l-24 -28 28 24 c15 14 27 26 27 28 0 8 -8 1 -31 -24z"/>
<path d="M12005 6319 c-47 -61 -84 -113 -81 -116 2 -3 30 30 62 74 32 43 71
95 87 116 16 20 26 37 24 37 -3 0 -44 -50 -92 -111z"/>
<path d="M11329 6343 l-24 -28 28 24 c15 14 27 26 27 28 0 8 -8 1 -31 -24z"/>
<path d="M11783 6235 c-46 -57 -83 -109 -83 -114 0 -5 17 -23 38 -39 30 -24
40 -28 48 -18 5 8 45 57 88 111 l80 97 -40 34 c-21 18 -41 33 -44 33 -3 0 -42
-47 -87 -104z"/>
<path d="M11639 6253 c-13 -16 -12 -17 4 -4 9 7 17 15 17 17 0 8 -8 3 -21 -13z"/>
<path d="M11594 6198 l-19 -23 23 19 c21 18 27 26 19 26 -2 0 -12 -10 -23 -22z"/>
<path d="M11544 6138 l-19 -23 23 19 c21 18 27 26 19 26 -2 0 -12 -10 -23 -22z"/>
<path d="M11499 6083 l-24 -28 28 24 c15 14 27 26 27 28 0 8 -8 1 -31 -24z"/>
<path d="M12179 6043 c-12 -16 -12 -17 2 -6 9 7 20 9 24 5 5 -4 5 -1 1 6 -9
16 -11 15 -27 -5z"/>
<path d="M12149 6004 c-7 -9 -6 -12 6 -10 22 3 40 23 20 23 -8 0 -20 -6 -26
-13z"/>
<path d="M12119 5964 c-7 -9 -6 -12 6 -10 22 3 40 23 20 23 -8 0 -20 -6 -26
-13z"/>
<path d="M12018 5831 c-45 -58 -124 -157 -175 -219 -51 -62 -93 -114 -93 -115
0 -2 7 -4 16 -4 26 0 304 353 296 377 -3 8 -1 12 3 8 13 -12 35 12 28 29 -4
10 -2 14 4 10 6 -4 16 -1 22 6 8 10 7 14 -4 14 -7 0 -51 -48 -97 -106z m12
-11 c-17 -22 -34 -40 -37 -40 -2 0 10 18 27 40 17 22 34 40 37 40 2 0 -10 -18
-27 -40z m-40 -53 c0 -2 -10 -12 -22 -23 l-23 -19 19 23 c18 21 26 27 26 19z
m-40 -51 c0 -2 -8 -10 -17 -17 -16 -13 -17 -12 -4 4 13 16 21 21 21 13z m-40
-50 c0 -2 -8 -10 -17 -17 -16 -13 -17 -12 -4 4 13 16 21 21 21 13z m-30 -39
c0 -2 -10 -12 -22 -23 l-23 -19 19 23 c18 21 26 27 26 19z m-50 -60 c0 -2 -10
-12 -22 -23 l-23 -19 19 23 c18 21 26 27 26 19z"/>
<path d="M11769 5903 c-13 -16 -12 -17 4 -4 9 7 17 15 17 17 0 8 -8 3 -21 -13z"/>
<path d="M11724 5848 l-19 -23 23 19 c21 18 27 26 19 26 -2 0 -12 -10 -23 -22z"/>
<path d="M11674 5788 l-19 -23 23 19 c21 18 27 26 19 26 -2 0 -12 -10 -23 -22z"/>
<path d="M11629 5733 l-24 -28 28 24 c15 14 27 26 27 28 0 8 -8 1 -31 -24z"/>
<path d="M12269 5743 c-13 -16 -12 -17 4 -4 9 7 17 15 17 17 0 8 -8 3 -21 -13z"/>
<path d="M12269 5703 c-13 -16 -12 -17 4 -4 9 7 17 15 17 17 0 8 -8 3 -21 -13z"/>
<path d="M11889 5553 c-13 -16 -12 -17 4 -4 9 7 17 15 17 17 0 8 -8 3 -21 -13z"/>
<path d="M11839 5493 c-13 -16 -12 -17 4 -4 9 7 17 15 17 17 0 8 -8 3 -21 -13z"/>
<path d="M11794 5438 l-19 -23 23 19 c21 18 27 26 19 26 -2 0 -12 -10 -23 -22z"/>
<path d="M11744 5378 l-19 -23 23 19 c21 18 27 26 19 26 -2 0 -12 -10 -23 -22z"/>
<path d="M11969 5243 c-13 -16 -12 -17 4 -4 9 7 17 15 17 17 0 8 -8 3 -21 -13z"/>
<path d="M11929 5193 c-13 -16 -12 -17 4 -4 16 13 21 21 13 21 -2 0 -10 -8
-17 -17z"/>
<path d="M11874 5128 l-19 -23 23 19 c21 18 27 26 19 26 -2 0 -12 -10 -23 -22z"/>
<path d="M11829 5073 l-24 -28 28 24 c15 14 27 26 27 28 0 8 -8 1 -31 -24z"/>
<path d="M11779 5013 l-24 -28 28 24 c15 14 27 26 27 28 0 8 -8 1 -31 -24z"/>
<path d="M7875 4348 c-233 -138 -473 -381 -699 -706 -32 -45 -56 -87 -54 -94
3 -7 19 10 38 38 137 201 353 450 500 575 47 40 85 76 85 80 0 4 4 11 9 16 5
5 6 3 2 -4 -11 -20 -2 -16 55 23 30 20 76 47 102 61 27 13 46 27 43 30 -3 3
-17 -2 -30 -11 -14 -9 -29 -16 -33 -16 -4 0 10 12 32 25 22 14 36 25 30 25 -5
0 -41 -19 -80 -42z m-44 -48 c-34 -22 -65 -40 -69 -40 -4 0 20 18 53 40 33 22
64 40 69 40 5 0 -19 -18 -53 -40z m-101 -63 c0 -2 -10 -12 -22 -23 l-23 -19
19 23 c18 21 26 27 26 19z m-50 -40 c0 -2 -17 -19 -37 -38 l-38 -34 34 38 c33
34 41 42 41 34z m-80 -70 c0 -1 -28 -29 -62 -62 l-63 -60 60 63 c55 58 65 67
65 59z m-150 -160 c0 -2 -10 -12 -22 -23 l-23 -19 19 23 c18 21 26 27 26 19z
m-70 -81 c0 -2 -8 -10 -17 -17 -16 -13 -17 -12 -4 4 13 16 21 21 21 13z"/>
<path d="M3124 4172 c-242 -195 -481 -454 -1036 -1124 -128 -155 -288 -347
-354 -427 -67 -80 -118 -148 -112 -150 5 -1 10 -1 12 0 43 56 802 961 900
1074 170 196 506 533 600 604 39 28 71 58 72 66 3 23 -6 18 -82 -43z m66 34
c0 -2 -17 -16 -37 -31 l-38 -26 35 30 c34 31 40 35 40 27z m-80 -59 c0 -2 -12
-14 -27 -28 l-28 -24 24 28 c23 25 31 32 31 24z m-100 -92 c-24 -25 -46 -45
-49 -45 -3 0 15 20 39 45 24 25 46 45 49 45 3 0 -15 -20 -39 -45z m-240 -238
c0 -2 -19 -21 -42 -42 l-43 -40 40 43 c36 39 45 47 45 39z m-110 -120 c0 -2
-12 -14 -27 -28 l-28 -24 24 28 c23 25 31 32 31 24z m-90 -101 c0 -2 -8 -10
-17 -17 -16 -13 -17 -12 -4 4 13 16 21 21 21 13z m-60 -70 c0 -2 -8 -10 -17
-17 -16 -13 -17 -12 -4 4 13 16 21 21 21 13z m-70 -80 c0 -2 -8 -10 -17 -17
-16 -13 -17 -12 -4 4 13 16 21 21 21 13z"/>
<path d="M4101 3280 c0 -8 4 -22 9 -30 12 -18 12 -2 0 25 -6 13 -9 15 -9 5z"/>
<path d="M4150 3025 c0 -5 5 -17 10 -25 5 -8 10 -10 10 -5 0 6 -5 17 -10 25
-5 8 -10 11 -10 5z"/>
<path d="M4516 2177 c40 -52 94 -93 162 -125 54 -26 64 -27 217 -27 136 0 173
3 245 23 110 30 206 72 188 83 -10 7 -10 9 1 9 8 0 12 2 9 5 -3 3 -31 -6 -62
-20 -143 -63 -344 -94 -485 -75 -108 15 -177 46 -248 112 -48 45 -52 47 -27
15z m784 -62 c-14 -8 -29 -14 -35 -14 -5 0 1 6 15 14 14 8 30 14 35 14 6 0 -1
-6 -15 -14z m-75 -30 c-16 -8 -37 -14 -45 -14 -8 0 1 7 20 14 46 18 64 17 25
0z m-102 -32 c-7 -2 -19 -2 -25 0 -7 3 -2 5 12 5 14 0 19 -2 13 -5z m-50 -10
c-7 -2 -19 -2 -25 0 -7 3 -2 5 12 5 14 0 19 -2 13 -5z m-255 -10 c-10 -2 -26
-2 -35 0 -10 3 -2 5 17 5 19 0 27 -2 18 -5z m185 0 c-13 -2 -33 -2 -45 0 -13
2 -3 4 22 4 25 0 35 -2 23 -4z"/>
<path d="M4410 2185 c0 -5 5 -17 10 -25 5 -8 10 -10 10 -5 0 6 -5 17 -10 25
-5 8 -10 11 -10 5z"/>
<path d="M4400 2155 c0 -5 5 -17 10 -25 5 -8 10 -10 10 -5 0 6 -5 17 -10 25
-5 8 -10 11 -10 5z"/>
<path d="M440 1380 c-8 -5 -10 -10 -5 -10 6 0 17 5 25 10 8 5 11 10 5 10 -5 0
-17 -5 -25 -10z"/>
<path d="M590 1090 c-8 -5 -10 -10 -5 -10 6 0 17 5 25 10 8 5 11 10 5 10 -5 0
-17 -5 -25 -10z"/>
<path d="M540 1070 c-8 -5 -10 -10 -5 -10 6 0 17 5 25 10 8 5 11 10 5 10 -5 0
-17 -5 -25 -10z"/>
<path d="M770 770 c-9 -6 -10 -10 -3 -10 6 0 15 5 18 10 8 12 4 12 -15 0z"/>
<path d="M720 750 c-8 -5 -10 -10 -5 -10 6 0 17 5 25 10 8 5 11 10 5 10 -5 0
-17 -5 -25 -10z"/>
<path d="M548 403 c7 -3 16 -2 19 1 4 3 -2 6 -13 5 -11 0 -14 -3 -6 -6z"/>
<path d="M860 40 c-8 -5 -10 -10 -5 -10 6 0 17 5 25 10 8 5 11 10 5 10 -5 0
-17 -5 -25 -10z"/>
</g>
</svg>
