<?xml version="1.0" encoding="UTF-8"?>
<svg id="Layer_1" data-name="Layer 1" xmlns="http://www.w3.org/2000/svg" viewBox="0 0 54.58 25.48">
  <defs>
    <style>
      .cls-1 {
        fill: #ebf7f8;
        stroke-width: 0px;
      }
    </style>
  </defs>
  <path class="cls-1" d="M46.63,15.29c1.05-3.03-1.1-6.55-4.16-7.61s-6.58,0-9.03,2.1c2.33-2.7,1.44-7.45-1.72-9.14s-7.68.15-8.7,3.56c-1.44-3.02-6.12-3.27-8.71-1.11-2.58,2.16-3.4,5.76-3.42,9.1-3.73-2.27-9.36-.23-10.73,3.88-.75,2.24,1.23,4.71,3.55,5.29,2.32.57,4.94-.29,6.45-2.12,1.75,3.32,5.21,5.69,8.97,6.16,3.76.47,7.7-.99,10.23-3.77,3.69,3.55,10.49,3.1,13.67-.9,2.62.93,5.49,1.87,8.14,1.02,2.65-.85,4.5-4.38,2.67-6.46-1.79-2.03-4.88-1.39-7.21.02"/>
</svg>