<?xml version="1.0" encoding="UTF-8"?>
<svg id="Layer_1" data-name="Layer 1" xmlns="http://www.w3.org/2000/svg" viewBox="0 0 79.03 36.88">
  <defs>
    <style>
      .cls-1 {
        fill: #fdf6e5;
        stroke-width: 0px;
      }
    </style>
  </defs>
  <path class="cls-1" d="M67.5,22.14c1.53-4.38-1.6-9.48-6.02-11.02-4.42-1.54-9.53,0-13.07,3.04,3.37-3.91,2.08-10.79-2.49-13.24-4.57-2.45-11.11.22-12.59,5.15-2.09-4.37-8.87-4.73-12.61-1.61s-4.93,8.34-4.95,13.17c-5.4-3.28-13.56-.33-15.54,5.62-1.08,3.25,1.79,6.83,5.15,7.65,3.36.83,7.15-.42,9.34-3.07,2.53,4.8,7.54,8.24,12.98,8.92s11.15-1.43,14.81-5.46c5.34,5.14,15.19,4.49,19.79-1.31,3.8,1.35,7.94,2.71,11.79,1.48,3.84-1.23,6.52-6.35,3.87-9.35-2.59-2.94-7.07-2.01-10.43.03"/>
</svg>