<?xml version="1.0" encoding="UTF-8"?>
<svg id="Layer_1" data-name="Layer 1" xmlns="http://www.w3.org/2000/svg" viewBox="0 0 127.67 59.59">
  <defs>
    <style>
      .cls-1 {
        fill: #fff7ea;
        stroke-width: 0px;
      }
    </style>
  </defs>
  <path class="cls-1" d="M109.09,35.77c2.47-7.08-2.58-15.32-9.73-17.8-7.15-2.48-15.39.01-21.12,4.91,5.45-6.32,3.36-17.43-4.03-21.39-7.39-3.96-17.96.36-20.35,8.32-3.38-7.07-14.33-7.65-20.37-2.6-6.04,5.04-7.96,13.47-8.01,21.28-8.73-5.3-21.91-.54-25.1,9.08-1.75,5.25,2.89,11.03,8.32,12.37s11.55-.68,15.09-4.96c4.09,7.76,12.19,13.31,20.97,14.41,8.78,1.09,18.02-2.31,23.93-8.82,8.63,8.3,24.54,7.25,31.97-2.12,6.14,2.18,12.84,4.37,19.04,2.39,6.21-1.99,10.54-10.26,6.25-15.11-4.19-4.75-11.42-3.25-16.86.04"/>
</svg>