<?xml version="1.0" encoding="UTF-8"?>
<svg id="Layer_1" data-name="Layer 1" xmlns="http://www.w3.org/2000/svg" xmlns:xlink="http://www.w3.org/1999/xlink" viewBox="0 0 1306.77 689.26">
  <defs>
    <style>
      .cls-1 {
        fill: #cd574b;
      }

      .cls-1, .cls-2, .cls-3, .cls-4, .cls-5, .cls-6, .cls-7, .cls-8, .cls-9, .cls-10, .cls-11, .cls-12, .cls-13, .cls-14, .cls-15, .cls-16, .cls-17, .cls-18, .cls-19, .cls-20, .cls-21, .cls-22, .cls-23, .cls-24, .cls-25, .cls-26, .cls-27, .cls-28, .cls-29, .cls-30, .cls-31 {
        stroke-width: 0px;
      }

      .cls-2 {
        fill: #88d0e2;
      }

      .cls-3 {
        fill: #e49a36;
      }

      .cls-4 {
        fill: #bf6652;
      }

      .cls-5 {
        fill: #f7f6f4;
      }

      .cls-6 {
        fill: #99693e;
      }

      .cls-7 {
        fill: #352e29;
      }

      .cls-8 {
        fill: #5f3131;
      }

      .cls-9 {
        fill: #95bbc2;
      }

      .cls-32 {
        clip-path: url(#clippath);
      }

      .cls-10 {
        fill: none;
      }

      .cls-11 {
        fill: #636466;
      }

      .cls-12 {
        fill: #e2edf2;
      }

      .cls-13 {
        fill: #61bd92;
      }

      .cls-14 {
        fill: #f6ba4b;
      }

      .cls-33 {
        clip-path: url(#clippath-1);
      }

      .cls-34 {
        clip-path: url(#clippath-4);
      }

      .cls-35 {
        clip-path: url(#clippath-3);
      }

      .cls-36 {
        clip-path: url(#clippath-2);
      }

      .cls-37 {
        clip-path: url(#clippath-5);
      }

      .cls-15 {
        fill: #eb9982;
      }

      .cls-16 {
        fill: #000;
      }

      .cls-17 {
        fill: #99c95e;
      }

      .cls-18 {
        fill: #4c9e78;
      }

      .cls-19 {
        fill: #451c1b;
      }

      .cls-20 {
        fill: #54b5c7;
      }

      .cls-21 {
        fill: #6e9ea6;
      }

      .cls-22 {
        fill: #b48554;
      }

      .cls-23 {
        fill: #a6703b;
      }

      .cls-24 {
        fill: #a6dde8;
      }

      .cls-25 {
        fill: #bbd4db;
      }

      .cls-26 {
        fill: #698d3c;
      }

      .cls-27 {
        fill: #33805c;
      }

      .cls-28 {
        fill: #ec7d6b;
      }

      .cls-29 {
        fill: #fff;
      }

      .cls-30 {
        fill: #82ae44;
      }

      .cls-31 {
        fill: #a0cd44;
      }
    </style>
    <clipPath id="clippath">
      <rect class="cls-10" width="1306.77" height="689.26"/>
    </clipPath>
    <clipPath id="clippath-1">
      <rect class="cls-10" width="1306.77" height="689.26"/>
    </clipPath>
    <clipPath id="clippath-2">
      <rect class="cls-10" width="1306.77" height="689.26"/>
    </clipPath>
    <clipPath id="clippath-3">
      <rect class="cls-10" width="1306.77" height="689.26"/>
    </clipPath>
    <clipPath id="clippath-4">
      <rect class="cls-10" width="1306.77" height="689.26"/>
    </clipPath>
    <clipPath id="clippath-5">
      <rect class="cls-10" width="1306.77" height="689.26"/>
    </clipPath>
  </defs>
  <g class="cls-32">
    <g>
      <path class="cls-9" d="M476.33,365.78l-10.98-71.84s-2.43,12.75-1.76,28.34c.9,21.02,8.44,37.32,11.67,43.39l1.08.11h0Z"/>
      <path class="cls-9" d="M476.41,365.9l58.67,15.77s-8.36-6.62-20.29-11.53c-16.09-6.62-31.76-5.81-37.8-5.14l-.58.9h0Z"/>
      <path class="cls-9" d="M474.35,367.1l-44.62,40.8s4.31-9.69,12.59-19.5c11.16-13.23,25.43-19.67,31.09-21.84l.94.53h0Z"/>
    </g>
  </g>
  <polygon class="cls-25" points="494.64 530.02 473.73 368.09 477.22 366.26 517.7 525.24 494.64 530.02"/>
  <g class="cls-33">
    <g>
      <path class="cls-9" d="M480.7,365.93c-.3,2.97-2.99,5.14-6,4.84-3.01-.3-5.2-2.95-4.9-5.92.3-2.97,2.99-5.14,6-4.84,3.01.3,5.2,2.95,4.9,5.92"/>
      <path class="cls-29" d="M478.79,365.74c-.2,1.93-1.94,3.34-3.9,3.15-1.96-.2-3.38-1.92-3.18-3.85s1.94-3.34,3.9-3.15c1.96.2,3.38,1.92,3.18,3.85"/>
      <path class="cls-30" d="M338.51,439.73c-3.66-2.74-6.98-6.61-11.82-6.83-5.65-.25-9.55,4.54-13.74,7.84-6.44,5.07-15.82,7.17-24.29,5.43,3.89,6.07.32,14.78-7.12,17.36-7.44,2.58-16.95-1.59-18.96-8.31-2.01-6.72,3.95-14.38,11.9-15.26-4.67-2.52-7.57-7.32-7.31-12.08.26-4.76,3.66-9.3,8.57-11.44,1.63-.71,3.43-1.18,4.87-2.16s2.45-2.69,1.75-4.16c-.42-.87-1.34-1.46-2.18-2.06-9-6.44-11.26-18.9-4.97-27.42,6.29-8.52,20.29-11.95,30.8-7.55,2.12-3.62,6.02-6.27,10.28-7.95,10.99-4.35,24.91-2.37,33.73,4.79s12.01,19.08,7.73,28.88c3.59-4.32,8.45-7.95,14.22-9.77,5.77-1.81,12.48-1.66,17.8,1,5.2,2.6,8.68,7.4,9.92,12.5,1.24,5.1.41,10.46-1.56,15.38-3.52,8.77-10.68,16.04-19.69,20.95-6.58,3.59-16.28,6.24-24,6.03-5.77-.15-11.53-1.87-15.93-5.16"/>
      <path class="cls-23" d="M364.66,429.08c-1.31.88-2.47,1.98-3.67,3-1.2,1.03-2.43,2.04-3.69,3.02-1.22.95-2.48,1.87-3.74,2.76-.57.4-1.14.78-1.71,1.16,1.6-2.66,3.05-5.4,4.34-8.24,1.07-2.37,2.19-4.82,2.84-7.34.15-.6-.71-.74-.98-.29-1.18,2.01-2.03,4.22-3,6.33-.97,2.12-1.97,4.23-3.08,6.28-2.15,3.97-4.88,7.55-7.34,11.33-.52.79-1.01,1.59-1.49,2.4.39-4.88,1.04-9.74,1.96-14.55,1.1-5.74,2.72-11.34,4.05-17.01.14-.58-.77-.83-1-.3-2.05,4.8-3.32,9.96-4.35,15.06-1.05,5.14-1.79,10.35-2.24,15.57-.9,10.45-.63,21,.86,31.38.42,2.95.92,5.92,1.56,8.86-1.21-2.57-2.39-5.15-3.53-7.75-5.59-12.76-10.21-25.91-13.05-39.54-.84-4.02-1.58-8.07-2.33-12.12-.37-2.01-.76-4.02-1.15-6.02-.4-2.06-.73-4.16-1.49-6.12-.21-.53-.93-.3-.93.22-.01,1.88.35,3.71.67,5.56.32,1.84.64,3.69.97,5.53.66,3.64,1.31,7.28,2.03,10.91,1.36,6.91,3.06,13.73,5.2,20.44,2.35,7.34,5.15,14.52,8.22,21.59-2.63-1.78-5.38-3.38-8.05-5.1-3.29-2.12-6.52-4.32-9.67-6.65-6.25-4.63-12.17-9.77-17.32-15.59-1.43-1.61-2.77-3.29-4.1-4.99-1.36-1.72-2.54-3.59-3.99-5.23-.35-.4-1.1-.07-.86.47.78,1.8,1.95,3.42,3.08,5,1.13,1.58,2.34,3.09,3.6,4.57,2.55,2.98,5.29,5.8,8.18,8.46,4.81,4.43,10.04,8.42,15.47,12.09-1.95-.18-3.93-.21-5.85-.34-3.01-.21-6.02-.46-9.01-.86-5.52-.75-10.95-1.99-16.12-4.07-1.41-.57-2.79-1.2-4.15-1.87-1.39-.68-2.72-1.47-4.13-2.11-.46-.21-.76.39-.43.7,1.94,1.89,4.54,3.2,6.99,4.32,2.53,1.14,5.18,2.02,7.86,2.75,2.11.57,4.25,1.02,6.4,1.39-.08.01-.15.03-.23.05-1.12.21-2.24.38-3.38.52-2.38.29-4.79.45-7.19.46-2.39,0-4.78-.15-7.14-.46-1.17-.15-2.34-.33-3.5-.55-1.2-.22-2.39-.52-3.6-.66-.49-.05-.74.63-.26.84,2.16.93,4.7,1.28,7.02,1.58,2.44.32,4.89.47,7.35.48,2.45,0,4.88-.16,7.3-.49,1.21-.17,2.42-.38,3.61-.62.93-.19,1.92-.38,2.82-.73,2.82.38,5.65.64,8.49.82,1.68.11,3.36.18,5.05.23,1.35.04,2.73.06,4.08-.05.46.3.91.62,1.37.91,3.54,2.27,7.15,4.62,11,6.36,2.29,5.19,4.72,10.32,7.23,15.4,1.74,3.51,3.52,7,5.32,10.48,1.81,3.5,3.52,7.07,5.91,10.22.31.41.93.05.78-.42-1.1-3.34-2.78-6.4-4.4-9.52-1.6-3.09-3.18-6.18-4.73-9.29-.84-1.69-1.68-3.38-2.51-5.07-.91-4.41-1.9-8.8-2.59-13.26-.79-5.11-1.29-10.26-1.51-15.42-.18-4.35-.14-8.72.11-13.07.34-.53.62-1.12.91-1.61.57-.96,1.14-1.91,1.75-2.85,1.24-1.88,2.55-3.71,3.83-5.57.4-.58.77-1.17,1.14-1.76.53-.2,1.04-.51,1.51-.81.69-.43,1.38-.87,2.06-1.32,1.36-.9,2.68-1.85,3.97-2.85,1.26-.97,2.49-1.98,3.68-3.03,1.21-1.08,2.46-2.21,3.39-3.54.23-.32-.14-.73-.49-.5"/>
      <path class="cls-26" d="M282.45,454.5c-1.06-.51-2.22-.84-3.39-.99-1.1-.14-2.45-.23-3.48.26-.26.12-.25.52.06.57,1.05.17,2.11.09,3.15.31,1.05.22,2.06.61,3.01,1.1,1.89.97,3.4,2.56,4.82,4.1.25.27.65.05.56-.3-.6-2.37-2.58-4.01-4.73-5.05"/>
      <path class="cls-26" d="M309.74,420.58c-.03-.31-.49-.32-.55-.02-.55,2.77-.91,5.71-2.58,8.1-1.41,2.01-3.74,3.58-6.29,3.48-.33-.01-.71.15-.74.52-.33,3.6-1.43,7.23-3.94,9.94-2.32,2.51-6.01,4.07-9.48,3.61-.39-.05-.46.48-.1.58,1.88.53,3.69.49,5.56-.12,1.8-.58,3.44-1.64,4.77-2.97,2.72-2.73,4.07-6.57,4.41-10.33,2.66-.13,5.1-1.7,6.64-3.81,1.86-2.55,2.61-5.88,2.3-8.98"/>
      <path class="cls-26" d="M332.99,415.08c-1.21.91-2.39,1.77-3.83,2.31-1.39.52-2.9.72-4.36.42-1.33-.27-2.54-.94-3.52-1.85-.49-.46-.92-.97-1.28-1.53-.29-.45-.48-.94-.71-1.42.64-.41,1.25-.86,1.81-1.37.77-.7,1.66-1.55,2.01-2.55.14-.4-.27-.72-.63-.5-.8.48-1.44,1.25-2.14,1.86-.72.62-1.49,1.21-2.31,1.7-1.65,1-3.58,1.6-5.52,1.63-3.66.07-7.35-2.21-8.08-5.92-.07-.33-.57-.3-.54.05.35,4.11,4.09,6.99,8.12,7.18,2.25.11,4.42-.46,6.38-1.54.16,1.27.99,2.55,1.82,3.41,1.14,1.18,2.62,2.02,4.23,2.38,3.33.75,7.54-.68,9.17-3.77.19-.37-.3-.73-.62-.49"/>
      <path class="cls-26" d="M371.24,431.91c-.46-.2-.94-.33-1.41-.51-.44-.17-.88-.34-1.31-.55-.85-.42-1.63-.97-2.31-1.62-.67-.64-1.26-1.39-1.69-2.21-.22-.42-.41-.85-.55-1.29-.04-.13-.08-.28-.12-.44h.08c.87-.05,1.75-.19,2.6-.4.81-.2,1.84-.38,2.48-.93.29-.25.19-.69-.19-.77-.67-.15-1.4.06-2.06.18-.72.12-1.45.23-2.18.31-1.35.14-2.74.13-4.05-.27-2.33-.72-4.2-2.82-3.8-5.35.06-.36-.47-.52-.62-.18-1.21,2.7.73,5.59,3.25,6.69,1.12.49,2.32.7,3.53.73.03.23.08.46.12.65.12.5.27.99.47,1.46.44,1,1.05,1.93,1.81,2.72.76.78,1.63,1.43,2.62,1.91.95.46,2.14.81,3.19.59.35-.07.5-.56.12-.72"/>
      <path class="cls-17" d="M0,645.9c176.8-65.24,377.69-113.72,589.22-142.09-1.34-6.41-18.03-10.48-28.78-7.03-1.59-5.63-17.38-6.6-27.81-4.48-10.42,2.13-20.84,5.92-31.78,4.6-6.6-.8-11.83-3.35-18.23-4.5-15.83-2.83-31.85,3.57-43.43,9.72-7.24-5.88-20.46-9.75-34.14-9.99-12.69-.22-25.42,2.68-33.61,7.58,8.16-6.09,1.88-15.47-10.27-19.94-12.97-4.76-29.91-5.48-45.9-6.02-14.85-.51-30.34-.96-44.04,1.98-17.6,3.78-28.93,12.38-39.22,20.53-6.41,5.08-12.94,10.31-15.31,16.21-2.37,5.9.31,12.72,9.66,16.45-8.07-3.53-20.78-4.03-29.82-1.16-1.07-9.52-23.62-16.64-40.99-12.94-9.48,2.02-18.17,6.62-28.16,5.39-9.13-1.13-15.12-6.93-24.47-6.45-9.15.47-16.11,6.98-24.52,5.09-6.07-1.36-5.68-5.65-6.82-8.95-4.88-14.1-41.5-14.17-60.38-8.25-3.95,1.24-7.72,2.59-11.22,4.07v140.16l.02.02Z"/>
      <path class="cls-30" d="M147.17,545.42c.53-5.25.75-10.51.62-15.78-.13-5.33-.51-10.65-.84-15.96-.18-2.97-.38-5.94-.58-8.91-.21-3.04-.38-6.12-.87-9.13-.07-.43-.81-.52-.83-.03-.1,2.63.06,5.27.16,7.9.11,2.68.27,5.35.42,8.02.29,5.28.67,10.57.88,15.85.41,10.58-.63,21.06-2.43,31.48-.51,2.94-1.05,5.87-1.61,8.8-.36,1.9-.74,3.79-1.06,5.7-1.47-5.43-3.04-10.83-4.59-16.24-1.79-6.24-3.51-12.49-5.18-18.76.33-2.82.27-5.72.33-8.53.07-3.25.12-6.49.17-9.74.1-6.4.19-12.81.22-19.21,0-1.79.02-3.58,0-5.37,0-1.86,0-3.76-.24-5.61-.05-.4-.66-.44-.73-.02-.48,3.15-.38,6.43-.44,9.6-.05,3.24-.08,6.49-.11,9.73-.06,6.4-.15,12.8-.14,19.2v6.55c-2.12-8.05-4.14-16.13-6.05-24.24-1.02-4.35-2.04-8.69-3.03-13.05-.5-2.22-1.02-4.44-1.53-6.66-.52-2.22-1.11-4.43-1.6-6.66-.11-.5-.91-.44-.81.08.74,3.96,1.36,7.95,2.18,11.89.83,3.95,1.66,7.9,2.56,11.84,1.78,7.78,3.66,15.55,5.65,23.28,1.99,7.74,4.08,15.45,6.27,23.14,2.16,7.59,4.39,15.16,6.4,22.79,1.12,4.26,2.16,8.54,3.08,12.84.47,2.19.91,4.38,1.36,6.58.22,1.06.43,2.12.63,3.18.22,1.15.53,2.27.74,3.42.1.52.88.46.84-.08-.09-.99-.09-1.99-.21-2.97s-.25-1.97-.39-2.95c-.29-1.97-.62-3.92-1.01-5.87-.79-3.89-1.69-7.75-2.67-11.6-.35-1.37-.71-2.74-1.07-4.1,1.36-4.83,2.31-9.8,3.21-14.73.95-5.2,1.76-10.43,2.29-15.68"/>
      <path class="cls-30" d="M273.37,591.27c-3.13-5.78-6.45-11.44-9.35-17.34s-5.57-11.91-7.95-18.04c-4.76-12.23-8.47-24.84-11.01-37.7-.71-3.6-1.31-7.21-1.86-10.83-.55-3.66-.93-7.36-1.61-11-.11-.58-.93-.5-.92.09.02,3.32.46,6.63.89,9.92s.99,6.57,1.6,9.83c1.21,6.44,2.71,12.83,4.48,19.14,2.41,8.55,5.33,16.96,8.76,25.17-1.67-1.78-3.36-3.54-5.01-5.35-2.05-2.26-4.02-4.61-5.91-7.01-3.73-4.76-7.06-9.79-10.05-15.03-.84-1.48-1.65-2.98-2.46-4.47-.83-1.52-1.57-3.1-2.51-4.56-.25-.38-.77-.02-.67.36.83,2.93,2.35,5.74,3.79,8.41,1.47,2.71,3.06,5.35,4.75,7.93,3.35,5.11,7.1,9.96,11.24,14.47,2.33,2.54,4.74,5.02,7.46,7.15.06.05.13.07.2.08,1.43,3.32,2.93,6.61,4.53,9.85,1.61,3.28,3.32,6.51,5.09,9.7,1.82,3.27,3.69,6.52,5.83,9.6.25.35.9.02.69-.37"/>
      <path class="cls-30" d="M313.96,517.52c-.93.94-1.67,2.19-2.4,3.29-.76,1.13-1.49,2.29-2.23,3.43-1.43,2.22-2.84,4.47-4.24,6.71-1.18,1.9-2.35,3.81-3.72,5.58-.68.89-1.4,1.75-2.19,2.55-.67.68-1.4,1.28-2.12,1.9,0-6.78.07-13.57.22-20.35.15-6.52.28-13.04.34-19.57,0-.38-.64-.4-.68-.02-1.07,11.56-1.4,23.15-1.51,34.75-.07,7.02-.02,14.05.11,21.07-.28-.94-.58-1.87-.87-2.81-.54-1.78-1.04-3.57-1.53-5.37-1.01-3.69-1.87-7.42-2.61-11.17-1.46-7.45-2.34-15.01-2.67-22.59-.09-2.1-.14-4.19-.17-6.29-.02-1.05-.03-2.1-.03-3.14,0-1.11,0-2.26-.08-3.37-.04-.43-.69-.45-.77-.02-.32,1.86-.36,3.81-.4,5.69-.05,1.94-.04,3.88.03,5.82.12,3.79.39,7.58.82,11.35.85,7.6,2.29,15.13,4.33,22.51.56,2.02,1.17,4.03,1.84,6.02.63,1.9,1.26,3.8,2.16,5.59.08,3.82.18,7.64.32,11.46.12,3.25.26,6.49.43,9.74.09,1.62.14,3.25.33,4.86.2,1.66.24,3.33.52,4.97.08.49.92.59.94.03.06-1.41-.02-2.82-.05-4.24-.03-1.46-.03-2.91-.1-4.37-.13-2.9-.24-5.81-.35-8.72-.22-5.81-.38-11.62-.48-17.44-.07-4.42-.1-8.85-.1-13.27h0c1.6-.68,2.92-1.95,4.09-3.2,1.2-1.29,2.22-2.75,3.2-4.21,2.26-3.42,4.4-6.92,6.54-10.41.64-1.05,1.29-2.11,1.92-3.17.61-1.03,1.32-2.13,1.72-3.26.13-.37-.31-.63-.58-.35"/>
      <path class="cls-30" d="M260.59,607.42c-5.85-8.08-11.61-16.22-16.92-24.64.33-1.78-.2-3.62-.58-5.36-.43-1.97-.9-3.92-1.41-5.87-1.01-3.87-2.08-7.85-3.89-11.44-.16-.32-.76-.26-.68.16.75,3.83,2.08,7.54,3.14,11.29.53,1.88,1.05,3.76,1.55,5.64.36,1.37.73,2.73.96,4.12-1.78-2.86-3.5-5.75-5.16-8.68-.97-1.73-1.94-3.46-2.88-5.2-.92-1.7-1.77-3.43-2.87-5.02-.26-.38-.83-.03-.69.38.54,1.67,1.34,3.23,2.13,4.8.79,1.55,1.6,3.09,2.44,4.61,1.66,3,3.39,5.97,5.19,8.9,2.51,4.09,5.14,8.1,7.87,12.05-.26-.08-.53-.14-.76-.21-.7-.2-1.41-.39-2.11-.57-1.51-.39-3-.82-4.49-1.3-1.43-.45-2.83-.97-4.25-1.46-1.4-.48-2.8-1.08-4.24-1.42-.35-.08-.57.42-.28.63,1.2.86,2.62,1.45,3.97,2.03,1.44.62,2.95,1.12,4.45,1.59,1.45.45,2.91.85,4.38,1.2.75.18,1.5.33,2.26.45.53.08,1.22.21,1.78.1,1.02,1.46,2.05,2.9,3.1,4.33,2.35,3.21,4.83,6.28,7.42,9.3.29.34.83-.04.56-.41"/>
      <path class="cls-30" d="M437.2,525.79c-4.1-9.01-6.63-18.59-9.37-28.06-2.87-9.95-5.75-19.91-8.64-29.86-1.63-5.62-3.15-11.3-5.3-16.75-.15-.38-.82-.26-.74.17.98,5.09,2.49,10.07,3.94,15.04,1.46,5.01,2.92,10.03,4.38,15.04,2.85,9.78,5.55,19.63,8.74,29.3.01.04.03.07.04.11-3.81-6.09-7.71-12.13-11.09-18.49-3.8-7.15-7.11-14.53-9.99-22.09-.81-2.14-1.57-4.29-2.33-6.45-.75-2.14-1.42-4.36-2.33-6.44-.18-.42-.9-.3-.83.19.31,1.99.91,3.98,1.51,5.89.6,1.93,1.25,3.84,1.94,5.74,1.38,3.84,2.92,7.62,4.58,11.35,1.86,4.2,3.9,8.31,6.08,12.36-4.81-3.54-9.51-7.15-13.76-11.35-4.53-4.47-8.57-9.44-12.05-14.76-.99-1.51-1.94-3.06-2.85-4.62s-1.76-3.14-2.77-4.63c-.24-.35-.76-.03-.64.34,1,3.06,2.76,5.94,4.48,8.66,1.71,2.71,3.57,5.33,5.58,7.83,4.04,5.05,8.62,9.71,13.68,13.77,2.88,2.31,5.85,4.45,9.11,6.2h.01c1.47,2.67,2.99,5.32,4.59,7.92,2.43,3.93,5.02,7.77,7.99,11.32,0,0,.01.01.02.02,1.49,4.27,3.14,8.47,5.14,12.54.25.51,1.09.21.85-.32"/>
      <path class="cls-30" d="M446.19,488.17c.3-2.9.56-5.8.75-8.71.38-5.71.6-11.44.58-17.16-.01-3.28-.02-6.6-.46-9.86-.06-.47-.86-.55-.89-.03-.17,2.87-.09,5.76-.09,8.63s-.03,5.83-.11,8.75c-.16,5.77-.52,11.53-1.05,17.28-.19,2.03-.43,4.06-.61,6.09-.18-1.31-.36-2.62-.55-3.93-1.09-7.75-2.29-15.49-3.63-23.2-.38-2.18-.76-4.36-1.19-6.53-.42-2.13-.84-4.27-1.47-6.35-.13-.42-.76-.24-.73.17.25,3.88,1.03,7.76,1.65,11.6.63,3.86,1.28,7.72,1.9,11.59.08.5.15,1,.23,1.49-1.07-1.46-2.13-2.93-3.19-4.4-1.42-1.97-2.76-4-3.96-6.1-1.16-2.03-2.14-4.16-2.92-6.37-.39-1.1-.72-2.21-1-3.35-.27-1.12-.39-2.3-.73-3.4-.09-.3-.58-.24-.62.06-.15,1.14.08,2.39.3,3.51.22,1.1.51,2.18.87,3.25.75,2.27,1.8,4.45,2.98,6.54,1.21,2.14,2.6,4.17,4.07,6.14,1.39,1.87,2.9,3.61,4.4,5.38,1.05,6.73,2.05,13.47,3.02,20.21.63,4.38,1.15,8.8,2.07,13.13.09.4.67.36.66-.06-.13-3.91-.67-7.8-1.15-11.68-.16-1.29-.33-2.57-.5-3.86.05-.05.09-.11.11-.19.67-2.83.95-5.77,1.25-8.65"/>
      <path class="cls-30" d="M482.01,474.62c-2.4,3.2-4.29,6.81-6.44,10.18-1.08,1.68-2.17,3.35-3.3,5-.53.78-1.06,1.56-1.59,2.33.66-4.05,1.45-8.08,2.35-12.09.62-2.74,1.38-5.47,1.83-8.25.08-.52-.7-.77-.9-.27-.95,2.3-1.57,4.77-2.15,7.18-.55,2.27-1.03,4.55-1.48,6.85-.02-.18-.04-.37-.05-.55-.1-1.15-.22-2.3-.35-3.45-.25-2.26-.56-4.52-1.07-6.74-.07-.3-.48-.27-.49.05-.03,2.27.16,4.54.4,6.8.12,1.11.24,2.21.39,3.32.14,1.09.23,2.22.54,3.28.02.07.07.1.12.14-.74,4.23-1.3,8.49-1.67,12.76-.25,2.85-.46,5.71-.35,8.57.01.38.61.39.66.02.71-4.96,1.08-9.96,1.81-14.92.02-.11.04-.22.05-.33.5-.49.92-1.12,1.31-1.65.61-.82,1.2-1.64,1.79-2.47,1.14-1.64,2.26-3.29,3.34-4.96,2.14-3.33,4.44-6.74,5.86-10.44.14-.35-.35-.69-.59-.36"/>
      <path class="cls-30" d="M521.17,471.99c-.61.8-1.13,1.67-1.68,2.51-.57.87-1.18,1.72-1.83,2.54-.63.8-1.29,1.57-1.98,2.31-.48.51-.98,1.01-1.47,1.52.01-.04.02-.09.04-.13.63-2.27,1.32-4.52,2.07-6.76.72-2.17,1.62-4.37,2.08-6.61.06-.3-.34-.37-.48-.14-1.22,1.99-1.97,4.34-2.71,6.53-.74,2.21-1.42,4.43-2.03,6.68-1.24,4.55-2.31,9.18-2.81,13.87-.05.44.6.55.69.11.9-4.11,1.76-8.23,2.83-12.29.04,0,.08-.02.12-.04.89-.52,1.65-1.25,2.38-1.97.76-.76,1.48-1.55,2.15-2.39,1.28-1.6,2.61-3.42,3.22-5.38.11-.34-.33-.69-.59-.35"/>
      <path class="cls-5" d="M1096.54,395.64c4.23-3.8,9.27-6.72,14.69-8.51,2.25-.74,4.6-1.3,6.66-2.47s3.85-3.1,4.11-5.43c.4-3.57-2.72-6.45-5.42-8.87-3.38-3.04-6.65-6.56-7.72-10.95-1.08-4.39.79-9.77,5.09-11.29,2.21-.78,5.26-.88,5.97-3.09.6-1.87-1.09-3.61-2.43-5.06-4.15-4.46-6.19-10.77-5.42-16.78s4.32-11.62,9.46-14.93c4.74-3.05,10.9-4.1,16.23-2.21s9.55,6.88,9.9,12.46c.28,4.28-1.59,8.43-4.02,11.99s-5.43,6.7-7.85,10.26c-2.48,3.63-4.34,8.38-2.37,12.3,2.63,5.22,10.77,6.38,12.44,11.97.85,2.84-.41,5.99-2.53,8.08s-4.96,3.3-7.81,4.23c-2.47.81-5.34,1.74-6.25,4.15-.92,2.43.69,5.18.08,7.71-.62,2.59-3.43,4.16-6.11,4.4-2.68.24-5.34-.53-7.99-1-2.65-.46-5.56-.58-7.86.8-1.96,1.18-8.58,1.98-10.86,2.24"/>
    </g>
  </g>
  <polygon class="cls-9" points="1121.05 510.35 1033.32 475.17 1089.59 392 1090.62 390.48 1094.61 384.57 1136.85 400.87 1135.73 408.56 1135.47 410.44 1121.05 510.35"/>
  <g class="cls-36">
    <g>
      <path class="cls-21" d="M1135.47,410.44c-7.24-2.92-14.49-5.83-21.74-8.74-8.04-3.22-16.09-6.45-24.13-9.7l1.03-1.51.36.14c14.93,5.94,29.85,11.94,44.76,17.93l-.27,1.88h-.01Z"/>
      <path class="cls-12" d="M1123.98,438.24c-4.32,10.52-16.46,15.58-27.1,11.31-10.65-4.27-15.77-16.26-11.45-26.77,4.32-10.52,16.46-15.58,27.11-11.31s15.77,16.26,11.45,26.77"/>
      <path class="cls-17" d="M1109.28,433.67c-1.38,1.61-3.22,2.52-5.21,2.72-.87.08-1.76.02-2.66-.18-1.23-.27-2.33-.76-3.38-1.41.9-.7,1.8-1.41,2.72-2.09,1.46-1.08,2.94-2.15,4.43-3.18.75-.51,1.5-1.02,2.25-1.53.64-.44,1.61-.94,1.99-1.63.18-.29-.01-.8-.42-.75-.82.08-1.6.69-2.28,1.13-.77.48-1.51.99-2.26,1.5-1.51,1.05-3.01,2.11-4.48,3.21-1.09.82-2.18,1.68-3.25,2.52-.65-2.62-.12-5.36,1.8-7.37,2.2-2.3,5.45-3.21,8.58-3.19,1.77.02,3.51.32,5.22.73.07.02.14.03.21.05-.44,3.32-1.03,6.84-3.26,9.46M1113.52,423.03c-.11-.03-.23-.06-.35-.09-3.6-.95-7.5-1.37-11.07-.12-3.22,1.12-6,3.52-6.79,6.91-.38,1.66-.29,3.44.61,4.9-.07.05-.15.11-.22.16-.71.57-1.41,1.15-2.09,1.73-.67.58-1.42,1.18-1.85,1.98-.14.27.08.69.43.57.81-.28,1.47-.83,2.14-1.36l2.13-1.7c.13-.1.27-.2.4-.31,1.79,1.3,4.01,2.08,6.24,2.13.74.02,1.48-.03,2.2-.18,3.6-.71,6.06-3.66,7.27-6.91.84-2.27,1.15-4.68,1.46-7.04.04-.29-.23-.6-.5-.67"/>
    </g>
  </g>
  <polygon class="cls-25" points="1172.6 536.06 1068.41 494.27 1145.6 380.19 1146.63 378.67 1151.82 370.99 1194.04 387.28 1192.64 397.04 1192.36 398.99 1172.6 536.06"/>
  <g class="cls-35">
    <g>
      <path class="cls-9" d="M1192.28,393.92c-11.21-4.5-22.42-8.98-33.62-13.49-4.38-1.77-8.77-3.53-13.14-5.3l1.03-1.52c11.7,4.67,23.39,9.35,35.07,14.03,3.64,1.46,7.29,2.9,10.94,4.34l-.28,1.94h0Z"/>
      <path class="cls-12" d="M1177.56,422.67c-4.32,10.52-16.46,15.58-27.1,11.31-10.65-4.27-15.77-16.26-11.45-26.77,4.32-10.52,16.46-15.58,27.11-11.31s15.77,16.26,11.45,26.77"/>
      <path class="cls-17" d="M1166.3,419.05c-2.3,2.7-5.74,3.74-9.2,2.98-1.45-.32-2.74-.91-3.97-1.66,1.06-.82,2.12-1.66,3.2-2.45,1.71-1.27,3.44-2.51,5.19-3.72.86-.61,1.75-1.19,2.63-1.8.75-.52,1.88-1.1,2.33-1.9.2-.34-.02-.94-.49-.88-.96.1-1.88.81-2.68,1.33-.9.57-1.77,1.16-2.64,1.77-1.77,1.21-3.53,2.47-5.25,3.76-1.28.96-2.54,1.96-3.81,2.96-.76-3.07-.16-6.27,2.11-8.63,2.59-2.69,6.39-3.78,10.05-3.75,2.16.02,4.27.4,6.36.93-.51,3.87-1.21,8-3.83,11.08M1171.26,406.58c-4.33-1.17-9.05-1.76-13.38-.25-3.77,1.31-7.04,4.12-7.94,8.08-.45,1.95-.35,4.03.71,5.75-.08.06-.18.13-.26.19-.82.67-1.64,1.34-2.44,2.03-.79.68-1.67,1.39-2.17,2.31-.17.32.1.81.5.67.95-.33,1.72-.98,2.5-1.6.83-.66,1.66-1.32,2.49-1.98.15-.12.31-.25.47-.37,2.78,2.03,6.51,2.96,9.89,2.29,4.2-.83,7.08-4.27,8.51-8.09.98-2.64,1.33-5.46,1.7-8.24.04-.34-.26-.7-.58-.79"/>
    </g>
  </g>
  <polygon class="cls-9" points="1237.61 564.04 1131.93 521.66 1195.67 427.45 1196.71 425.91 1201.6 418.69 1255.54 439.68 1254.2 448.97 1253.93 450.85 1237.61 564.04"/>
  <g class="cls-34">
    <g>
      <path class="cls-21" d="M1257.42,445.31c-13.4-5.35-26.77-10.76-40.15-16.13-6.04-2.42-12.07-4.84-18.11-7.27l1.04-1.54c15.91,6.36,31.81,12.76,47.71,19.13l9.78,3.93-.27,1.88Z"/>
      <path class="cls-12" d="M1236.7,468.29c-4.32,10.52-16.46,15.58-27.1,11.31-10.65-4.27-15.77-16.26-11.45-26.77,4.32-10.52,16.46-15.58,27.11-11.31s15.77,16.26,11.45,26.77"/>
      <path class="cls-17" d="M1223.26,464.79c-1.96,2.31-4.9,3.19-7.86,2.54-1.23-.28-2.35-.77-3.39-1.42.91-.7,1.81-1.41,2.73-2.09,1.46-1.08,2.94-2.14,4.43-3.17.75-.51,1.5-1.02,2.24-1.54.65-.44,1.62-.94,2-1.62.17-.3-.01-.8-.42-.76-.82.08-1.6.7-2.28,1.13-.77.48-1.51,1-2.26,1.51-1.51,1.04-3.01,2.11-4.48,3.21-1.1.82-2.18,1.67-3.25,2.52-.65-2.61-.12-5.35,1.8-7.37,2.2-2.3,5.45-3.22,8.58-3.19,1.84.01,3.66.33,5.43.78-.44,3.32-1.03,6.84-3.27,9.46M1227.5,454.14c-3.69-1-7.73-1.5-11.43-.22-3.22,1.12-6,3.52-6.79,6.91-.38,1.66-.29,3.44.61,4.9-.07.06-.15.11-.22.18-.71.57-1.41,1.14-2.1,1.73-.67.58-1.43,1.18-1.84,1.97-.15.27.08.69.43.58.8-.29,1.47-.84,2.14-1.37.71-.56,1.41-1.12,2.12-1.69.14-.1.28-.21.41-.31,2.38,1.73,5.56,2.52,8.44,1.95,3.6-.71,6.06-3.65,7.27-6.91.84-2.26,1.15-4.66,1.46-7.03.04-.3-.23-.61-.5-.68"/>
      <path class="cls-31" d="M976.9,461.82c5.7-4.28,13.18-6.17,20.27-5.13,3.65.54,8.38,1.34,10.13-1.87.72-1.31.6-2.89.57-4.38-.25-14.21,10.83-27.81,24.94-30.62,4.86-.97,10.12-.72,14.49,1.6s7.63,6.96,7.42,11.86c6.06-2.15,13.18,1.1,16.66,6.45s3.8,12.25,2.3,18.43c-1.5,6.19-4.65,11.84-7.77,17.41,7.47-8.57,21.18-10.09,31.53-5.26,10.36,4.83,17.5,14.86,21.11,25.6,3.6,10.74,4.07,22.23,4.1,33.55,0-.84-16.22-4.98-17.89-5.49-6.17-1.9-12.34-3.79-18.51-5.69-12.34-3.79-24.68-7.58-37.03-11.38-24.58-7.55-49.16-15.1-73.74-22.65-4.85-1.49-9.56-2.52-8.18-8.51,1.26-5.44,5.16-10.6,9.6-13.93"/>
      <path class="cls-26" d="M1046.26,438.41c-2.47,1.9-4.6,4.26-6.8,6.46-1.09,1.09-2.18,2.19-3.26,3.3-.45.46-.91.91-1.36,1.38.45-1.07.89-2.13,1.34-3.2,1.98-4.65,3.91-9.31,5.76-14.02.2-.5-.53-.76-.77-.3-4.24,7.92-7.8,16.16-11.19,24.46-2.94,7.22-5.74,14.5-8.38,21.83.17-1.69.28-3.39.49-5.06.35-2.82.82-5.63,1.37-8.42,1.11-5.59,2.68-11.08,4.63-16.44.53-1.46,1.08-2.93,1.65-4.38.59-1.5,1.33-2.93,1.68-4.5.11-.49-.6-.71-.88-.34-.89,1.17-1.42,2.53-2.01,3.87-.57,1.29-1.12,2.58-1.62,3.89-1.03,2.7-1.94,5.44-2.74,8.21-1.6,5.53-2.8,11.18-3.5,16.89-.39,3.17-.89,6.52-.51,9.7.01.11.06.19.12.26-.8,2.27-1.59,4.55-2.32,6.85-.76,2.37-1.64,4.82-2.04,7.27-.11.63.78.78,1.04.26.98-1.96,1.66-4.13,2.39-6.2.75-2.13,1.5-4.26,2.26-6.39,1.49-4.22,3.02-8.43,4.6-12.62,2.48-6.58,5.08-13.12,7.78-19.61,1.05-.8,1.99-1.78,2.94-2.69,1.14-1.1,2.28-2.2,3.41-3.32,2.19-2.15,4.53-4.24,6.42-6.65.25-.32-.19-.72-.51-.48"/>
      <path class="cls-26" d="M998.77,481.3c-1.66-4.2-3.38-8.39-4.8-12.67-.41-1.22-.8-2.45-1.19-3.67-.38-1.21-.71-2.46-1.22-3.63-.13-.31-.7-.27-.7.1-.03,2.19.56,4.42,1.17,6.51.63,2.18,1.39,4.33,2.2,6.45.46,1.2.93,2.39,1.41,3.58-.92-.68-1.92-1.27-2.87-1.88-1.34-.87-2.68-1.74-4-2.64-2.65-1.79-5.27-3.63-7.96-5.35-.3-.19-.74.19-.46.47,2.3,2.26,4.86,4.25,7.53,6.06,1.32.9,2.66,1.77,4.03,2.59,1.37.82,2.79,1.72,4.33,2.21,1.04,2.54,2.12,5.08,3.16,7.62.97,2.39,1.99,4.79,2.86,7.22.15.41.86.22.75-.21-1.09-4.38-2.59-8.58-4.25-12.77"/>
      <path class="cls-26" d="M1064.67,457.67c-1.41,1.04-2.66,2.32-3.94,3.51-1.29,1.21-2.56,2.43-3.85,3.64-1.79,1.68-3.6,3.34-5.39,5.01,1.74-3.7,3.6-7.35,5.59-10.92,2.34-4.21,4.95-8.29,7.13-12.57.22-.42-.42-.71-.7-.38-2.81,3.31-5.05,7.09-7.2,10.84-2.14,3.74-4.12,7.56-5.97,11.44-1.93,4.04-3.7,8.16-5.31,12.34v-.47c.03-1.09.06-2.19.1-3.28.09-2.19.22-4.38.42-6.56.4-4.37,1.09-8.7,1.99-13,.52-2.45,1.17-4.88,1.56-7.36.08-.52-.68-.68-.88-.22-.91,2.02-1.47,4.18-2,6.32-.54,2.17-.96,4.37-1.33,6.57-.72,4.4-1.18,8.87-1.27,13.33-.02,1.2-.03,2.4,0,3.6.04,1.16,0,2.52.45,3.61-1.13,3.06-2.2,6.15-3.15,9.27-.71,2.32-1.37,4.65-1.97,7-.59,2.33-1.26,4.73-1.44,7.13-.03.46.63.66.81.2.77-1.97,1.24-4.06,1.8-6.1.58-2.09,1.19-4.17,1.83-6.24,1.27-4.11,2.68-8.17,4.23-12.18,1.33-3.45,2.79-6.85,4.32-10.22,2.51-1.98,4.9-4.08,7.24-6.26,1.3-1.2,2.58-2.41,3.83-3.67,1.23-1.25,2.53-2.5,3.55-3.93.22-.31-.18-.68-.48-.45"/>
      <path class="cls-26" d="M1090.36,479.03c-1.94,1.2-3.76,2.56-5.67,3.8-1.94,1.26-3.92,2.47-5.96,3.57-2,1.08-4.04,2.08-6.13,2.98-.87.37-1.74.72-2.62,1.07,3.14-2.97,6.38-5.84,9.67-8.65,2.42-2.07,4.81-4.15,7.18-6.29.36-.33-.07-.83-.47-.58-4.79,3.05-9.14,6.65-13.35,10.44-4.18,3.77-8.22,7.73-12.03,11.87-2.18,2.36-4.24,4.79-6.15,7.37-.28.38.27.96.63.6,3.94-4.01,7.74-8.16,11.75-12.1.11-.1.22-.21.32-.31.82-.16,1.65-.53,2.38-.78,1.08-.38,2.13-.79,3.18-1.24,2.2-.93,4.36-1.95,6.45-3.1,2.05-1.12,4.06-2.33,5.97-3.66,1.92-1.33,3.81-2.75,5.41-4.46.33-.35-.22-.74-.56-.53"/>
      <path class="cls-17" d="M1304.21,567.62c-6.25.76-11.76,3.1-14.54,6.19-4.65-2.72-12.91-3-19.12-1.4s-10.61,4.72-13.73,8.01c-1.12,1.18-2.15,2.43-3.97,3.32s-4.72,1.32-6.79.59c-2.85-1.01-2.3-3.25-2.72-5.07-.84-3.67-7.72-6.62-14.59-6.26-2.88.15-6.08.75-8.45-.13-2.22-.82-2.45-2.48-3.4-3.83-2.09-2.97-8.26-4.64-14.18-4.83-5.92-.18-11.71.83-17.37,1.77-2.36.39-5.15.74-7.12-.06-3.3-1.34-.93-4.1-1.11-6.32-.2-2.4-3.98-4.42-8.29-5.12s-8.99-.29-13.26.46c-3.71.66-7.47,1.59-11.33,1.3-2.24-.17-4.3-.74-6.45-1.12-8.78-1.54-19.3.54-24.1,4.76-2.14,1.89-3.25,4.14-6.05,5.76-4.02,2.34-10.45,2.82-15.95,4.02s-10.95,4.2-8.83,7.17c-3.89,2.13-10.51,8.23-14.41,10.37,37.52,14.66,81.1,24.05,123.47,34.25,40.2,9.67,80.46,20.48,112.27,36.72v-90.56h.02Z"/>
      <path class="cls-30" d="M1157.47,484.87c-1.35,1.39-2.47,3.02-3.64,4.56-1.17,1.55-2.3,3.14-3.38,4.75-2.17,3.23-4.22,6.53-6.19,9.87-.35.59-.68,1.18-1.02,1.77.01-.19.03-.37.04-.55.11-1.07.25-2.14.41-3.2.31-2.13.76-4.25,1.27-6.35,1.05-4.25,2.49-8.38,3.98-12.5.43-1.18.83-2.37,1.27-3.55.41-1.11.88-2.29,1.08-3.45.06-.34-.44-.6-.65-.29-.59.89-1.01,1.93-1.43,2.9-.45,1.04-.88,2.09-1.3,3.13-.83,2.06-1.58,4.16-2.29,6.27-1.41,4.24-2.56,8.6-3.14,13.03-.16,1.23-.27,2.46-.32,3.7-.04.88-.1,1.82.01,2.72-3.16,5.59-6.09,11.3-8.75,17.14-.9,1.98-1.76,3.99-2.55,6.01-.8,2.02-1.6,4.06-2.11,6.17-.1.41.48.52.67.2,1.89-3.38,3.3-7.05,4.94-10.56,1.65-3.52,3.34-7.02,5.12-10.47,3.54-6.85,7.46-13.48,11.64-19.97,1.17-1.82,2.4-3.62,3.55-5.45,1.15-1.82,2.47-3.56,3.5-5.45.24-.45-.41-.76-.72-.44"/>
      <path class="cls-30" d="M1177.72,490.09c-.87.64-1.62,1.43-2.43,2.14-.8.71-1.56,1.48-2.31,2.23-1.55,1.54-3.06,3.1-4.55,4.69-2.98,3.16-5.86,6.43-8.67,9.75-1.99,2.35-3.94,4.74-5.86,7.16.24-.71.47-1.41.71-2.11.71-2.03,1.45-4.04,2.21-6.05,1.53-4.02,3.21-7.97,4.95-11.9.47-1.07.96-2.15,1.43-3.22.47-1.09,1.04-2.2,1.35-3.35.09-.32-.39-.5-.58-.26-.64.82-1.07,1.81-1.59,2.71-.52.91-.97,1.88-1.43,2.82-.95,1.97-1.84,3.97-2.69,5.99-1.67,3.96-3.21,7.97-4.59,12.04-.65,1.92-1.34,3.88-1.78,5.87-2.77,3.58-5.46,7.23-8.02,10.95-1.36,1.98-2.7,3.99-3.99,6.01-1.31,2.05-2.69,4.12-3.75,6.3-.19.38.38.72.64.39,1.34-1.69,2.5-3.54,3.72-5.32,1.21-1.76,2.43-3.5,3.66-5.24,2.48-3.51,5.02-6.99,7.64-10.41,5.27-6.86,10.84-13.5,16.71-19.87,1.63-1.77,3.28-3.53,4.93-5.28.82-.88,1.65-1.75,2.47-2.62.84-.89,1.74-1.79,2.49-2.76.32-.42-.21-1-.66-.67"/>
      <path class="cls-30" d="M1129.35,481.34c-.36.65-.54,1.37-.77,2.06-.26.78-.49,1.56-.74,2.34-.46,1.47-.84,2.97-1.2,4.46-.73,2.95-1.33,5.93-1.85,8.92-.64,3.71-1.13,7.46-1.48,11.22-.21-.91-.43-1.81-.62-2.72-.45-2.16-.85-4.33-1.17-6.5-.65-4.41-1.04-8.84-1.17-13.29-.03-1.22-.07-2.45-.07-3.67s.03-2.64-.19-3.88c-.08-.47-.69-.47-.81-.03-.31,1.06-.37,2.28-.45,3.38-.07,1.08-.09,2.17-.09,3.26,0,2.29.11,4.57.3,6.85.37,4.48,1.05,8.93,2.09,13.31.52,2.16,1.06,4.38,1.91,6.45-.09,1.36-.17,2.73-.22,4.09-.12,3.42-.3,6.99.27,10.38.08.46.81.54.86.03.34-3.03.24-6.12.38-9.17.14-3.03.33-6.06.64-9.08.61-6.08,1.62-12.12,2.96-18.08.38-1.68.78-3.36,1.19-5.03.2-.79.4-1.59.59-2.38.21-.86.52-1.74.6-2.62.05-.57-.68-.79-.96-.28"/>
      <path class="cls-30" d="M1114.75,520.73c-2.59-3.51-5.04-7.16-7.3-10.89-1.14-1.88-2.22-3.79-3.27-5.73-1.02-1.89-1.96-3.84-3.12-5.64-.26-.39-.8-.03-.69.37.6,2.07,1.6,4.07,2.6,5.98,1.02,1.96,2.12,3.87,3.28,5.75,2.32,3.76,4.92,7.31,7.8,10.67.36.42,1.04-.06.7-.51"/>
      <path class="cls-30" d="M1293.61,517.56c-.82,1.95-1.41,4.01-2.01,6.04-.63,2.1-1.26,4.2-1.9,6.3-1.26,4.17-2.57,8.33-3.92,12.47-2.7,8.26-5.62,16.45-8.69,24.58-.98,2.6-2.03,5.19-3.02,7.79.1-.54.21-1.07.31-1.6,2.06-11.08,3.49-22.27,4.7-33.46.34-3.16.66-6.32.96-9.48.29-3.09.76-6.29.53-9.4-.04-.51-.73-.46-.85-.03-.73,2.69-.9,5.55-1.19,8.32-.29,2.79-.59,5.59-.89,8.38-.2,1.86-.41,3.71-.62,5.57-.16-.5-.37-.99-.53-1.44-.31-.9-.64-1.79-.95-2.68-.64-1.83-1.24-3.67-1.83-5.52-1.18-3.68-2.12-7.44-3.39-11.09-.14-.39-.77-.24-.72.17.51,3.83,1.64,7.61,2.78,11.29.57,1.85,1.2,3.69,1.85,5.51.33.93.67,1.86,1.04,2.78.33.82.64,1.89,1.25,2.55.09.1.2.13.3.14-.36,3.16-.75,6.31-1.17,9.46-1.47,11.07-3.31,22.1-5.92,32.96-.73,3.03-1.49,6.06-2.32,9.07-.84,3.03-1.83,6.05-2.49,9.13-.1.44.56.62.75.22,1.2-2.56,2.04-5.31,2.87-8,.81-2.6,1.54-5.24,2.21-7.88.21-.16.43-.32.64-.48.52-.4,1.04-.79,1.57-1.19,1.01-.77,2.04-1.53,3.08-2.27,1.01-.72,2.03-1.42,3.05-2.12,1.03-.7,2.18-1.36,3.07-2.25.28-.28-.1-.68-.43-.58-1.2.38-2.32,1.17-3.37,1.85-1.1.71-2.19,1.45-3.24,2.23-1.03.75-2.05,1.52-3.04,2.33-.3.25-.6.5-.9.76.61-2.47,1.18-4.95,1.71-7.44,2.01-3.75,3.52-7.77,5.07-11.71,1.59-4.04,3.13-8.11,4.6-12.2,2.94-8.16,5.69-16.4,8.2-24.7.69-2.3,1.38-4.6,2.02-6.91.66-2.38,1.36-4.78,1.7-7.22.07-.49-.66-.74-.87-.26"/>
      <path class="cls-30" d="M1300.02,574.29c-.86.71-1.48,1.78-2.1,2.7-.66.99-1.32,1.98-1.96,2.98-1.26,1.97-2.51,3.95-3.75,5.93-1.23,1.96-2.44,3.94-3.64,5.92-.62,1.01-1.23,2.03-1.82,3.06-.01.02-.02.03-.03.05.45-1.94.9-3.88,1.37-5.82,2.07-8.61,4.35-17.17,6.85-25.66.7-2.39,1.41-4.78,2.13-7.17.36-1.19.68-2.39,1.01-3.59.34-1.24.77-2.45.99-3.71.1-.57-.71-.79-.96-.28-.49,1-.83,2.08-1.19,3.13-.37,1.06-.77,2.1-1.12,3.17-.68,2.08-1.32,4.18-1.95,6.27-1.29,4.26-2.48,8.54-3.64,12.84-2.32,8.63-4.43,17.31-6.28,26.05-1.03,4.9-2.12,9.86-2.59,14.85-.05.52.66.62.8.13,1.2-4.28,2.03-8.68,2.97-13.02.28-1.27.57-2.53.85-3.8.74-.83,1.33-1.83,1.93-2.75.65-1,1.28-2,1.92-3.01,1.24-1.98,2.5-3.95,3.74-5.93s2.5-3.95,3.75-5.93c.62-.99,1.24-1.98,1.85-2.98.57-.93,1.29-1.94,1.58-3.01.1-.37-.42-.67-.71-.43"/>
    </g>
  </g>
  <polygon class="cls-7" points="301.55 510.36 302.21 561.74 332.76 545.35 301.55 510.36"/>
  <polygon class="cls-25" points="424.8 517.78 407.48 525.92 406.5 526.39 385.92 536.07 384.93 536.53 362.37 547.14 361.39 547.6 341.84 556.8 329.64 542.73 328.93 541.93 313.35 523.97 312.64 523.15 301.55 510.36 321.27 502.27 322.29 501.85 345.73 492.23 346.75 491.81 368.13 483.04 369.15 482.62 383.32 476.8 393.11 486.47 393.89 487.24 409.12 502.29 409.9 503.06 424.8 517.78"/>
  <polygon class="cls-29" points="393.89 487.24 379.17 493.95 378.18 494.4 357.42 503.87 356.43 504.32 333.67 514.7 332.68 515.15 313.35 523.97 312.64 523.15 331.96 514.34 332.95 513.9 355.71 503.51 356.71 503.06 377.47 493.6 378.46 493.15 393.11 486.47 393.89 487.24"/>
  <polygon class="cls-29" points="409.9 503.06 394.14 510.86 393.17 511.33 372.9 521.35 371.93 521.84 349.7 532.82 348.74 533.3 329.64 542.73 328.93 541.93 348.02 532.48 348.99 532.01 371.21 521.02 372.18 520.55 392.46 510.53 393.43 510.04 409.12 502.29 409.9 503.06"/>
  <polygon class="cls-29" points="407.48 525.92 406.5 526.39 393.17 511.33 392.46 510.53 378.18 494.4 377.47 493.6 368.13 483.04 369.15 482.62 378.46 493.15 379.17 493.95 393.43 510.04 394.14 510.86 407.48 525.92"/>
  <polygon class="cls-29" points="362.38 547.14 361.39 547.6 348.74 533.3 348.02 532.48 332.67 515.15 331.95 514.34 321.27 502.27 322.29 501.85 332.95 513.9 333.67 514.7 348.99 532.01 349.7 532.82 362.38 547.14"/>
  <polygon class="cls-29" points="385.92 536.07 384.93 536.53 371.93 521.84 371.22 521.02 356.43 504.32 355.71 503.52 345.73 492.23 346.75 491.81 356.71 503.06 357.42 503.87 372.18 520.55 372.9 521.35 385.92 536.07"/>
  <polygon class="cls-7" points="1259.28 541.9 1258.62 593.28 1228.07 576.9 1259.28 541.9"/>
  <polygon class="cls-25" points="1136.03 549.32 1153.35 557.47 1154.33 557.93 1174.9 567.61 1175.89 568.07 1198.45 578.68 1199.43 579.14 1218.99 588.34 1231.19 574.27 1231.9 573.47 1247.48 555.51 1248.19 554.7 1259.28 541.91 1239.56 533.81 1238.54 533.39 1215.1 523.77 1214.08 523.35 1192.7 514.59 1191.68 514.16 1177.51 508.35 1167.72 518.02 1166.94 518.79 1151.71 533.83 1150.93 534.61 1136.03 549.32"/>
  <polygon class="cls-29" points="1166.94 518.79 1181.66 525.49 1182.65 525.95 1203.4 535.41 1204.4 535.86 1227.16 546.24 1228.15 546.7 1247.48 555.51 1248.19 554.7 1228.87 545.88 1227.88 545.44 1205.11 535.06 1204.11 534.61 1183.36 525.14 1182.37 524.69 1167.72 518.02 1166.94 518.79"/>
  <polygon class="cls-29" points="1150.93 534.61 1166.69 542.4 1167.66 542.88 1187.92 552.9 1188.89 553.38 1211.13 564.37 1212.09 564.84 1231.19 574.27 1231.9 573.47 1212.81 564.03 1211.84 563.55 1189.61 552.57 1188.64 552.09 1168.37 542.07 1167.4 541.59 1151.71 533.83 1150.93 534.61"/>
  <polygon class="cls-29" points="1153.34 557.47 1154.32 557.93 1167.66 542.88 1168.37 542.07 1182.65 525.95 1183.36 525.14 1192.7 514.59 1191.68 514.17 1182.37 524.69 1181.66 525.49 1167.4 541.59 1166.69 542.4 1153.34 557.47"/>
  <polygon class="cls-29" points="1198.45 578.68 1199.43 579.14 1212.09 564.84 1212.81 564.03 1228.15 546.7 1228.87 545.88 1239.56 533.81 1238.54 533.39 1227.88 545.44 1227.16 546.24 1211.84 563.55 1211.13 564.37 1198.45 578.68"/>
  <polygon class="cls-29" points="1174.9 567.61 1175.89 568.07 1188.89 553.38 1189.61 552.57 1204.4 535.86 1205.11 535.06 1215.1 523.77 1214.08 523.35 1204.11 534.61 1203.4 535.41 1188.64 552.09 1187.92 552.9 1174.9 567.61"/>
  <polygon class="cls-29" points="853.99 209.97 846.26 207.95 844.58 200.07 842.91 207.95 835.18 209.97 842.91 211.99 844.58 219.86 846.26 211.99 853.99 209.97"/>
  <polygon class="cls-29" points="1016.77 386.53 1008.46 384.36 1006.66 375.89 1004.86 384.36 996.55 386.53 1004.86 388.7 1006.66 397.17 1008.46 388.7 1016.77 386.53"/>
  <polygon class="cls-29" points="339.86 226.89 329.12 224.09 326.79 213.14 324.46 224.09 313.72 226.89 324.46 229.7 326.79 240.65 329.12 229.7 339.86 226.89"/>
  <polygon class="cls-29" points="530.56 423.15 522.17 420.96 520.35 412.41 518.53 420.96 510.14 423.15 518.53 425.35 520.35 433.9 522.17 425.35 530.56 423.15"/>
  <rect class="cls-10" width="1306.77" height="689.26"/>
  <path class="cls-14" d="M249.01,381.97c0,1.72-1.41,3.12-3.16,3.12s-3.16-1.4-3.16-3.12,1.41-3.12,3.16-3.12,3.16,1.4,3.16,3.12"/>
  <path class="cls-14" d="M466.93,426.36c0,1.72-1.42,3.12-3.16,3.12s-3.16-1.4-3.16-3.12,1.42-3.12,3.16-3.12,3.16,1.4,3.16,3.12"/>
  <path class="cls-2" d="M1306.77,689.26v-64.94c-48.73-48.08-114.9-86.05-191.17-113.91-33.09-12.09-68.07-22.27-104.35-30.55-161.68-36.88-349.1-35.91-508.92,3.03-43.36,10.55-84.68,23.91-122.92,40.06-58.75,24.81-110.2,56.22-150.47,94.25v72.06h1077.83Z"/>
  <path class="cls-18" d="M1011.25,479.86c-19.51,28-63.47,26.61-93.35,38.99-58.46,31.38-86.87,81.27-159.29,41.63-19.69-9.51-38.62-21.11-59.81-26.66-60.41-18.51-142.8,32.53-191.1-17.74-8.2-8.54-10.04-22.82-5.36-33.2,159.82-38.94,347.24-39.91,508.92-3.03"/>
  <path class="cls-18" d="M558.28,684.57c-1.82-2.84-3.35-5.9-4.54-9.22-3.36-9.56-2.1-19.81-10.76-28.45-30.15-27.28-160.9-29.06-215.55-44.98-30.98-9.2-16.19-22.07-19.01-36.46-2.26-11.57-21.27-16.85-41.24-18.81-93.97,20.58-176.27,46.63-240.69,78.16v59.76h531.79Z"/>
  <path class="cls-18" d="M1038.07,684.51c-.02,1.69.31,3.27.89,4.75h267.81v-64.94c-48.73-48.08-114.9-86.05-191.17-113.91-8.46,3.13-17.14,7.76-26.14,14.19-9.8,6.78-19.27,17.17-17.4,28.83,1.22,7.59,7.15,14.31,6.4,21.95-.97,10.02-12.21,15.18-21.53,19.25-20.57,9.99-43.14,22.17-55.45,41.89-12.4,36.58,48.19,10.76,36.58,47.99"/>
  <path class="cls-18" d="M634.29,689.26c-.17-1.75-.23-3.69-.16-5.88.87-28.86-44.79-18.05-46.66,5.88h46.82,0Z"/>
  <path class="cls-18" d="M695.42,565.27c31.47-19.77-50.79-29.44-60.26-17.28-16.13,11.88,6.98,19.37,16.94,21.72,14.39,3.4,30,2.01,43.32-4.44"/>
  <path class="cls-18" d="M607.88,552.61c15.04-7.35-5.38-13.8-12.99-10.58-15.29,9.64,4.01,14.87,12.99,10.58"/>
  <path class="cls-20" d="M445.76,581.25c-2.44-1.72-5.45-2.61-8.17-3.82-2.76-1.23-5.5-2.7-8.38-3.63-.43-.14-.81.38-.43.69,2.34,1.91,5.23,3.25,7.96,4.51,2.71,1.26,5.62,2.8,8.63,3.09.45.04.81-.55.38-.85"/>
  <path class="cls-20" d="M871.99,557.1c-8.1,5.07-15.83,10.7-24.06,15.59-8.17,4.85-16.81,9-25.97,11.66-9.09,2.63-18.73,3.77-28.15,2.47-9.61-1.33-18.77-5.06-27.55-8.99-4.37-1.96-8.66-4.08-12.88-6.34-4.21-2.26-8.3-4.72-12.47-7.04-1.04-.58-2.09-1.12-3.11-1.72-.38-.22-.75.39-.4.65,1.94,1.45,3.85,2.93,5.9,4.24,2.04,1.3,4.12,2.55,6.22,3.75,4.22,2.42,8.55,4.65,12.96,6.73,4.42,2.09,8.92,4.02,13.49,5.75,4.62,1.75,9.35,3.27,14.21,4.23,9.46,1.87,19.2,1.26,28.54-.97,9.45-2.25,18.37-6.18,26.81-10.89,4.24-2.37,8.35-4.95,12.39-7.64,4.04-2.69,8.07-5.46,11.84-8.49.93-.75,1.87-1.49,2.8-2.24.47-.38-.05-1.06-.55-.74"/>
  <path class="cls-20" d="M897.5,547.88c-1.46.66-2.74,1.58-4.05,2.49-1.3.9-2.57,1.83-3.85,2.74-2.56,1.84-5.13,3.67-7.7,5.5-5.17,3.69-10.37,7.33-15.54,11.01-1.46,1.04-2.92,2.07-4.36,3.13s-2.79,2.25-4.25,3.28c-.49.35.06,1.09.56.75,1.34-.91,2.79-1.66,4.15-2.56,1.32-.87,2.62-1.75,3.93-2.64,2.6-1.78,5.19-3.59,7.77-5.4,5.2-3.64,10.38-7.31,15.54-11.01,1.46-1.04,2.91-2.08,4.35-3.14,1.41-1.05,2.84-2.07,4.03-3.36.34-.37-.13-1-.58-.79"/>
  <path class="cls-20" d="M994.53,503.14c-.98.28-1.9.86-2.78,1.37-.94.55-1.88,1.1-2.83,1.64-1.82,1.04-3.65,2.05-5.52,3-3.78,1.92-7.67,3.61-11.61,5.17-2.24.89-4.49,1.73-6.69,2.72-.36.16-.27.78.17.7,4.23-.7,8.29-2.24,12.23-3.89,4.01-1.68,7.94-3.62,11.7-5.79,1.04-.6,2.08-1.22,3.08-1.87.99-.65,2.08-1.32,2.84-2.24.35-.42-.12-.94-.59-.8"/>
  <path class="cls-20" d="M969.15,519.64c-1.15.17-2.25.93-3.23,1.49-1.07.61-2.17,1.17-3.31,1.65-1.1.47-2.23.9-3.38,1.26-1.2.38-2.47.65-3.6,1.21-.39.2-.42.86.1.92,1.28.15,2.56-.16,3.78-.48,1.27-.33,2.53-.76,3.74-1.26,1.18-.49,2.33-1.06,3.45-1.69,1.06-.59,2.34-1.37,2.9-2.48.15-.29-.13-.67-.46-.62"/>
  <path class="cls-20" d="M1062.91,530.89c.33-.38-.27-.84-.61-.48-3.43,3.66-6.03,7.82-7.52,12.61-1.47,4.74-1.92,9.79-1.31,14.72.3,2.43.87,4.84,1.7,7.14.44,1.23.98,2.41,1.55,3.59.63,1.29,1.32,2.63,1.6,4.05.54,2.76-1.02,4.96-2.93,6.8-2.07,2-4.39,3.8-6.68,5.55-2.62,2-5.35,3.91-8.14,5.67-2.82,1.78-5.77,3.35-8.6,5.12-.45.29-.04.98.44.8,2.81-1.01,5.47-2.47,8.04-3.96,2.61-1.51,5.14-3.11,7.58-4.87,2.38-1.7,4.67-3.51,6.88-5.42,2.02-1.74,4.19-3.67,5.03-6.27.94-2.91-.28-5.64-1.54-8.24-1.1-2.25-1.99-4.58-2.55-7.02-1.13-4.85-1.1-9.89-.07-14.76,1.13-5.37,3.5-10.82,7.11-15.03"/>
  <path class="cls-20" d="M1040.2,584.04c-.54.28-1.15.49-1.71.71-.61.25-1.2.52-1.8.8-1.13.51-2.22,1.11-3.3,1.72-2.21,1.23-4.36,2.57-6.49,3.94-4.25,2.74-8.38,5.68-12.31,8.86-2.21,1.79-4.38,3.69-6.27,5.81-.37.42.22.99.66.68,4.1-2.81,7.89-6.06,11.91-8.98,4.03-2.93,8.21-5.62,12.45-8.26,1.15-.72,2.31-1.44,3.46-2.15.59-.36,1.19-.73,1.76-1.12.63-.43,1.25-.96,1.92-1.32.42-.23.16-.92-.27-.7"/>
  <path class="cls-20" d="M617.02,654.79c8.7-.69,16.98,4.31,21.04,11.81,2.16,4,3.21,8.5,3.38,13.02.08,2.09-.15,4.15-.24,6.24-.05,1.12-.02,2.28.19,3.39h1.82c-.27-1.1-.24-2.31-.19-3.37.12-2.19.33-4.35.23-6.55-.4-9-4.43-17.94-12.45-22.71-4.11-2.44-9.13-3.58-13.86-2.53-.43.1-.39.72.07.69"/>
  <path class="cls-20" d="M562.93,630.88c-2.11-3.78-4.8-7.21-7.92-10.22-3.23-3.1-6.96-5.66-11.01-7.61-4.68-2.26-9.7-3.73-14.7-5.1-3.01-.83-6.04-1.61-9.07-2.36-3.13-.77-6.28-1.6-9.46-2.12-.3-.05-.45.4-.16.52,2.6,1.01,5.29,1.8,7.97,2.6,2.63.79,5.27,1.55,7.91,2.3,4.91,1.4,9.85,2.72,14.54,4.74,8.06,3.47,14.84,9.23,19.43,16.64,1.25,2.01,2.31,4.13,3.2,6.31.9,2.2,1.64,4.44,2.44,6.67.19.54,1.02.33.98-.23-.31-4.29-2.06-8.42-4.14-12.15"/>
  <path class="cls-20" d="M571.89,639.02c-.99-3.51-2.54-6.73-4.77-9.63-.27-.35-.92-.04-.71.39,1.53,3.08,2.84,6.35,3.74,9.67.91,3.36,1.09,6.82,1.73,10.22.09.5.79.54.9.03.79-3.51.09-7.26-.88-10.67"/>
  <path class="cls-20" d="M506.66,529.89c-3.4-3.54-6.93-7.05-9.45-11.28-1.26-2.11-2.25-4.39-2.93-6.75-.79-2.75-1.08-5.61-1.33-8.45-.29-3.32-.62-6.62-.99-9.93-.07-.58-.9-.48-.9.09,0,5.96-.2,12.04,1.2,17.88,1.2,5,3.82,9.53,7.17,13.42.92,1.07,1.9,2.1,2.95,3.06,1.09,1.01,2.3,1.84,3.54,2.65.45.29,1.17-.25.74-.7"/>
  <path class="cls-20" d="M484.77,506.14c-.25-1.31-.39-2.64-.4-3.97-.03-2.61.37-5.24.9-7.79.1-.46-.54-.59-.75-.22-1.38,2.47-1.95,5.25-1.96,8.07,0,1.37.12,2.74.37,4.09.26,1.37.62,2.87,1.53,3.97.35.43,1.01.16.99-.38-.03-1.27-.45-2.52-.69-3.77"/>
  <path class="cls-20" d="M999.25,678.46c4.62,1.05,9.51,1.19,13.95,2.97,2.14.86,4.17,2.04,5.81,3.66.75.74,1.39,1.6,1.89,2.52.29.53.49,1.08.66,1.65h1.64c-.38-3.48-3.46-6.38-6.35-8.08-3.95-2.33-8.43-2.99-12.89-3.7-4.71-.75-9.57-1.72-13.18-5.04-3.25-2.99-5.11-7.3-5.64-11.6-.74-6.05,1.01-12.08,3-17.74.15-.42-.42-.67-.64-.28-4.84,8.68-6.4,20.15-.12,28.57,2.91,3.91,7.17,6.01,11.88,7.08"/>
  <path class="cls-20" d="M432.84,581.16c-.7-.19-1.42-.22-2.12-.42-.76-.21-1.49-.46-2.22-.75-1.35-.53-2.59-1.22-3.75-2.08-2.35-1.75-4.22-4.11-5.26-6.84-1.32-3.45-.77-6.97-.37-10.54.45-3.98.63-8.03.44-12.03-.19-3.82-.95-7.66-3.59-10.6-.38-.42-1.03.04-.72.52,1.93,2.96,2.36,6.71,2.49,10.15.15,4.1-.07,8.21-.58,12.28-.46,3.69-.81,7.34.55,10.89,1.09,2.85,3.02,5.39,5.42,7.3,1.36,1.08,2.91,1.97,4.55,2.57.79.29,1.66.55,2.5.64.88.1,1.76.26,2.64.1.7-.13.71-1.02.04-1.2"/>
  <path class="cls-24" d="M771.3,600.08c-3.23.09-6.46.11-9.69.18-3.14.06-6.28.02-9.4-.26-5.38-.5-10.7-1.79-15.47-4.36-2.27-1.22-4.37-2.75-6.2-4.55-1.79-1.77-3.16-3.87-4.52-5.97-1.33-2.06-2.72-4.11-4.59-5.74-1.93-1.68-4.34-2.68-6.87-3.11-2.61-.44-5.3-.34-7.91-.06-3.06.33-6.1.85-9.12,1.43-6.17,1.17-12.3,2.61-18.52,3.53-6.25.93-12.6,1.25-18.91.88-5.89-.34-11.86-1.14-17.51-2.87-5.14-1.57-10.13-4-13.98-7.78-3.57-3.51-6.19-8.27-6.72-13.26-.14-1.26-.18-2.49-.03-3.75.07-.57-.79-.72-.9-.15-.97,5.1.37,10.12,3.21,14.44,2.95,4.49,7.39,7.83,12.27,10.07,5.16,2.37,10.8,3.62,16.42,4.38,6.37.86,12.84,1.06,19.25.59,6.43-.47,12.75-1.72,19.05-3.02,6.03-1.24,12.18-2.68,18.36-2.95,2.64-.11,5.39.08,7.84,1.14,2.38,1.02,4.13,2.84,5.61,4.9,1.5,2.08,2.74,4.33,4.33,6.34,1.61,2.04,3.56,3.82,5.7,5.3,4.28,2.95,9.28,4.78,14.39,5.71,6.27,1.14,12.87,1.15,19.18.37,1.6-.2,3.2-.39,4.8-.58.55-.07.46-.85-.08-.83"/>
  <path class="cls-24" d="M749.07,605.9c-2.12-.3-4.27-.3-6.41-.48-2.14-.18-4.27-.51-6.34-1.08-3.52-.96-6.87-2.7-9.54-5.18-1.46-1.36-2.77-2.86-3.79-4.57-.22-.36-.75-.02-.63.34,2.65,7.8,11.27,11.35,18.93,12.19,2.56.28,5.22.38,7.74-.14.57-.12.7-.99.04-1.08"/>
  <path class="cls-24" d="M503.89,566.18c-.69-.49-1.64-.58-2.46-.75-.81-.17-1.61-.36-2.41-.58-1.68-.46-3.32-1.11-4.87-1.88-1.53-.77-2.98-1.68-4.34-2.71-1.39-1.05-2.63-2.28-4.02-3.32-.37-.28-1.06.11-.8.58.86,1.59,2.23,2.92,3.63,4.05,1.42,1.15,2.97,2.14,4.6,2.97,1.63.84,3.34,1.51,5.1,2.02.86.25,1.73.46,2.61.6.86.14,1.99.34,2.8-.03.36-.17.52-.69.15-.96"/>
  <path class="cls-24" d="M515.17,566.21c-1.03-.58-2.3-.81-3.43-1.15-1.21-.36-2.4-.76-3.57-1.22-2.31-.92-4.56-2.05-6.62-3.43-.67-.45-1.44.46-.8.98,2.04,1.64,4.26,3.04,6.68,4.1,1.19.52,2.43.95,3.68,1.3,1.2.34,2.64.68,3.89.45.55-.1.65-.76.17-1.03"/>
  <path class="cls-24" d="M652.38,647.06c5.44.79,10.45,4.15,13.36,8.72,1.56,2.45,2.19,5.24,3.11,7.95.94,2.78,2.38,5.33,4.89,7,5.65,3.76,12.59,2.53,18.99,2.63,5.77.09,11.48,1.61,16.61,4.19,2.83,1.43,5.47,3.19,7.87,5.25,1.19,1.02,2.32,2.12,3.39,3.27.54.58,1.07,1.17,1.59,1.77.43.5.9.95,1.35,1.42h1.37s0-.03-.01-.04c-.33-.62-.61-1.31-.99-1.89-.4-.6-.84-1.18-1.31-1.73-.94-1.12-1.96-2.18-3.03-3.17-2.14-1.99-4.5-3.72-7.02-5.21-5.01-2.97-10.7-4.89-16.52-5.49-3.43-.35-6.85-.1-10.28-.06-3.14.04-6.34-.2-9.23-1.51-2.74-1.24-4.51-3.36-5.58-6.11-1.08-2.79-1.67-5.73-3.15-8.36-3.08-5.49-8.92-9.13-15.25-9.54-.59-.04-.76.83-.15.92"/>
  <path class="cls-24" d="M707.78,683.35c3.01,1.48,5.68,3.56,8.06,5.91h2.41c-2.89-2.9-6.19-5.34-10.09-6.75-.56-.2-.92.58-.38.84"/>
  <path class="cls-24" d="M931.22,689.26c2.46-1.3,4.97-2.5,7.54-3.58,2.03-.85,4.08-1.63,6.17-2.34,1.85-.63,3.72-1.23,5.4-2.25,1.72-1.04,2.99-2.57,3.54-4.51.59-2.1.28-4.32.19-6.46-.17-3.72.19-7.46.98-11.1,1.59-7.3,5.02-14.2,9.75-20.02,4.77-5.86,10.88-10.51,17.76-13.69.85-.4,1.71-.78,2.57-1.17.4-.19.17-.72-.24-.62-3.67.86-7.22,2.66-10.37,4.68-3.2,2.06-6.13,4.55-8.75,7.29-5.23,5.48-9.22,12.15-11.47,19.35-1.14,3.62-1.86,7.35-2.07,11.13-.11,1.96-.06,3.91.05,5.87.12,2.05.22,4.34-1.11,6.06-1.15,1.49-2.97,2.27-4.7,2.9-1.96.71-3.94,1.35-5.88,2.1-4.11,1.6-8.1,3.5-11.95,5.64-.42.23-.83.48-1.25.72h3.84Z"/>
  <path class="cls-24" d="M913.59,689.26c1.75-1.09,3.52-2.14,5.31-3.15,2.33-1.31,4.66-2.67,7.04-3.89.51-.26.23-1.07-.33-.85-2.23.88-4.45,1.76-6.59,2.84-2.11,1.08-4.18,2.23-6.21,3.45-.86.52-1.7,1.05-2.54,1.59h3.32Z"/>
  <path class="cls-24" d="M980.37,612.49c-1.4.48-2.75.92-4.07,1.58-1.31.65-2.58,1.36-3.82,2.14-1.21.76-2.37,1.58-3.49,2.44-.59.46-1.18.92-1.73,1.42-.51.46-1.1.94-1.18,1.65-.04.36.23.63.59.62.69-.02,1.23-.52,1.74-.93.53-.42,1.04-.85,1.57-1.27,1.12-.87,2.28-1.7,3.46-2.49,1.15-.77,2.33-1.49,3.53-2.18,1.24-.71,2.47-1.49,3.75-2.15.52-.27.25-1.05-.33-.85"/>
  <path class="cls-24" d="M869.51,610.92c-1.27.71-2.39,1.67-3.52,2.58-1.11.89-2.22,1.77-3.34,2.64-2.23,1.75-4.55,3.4-6.97,4.88-4.87,2.98-10.24,5.25-15.93,6.13-3.18.49-6.49.6-9.68.21-.64-.08-.77.81-.16.96,11.8,2.97,23.71-2.98,32.84-9.93,1.34-1.02,2.67-2.07,3.93-3.2,1.23-1.11,2.55-2.2,3.53-3.55.35-.49-.21-1-.7-.72"/>
  <path class="cls-24" d="M890.9,588.52c-5.24,3.64-10.16,7.66-15.21,11.55-5.04,3.88-10.21,7.58-15.54,11.07-1.45.95-2.92,1.88-4.39,2.8-1.53.96-3,2.02-4.56,2.93-.38.22-.02.88.38.68,1.45-.7,2.93-1.34,4.36-2.08,1.42-.75,2.81-1.56,4.19-2.39,2.71-1.64,5.34-3.39,7.93-5.19,5.26-3.65,10.37-7.55,15.31-11.62,2.79-2.29,5.47-4.7,8.07-7.19.33-.32-.19-.81-.55-.56"/>
  <path class="cls-24" d="M1020.94,513.23c-2.32,1.08-4.48,2.57-6.63,3.93-1.06.67-2.12,1.33-3.17,2.02-1.06.7-2.23,1.42-3.03,2.42-.34.43.12.91.59.79,1.19-.3,2.27-1.02,3.31-1.64,1.11-.67,2.18-1.39,3.27-2.09,2.12-1.36,4.37-2.67,6.29-4.3.53-.45.09-1.47-.63-1.14"/>
  <path class="cls-24" d="M1031.06,514.11c-1.49,1.08-2.97,2.2-4.44,3.31s-3,2.15-4.21,3.55c-.31.37.11.86.53.72,1.82-.59,3.34-1.72,4.84-2.85,1.51-1.14,2.93-2.37,4.27-3.71.58-.58-.35-1.49-.99-1.02"/>
  <path class="cls-14" d="M585.32,510.97c-4.48,1.29-1.43,6.29,2.31,4.79-3.79,5.35,5.61,8.71,5.54,1.62,5.94,4.72,9.96-7.55-.09-5.08,2.97-4.88-6.28-5.7-4.17-.29-1.07-.46-2.27-1.42-3.59-1.04"/>
  <path class="cls-29" d="M590.72,515.46c-.73-.34-1.09-1.09-.81-1.69s1.1-.81,1.83-.48c.73.34,1.09,1.09.81,1.69s-1.1.81-1.83.48"/>
  <path class="cls-14" d="M822.08,466.61c-4.48,1.29-1.43,6.29,2.31,4.79-3.79,5.35,5.61,8.71,5.54,1.62,5.94,4.72,9.96-7.55-.09-5.08,2.97-4.88-6.28-5.7-4.17-.29-1.07-.46-2.27-1.42-3.59-1.04"/>
  <path class="cls-29" d="M827.48,471.09c-.73-.34-1.09-1.09-.81-1.69s1.1-.81,1.83-.48c.73.34,1.09,1.09.81,1.69s-1.1.81-1.83.48"/>
  <path class="cls-14" d="M950.51,489.57c-4.48,1.29-1.43,6.29,2.31,4.79-3.79,5.35,5.61,8.71,5.54,1.62,5.95,4.72,9.96-7.55-.09-5.08,2.97-4.88-6.28-5.7-4.17-.29-1.07-.46-2.27-1.42-3.59-1.04"/>
  <path class="cls-29" d="M955.91,494.05c-.73-.34-1.09-1.09-.81-1.69s1.1-.81,1.83-.48c.73.34,1.09,1.09.81,1.69s-1.1.81-1.83.48"/>
  <path class="cls-14" d="M552.57,502.69c-5.65,10.66-13.31-.1-7.49-3.87-8.47-2.34,1-11.98,5.64-5.27,2.06-9.79,13.37-2.49,5.36,3.43,10.32-2.15,8.24,12.46-3.51,5.72"/>
  <path class="cls-29" d="M552.22,499.8c-.97.26-1.93-.17-2.15-.96-.22-.79.39-1.65,1.35-1.91.97-.26,1.93.17,2.15.96.22.79-.39,1.65-1.35,1.91"/>
  <path class="cls-14" d="M820.05,536.4c1.27-10.47,17.2-5.22,9.14,3.44,14.2-5.16,10.68,19.79-6.02,10.71-1.55,12.23-23,6.59-12.57-4.39-11.92-2.15-6.12-19.83,9.46-9.76"/>
  <path class="cls-29" d="M821.15,545.29c-1.72.34-3.35-.52-3.64-1.93s.87-2.83,2.6-3.18c1.72-.34,3.35.52,3.64,1.93.29,1.41-.87,2.83-2.59,3.18"/>
  <path class="cls-14" d="M573.25,492.02c0,1.18-1.15,2.14-2.56,2.14s-2.56-.96-2.56-2.14,1.15-2.14,2.56-2.14,2.56.96,2.56,2.14"/>
  <path class="cls-14" d="M771.6,467.12c0,1.18-1.15,2.14-2.56,2.14s-2.56-.96-2.56-2.14,1.15-2.14,2.56-2.14,2.56.96,2.56,2.14"/>
  <path class="cls-14" d="M745.99,529.18c0,1.18-1.15,2.14-2.56,2.14s-2.56-.96-2.56-2.14,1.15-2.14,2.56-2.14,2.56.96,2.56,2.14"/>
  <path class="cls-14" d="M783.81,484.04c0,1.18-1.15,2.14-2.56,2.14s-2.56-.96-2.56-2.14,1.15-2.14,2.56-2.14,2.56.96,2.56,2.14"/>
  <path class="cls-27" d="M741.01,485.26c-.94.77-1.58,1.95-2.25,2.94-.74,1.09-1.46,2.19-2.17,3.29-.64.99-1.29,1.98-1.93,2.97,1.02-5.75,2.39-11.45,3.96-17.08.16-.55-.76-.82-.97-.29-.68,1.72-1.34,3.42-1.89,5.18-.55,1.75-1.03,3.51-1.47,5.29-.89,3.58-1.6,7.21-2.12,10.86-.12.82,1.08,1.5,1.6.7,1.43-2.21,2.86-4.43,4.29-6.64.69-1.07,1.38-2.15,2.05-3.23.67-1.08,1.53-2.2,1.86-3.43.14-.5-.56-.89-.95-.57"/>
  <path class="cls-27" d="M729.22,484.55c-.16-.71-1.14-.63-1.14.11-.01,1.85,0,3.72-.1,5.57-.05.91-.11,1.82-.2,2.73-.09.88-.32,1.91.02,2.76.17.43.75.51,1.04.16.61-.72.68-1.83.77-2.73.09-.95.15-1.9.17-2.86.03-1.96-.12-3.84-.56-5.74"/>
  <path class="cls-27" d="M600.04,494.96c-.22-.82-.52-1.63-.85-2.41-.71-1.68-1.56-3.31-2.49-4.87-.91-1.53-1.94-2.98-3.08-4.36-.56-.68-1.17-1.33-1.8-1.96-.66-.65-1.41-1.18-2.11-1.78-.38-.33-1,.23-.65.62.57.64,1.02,1.35,1.55,2.02.53.67,1.04,1.35,1.56,2.03,1.05,1.39,2.02,2.85,2.91,4.35.87,1.46,1.62,2.97,2.3,4.52.34.78.67,1.57,1.01,2.35.32.73.65,1.7,1.17,2.3.26.3.79.22.86-.2.12-.81-.17-1.83-.38-2.61"/>
  <path class="cls-27" d="M597.49,496.85c-.4-1.22-1.15-2.39-1.88-3.46-.74-1.08-1.54-2.13-2.4-3.13-1.72-2-3.64-3.79-5.7-5.44-.61-.49-1.32.41-.75.93,1.88,1.7,3.59,3.59,5.17,5.57.78.98,1.52,1.98,2.22,3.01.72,1.04,1.38,2.17,2.21,3.13.47.55,1.36.1,1.13-.61"/>
  <path class="cls-27" d="M639.46,494.49c-.84-3.7-1.82-7.38-3.09-10.96-1.27-3.59-2.84-7.05-4.48-10.48-.28-.6-1.24-.25-.98.37,1.46,3.42,2.67,6.96,3.76,10.5.58,1.9,1.14,3.8,1.66,5.71-.85-1.27-1.7-2.55-2.56-3.81-.91-1.35-1.82-2.69-2.76-4.02-.94-1.32-1.82-2.74-3.02-3.84-.41-.37-1,.13-.83.6.54,1.49,1.52,2.83,2.36,4.17.89,1.41,1.81,2.81,2.74,4.2,1.82,2.75,3.67,5.48,5.51,8.21.49.73,1.9.27,1.7-.64"/>
  <path class="cls-27" d="M521.49,506.01c-.29-.45-.56-.88-.89-1.3-.68-.87-1.47-1.66-2.28-2.4-.78-.71-1.61-1.36-2.49-1.94-.9-.59-1.92-1.24-2.96-1.55-.57-.17-1.08.49-.57.92.78.65,1.68,1.18,2.48,1.81.81.63,1.59,1.31,2.33,2.02.71.68,1.34,1.41,1.98,2.15.34.4.69.79,1.02,1.2.34.42.64.84,1.11,1.13.39.24.97.03.91-.49-.06-.6-.33-1.07-.64-1.57"/>
  <path class="cls-27" d="M858.73,499.82c-.88,1.05-1.38,2.37-1.87,3.63-.5,1.3-.94,2.62-1.34,3.96-.41,1.34-.77,2.7-1.09,4.07-.57-2.07-1.18-4.13-1.86-6.17-.55-1.63-1.12-3.26-1.77-4.86-.67-1.65-1.46-3.22-2.24-4.82-.26-.54-1.09-.25-.89.34.55,1.64,1.02,3.3,1.55,4.94.53,1.64,1.09,3.28,1.6,4.92,1.03,3.29,1.98,6.6,2.78,9.95.23.97,1.7,1.21,1.9.06.46-2.67,1.05-5.31,1.81-7.92.37-1.26.78-2.51,1.21-3.76.44-1.29,1-2.59,1.17-3.94.06-.52-.6-.84-.95-.42"/>
  <path class="cls-27" d="M863.3,504.63c-1.46,1.49-2.44,3.44-3.35,5.29-.45.91-.88,1.83-1.28,2.77-.42,1-.73,1.99-1.04,3.03-.19.63.79.84,1.07.31.95-1.8,1.82-3.64,2.74-5.46.91-1.8,1.98-3.58,2.6-5.5.15-.47-.39-.81-.74-.45"/>
  <path class="cls-27" d="M935.02,499.22c-.46.22-.87.44-1.27.77-.38.32-.77.63-1.13.96-.75.69-1.49,1.4-2.2,2.12-1.39,1.41-2.8,2.86-3.9,4.5-.37.55.29,1.4.88.9,1.53-1.29,2.89-2.78,4.32-4.18.69-.68,1.38-1.36,2.07-2.04.35-.35.69-.71,1.03-1.07.37-.39.64-.78.92-1.24.24-.4-.29-.93-.7-.73"/>
  <path class="cls-27" d="M823.65,448.83c-1.35.44-2.61,1.3-3.72,2.16-1.19.92-2.31,1.91-3.39,2.95-.81.77-1.57,1.58-2.32,2.4.95-2.59,1.84-5.2,2.46-7.87.13-.56-.7-.75-.94-.28-2.09,4.03-3.52,8.39-5.1,12.63-.33.89.89,1.78,1.51.91,1.67-2.34,3.55-4.53,5.61-6.54,1.02-.99,2.09-1.93,3.18-2.83,1.09-.9,2.27-1.8,3.19-2.88.29-.34-.1-.79-.49-.66"/>
  <path class="cls-27" d="M805.9,447.81c-.83,1.83-1.68,3.62-2.24,5.55-.53,1.79-1.3,3.91-.8,5.77.09.34.65.43.84.13.51-.78.73-1.65.92-2.56.2-.96.4-1.92.65-2.87.48-1.87.9-3.79,1.57-5.6.22-.6-.66-1.01-.93-.41"/>
  <path class="cls-13" d="M782.99,509.05c-.81,2.77-1.08,5.71-1.49,8.57-.17,1.18-.32,2.36-.48,3.54-.45-5-1.4-10.02-3.36-14.61-.21-.5-1.1-.35-.98.23.62,3.08,1.32,6.14,1.82,9.24.5,3.12.83,6.26.94,9.42.02.55.74,1.04,1.26.77,1.12-.58,1.63-1.59,1.87-2.78.3-1.52.43-3.09.62-4.62.42-3.2.98-6.48.91-9.71-.02-.68-.95-.59-1.11-.04"/>
  <path class="cls-13" d="M793.13,514.53c-1.78,1.14-3.21,2.96-4.49,4.62-.65.84-1.27,1.7-1.86,2.58-.61.91-1.08,1.86-1.6,2.81-.27.48.5.94.83.5.61-.82,1.31-1.59,1.93-2.4.65-.84,1.32-1.66,1.99-2.47.66-.79,1.33-1.57,2.01-2.35.7-.79,1.41-1.58,1.98-2.47.34-.54-.22-1.18-.79-.82"/>
  <path class="cls-13" d="M687.67,505.56c-.7-1.65-1.49-3.26-2.59-4.68-.39-.51-1.15-.06-.97.52.52,1.67,1.24,3.26,1.89,4.88.63,1.59,1.11,3.37,2.13,4.76.34.46.95.12.96-.37.05-1.75-.75-3.53-1.43-5.12"/>
  <path class="cls-13" d="M890.78,512.94c-1.18.69-2.07,1.87-2.93,2.9-.91,1.11-1.78,2.25-2.62,3.41-.82,1.13-1.6,2.29-2.35,3.47-.76,1.18-1.54,2.41-2,3.74-.19.57.5,1.03.92.55.92-1.04,1.64-2.25,2.41-3.4.77-1.16,1.59-2.29,2.41-3.42.8-1.09,1.64-2.16,2.49-3.22.87-1.08,1.9-2.14,2.47-3.41.23-.52-.37-.9-.81-.64"/>
  <path class="cls-13" d="M897.02,516.15c-1.86.42-3.58,1.16-5.17,2.2-1.59,1.03-3.03,2.27-4.35,3.62-.51.51.35,1.42.89.92,2.64-2.45,5.8-4.26,8.88-6.09.29-.18.09-.72-.25-.64"/>
  <path class="cls-13" d="M988.03,479.54c-.8.07-1.56.38-2.28.71-.77.34-1.51.74-2.24,1.15-1.43.81-2.78,1.73-4.07,2.75-.58.46.09,1.39.69.93,1.26-.96,2.6-1.84,3.99-2.61.68-.38,1.38-.71,2.08-1.05.72-.35,1.48-.66,2.11-1.14.32-.25.12-.77-.29-.74"/>
  <path class="cls-13" d="M554.63,474.37c-.04-1.07-.09-2.14-.15-3.21-.05-.99-.06-2.16-.48-3.07-.18-.39-.83-.49-1.01-.03-.35.93-.29,2.04-.29,3.02,0,1.11.04,2.23.07,3.34.04,1.28.09,2.56.14,3.84-.97-1.09-2-2.15-3.09-3.12-.87-.78-1.77-1.52-2.71-2.22-.92-.69-1.91-1.45-3-1.85-.35-.13-.76.27-.49.6.72.86,1.67,1.54,2.51,2.28.85.74,1.68,1.52,2.49,2.32,1.63,1.62,3.15,3.34,4.55,5.15.57.74,1.68.25,1.65-.63-.06-2.14-.12-4.28-.21-6.42"/>
  <path class="cls-13" d="M558.83,466.28c-.02-.61-1.07-.66-1.09-.04-.07,1.87-.19,3.74-.23,5.61-.04,1.81-.16,3.78.34,5.54.14.49.79.3.9-.09.24-.87.29-1.81.32-2.71.02-.93.02-1.85,0-2.78-.03-1.85-.16-3.69-.23-5.53"/>
  <path class="cls-14" d="M1069.33,669.08c-6.53,1.88-2.09,9.16,3.36,6.98-5.52,7.79,8.17,12.69,8.08,2.36,8.66,6.88,14.51-11-.13-7.4,4.33-7.1-9.15-8.31-6.07-.42-1.56-.67-3.31-2.07-5.23-1.52"/>
  <path class="cls-29" d="M1077.19,675.61c-1.06-.49-1.59-1.59-1.18-2.46.41-.87,1.6-1.18,2.67-.69,1.06.49,1.59,1.59,1.18,2.46-.41.87-1.6,1.18-2.67.69"/>
  <path class="cls-14" d="M1117.54,537.82c-4.48,1.29-1.43,6.29,2.31,4.79-3.79,5.35,5.61,8.71,5.54,1.62,5.94,4.72,9.96-7.55-.09-5.08,2.97-4.88-6.29-5.7-4.17-.29-1.07-.46-2.27-1.42-3.59-1.04"/>
  <path class="cls-29" d="M1122.94,542.31c-.73-.34-1.09-1.09-.81-1.69.28-.6,1.1-.81,1.83-.48.73.34,1.09,1.09.81,1.69-.28.6-1.1.81-1.83.48"/>
  <path class="cls-14" d="M1221.76,608.83c1.27-10.47,17.19-5.22,9.14,3.44,14.2-5.16,10.68,19.79-6.02,10.71-1.55,12.23-23,6.58-12.57-4.39-11.92-2.15-6.12-19.83,9.46-9.76"/>
  <path class="cls-29" d="M1222.86,617.71c-1.72.34-3.35-.52-3.64-1.93s.87-2.83,2.59-3.18c1.72-.34,3.35.52,3.64,1.93s-.87,2.83-2.59,3.18"/>
  <path class="cls-14" d="M1049.32,631.35c1.27-10.47,17.19-5.22,9.14,3.44,14.2-5.16,10.68,19.79-6.02,10.71-1.55,12.23-23,6.58-12.57-4.39-11.92-2.15-6.12-19.83,9.46-9.76"/>
  <path class="cls-29" d="M1050.42,640.24c-1.72.34-3.35-.52-3.64-1.93s.87-2.83,2.59-3.18c1.72-.34,3.35.52,3.64,1.93s-.87,2.83-2.59,3.18"/>
  <path class="cls-14" d="M1110.59,587.36c0,1.18-1.15,2.14-2.56,2.14s-2.56-.96-2.56-2.14,1.15-2.14,2.56-2.14,2.56.96,2.56,2.14"/>
  <path class="cls-14" d="M1288.65,655.85c0,1.18-1.15,2.14-2.56,2.14s-2.56-.96-2.56-2.14,1.15-2.14,2.56-2.14,2.56.96,2.56,2.14"/>
  <path class="cls-14" d="M1098.77,570.24c0,1.18-1.15,2.14-2.56,2.14s-2.56-.96-2.56-2.14,1.15-2.14,2.56-2.14,2.56.96,2.56,2.14"/>
  <path class="cls-14" d="M1209.27,594.17c0,1.18-1.15,2.14-2.56,2.14s-2.56-.96-2.56-2.14,1.15-2.14,2.56-2.14,2.56.96,2.56,2.14"/>
  <path class="cls-13" d="M1086.11,602.6c-.65.91-.99,2.07-1.35,3.12-.39,1.16-.78,2.32-1.15,3.48-.4,1.26-.79,2.52-1.18,3.78-.5-2.04-1.06-4.07-1.71-6.07-.47-1.45-.95-2.92-1.58-4.32-.45-1.02-1.21-2.15-2.46-2.15-.45,0-.55.6-.26.85.84.72,1.16,1.59,1.49,2.62.45,1.4.9,2.8,1.31,4.21.82,2.78,1.56,5.58,2.15,8.42.08.4.34.74.77.81.37.06.87-.15.99-.53.73-2.34,1.45-4.68,2.17-7.02.34-1.12.67-2.25.99-3.38.32-1.15.75-2.38.73-3.57,0-.43-.66-.62-.91-.27"/>
  <path class="cls-13" d="M1072.06,610.62c-.63-1.78-1.4-3.5-2.21-5.21-.38-.81-1.68-.33-1.32.5.74,1.7,1.35,3.45,1.92,5.21.57,1.76,1.08,3.53,1.93,5.18.21.42.78.28.79-.18.03-1.89-.49-3.73-1.12-5.5"/>
  <path class="cls-13" d="M1182.81,552.11c-2.3.95-4.33,2.66-6.24,4.21-1.02.83-2.02,1.69-2.99,2.58.43-1.26.88-2.51,1.36-3.75.89-2.28,1.71-4.62,2.74-6.84.26-.55-.56-.88-.85-.38-1.28,2.22-2.55,4.39-3.53,6.76-.97,2.34-1.8,4.73-2.52,7.16-.28.95,1.05,1.25,1.59.7,1.72-1.74,3.53-3.41,5.42-4.97,1.87-1.54,3.97-2.85,5.71-4.53.44-.43-.17-1.15-.69-.93"/>
  <path class="cls-13" d="M1197.61,566.27c-.91.04-1.78.39-2.61.74-.85.37-1.67.78-2.49,1.23-.77.42-1.52.89-2.25,1.39-.78.53-1.44,1.15-2.09,1.81-.4.41.22.88.64.65,1.51-.83,2.99-1.73,4.52-2.55.75-.4,1.53-.78,2.3-1.15.8-.38,1.63-.71,2.32-1.26.39-.31.15-.89-.34-.87"/>
  <path class="cls-13" d="M1266.15,646.24c-1.73.69-3.31,1.87-4.76,3.01-1.5,1.18-2.93,2.43-4.3,3.74-1.38,1.33-2.68,2.72-3.92,4.17.83-2.23,1.71-4.44,2.71-6.59,1.77-3.8,3.92-7.63,6.85-10.68.45-.47-.33-1.07-.79-.62-1.57,1.53-3.06,3.16-4.31,4.95-1.21,1.74-2.27,3.58-3.21,5.47-1.94,3.91-3.39,8.02-4.83,12.13-.31.89.91,1.81,1.53.92,2.13-3.05,4.52-5.9,7.19-8.5,1.3-1.27,2.67-2.49,4.08-3.63,1.45-1.17,3.01-2.26,4.34-3.57.37-.37-.14-.97-.59-.79"/>
  <path class="cls-13" d="M1266.84,656.63c-2.17.69-4.17,1.96-6.02,3.25-1.88,1.32-3.65,2.76-5.32,4.34-.61.57.11,1.63.8,1.07,1.75-1.42,3.56-2.76,5.42-4.03,1.86-1.26,3.83-2.39,5.59-3.77.45-.35.06-1.03-.48-.86"/>
  <path class="cls-13" d="M1158.63,684.12c.17,1.62.23,3.26.58,4.85.03.13.09.22.17.29h.63c.07-.07.14-.14.17-.26.44-1.59.4-3.3.28-4.94-.13-1.67-.4-3.32-.76-4.96-.72-3.25-1.76-6.44-3.67-9.2-.29-.41-.87-.03-.74.4.9,3.06,1.99,6.07,2.64,9.2.31,1.52.53,3.07.7,4.61"/>
  <path class="cls-13" d="M1164.67,683.34c-.04-1.39-.2-2.79-.43-4.16-.46-2.75-1.22-5.39-2.26-7.98-.23-.58-1.09-.24-.91.35.77,2.57,1.33,5.24,1.67,7.9.17,1.31.29,2.61.38,3.93.1,1.33.09,2.72.37,4.03.11.49.72.5.86.03.38-1.29.35-2.75.32-4.09"/>
  <path class="cls-13" d="M1191.08,615.52c-1.28,1.92-2.52,3.84-3.6,5.88-1.05,1.98-2.25,4.1-2.63,6.32-.08.5.6.81.91.4,1.36-1.77,2.2-3.96,3.2-5.94,1.03-2.02,2.03-4.07,3.12-6.05.32-.58-.63-1.16-1-.6"/>
  <path class="cls-27" d="M1151.99,583.17c-1.05,1.3-1.85,2.83-2.57,4.33-.76,1.57-1.43,3.17-2.03,4.8-.58,1.59-1.12,3.21-1.53,4.86-.42,1.64-.8,3.35-.7,5.05.03.51.77.6.97.15.68-1.49,1.04-3.12,1.49-4.68.46-1.59.94-3.18,1.49-4.75.54-1.53,1.15-3.04,1.79-4.52.67-1.55,1.45-3.08,2.02-4.67.2-.56-.52-1.06-.93-.56"/>
  <path class="cls-27" d="M1146.22,586.31c-1.15,2.47-2.15,4.92-2.86,7.55-.34,1.26-.64,2.55-.84,3.85-.21,1.33-.45,2.78-.13,4.1.11.45.75.67.98.16.52-1.17.65-2.48.87-3.73.23-1.29.48-2.58.78-3.86.6-2.56,1.32-5.14,2.3-7.58.28-.7-.76-1.17-1.08-.48"/>
  <path class="cls-27" d="M1130.01,589.58c-.4-2.39-1.04-4.72-1.72-7.04-.15-.5-1.01-.31-.92.21.41,2.36.68,4.74,1,7.11.31,2.31.32,4.79,1.18,6.98.16.41.72.31.82-.08.56-2.32.02-4.87-.36-7.18"/>
  <path class="cls-27" d="M1157.21,626.04c-.81,1.12-1.64,2.19-2.35,3.38-.72,1.2-1.4,2.42-2.06,3.64-.65,1.19-1.29,2.38-1.86,3.6-.58,1.24-1.23,2.57-1.44,3.93-.08.51.56.75.89.39.89-.98,1.48-2.22,2.12-3.37.68-1.22,1.29-2.47,1.94-3.7.62-1.2,1.27-2.38,1.9-3.58.65-1.23,1.17-2.51,1.77-3.76.26-.53-.55-1.04-.9-.54"/>
  <path class="cls-27" d="M1112.04,665.21c-.82,1.12-1.25,2.54-1.73,3.83-.5,1.35-.97,2.72-1.44,4.08-.54,1.53-1.07,3.05-1.6,4.58-.62-4.85-1.27-9.7-2.21-14.49-.13-.65-1.09-.58-1.05.1.35,6.18,1.17,12.31,1.93,18.45.1.84,1.43,1.18,1.75.28.95-2.73,1.91-5.45,2.85-8.18.46-1.32.93-2.64,1.37-3.98.44-1.35,1.06-2.81,1.11-4.24.02-.5-.62-.93-.98-.43"/>
  <path class="cls-27" d="M1116.16,670.53c-.77.8-1.3,1.77-1.87,2.71-.56.92-1.08,1.86-1.61,2.8s-1.06,1.87-1.58,2.82c-.25.45-.49.91-.74,1.37-.14.26-.28.52-.41.79-.02.04-.06.14-.1.25-.51.11-.81,1.02-.03,1.29.7.24,1.16-.5,1.47-.99.43-.68.84-1.38,1.25-2.07.83-1.41,1.66-2.82,2.46-4.24.77-1.38,1.67-2.78,2.09-4.31.15-.56-.61-.75-.94-.41"/>
  <path class="cls-27" d="M1240.07,668.68c-2.19,2.12-4.18,4.4-5.93,6.89-.85,1.21-1.66,2.44-2.41,3.72-.72,1.22-1.66,2.73-1.71,4.18-.01.34.36.68.69.42,1.11-.89,1.81-2.38,2.53-3.57.76-1.26,1.55-2.51,2.39-3.72,1.7-2.45,3.54-4.83,5.52-7.07.59-.67-.46-1.44-1.07-.85"/>
  <path class="cls-27" d="M1234.21,669.48c-1.29,1.66-2.53,3.39-3.55,5.23-.5.9-.98,1.83-1.4,2.78-.41.94-.86,1.96-.82,2.99.02.46.61.55.89.26.67-.72,1.02-1.71,1.43-2.59.42-.91.85-1.82,1.32-2.71.95-1.78,1.96-3.51,3.15-5.14.5-.68-.51-1.49-1.03-.82"/>
  <path class="cls-27" d="M1214.45,672.94c-.24-1.79-.67-3.54-1.19-5.27-.25-.83-1.49-.34-1.26.48.46,1.65.73,3.34.88,5.04.14,1.65-.04,3.42.41,5.02.12.44.8.42.97.02.68-1.61.42-3.61.2-5.3"/>
  <path class="cls-27" d="M1294.98,621.28c-1.09,1.58-2.15,3.18-3.17,4.81-1,1.6-2.13,3.25-2.6,5.09-.1.41.48.77.8.49,1.42-1.28,2.37-3.03,3.32-4.66.98-1.66,1.91-3.33,2.81-5.03.36-.67-.72-1.34-1.16-.7"/>
  <path class="cls-14" d="M476.49,654.98c5.9,1.69,1.89,8.27-3.03,6.3,4.99,7.03-7.38,11.46-7.29,2.13-7.82,6.21-13.1-9.93.12-6.68-3.91-6.42,8.27-7.5,5.48-.38,1.41-.61,2.99-1.86,4.72-1.37"/>
  <path class="cls-29" d="M469.38,660.88c.96-.44,1.44-1.43,1.07-2.22s-1.45-1.06-2.41-.62-1.44,1.43-1.07,2.22,1.45,1.07,2.41.62"/>
  <path class="cls-14" d="M299.64,571.5c4.48,1.29,1.43,6.29-2.31,4.79,3.79,5.35-5.61,8.71-5.55,1.62-5.94,4.72-9.96-7.55.09-5.08-2.97-4.88,6.29-5.7,4.17-.29,1.07-.46,2.27-1.42,3.59-1.04"/>
  <path class="cls-29" d="M294.24,575.98c.73-.33,1.09-1.09.81-1.69s-1.1-.81-1.83-.47c-.73.33-1.09,1.09-.81,1.69s1.1.81,1.83.47"/>
  <path class="cls-14" d="M318.97,593.25c-1.27-10.47-17.2-5.22-9.14,3.44-14.2-5.16-10.68,19.79,6.02,10.71,1.55,12.23,23,6.58,12.57-4.39,11.92-2.15,6.12-19.83-9.46-9.76"/>
  <path class="cls-29" d="M317.87,602.14c1.72.34,3.35-.52,3.64-1.93s-.87-2.83-2.6-3.18c-1.72-.34-3.35.52-3.64,1.93s.87,2.83,2.6,3.18"/>
  <path class="cls-14" d="M494.55,620.92c-1.14-9.45-15.53-4.71-8.25,3.11-12.82-4.66-9.64,17.87,5.44,9.67,1.4,11.04,20.76,5.95,11.35-3.96,10.76-1.94,5.53-17.9-8.54-8.81"/>
  <path class="cls-29" d="M493.56,628.94c1.55.31,3.03-.47,3.29-1.74s-.79-2.56-2.34-2.87-3.03.47-3.29,1.74.79,2.56,2.34,2.87"/>
  <path class="cls-14" d="M412.24,616.75c0,1.18,1.15,2.14,2.56,2.14s2.56-.96,2.56-2.14-1.15-2.14-2.56-2.14-2.56.96-2.56,2.14"/>
  <path class="cls-14" d="M252.08,640.28c0,1.18,1.15,2.14,2.56,2.14s2.56-.96,2.56-2.14-1.15-2.14-2.56-2.14-2.56.96-2.56,2.14"/>
  <path class="cls-14" d="M427.97,633.41c0,1.07,1.04,1.93,2.31,1.93s2.31-.87,2.31-1.93-1.04-1.93-2.31-1.93-2.31.87-2.31,1.93"/>
  <path class="cls-14" d="M519.18,656.67c0,1.07,1.03,1.93,2.31,1.93s2.31-.87,2.31-1.93-1.04-1.93-2.31-1.93-2.31.87-2.31,1.93"/>
  <path class="cls-14" d="M331.46,578.6c0,1.18,1.15,2.14,2.56,2.14s2.56-.96,2.56-2.14-1.15-2.14-2.56-2.14-2.56.96-2.56,2.14"/>
  <path class="cls-13" d="M452.63,590.2c.65.91.99,2.07,1.35,3.12.39,1.16.78,2.32,1.15,3.48.4,1.26.79,2.52,1.18,3.78.5-2.04,1.06-4.07,1.71-6.07.47-1.45.95-2.92,1.57-4.32.45-1.02,1.21-2.15,2.46-2.15.45,0,.55.6.26.85-.84.72-1.16,1.59-1.49,2.62-.45,1.4-.9,2.8-1.31,4.21-.82,2.78-1.56,5.58-2.15,8.42-.08.4-.34.74-.77.81-.37.06-.87-.15-.99-.53-.73-2.34-1.45-4.68-2.17-7.02-.35-1.12-.67-2.25-.99-3.38-.32-1.15-.75-2.38-.73-3.57,0-.43.66-.62.91-.27"/>
  <path class="cls-13" d="M461.66,599.61c.63-1.78,1.4-3.5,2.21-5.21.38-.81,1.68-.33,1.32.5-.74,1.7-1.35,3.45-1.92,5.21s-1.08,3.53-1.93,5.18c-.21.42-.79.28-.79-.18-.02-1.89.49-3.73,1.12-5.5"/>
  <path class="cls-13" d="M357.92,536.53c2.3.95,4.33,2.66,6.24,4.21,1.02.83,2.02,1.69,2.99,2.58-.43-1.26-.88-2.51-1.36-3.75-.89-2.28-1.71-4.62-2.74-6.84-.26-.55.56-.88.85-.38,1.28,2.22,2.55,4.39,3.53,6.76.97,2.34,1.8,4.73,2.52,7.16.28.95-1.05,1.25-1.59.7-1.72-1.74-3.53-3.41-5.42-4.97-1.87-1.54-3.97-2.85-5.71-4.53-.44-.43.17-1.15.69-.93"/>
  <path class="cls-13" d="M343.12,550.7c.91.04,1.78.38,2.61.74.85.37,1.67.79,2.49,1.23.77.42,1.52.89,2.25,1.38.78.53,1.44,1.15,2.09,1.81.4.41-.22.88-.64.65-1.51-.83-2.99-1.73-4.52-2.55-.75-.4-1.52-.78-2.3-1.14-.79-.38-1.63-.71-2.32-1.26-.39-.3-.14-.89.34-.87"/>
  <path class="cls-13" d="M274.57,630.67c1.73.69,3.31,1.87,4.76,3.01,1.5,1.18,2.93,2.43,4.3,3.74,1.38,1.32,2.68,2.72,3.92,4.17-.83-2.23-1.71-4.44-2.71-6.59-1.77-3.8-3.92-7.63-6.85-10.68-.45-.47.33-1.06.79-.62,1.57,1.53,3.06,3.16,4.31,4.95,1.21,1.74,2.27,3.58,3.21,5.47,1.94,3.91,3.39,8.02,4.83,12.13.31.89-.9,1.81-1.53.92-2.13-3.05-4.52-5.9-7.19-8.5-1.3-1.27-2.67-2.49-4.08-3.64-1.45-1.17-3.01-2.26-4.34-3.57-.37-.37.14-.97.59-.79"/>
  <path class="cls-13" d="M273.89,641.05c2.17.69,4.17,1.96,6.02,3.25,1.88,1.31,3.65,2.76,5.32,4.34.61.57-.11,1.63-.8,1.07-1.75-1.42-3.56-2.76-5.42-4.03-1.86-1.26-3.83-2.39-5.59-3.77-.45-.35-.06-1.03.48-.86"/>
  <path class="cls-13" d="M381.9,670.68c.07-.71.12-1.43.2-2.14.17-1.55.39-3.09.7-4.61.64-3.13,1.74-6.14,2.64-9.2.13-.44-.45-.81-.74-.4-1.91,2.75-2.95,5.95-3.67,9.2-.36,1.63-.63,3.29-.76,4.96-.05.72-.08,1.46-.07,2.19h1.71-.01Z"/>
  <path class="cls-13" d="M377.41,670.68c.1-.96.12-1.93.19-2.88.1-1.31.21-2.62.38-3.92.35-2.66.91-5.33,1.67-7.9.17-.59-.68-.93-.91-.34-1.04,2.59-1.8,5.23-2.26,7.98-.23,1.37-.39,2.77-.43,4.16-.03.94-.04,1.95.08,2.91h1.28Z"/>
  <path class="cls-13" d="M349.65,599.95c1.28,1.92,2.52,3.84,3.6,5.88,1.04,1.98,2.25,4.1,2.63,6.32.08.5-.6.81-.91.4-1.36-1.77-2.2-3.96-3.2-5.94-1.03-2.02-2.02-4.07-3.12-6.05-.32-.58.63-1.16,1-.6"/>
  <path class="cls-27" d="M388.74,567.6c1.05,1.3,1.85,2.83,2.58,4.33.76,1.57,1.43,3.16,2.03,4.8.58,1.59,1.12,3.21,1.54,4.86.42,1.64.8,3.35.7,5.05-.03.51-.77.6-.97.15-.68-1.49-1.04-3.12-1.49-4.68-.46-1.59-.94-3.18-1.49-4.75-.54-1.53-1.14-3.04-1.79-4.52-.67-1.55-1.45-3.08-2.02-4.67-.2-.56.52-1.06.93-.56"/>
  <path class="cls-27" d="M394.51,570.74c1.14,2.47,2.15,4.92,2.86,7.55.34,1.26.64,2.55.84,3.85.21,1.32.45,2.78.13,4.09-.11.45-.75.67-.98.16-.52-1.17-.65-2.48-.87-3.73-.23-1.29-.48-2.58-.78-3.86-.6-2.56-1.32-5.14-2.3-7.58-.28-.7.76-1.17,1.08-.48"/>
  <path class="cls-27" d="M383.52,610.46c.81,1.12,1.64,2.19,2.35,3.39.72,1.2,1.39,2.42,2.06,3.64.65,1.18,1.29,2.38,1.86,3.6.58,1.24,1.23,2.57,1.44,3.93.08.51-.56.76-.89.39-.89-.98-1.48-2.22-2.12-3.37-.68-1.22-1.29-2.47-1.93-3.7-.62-1.2-1.27-2.39-1.9-3.58-.65-1.23-1.17-2.51-1.77-3.76-.26-.53.55-1.04.9-.54"/>
  <path class="cls-27" d="M428.69,649.64c.83,1.12,1.25,2.54,1.73,3.83.5,1.35.97,2.72,1.44,4.08.54,1.53,1.07,3.05,1.6,4.58.62-4.85,1.27-9.7,2.21-14.5.13-.65,1.09-.58,1.05.1-.35,6.18-1.17,12.31-1.93,18.45-.11.84-1.43,1.18-1.75.28-.95-2.73-1.91-5.45-2.85-8.18-.46-1.32-.93-2.65-1.37-3.98-.45-1.35-1.06-2.81-1.11-4.24-.02-.49.62-.93.98-.43"/>
  <path class="cls-27" d="M424.57,654.95c.77.8,1.3,1.78,1.87,2.71.56.92,1.08,1.86,1.61,2.8.52.94,1.06,1.87,1.58,2.82.25.45.49.91.74,1.37.14.26.28.52.41.79.02.04.06.14.11.25.51.11.81,1.02.02,1.29-.7.24-1.16-.5-1.47-.99-.43-.68-.84-1.38-1.25-2.07-.83-1.41-1.66-2.82-2.46-4.24-.78-1.38-1.67-2.78-2.09-4.31-.15-.56.61-.75.94-.41"/>
  <path class="cls-27" d="M300.66,653.1c2.19,2.12,4.18,4.4,5.93,6.89.85,1.21,1.66,2.44,2.41,3.72.72,1.22,1.66,2.73,1.71,4.18.01.34-.36.68-.69.42-1.11-.89-1.81-2.38-2.53-3.57-.76-1.26-1.55-2.51-2.39-3.72-1.7-2.45-3.54-4.83-5.52-7.07-.59-.67.46-1.44,1.07-.85"/>
  <path class="cls-27" d="M306.52,653.91c1.29,1.66,2.53,3.39,3.55,5.23.5.9.99,1.83,1.4,2.78.41.94.86,1.96.82,2.99-.02.46-.61.56-.89.26-.67-.72-1.02-1.71-1.43-2.59-.42-.91-.85-1.82-1.32-2.71-.95-1.78-1.96-3.51-3.15-5.14-.5-.68.51-1.49,1.03-.82"/>
  <path class="cls-27" d="M326.28,657.37c.24-1.79.67-3.54,1.19-5.27.25-.83,1.49-.34,1.26.48-.46,1.65-.73,3.34-.87,5.04-.14,1.65.04,3.42-.41,5.02-.12.44-.8.42-.97.02-.68-1.61-.43-3.61-.2-5.3"/>
  <path class="cls-27" d="M245.75,605.71c1.09,1.58,2.14,3.18,3.16,4.81,1,1.6,2.13,3.25,2.6,5.09.1.41-.48.78-.8.49-1.42-1.28-2.37-3.03-3.32-4.66-.97-1.66-1.91-3.33-2.81-5.03-.36-.67.72-1.34,1.16-.7"/>
  <path class="cls-26" d="M877.51,329.5c-1.71-.18-3.39-.38-5.1-.43-1.78-.05-3.55-.02-5.33-.01-1.73,0-3.47,0-5.2.01-1.7,0-3.56-.14-5.19.34-.62.19-.38.97.11,1.11,1.59.47,3.47.3,5.12.31,1.73,0,3.47,0,5.2.01,1.69,0,3.38.03,5.07,0,1.78-.03,3.52-.24,5.29-.43.51-.06.57-.86.03-.92"/>
  <path class="cls-26" d="M868.39,313.07c-1.71-.18-3.39-.38-5.1-.43-1.78-.05-3.55-.02-5.33-.01-1.73,0-3.47,0-5.2.01-1.7,0-3.56-.14-5.19.34-.62.19-.38.97.11,1.11,1.59.47,3.47.3,5.12.31,1.73,0,3.47,0,5.2.01,1.69,0,3.38.03,5.07,0,1.78-.03,3.52-.24,5.29-.43.51-.05.57-.86.03-.92"/>
  <path class="cls-6" d="M764.71,414.12c-1.18,1.3-10.4-1.96-20.54-9.63-10.14-7.67-27.92-21.33-27.26-22.76.21-.46,4.37-8.21,9.89-18.45,3,1.77,4.86,5.33,4.52,8.78-.11,1.17-.45,2.4-.01,3.49.34.82,1.06,1.42,1.79,1.96,2.69,2.01,5.67,3.64,8.82,4.85,1.99-2,4.49-3.5,7.2-4.34.02.09.05.2.07.29-.4.73-.64,1.24-.69,1.46-.53,2.35,2.23,8.72,4.73,13.4,2.5,4.69,12.51,11.32,13.56,13.53s-.92,6.12-2.11,7.41"/>
  <polygon class="cls-15" points="715.47 288.98 755.37 432.98 777.09 427.51 743.52 282.74 715.47 288.98"/>
  <rect class="cls-10" width="1306.77" height="689.26"/>
  <g>
    <path class="cls-6" d="M805.46,439.32c-.22,1.57-8.88,3.76-20.49,3.07-11.63-.69-32.11-2.06-32.36-3.47-.08-.46-.94-8.4-2.05-18.93,3.18-.17,6.43,1.58,7.96,4.36.52.95.9,2.04,1.79,2.64.68.45,1.54.54,2.36.58,3.07.16,6.17-.1,9.17-.78.47-2.51,1.59-4.91,3.21-6.91.06.06.14.12.2.18.08.75.16,1.25.23,1.45.81,2.04,6.19,5.47,10.49,7.74,4.31,2.28,15.3,2.25,17.24,3.4,1.94,1.14,2.47,5.09,2.24,6.67"/>
    <path class="cls-17" d="M842.78,307.46l-1.41-3.78c16.38-5.95,18.22-16.01,18.25-20.07.05-6-3.46-11.38-8.72-13.39-6.65-2.53-14.59.6-21.78,8.57l-3.04-2.68c8.39-9.3,17.97-12.82,26.29-9.65,6.84,2.6,11.39,9.5,11.33,17.17-.08,10.18-7.9,19.08-20.92,23.81"/>
    <path class="cls-17" d="M641.29,417.75c-6.3-9.96-37.81-59.99-39.01-66.32-1.31-6.89,2.24-15.6,6.05-18.2,6.18-4.23,75.24-3.63,78.88-2.65,4.54,1.22,15.65,19,21.87,29.49l-3.83,2.21c-7.33-12.36-16.79-26.39-19.28-27.5-4.96-1.21-69.89-.9-75.15,2.07-2.04,1.4-5.25,8.2-4.19,13.78.81,4.25,23.99,42,38.42,64.8l-3.76,2.32h0Z"/>
    <path class="cls-17" d="M650.27,418.53l-3.13-3.1,68.9-68.06,1.28.4c.4.12,39.86,12.15,63.35,3.55,9.95-3.65,16.64-10.48,23.71-17.71,9.82-10.04,19.98-20.42,39.58-22.99l.58,4.34c-18.06,2.36-27.68,12.19-36.97,21.69-7.11,7.27-14.46,14.78-25.36,18.77-22.72,8.33-57.67-.99-64.93-3.09l-67.01,66.19h0Z"/>
    <path class="cls-17" d="M740.45,418.69l-36.57-106.37,4.2-1.41,35.33,102.77c12.29-2.43,39.84-9.52,46.5-18.67,3.58-4.91,5.57-10.69,7.69-16.8,3.14-9.07,6.38-18.45,15.09-26.81,14.43-13.86,39.69-22.02,40.76-22.37l1.36,4.17c-.25.08-25.36,8.2-39.04,21.34-7.94,7.63-11.01,16.5-13.98,25.09-2.22,6.42-4.32,12.49-8.28,17.94-9.5,13.05-49.48,20.47-51.17,20.78l-1.88.34h-.01Z"/>
    <path class="cls-17" d="M897.19,416.03l-56.66-108.88c-.56-1.08-.13-2.4.96-2.95,1.09-.55,2.42-.13,2.98.95l56.66,108.88-3.94,2Z"/>
    <path class="cls-7" d="M705.23,451.28c-11.78,20.4-34.01,34.18-59.43,34.18-7.04,0-13.83-1.06-20.22-3.02-.71-.22-1.41-.44-2.1-.68-.93-.32-1.84-.65-2.74-1-1-.39-1.99-.8-2.97-1.25-9.54-4.25-17.92-10.61-24.53-18.46-9.85-11.7-15.78-26.73-15.78-43.11,0-23.2,11.91-43.7,30-55.86,1.21-.82,2.45-1.61,3.72-2.34,10.15-5.93,22-9.33,34.62-9.33,18.52,0,35.37,7.33,47.69,19.21,1.06,1.01,2.08,2.06,3.08,3.15,10.92,11.97,17.59,27.81,17.59,45.16,0,12.11-3.25,23.49-8.92,33.33M700.75,368.66c-.99-1.09-2.01-2.14-3.08-3.15-13.4-12.94-31.71-20.92-51.87-20.92-13.64,0-26.43,3.64-37.42,10.01-1.27.73-2.51,1.5-3.73,2.31-19.95,13.17-33.11,35.62-33.11,61.05,0,16.52,5.56,31.79,14.93,44.06,9.15,12,21.95,21.15,36.77,25.82,1.39.45,2.8.85,4.23,1.2,5.86,1.48,12,2.27,18.33,2.27,28.91,0,54.01-16.39,66.27-40.28,5.12-9.94,8-21.18,8-33.08,0-18.96-7.32-36.26-19.32-49.29"/>
    <path class="cls-7" d="M652.96,417.95c0,3.91-3.21,7.07-7.16,7.07s-7.16-3.17-7.16-7.07,3.21-7.07,7.16-7.07,7.16,3.17,7.16,7.07"/>
    <path class="cls-29" d="M645.63,398.66c-.04-1.54-.13-3.07-.22-4.61-.18-3.15-.38-6.3-.59-9.46-.41-6.3-.88-12.6-1.39-18.9-.15-1.79-.29-3.57-.45-5.36-.15-1.74-.25-3.52-.88-5.16-.14-.35-.65-.28-.72.07-.3,1.53-.14,3.06-.03,4.6.11,1.58.26,3.15.39,4.72.26,3.15.5,6.3.73,9.45.46,6.21.89,12.43,1.27,18.65.11,1.79.22,3.58.35,5.36.13,1.76.21,3.62.61,5.34.1.44.81.57.88.03.2-1.55.1-3.18.06-4.74"/>
    <path class="cls-29" d="M650.7,359.19c-.03-.39-.64-.41-.69-.02-.23,1.58-.5,3.13-.63,4.72-.13,1.63-.27,3.27-.41,4.9-.14,1.59-.29,3.18-.43,4.78-.14,1.59-.32,3.24-.14,4.82.05.44.73.6.9.14.56-1.49.77-3.12.95-4.69.19-1.63.33-3.26.44-4.9.11-1.58.19-3.16.23-4.75.05-1.69-.09-3.32-.23-5"/>
    <path class="cls-29" d="M668.31,361.42c-.31.52-.67.98-.93,1.53-.25.54-.48,1.08-.7,1.63-.45,1.1-.86,2.21-1.28,3.32-.85,2.26-1.67,4.54-2.52,6.8-.83,2.23-1.68,4.44-2.47,6.68-.79,2.23-1.66,4.5-2.15,6.82-.11.54.64.69.88.26,1.18-2.05,2.02-4.31,2.89-6.5.89-2.25,1.72-4.52,2.55-6.79.82-2.23,1.65-4.45,2.43-6.7.39-1.12.78-2.25,1.14-3.38.17-.54.34-1.09.48-1.64.17-.62.18-1.23.28-1.85.06-.38-.44-.49-.62-.18"/>
    <path class="cls-29" d="M631.16,416.9c-.68-.32-1.42-.44-2.15-.6-.8-.18-1.59-.38-2.39-.55-1.56-.33-3.12-.63-4.68-.93-3.13-.59-6.26-1.18-9.39-1.75-6.18-1.14-12.36-2.23-18.56-3.29-1.78-.3-3.57-.59-5.35-.87-.85-.13-1.7-.25-2.56-.35-.95-.12-1.9-.09-2.85-.18-.61-.06-.74.78-.15.92.76.18,1.49.47,2.25.64.8.18,1.6.35,2.4.5,1.57.29,3.13.58,4.7.86,3.14.55,6.27,1.1,9.41,1.66,6.18,1.11,12.36,2.24,18.53,3.4,1.78.33,3.55.69,5.33.99.85.15,1.7.26,2.55.4.9.15,1.81.37,2.72.32.64-.03.73-.92.19-1.17"/>
    <path class="cls-29" d="M608.5,419.82c-4.01-.23-8.04.4-12.03.85-1.98.22-3.95.45-5.93.69-1.03.12-2.06.26-3.09.4-1.01.14-1.99.29-2.9.76-.36.19-.33.67.08.77.99.25,1.97.19,2.98.1.99-.08,1.98-.18,2.97-.28,2.02-.21,4.04-.43,6.07-.65,3.99-.44,8.07-.71,11.93-1.83.4-.11.34-.79-.08-.81"/>
    <path class="cls-29" d="M627.08,430.83c-6.69,6.13-13.52,12.15-20.79,17.61-1.04.79-2.09,1.56-3.14,2.35-1.01.75-2.14,1.48-2.92,2.47-.34.43.11.99.61.83,1.07-.35,2.01-1.05,2.93-1.67.95-.64,1.89-1.31,2.81-2,1.85-1.37,3.66-2.77,5.46-4.2,3.58-2.86,7.03-5.88,10.35-9.03,1.89-1.8,3.65-3.68,5.4-5.62.39-.43-.28-1.14-.72-.74"/>
    <path class="cls-29" d="M705.67,415.11c-1.44-.23-3-.15-4.45-.1-1.47.05-2.95.12-4.42.2-2.99.16-5.97.35-8.96.52-5.97.35-11.94.67-17.91,1.08-1.64.11-3.28.22-4.92.36-1.65.14-3.42.16-4.99.72-.38.14-.28.65.08.73,1.43.33,2.96.2,4.42.15,1.47-.04,2.95-.11,4.42-.18,2.99-.14,5.97-.31,8.96-.47,5.97-.33,11.94-.68,17.91-1.03,1.64-.1,3.29-.2,4.93-.33,1.66-.13,3.42-.23,5.03-.68.51-.14.37-.9-.1-.97"/>
    <path class="cls-29" d="M704.32,406.27c-1.03-.19-2.2.07-3.23.24-1.11.19-2.21.39-3.32.6-2.26.42-4.51.87-6.76,1.3-2.21.42-4.42.87-6.63,1.33-2.15.45-4.55.76-6.55,1.69-.26.12-.28.59.06.61,2.23.14,4.57-.43,6.76-.8,2.22-.38,4.43-.77,6.64-1.18s4.43-.81,6.64-1.23c1.11-.21,2.21-.42,3.32-.65,1.08-.23,2.34-.42,3.28-1.01.39-.24.18-.83-.22-.9"/>
    <path class="cls-7" d="M946.12,466.46c-12.31,11.76-29.05,19-47.49,19-24.44,0-45.92-12.73-57.99-31.82-6.57-10.36-10.36-22.6-10.36-35.69,0-25.98,14.93-48.58,36.77-59.86,1.3-.68,2.63-1.32,3.98-1.9,8.44-3.7,17.79-5.76,27.6-5.76,37.69,0,68.35,30.3,68.35,67.52,0,19.02-8.01,36.23-20.86,48.51M898.63,344.59c-10.79,0-21.05,2.29-30.3,6.39-1.35.6-2.69,1.24-3.99,1.92-23.74,12.25-39.97,36.81-39.97,65.05,0,12.74,3.3,24.73,9.11,35.18,12.62,22.73,37.1,38.17,65.15,38.17,21.54,0,40.96-9.1,54.52-23.61,12.25-13.08,19.73-30.56,19.73-49.74,0-40.45-33.31-73.36-74.26-73.36M867.04,358.09l-2.71-5.19c-23.74,12.25-39.97,36.81-39.97,65.05,0,12.74,3.3,24.73,9.11,35.18,2.39.17,4.77.33,7.16.52-6.57-10.36-10.36-22.6-10.36-35.69,0-25.98,14.93-48.58,36.77-59.86"/>
    <path class="cls-7" d="M905.79,417.95c0,3.91-3.21,7.07-7.16,7.07s-7.16-3.17-7.16-7.07,3.21-7.07,7.16-7.07,7.16,3.17,7.16,7.07"/>
    <path class="cls-29" d="M898.46,398.66c-.04-1.54-.13-3.07-.22-4.61-.18-3.15-.38-6.3-.59-9.46-.41-6.3-.88-12.6-1.39-18.9-.15-1.79-.29-3.57-.45-5.36-.15-1.74-.25-3.52-.88-5.16-.14-.35-.65-.28-.72.07-.3,1.53-.14,3.06-.03,4.6.11,1.58.26,3.15.39,4.72.26,3.15.5,6.3.73,9.45.46,6.21.89,12.43,1.27,18.65.11,1.79.22,3.58.35,5.36.13,1.76.21,3.62.61,5.34.1.44.81.57.88.03.2-1.55.1-3.18.06-4.74"/>
    <path class="cls-29" d="M903.53,359.19c-.03-.39-.64-.41-.69-.02-.23,1.58-.5,3.13-.63,4.72-.13,1.63-.27,3.27-.41,4.9-.14,1.59-.29,3.18-.43,4.78-.14,1.59-.32,3.24-.14,4.82.05.44.73.6.9.14.56-1.49.77-3.12.95-4.69.19-1.63.33-3.26.44-4.9.11-1.58.19-3.16.23-4.75.05-1.69-.09-3.32-.23-5"/>
    <path class="cls-29" d="M921.14,361.42c-.31.52-.67.98-.93,1.53-.25.54-.48,1.08-.7,1.63-.45,1.1-.86,2.21-1.28,3.32-.85,2.26-1.67,4.54-2.52,6.8-.83,2.23-1.68,4.44-2.47,6.68-.79,2.23-1.66,4.5-2.15,6.82-.11.54.64.69.88.26,1.18-2.05,2.02-4.31,2.89-6.5.89-2.25,1.72-4.52,2.55-6.79.82-2.23,1.65-4.45,2.43-6.7.39-1.12.78-2.25,1.14-3.38.17-.54.34-1.09.48-1.64.17-.62.18-1.23.28-1.85.06-.38-.44-.49-.62-.18"/>
    <path class="cls-29" d="M883.99,416.9c-.68-.32-1.42-.44-2.15-.6-.8-.18-1.59-.38-2.39-.55-1.56-.33-3.12-.63-4.68-.93-3.13-.59-6.26-1.18-9.39-1.75-6.18-1.14-12.36-2.23-18.56-3.29-1.78-.3-3.57-.59-5.35-.87-.85-.13-1.7-.25-2.56-.35-.95-.12-1.9-.09-2.85-.18-.61-.06-.74.78-.15.92.76.18,1.49.47,2.25.64.8.18,1.6.35,2.4.5,1.57.29,3.13.58,4.7.86,3.14.55,6.27,1.1,9.41,1.66,6.18,1.11,12.36,2.24,18.53,3.4,1.78.33,3.55.69,5.33.99.85.15,1.7.26,2.55.4.9.15,1.81.37,2.72.32.64-.03.73-.92.19-1.17"/>
    <path class="cls-29" d="M861.32,419.82c-4.01-.23-8.04.4-12.03.85-1.98.22-3.95.45-5.93.69-1.03.12-2.06.26-3.09.4-1.01.14-1.99.29-2.9.76-.36.19-.33.67.08.77.99.25,1.97.19,2.98.1.99-.08,1.98-.18,2.97-.28,2.02-.21,4.04-.43,6.07-.65,3.99-.44,8.07-.71,11.93-1.83.4-.11.34-.79-.08-.81"/>
    <path class="cls-29" d="M879.91,430.83c-6.69,6.13-13.52,12.15-20.79,17.61-1.04.79-2.09,1.56-3.14,2.35-1.01.75-2.14,1.48-2.92,2.47-.34.43.11.99.61.83,1.07-.35,2.01-1.05,2.93-1.67.95-.64,1.89-1.31,2.81-2,1.85-1.37,3.66-2.77,5.46-4.2,3.58-2.86,7.03-5.88,10.35-9.03,1.89-1.8,3.65-3.68,5.4-5.62.39-.43-.28-1.14-.72-.74"/>
    <path class="cls-29" d="M958.5,415.11c-1.44-.23-3-.15-4.45-.1-1.47.05-2.95.12-4.42.2-2.99.16-5.97.35-8.96.52-5.97.35-11.94.67-17.91,1.08-1.64.11-3.28.22-4.92.36-1.65.14-3.42.16-4.99.72-.38.14-.28.65.08.73,1.43.33,2.96.2,4.42.15,1.47-.04,2.95-.11,4.42-.18,2.99-.14,5.97-.31,8.96-.47,5.97-.33,11.94-.68,17.91-1.03,1.64-.1,3.29-.2,4.93-.33,1.66-.13,3.42-.23,5.03-.68.51-.14.37-.9-.1-.97"/>
    <path class="cls-29" d="M957.14,406.27c-1.03-.19-2.2.07-3.23.24-1.11.19-2.21.39-3.32.6-2.26.42-4.51.87-6.76,1.3-2.21.42-4.42.87-6.63,1.33-2.15.45-4.55.76-6.55,1.69-.26.12-.28.59.06.61,2.24.14,4.57-.43,6.76-.8,2.22-.38,4.43-.77,6.64-1.18s4.43-.81,6.64-1.23c1.11-.21,2.21-.42,3.32-.65,1.08-.23,2.34-.42,3.28-1.01.39-.24.18-.83-.22-.9"/>
    <path class="cls-7" d="M679.22,291.81s-4.35,1.07-4.54,10.05c-.2,8.98,7.41,12.2,18.27,11.8,10.86-.39,20.15-1.07,27.65-.98,7.51.1,10.27,1.07,10.77-1.56.49-2.63-52.15-19.32-52.15-19.32"/>
    <path class="cls-15" d="M748.52,379.77c-.53,2.35,2.23,8.72,4.73,13.4,2.5,4.69,12.51,11.32,13.56,13.53s-.92,6.12-2.11,7.41c-1.18,1.3-10.4-1.96-20.54-9.63-10.14-7.67-27.92-21.33-27.26-22.76.21-.46,4.37-8.21,9.89-18.45,11.48-21.27,28.83-53.35,28.83-53.35l-23.57-5.59,1.31-45.53s31.87,16,50.04,28.48c18.17,12.49,8.42,25.76-2.76,42.41-10.1,15.04-27.72,41.83-31.44,48.62-.4.73-.64,1.24-.69,1.46"/>
    <path class="cls-15" d="M799.48,269.45c8.94,16.73,30.95-.41,34.4,13.88,1.81.77,4.7,0,4.5-2.29,2.07.05,3.95-1.47,3.9-3.57,6.64-3.73-.68-12.17-4.91-14.19-8.86-4.23-20.47,1.54-30.09-2.79-2.61,2.43-5.24,4.94-7.84,7.37-.04.22.09,1.37.05,1.59"/>
    <path class="cls-15" d="M761.82,156.69s-2.67,2.71-5.58,6.99c-2.8,4.13-5.83,9.72-6.93,15.78l-20.41-11.32s8.68-5.69,12.34-14.9c.95-2.36,1.56-4.94,1.62-7.73l18.96,11.18h0Z"/>
    <path class="cls-4" d="M761.82,156.69s-2.67,2.71-5.58,6.99c-2.71-1.29-6.59-3.3-10.65-6.01-2.29-1.53-3.62-3.06-4.35-4.43.95-2.36,1.56-4.94,1.62-7.73l18.96,11.18h0Z"/>
    <path class="cls-22" d="M767.75,276.11c.26,1.55-24.76,35.64-26.07,36.94-.38.37-2.57.2-6.01-.41-.45-.07-.93-.15-1.43-.26-8.9-1.67-24.4-5.6-39.19-10-21.86-6.5-27.66-18.73-26.33-32,1.31-13.26,6.06-24.97,6.06-24.97l59.52,10.67s17.92,9.97,27.53,15.88c.32.2.62.39.93.58,2.96,1.84,4.93,3.19,4.99,3.57"/>
    <path class="cls-8" d="M746.77,151.89c3.23-1,5.26-4.8,4.27-8,3.14-.55,6.31-1.12,9.21-2.43s5.53-3.46,6.74-6.37c.75-1.82.97-3.95,2.32-5.39,1.17-1.25,2.94-1.7,4.53-2.34,3.76-1.51,7.12-4.74,7.43-8.73.31-4.03-2.61-7.76-6.23-9.64s-7.82-2.27-11.9-2.5c-10.05-.57-20.24-.31-30.01,2.1-.8-5.41-4.39-10.37-9.35-12.8-4.96-2.43-11.18-2.22-15.91.62-7.21,4.33-9.87,13.28-15.36,19.61-6.07,7.02-15.97,10.59-25.19,9.1-.56,5.95,3.27,12.05,8.91,14.2-1.79.31-3.71.87-5.5,1.17,3.65,4.84,9.28,8.19,15.33,9.11,6.04.92,12.43-.59,17.4-4.12,5-3.56,8.39-8.89,11.34-14.23,2.96-5.34,5.66-10.92,9.76-15.47,1.08-1.19,2.28-2.34,3.8-2.91,1.51-.57-.27,3.47-1.66,5.58-1.4,2.11-2.28,4.51-2.96,6.94-1.11,3.97-1.75,8.13-1.19,12.21s2.4,8.09,5.59,10.73c4.31,3.57,10.37,4.21,15.99,3.99.51-.02,2.17-.26,2.65-.41"/>
    <path class="cls-15" d="M780.25,142.78c-1.55-.7-3.78-2.83-4.48-4.29.03-7.24.19-15.42-1.05-16.65-2.24-2.21-2.11,4.03-10.53,5.59-8.42,1.56-4.21,12.88-16.85,11.45,0,0-1.18-5.59-6.45-4.94s-5.14,13.4,3.82,13.66c0,0,1.32,5.33,5.27,7.54,3.95,2.21,21.73,7.54,24.1,5.59s1.58-7.67,1.58-7.67c0,0-3.69-.65-4.21-3.77,0,0,3.42.39,4.61.52.3.03.55-1.64.7-4.18,3.11,0,6.35-1.56,3.51-2.85"/>
    <path class="cls-16" d="M770.48,136.94c0,.94-.53,1.71-1.18,1.71s-1.18-.76-1.18-1.71.53-1.71,1.18-1.71,1.18.76,1.18,1.71"/>
    <path class="cls-4" d="M744.06,141.32c-.26-.47-.55-.93-.87-1.37-.3-.4-.63-.94-1.14-1.09-.11-.03-.24.03-.22.16.05.49.43.91.69,1.31.21.33.41.68.6,1.02-.14-.04-.27-.08-.41-.12-.25-.06-.5-.13-.75-.17-.13-.02-.26-.02-.39-.03-.14,0-.27,0-.41.05-.2.06-.18.3-.07.41.1.1.2.17.33.22.12.05.23.11.35.16.26.1.53.17.8.24.25.07.5.13.75.17.09.02.19.02.29.02.11.25.22.5.33.75.22.48.39.99.72,1.41.11.15.4.11.42-.1.09-1.05-.52-2.15-1.02-3.04"/>
    <path class="cls-19" d="M707.85,117.51c-.42.53-.83,1.02-1.17,1.6-.36.63-.75,1.25-1.12,1.88-.72,1.23-1.45,2.46-2.21,3.67-1.46,2.32-3.06,4.56-4.9,6.59-3.56,3.92-8.15,6.97-13.48,7.87-2.86.48-5.87.28-8.65-.52-.31-.09-.39.36-.15.5,4.76,2.76,10.78,1.72,15.48-.64,5.19-2.61,9.06-6.99,12.18-11.77,1.79-2.75,3.64-5.67,4.69-8.78.13-.39-.37-.77-.66-.4"/>
    <path class="cls-19" d="M731.86,109.89c-.66-2.28-2.73-4.37-4.65-5.7-2.17-1.5-4.69-2.35-7.35-2.39-2.63-.03-5.13.92-7.19,2.52-1.95,1.52-3.5,3.48-4.99,5.42-1.03,1.34-2.06,2.68-3.06,4.04-.52.71-1.07,1.41-1.54,2.15-.47.72-1.08,1.39-1.42,2.18-.18.43.35.9.74.59.51-.4.89-.92,1.3-1.42.49-.59,1-1.17,1.48-1.77.88-1.1,1.74-2.21,2.6-3.32,1.46-1.9,2.88-3.88,4.61-5.55,1.68-1.61,3.71-2.87,6.07-3.17,2.47-.32,5.01.28,7.15,1.52,1.14.66,2.16,1.51,3.09,2.43.92.91,1.67,1.96,2.58,2.87.28.28.67-.11.58-.42"/>
    <path class="cls-19" d="M701.17,113.78c-.65.45-1.13,1.29-1.57,1.92-.49.7-1,1.39-1.53,2.06-1.06,1.35-2.2,2.61-3.19,4-.2.28.12.61.42.43,1.52-.93,2.73-2.22,3.81-3.62.53-.68,1.01-1.38,1.47-2.11.43-.68,1.02-1.58,1.07-2.41.01-.25-.24-.44-.47-.28"/>
    <path class="cls-19" d="M762.03,114.58c-.55-.58-1.31-.9-2.04-1.22-.8-.35-1.63-.64-2.46-.9-1.65-.51-3.35-.91-5.07-1.12-3.35-.41-6.94-.22-9.94,1.44-.27.15-.08.65.23.58,3.21-.71,6.45-1.04,9.72-.57,1.59.23,3.15.61,4.68,1.1.8.25,1.59.53,2.38.8.72.25,1.44.55,2.2.57.32,0,.52-.46.31-.68"/>
    <path class="cls-19" d="M761.36,118.27c-.91-1.4-2.75-2.17-4.3-2.67-1.67-.53-3.33-.74-5.08-.72-.41,0-.43.66-.02.71,1.6.21,3.21.67,4.7,1.28.74.3,1.47.62,2.18,1.01s1.4.74,2.18.95c.33.09.5-.33.35-.56"/>
    <path class="cls-19" d="M732.47,118.64c-1.14.81-1.86,2.09-2.42,3.35-.57,1.29-.98,2.66-1.22,4.04-.25,1.39-.34,2.81-.26,4.21.07,1.33.21,2.89,1,4.02.15.22.56.14.58-.14.12-1.26-.19-2.55-.24-3.81-.05-1.36.05-2.73.3-4.07.24-1.31.62-2.58,1.11-3.82.48-1.2,1.12-2.35,1.47-3.6.05-.18-.19-.29-.33-.2"/>
    <path class="cls-19" d="M733.84,124.6c-.23-.07-.56.03-.64.29-.29.88-.56,1.77-.65,2.7-.05.47-.09.96-.07,1.43.02.49.1,1.1.58,1.35.14.07.32.04.45-.05.4-.27.41-.83.43-1.26.02-.44.02-.86.04-1.3.06-.86.09-1.73.23-2.59.04-.26-.12-.52-.38-.59"/>
    <path class="cls-19" d="M777.44,115.45v-.05c0-.17,0-.3-.06-.46-.13-.4-.35-.8-.61-1.14-.52-.66-1.23-1.2-2.03-1.47-.25-.09-.54,0-.66.25-.11.24,0,.54.25.65.16.07.32.14.47.23.02.01.06.04.07.04.04.03.08.05.12.08.07.05.13.1.19.15.08.06.15.13.22.19,0,0,.1.1.05.05-.05-.05.04.04.05.05.13.14.24.28.35.44.05.07.1.15.15.22.02.03.04.07.07.1,0,0,.03.06.05.08.01.02.03.05.03.06.02.04.04.09.06.13.04.08.07.16.11.24.04.11.1.22.17.32.01.01.04.07.05.08.01.03.02.05.03.08.07.18.16.35.26.52.11.19.44.14.52-.06.08-.21.11-.42.1-.64,0-.05,0-.1-.01-.14"/>
    <path class="cls-6" d="M761.83,271.96c-.74,1.01-1.49,2.03-2.22,3.05-2.48,3.46-4.94,6.94-7.37,10.44-4.14,5.97-8.19,11.99-12.19,18.05-10.88-2.58-21.94-5.29-31.86-10.57-2.5-1.33-4.9-2.82-7.17-4.5-2.27-1.68-4.46-3.53-6.14-5.82-3.41-4.66-3.89-10.64-3.86-16.21.02-3.59.25-7.17.62-10.73.38-3.61,1.07-7.16,1.68-10.74.03-.17-.24-.26-.29-.09-.95,3.12-1.51,6.36-1.99,9.58-.48,3.21-.77,6.44-.87,9.69-.18,5.7-.09,11.84,2.68,17,2.69,5,7.78,8.51,12.59,11.35,4.96,2.93,10.32,5.13,15.79,6.94,5.99,1.98,12.12,3.48,18.26,4.96-.45.69-.92,1.37-1.37,2.06-1.29,1.99-2.59,3.95-3.86,5.95.5.1.98.18,1.43.26.91-1.38,1.79-2.77,2.69-4.16,2.29-3.53,4.62-7.05,6.96-10.57,4.67-7.01,9.46-13.96,14.29-20.88,1.04-1.49,2.1-2.99,3.14-4.49-.3-.19-.6-.38-.93-.58"/>
    <path class="cls-6" d="M764.71,414.12c-1.18,1.3-10.4-1.96-20.54-9.63-10.14-7.67-27.92-21.33-27.26-22.76.21-.46,4.37-8.21,9.89-18.45,3,1.77,4.86,5.33,4.52,8.78-.11,1.17-.45,2.4-.01,3.49.34.82,1.06,1.42,1.79,1.96,2.69,2.01,5.67,3.64,8.82,4.85,1.99-2,4.49-3.5,7.2-4.34.02.09.05.2.07.29-.4.73-.64,1.24-.69,1.46-.53,2.35,2.23,8.72,4.73,13.4,2.5,4.69,12.51,11.32,13.56,13.53s-.92,6.12-2.11,7.41"/>
    <path class="cls-4" d="M837.93,277.88c-.55-1.03-1.21-2.02-2-2.89-1.58-1.74-3.54-3.06-5.73-3.94-.46-.18-.77.5-.31.7,2.05.88,3.83,2.3,5.23,4.01.68.83,1.29,1.71,1.78,2.67.5.99.86,2.04,1.39,3,.19.35.65.05.65-.25.01-1.14-.48-2.31-1.01-3.3"/>
    <path class="cls-4" d="M842.19,275.18c-.25-.56-.55-1.09-.89-1.6-.68-1.05-1.49-2.01-2.4-2.88-1.78-1.71-3.96-3.05-6.39-3.61-.21-.05-.28.25-.1.34,2.13,1.03,4.14,2.32,5.81,4,.81.82,1.54,1.75,2.17,2.72.32.5.62,1.01.91,1.53.26.47.53,1.06.89,1.47.19.21.5.08.5-.19,0-.57-.27-1.26-.5-1.77"/>
    <path class="cls-11" d="M762.48,429.66c0,8.94-7.34,16.2-16.39,16.2s-16.4-7.25-16.4-16.2,7.34-16.19,16.4-16.19,16.39,7.25,16.39,16.19"/>
  </g>
  <polygon class="cls-7" points="725.74 390.44 721.79 394.34 745.1 411.12 747.86 406.44 725.74 390.44"/>
  <g class="cls-37">
    <g>
      <path class="cls-7" d="M746.83,431.33c-.43,0-.84-.25-1.02-.67l-12.42-28.88c-.24-.56.02-1.2.59-1.44.57-.23,1.21.02,1.45.58l12.42,28.88c.24.56-.02,1.2-.59,1.44-.14.06-.29.09-.43.09"/>
      <path class="cls-14" d="M725.54,168.79s-.01,0-.01,0c-.62,1.07-33.79,57.86-47.02,77.27-.64.95-1.23,1.8-1.77,2.55-1.7,2.37-2.88,3.76-3.35,3.86-.23.05-.56,0-.99-.11-6.81-1.85-37.46-23.27-33.38-38.12.24-.87.62-1.76,1.14-2.68.19-.34.41-.7.64-1.05,5.39-8.29,20.57-18.28,35.73-26.45.41-.23.81-.45,1.23-.67,13.28-7.08,26.35-12.68,32.58-14.43,14.62-4.1,15.21-.2,15.21-.2"/>
      <path class="cls-28" d="M746.68,244.3s-1.18,14.05-5.93,16.2c-4.74,2.15-30.42-.39-46.61-4.29-16.2-3.9-18.96-8.71-19.36-10.8-.4-2.08,8.49-27.45,21.14-45.98,12.64-18.54,28.06-29.49,29.63-30.63,4.54-3.32,15.6-.78,21.33,5.07,5.73,5.85,23.9,38.83,33.58,50.92,9.68,12.1,33.18,32.19,33.38,33.76.2,1.56-13.63,14.44-16.4,15.02-2.77.59-39.9-15.22-50.76-29.27"/>
      <path class="cls-1" d="M746.22,242.88c-.62-1.07-1.45-2.04-2.22-3.03-.79-1.02-1.58-2.04-2.37-3.06-1.55-2-3.08-4.02-4.57-6.06-2.96-4.06-5.74-8.21-8.11-12.54-4.64-8.48-7.49-17.7-7.16-27.12.18-5.13,1.31-10.38,3.67-15.11.15-.3-.35-.48-.53-.2-1.33,2.08-2.4,4.18-3.24,6.45-.82,2.22-1.39,4.48-1.69,6.79-.61,4.71-.34,9.5.69,14.15,2.12,9.6,7.1,18.57,13.15,26.8,1.73,2.35,3.53,4.66,5.4,6.93.94,1.14,1.89,2.26,2.85,3.38.97,1.13,1.88,2.3,3.02,3.3.48.43,1.4-.17,1.1-.69"/>
      <path class="cls-3" d="M680.78,193.18c-.52,1.09-1.37,2.01-2.21,2.87-1.08,1.09-2.17,2.19-3.25,3.29-2.15,2.17-4.3,4.35-6.45,6.52-2.18,2.2-4.36,4.41-6.54,6.61-1.94,1.95-3.79,4.11-6.01,5.77-1.91,1.45-4.25,2.31-6.67,1.76-2.37-.54-4.35-2.07-5.98-3.79-1.34-1.4-2.49-2.98-3.51-4.62.19-.34.41-.7.64-1.05,1.3,2.07,2.82,4.11,4.65,5.74,1.7,1.51,3.88,2.8,6.24,2.6,2.4-.22,4.31-1.9,5.93-3.5,4.02-3.98,7.95-8.05,11.94-12.08,2.02-2.05,4.06-4.1,6.08-6.15.92-.93,1.88-1.83,2.73-2.81.74-.82,1.46-1.8,1.54-2.93.1-1.35-.72-2.61-1.36-3.73-.68-1.19-1.37-2.38-2.03-3.57.41-.23.81-.45,1.23-.67.28.48.55.98.82,1.46,1.38,2.49,3.6,5.36,2.21,8.3"/>
      <path class="cls-4" d="M749.28,318.65c-.75.85-1.32,1.95-1.89,2.93-.61,1.04-1.21,2.08-1.79,3.14-1.19,2.14-2.33,4.3-3.45,6.47-2.22,4.3-4.35,8.66-6.34,13.07-.55,1.21-1.1,2.41-1.58,3.65-.48,1.25-1.05,2.52-1.32,3.83-.05.24.3.4.45.2.67-.92,1.16-1.98,1.7-2.98.57-1.06,1.1-2.14,1.62-3.22,1.04-2.16,2.09-4.33,3.14-6.48,2.11-4.31,4.33-8.57,6.53-12.85.6-1.18,1.22-2.35,1.82-3.53.32-.63.64-1.25.95-1.88.3-.62.66-1.27.86-1.92.13-.42-.36-.78-.68-.41"/>
      <path class="cls-4" d="M759.71,358.53c-.32.3-.51.74-.72,1.12-.24.42-.45.85-.68,1.28-.41.78-.83,1.56-1.24,2.34-.88,1.66-1.77,3.32-2.7,4.96-.91,1.61-1.86,3.18-2.82,4.75-.48.78-.98,1.56-1.44,2.35-.48.82-.85,1.7-1.29,2.54-.17.33.31.59.55.33.64-.73,1.31-1.4,1.89-2.17.55-.74,1.05-1.51,1.55-2.29,1.01-1.57,1.97-3.17,2.9-4.79.92-1.6,1.8-3.21,2.63-4.86.43-.86.84-1.73,1.23-2.6.35-.77.92-1.74.96-2.59.03-.48-.48-.68-.82-.36"/>
      <path class="cls-18" d="M922.2,282c-.9-4.81-5.26-8.62-10.34-7.88-1.8.26-3.42,1.02-4.74,2.16.77-3.08,1.11-6.33-.27-9.27-1.36-2.9-4.28-4.88-7.57-4.03-1.2.31-2.29,1.01-2.98,2-1.41-2.08-4.32-2.9-6.74-2.21-3.35.96-5.34,4.35-5.98,7.54-.42,2.09-.38,4.25-.25,6.38-1.05-.32-2.25-.08-3.17.59-1.64,1.2-1.93,3.46-1.63,5.32.64,4.04,3.05,7.72,6.04,10.46,3.33,3.05,7.56,4.96,11.95,5.99,4.45,1.04,9.43,1.47,13.87.15,3.66-1.09,7.02-3.82,7.96-7.49,2.87-2.28,4.54-6.02,3.86-9.7"/>
      <path class="cls-27" d="M901.86,281.63c-.76,1.1-1.25,2.48-1.72,3.72-.51,1.36-.98,2.73-1.4,4.11-.2.65-.37,1.31-.56,1.97-.07-2.08-.23-4.16-.48-6.23-.51-4.21-1.47-8.37-2.65-12.45-.18-.61-1.09-.25-.93.35,2.1,7.96,2.88,16.4,2.5,24.61-.05.96,1.32,1.23,1.52.25.54-2.72,1.2-5.42,2-8.09.4-1.33.83-2.65,1.28-3.96.21-.62.45-1.25.64-1.88.21-.68.49-1.35.61-2.05.08-.43-.55-.74-.81-.36"/>
      <path class="cls-26" d="M944.44,291.17c-.54-2.09-1.59-4.21-3.23-5.67-1.83-1.63-4.34-1.85-6.67-2.21-5.02-.79-10.22-1.43-15.23-.24-4.09.97-7.95,3.11-10.27,6.67-.59.91-1.13,1.91-2.04,2.56-.89.63-2.02.82-3.07,1-2.08.36-3.96.9-5.59,2.3-3.47,2.98-4.55,7.58-4.73,11.95v.33c-.55.94-.97,1.94-1.27,3.01-.06.23.11.5.32.59,2.3.97,4.71,1.96,7.24,2.09,1.19.06,2.37-.08,3.5-.45,1.15-.38,2.22-1,3.42-1.25,2.3-.47,4.63.3,6.92.49,2.03.17,3.92-.2,5.59-1.37,3.05-2.14,4.92-6.13,9.02-6.48,2.43-.21,4.82.55,7.25.42,2.04-.1,3.99-.92,5.54-2.23,3.37-2.85,4.38-7.36,3.3-11.51"/>
      <path class="cls-30" d="M927.39,292.04c1.23-.29,2.48-.54,3.67-.99.39-.15.36-.8-.09-.84-2.27-.22-4.61.43-6.77,1.07-2.23.66-4.4,1.49-6.49,2.51-4.17,2.03-7.98,4.71-11.29,7.94-1.87,1.83-3.56,3.83-5.06,5.95-.36.51.39,1.12.77.61,2.23-3,4.89-5.68,7.85-7.98,3.22-1.35,6.55-2.31,10-2.89,1.79-.3,3.6-.5,5.42-.59.91-.05,1.82-.07,2.72-.08.91,0,1.93.06,2.82-.13.29-.06.46-.51.1-.64-.82-.29-1.79-.33-2.65-.37-.92-.05-1.84-.04-2.76,0-1.93.08-3.87.3-5.77.64-2.23.39-4.42.99-6.57,1.72,3.24-2.07,6.75-3.73,10.41-4.92,1.21-.39,2.45-.72,3.69-1.02"/>
      <path class="cls-30" d="M901.08,297.76c-.28-4.85-3.82-9.37-8.93-9.68-1.79-.11-3.58.27-5.1,1.13.72-3.25.08-6.76-1.75-9.57-2.35-3.61-6.6-5.5-10.88-5.29-2.26.11-4.47.83-6.34,2.08-2.52-2-6.2-2.07-9.03-.66-3.49,1.74-5.22,5.36-5.18,9.13.02,1.93.52,3.81,1.37,5.54-2.55,1.19-3.8,4.03-3.75,6.76.06,3.5,2.61,6.28,5.74,7.63,1.89.81,3.88,1.07,5.92,1.03,3.24,2.78,7.27,4.46,11.35,5.68,2.25.67,4.57,1.33,6.9,1.67,2.2.32,4.52.26,6.53-.77,1.1-.57,2.09-1.38,2.74-2.38.5.19,1.05.28,1.61.24.58-.04,1.11-.2,1.61-.48.1-.05.2-.13.3-.2,4.22-2.27,7.18-7.11,6.91-11.87"/>
      <path class="cls-26" d="M881.23,308.49c-.09-1.08-.28-2.16-.5-3.22-.27-1.31-.61-2.6-1.01-3.88.24-1.41.27-2.87.26-4.3-.02-1.79-.15-3.57-.4-5.33-.48-3.47-1.35-6.91-3.06-9.99-.14-.26-.62-.08-.55.21.8,3.33,1.73,6.64,2.21,10.03.24,1.69.39,3.39.45,5.09.02.43.02.87.02,1.3-1.57-3.86-3.73-7.53-6.47-10.7-1.62-1.88-3.41-3.58-5.35-5.13-.42-.34-.93.29-.53.65,3.93,3.49,7.16,7.85,9.47,12.62-.6-.13-1.2-.24-1.8-.34-1.05-.19-2.1-.38-3.15-.55-1.01-.16-2.03-.33-3.04-.45-1.02-.12-2.04-.29-3.07-.24-.42.02-.51.63-.13.78.92.37,1.9.54,2.86.76,1.04.24,2.09.41,3.14.6,1.9.34,3.89.78,5.84.85,1.08,2.46,1.92,5.01,2.49,7.59.25,1.13.43,2.27.61,3.41.18,1.17.28,2.42.67,3.55.17.49.84.34.95-.1.26-1.02.19-2.17.1-3.21"/>
      <path class="cls-14" d="M856.1,304.98s10.67,30.83,11.85,31.61c1.18.78,53.73-.78,53.73-.78l8.3-30.83h-73.88Z"/>
      <path class="cls-3" d="M882.75,312.39c-1.47-.61-3.23-.37-4.79-.43-1.62-.07-3.3-.34-4.92-.19-.56.05-.73.89-.18,1.1,1.53.59,3.29.66,4.92.74,1.58.08,3.49.33,4.95-.42.31-.16.4-.64.02-.8"/>
      <path class="cls-3" d="M876.03,308.49c-.51-.24-1.08-.3-1.64-.33-.61-.03-1.22-.03-1.84-.02-1.16.01-2.32.03-3.49.04-.39,0-.67.42-.64.77.04.41.39.63.78.63,1.14,0,2.29.02,3.43.04.57,0,1.14,0,1.71-.02.56-.02,1.15-.09,1.66-.32.33-.15.38-.62.02-.79"/>
      <path class="cls-3" d="M913.95,327.99c-1.76-.53-3.64-.39-5.47-.44-.94-.03-1.88-.09-2.82-.12-.43-.01-.86-.04-1.29-.05-.52,0-1.04.07-1.56.03-.71-.06-.9.97-.18,1.1.93.17,1.82.46,2.76.59.97.13,1.94.18,2.92.22,1.86.07,3.88.19,5.61-.56.29-.13.39-.65.02-.76"/>
      <path class="cls-3" d="M916.86,324.88c-.54-.42-1.37-.42-2.04-.45-.7-.03-1.39-.03-2.09-.03-1.39,0-2.78.06-4.17.09-.43,0-.75.46-.71.85.05.46.43.69.86.7,1.37.03,2.74.09,4.11.09.67,0,1.34.01,2.01-.02.64-.03,1.47-.03,2-.44.26-.2.28-.59.02-.8"/>
    </g>
  </g>
</svg>