<?xml version="1.0" encoding="UTF-8"?>
<svg id="Layer_1" data-name="Layer 1" xmlns="http://www.w3.org/2000/svg" viewBox="0 0 57.65 26.9">
  <defs>
    <style>
      .cls-1 {
        fill: #ebf7f8;
        stroke-width: 0px;
      }
    </style>
  </defs>
  <path class="cls-1" d="M49.28,16.15c1.11-3.2-1.17-6.92-4.4-8.04s-6.95,0-9.54,2.22c2.46-2.86,1.52-7.87-1.82-9.66-3.34-1.79-8.11.16-9.19,3.76-1.52-3.19-6.47-3.45-9.2-1.18-2.73,2.28-3.6,6.08-3.62,9.61-3.94-2.39-9.89-.24-11.34,4.1-.79,2.37,1.3,4.98,3.75,5.58,2.45.6,5.22-.31,6.81-2.24,1.85,3.5,5.5,6.01,9.47,6.51,3.97.49,8.14-1.04,10.81-3.98,3.9,3.75,11.08,3.27,14.44-.96,2.77.98,5.8,1.98,8.6,1.08,2.8-.9,4.76-4.63,2.82-6.82-1.89-2.14-5.16-1.47-7.61.02"/>
</svg>