<?xml version="1.0" encoding="UTF-8"?>
<svg id="Layer_1" data-name="Layer 1" xmlns="http://www.w3.org/2000/svg" viewBox="0 0 222.38 96.54">
  <defs>
    <style>
      .cls-1 {
        fill: #eef8f7;
        stroke-width: 0px;
      }
    </style>
  </defs>
  <path class="cls-1" d="M190.02,57.96c4.3-11.47-4.5-24.82-16.95-28.85-12.45-4.02-26.81.02-36.79,7.96,9.5-10.24,5.85-28.24-7.02-34.65-12.87-6.42-31.28.59-35.45,13.49-5.88-11.45-24.95-12.39-35.48-4.22-10.53,8.17-13.87,21.82-13.95,34.48-15.2-8.59-38.16-.87-43.73,14.71-3.04,8.51,5.03,17.87,14.48,20.04,9.46,2.16,20.13-1.1,26.28-8.04,7.13,12.56,21.23,21.57,36.53,23.34,15.3,1.77,31.39-3.74,41.69-14.29,15.03,13.45,42.75,11.74,55.69-3.43,10.69,3.53,22.36,7.08,33.17,3.87,10.81-3.22,18.35-16.61,10.89-24.48-7.3-7.69-19.89-5.27-29.36.07"/>
</svg>