<?xml version="1.0" encoding="UTF-8"?>
<svg id="Layer_1" data-name="Layer 1" xmlns="http://www.w3.org/2000/svg" xmlns:xlink="http://www.w3.org/1999/xlink" viewBox="0 0 1174.17 476.91">
  <defs>
    <style>
      .cls-1 {
        fill: #c18668;
      }

      .cls-1, .cls-2, .cls-3, .cls-4, .cls-5, .cls-6, .cls-7, .cls-8, .cls-9, .cls-10, .cls-11, .cls-12, .cls-13, .cls-14, .cls-15, .cls-16, .cls-17, .cls-18, .cls-19, .cls-20, .cls-21, .cls-22, .cls-23, .cls-24, .cls-25, .cls-26, .cls-27, .cls-28, .cls-29, .cls-30, .cls-31, .cls-32, .cls-33, .cls-34, .cls-35, .cls-36, .cls-37, .cls-38, .cls-39, .cls-40, .cls-41, .cls-42, .cls-43, .cls-44, .cls-45, .cls-46, .cls-47, .cls-48, .cls-49, .cls-50, .cls-51, .cls-52, .cls-53, .cls-54, .cls-55, .cls-56, .cls-57, .cls-58, .cls-59, .cls-60, .cls-61, .cls-62, .cls-63, .cls-64, .cls-65, .cls-66, .cls-67, .cls-68, .cls-69, .cls-70, .cls-71, .cls-72, .cls-73, .cls-74, .cls-75, .cls-76, .cls-77, .cls-78, .cls-79, .cls-80, .cls-81, .cls-82, .cls-83, .cls-84, .cls-85, .cls-86, .cls-87, .cls-88, .cls-89, .cls-90, .cls-91, .cls-92, .cls-93, .cls-94, .cls-95, .cls-96, .cls-97 {
        stroke-width: 0px;
      }

      .cls-2 {
        fill: #e9f7fe;
      }

      .cls-3 {
        fill: #c4c2a3;
      }

      .cls-4 {
        fill: #fefad8;
      }

      .cls-5 {
        fill: #783331;
      }

      .cls-6 {
        fill: #25160c;
      }

      .cls-7 {
        fill: #a8643d;
      }

      .cls-8 {
        fill: #ce875e;
      }

      .cls-9 {
        fill: #04223a;
      }

      .cls-10 {
        fill: #aeaeae;
      }

      .cls-11 {
        fill: #ecf7fa;
      }

      .cls-12 {
        fill: #472e24;
      }

      .cls-13 {
        fill: #d42e27;
      }

      .cls-98 {
        stroke-width: .15px;
      }

      .cls-98, .cls-14, .cls-99, .cls-100, .cls-101, .cls-102, .cls-103, .cls-104, .cls-105, .cls-106 {
        fill: none;
      }

      .cls-98, .cls-99, .cls-100, .cls-101, .cls-102, .cls-103, .cls-105, .cls-106 {
        stroke-miterlimit: 10;
      }

      .cls-98, .cls-99, .cls-103, .cls-104, .cls-105, .cls-106 {
        stroke: #000;
      }

      .cls-107 {
        clip-path: url(#clippath);
      }

      .cls-15 {
        fill: #2e2e2e;
      }

      .cls-16 {
        fill: #e5b03e;
      }

      .cls-17 {
        fill: #202455;
      }

      .cls-18 {
        fill: #a8c2c9;
      }

      .cls-19 {
        fill: #3f5585;
      }

      .cls-20 {
        fill: #7a9ea5;
      }

      .cls-21 {
        fill: #fff2e4;
      }

      .cls-22 {
        fill: #b6d7ea;
      }

      .cls-23 {
        fill: #f2f9fb;
      }

      .cls-24 {
        fill: #fbc65b;
      }

      .cls-25 {
        fill: #36456e;
      }

      .cls-26 {
        fill: #a3c4d1;
      }

      .cls-27 {
        fill: #b0b0b1;
      }

      .cls-28 {
        fill: #404043;
      }

      .cls-29 {
        fill: #8e7a8c;
      }

      .cls-30 {
        fill: #f6ccc0;
      }

      .cls-31 {
        fill: #667080;
      }

      .cls-32 {
        fill: #e5bdb5;
      }

      .cls-99 {
        stroke-width: .13px;
      }

      .cls-33 {
        fill: #c4c2b2;
      }

      .cls-34 {
        fill: #d99e85;
      }

      .cls-100 {
        stroke: #fff;
      }

      .cls-35 {
        fill: #0e2e4f;
      }

      .cls-36 {
        fill: #5a4d45;
      }

      .cls-37 {
        fill: #b3a1ce;
      }

      .cls-38 {
        fill: #bd7045;
      }

      .cls-101 {
        stroke: #fccc0a;
      }

      .cls-101, .cls-102, .cls-104, .cls-106 {
        stroke-width: .86px;
      }

      .cls-39 {
        fill: #e3e3e3;
      }

      .cls-40 {
        fill: #8abdbd;
      }

      .cls-41 {
        fill: #2e3b5c;
      }

      .cls-108 {
        clip-path: url(#clippath-1);
      }

      .cls-109 {
        clip-path: url(#clippath-4);
      }

      .cls-110 {
        clip-path: url(#clippath-3);
      }

      .cls-111 {
        clip-path: url(#clippath-2);
      }

      .cls-112 {
        clip-path: url(#clippath-7);
      }

      .cls-113 {
        clip-path: url(#clippath-8);
      }

      .cls-114 {
        clip-path: url(#clippath-6);
      }

      .cls-115 {
        clip-path: url(#clippath-5);
      }

      .cls-116 {
        clip-path: url(#clippath-9);
      }

      .cls-42 {
        fill: #948076;
      }

      .cls-43 {
        fill: #f1f9fb;
      }

      .cls-44 {
        fill: #b6714a;
      }

      .cls-45 {
        fill: #504540;
      }

      .cls-46 {
        fill: #d1e8ed;
      }

      .cls-47 {
        fill: #000;
      }

      .cls-48 {
        fill: #59362c;
      }

      .cls-49 {
        fill: #fbb687;
      }

      .cls-50 {
        fill: #fbc9c0;
      }

      .cls-117 {
        clip-path: url(#clippath-20);
      }

      .cls-118 {
        clip-path: url(#clippath-21);
      }

      .cls-119 {
        clip-path: url(#clippath-24);
      }

      .cls-120 {
        clip-path: url(#clippath-23);
      }

      .cls-121 {
        clip-path: url(#clippath-22);
      }

      .cls-122 {
        clip-path: url(#clippath-14);
      }

      .cls-123 {
        clip-path: url(#clippath-13);
      }

      .cls-124 {
        clip-path: url(#clippath-12);
      }

      .cls-125 {
        clip-path: url(#clippath-10);
      }

      .cls-126 {
        clip-path: url(#clippath-15);
      }

      .cls-127 {
        clip-path: url(#clippath-17);
      }

      .cls-128 {
        clip-path: url(#clippath-16);
      }

      .cls-129 {
        clip-path: url(#clippath-19);
      }

      .cls-130 {
        clip-path: url(#clippath-11);
      }

      .cls-131 {
        clip-path: url(#clippath-18);
      }

      .cls-51 {
        fill: #332317;
      }

      .cls-102 {
        stroke: #2e2c7c;
      }

      .cls-52 {
        fill: #304066;
      }

      .cls-53 {
        fill: #fffad8;
      }

      .cls-54 {
        fill: #85645f;
      }

      .cls-55 {
        fill: #8aa3ad;
      }

      .cls-56 {
        fill: #c5bfa3;
      }

      .cls-57 {
        fill: #94403e;
      }

      .cls-58 {
        fill: #fbe700;
      }

      .cls-59 {
        fill: #8c7685;
      }

      .cls-60 {
        fill: #a1b3b6;
      }

      .cls-61 {
        fill: #6b5266;
      }

      .cls-62 {
        fill: #b7d1d1;
      }

      .cls-104 {
        stroke-linecap: round;
        stroke-linejoin: round;
      }

      .cls-63 {
        fill: #d98278;
      }

      .cls-64 {
        fill: #fbc6bd;
      }

      .cls-65 {
        fill: #7d96a0;
      }

      .cls-105 {
        stroke-width: .25px;
      }

      .cls-66 {
        fill: #fffcea;
      }

      .cls-67 {
        fill: #69858d;
      }

      .cls-68 {
        fill: #4d3127;
      }

      .cls-69 {
        fill: #a66640;
      }

      .cls-70 {
        fill: #27100b;
      }

      .cls-71 {
        fill: #f2c7b8;
      }

      .cls-72 {
        fill: #2e1c17;
      }

      .cls-73 {
        fill: #3c7bbf;
      }

      .cls-74 {
        fill: #2e2626;
      }

      .cls-75 {
        fill: #c68182;
      }

      .cls-76 {
        fill: #975a38;
      }

      .cls-77 {
        fill: #f7a9ab;
      }

      .cls-78 {
        fill: #6c5264;
      }

      .cls-79 {
        fill: #4a5c61;
      }

      .cls-80 {
        fill: #282964;
      }

      .cls-81 {
        fill: #a2d5ae;
      }

      .cls-82 {
        fill: #d6e8ed;
      }

      .cls-83 {
        fill: #fdfaf0;
      }

      .cls-84 {
        fill: #b07354;
      }

      .cls-85 {
        fill: #d68485;
      }

      .cls-86 {
        fill: #fff;
      }

      .cls-87 {
        fill: #f0a1a1;
      }

      .cls-88 {
        fill: #b14b46;
      }

      .cls-89 {
        fill: #b3d7e3;
      }

      .cls-90 {
        fill: #5f6e92;
      }

      .cls-91 {
        fill: #bdc2da;
      }

      .cls-92 {
        fill: #f3f3f3;
      }

      .cls-93 {
        fill: #d18c8c;
      }

      .cls-94 {
        fill: #804f41;
      }

      .cls-95 {
        fill: #543629;
      }

      .cls-96 {
        fill: #b37b45;
      }

      .cls-97 {
        fill: #5badbf;
      }
    </style>
    <clipPath id="clippath">
      <rect class="cls-14" y="0" width="1174.17" height="476.91"/>
    </clipPath>
    <clipPath id="clippath-1">
      <rect class="cls-14" y="0" width="1174.17" height="476.91"/>
    </clipPath>
    <clipPath id="clippath-2">
      <rect class="cls-14" y="0" width="1174.17" height="476.91"/>
    </clipPath>
    <clipPath id="clippath-3">
      <rect class="cls-14" y="0" width="1174.17" height="476.91"/>
    </clipPath>
    <clipPath id="clippath-4">
      <rect class="cls-14" y="0" width="1174.17" height="476.91"/>
    </clipPath>
    <clipPath id="clippath-5">
      <rect class="cls-14" y="0" width="1174.17" height="476.91"/>
    </clipPath>
    <clipPath id="clippath-6">
      <rect class="cls-14" y="0" width="1174.17" height="476.91"/>
    </clipPath>
    <clipPath id="clippath-7">
      <rect class="cls-14" y="0" width="1174.17" height="476.91"/>
    </clipPath>
    <clipPath id="clippath-8">
      <rect class="cls-14" y="0" width="1174.17" height="476.91"/>
    </clipPath>
    <clipPath id="clippath-9">
      <rect class="cls-14" y="0" width="1174.17" height="476.91"/>
    </clipPath>
    <clipPath id="clippath-10">
      <rect class="cls-14" y="0" width="1174.17" height="476.91"/>
    </clipPath>
    <clipPath id="clippath-11">
      <rect class="cls-14" y="0" width="1174.17" height="476.91"/>
    </clipPath>
    <clipPath id="clippath-12">
      <rect class="cls-14" y="0" width="1174.17" height="476.91"/>
    </clipPath>
    <clipPath id="clippath-13">
      <rect class="cls-14" y="0" width="1174.17" height="476.91"/>
    </clipPath>
    <clipPath id="clippath-14">
      <rect class="cls-14" y="0" width="1174.17" height="476.91"/>
    </clipPath>
    <clipPath id="clippath-15">
      <rect class="cls-14" y="0" width="1174.17" height="476.91"/>
    </clipPath>
    <clipPath id="clippath-16">
      <rect class="cls-14" y="0" width="1174.17" height="476.91"/>
    </clipPath>
    <clipPath id="clippath-17">
      <rect class="cls-14" y="0" width="1174.17" height="476.91"/>
    </clipPath>
    <clipPath id="clippath-18">
      <rect class="cls-14" y="0" width="1174.17" height="476.91"/>
    </clipPath>
    <clipPath id="clippath-19">
      <rect class="cls-14" y="0" width="1174.17" height="476.91"/>
    </clipPath>
    <clipPath id="clippath-20">
      <rect class="cls-14" y="0" width="1174.17" height="476.91"/>
    </clipPath>
    <clipPath id="clippath-21">
      <rect class="cls-14" y="0" width="1174.17" height="476.91"/>
    </clipPath>
    <clipPath id="clippath-22">
      <rect class="cls-14" y="0" width="1174.17" height="476.91"/>
    </clipPath>
    <clipPath id="clippath-23">
      <path class="cls-14" d="M770.29,341.26c-26.8,7.05-42.66,41.07,9.91,37.36,14.09-.99,26.53-1.93,49.04-4.99,6.71-.91,18.88.25,33.17,1.42,28.55,2.33,65.55,4.66,84.34-9.57,20.94-15.86-55.46-29.69-119.24-29.69-22.11,0-42.71,1.66-57.21,5.48"/>
    </clipPath>
    <clipPath id="clippath-24">
      <rect class="cls-14" y="0" width="1174.17" height="476.91"/>
    </clipPath>
  </defs>
  <rect class="cls-89" x="395.77" y="158.68" width="100.56" height="76.15"/>
  <polygon class="cls-89" points="395.78 158.68 496.15 158.68 444.92 124.28 395.78 158.68"/>
  <g class="cls-107">
    <path class="cls-46" d="M479.17,158.68h-38.7c-.62.92-1.19,1.86-1.72,2.81-4.04,7.28-6.27,15.46-4.58,23.32,1.7,7.9,7.17,15.21,16.05,19.98,2.36,1.27,4.82,2.32,7.36,3.19v-32.66h31.14v35.65c2.56-.36,5.05-.96,7.44-1.86v-39.02l-16.98-11.4Z"/>
    <path class="cls-46" d="M455.27,142.64c-2,1.62-3.85,3.32-5.58,5.1-3.4,3.47-6.65,7.09-9.22,10.95h38.7l-23.89-16.04Z"/>
    <path class="cls-26" d="M419.29,158.68h-5.28l-17.98,12.58v-5.78l-.26.18v69.16h100.56-100.56v-7.46h61.81v-7.81c-4.14-.77-8.17-1.83-11.96-3.22-11.69-4.3-21.13-11.31-26.38-20.13-5.18-8.71-5.83-18.63-3.49-27.9.84-3.31,2.04-6.52,3.55-9.63M496.32,218.44c-2.43.84-4.96,1.51-7.61,1.97v6.97h7.61v-8.93Z"/>
    <path class="cls-26" d="M422.68,152.6l-8.68,6.08h5.28c1-2.07,2.14-4.09,3.4-6.08"/>
  </g>
  <rect class="cls-97" x="395.77" y="227.37" width="100.56" height="7.46"/>
  <polygon class="cls-55" points="496.15 170.09 496.32 170.2 496.32 164.43 496.15 164.31 496.15 170.09"/>
  <g class="cls-108">
    <path class="cls-55" d="M445.9,130.57l-12.94,9.06c-.52.54-1.02,1.08-1.53,1.64-3.32,3.65-6.27,7.42-8.75,11.34l23.22-16.26,9.37,6.29c.66-.53,1.33-1.05,2.01-1.56.55-.41,1.19-1,1.9-1.59l-13.28-8.92Z"/>
  </g>
  <polygon class="cls-60" points="487.77 158.68 479.17 158.68 496.15 170.09 496.15 164.31 487.77 158.68"/>
  <g class="cls-111">
    <path class="cls-60" d="M459.19,139.49c-.71.58-1.36,1.18-1.9,1.59-.69.51-1.36,1.03-2.01,1.56l23.89,16.04h8.61l-28.58-19.19Z"/>
  </g>
  <polygon class="cls-65" points="414 158.68 405.75 158.68 396.03 165.49 396.03 171.27 414 158.68"/>
  <g class="cls-110">
    <path class="cls-65" d="M432.96,139.63l-27.21,19.05h8.25l8.68-6.08c2.48-3.92,5.44-7.69,8.75-11.34.5-.55,1.01-1.1,1.53-1.64"/>
  </g>
  <polygon class="cls-94" points="445.9 130.57 504.58 169.97 516.57 165.95 445.9 118.5 378.12 165.95 389.62 169.97 445.9 130.57"/>
  <polygon class="cls-27" points="445.9 118.5 378.27 165.85 445.9 118.5 516.32 165.79 445.9 118.5"/>
  <polygon class="cls-48" points="445.9 118.5 378.27 165.85 384.04 167.87 445.77 124.66 510.11 167.87 516.32 165.79 445.9 118.5"/>
  <path class="cls-94" d="M460.22,179.3h25.85v51.56h-25.85v-51.56ZM488.71,175.32h-31.14v59.51h31.14v-59.51Z"/>
  <path class="cls-72" d="M488.71,175.32h-31.14v59.51h31.14v-59.51ZM458.63,177.81h28.53v54.52h-28.53v-54.52Z"/>
  <rect class="cls-95" x="460.22" y="179.3" width="25.85" height="51.56"/>
  <g class="cls-109">
    <path class="cls-12" d="M486.07,179.3h-25.85v51.56h8.04c-3.21-6.06-3.91-14-3.18-21.19.78-7.63,2.99-16.21,7.79-21.02,2.63-2.63,5.79-4.3,9.03-5.04,1.37-.31,2.77-.57,4.16-.64v-3.67Z"/>
    <path class="cls-16" d="M484.25,205.2c0,1.4-1.05,2.54-2.35,2.54s-2.35-1.14-2.35-2.54,1.05-2.53,2.35-2.53,2.35,1.13,2.35,2.53"/>
  </g>
  <rect class="cls-68" x="402.37" y="172.78" width="42.01" height="42.29"/>
  <rect class="cls-51" x="405.53" y="175.96" width="35.69" height="35.93"/>
  <rect class="cls-40" x="407.51" y="178.27" width="14.56" height="14.66"/>
  <rect class="cls-40" x="424.69" y="178.27" width="14.56" height="14.66"/>
  <rect class="cls-40" x="407.5" y="194.92" width="14.56" height="14.66"/>
  <rect class="cls-40" x="424.68" y="194.92" width="14.56" height="14.66"/>
  <polygon class="cls-62" points="407.51 179.33 422.07 185.59 422.07 186.19 407.51 180.01 407.51 179.33"/>
  <polygon class="cls-62" points="422.07 186.73 422.07 187.36 407.5 181.39 407.5 180.67 422.07 186.73"/>
  <polygon class="cls-62" points="407.5 181.92 422.07 187.96 422.07 188.56 407.51 182.6 407.5 181.92"/>
  <polygon class="cls-62" points="407.51 198.22 422.07 204.49 422.07 205.09 407.51 198.91 407.51 198.22"/>
  <polygon class="cls-62" points="422.07 205.63 422.07 206.25 407.5 200.28 407.5 199.56 422.07 205.63"/>
  <polygon class="cls-62" points="407.5 200.81 422.07 206.86 422.07 207.45 407.51 201.5 407.5 200.81"/>
  <polygon class="cls-62" points="424.7 197.63 439.25 203.9 439.25 204.49 424.7 198.32 424.7 197.63"/>
  <polygon class="cls-62" points="439.26 205.04 439.26 205.66 424.69 199.69 424.69 198.97 439.26 205.04"/>
  <polygon class="cls-62" points="424.69 200.22 439.26 206.27 439.26 206.86 424.7 200.91 424.69 200.22"/>
  <polygon class="cls-62" points="424.7 181.57 439.25 187.84 439.25 188.43 424.7 182.26 424.7 181.57"/>
  <polygon class="cls-62" points="439.26 188.98 439.26 189.6 424.69 183.63 424.69 182.91 439.26 188.98"/>
  <polygon class="cls-62" points="424.69 184.16 439.26 190.21 439.26 190.8 424.7 184.85 424.69 184.16"/>
  <rect class="cls-66" x="676.13" y="190.81" width="82.67" height="62.6"/>
  <polygon class="cls-66" points="676.14 190.81 758.65 190.81 716.54 162.53 676.14 190.81"/>
  <g class="cls-115">
    <path class="cls-4" d="M744.69,190.81h-31.81c-.51.76-.98,1.53-1.41,2.31-3.32,5.99-5.16,12.71-3.77,19.17,1.39,6.49,5.9,12.5,13.19,16.42,1.94,1.04,3.96,1.91,6.05,2.62v-26.85h25.6v29.31c2.11-.3,4.15-.79,6.12-1.53v-32.08l-13.96-9.38Z"/>
    <path class="cls-4" d="M725.05,177.62c-1.64,1.33-3.17,2.73-4.59,4.19-2.79,2.86-5.47,5.83-7.58,9h31.81l-19.64-13.19Z"/>
    <path class="cls-53" d="M695.46,190.81h-4.34l-14.78,10.35v-4.75l-.21.15v56.86h82.67v-13.48c-1.99.69-4.08,1.24-6.26,1.62v11.86h-25.6v-12.55c-3.41-.63-6.72-1.5-9.84-2.65-9.61-3.53-17.37-9.3-21.69-16.55-4.26-7.16-4.79-15.32-2.86-22.93.69-2.72,1.67-5.36,2.91-7.92"/>
    <path class="cls-53" d="M698.26,185.81l-7.14,5h4.34c.82-1.7,1.76-3.36,2.79-5"/>
  </g>
  <polygon class="cls-33" points="758.65 200.18 758.8 200.28 758.8 195.53 758.65 195.43 758.65 200.18"/>
  <g class="cls-114">
    <path class="cls-33" d="M717.35,167.7l-10.64,7.45c-.42.44-.84.89-1.26,1.35-2.72,3-5.15,6.1-7.2,9.32l19.09-13.36,7.7,5.17c.54-.44,1.09-.87,1.65-1.29.45-.33.97-.82,1.56-1.3l-10.92-7.33Z"/>
  </g>
  <polygon class="cls-3" points="751.76 190.81 744.69 190.81 758.65 200.19 758.65 195.44 751.76 190.81"/>
  <g class="cls-112">
    <path class="cls-3" d="M728.27,175.03c-.59.48-1.11.97-1.56,1.3-.56.42-1.12.85-1.66,1.28l19.64,13.19h7.07l-23.5-15.78Z"/>
  </g>
  <polygon class="cls-56" points="691.12 190.81 684.34 190.81 676.34 196.41 676.34 201.16 691.12 190.81"/>
  <g class="cls-113">
    <path class="cls-56" d="M706.71,175.15l-22.37,15.66h6.78l7.14-5c2.04-3.22,4.47-6.32,7.2-9.32.41-.45.83-.9,1.26-1.35"/>
  </g>
  <polygon class="cls-94" points="717.35 167.7 765.59 200.09 775.44 196.79 717.35 157.78 661.63 196.79 671.08 200.09 717.35 167.7"/>
  <polygon class="cls-27" points="717.35 157.78 661.75 196.7 661.75 196.7 717.35 157.78 775.24 196.65 717.35 157.78"/>
  <polygon class="cls-48" points="717.35 157.78 661.75 196.7 666.49 198.36 717.23 162.84 770.13 198.36 775.24 196.65 717.35 157.78"/>
  <path class="cls-94" d="M729.11,207.76h21.25v42.39h-21.25v-42.39ZM752.54,204.49h-25.6v48.93h25.6v-48.93Z"/>
  <path class="cls-72" d="M752.54,204.49h-25.6v48.93h25.6v-48.93ZM727.8,206.54h23.45v44.82h-23.45v-44.82Z"/>
  <rect class="cls-95" x="729.11" y="207.76" width="21.25" height="42.39"/>
  <g class="cls-116">
    <path class="cls-12" d="M750.37,207.75h-21.25v42.39h6.61c-2.64-4.98-3.22-11.51-2.61-17.42.64-6.27,2.46-13.33,6.4-17.28,2.16-2.17,4.76-3.54,7.42-4.14,1.13-.25,2.28-.46,3.42-.53v-3.02Z"/>
    <path class="cls-16" d="M748.87,229.05c0,1.15-.87,2.08-1.93,2.08s-1.93-.93-1.93-2.08.86-2.08,1.93-2.08,1.93.93,1.93,2.08"/>
  </g>
  <rect class="cls-68" x="681.56" y="202.4" width="34.54" height="34.76"/>
  <rect class="cls-51" x="684.15" y="205.01" width="29.34" height="29.53"/>
  <rect class="cls-43" x="685.78" y="206.91" width="11.97" height="12.05"/>
  <rect class="cls-43" x="699.91" y="206.91" width="11.97" height="12.05"/>
  <rect class="cls-43" x="685.78" y="220.6" width="11.97" height="12.05"/>
  <rect class="cls-43" x="699.9" y="220.6" width="11.97" height="12.05"/>
  <polygon class="cls-92" points="685.78 207.78 697.75 212.93 697.75 213.42 685.78 208.34 685.78 207.78"/>
  <polygon class="cls-92" points="697.76 213.87 697.76 214.38 685.78 209.47 685.78 208.88 697.76 213.87"/>
  <polygon class="cls-92" points="685.78 209.91 697.76 214.88 697.76 215.37 685.78 210.47 685.78 209.91"/>
  <polygon class="cls-92" points="685.78 223.32 697.75 228.47 697.75 228.96 685.78 223.88 685.78 223.32"/>
  <polygon class="cls-92" points="697.76 229.41 697.76 229.92 685.78 225.01 685.78 224.42 697.76 229.41"/>
  <polygon class="cls-92" points="685.78 225.44 697.76 230.42 697.76 230.9 685.78 226.01 685.78 225.44"/>
  <polygon class="cls-92" points="699.91 222.83 711.88 227.98 711.88 228.47 699.91 223.39 699.91 222.83"/>
  <polygon class="cls-92" points="711.88 228.92 711.88 229.43 699.91 224.52 699.91 223.93 711.88 228.92"/>
  <polygon class="cls-92" points="699.91 224.96 711.88 229.93 711.88 230.42 699.91 225.52 699.91 224.96"/>
  <polygon class="cls-92" points="699.91 209.63 711.88 214.78 711.88 215.27 699.91 210.19 699.91 209.63"/>
  <polygon class="cls-92" points="711.88 215.72 711.88 216.23 699.91 211.32 699.91 210.73 711.88 215.72"/>
  <polygon class="cls-92" points="699.91 211.75 711.88 216.73 711.88 217.21 699.91 212.32 699.91 211.75"/>
  <g class="cls-125">
    <path class="cls-81" d="M228.25,240.02s6.84-14.15,32.79-9.36c0,0-.18-16.33,18.35-19.25,18.53-2.92,17.85,15.22,17.85,15.22,0,0,1.57-14.52,16.5-10.11,14.92,4.42,5.36-26.69,40.88-30.84,0,0,23.54-2.07,29.18,17.97,0,0,13.91-20.05,25.83,0,0,0,31.96-3.47,26.72,27,0,0,21.4-19.83,37.79.43,0,0,40.15-14.73,45.34,0,0,0,23.62-12.84,31.48-1.82,0,0,20.16-4.29,18.79,13.78,0,0,33.46-11.75,40.29,4.84,0,0,6.83-7.6,19.12,0,0,0,15.14-25.78,37.62-10.13,0,0,29.63-3.11,28.44,10.13,0,0,8.18-17.28,23.3-4.15,0,0,28.79-29.73,56.79-.69,0,0,15.99-16.69,29.51.69,0,0,10.1-46.38,64.74-26.99,0,0,21.05-1.8,23.5,17.43,0,0,35.46-12.57,41.49,10.94,0,0,17.64-26.23,44.28-5.12,0,0,2.28-16.02,23.68-9.14,0,0,1.82-16.21,21.4-14.81,0,0,19.12-3.16,23.68,16.41,0,0,23.68-5.32,30.51,12.65,0,0,10.02-9.22,23.68-.92,0,0,37.79-33.19,72.39-19.5v36.42H228.25"/>
    <path class="cls-21" d="M546.65,84.9c-1.11-3.83-6.96-6.67-12.48-3.9.59-5.63-2.43-10.99-7.41-13.26-4.46-2.03-9.79-1.27-13.66,1.95-.23-.86-4.05-14.51-15.61-17.95-11.44-3.4-26.17,4.46-31.21,19.9-1.77-3.27-5.55-4.88-8.97-3.9-3.74,1.06-6.18,4.95-5.46,8.97-6.75-7.35-17.04-7.69-22.24-2.73-3.52,3.36-4.58,9.02-3.12,14.43-3.37.05-5.94,2.13-6.97,4.53h123.85c2.78-2.2,4.02-5.5,3.28-8.04"/>
    <path class="cls-24" d="M440.42,22.72l-6.56-.98c-.07-.66-.17-1.31-.32-1.95l5.92-2.9c.67-.33.34-1.31-.4-1.19l-6.55,1.03c-.27-.6-.58-1.19-.93-1.76l4.71-4.53c.53-.51-.1-1.34-.76-1.01l-5.9,2.94c-.45-.49-.93-.96-1.44-1.39l3.04-5.72c.34-.64-.52-1.25-1.05-.74l-4.68,4.57c-.58-.33-1.19-.63-1.81-.9l1.06-6.35c.12-.71-.89-1.03-1.23-.39l-2.99,5.74c-.66-.14-1.33-.24-2.01-.31l-1.01-6.36c-.11-.72-1.18-.72-1.29,0l-1.01,6.36c-.68.06-1.35.17-2.01.31l-2.99-5.74c-.34-.65-1.35-.33-1.23.39l1.06,6.35c-.62.27-1.23.57-1.81.9l-4.68-4.57c-.53-.51-1.39.09-1.04.74l3.04,5.72c-.51.44-.99.9-1.44,1.39l-5.91-2.94c-.66-.33-1.29.5-.76,1.01l4.71,4.53c-.34.57-.65,1.15-.92,1.76l-6.55-1.03c-.74-.12-1.07.86-.4,1.19l5.93,2.9c-.14.64-.25,1.28-.32,1.95l-6.56.98c-.74.11-.74,1.14,0,1.25l6.56.98c.07.66.17,1.31.32,1.95l-5.93,2.9c-.67.33-.34,1.31.4,1.19l6.55-1.03c.27.61.58,1.19.92,1.76l-4.71,4.53c-.53.51.1,1.34.76,1.01l5.91-2.94c.45.49.93.96,1.44,1.39l-3.04,5.72c-.34.64.52,1.25,1.04.74l4.68-4.57c.58.33,1.19.63,1.81.9l-1.06,6.35c-.12.71.89,1.03,1.23.39l2.99-5.74c.66.14,1.33.24,2.01.31l1.01,6.36c.11.72,1.18.72,1.29,0l1.01-6.36c.68-.06,1.35-.17,2.01-.31l2.99,5.74c.34.65,1.35.33,1.23-.39l-1.06-6.35c.62-.26,1.23-.57,1.81-.9l4.68,4.57c.53.51,1.39-.09,1.05-.74l-3.04-5.72c.51-.44.99-.9,1.44-1.39l5.9,2.94c.67.33,1.29-.5.76-1.01l-4.71-4.53c.34-.57.65-1.15.93-1.76l6.55,1.03c.74.12,1.07-.86.4-1.19l-5.92-2.9c.14-.64.25-1.29.32-1.95l6.56-.98c.74-.11.74-1.14,0-1.25"/>
    <path class="cls-23" d="M363.68,112.94c-.46-1.52-2.86-2.66-5.14-1.55.24-2.25-1-4.38-3.05-5.29-1.83-.81-4.03-.51-5.62.78-.09-.35-1.67-5.78-6.42-7.15-4.71-1.36-10.77,1.77-12.85,7.93-.73-1.3-2.29-1.94-3.69-1.55-1.54.42-2.54,1.97-2.25,3.57-2.78-2.93-7.02-3.06-9.16-1.09-1.45,1.34-1.88,3.6-1.28,5.75-1.39.02-2.45.85-2.87,1.8h50.98c1.15-.88,1.65-2.19,1.35-3.2"/>
    <path class="cls-23" d="M582.41,121.3c-.46-1.52-2.86-2.66-5.14-1.55.24-2.25-1-4.38-3.05-5.29-1.84-.81-4.03-.51-5.62.78-.09-.35-1.67-5.78-6.42-7.15-4.71-1.36-10.78,1.77-12.85,7.93-.73-1.3-2.29-1.94-3.69-1.55-1.54.42-2.54,1.97-2.25,3.57-2.78-2.93-7.02-3.06-9.15-1.09-1.45,1.34-1.89,3.6-1.29,5.75-1.39.02-2.45.85-2.87,1.8h50.98c1.15-.88,1.66-2.19,1.35-3.2"/>
    <path class="cls-39" d="M160.39,261.52h29.88v-5.89c-.01-3.24-2.51-5.87-5.6-5.89h-18.68c-3.08.02-5.58,2.64-5.6,5.89v5.89h0ZM205.49,160.88c.19,0,.34-.16.35-.36v-11.05c0-.2-.16-.36-.35-.36H26.87c-.19,0-.34.17-.35.36v11.05c0,.2.16.36.35.36h178.63ZM115.1,71.21c.66-.42,1.49-.42,2.15,0l96.27,70.01H18.83l96.27-70.01ZM193.66,268.63H25.95v7.94h180.46v-7.93h-12.76ZM42.09,261.52h29.88v-5.89c-.02-3.24-2.51-5.87-5.6-5.89h-18.68c-3.08.02-5.58,2.64-5.6,5.89v5.89h0ZM101.24,261.52h29.87v-5.89c-.01-3.24-2.51-5.87-5.6-5.89h-18.66c-3.08.02-5.58,2.64-5.6,5.89v5.89h0ZM209.68,283.7H16.91v7.94h198.53v-7.94h-5.77ZM116.18,88.06c11.99,0,21.71,10.22,21.71,22.83s-9.72,22.83-21.71,22.83-21.71-10.22-21.71-22.83,9.72-22.83,21.71-22.83M126.74,99.78c-5.83-6.13-15.29-6.12-21.11.02-5.83,6.13-5.82,16.07.01,22.2,5.83,6.12,15.27,6.12,21.1,0,5.83-6.13,5.84-16.07.01-22.2,0,0,0-.01-.01-.02M51.73,186.89v62.86h10.59v-62.83l-10.59-.02ZM71.96,168h-29.86v5.89c.01,3.24,2.51,5.87,5.6,5.89h18.67c3.08-.02,5.58-2.64,5.6-5.89v-5.89h0ZM110.88,186.89v62.86h10.58v-62.83l-10.58-.02ZM131.11,168h-29.86v5.89c.02,3.24,2.51,5.87,5.6,5.89h18.66c3.08-.02,5.58-2.64,5.6-5.89v-5.89ZM180.62,186.89h-10.58v62.86h10.58v-62.86ZM190.26,168h-29.88v5.89c.02,3.24,2.51,5.87,5.6,5.89h18.67c3.09-.02,5.58-2.64,5.6-5.89v-5.89h0Z"/>
    <path class="cls-39" d="M535.72,337.72c0-.8-35.82-1.45-80-1.45s-80,.65-80,1.45,35.82,1.45,80,1.45,80-.65,80-1.45"/>
    <path class="cls-39" d="M516.21,405.83c0-1.57-109.89-2.84-245.45-2.84s-245.45,1.27-245.45,2.84,109.89,2.84,245.45,2.84,245.45-1.27,245.45-2.84"/>
    <path class="cls-39" d="M301.46,391.3c0-1.77-66.77-3.21-149.15-3.21s-149.15,1.44-149.15,3.21,66.77,3.21,149.15,3.21,149.15-1.44,149.15-3.21"/>
    <path class="cls-39" d="M577.94,383.47c0-1.1-50.34-1.98-112.44-1.98s-112.44.89-112.44,1.98,50.34,1.98,112.44,1.98,112.44-.89,112.44-1.98"/>
    <path class="cls-39" d="M573.15,397.04c0-.7-61.78-1.26-137.99-1.26s-137.99.56-137.99,1.26,61.78,1.26,137.99,1.26,137.99-.56,137.99-1.26"/>
  </g>
  <line class="cls-102" x1="192.77" y1="279.86" x2="193.97" y2="301.04"/>
  <g class="cls-130">
    <path class="cls-22" d="M316.52,331.6l24.32-113.49s.28-6.71,12.99-5.9h65.76s13.06.2,9.54,13.62l-1.8,10.26-17.13,94.17-94.09.74"/>
    <path class="cls-106" d="M316.52,331.6l24.32-113.49s.28-6.71,12.99-5.9h65.76s13.06.2,9.54,13.62l-1.8,10.26-17.13,94.17-94.09.74"/>
  </g>
  <polygon class="cls-59" points="267.66 330.81 267.66 393.9 272.61 393.9 272.61 333.42 267.66 330.81"/>
  <polygon class="cls-59" points="301.58 303.09 301.58 395.1 305.61 395.1 305.61 305.86 301.58 303.09"/>
  <g class="cls-124">
    <path class="cls-47" d="M300.29,362.66s1.65,11.17,6.05,13.98l22.82-11.55s-3.85-4.07-12.79-2.62c0,0-5.91-.01-8.11-2.56l-7.98,2.74Z"/>
    <path class="cls-47" d="M245.02,368.21s-7.98,6.69-8.25,9.63l22.28,12.53s1.65-3.25-2.48-6.29c0,0-6.83-7.99-4.86-13.34l-6.69-2.54Z"/>
  </g>
  <polygon class="cls-29" points="228.16 331.55 213.39 388.87 216.72 390.6 231.54 331.55 228.16 331.55"/>
  <polygon class="cls-29" points="214.73 331.33 222.92 390.38 226.33 390.38 217.53 330.59 214.73 331.33"/>
  <polygon class="cls-54" points="62.73 330.83 62.73 393.9 67.4 393.9 67.4 327.81 61.23 327.81 62.73 330.83"/>
  <polygon class="cls-78" points="111.65 333.42 120.08 391.56 123.75 391.22 114.58 331.55 111.65 333.42"/>
  <polyline class="cls-61" points="181.4 341.32 170.68 386.14 173.93 386.14 184.98 339.18 183.17 339.18"/>
  <polygon class="cls-96" points="189.35 333.42 251.71 333.42 234.26 325.13 193.78 323.7 189.35 333.42"/>
  <g class="cls-123">
    <path class="cls-28" d="M148.08,380.25s-2.61,6.15-1.65,9.9c0,0,10.17,0,16.5,1.07,6.32,1.07,15.4-.67,20.21-3.48,0,0,.78-4.55-6.42-2.94,0,0-14.76-.54-18.47-8.16l-10.18,3.61Z"/>
    <path class="cls-17" d="M252.08,320.13s-9.53,40.68-9.17,49.6l11,2.32,13.75-37.95-4.58-12.44-11-2.77v1.25Z"/>
  </g>
  <polygon class="cls-47" points="415.86 298.03 436.14 381.68 438.8 381.68 417.56 288.63 415.86 298.03"/>
  <polygon class="cls-50" points="211.61 293.75 210.78 298.03 225.56 296.76 227.14 292.61 222.88 290.54 211.19 290.54 211.61 293.75"/>
  <g class="cls-122">
    <path class="cls-37" d="M202.81,241.77l-9.95,4.04-8.43,9.75-7.79,23.49s-6.37,17.01,5.22,17.9l29.7.53.73-5.92-22.55-5.49,3.3-6.2.65,21.18,17.87-3.58,2.02-5.92h9.35l3.85,1.07,11.73-24.28-6.69-15.52s-5.02-8.63-13.13-9.1l-.41,7.76-15.47-9.7Z"/>
    <path class="cls-64" d="M225.13,220.05l-18.96,7.49v10.7l-2.13,5.2s12.1,9.97,12.28,12.11c0,0,2.7-2.94,2.43-9.37l-.07-2.48s7.22,3.81,9.56-6.49l1.37-8.43-4.49-8.74Z"/>
  </g>
  <polygon class="cls-54" points="14.85 303.09 14.85 393.9 18.97 393.9 18.97 304.79 14.85 303.09"/>
  <g class="cls-126">
    <path class="cls-54" d="M47.3,327.8h-10.17s-1.1,6.42,6.6,6.15h83.87s-6.05-12.31-6.05-12.31l-74.25,6.15Z"/>
  </g>
  <polygon class="cls-30" points="93.98 281.24 105.32 295.89 115.57 295.89 117.01 288.13 102.57 268.33 92.67 279.86 93.98 281.24"/>
  <g class="cls-128">
    <path class="cls-30" d="M30.25,269.64l-10.63,13.2s-10.45,10.7,6.42,14.45l19.61,2.05,33.19.63,6.37-1.83s2.61-2.9-4.08-5.31l-3.48-3.12-12.01-2.23-20.35-7.62,2.93-6.11-17.97-4.1Z"/>
    <path class="cls-32" d="M71.73,234.23l-5.18,9.21s-.64,2.65-5.32,2.92c0,0,3.12,8.92,13.57,9.1,0,0,6.6-.27,11.73-6.96,0,0-2.66,1.52-4.49-1.07,0,0-.97-.72,1.9-3.7l-.61-3.17-11.6-6.33Z"/>
    <path class="cls-32" d="M98.63,219.69s2.2,6.6,0,9.63c0,0-1.24,1.2-.5,3.08.73,1.87,1.01,2.72,1.01,2.72,0,0,.96,1.38-2.98.8l-1.79-.31,2.29-.27s-.55,2.07-.55,2.27-1.31.34-1.31.34h-.43s0,1,1.19,1.05c0,0,.55.36-.09.98,0,0-.41.4-1.79,0,0,0-1.24,2.45-.32,4.99,0,0-4.22,3.03-11.23-2.54,0,0-9.03-2.9-10.4-8.21l-1.15-10.7,1.24-3.52,10.36-4.68h7.15l9.3,4.37Z"/>
    <path class="cls-71" d="M473.95,385.46l-2.15,5.67-1.28,2.77,5.32,3.12,5.41-2.05s-.73-3.21-.69-3.12c.05.09,1.15-2.14.69-6.87l-7.7-.8.41,1.28Z"/>
    <path class="cls-35" d="M470.51,341.32c.14.54.83,43.62.83,43.62,0,0,6.74,1.87,11.82,0l5.34-42.05,2.09-3.71-20.08,2.14Z"/>
    <path class="cls-35" d="M429.17,337.04l-7.88,19.39-10.04,26.63s-.34,4.21,7.98,3.81c0,0,2.68-.6,3.09.67,0,0,23.3-38.47,27.57-51.18l-17.05-2.94-3.3,1.21-.41,1.87"/>
    <path class="cls-85" d="M460.68,191.02l-1.24,7.96,5.26,1.77,5.33-3.08,2.89-7.73,7.32-.43-5.84,15.96-6.36,11.54,2.93,14.27,3.85,27.47,3.3,18.73,18.52,9.81s-6.6,48.17-3.67,56.02l-65.27-6.42,14.38-68.51,7.31-57s3.66-20.94,11.29-20.37"/>
    <path class="cls-49" d="M474.18,232.27l1.65,9.59-24.77-4.86s-10.43-.62-13.45-1.78l-3.94-.53s3.76-1.07,4.58-.89c0,0-.73-.54-3.21-.36,0,0-1.98.71-3.1.71,0,0-1.3-2.32,2.37-3.57,0,0,2.13-1.1,5.11-1.43,0,0,3.64-.98,5.73-.13l5.2,1.74,24.48,1.25-.64.27Z"/>
    <path class="cls-101" d="M455.37,231.09c1.08-.62,2.31-.95,3.56-.95,3.83,0,6.98,3.06,6.98,6.78s-3.15,6.78-6.98,6.78c-3.55,0-6.6-3.09-6.98-6.51"/>
    <path class="cls-49" d="M460.3,186.95v4.25s.79-.27-1.13,3.95c0,0-1.31,3.95,0,5.15,0,0,2.68,5.15,10.73-1.94,0,0,3.02-3.35,3.02-7.69l-.76-5.02-1.17-6.29-7.43,3.41-3.27,4.18Z"/>
    <path class="cls-58" d="M455.72,183.64c0,1.5-1.25,2.72-2.79,2.72s-2.79-1.22-2.79-2.72,1.25-2.72,2.79-2.72,2.79,1.22,2.79,2.72"/>
    <path class="cls-58" d="M451.6,180.35c0,.32-.26.57-.59.57s-.59-.26-.59-.57.26-.57.59-.57.59.26.59.57"/>
    <path class="cls-58" d="M450.13,181.49c0,.32-.26.57-.59.57s-.59-.26-.59-.57.26-.57.59-.57.59.26.59.57"/>
    <path class="cls-58" d="M449.75,183.28c0,.32-.26.57-.59.57s-.59-.26-.59-.57.26-.57.59-.57.59.26.59.57"/>
    <path class="cls-58" d="M450.13,185.11c0,.32-.26.57-.59.57s-.59-.26-.59-.57.26-.57.59-.57.59.26.59.57"/>
    <path class="cls-58" d="M451.24,186.47c0,.32-.26.57-.59.57s-.59-.26-.59-.57.26-.57.59-.57.59.26.59.57"/>
    <path class="cls-58" d="M453.19,187.09c0,.32-.26.57-.59.57s-.59-.26-.59-.57.26-.57.59-.57.59.26.59.57"/>
    <path class="cls-58" d="M455.04,186.93c0,.32-.26.57-.59.57s-.59-.26-.59-.57.26-.57.59-.57.59.26.59.57"/>
    <path class="cls-58" d="M456.49,185.9c0,.32-.26.57-.59.57s-.59-.26-.59-.57.26-.57.59-.57.59.26.59.57"/>
    <path class="cls-58" d="M457.37,184.32c0,.32-.26.57-.59.57s-.59-.26-.59-.57.26-.57.59-.57.59.26.59.57"/>
    <path class="cls-58" d="M457.26,182.7c0,.32-.26.57-.59.57s-.59-.26-.59-.57.26-.57.59-.57.59.26.59.57"/>
    <path class="cls-58" d="M456.49,181.2c0,.32-.26.57-.59.57s-.59-.26-.59-.57.26-.57.59-.57.59.26.59.57"/>
    <path class="cls-58" d="M454.93,180.18c0,.32-.26.57-.59.57s-.59-.26-.59-.57.26-.57.59-.57.59.26.59.57"/>
    <path class="cls-58" d="M453.38,179.92c0,.32-.26.57-.59.57s-.59-.26-.59-.57.26-.57.59-.57.59.26.59.57"/>
    <path class="cls-49" d="M448.77,167.48s-.67,3.54.98,7.42c0,0-.77,3.52,1.64,7,0,0,3.02,5.98,3.98,6.12,0,0,2.77,1.19,5.29-.51.32-.22.67-.39,1.05-.47,1.79-.37,7.27-1.73,8.3-4.91l2.47-1.54.41-6.62-1.86-3.41s-8.11-2.27-8.39-2.27-3.71-5.49-3.71-5.49l-3.37-1.74-6.81,6.42Z"/>
    <path class="cls-75" d="M454.9,183.09s-.01.66.96,1.04c0,0,2.11.49,3.05-1.15"/>
    <path class="cls-6" d="M486.88,192.93s-4.12-5.08-3.99-14.58c0,0,2.34-20.61-14.44-25.96,0,0-8.8-1.87-18.01,10.17,0,0-6.42,3.44-1.2,10.93,0,0-1.14-6.12,3.4-8.66l2.61-1.87s4.45,7.49,16.22,10.7c0,0,3.02,4.21-.41,7.26,0,0,.41,3.85.83,5.32.41,1.47.83,4.01.83,4.01,0,0,6.74-.4,14.16,2.68"/>
    <path class="cls-73" d="M460.3,191.19s-7.67,1.74-10.87,3.88c0,0-4.95,2.59-6.88,9.72,0,0-1.38,4.55-1.38,11.95,0,0-.92,10.53-2.38,12.4h1.28s3.67-.8,4.86,0h.92l5.68-1.78s-.18-12.58.83-21.5c0,0,1.95-10.97,7.94-14.67"/>
    <path class="cls-73" d="M476.57,190.4l-10.09,19.77s-5.03,8.1-.73,17.19l2.19,5.26,6.23-.36s0,7.76,1.47,9.37l-5.36-.8s-.33,2.23,2.24,12.93c0,0,2.47,12.67,2.84,18.11.37,5.44-.27,16.32,7.15,18.29,0,0,6.69,2.23,17.78-2.41,0,0,5.87-2.5,7.52-1.61,0,0-15.4-34.16-13.84-43.44,0,0,5.41.54,6.69-5.71,0,0,.82-20.07-1.65-30.77,0,0,.14-13.56-22.45-15.83"/>
    <path class="cls-73" d="M437.45,234.68s-5.71,14.99-5.5,15.19c.21.2,8.94,5.35,8.94,5.35,0,0-1.31,11.71-1.24,14.59s-1.93,13.58-3.64,14.99c0,0-1.24.47,3.16.74.69.2,4.95,1.47,6.26,2.34,1.31.87,5.71,1.94,6.81-2.68l-.83-48.1s-12.65-.94-13.96-2.41"/>
  </g>
  <polygon class="cls-9" points="445.55 228.9 453.86 226.47 456.9 226.92 455.07 229.15 430.46 235.35 425.51 235.35 429.17 232.84 445.55 228.9"/>
  <g class="cls-127">
    <path class="cls-58" d="M474.99,182.57c0,1.5-1.25,2.72-2.79,2.72s-2.79-1.22-2.79-2.72,1.25-2.72,2.79-2.72,2.79,1.22,2.79,2.72"/>
    <path class="cls-58" d="M470.87,179.28c0,.32-.26.57-.59.57s-.59-.26-.59-.57.26-.57.59-.57.59.26.59.57"/>
    <path class="cls-58" d="M469.4,180.42c0,.32-.26.57-.59.57s-.59-.26-.59-.57.26-.57.59-.57.59.26.59.57"/>
    <path class="cls-58" d="M469.02,182.2c0,.32-.26.57-.59.57s-.59-.26-.59-.57.26-.57.59-.57.59.26.59.57"/>
    <path class="cls-58" d="M469.4,184.04c0,.32-.26.57-.59.57s-.59-.26-.59-.57.26-.57.59-.57.59.26.59.57"/>
    <path class="cls-58" d="M470.51,185.39c0,.32-.26.57-.59.57s-.59-.26-.59-.57.26-.57.59-.57.59.26.59.57"/>
    <path class="cls-58" d="M472.46,186.02c0,.32-.26.57-.59.57s-.59-.26-.59-.57.26-.57.59-.57.59.26.59.57"/>
    <path class="cls-58" d="M474.31,185.85c0,.32-.26.57-.59.57s-.59-.26-.59-.57.26-.57.59-.57.59.26.59.57"/>
    <path class="cls-58" d="M475.77,184.82c0,.32-.26.57-.59.57s-.59-.26-.59-.57.26-.57.59-.57.59.26.59.57"/>
    <path class="cls-58" d="M476.64,183.24c0,.32-.26.57-.59.57s-.59-.26-.59-.57.26-.57.59-.57.59.26.59.57"/>
    <path class="cls-58" d="M476.53,181.63c0,.32-.26.57-.59.57s-.59-.26-.59-.57.26-.57.59-.57.59.26.59.57"/>
    <path class="cls-58" d="M475.77,180.13c0,.32-.26.57-.59.57s-.59-.26-.59-.57.26-.57.59-.57.59.26.59.57"/>
    <path class="cls-58" d="M474.2,179.11c0,.32-.26.57-.59.57s-.59-.26-.59-.57.26-.57.59-.57.59.26.59.57"/>
    <path class="cls-58" d="M472.65,178.85c0,.32-.26.57-.59.57s-.59-.26-.59-.57.26-.57.59-.57.59.26.59.57"/>
    <path class="cls-83" d="M453.86,175.21s-4.91-3.41-10.23.9c.47.13,5.68,2.38,10.23-.9"/>
    <path class="cls-99" d="M453.86,175.21s-4.91-3.41-10.23.9c.47.13,5.68,2.38,10.23-.9Z"/>
    <path class="cls-83" d="M470.94,174.1s-5.81-4.07-12.11,1.08c.56.15,6.72,2.84,12.11-1.08"/>
    <path class="cls-99" d="M470.94,174.1s-5.81-4.07-12.11,1.08c.56.15,6.72,2.84,12.11-1.08Z"/>
    <path class="cls-47" d="M446.96,174.51s.9,1.21,2.99.61c0,0,1.19-.55,1.01-1.06,0,0-2.85-.36-3.99.45"/>
    <path class="cls-47" d="M461.81,173.26s1.07,1.8,3.43.66c0,0,.81-.58.6-1.24,0,0-2.97.11-4.03.58"/>
    <path class="cls-13" d="M456.17,172.79c0,.24-.2.43-.45.43s-.45-.19-.45-.43.2-.43.45-.43.45.19.45.43"/>
    <path class="cls-47" d="M454.46,174.21c2.08.17,1.54,5.1,1.52,6.6.02.1.21.27.4.29.59.12,1.21-.02,1.8-.14-.7.17-1.91.68-2.34-.15.02-1.79.13-3.62-.27-5.37-.16-.52-.43-1.24-1.11-1.23"/>
    <path class="cls-93" d="M454.74,183.06l.65-.22c.79-.36,1.16-.07,1.16-.07,0,0,.16-.44,1.93-.02l.68.17s-2.65.61-4.41.13"/>
    <path class="cls-6" d="M453.92,173.91s-2.95-2.03-7.89-.42c0,0,3.26-2.53,7.89.42"/>
    <path class="cls-6" d="M458.05,173.35s3.16-4.82,11.65-1.26c0,0-6.01-2.53-11.65,1.26"/>
    <path class="cls-49" d="M412.23,385.23l-5.15,5.99s2.2,2.85,6.69,1.61l3.85-.45s1.7-2.7,1.65-4.1l.83-2.51-6.51-1.59-1.36,1.05Z"/>
    <path class="cls-91" d="M471.6,391.56s-3.56.11-8.14,2.42c0,0-9.17,3.03-9.9,4.01-.73.98-.46,2.23,2.38,1.87l24.2.06s4.49.29,2.66-5.06l-.46-3.32s-4.49,1.95-10.36,0"/>
  </g>
  <polyline class="cls-104" points="345.39 308.97 349.56 312.54 358.72 301.84 361.93 301.84 371.41 308.84 374.83 309.25 385.53 296.77 390.16 301.16 400.66 291.29"/>
  <polyline class="cls-106" points="395.27 291.96 401.46 291.24 399.84 296.3"/>
  <g class="cls-131">
    <path class="cls-6" d="M102.66,216.57s-3.39,7.14-16.78,1.16c0,0,.2,2.68-.79,4.33-.99,1.65-.86,2.23-2,2.59,0,0-.42.61-2.13-.46-.08-.05-.17-.11-.26-.17,0,0,.78,4.1-.96,5.26h-.78s-1.05-7.14-5.96-4.46c0,0-3.07,3.66,2.66,8.25l-4.05.18s-1.32-.53-2.64-4.41c0,0-4.31-15.83,5.91-17.66,0,0,.96.05,2.79-1.34,1.83-1.38,10.13.18,12.7.8,2.57.62,4.26.31,7.88,3.21,0,0,3.25,2.99,4.4,2.72"/>
    <path class="cls-31" d="M87.14,248.46s4.47-2.11,11.21,7.26l8.17,12.68s-12.47,7.14-11.73,14.27l-3.85-2.81s-1.54,15.47-3.79,17.97l-1.94.31s.5-2.99-1.79-3.88l-3.21-.71s.55-1.96-2.61-2.19l-2.34.22s-1.51.31-2.98,2.77c0,0-.5.67-2.29.49,0,0-5.78-.09-22.69-4.64,0,0-9.58-4.24-13.29-4.91l2.15-2.05,7.56-6.42s1.79-.54-.55-1.87c0,0-10.59-5.49-14.85-3.61,0,0-.41-1.2,1.65-3.75,0,0,10.72-14.99,16.09-18.2,0,0,3.53-4.46,15.17-3.03,0,0,7.31,18.95,25.91,2.1"/>
    <path class="cls-31" d="M37.12,305.86l.69,8.3s13.68-5.82,19.66-7.89c0,0-16.5-.13-20.35-.4"/>
    <path class="cls-86" d="M95.77,230.24s-3.07-3.41-10.78-.92c0,0,4.43,2.49,10.78.92"/>
    <path class="cls-99" d="M95.77,230.24s-3.07-3.41-10.78-.92c0,0,4.43,2.49,10.78.92Z"/>
    <path class="cls-47" d="M89.86,228.73s.6,1.74,2.55.96c0,0,.83-.43.89-.78,0,0-2.13-.79-3.45-.39"/>
    <path class="cls-47" d="M96.25,228.41s-1.38-2.74-10.08-1.36c0,0,8.48-2.95,10.08,1.36"/>
    <path class="cls-70" d="M225.49,216.21s6.74-1.2,8.39,8.3c0,0,1.65,5.75-1.92,8.03,0,0-2.92,6.42-2.08,17.66,0,0-4.38-3.71-11.53-4.39v-2.83s3.16,2.14,5.22-1.47c0,0,5.09-4.95,4.54-13.51,0,0-1.24-3.35-3.3-6.02,0,0-6.05,10.3-16.36,6.15,0,0-1.51,1.96-1.1,5.06l.69,2.43s-.05,3.03-1.67,6.87c0,0-.94,2.45-6.03,2.23,0,0-11.27,1.74-14.99,12.18l-5.77,13.65s-3.85-4.28.82-13.11c0,0,2.34-3.08,5.23-5.49,2.89-2.41,10.72-12.04,10.72-20.87,0,0,0-13.11,10.72-18.66,0,0,11.82-7.03,18.43,3.81"/>
  </g>
  <polygon class="cls-10" points="125.53 265.01 112.03 295.16 85.09 297.83 78.46 299.97 161.54 299.97 176.73 265.01 125.53 265.01"/>
  <polygon class="cls-54" points="0 299.97 0 303.99 10.72 303.99 10.72 306.22 311.29 306.22 311.29 304.25 322.15 304.25 323.54 299.97 0 299.97"/>
  <polygon class="cls-10" points="237.41 266.42 225.31 296.22 204.04 298.14 197.08 299.97 268.58 299.97 282.14 268.33 237.41 266.42"/>
  <polygon class="cls-47" points="327.25 330.86 316.38 381.68 319.54 381.68 333.48 330.81 327.25 330.86"/>
  <polygon class="cls-47" points="392.3 330.87 381.44 386.14 384.6 386.14 398.54 330.81 392.3 330.87"/>
  <g class="cls-129">
    <path class="cls-91" d="M407.08,391.22l11.02.34s2.37,2.74.99,7.42h-30.11s.83-2.31,3.85-3.23l14.25-4.53Z"/>
    <path class="cls-80" d="M191.21,305.86s-8.43,19.99,10.63,21.95c0,0,30.07,3.56,51.7-6.16,0,0,3.3.58,9.17,9.16l37.03,34.28,10.63-4.61-41.07-57.39h-78.46l.37,2.76Z"/>
    <path class="cls-28" d="M176.73,323.52s17.42-5.08,23.47-7.23c0,0,8.52,0-4.68,12.85l-11.55,12.84s-8.19-.94-10.04-8.7l2.8-9.77Z"/>
    <path class="cls-47" d="M37.71,312.92s.51,6.41,4.27,11.76c0,0,4.31,6.96,15.49,6.33l62.15-2.14s9.99,22.39,17.05,33.72l11.37,19.09s5.04-4.01,12.01-4.01l-17.78-54.77,32.54,11.68s1.47-9.01,3.76-12.31l-34.47-15.7-90.93-.35-15.46,6.7Z"/>
    <path class="cls-58" d="M208.46,236.91c0,1-.84,1.82-1.87,1.82s-1.87-.81-1.87-1.82.84-1.82,1.87-1.82,1.87.81,1.87,1.82"/>
    <path class="cls-58" d="M205.7,234.71c0,.21-.18.38-.39.38s-.39-.17-.39-.38.18-.38.39-.38.39.17.39.38"/>
    <path class="cls-58" d="M204.72,235.47c0,.21-.18.38-.39.38s-.39-.17-.39-.38.18-.38.39-.38.39.17.39.38"/>
    <path class="cls-58" d="M204.47,236.67c0,.21-.18.38-.39.38s-.39-.17-.39-.38.18-.38.39-.38.39.17.39.38"/>
    <path class="cls-58" d="M204.72,237.9c0,.21-.18.38-.39.38s-.39-.17-.39-.38.18-.38.39-.38.39.17.39.38"/>
    <path class="cls-58" d="M205.46,238.8c0,.21-.18.38-.39.38s-.39-.17-.39-.38.18-.38.39-.38.39.17.39.38"/>
    <path class="cls-58" d="M206.77,239.22c0,.21-.18.38-.39.38s-.39-.17-.39-.38.18-.38.39-.38.39.17.39.38"/>
    <path class="cls-58" d="M208,239.11c0,.21-.18.38-.39.38s-.39-.17-.39-.38.18-.38.39-.38.39.17.39.38"/>
    <path class="cls-58" d="M208.97,238.42c0,.21-.18.38-.39.38s-.39-.17-.39-.38.18-.38.39-.38.39.17.39.38"/>
    <path class="cls-58" d="M209.56,237.36c0,.21-.18.38-.39.38s-.39-.17-.39-.38.18-.38.39-.38.39.17.39.38"/>
    <path class="cls-58" d="M209.49,236.29c0,.21-.18.38-.39.38s-.39-.17-.39-.38.18-.38.39-.38.39.17.39.38"/>
    <path class="cls-58" d="M208.97,235.28c0,.21-.18.38-.39.38s-.39-.17-.39-.38.18-.38.39-.38.39.17.39.38"/>
    <path class="cls-58" d="M207.93,234.6c0,.21-.18.38-.39.38s-.39-.17-.39-.38.18-.38.39-.38.39.17.39.38"/>
    <path class="cls-58" d="M206.89,234.43c0,.21-.18.38-.39.38s-.39-.17-.39-.38.18-.38.39-.38.39.17.39.38"/>
    <path class="cls-58" d="M228.51,239.58c0,1-.84,1.82-1.87,1.82s-1.87-.81-1.87-1.82.84-1.82,1.87-1.82,1.87.81,1.87,1.82"/>
    <path class="cls-58" d="M225.76,237.38c0,.21-.18.38-.39.38s-.39-.17-.39-.38.18-.38.39-.38.39.17.39.38"/>
    <path class="cls-58" d="M224.78,238.14c0,.21-.18.38-.39.38s-.39-.17-.39-.38.18-.38.39-.38.39.17.39.38"/>
    <path class="cls-58" d="M224.53,239.33c0,.21-.18.38-.39.38s-.39-.17-.39-.38.18-.38.39-.38.39.17.39.38"/>
    <path class="cls-58" d="M224.78,240.56c0,.21-.18.38-.39.38s-.39-.17-.39-.38.18-.38.39-.38.39.17.39.38"/>
    <path class="cls-58" d="M225.52,241.47c0,.21-.18.38-.39.38s-.39-.17-.39-.38.18-.38.39-.38.39.17.39.38"/>
    <path class="cls-58" d="M226.82,241.89c0,.21-.18.38-.39.38s-.39-.17-.39-.38.18-.38.39-.38.39.17.39.38"/>
    <path class="cls-58" d="M228.06,241.77c0,.21-.18.38-.39.38s-.39-.17-.39-.38.18-.38.39-.38.39.17.39.38"/>
    <path class="cls-58" d="M229.03,241.09c0,.21-.18.38-.39.38s-.39-.17-.39-.38.18-.38.39-.38.39.17.39.38"/>
    <path class="cls-58" d="M229.62,240.03c0,.21-.18.38-.39.38s-.39-.17-.39-.38.18-.38.39-.38.39.17.39.38"/>
    <path class="cls-58" d="M229.54,238.95c0,.21-.18.38-.39.38s-.39-.17-.39-.38.18-.38.39-.38.39.17.39.38"/>
    <path class="cls-58" d="M229.03,237.95c0,.21-.18.38-.39.38s-.39-.17-.39-.38.18-.38.39-.38.39.17.39.38"/>
    <path class="cls-58" d="M227.99,237.27c0,.21-.18.38-.39.38s-.39-.17-.39-.38.18-.38.39-.38.39.17.39.38"/>
    <path class="cls-58" d="M226.95,237.09c0,.21-.18.38-.39.38s-.39-.17-.39-.38.18-.38.39-.38.39.17.39.38"/>
    <path class="cls-83" d="M218.85,231.6s-4.27-2.97-8.89.78c.41.11,4.93,2.07,8.89-.78"/>
    <path class="cls-99" d="M218.85,231.6s-4.27-2.97-8.89.78c.41.11,4.93,2.07,8.89-.78Z"/>
    <path class="cls-83" d="M231.48,231.1s-4.16-3.29-9.08.3c.41.14,4.89,2.41,9.08-.3"/>
    <path class="cls-99" d="M231.48,231.1s-4.16-3.29-9.08.3c.41.14,4.89,2.41,9.08-.3Z"/>
    <path class="cls-47" d="M212.86,230.99s.78,1.05,2.59.53c0,0,1.03-.48.87-.92,0,0-2.47-.31-3.46.39"/>
    <path class="cls-47" d="M224.72,230.1s.71,1.38,2.52.63c0,0,.63-.4.5-.9,0,0-2.21-.04-3.02.26"/>
    <path class="cls-47" d="M219.44,230.76c2.08.17,1.54,5.1,1.52,6.6.02.1.21.27.4.29.59.12,1.21-.02,1.8-.14-.7.17-1.91.68-2.33-.15.02-1.79.13-3.62-.27-5.37-.16-.52-.43-1.24-1.11-1.23"/>
    <path class="cls-87" d="M223.55,239.26s.06.66-.83,1.1c0,0-1.95.64-2.97-.93"/>
    <path class="cls-77" d="M223.71,239.22l-.63-.18c-.77-.3-1.1.02-1.1.02,0,0-.19-.43-1.82.12l-.62.22s2.55.42,4.18-.18"/>
    <path class="cls-6" d="M222.47,229.81s2.56-3.45,8.71-.45c0,0-4.35-2.13-8.71.45"/>
    <path class="cls-6" d="M218.95,229.97s-2.56-3.45-8.71-.45c0,0,4.35-2.13,8.71.45"/>
  </g>
  <polygon class="cls-2" points="397.26 234.05 404.34 234.05 393.87 282.03 386.16 282.03 397.26 234.05"/>
  <polygon class="cls-2" points="384.83 240.24 391.92 240.24 381.44 282.03 373.74 282.03 384.83 240.24"/>
  <polygon class="cls-2" points="373.12 240.24 380.21 240.24 369.73 282.03 362.03 282.03 373.12 240.24"/>
  <polygon class="cls-2" points="358.1 251.14 363.77 252.31 357.54 283.11 350.3 282.88 358.1 251.14"/>
  <g class="cls-117">
    <path class="cls-86" d="M217.92,265.37c0,.58-.49,1.05-1.08,1.05s-1.08-.47-1.08-1.05.49-1.05,1.08-1.05,1.08.47,1.08,1.05"/>
    <path class="cls-86" d="M217.42,261.09c0,.58-.49,1.05-1.08,1.05s-1.08-.47-1.08-1.05.49-1.05,1.08-1.05,1.08.47,1.08,1.05"/>
    <path class="cls-86" d="M218.5,270.35c0,.58-.49,1.05-1.08,1.05s-1.08-.47-1.08-1.05.49-1.05,1.08-1.05,1.08.47,1.08,1.05"/>
    <path class="cls-21" d="M877.21,150.42c-.61-2.1-3.79-3.67-6.79-2.15.32-3.1-1.32-6.05-4.03-7.3-2.43-1.12-5.33-.7-7.43,1.07-.12-.48-2.2-7.98-8.49-9.87-6.22-1.87-14.24,2.45-16.98,10.95-.96-1.8-3.02-2.68-4.88-2.15-2.03.58-3.36,2.72-2.97,4.94-3.67-4.05-9.27-4.23-12.1-1.5-1.91,1.85-2.49,4.96-1.7,7.94-1.83.03-3.23,1.17-3.79,2.49h67.39c1.51-1.21,2.19-3.03,1.78-4.42"/>
    <path class="cls-23" d="M937.05,180.44c-.46-1.52-2.86-2.66-5.14-1.55.24-2.25-1-4.38-3.05-5.29-1.84-.81-4.03-.51-5.62.78-.09-.35-1.67-5.78-6.42-7.15-4.71-1.36-10.78,1.77-12.85,7.93-.73-1.3-2.29-1.94-3.69-1.55-1.54.42-2.54,1.97-2.25,3.57-2.78-2.93-7.02-3.06-9.15-1.09-1.45,1.34-1.89,3.6-1.29,5.75-1.39.02-2.45.85-2.87,1.8h50.98c1.15-.88,1.66-2.19,1.35-3.2"/>
    <path class="cls-11" d="M755.26,103.06c-.66-2.25-4.09-3.92-7.33-2.29.35-3.31-1.43-6.46-4.35-7.79-2.62-1.19-5.75-.74-8.02,1.14-.13-.51-2.38-8.52-9.17-10.54-6.72-2-15.37,2.62-18.33,11.68-1.04-1.92-3.26-2.86-5.27-2.29-2.19.62-3.63,2.91-3.21,5.27-3.96-4.32-10.01-4.51-13.06-1.6-2.07,1.97-2.69,5.3-1.83,8.48-1.98.03-3.49,1.25-4.09,2.66h72.73c1.63-1.29,2.36-3.23,1.93-4.72"/>
    <path class="cls-39" d="M680.6,352.61c0-.8-35.82-1.45-80-1.45s-80,.65-80,1.45,35.82,1.45,80,1.45,80-.65,80-1.45"/>
    <path class="cls-39" d="M1051.43,258.04c0-.8-35.82-1.45-80-1.45s-80,.65-80,1.45,35.82,1.45,80,1.45,80-.65,80-1.45"/>
    <path class="cls-39" d="M906.02,249.4c0,.8-26.79,1.45-59.84,1.45s-59.84-.65-59.84-1.45,26.79-1.45,59.84-1.45,59.84.65,59.84,1.45"/>
    <path class="cls-39" d="M695.7,278.98c0,1.68-21.29,3.05-47.55,3.05s-47.55-1.37-47.55-3.05,21.29-3.05,47.55-3.05,47.55,1.36,47.55,3.05"/>
    <path class="cls-15" d="M710.05,352.27s-9.12-.72-11.3,34.03c0,0-9.56,75.16-10.43,83.85-.87,8.69,42.92,6.52,42.92,6.52l12-98.47-21.47-25.93h-11.73Z"/>
    <path class="cls-87" d="M958.73,352.27s22.42,15.78,21.99,56.62l1.2,45.16-66.33-2.27,8.17-77.15,34.97-22.37Z"/>
    <path class="cls-86" d="M896.47,269.2s.09,1.65,2.65,1.34c0,0,1.82-.52,1.64-1.54,0,0-1.64-.46-4.29.2"/>
    <path class="cls-103" d="M896.47,269.2s.09,1.65,2.65,1.34c0,0,1.82-.52,1.64-1.54,0,0-1.64-.46-4.29.2"/>
    <path class="cls-47" d="M894.64,267.89s2.95-3.79,11.65.42c0,0-8.85-5.53-11.65-.42"/>
    <path class="cls-100" d="M894.64,267.89s2.95-3.79,11.65.42c0,0-8.85-5.53-11.65-.42"/>
    <path class="cls-86" d="M818.28,326.24h28.04c.23,0,.41-.18.41-.41s-.18-.41-.41-.41h-28.04c-.22,0-.41.18-.41.41s.18.41.41.41"/>
    <path class="cls-86" d="M817.87,329.16h28.04c.23,0,.41-.18.41-.41s-.18-.41-.41-.41h-28.04c-.22,0-.41.18-.41.41s.18.41.41.41"/>
    <path class="cls-86" d="M817.47,332.08h28.04c.23,0,.41-.18.41-.41s-.18-.41-.41-.41h-28.04c-.22,0-.41.18-.41.41s.18.41.41.41"/>
  </g>
  <polygon class="cls-79" points="872.79 261.5 886.76 349 850.25 349 872.79 261.5"/>
  <g class="cls-118">
    <path class="cls-20" d="M789.49,347.55c0,1.12,1.12,2.03,2.5,2.03h69.02c1.38,0,2.5-.91,2.5-2.03l9.27-86.05c0-1.12-1.12-2.03-2.5-2.03h-69.02c-1.48,0-2.41.92-2.5,2.03l-9.27,86.05Z"/>
  </g>
  <polygon class="cls-82" points="858.71 345.52 868.07 259.47 804.1 259.47 794.73 345.52 858.71 345.52"/>
  <g class="cls-121">
    <path class="cls-86" d="M853.87,273.83c-2.69,0-4.88,1.78-4.88,3.96s2.19,3.96,4.88,3.96,4.88-1.78,4.88-3.96-2.19-3.96-4.88-3.96M853.87,282.56c-3.24,0-5.88-2.14-5.88-4.77s2.64-4.77,5.88-4.77,5.88,2.14,5.88,4.77-2.64,4.77-5.88,4.77"/>
    <path class="cls-86" d="M853.43,280.44c-.12,0-.23-.03-.32-.1l-2.69-1.85c-.21-.15-.24-.4-.06-.57.18-.17.49-.19.71-.05l2.27,1.56,3-3.51c.16-.18.47-.23.7-.1.23.13.28.38.13.57l-3.31,3.88c-.08.09-.21.16-.35.17-.02,0-.04,0-.07,0"/>
    <path class="cls-86" d="M808.3,275.28h34.59c.28,0,.5-.18.5-.41s-.22-.41-.5-.41h-34.59c-.28,0-.5.18-.5.41s.22.41.5.41"/>
    <path class="cls-86" d="M807.8,278.19h34.59c.28,0,.5-.18.5-.41s-.22-.41-.5-.41h-34.59c-.28,0-.5.18-.5.41s.22.41.5.41"/>
    <path class="cls-86" d="M807.3,281.11h34.59c.28,0,.5-.18.5-.41s-.22-.41-.5-.41h-34.59c-.28,0-.5.18-.5.41s.22.41.5.41"/>
    <path class="cls-86" d="M851.74,290.29c-2.69,0-4.88,1.78-4.88,3.96s2.19,3.96,4.88,3.96,4.88-1.78,4.88-3.96-2.19-3.96-4.88-3.96M851.74,299.02c-3.24,0-5.88-2.14-5.88-4.77s2.64-4.77,5.88-4.77,5.88,2.14,5.88,4.77-2.64,4.77-5.88,4.77"/>
    <path class="cls-86" d="M851.31,296.9c-.12,0-.23-.03-.32-.1l-2.69-1.85c-.21-.15-.24-.4-.06-.57.18-.17.49-.19.71-.05l2.27,1.56,3-3.51c.16-.18.47-.23.7-.1.23.13.28.38.13.57l-3.31,3.88c-.08.09-.21.16-.35.17-.02,0-.04,0-.07,0"/>
    <path class="cls-86" d="M806.16,291.33h34.59c.28,0,.5-.18.5-.41s-.22-.41-.5-.41h-34.59c-.28,0-.5.18-.5.41s.22.41.5.41"/>
    <path class="cls-86" d="M805.66,294.25h34.59c.28,0,.5-.18.5-.41s-.22-.41-.5-.41h-34.59c-.28,0-.5.18-.5.41s.22.41.5.41"/>
    <path class="cls-86" d="M805.16,297.16h34.59c.28,0,.5-.18.5-.41s-.22-.41-.5-.41h-34.59c-.28,0-.5.18-.5.41s.22.41.5.41"/>
    <path class="cls-86" d="M850.04,308.27c-2.69,0-4.88,1.77-4.88,3.96s2.19,3.96,4.88,3.96,4.88-1.78,4.88-3.96-2.19-3.96-4.88-3.96M850.04,317c-3.24,0-5.88-2.14-5.88-4.77s2.64-4.77,5.88-4.77,5.88,2.14,5.88,4.77-2.64,4.77-5.88,4.77"/>
    <path class="cls-86" d="M849.6,314.89c-.12,0-.23-.03-.32-.1l-2.69-1.85c-.21-.14-.24-.4-.06-.57.18-.17.49-.19.71-.05l2.27,1.56,3-3.51c.16-.18.47-.23.7-.1.23.13.28.38.13.56l-3.31,3.88c-.08.09-.21.16-.35.17-.02,0-.04,0-.07,0"/>
    <path class="cls-86" d="M804.39,309.72h34.59c.28,0,.5-.18.5-.41s-.22-.41-.5-.41h-34.59c-.28,0-.5.18-.5.41s.22.41.5.41"/>
    <path class="cls-86" d="M803.88,312.63h34.59c.28,0,.5-.18.5-.41s-.22-.4-.5-.4h-34.59c-.28,0-.5.18-.5.4s.22.41.5.41"/>
    <path class="cls-86" d="M803.38,315.55h34.59c.28,0,.5-.18.5-.41s-.22-.41-.5-.41h-34.59c-.28,0-.5.18-.5.41s.22.41.5.41"/>
    <path class="cls-18" d="M843.15,259.47v2.25c0,.32-.33.59-.73.59h-12.8c-.4,0-.73-.26-.73-.59v-2.25h14.26Z"/>
    <path class="cls-20" d="M833.93,252.86c0-.71.71-1.29,1.59-1.29s1.59.58,1.59,1.29-.71,1.29-1.59,1.29-1.59-.58-1.59-1.29M828.4,258.23v3.11c0,.33.33.59.73.59h12.8c.4,0,.73-.26.73-.59v-3.11c0-.27-.22-.49-.53-.56,0,0,0,0,0,0-.74-.18-4.47-.9-4.47-2.75.72-.49,1.18-1.23,1.18-2.06,0-1.49-1.49-2.69-3.32-2.69s-3.32,1.2-3.32,2.69c0,.84.47,1.58,1.21,2.08-.03,1.84-3.8,2.56-4.54,2.74h0c-.28.08-.48.3-.48.55"/>
    <path class="cls-67" d="M841.45,258.91s-.18-.02-.51-.04c-.32-.02-.79-.05-1.34-.08-1.11-.05-2.59-.09-4.07-.09-1.48,0-2.96.04-4.07.09-.55.02-1.02.06-1.34.08-.32.02-.51.04-.51.04,0,0,.18.02.51.04.32.02.79.05,1.34.08,1.11.05,2.59.08,4.07.09,1.48,0,2.96-.04,4.07-.09.55-.02,1.02-.06,1.34-.08.32-.02.51-.04.51-.04"/>
    <path class="cls-67" d="M841.45,260.58s-.18-.02-.51-.04c-.32-.02-.79-.05-1.34-.08-1.11-.05-2.59-.08-4.07-.09-1.48,0-2.96.04-4.07.09-.55.02-1.02.06-1.34.08-.32.02-.51.04-.51.04,0,0,.18.02.51.04.32.02.79.05,1.34.08,1.11.05,2.59.09,4.07.09,1.48,0,2.96-.04,4.07-.09.55-.02,1.02-.06,1.34-.08.32-.02.51-.04.51-.04"/>
    <path class="cls-84" d="M796.06,300.49c-2.81.81-4.77,9.97-5.95,12.53-1.18,2.56-24.67,10.4-31.6,13.83-3.31,3.31-6.1,10.77-6.1,18.01,3.57,1.14,42.48-25.7,42.48-25.7,0,0,1.23-10.25,1.23-15.52,2.86,0,7.23,2.13,8.06.15.54-1.3-5.31-4.12-8.12-3.3"/>
    <path class="cls-38" d="M784.1,321.44c4.6,1.4,33.51,1.74,35.94,2.02,2.42.28,10.28-4.62,15.26-1.44,4.21,2.69,14.08,10.12,9.51,14.6-.35.9-1.1,1.39-1.85,1.54-.69,1.41-1.79,1.55-2.47,1.31-.56.83-1.49,1.38-2.28.38-2.84-1.65-14.55-5.94-16.97-6.89-2.42-.95-32.22,8.04-43.62,6.71-.5-3.13-.26-16.14,6.49-18.24"/>
    <path class="cls-76" d="M842.96,338.17c.31-.76.07-1.73-.22-2.46-.18-.43-.38-.85-.64-1.24-.28-.42-.58-.82-.88-1.23-.65-.77-1.34-1.49-2.09-2.17-.61-.56-1.24-1.11-1.85-1.67.73.47,1.43.95,2.1,1.49.78.63,1.48,1.34,2.14,2.1.31.42.62.84.89,1.29.24.4.43.83.58,1.27.27.79.43,1.87-.03,2.62"/>
    <path class="cls-76" d="M844.8,336.63c.21-.81.02-1.8-.27-2.57-.16-.43-.33-.88-.57-1.28-.26-.44-.53-.86-.81-1.29-.53-.81-1.22-1.56-1.9-2.25-.59-.59-1.19-1.16-1.79-1.75.69.48,1.36.98,1.99,1.54.38.34.74.7,1.09,1.07.35.37.7.79.98,1.22.56.84,1.02,1.69,1.3,2.66.24.8.33,1.86-.02,2.65"/>
    <path class="cls-76" d="M840.49,339.48c.16-.3.12-.72.04-1.04-.1-.41-.25-.81-.46-1.18-.43-.76-.92-1.45-1.46-2.14-.91-1.16-1.96-2.19-2.92-3.31,1.28.96,2.39,2.06,3.41,3.29.49.59.89,1.27,1.22,1.96.2.42.33.87.38,1.33.04.35.02.79-.21,1.08"/>
    <path class="cls-19" d="M742.85,273.42c-13.65,4.46-15.64,5.65-22.99,24.29-7.35,18.63-6.6,40.09-11.85,54.26.25,10.88,4.91,15.72,10.76,19.3,7.75,4.73,17.41,6.34,24.48,6.94,0-9.18,9.69-35.71,15.92-48.83,8.86,6.03,12.29,13.98,18.44,10.31,2.23-3.9,2.6-14.35,6.49-18.24-.9-2.83-2.17-3.53-5.23-4.4-3.06-.88-4.99-4.72-7.43-7.17-2.45-6.47-7.67-19.72-11.69-23.74-4.79-6.82-12.96-11.57-16.9-12.71"/>
    <path class="cls-25" d="M756.08,336.52c1.11-2.49,2.06-4.96,3.09-7.14-4.94-3.97-20.62-16.88-27.62-22.3,7.07,7.57,19.46,20.96,24.53,29.45"/>
    <path class="cls-41" d="M770.74,309.47c-.09,0-.18-.04-.24-.12-.12-.15-12.19-15.31-24.27-25.14-.13-.11-.15-.3-.04-.43.11-.13.3-.15.43-.04,12.13,9.88,24.24,25.09,24.36,25.24.11.13.08.32-.05.43-.06.04-.12.07-.19.07"/>
    <path class="cls-41" d="M759.17,329.68c-.07,0-.13-.02-.19-.07-.15-.12-15.51-12.45-27.62-22.3-.13-.11-.15-.3-.04-.43.1-.13.3-.15.43-.04,12.1,9.86,27.46,22.18,27.62,22.3.13.11.15.3.05.43-.06.07-.15.11-.24.11"/>
    <path class="cls-52" d="M778.11,318.62c-2.01,2.25-3.72,4.94-4.93,7.7-.69,1.57-1.23,3.16-1.68,4.82-.35,1.41-.55,2.84-.75,4.27-.1-1.42-.11-2.84.13-4.24.31-1.76.8-3.4,1.5-5.05.73-1.55,1.57-3.03,2.64-4.38.89-1.14,1.91-2.28,3.09-3.12"/>
    <path class="cls-74" d="M752.34,267.87c-.85-5.41-2.08-9.28-3.5-13.84s-.24-15.44,10.63-18.43c9-2.47,21.51,2.79,28.06,2.79s6.46,6.9-1.52,10.6c-10.11,6.41-23.98,21.73-33.67,18.88"/>
    <path class="cls-8" d="M785.05,261.5c.18-.95,1.91-9.99,1.57-12.82-2.99,0-11.95-2.12-13.09.87-1.14,2.99-4.56,1.53-6.28,4.99-1.72,3.46-2.5,4.35-4.47,5.13,1.14-6.41-3.49-8.05-6.12-6.34-3.55,2.3-1.64,7.95,0,9.58-5.7,7.26-8.69,8.09-13.81,10.51,4.56,6.98,13.46,14.38,17.52,18.43,0-4.7.28-8.54,3.85-12.1,4.27,1.14,10.15,3.71,13.24,1,2.24-1.96,3.88-5.2,5.22-9.38,1.6.54,3.48,1.05,3.8-.37.48-2.1-1.61-8.54-1.43-9.49"/>
    <path class="cls-69" d="M783.72,259.49c-.51-.13-1.02-.29-1.55-.36-.54-.06-1.02-.02-1.55.04.85-.78,2.38-.56,3.1.32"/>
    <path class="cls-69" d="M756.67,262.91c.42.2.85.33,1.31.41.46.08.93.03,1.39.09-.8.53-2.26.51-2.71-.51"/>
    <path class="cls-69" d="M760.58,259.6c0-1.99-.36-4.77-2.14-3.99-1.78.78-1.28,4.13.49,5.62,0-1.35.29-1.99,1.64-1.64"/>
    <path class="cls-69" d="M759.37,269.59c-1.01,3.3-.36,8.17,3.34,11.95.42-.61.91-1.2,1.5-1.79-2-.82-4.84-3.61-4.84-10.16"/>
    <path class="cls-69" d="M780.63,274.62c-1.89.4-3.58-1.45-3.1-3.26.28.69.48,1.4,1.03,1.94.31.31.66.59,1.05.8.1.06,1.02.45,1.02.52"/>
    <path class="cls-74" d="M932.47,254.79c3.71.17,11.37,3.37,10.78,16.11-.59,12.74,12.7,28.35-3.62,38.13-4.65-6.66-5.17-10.21-6.76-11.96.99-5.41.25-8.17,1.75-16.4,1.49-8.23,2.32-15.38-1.73-16.31-.51-5.1-1.6-5.53-.43-9.56"/>
    <path class="cls-57" d="M927.27,252.07c3.17-.68,7.27-.08,6.96,6.68-.31,6.76.16,9.01-6.07,8.06.25-5.36.56-12.2-.89-14.74"/>
    <path class="cls-74" d="M895.25,268.03c-4.89-1.38-11.67-6.65.83-18.05,3.54-3.22,11.08-7.38,22.56-5.53,11.48,1.85,14.49,13.17,11.29,21.16-3.08,7.71-3.79,13.28-8.46,14.23-4.74,4.32-22.17-9.37-26.22-11.8"/>
    <path class="cls-34" d="M919.95,275.24c1.49-1.36,3.66-5.88,1.73-8-1.93-2.12-5.62-1.72-7.33,3.04-3.28-1.39-5.51-1.48-6.43-5.68s-2.79-4.04-6.22-4.82c-3.43-.78-4.07-3.04-5.49-4.59-1.18,3.26-2.68,12.08-2.85,15.63-.05,1.05-3.43,6.24-3.29,7.38.08.7,2.11.79,3.58.47.5,4.93,1.79,8.85,4.96,10.46,1.25.64,5.74-.02,9.38-1.92,3.89,4.27,6.09,4.99,8.42,13.52,2.78-3.96,10.5-9.55,14.88-10.72-4.31-4.73-8.29-8.56-11.35-14.77"/>
    <path class="cls-69" d="M919.95,275.24c-.94,1.27-2.94,1.52-4.32.92,1.53-.02,2.94-.18,4.32-.92"/>
    <path class="cls-1" d="M916.46,271.61c.7-1.83,1.88-3.2,2.97-2.59,1.09.61.1,4.59-2.52,4.96.36-1.1.17-1.7-.45-2.38"/>
    <path class="cls-1" d="M908,287.21c.61.67,1.18,1.26,1.72,1.79,1.93-1.71,3.68-4.25,4.66-7.08-1.62,2.78-4.34,4.01-6.38,5.28"/>
    <path class="cls-8" d="M838.2,339.86c-.92-1.49-2.33-9.61-4.5-6.79-.75-2.19-2.34-2.72-2.81-.33-.55-2.24-2.59-2.61-2.86-.33-1.18-1.49-3.47-1.75-2.8.34.66,2.09.93,5.92,3.06,5.34,1.32,1.67,3.02,1.48,3.45.85.8,1.01,2.47,1.17,2.97-.1,1,1.26,1.8,1.56,3.49,1.02"/>
    <path class="cls-8" d="M837.92,323.84c-2.24,1.77-6.03,3.37-7.11,2-1.09-1.37,5.99-6.78,8.23-6.52,2.24.26,7.34,5.83,9.47,7.06,1.07.62,2.68.06,4.48-.07.78,2.9.07,7.87-1.8,9.31-.67,0-2.01.03-2.44.03-1.34,0-2.88-.17-3.28.15.49-1.4,2.43-4.09-7.55-11.96"/>
    <path class="cls-44" d="M833.7,333.07c.22.98.37,1.97.54,2.96.16.93.36,1.87.47,2.81-.44-.87-.67-1.79-.86-2.75-.19-.97-.27-2.04-.15-3.02"/>
    <path class="cls-44" d="M830.89,332.74c.14,1.06.26,2.12.4,3.18.08.62.17,1.24.27,1.85.06.39.14.77.18,1.17-.41-.9-.66-1.85-.82-2.82-.17-1.09-.25-2.29-.03-3.38"/>
    <path class="cls-44" d="M828.04,332.41c.09.99.12,1.99.16,2.99.02.53.05,1.06.06,1.59,0,.07.03,1.1.04,1.1-.03,0-.09-.28-.1-.3-.08-.25-.15-.51-.2-.77-.11-.58-.16-1.16-.2-1.75-.05-.93,0-1.95.24-2.86"/>
    <path class="cls-7" d="M832.87,326.29c.54-.12,1.06-.34,1.56-.57.62-.29,1.24-.61,1.81-.99,1.07-.66,2.03-1.45,3.06-2.16-.81.99-1.77,1.82-2.85,2.5-.55.36-1.16.66-1.78.88-.57.2-1.19.37-1.8.34"/>
    <path class="cls-8" d="M856.51,341.91c-3.48-.54-9.06-3.44-12.63-1.63-7.95,4.03-19.6,6.26-20,7.08-.64,1.31.73,2.5,4.1,2.5s24.43.65,29.69-.54c2.41-2.41,1.21-6.86-1.16-7.4"/>
    <path class="cls-69" d="M828.04,349.43c3.37-2.86,8.97-3.86,14.22-3.92-5.02.58-10.58,1.6-14.22,3.92"/>
    <path class="cls-69" d="M825.4,349.43c3.4-3.82,10.41-5.16,16.28-5.99-5.65,1.31-12.59,2.59-16.28,5.99"/>
    <path class="cls-88" d="M927.86,285.06c7.29,1.98,8.46,4.71,15.89,25.82,7.43,21.11,8.38,27.2,14.99,41.39-8.7,13.77-19.2,19.5-34.97,22.37-2.97-9.5-5.4-22.51-13.46-30.57-3.59,4-5.61,6.36-9.57,6.36s-37.3-.83-43.24,0c.05-2.86-.26-6.49-.98-8.52,3.47-.99,15.57-4.12,20.69-5.11-7.55.26-.53.04-26-1.17,1.49-2.67,1.8-6.26,1.8-9.31,19.97-2.18,29.51-5.41,37.25-5.1,3.5-4.99,12.77-11.52,18.31-17.96,2.32-4.77,3.43-8.54,5.16-10.27,5.4-5.4,8.1-7.92,14.16-7.92"/>
    <path class="cls-5" d="M892.94,327.78c-.17,0-.3-.14-.3-.3,0-3.14-2.37-5.83-2.4-5.85-.11-.12-.1-.32.02-.43.12-.11.32-.1.43.02.11.12,2.56,2.88,2.56,6.26,0,.17-.14.3-.3.3"/>
    <path class="cls-5" d="M877.35,336.87c-.14,0-.27-.1-.3-.24-.03-.16.07-.33.23-.36,6.77-1.41,17.35-3.71,20.28-3.81,1.68-3.62,3.94-9.91,6.32-16.55,3.03-8.42,6.15-17.13,8.49-21.5.08-.15.26-.21.41-.12.15.08.2.26.12.41-2.31,4.33-5.44,13.02-8.45,21.42-2.43,6.76-4.73,13.15-6.42,16.77l-.08.18h-.19c-2.58,0-13.36,2.28-13.47,2.3-.02,0-6.93,1.5-6.95,1.5"/>
    <path class="cls-5" d="M901.39,337.19c-.12,0-.24-.07-.28-.2-.94-2.5-3.47-3.95-3.5-3.97-.15-.08-.2-.27-.11-.42.08-.15.27-.2.41-.12.11.06,2.75,1.57,3.77,4.29.06.16-.02.33-.18.39-.03.01-.07.02-.11.02"/>
    <path class="cls-57" d="M927.86,317.74c-4.24,8.25-13.75,20.8-17.55,26.33,1.82,1.82,3.35,3.89,4.67,6.13,3.32-7.79,8.91-21.67,12.88-32.46"/>
    <path class="cls-5" d="M910.31,344.37c-.06,0-.13-.02-.18-.06-.13-.1-.16-.29-.06-.43.16-.21,16.08-21.41,18.76-29.17.05-.16.23-.24.39-.19.16.06.24.23.19.39-2.71,7.85-18.19,28.47-18.85,29.34-.06.08-.15.12-.24.12"/>
  </g>
  <g class="cls-120">
    <path class="cls-36" d="M782.85,367.45c10.13,5.44,17.69,16.84,17.69,24.22h106.34c0-7.38,7.56-18.78,17.69-24.22-4.46-2.29-137.26-2.29-141.71,0"/>
    <path class="cls-36" d="M782.85,361.7h141.61c1.25,0,2.27,1.02,2.27,2.27v1.21c0,1.25-1.02,2.27-2.27,2.27h-141.61c-1.25,0-2.27-1.02-2.27-2.27v-1.21c0-1.25,1.02-2.27,2.27-2.27Z"/>
    <path class="cls-45" d="M857.46,391.67h49.42c0-7.38,7.56-18.78,17.69-24.22h-99.75c22.45,7.44,30.64,20.39,32.64,24.22"/>
    <path class="cls-42" d="M924.57,367.81h-141.71c-.2,0-.36-.16-.36-.37s.16-.37.36-.37h141.71c.2,0,.37.16.37.37s-.16.37-.37.37"/>
  </g>
  <g class="cls-119">
    <path class="cls-90" d="M813.28,254.79c0,4.15-3.37,7.52-7.52,7.52s-7.52-3.37-7.52-7.52,3.37-7.52,7.52-7.52,7.52,3.37,7.52,7.52"/>
    <path class="cls-86" d="M801.94,253.28c-.32,0-.58.26-.58.58l.73,4.27c.04.18.17.61.59.61h6.18c.29,0,.49-.21.59-.62l.73-4.28c0-.3-.26-.56-.58-.56h-7.64ZM808.86,259.03h-6.18c-.43,0-.76-.32-.87-.84l-.73-4.3c0-.5.39-.9.87-.9h7.64c.48,0,.87.39.87.87l-.73,4.32c-.13.55-.44.85-.87.85"/>
    <path class="cls-86" d="M802.64,253.81c-.06,0-.12-.01-.17-.04-.18-.1-.24-.32-.14-.49l1.78-3.27c.1-.18.32-.24.49-.15.18.1.24.32.15.49l-1.78,3.27c-.07.12-.19.19-.32.19"/>
    <path class="cls-86" d="M808.94,253.81c-.13,0-.25-.07-.32-.19l-1.78-3.27c-.1-.18-.03-.4.15-.49.18-.1.4-.03.49.15l1.78,3.27c.1.18.03.4-.14.49-.06.03-.11.04-.17.04"/>
    <path class="cls-86" d="M805.77,259.03c-.08,0-.15-.07-.15-.15v-5.75c0-.08.07-.14.15-.14s.15.06.15.14v5.75c0,.08-.07.15-.15.15"/>
    <path class="cls-86" d="M809.86,256.16h-8.25c-.08,0-.15-.07-.15-.15s.07-.15.15-.15h8.25c.08,0,.15.07.15.15s-.07.15-.15.15"/>
    <path class="cls-86" d="M809.69,257.66h-7.86c-.08,0-.15-.07-.15-.15s.07-.15.15-.15h7.86c.08,0,.15.07.15.15s-.07.15-.15.15"/>
    <path class="cls-86" d="M810.19,254.75h-8.85c-.08,0-.15-.07-.15-.15s.07-.15.15-.15h8.85c.08,0,.15.07.15.15s-.07.15-.15.15"/>
    <path class="cls-86" d="M806.98,259.03h0c-.08,0-.14-.07-.14-.15l.36-5.75c0-.08.06-.14.16-.14.08,0,.14.07.13.15l-.36,5.75c0,.08-.07.14-.15.14"/>
    <path class="cls-86" d="M808.17,259.03s-.01,0-.02,0c-.08,0-.14-.08-.13-.16l.73-5.75c.01-.08.09-.14.16-.13.08,0,.14.08.12.16l-.73,5.75c0,.07-.07.13-.14.13"/>
    <path class="cls-86" d="M804.55,259.03c-.08,0-.14-.06-.15-.14l-.36-5.75c0-.08.06-.15.14-.15.09,0,.15.06.16.14l.36,5.75c0,.08-.06.15-.14.15h0Z"/>
    <path class="cls-86" d="M803.37,259.03c-.07,0-.14-.05-.14-.13l-.73-5.75c-.01-.08.05-.15.13-.16.07,0,.15.05.16.13l.73,5.75c.01.08-.05.15-.13.16,0,0-.01,0-.02,0"/>
    <path class="cls-90" d="M839.6,269.48c0,4.15-3.37,7.52-7.52,7.52s-7.52-3.37-7.52-7.52,3.37-7.52,7.52-7.52,7.52,3.37,7.52,7.52"/>
    <path class="cls-86" d="M836.47,272.46c.05-.07.04-.18-.04-.24l-1.63-1.17c-.08-.05-.18-.04-.23.04-.05.07-.04.16.02.22-.3.38-1.39,1.53-3.62-.08-2.24-1.61-1.49-3-1.23-3.41.07.04.16.02.21-.05.05-.07.04-.18-.04-.24l-1.63-1.17c-.07-.05-.18-.04-.23.04-.05.07-.04.16.02.22-1.56,2.43,1.74,5.04,2.3,5.45.57.41,4.08,2.71,5.9.45.07.04.16.02.21-.05"/>
    <path class="cls-86" d="M833.42,269.09s-.03,0-.04-.01c-.05-.02-.06-.08-.04-.13.02-.03.38-.74-.17-1.17-.55-.44-1.1.12-1.13.14-.04.04-.1.04-.13,0-.04-.04-.04-.09,0-.13.24-.24.83-.59,1.38-.16.68.54.23,1.4.22,1.41-.02.03-.05.05-.08.05"/>
    <path class="cls-86" d="M834.16,269.29s-.04,0-.06-.01c-.06-.03-.08-.11-.05-.17.03-.05.69-1.33-.32-2.12-1.01-.79-2,.21-2.04.25-.05.05-.13.05-.18,0-.05-.05-.05-.13,0-.18.01-.01,1.19-1.21,2.38-.28,1.18.93.39,2.42.38,2.44-.02.04-.07.07-.11.07"/>
    <path class="cls-86" d="M834.87,269.99s-.05,0-.07-.02c-.08-.04-.1-.14-.06-.21.05-.09,1.14-2.18-.53-3.49-1.66-1.31-3.3.34-3.37.41-.06.06-.16.06-.22,0-.06-.06-.06-.16,0-.22.02-.02,1.9-1.92,3.79-.44,1.88,1.47.62,3.86.61,3.88-.03.05-.08.08-.14.08"/>
    <path class="cls-90" d="M870.14,254.74c0,4.15-3.37,7.52-7.52,7.52s-7.52-3.37-7.52-7.52,3.37-7.52,7.52-7.52,7.52,3.37,7.52,7.52"/>
    <path class="cls-86" d="M858.32,251.41h8.62c.31,0,.57.25.57.57v5.53c0,.31-.25.57-.57.57h-8.62c-.31,0-.57-.25-.57-.57v-5.53c0-.31.25-.57.57-.57Z"/>
    <path class="cls-90" d="M862.62,255.88s-.06,0-.09-.03l-4.53-3.56c-.06-.05-.08-.14-.02-.2.05-.06.14-.07.2-.03l4.44,3.49,4.39-3.46c.06-.05.15-.04.2.02.05.06.04.15-.02.2l-4.48,3.53s-.06.03-.09.03"/>
    <path class="cls-90" d="M867.1,257.64s-.08-.02-.11-.05l-2.76-3.12c-.05-.06-.05-.15.01-.21.06-.05.15-.05.21.01l2.76,3.12c.05.06.05.15-.01.21-.03.03-.06.04-.1.04"/>
    <path class="cls-90" d="M858.09,257.64s-.07-.01-.1-.04c-.06-.05-.07-.14-.01-.21l2.75-3.16c.05-.06.14-.07.2-.01.06.05.07.15.01.21l-2.75,3.16s-.07.05-.11.05"/>
    <path class="cls-86" d="M894.08,270.25s3.77-3.06,12.67-.1c0,0-8.5,3.32-12.67.1"/>
    <path class="cls-105" d="M894.08,270.25s3.77-3.06,12.67-.1c0,0-8.5,3.32-12.67.1Z"/>
    <path class="cls-47" d="M897.18,269.04s.44,1.29,1.88,1.22c0,0,1.09-.05,1.35-1.43l-3.23.21Z"/>
    <path class="cls-47" d="M893.96,268.16s5.07-3.72,12.2.1c0,0-5.75-2.78-12.2-.1"/>
    <path class="cls-63" d="M894.27,282.76s-.23.3.03.76c0,0,.71.64,3.1-1.32"/>
    <path class="cls-63" d="M894.45,281.93s.17-.96,2.09-.14l1.52.5s-3.66.64-3.7.5c-.04-.14-.9-.96.1-.87"/>
    <path class="cls-86" d="M784.12,262.17s-2.74-2.42-7.88-2.26c-1.83.06-3.97.45-6.4,1.39,0,0,6.26,3.95,14.28.87"/>
    <path class="cls-98" d="M784.12,262.17s-2.74-2.42-7.88-2.26c-1.83.06-3.97.45-6.4,1.39,0,0,6.26,3.95,14.28.87Z"/>
    <path class="cls-47" d="M776.02,260.03s-.02,1.67,2.24,1.6c0,0,1.68,0,2.53-1.04,0,0-2.32-.83-4.77-.56"/>
    <path class="cls-58" d="M919.92,277.89c0,1.4-1.13,2.53-2.53,2.53s-2.53-1.13-2.53-2.53,1.13-2.53,2.53-2.53,2.53,1.13,2.53,2.53"/>
    <path class="cls-58" d="M916.19,274.83c0,.29-.24.53-.53.53s-.53-.24-.53-.53.24-.53.53-.53.53.24.53.53"/>
    <path class="cls-58" d="M914.86,275.89c0,.29-.24.53-.53.53s-.53-.24-.53-.53.24-.53.53-.53.53.24.53.53"/>
    <path class="cls-58" d="M914.51,277.55c0,.29-.24.53-.53.53s-.53-.24-.53-.53.24-.53.53-.53.53.24.53.53"/>
    <path class="cls-58" d="M914.86,279.27c0,.29-.24.53-.53.53s-.53-.24-.53-.53.24-.53.53-.53.53.24.53.53"/>
    <path class="cls-58" d="M915.86,280.52c0,.29-.24.53-.53.53s-.53-.24-.53-.53.24-.53.53-.53.53.24.53.53"/>
    <path class="cls-58" d="M917.63,281.11c0,.29-.24.53-.53.53s-.53-.24-.53-.53.24-.53.53-.53.53.24.53.53"/>
    <path class="cls-58" d="M919.3,280.95c0,.29-.24.53-.53.53s-.53-.24-.53-.53.24-.53.53-.53.53.24.53.53"/>
    <path class="cls-58" d="M920.62,279.99c0,.29-.24.53-.53.53s-.53-.24-.53-.53.24-.53.53-.53.53.24.53.53"/>
    <path class="cls-58" d="M921.41,278.52c0,.29-.24.53-.53.53s-.53-.24-.53-.53.24-.53.53-.53.53.24.53.53"/>
    <path class="cls-58" d="M921.31,277.02c0,.29-.24.53-.53.53s-.53-.24-.53-.53.24-.53.53-.53.53.24.53.53"/>
    <path class="cls-58" d="M920.62,275.62c0,.29-.24.53-.53.53s-.53-.24-.53-.53.24-.53.53-.53.53.24.53.53"/>
    <path class="cls-58" d="M919.2,274.67c0,.29-.24.53-.53.53s-.53-.24-.53-.53.24-.53.53-.53.53.24.53.53"/>
    <path class="cls-58" d="M917.8,274.43c0,.29-.24.53-.53.53s-.53-.24-.53-.53.24-.53.53-.53.53.24.53.53"/>
    <path class="cls-74" d="M784.89,258.69s-2.82-5.23-12.92-1.32c0,0,6.41-2.36,12.92,1.32"/>
  </g>
  <polygon class="cls-36" points="779.04 375.1 782.17 460.78 789.49 460.78 786.67 374.64 779.04 375.1"/>
  <polygon class="cls-45" points="891.95 375.1 895.08 460.78 902.4 460.78 899.58 374.64 891.95 375.1"/>
</svg>