<?xml version="1.0" encoding="UTF-8"?>
<svg id="Layer_1" data-name="Layer 1" xmlns="http://www.w3.org/2000/svg" xmlns:xlink="http://www.w3.org/1999/xlink" viewBox="0 0 541.96 378.14">
  <defs>
    <style>
      .cls-1 {
        fill: #c4c2a3;
      }

      .cls-1, .cls-2, .cls-3, .cls-4, .cls-5, .cls-6, .cls-7, .cls-8, .cls-9, .cls-10, .cls-11, .cls-12, .cls-13, .cls-14, .cls-15, .cls-16, .cls-17, .cls-18, .cls-19, .cls-20, .cls-21, .cls-22, .cls-23, .cls-24, .cls-25, .cls-26, .cls-27, .cls-28, .cls-29, .cls-30, .cls-31, .cls-32, .cls-33, .cls-34, .cls-35, .cls-36, .cls-37, .cls-38, .cls-39, .cls-40, .cls-41, .cls-42, .cls-43, .cls-44, .cls-45 {
        stroke-width: 0px;
      }

      .cls-2 {
        fill: #613e4d;
      }

      .cls-3 {
        fill: #e3a673;
      }

      .cls-4 {
        fill: #fefad8;
      }

      .cls-5 {
        fill: #472e24;
      }

      .cls-6 {
        fill: #e0c7aa;
      }

      .cls-46 {
        clip-path: url(#clippath);
      }

      .cls-7, .cls-47 {
        fill: none;
      }

      .cls-8 {
        fill: #e5b03e;
      }

      .cls-9 {
        fill: #edd9c0;
      }

      .cls-10 {
        fill: #fff2e4;
      }

      .cls-11 {
        fill: #f2f9fb;
      }

      .cls-12 {
        fill: #fbc65b;
      }

      .cls-13 {
        fill: #b0b0b1;
      }

      .cls-14 {
        fill: #ce9674;
      }

      .cls-15 {
        fill: #c4c2b2;
      }

      .cls-16 {
        fill: #d16163;
      }

      .cls-17 {
        fill: #4a2e3d;
      }

      .cls-18 {
        fill: #758785;
      }

      .cls-19 {
        fill: #c28261;
      }

      .cls-20 {
        fill: #e3e3e3;
      }

      .cls-21 {
        fill: #617170;
      }

      .cls-48 {
        clip-path: url(#clippath-1);
      }

      .cls-49 {
        clip-path: url(#clippath-4);
      }

      .cls-50 {
        clip-path: url(#clippath-3);
      }

      .cls-51 {
        clip-path: url(#clippath-2);
      }

      .cls-52 {
        clip-path: url(#clippath-6);
      }

      .cls-53 {
        clip-path: url(#clippath-5);
      }

      .cls-22 {
        fill: #f1f9fb;
      }

      .cls-23 {
        fill: #000;
      }

      .cls-24 {
        fill: #59362c;
      }

      .cls-47 {
        stroke: #262323;
        stroke-miterlimit: 10;
        stroke-width: .25px;
      }

      .cls-25 {
        fill: #332317;
      }

      .cls-26 {
        fill: #c77369;
      }

      .cls-27 {
        fill: #fffad8;
      }

      .cls-28 {
        fill: #de8c54;
      }

      .cls-29 {
        fill: #c5bfa3;
      }

      .cls-30 {
        fill: #d98278;
      }

      .cls-31 {
        fill: #e0ded9;
      }

      .cls-32 {
        fill: #fffcea;
      }

      .cls-33 {
        fill: #4d3127;
      }

      .cls-34 {
        fill: #23150c;
      }

      .cls-35 {
        fill: #2e1c17;
      }

      .cls-36 {
        fill: #b8434f;
      }

      .cls-37 {
        fill: #a2d5ae;
      }

      .cls-38 {
        fill: #23120a;
      }

      .cls-39 {
        fill: #fff;
      }

      .cls-40 {
        fill: #e8b370;
      }

      .cls-41 {
        fill: #262323;
      }

      .cls-42 {
        fill: #f3f3f3;
      }

      .cls-43 {
        fill: #804f41;
      }

      .cls-44 {
        fill: #543629;
      }

      .cls-45 {
        fill: #f1ca94;
      }
    </style>
    <clipPath id="clippath">
      <rect class="cls-7" y="0" width="541.96" height="378.14"/>
    </clipPath>
    <clipPath id="clippath-1">
      <rect class="cls-7" y="0" width="541.96" height="378.14"/>
    </clipPath>
    <clipPath id="clippath-2">
      <rect class="cls-7" y="0" width="541.96" height="378.14"/>
    </clipPath>
    <clipPath id="clippath-3">
      <rect class="cls-7" y="0" width="541.96" height="378.14"/>
    </clipPath>
    <clipPath id="clippath-4">
      <rect class="cls-7" y="0" width="541.96" height="378.14"/>
    </clipPath>
    <clipPath id="clippath-5">
      <rect class="cls-7" y="0" width="541.96" height="378.14"/>
    </clipPath>
    <clipPath id="clippath-6">
      <rect class="cls-7" y="0" width="541.96" height="378.14"/>
    </clipPath>
  </defs>
  <g class="cls-46">
    <path class="cls-20" d="M461.89,335.74c0-.8-93.24-1.45-208.27-1.45s-208.27.65-208.27,1.45,93.25,1.45,208.27,1.45,208.27-.65,208.27-1.45"/>
    <path class="cls-20" d="M287.56,319.38c0-1.3-64.34-2.35-143.72-2.35S.13,318.09.13,319.38s64.34,2.35,143.72,2.35,143.72-1.05,143.72-2.35"/>
    <path class="cls-20" d="M161.79,268.22c0,1.08-28.51,1.95-63.68,1.95s-63.69-.87-63.69-1.95,28.51-1.95,63.69-1.95,63.68.87,63.68,1.95"/>
    <path class="cls-20" d="M516.34,261.29c0,1.02-15.12,1.85-33.77,1.85s-33.77-.83-33.77-1.85,15.12-1.85,33.77-1.85,33.77.83,33.77,1.85"/>
    <path class="cls-20" d="M188.35,287.46c0,1.02-15.12,1.85-33.77,1.85s-33.77-.83-33.77-1.85,15.12-1.85,33.77-1.85,33.77.83,33.77,1.85"/>
  </g>
  <rect class="cls-32" x="256.61" y="162.89" width="47.36" height="35.44"/>
  <polygon class="cls-32" points="256.62 162.89 303.89 162.89 279.76 146.88 256.62 162.89"/>
  <g class="cls-48">
    <path class="cls-4" d="M295.89,162.89h-18.23c-.29.43-.56.87-.81,1.31-1.9,3.39-2.95,7.2-2.16,10.85.8,3.68,3.38,7.08,7.56,9.3,1.11.59,2.27,1.08,3.47,1.48v-15.2h14.67v16.59c1.21-.17,2.38-.45,3.5-.87v-18.16l-8-5.31Z"/>
    <path class="cls-4" d="M284.64,155.42c-.94.75-1.81,1.55-2.63,2.37-1.6,1.62-3.13,3.3-4.34,5.09h18.23l-11.25-7.47Z"/>
    <path class="cls-27" d="M267.69,162.89h-2.49l-8.47,5.86v-2.69l-.12.09v32.18h47.37v-7.63c-1.14.39-2.34.7-3.59.92v6.71h-14.67v-7.1c-1.95-.36-3.85-.85-5.64-1.5-5.5-2-9.95-5.26-12.43-9.37-2.44-4.05-2.74-8.67-1.64-12.98.4-1.54.96-3.03,1.67-4.48"/>
    <path class="cls-27" d="M269.29,160.06l-4.09,2.83h2.49c.47-.96,1.01-1.9,1.6-2.83"/>
  </g>
  <polygon class="cls-15" points="303.89 168.19 303.98 168.25 303.98 165.56 303.89 165.51 303.89 168.19"/>
  <g class="cls-51">
    <path class="cls-15" d="M280.23,149.8l-6.1,4.22c-.24.25-.48.5-.72.76-1.56,1.7-2.95,3.45-4.12,5.28l10.94-7.57,4.41,2.93c.31-.25.62-.49.95-.73.26-.19.56-.47.9-.74l-6.26-4.15Z"/>
  </g>
  <polygon class="cls-1" points="299.95 162.89 295.89 162.89 303.89 168.19 303.89 165.5 299.95 162.89"/>
  <g class="cls-50">
    <path class="cls-1" d="M286.48,153.95c-.34.27-.64.55-.89.74-.32.24-.64.48-.95.73l11.25,7.47h4.05l-13.46-8.93Z"/>
  </g>
  <polygon class="cls-29" points="265.2 162.89 261.31 162.89 256.73 166.05 256.73 168.74 265.2 162.89"/>
  <g class="cls-49">
    <path class="cls-29" d="M274.13,154.02l-12.82,8.87h3.89l4.09-2.83c1.17-1.82,2.56-3.58,4.12-5.28.24-.26.48-.51.72-.76"/>
  </g>
  <polygon class="cls-43" points="280.23 149.8 307.87 168.14 313.51 166.27 280.23 144.19 248.3 166.27 253.72 168.14 280.23 149.8"/>
  <polygon class="cls-13" points="280.23 144.19 248.37 166.22 280.23 144.19 313.4 166.19 280.23 144.19"/>
  <polygon class="cls-24" points="280.23 144.19 248.37 166.22 251.09 167.16 280.16 147.05 310.47 167.16 313.4 166.19 280.23 144.19"/>
  <path class="cls-43" d="M286.97,172.48h12.18v23.99h-12.18v-23.99ZM300.39,170.63h-14.67v27.7h14.67v-27.7Z"/>
  <path class="cls-35" d="M300.39,170.63h-14.67v27.7h14.67v-27.7ZM286.22,171.79h13.44v25.37h-13.44v-25.37Z"/>
  <rect class="cls-44" x="286.97" y="172.48" width="12.18" height="23.99"/>
  <g class="cls-53">
    <path class="cls-5" d="M299.15,172.48h-12.18v23.99h3.79c-1.51-2.82-1.84-6.51-1.49-9.86.37-3.55,1.41-7.54,3.67-9.78,1.24-1.23,2.73-2,4.25-2.35.65-.14,1.3-.26,1.96-.3v-1.71Z"/>
    <path class="cls-8" d="M298.29,184.53c0,.65-.5,1.18-1.11,1.18s-1.11-.53-1.11-1.18.49-1.18,1.11-1.18,1.11.53,1.11,1.18"/>
  </g>
  <rect class="cls-33" x="259.72" y="169.45" width="19.79" height="19.68"/>
  <rect class="cls-25" x="261.21" y="170.93" width="16.81" height="16.72"/>
  <rect class="cls-22" x="262.14" y="172" width="6.86" height="6.82"/>
  <rect class="cls-22" x="270.24" y="172" width="6.86" height="6.82"/>
  <rect class="cls-22" x="262.14" y="179.75" width="6.86" height="6.82"/>
  <rect class="cls-22" x="270.23" y="179.75" width="6.86" height="6.82"/>
  <polygon class="cls-42" points="262.14 172.49 269 175.41 269 175.69 262.14 172.81 262.14 172.49"/>
  <polygon class="cls-42" points="269 175.94 269 176.23 262.14 173.45 262.14 173.12 269 175.94"/>
  <polygon class="cls-42" points="262.14 173.7 269 176.51 269 176.79 262.14 174.02 262.14 173.7"/>
  <polygon class="cls-42" points="262.14 181.29 269 184.2 269 184.48 262.14 181.61 262.14 181.29"/>
  <polygon class="cls-42" points="269 184.73 269 185.02 262.14 182.25 262.14 181.91 269 184.73"/>
  <polygon class="cls-42" points="262.14 182.49 269 185.31 269 185.58 262.14 182.81 262.14 182.49"/>
  <polygon class="cls-42" points="270.24 181.01 277.09 183.93 277.09 184.2 270.24 181.33 270.24 181.01"/>
  <polygon class="cls-42" points="277.1 184.46 277.1 184.75 270.24 181.97 270.24 181.64 277.1 184.46"/>
  <polygon class="cls-42" points="270.23 182.22 277.1 185.03 277.1 185.31 270.24 182.54 270.23 182.22"/>
  <polygon class="cls-42" points="270.24 173.54 277.09 176.46 277.09 176.73 270.24 173.86 270.24 173.54"/>
  <polygon class="cls-42" points="277.1 176.98 277.1 177.27 270.24 174.5 270.24 174.16 277.1 176.98"/>
  <polygon class="cls-42" points="270.23 174.74 277.1 177.56 277.1 177.83 270.24 175.06 270.23 174.74"/>
  <g class="cls-52">
    <path class="cls-37" d="M0,190.74s3.92-8.01,18.79-5.3c0,0-.1-9.25,10.51-10.9,10.62-1.65,10.23,8.61,10.23,8.61,0,0,.9-8.22,9.45-5.72,8.55,2.5,3.07-15.11,23.42-17.46,0,0,13.49-1.17,16.72,10.17,0,0,7.97-11.35,14.8,0,0,0,18.31-1.96,15.31,15.29,0,0,12.26-11.22,21.65.24,0,0,23-8.34,25.98,0,0,0,13.53-7.27,18.04-1.03,0,0,11.55-2.43,10.77,7.8,0,0,19.17-6.65,23.09,2.74,0,0,3.91-4.3,10.96,0,0,0,8.67-14.59,21.55-5.73,0,0,16.97-1.76,16.3,5.73,0,0,4.68-9.78,13.35-2.35,0,0,16.49-16.83,32.54-.39,0,0,9.16-9.45,16.91.39,0,0,5.79-26.25,37.09-15.28,0,0,12.06-1.02,13.47,9.87,0,0,20.31-7.11,23.77,6.19,0,0,10.11-14.85,25.37-2.9,0,0,1.3-9.07,13.57-5.17,0,0,1.04-9.18,12.26-8.38,0,0,10.96-1.79,13.57,9.29,0,0,13.57-3.01,17.48,7.16,0,0,5.74-5.22,13.57-.52,0,0,21.65-18.79,41.48-11.04v20.62H0"/>
    <path class="cls-31" d="M452.45,362.67c0,2.6-17.44,4.7-38.95,4.7s-38.95-2.11-38.95-4.7,17.44-4.7,38.95-4.7,38.95,2.11,38.95,4.7"/>
    <path class="cls-28" d="M390.06,168.98s1.37,9.13-2.43,10.65c-3.17,1.27,3.96,8.98,3.96,8.98l9.74-.3,4.87-4.26-1.67-4.41s-2.89-.84-3.8-12.4c-.34-4.34-10.65,1.75-10.65,1.75"/>
    <path class="cls-17" d="M387.32,356.44c-1.9.53-10.35,2.11-10.2,5.64.1,2.4,3.35,1.55,8.98,1.27,5.63-.28,6.79-.08,7-1.27.61-3.38.3-7.33-5.78-5.64"/>
    <path class="cls-3" d="M383.06,344.14s2.28,10.35,3.2,12.78c.91,2.43,4.11,1.98,4.72.61.61-1.37.3-13.7-.46-15.83-.76-2.13-7.46,2.44-7.46,2.44"/>
    <path class="cls-17" d="M437.23,354.94c1.94.36,10.49,1.19,10.65,4.72.11,2.39-3.2,1.84-8.83,2.06-5.63.22-6.77.52-7.08-.65-.91-3.32-.95-7.28,5.26-6.13"/>
    <path class="cls-3" d="M436.94,341.97s1.09,10.54.99,13.14c-.1,2.6-3.28,3.17-4.29,2.06-1.01-1.11-4.6-12.9-4.54-15.17.05-2.26,7.84-.03,7.84-.03"/>
    <path class="cls-9" d="M375.29,250.86s-2.13,45.65-1.98,54.48c.15,8.83,8.37,36.22,8.98,38.96.61,2.74,7.61,1.07,8.98.46,1.37-.61-1.67-30.59-1.07-39.11.61-8.52,9.43-29.83,10.8-30.89,1.37-1.07,1.98-.91,2.59.3.61,1.22,8.83,25.41,10.8,31.2,1.98,5.78,13.24,35.92,14.15,37.59.91,1.67,8.52.46,9.44-.91.91-1.37-4.72-36.83-5.48-46.26-.76-9.44-.61-33.94-1.67-39.57-1.07-5.63-3.2-10.35-3.2-10.35l-52.35,4.11Z"/>
    <path class="cls-3" d="M429.17,217.68s2.74,2.74,4.11,8.07c1.37,5.33-.3,25.11-6.85,30.89,0,0,.91,4.72,3.8,6.24,0,0,16.44-17.65,12.48-40.33-1.44-8.23-5.33-9.13-7.3-11.87-1.98-2.74-6.24,7-6.24,7"/>
    <path class="cls-28" d="M386.61,159.58c0,2.89-2.35,5.24-5.24,5.24s-5.24-2.35-5.24-5.24,2.35-5.24,5.24-5.24,5.24,2.35,5.24,5.24"/>
    <path class="cls-28" d="M413.8,159.58c0,2.89-2.35,5.24-5.24,5.24s-5.24-2.35-5.24-5.24,2.35-5.24,5.24-5.24,5.24,2.35,5.24,5.24"/>
    <path class="cls-3" d="M395.57,176.56c14.57,0,22.49-35.38,0-35.38s-17.31,35.38,0,35.38"/>
    <path class="cls-34" d="M409.76,157.29c-2.69.38-6.96-4.26-7.81-7.21,0,0-5.94,3.77-8.14,2.95-2.21-.82-1.36-2.62-1.36-2.62,0,0-5.26,4.75-6.96,4.91-1.7.16-1.36-1.47-1.36-1.47,0,0-1.53,3.27-4.75,3.44s-2.55-8.35-.51-11.3c0,0-3.05,2.13-3.73.65-.68-1.47,5.26-9.66,13.07-9.99,0,0-2.71-.66-2.71-2.46s13.4-1.47,17.31,2.46c0,0,6.28.82,8.32,3.27,2.04,2.46-.17,2.95-.17,2.95,0,0,4.58,13.59-1.19,14.41"/>
    <path class="cls-17" d="M387.62,179.64s.3,5.63,7.91,5.93,8.98-5.93,8.98-5.93c0,0,10.2,1.07,14,5.02,3.8,3.96,17.04,20.09,19.78,27.7,0,0-5.78,7.15-9.74,7.76,0,0-5.17-8.67-7.46-10.04,0,0,6.39,35.91,8.67,40.02,0,0-13.09,8.37-29.52,8.37s-27.7-5.33-27.7-5.33c0,0,5.17-24.81,3.96-34.85l-15.83,10.8s12.17-38.04,14.3-42c2.13-3.96,12.63-7.46,12.63-7.46"/>
    <path class="cls-39" d="M384.47,195.45l4.47,14.77c.22.71-.18,1.47-.88,1.7l-4.11,1.36c-.68.22-1.41-.11-1.69-.77l-6.13-14.43c-.32-.75.09-1.62.87-1.85l5.77-1.71c.72-.21,1.48.2,1.7.92"/>
    <path class="cls-3" d="M388.99,200.79c0-1.52-.46-2.28-.46-2.28-.3-1.37-2.28-1.07-2.28-1.07-.3-.91-1.52-1.06-2.43-.15-.91.91-1.22,2.43-1.83,2.89-.61.46-1.83.61-3.2,1.37-1.37.76-3.35,8.52-3.35,8.52-4.11,4.41-12.48,12.48-15.22,17.65-2.74,5.17,2.74,8.98,7.46,8.37,4.72-.61,9.74-11.87,11.41-15.52,1.63-3.56,1.55-5.88,3.04-8.07,4.41-3.35,7.05-8.26,7.15-9.28.15-1.52-.3-2.43-.3-2.43"/>
    <path class="cls-2" d="M387.27,182.3c-.07-.33-.11-.66-.11-.99,0-.5-.77-.62-.89-.12-.15.65-.35,1.79.38,2.15.19.09.47.07.57-.15.06-.14.14-.26.14-.42s-.06-.32-.1-.48"/>
    <path class="cls-2" d="M389.32,185.4c-.26-.24-.58-.38-.85-.6-.28-.22-.4-.56-.66-.78-.15-.13-.37-.08-.44.12-.14.44.09.99.32,1.37.29.49.87.82,1.43.67.33-.09.46-.54.2-.77"/>
    <path class="cls-2" d="M393.29,186.75c-.57-.62-1.57-.42-2.28-.74-.37-.17-.81.29-.46.6.65.56,1.65,1.08,2.53.96.39-.05.43-.58.21-.82"/>
    <path class="cls-2" d="M397.34,186.76c-.32-.11-.67-.11-1.01-.14-.32-.02-.63-.09-.95-.11-.39-.02-.54.47-.3.73.54.59,1.68.96,2.38.43.35-.26.31-.76-.12-.91"/>
    <path class="cls-2" d="M400.99,185.86c-.41-.07-.68.11-1.01.32-.28.18-.58.3-.91.37-.46.1-.33.77.11.79.69.03,1.91-.1,2.14-.88.07-.23-.08-.56-.34-.6"/>
    <path class="cls-2" d="M403.18,183.99c-.09.03-.18.07-.27.11-.1.05-.11.05-.05.02-.17.06-.3.15-.46.23-.43.22-.55.81-.32,1.2.25.43.78.53,1.2.32.41-.21.67-.52.83-.94.2-.54-.42-1.12-.94-.94"/>
    <path class="cls-2" d="M405.93,181.93c-.08-.26-.37-.46-.64-.37-.55.19-.73.75-.83,1.28-.1.49.51.95.89.52.34-.38.76-.88.58-1.43"/>
    <path class="cls-2" d="M430.04,218.11c-.28.12-.54.29-.83.37-.45.13-.38.88.11.84.52-.04.99-.21,1.24-.69.19-.36-.18-.67-.52-.52"/>
    <path class="cls-2" d="M432.74,215.77c-.56.28-.94.81-1.52,1.08-.18.08-.25.32-.2.5.07.25.3.35.54.31.73-.13,1.49-.57,1.8-1.26.18-.41-.19-.83-.62-.62"/>
    <path class="cls-2" d="M434.52,214.17c-.43.13-.7.39-1,.71-.39.41.14,1.19.63.82.14-.11.29-.21.44-.31.21-.14.33-.3.48-.51.25-.36-.16-.83-.55-.72"/>
    <path class="cls-2" d="M436.34,211.86c-.35.24-.58.53-.76.91-.4.8.68,1.42,1.19.7.25-.35.39-.68.43-1.11.04-.43-.52-.72-.86-.49"/>
    <path class="cls-2" d="M410.3,204.2c-1.88,0-3.44,1.57-3.44,3.44s1.57,3.44,3.44,3.44,3.44-1.57,3.44-3.44-1.57-3.44-3.44-3.44"/>
    <path class="cls-2" d="M376.59,252.46c-.6-.47-1.3-.57-2.05-.59-.86-.02-.85,1.29,0,1.33.56.03,1.11.19,1.67.17.42-.01.77-.6.38-.91"/>
    <path class="cls-2" d="M381.46,253.5c-.7-.43-1.62-.44-2.41-.59-.5-.09-.68.57-.21.76.74.29,1.57.73,2.39.69.46-.02.64-.62.23-.86"/>
    <path class="cls-2" d="M386.95,254.71c-.94-.53-2.24-.44-3.28-.46-.48-.01-.56.69-.11.82.5.14.99.23,1.5.3.56.08,1.09.23,1.65.23.47,0,.66-.65.24-.89"/>
    <path class="cls-2" d="M392.92,255.6c-.77-.32-1.72-.51-2.55-.49-.6.02-.6.9,0,.93.83.04,1.6.54,2.43.44.52-.06.6-.69.12-.89"/>
    <path class="cls-2" d="M398.85,256.18c-.98-.46-2.1-.45-3.16-.39-.7.04-.71,1.06,0,1.09.97.04,1.92.31,2.89.29.5,0,.77-.76.27-1"/>
    <path class="cls-2" d="M404.17,256.08c-.83-.19-1.71-.02-2.55.06-.46.04-.46.67,0,.71.84.08,1.72.25,2.55.06.41-.09.41-.73,0-.82"/>
    <path class="cls-2" d="M409.08,255.39c-.6-.06-1.22.06-1.83.07-.75.01-.72,1.07,0,1.14.78.08,1.54.17,2.17-.38.35-.31.04-.8-.35-.83"/>
    <path class="cls-2" d="M413.19,254.55c-.68-.03-1.59-.04-2.15.4-.25.2-.12.56.09.71.65.48,1.66-.01,2.26-.33.38-.21.19-.76-.21-.78"/>
    <path class="cls-2" d="M418.21,253.05c-.73.07-1.41.29-2.12.49-.67.18-.38,1.22.29,1.03.71-.2,1.44-.34,2.03-.79.27-.21.24-.77-.2-.73"/>
    <path class="cls-2" d="M424.31,250.36c-1.03.2-2.11.74-3.05,1.21-.68.34-.08,1.31.59,1.01.97-.44,2.16-.62,2.96-1.36.4-.37-.03-.94-.5-.85"/>
    <path class="cls-2" d="M427.83,248.28c-.37.1-.67.18-.96.44-.25.22-.58.48-.67.81-.06.22.07.43.28.5.34.11.78-.09,1.08-.24.2-.11.39-.21.52-.4.09-.14.19-.28.28-.42.24-.35-.15-.78-.52-.68"/>
    <path class="cls-6" d="M383.05,258.96c-.66,1.48-1.55,2.55-2.88,3.49-1.21.85-2.6,1.39-3.77,2.3-.48.37.04,1.12.57.97,2.75-.77,6.55-3.33,7.06-6.35.09-.55-.71-1.01-.98-.41"/>
    <path class="cls-6" d="M430.5,265.16c-1.77-.9-3.5-1.58-4.96-2.99-1.51-1.45-2.25-3.45-2.56-5.48-.06-.41-.76-.31-.72.1.42,4.33,3.34,8.52,7.84,9.34.56.1.99-.69.41-.98"/>
    <path class="cls-6" d="M388.26,342.47c-.79.18-1.54.42-2.35.49-.85.07-1.71-.05-2.55-.12-.46-.04-.5.63-.11.77,1.61.56,3.91.8,5.37-.27.42-.31.18-1-.37-.87"/>
    <path class="cls-6" d="M435.63,341.61c-1.77.79-3.27,1.29-5.24,1.28-.64,0-.62.93,0,.97,1.87.14,4.73.17,5.88-1.62.28-.43-.24-.81-.63-.63"/>
    <path class="cls-6" d="M401.81,261.21c-.01-.44-.68-.44-.69,0-.06,2.59-.33,5.31-.28,7.96-3.13-2.12-.75-5.7-2.42-8.52-.25-.42-1.02-.27-.98.26.14,1.78.18,3.72.5,5.48.32,1.79,1.23,2.82,2.93,3.42.03.74.08,1.49.17,2.21.07.55.78.55.86,0,.47-3.5,0-7.27-.08-10.81"/>
    <path class="cls-6" d="M388.44,308.83c.65-11.44,5.05-21.84,8.75-32.52.05-.15-.19-.26-.26-.11-4.68,9.47-8.14,19.98-9.43,30.46-.68,5.49-.09,10.87.53,16.32.69,6.05.79,12.06,1.24,18.11.04.5.85.69.93.13,1.59-10.7-2.37-21.64-1.77-32.4"/>
    <path class="cls-6" d="M430.31,339.69c-1.66-6.09-4.67-11.88-7.37-17.55-3.2-6.75-5.33-13.81-7.67-20.88-1.84-5.58-3.97-11.07-5.41-16.77-.8-3.19-1.68-7.79-4.83-9.54-.15-.08-.27.13-.13.23,3.52,2.55,4.05,8.2,4.99,12.12,1.43,5.94,3.71,11.75,5.48,17.6,3.66,12.1,8.79,23.51,13.57,35.19.34.83,1.62.53,1.38-.38"/>
    <path class="cls-17" d="M380.52,197.15c-1.03,0-1.03,1.59,0,1.59s1.03-1.59,0-1.59"/>
    <path class="cls-17" d="M381.13,199.25c-.41,0-.41.64,0,.64s.41-.64,0-.64"/>
    <path class="cls-28" d="M394.75,165.2c-.6.17-1.19.62-1.76.07-.29-.28-.71.07-.54.42.5,1.02,2.27,1.34,2.85.22.19-.37-.12-.84-.55-.72"/>
    <path class="cls-19" d="M395.92,168.54c-.58-.02-1.08.26-1.62.43-.65.2-1.25.2-1.87-.11-.64-.32-1.21.43-.75.97,1.11,1.3,3.9,1.29,4.85-.24.29-.47-.09-1.04-.61-1.06"/>
    <path class="cls-39" d="M391.87,160.74s-6.27-4.09-12.94,0c0,0,5.62,3.18,12.94,0"/>
    <path class="cls-47" d="M391.87,160.74s-6.27-4.09-12.94,0c0,0,5.62,3.18,12.94,0Z"/>
    <path class="cls-39" d="M410.36,160.74s-6-4.09-12.37,0c0,0,5.37,3.18,12.37,0"/>
    <path class="cls-47" d="M410.36,160.74s-6-4.09-12.37,0c0,0,5.37,3.18,12.37,0Z"/>
    <path class="cls-41" d="M391.31,158.65s-5.56-2.62-11.83.48c0,0,6.35-4.37,11.83-.48"/>
    <path class="cls-41" d="M397.79,158.94s5.56-2.62,11.83.48c0,0-6.35-4.37-11.83-.48"/>
    <path class="cls-23" d="M383.97,159.12s.02,1.95,2.46,1.51c0,0,1.11-.26,1.24-1.44,0,0-2.96-.4-3.7-.07"/>
    <path class="cls-23" d="M401.12,159.36s.51,1.89,2.92,1.29c0,0,.84-.47.9-1.66,0,0-3.1-.01-3.82.37"/>
    <path class="cls-31" d="M334.25,375.03c0,1.72-12.44,3.11-27.79,3.11s-27.79-1.39-27.79-3.11,12.44-3.11,27.79-3.11,27.79,1.39,27.79,3.11"/>
    <path class="cls-38" d="M320.74,174.93s-11.65-7.03-18.31,2.03c-6.66,9.06-5.36,20.71-5.18,28.85.18,8.14-23.67,44.94,4.44,52.7,28.11,7.77,37.17-4.44,37.91-16.46.74-12.02-10.17-32.92-8.69-42.16,1.48-9.25.37-29.03-10.17-24.96"/>
    <path class="cls-18" d="M290.6,370.21c-2.4.18-8.32,1.85-8.51,3.88-.18,2.04,7.95,1.11,10.54.74,2.59-.37,2.96-4.99-2.03-4.62"/>
    <path class="cls-45" d="M290.41,357.64s-.55,10.17-.55,12.94,3.14,2.4,4.07.74c.92-1.66,3.88-14.05,3.88-14.05l-7.4.37Z"/>
    <path class="cls-18" d="M321.65,369.98c2.39.23,8.28,2.02,8.42,4.06.14,2.04-7.97.94-10.55.52-2.58-.42-2.85-5.05,2.13-4.58"/>
    <path class="cls-45" d="M324.5,357.88s-1.26,10.11-1.75,12.84c-.49,2.73-3.52,1.81-4.14,0-.61-1.8-1.33-14.52-1.33-14.52l7.21,1.68Z"/>
    <path class="cls-17" d="M296.33,276.45s-7.03,80.26-6.66,82.11c.37,1.85,6.66,2.96,7.95,2.22,1.29-.74,6.84-20.53,9.06-33.29,2.22-12.76,4.07-26.44,4.62-27.55.55-1.11,2.4,23.12,2.4,28.29s1.85,29.77,2.59,30.88c.74,1.11,7.77,1.66,9.25-.56,1.48-2.22,5.55-78.22,4.25-81.92-1.29-3.7-33.47-.18-33.47-.18"/>
    <path class="cls-40" d="M308.9,207.15s2.5,6.31-2.64,7.21c-3.61.63,2.08,6.8,2.08,6.8l12.34-1.39.28-5.41s-3.4-.28-2.91-8.04c.24-3.88-9.15.83-9.15.83"/>
    <path class="cls-45" d="M284.22,272.52s-1.25,5.27-.83,7.9c.42,2.64,3.47,5.82,4.85,5.55,1.39-.28,0-1.94-.97-3.75-.97-1.8-1.25-3.19-.42-3.61s1.66,3.19,2.5,3.19.83-1.94.69-3.74c-.14-1.8-1.53-2.77-1.25-5.41.28-2.64-4.58-.14-4.58-.14"/>
    <path class="cls-18" d="M306.27,214.37s5.96,7.49,14.7,0c0,0,5.25.32,7.63,2.22,6.96,5.57,13.71,32.57,14.21,35.29l-12.83,3.96s1.11,20.53,1.8,22.75c0,0-26.63,6.93-38-1.39,0,0,7.67-33.47,6.43-42.35,0,0-4.07,18.68-10.17,39.76,0,0-5.69.56-8.74-1.39,0,0,8.52-30.62,10.77-43,2.59-14.24,7.4-15.16,14.19-15.86"/>
    <path class="cls-17" d="M312.99,255.74h-3.82c-1.57,0-2.85-1.28-2.85-2.85v-13.81c0-1.57,1.28-2.85,2.85-2.85h3.82c1.57,0,2.85,1.28,2.85,2.85v13.81c0,1.57-1.28,2.85-2.85,2.85"/>
    <path class="cls-45" d="M314.5,209.88c12.34,0,19.05-29.96,0-29.96s-14.66,29.96,0,29.96"/>
    <path class="cls-45" d="M320.37,250.93s-3.7-2.68-5.18-4.44c-1.48-1.76-2.96-3.7-3.51-3.79-.55-.09-1.11.28-1.11.28,0,0-1.29-.65-1.66-.28-.37.37-.46,1.48-.46,1.48,0,0-1.39.93-.55,2.4,0,0-.46.37-.28,1.66.18,1.29,3.61,4.72,6.1,5.64,2.5.92,3.79,1.29,5.55,1.76,1.76.46,1.76-4.25,1.11-4.72"/>
    <path class="cls-18" d="M320,249.09s-3.25,5.2-3.51,7.03c-.18,1.29,11.16,8.97,22.93,4.07,4.44-1.85,4.62-10.36,1.29-10.73-3.33-.37-10.54,2.77-20.71-.37"/>
    <path class="cls-38" d="M318.75,187.04s-13.32,6.1-18.72,4.58c0,0,.42-13.32,15.12-13.32s12.48,14.98,12.48,14.98c0,0-6.66-2.77-8.88-6.24"/>
    <path class="cls-21" d="M339.43,248.86c-2.56.46-5.09.94-7.64,1.18-.28-2.42-1.1-4.81-1.68-7.17-.73-2.94-1.35-5.91-1.9-8.89-.08-.4-.67-.23-.61.17.85,5.34,2.18,10.63,2.94,15.98-2.13.12-4.27.04-6.44-.4-1.12-.23-5.07-2.2-5.04.14,0,.26.41.33.47.06.22-1.12,3.77.43,4.35.58,1.84.48,3.67.73,5.58.7,3.03-.04,7.78.45,10.33-1.49.43-.33.18-.97-.37-.87"/>
    <path class="cls-21" d="M329.42,261.07c-4.72-1.01-9.04-1.93-13.06-4.71-.18-.13-.4.16-.24.31,3.59,3.03,8.4,5.24,13.18,5.32.52,0,.64-.8.12-.92"/>
    <path class="cls-21" d="M288.76,272.92c-.99-.34-2.12-.29-3.15-.52-1.05-.23-2.05-.63-3.11-.8-.34-.05-.61.42-.25.59.98.49,2.06.79,3.11,1.1,1.05.31,2.32.69,3.4.39.4-.11.36-.65,0-.77"/>
    <path class="cls-21" d="M329.99,275.97c-11.6,1.2-23.04,4.31-34.41.09-.48-.18-.81.61-.35.83,10.87,5.22,23.59,1.92,34.94.39.75-.1.57-1.4-.18-1.32"/>
    <path class="cls-21" d="M305.76,214.57c-.51.15-1.21.37-1.49.85-.18.31.11.64.44.57.26-.05.46-.22.68-.36.21-.14.43-.27.65-.39.37-.19.11-.79-.28-.67"/>
    <path class="cls-21" d="M306.3,215.74c-.55.24-1.32.82-.97,1.49.1.19.32.24.51.21.25-.04.41-.25.54-.44.12-.16.25-.3.42-.4.56-.36.08-1.11-.5-.86"/>
    <path class="cls-21" d="M307.5,216.85c-.24.22-.38.57-.51.86-.16.35-.27.66-.11,1.03.08.2.41.27.58.15.28-.2.36-.48.45-.79.09-.32.26-.62.3-.96.05-.38-.47-.5-.7-.29"/>
    <path class="cls-21" d="M309.7,218.28c-.08-.4-.64-.34-.75,0-.15.43-.32,1.01-.15,1.46.1.25.46.43.67.18.37-.46.34-1.09.23-1.63"/>
    <path class="cls-21" d="M311.67,218.53c-.01-.53-.81-.53-.82,0,0,.47-.15,1.12.15,1.51.11.15.41.15.52,0,.3-.39.16-1.04.15-1.51"/>
    <path class="cls-21" d="M314.27,219.45c-.07-.26-.14-.51-.2-.77-.06-.25-.33-.39-.57-.33-.27.07-.36.32-.33.57.07.49.06,1.2.5,1.51.19.13.5.04.61-.16.15-.29.07-.53-.01-.83"/>
    <path class="cls-21" d="M316.64,219.54c-.04-.28-.1-.56-.16-.84-.1-.4-.77-.32-.72.1.03.25.05.49.06.74.01.28-.06.6.12.84.17.24.48.25.65,0,.18-.25.1-.55.05-.84"/>
    <path class="cls-21" d="M318.52,218.9c-.27-.26-.47-.55-.61-.89-.21-.49-.99-.14-.85.36.14.49.38.91.69,1.31.11.15.37.2.53.14.21-.07.31-.18.38-.38.06-.18,0-.41-.14-.54"/>
    <path class="cls-21" d="M319.9,217.74c-.27-.22-.52-.46-.77-.7-.28-.28-.75.08-.55.42.18.29.36.58.56.86.21.29.44.69.85.64.25-.03.41-.18.43-.43.04-.38-.28-.58-.53-.79"/>
    <path class="cls-21" d="M321.96,217.16c-.08-.52-.64-.82-1.07-1.06-.41-.22-.79.29-.48.63.13.15.25.3.37.47.18.25.34.4.62.52.36.15.61-.27.56-.56"/>
    <path class="cls-21" d="M323.59,215.79c-.36-.56-1.18-.69-1.79-.83-.68-.16-.92.79-.28,1.02.56.21,1.18.67,1.79.49.28-.08.45-.43.28-.68"/>
    <path class="cls-2" d="M300.58,282.94c-.39,1.13-.93,1.96-1.83,2.75-.75.66-1.99,1.01-2.55,1.83-.19.28.07.62.36.64,1.1.05,2.34-1.26,3.05-1.99.79-.8,1.62-1.97,1.55-3.15-.02-.33-.47-.4-.58-.08"/>
    <path class="cls-2" d="M328.75,286.47c-.86-.67-1.95-.98-2.84-1.61-1.01-.71-1.72-1.74-1.92-2.96-.1-.61-1.1-.46-1.06.14.08,1.42.7,2.61,1.72,3.59.92.88,2.36,1.88,3.68,1.87.48,0,.87-.69.43-1.04"/>
    <path class="cls-2" d="M291.07,357.36c-.04-.43-.63-.43-.67,0-.02.22-.04.44-.06.67-.02.23.04.4.14.6.1.2.42.2.52,0,.11-.21.14-.36.14-.6,0-.22-.04-.45-.06-.67"/>
    <path class="cls-2" d="M291.4,356.8c-.04.42-.08.84-.15,1.26-.06.39-.23.79-.12,1.17.06.21.35.31.51.13.26-.3.26-.66.3-1.04.05-.51.06-1.02.07-1.53,0-.4-.57-.38-.61,0"/>
    <path class="cls-2" d="M292.61,357.44c-.06.24-.13.48-.21.71-.08.23-.19.42-.11.66.06.19.28.24.43.11.19-.16.2-.39.23-.62.04-.27.07-.54.08-.81.02-.25-.37-.29-.43-.06"/>
    <path class="cls-2" d="M294.08,357.56c-.07.35-.16.69-.26,1.02-.1.33-.21.58-.17.93.03.22.34.26.47.12.24-.25.28-.54.35-.87.07-.37.11-.75.14-1.13.02-.31-.47-.37-.53-.07"/>
    <path class="cls-2" d="M295.17,358.61c-.03.24-.08.47-.15.69-.07.23-.17.39-.12.63.03.17.29.28.43.17.4-.3.41-1.03.41-1.5,0-.37-.52-.35-.56,0"/>
    <path class="cls-2" d="M296.61,358.67c-.2.3-.37.64-.26,1,.07.23.42.38.6.16.19-.23.24-.49.39-.73.28-.47-.43-.88-.73-.43"/>
    <path class="cls-2" d="M317.23,357.5c-.04-.36-.52-.36-.56,0-.04.33-.14.67.06.96.11.17.34.17.45,0,.2-.3.1-.63.06-.96"/>
    <path class="cls-2" d="M318.39,357.72c-.07-.42-.11-.84-.23-1.26-.09-.32-.53-.18-.48.13.13.78-.14,1.87.44,2.51.17.19.54.05.52-.21-.04-.4-.19-.77-.25-1.17"/>
    <path class="cls-2" d="M319.75,357.08c-.02-.39-.59-.39-.61,0-.02.48-.11,1,.06,1.45.09.24.39.24.48,0,.18-.45.08-.97.06-1.45"/>
    <path class="cls-2" d="M320.76,357.58c-.09-.53-.12-1.07-.16-1.61-.02-.24-.36-.24-.37,0-.02.5-.04,1-.03,1.5.01.46,0,1.02.25,1.42.15.24.52.14.52-.14,0-.39-.15-.78-.22-1.16"/>
    <path class="cls-2" d="M322.25,356.94c-.03-.39-.58-.39-.61,0-.04.53-.2,1.18.05,1.67.1.19.41.19.51,0,.25-.49.09-1.14.05-1.67"/>
    <path class="cls-2" d="M323.64,357.77c-.02-.32-.04-.65-.06-.97-.02-.32-.48-.32-.5,0-.02.32-.04.65-.06.97-.02.3-.09.63.02.91.12.29.47.29.59,0,.11-.28.04-.61.02-.91"/>
    <path class="cls-2" d="M324.29,356.11c.02.4,0,.8-.04,1.2-.03.38-.11.74-.02,1.11.07.27.51.37.63.08.14-.33.16-.67.2-1.03.05-.46.09-.91.07-1.37-.02-.54-.87-.54-.85,0"/>
    <path class="cls-39" d="M308.07,237.23c-1.1,0-1.1,1.71,0,1.71s1.1-1.71,0-1.71"/>
    <path class="cls-39" d="M309.74,237.63c-.59,0-.59.91,0,.91s.59-.91,0-.91"/>
    <path class="cls-40" d="M315.35,200.1c-.51.07-.94.12-1.42-.12-.3-.15-.67.26-.38.49.32.26.67.47,1.1.51.46.04.78-.07,1.05-.44.18-.24-.12-.48-.34-.45"/>
    <path class="cls-26" d="M315.67,202.89c-.44.06-.8.32-1.23.42-.42.1-.84-.24-1.25-.25-.2,0-.38.17-.37.37.08,1.68,3.3,1.84,3.55.15.07-.46-.24-.75-.69-.69"/>
    <path class="cls-39" d="M311.84,196.47s-5.72-3.74-11.8,0c0,0,5.13,2.9,11.8,0"/>
    <path class="cls-47" d="M311.84,196.47s-5.72-3.74-11.8,0c0,0,5.13,2.9,11.8,0Z"/>
    <path class="cls-39" d="M328.69,196.47s-5.47-3.74-11.28,0c0,0,4.9,2.9,11.28,0"/>
    <path class="cls-47" d="M328.69,196.47s-5.47-3.74-11.28,0c0,0,4.9,2.9,11.28,0Z"/>
    <path class="cls-41" d="M311.33,194.56s-5.07-2.39-10.78.43c0,0,5.79-3.98,10.78-.43"/>
    <path class="cls-41" d="M317.23,194.83s5.07-2.39,10.78.43c0,0-5.79-3.98-10.78-.43"/>
    <path class="cls-23" d="M304.64,194.99s.02,1.78,2.24,1.38c0,0,1.01-.23,1.13-1.32,0,0-2.69-.37-3.37-.06"/>
    <path class="cls-23" d="M320.27,195.21s.47,1.72,2.66,1.17c0,0,.77-.43.82-1.51,0,0-2.82,0-3.48.34"/>
    <path class="cls-31" d="M250.32,360.86c0,1.75-9.92,3.17-22.15,3.17s-22.15-1.42-22.15-3.17,9.92-3.17,22.15-3.17,22.15,1.42,22.15,3.17"/>
    <path class="cls-16" d="M219.44,354.84c-1.03-.24-5.57,1.41-7.23,2.59-1.65,1.18-1.65,3.06-.21,3.29,1.44.23,9.08.94,11.77,0,2.68-.94,2.07-4.47.62-5.41-2.4-1.56-4.96-.47-4.96-.47"/>
    <path class="cls-45" d="M226.07,309.42s0,.26-.02.75c-.15,5.77-1.12,42.71-1.72,44.97-.65,2.46-3.47,1.7-4.56.57-1.08-1.13-7.16-46.48-6.73-50.64l13.03,4.35Z"/>
    <path class="cls-16" d="M235.96,354.84c1.04-.24,5.61,1.41,7.27,2.59s1.66,3.06.21,3.29c-1.46.23-9.14.94-11.85,0-2.7-.94-2.08-4.47-.62-5.41,2.42-1.56,4.99-.47,4.99-.47"/>
    <path class="cls-45" d="M229.29,309.42s0,.26.02.75c.15,5.77,1.12,42.71,1.72,44.97.65,2.46,3.47,1.7,4.56.57,1.08-1.13,7.16-46.48,6.73-50.64l-13.03,4.35Z"/>
    <path class="cls-34" d="M227.34,154.34c-18.56,0-18,15.73-17.43,22.67.57,6.94-3.26,12.61-5.53,15.02,0,0,4.25,7.37,21.68,7.37s21.54-8.65,21.54-8.65c0,0-4.68-5.53-3.68-15.16.99-9.64-1.7-21.26-16.58-21.26"/>
    <path class="cls-40" d="M218.4,194.73s3.4-.07,3.12-7.09c-.15-3.72,11.47-.93,11.47-.93,0,0-3.47,6.1.8,7.73,2.53.97.05,6.24.05,6.24l-8.93,3.83-4.25-2.13-2.98-4.96.71-2.13"/>
    <path class="cls-16" d="M218.4,194.73s2.8,5.95,8.55,5.53c5.75-.42,6.84-5.81,6.84-5.81,0,0,5.6,1.84,7.93,2.69,2.33.85,24.88,30.89,25.04,33.02l-23.38-6.14s1.87,22.86,6.12,39.59c7.08,27.84,15.86,37.41,15.86,37.41,0,0-18.35,10.06-39.34,10.06s-33.28-10.35-33.28-10.35c0,0,13.55-21.13,15.81-39.3,2.28-18.33.83-33.44.83-33.44l-14.62,2.88s13.37-30.47,14.93-32.31c1.55-1.84,8.71-3.83,8.71-3.83"/>
    <path class="cls-17" d="M232.3,213.76l-.48,14.64c-.02.62.46,1.15,1.08,1.19l5.18.35c.6.04,1.13-.39,1.22-.98l2.21-14.68c.1-.68-.41-1.3-1.09-1.33l-6.9-.31c-.65-.03-1.19.47-1.21,1.12"/>
    <path class="cls-45" d="M222.07,224.2s4.75-3.9,6.31-4.25c1.56-.35,5.46-.85,5.88-.57.43.28.07.92.07.92,0,0,1.35.21,1.35.78s-.71,1.13-.71,1.13c0,0,.85.42.92.78.07.35-.71,1.13-.71,1.13,0,0,.85.5.85,1.13s-3.12,1.91-4.96,2.48c-1.84.57-5.53.64-7.3.71-1.77.07-1.7-4.25-1.7-4.25"/>
    <path class="cls-45" d="M249.27,225.72s-3.65-4.21-5-4.76c-1.34-.55-4.75-1.59-5.17-1.4-.42.19-.2.81-.2.81,0,0-1.24-.01-1.32.49-.09.51.46,1.12.46,1.12,0,0-.82.25-.94.56-.12.31.46,1.12.46,1.12,0,0-.84.31-.93.89-.1.57,2.5,2.18,4.06,2.97,1.56.79,4.85,1.41,6.42,1.74,1.57.33,2.16-3.54,2.16-3.54"/>
    <path class="cls-45" d="M228.01,190.95c12.04,0,18.58-30.61,0-30.61s-14.3,30.61,0,30.61"/>
    <path class="cls-16" d="M200.81,227.75c-5.35,2.32-3.35,9.64,3.26,10.2,6.61.57,21.07-7.51,21.82-8.08.76-.57-3.4-7.37-3.4-7.37,0,0-16.01,2.79-21.68,5.24"/>
    <path class="cls-30" d="M248.43,222.93c-.55-.15-3.83,6.16-3.76,6.94.07.78,10.2,6.59,14.67,7.23,4.46.64,6.02-5.31,5.24-7.72-.78-2.41-4.61-3.4-16.16-6.45"/>
    <path class="cls-34" d="M228.59,167.52s-7.37,6.66-15.59,5.1c0,0,.57-13.89,15.45-13.89s13.32,14.46,13.32,14.46c0,0-9.49.14-13.18-5.67"/>
    <path class="cls-36" d="M221.79,222.77c-3.44.33-6.55,1.33-9.94,1.95-3.69.67-7.44,1.13-10.91,2.6-.35.15-.1.71.26.61,3.27-1,6.55-1.54,9.92-2.1,3.64-.6,7.19-1.53,10.8-2.19.49-.09.38-.92-.12-.87"/>
    <path class="cls-36" d="M225.08,229.91c-2.21.73-4.12,2.16-6.29,3.03-2.33.94-4.68,1.81-6.87,3.05-.51.29-.06,1.04.46.78,4.34-2.14,8.83-3.69,13.01-6.14.38-.22.13-.87-.31-.73"/>
    <path class="cls-36" d="M261.49,226.05c-4-1.76-8.59-2.76-12.92-3.27-.32-.04-.4.52-.08.57,4.42.61,8.44,2.26,12.75,3.29.34.08.59-.44.25-.59"/>
    <path class="cls-36" d="M234.83,195.54c-.27,0-.57.3-.45.59.26.65.87.98.76,1.77-.08.62-.46.85-.94.84-.02-.05-.05-.1-.08-.15-.21-.35-.82-.32-.91.12-.21,1.01.12,2.06-.66,2.92-.76.83-1.98.2-2.75-.39,0-.04.01-.08.01-.13.02-.48-.57-.65-.89-.37-.81.71-.53,1.8-1.87,1.9-.95.07-1.88-.5-2.37-1.3.11-.16.18-.33.22-.54.06-.33-.2-.62-.54-.54-.1.02-.2.06-.29.11-.12,0-.24.06-.3.16-.2.12-.4.25-.62.32-.42.15-.89.09-1.29-.11-.32-.16-.54-.43-.64-.77-.1-.37.13-.72.14-1.09.01-.02.03-.04.03-.06.13-.31-.18-.56-.45-.59-.42-.05-.8.27-1.24.28-.38,0-.71-.2-.96-.47-.6-.64-.3-1.49.39-1.89.37-.22.05-.76-.34-.57-1.17.55-1.52,1.85-.84,2.94.33.53.89.9,1.5,1.02.19.04.39.05.6.04-.02.19-.02.39,0,.56.11.67.52,1.18,1.07,1.56.69.49,2.03.6,2.92.17,1.1,2.12,4.71,2.54,5.59.22.93.88,2.13,1.35,3.39.67.99-.53,1.55-1.94,1.43-3.13.69,0,1.33-.41,1.65-1.16.39-.94.09-2.99-1.27-2.94"/>
    <path class="cls-36" d="M227.31,205.3c-.69,0-1.26.57-1.26,1.26s.57,1.26,1.26,1.26,1.26-.57,1.26-1.26-.57-1.26-1.26-1.26"/>
    <path class="cls-36" d="M227.31,213.8c-.69,0-1.26.57-1.26,1.26s.57,1.26,1.26,1.26,1.26-.57,1.26-1.26-.57-1.26-1.26-1.26"/>
    <path class="cls-36" d="M257.82,299.06c-3.45,3.01-9.1,4.59-13.43,5.77-5.6,1.52-11.52,2-17.29,2.08-9.12.13-21.26-.77-28-7.72-.29-.3-.83.1-.59.46,2.45,3.63,6.87,5.35,10.91,6.54,5.37,1.58,11.05,2.21,16.62,2.34,6.29.15,12.7-.5,18.83-1.96,2.97-.71,5.79-1.87,8.64-2.94,2.04-.77,4.12-1.61,5.66-3.21.86-.89-.43-2.15-1.35-1.35"/>
    <path class="cls-36" d="M206.44,301.48s-.05-.04-.08-.06c-.41-.32-1.08-.15-1.08.45s.67.77,1.08.45c.03-.02.05-.04.08-.06.21-.17.21-.6,0-.77"/>
    <path class="cls-36" d="M214.7,303.91c-1.01,0-1.01,1.57,0,1.57s1.01-1.57,0-1.57"/>
    <path class="cls-36" d="M223.86,304.51s-.03-.02-.05-.03c-.59-.39-1.37.12-1.37.78s.78,1.17,1.37.78c.02-.01.03-.02.05-.03.56-.37.56-1.13,0-1.5"/>
    <path class="cls-36" d="M233.27,304.47s-.04,0-.07-.01c-.52-.09-1.05.22-1.05.8s.53.89,1.05.8c.02,0,.05,0,.07-.01.78-.14.78-1.44,0-1.58"/>
    <path class="cls-36" d="M241.06,303.13c-1.47,0-1.47,2.28,0,2.28s1.47-2.28,0-2.28"/>
    <path class="cls-36" d="M250.27,301.36c-1.01,0-1.01,1.57,0,1.57s1.01-1.57,0-1.57"/>
    <path class="cls-39" d="M233.98,213.65c-.81,0-.81,1.26,0,1.26s.81-1.26,0-1.26"/>
    <path class="cls-39" d="M235.82,214.16c-.53,0-.53.82,0,.82s.53-.82,0-.82"/>
    <path class="cls-40" d="M228.92,181.32c-.55.2-1.04.48-1.62.16-.2-.11-.49.13-.33.33.25.33.63.66,1.07.67.54.01,1.01-.16,1.32-.6.19-.27-.13-.68-.44-.57"/>
    <path class="cls-14" d="M229.96,184.78c-.43.06-.78.28-1.2.39-.46.12-.97-.14-1.4-.26-.38-.1-.61.35-.37.63.9,1.02,3.01,1.41,3.59-.13.15-.41-.29-.67-.63-.63"/>
    <path class="cls-39" d="M225.64,177.31s-5.85-3.82-12.06,0c0,0,5.24,2.96,12.06,0"/>
    <path class="cls-47" d="M225.64,177.31s-5.85-3.82-12.06,0c0,0,5.24,2.96,12.06,0Z"/>
    <path class="cls-39" d="M242.85,177.31s-5.59-3.82-11.53,0c0,0,5.01,2.96,11.53,0"/>
    <path class="cls-47" d="M242.85,177.31s-5.59-3.82-11.53,0c0,0,5.01,2.96,11.53,0Z"/>
    <path class="cls-41" d="M225.12,174.92s-5.18-2.44-11.02.44c0,0,5.91-4.07,11.02-.44"/>
    <path class="cls-41" d="M231.14,175.2s5.18-2.44,11.02.44c0,0-5.91-4.07-11.02-.44"/>
    <path class="cls-47" d="M225.99,175.86s1.98-.07,1.47,3.91l-.24,1.34"/>
    <path class="cls-23" d="M218.28,175.8s.02,1.82,2.29,1.4c0,0,1.03-.24,1.15-1.34,0,0-2.75-.38-3.45-.06"/>
    <path class="cls-23" d="M234.24,176.03s.48,1.76,2.72,1.2c0,0,.78-.44.84-1.55,0,0-2.88,0-3.55.35"/>
    <path class="cls-36" d="M228.54,174.39c0,.23-.18.41-.41.41s-.41-.18-.41-.41.18-.41.41-.41.41.18.41.41"/>
    <path class="cls-10" d="M422.82,72.74c-1.01-3.48-6.29-6.07-11.28-3.55.53-5.13-2.2-10.01-6.7-12.07-4.03-1.85-8.84-1.15-12.34,1.77-.21-.79-3.65-13.2-14.1-16.33-10.33-3.1-23.65,4.05-28.2,18.11-1.6-2.98-5.02-4.44-8.11-3.55-3.38.97-5.58,4.5-4.93,8.17-6.1-6.69-15.4-6.99-20.09-2.49-3.18,3.05-4.14,8.21-2.82,13.14-3.04.05-5.37,1.94-6.29,4.12h111.89c2.51-2,3.63-5.01,2.96-7.31"/>
    <path class="cls-12" d="M452.92,18.47l-5.5-.8c-.05-.54-.15-1.07-.27-1.58l4.96-2.36c.56-.27.28-1.06-.33-.97l-5.49.84c-.23-.49-.49-.97-.77-1.43l3.95-3.68c.45-.41-.08-1.09-.64-.82l-4.95,2.39c-.38-.4-.78-.78-1.2-1.13l2.54-4.65c.29-.52-.43-1.02-.88-.6l-3.92,3.71c-.49-.27-.99-.51-1.52-.73l.89-5.16c.1-.58-.75-.84-1.03-.31l-2.51,4.67c-.55-.11-1.11-.2-1.68-.25l-.85-5.17c-.1-.58-.99-.58-1.08,0l-.85,5.17c-.57.05-1.13.14-1.68.25l-2.51-4.67c-.28-.52-1.13-.27-1.03.31l.89,5.16c-.52.22-1.03.46-1.52.73l-3.92-3.71c-.44-.42-1.16.07-.88.6l2.55,4.65c-.43.36-.83.73-1.2,1.13l-4.95-2.39c-.56-.27-1.08.41-.64.82l3.95,3.68c-.29.46-.55.93-.77,1.43l-5.49-.84c-.62-.09-.89.7-.33.97l4.96,2.36c-.12.52-.21,1.05-.27,1.58l-5.5.8c-.62.09-.62.93,0,1.02l5.5.8c.05.54.15,1.07.27,1.58l-4.96,2.36c-.56.27-.28,1.06.33.97l5.49-.84c.23.49.49.97.77,1.43l-3.95,3.68c-.44.42.08,1.09.64.82l4.95-2.39c.38.4.78.78,1.2,1.13l-2.55,4.65c-.29.52.43,1.02.88.6l3.92-3.71c.49.27.99.51,1.52.73l-.89,5.16c-.1.58.75.84,1.03.32l2.51-4.67c.55.11,1.11.2,1.68.25l.85,5.17c.1.58.99.58,1.08,0l.85-5.17c.57-.05,1.13-.14,1.68-.25l2.51,4.67c.28.53,1.13.27,1.03-.32l-.89-5.16c.52-.21,1.03-.46,1.52-.73l3.92,3.71c.44.42,1.16-.08.88-.6l-2.54-4.65c.42-.35.83-.73,1.2-1.13l4.95,2.39c.56.27,1.08-.41.64-.82l-3.95-3.68c.29-.46.55-.93.77-1.43l5.49.84c.62.1.89-.7.33-.97l-4.96-2.36c.12-.52.21-1.04.27-1.58l5.5-.8c.62-.09.62-.93,0-1.02"/>
    <path class="cls-11" d="M462.92,108.3c-.46-1.52-2.86-2.66-5.14-1.55.24-2.25-1-4.38-3.05-5.29-1.83-.81-4.03-.51-5.62.78-.09-.35-1.67-5.78-6.42-7.15-4.71-1.36-10.77,1.77-12.85,7.93-.73-1.3-2.29-1.94-3.69-1.55-1.54.42-2.54,1.97-2.25,3.57-2.78-2.93-7.02-3.06-9.15-1.09-1.45,1.34-1.89,3.6-1.29,5.75-1.39.02-2.45.85-2.87,1.8h50.98c1.15-.88,1.65-2.19,1.35-3.2"/>
  </g>
</svg>