<svg width="245" height="55" viewBox="0 0 245 55" fill="none" xmlns="http://www.w3.org/2000/svg">
<g clip-path="url(#clip0_2_17)">
<mask id="mask0_2_17" style="mask-type:luminance" maskUnits="userSpaceOnUse" x="0" y="0" width="245" height="55">
<path d="M245 0H0V55H245V0Z" fill="white"/>
</mask>
<g mask="url(#mask0_2_17)">
<path d="M27.9604 0C36.9611 0 44.2652 7.81148 44.2652 17.4384C44.2652 27.0653 36.9611 34.8768 27.9604 34.8768C18.9597 34.8768 11.6556 27.0781 11.6556 17.4384C11.6556 7.7987 18.9597 0 27.9604 0Z" fill="#F47732"/>
</g>
<path d="M25.7588 18.1416L24.6709 16.4795H26.4193L25.7588 18.1416ZM25.4739 14.7408H27.1186L26.4193 16.4795L25.4739 14.7408ZM25.4739 14.7408L24.3342 12.6313H26.4322L25.4609 14.7408H25.4739ZM20.1512 12.6185L22.2362 16.9654L24.3342 12.6185H20.1512ZM22.2362 16.9654L23.3759 19.3178L24.4249 21.504H20.0476L22.2492 16.9654H22.2362ZM23.3241 14.7408H25.4739L24.6709 16.4795L24.3601 17.1699L23.3111 14.7408H23.3241ZM24.3601 17.1699L23.3759 19.3305H25.2926L24.3731 17.1699H24.3601ZM25.7588 18.1416L26.5358 19.3178H25.2926L25.7588 18.1416ZM24.4249 21.504L25.2926 19.3178L26.225 21.504H24.4249ZM26.3675 25.5567L24.4119 21.504L22.7931 25.5567H26.3675ZM27.9604 21.504L27.6496 21.0309L26.5358 19.3178H29.385L27.9604 21.504ZM22.5341 9.3073L20.2936 5.16504H25.4998L22.5341 9.3073ZM25.9531 9.3073H22.5341L24.3342 12.6185L25.9531 9.3073ZM20.1512 12.6185L22.5341 9.3073H18.5582L20.1512 12.6185ZM20.1512 12.6185L16.9912 17.0293L13.9867 12.6185H20.1512ZM20.0346 21.504L18.0661 25.5567H22.7931L20.0346 21.504ZM13.7795 21.504H20.0346L16.9912 17.0293L13.7795 21.504ZM21.4851 28.868L22.8061 25.5695L25.0595 28.868H21.498H21.4851ZM30.162 18.1416L29.5015 16.4795H31.2499L30.162 18.1416ZM30.4469 14.7408L29.5015 16.4795L28.8022 14.7408H30.4469ZM30.4469 14.7408L29.4756 12.6313H31.5736L30.434 14.7408H30.4469ZM35.7567 12.6185L33.6716 16.9654L31.5736 12.6185H35.7567ZM33.6716 16.9654L32.532 19.3178L31.483 21.504H35.8603L33.6587 16.9654H33.6716ZM32.5967 14.7408L31.5477 17.1699L31.2369 16.4923L30.434 14.7408H32.5838H32.5967ZM31.5477 17.1699L30.6282 19.3305H32.5449L31.5607 17.1699H31.5477ZM30.162 18.1416L30.6282 19.3178H29.385L30.162 18.1416ZM31.4959 21.504H29.6958L30.6282 19.3178L31.4959 21.504ZM29.5404 25.5567H33.1148L31.4959 21.504L29.5404 25.5567ZM27.9604 14.7408H27.1186L27.9604 12.6313L28.8022 14.7408H27.9604ZM27.9604 19.3178L28.1806 18.9214L29.5015 16.4668H26.4322L27.9734 19.305L27.9604 19.3178ZM27.9604 25.5567L29.6958 21.504H26.225L27.5589 24.6362L27.9604 25.5695V25.5567ZM33.3738 9.3073L30.4081 5.16504H35.6142L33.3738 9.3073ZM29.9678 9.3073L31.5866 12.6185L33.3867 9.3073H29.9678ZM35.7567 12.6185L33.3738 9.3073H37.3496L35.7567 12.6185ZM35.7567 12.6185L38.9166 17.0293L41.9212 12.6185H35.7567ZM35.8732 21.504L33.1148 25.5567H37.8417L35.8732 21.504ZM42.1284 21.504H35.8732L38.9166 17.0293L42.1284 21.504ZM34.4228 28.868H30.8613L33.1148 25.5695L34.4357 28.868H34.4228ZM27.9604 5.16504H30.421L27.9604 1.73873L25.4998 5.16504H27.9604ZM27.9604 9.3073H25.9531L27.9604 5.16504L29.9678 9.3073H27.9604ZM27.9604 12.6185H29.4756L28.5561 10.6113L27.9475 9.29451L26.4322 12.6058H27.9475L27.9604 12.6185ZM27.9604 28.868L26.3675 25.5695H29.5404L28.3619 28.0114L27.9475 28.868H27.9604ZM27.9604 33.1253L30.8613 28.868H25.0465L27.9475 33.1253H27.9604Z" fill="white"/>
<mask id="mask1_2_17" style="mask-type:luminance" maskUnits="userSpaceOnUse" x="0" y="0" width="245" height="55">
<path d="M245 0H0V55H245V0Z" fill="white"/>
</mask>
<g mask="url(#mask1_2_17)">
<path d="M63.3027 5.93212H59.7931C58.6793 5.93212 57.7598 6.91655 57.7598 8.10553V28.9447H61.2694C62.3832 28.9447 63.3027 27.9603 63.3027 26.7713V5.93212ZM69.1564 5.93212H81.0321V9.78033C81.0321 10.931 80.1515 11.8642 79.0895 11.8642H72.7178V14.8175H79.6334V18.6657C79.6334 19.8164 78.7528 20.7497 77.6908 20.7497H72.7178V26.8352C72.7178 27.9986 71.8242 28.9447 70.7363 28.9447H67.1749V8.04161C67.1749 6.8782 68.0685 5.93212 69.1564 5.93212ZM53.8746 5.93212H50.365C49.2513 5.93212 48.3318 6.91655 48.3318 8.10553V28.9447H51.8414C52.9551 28.9447 53.8746 27.9603 53.8746 26.7713V5.93212ZM89.6443 5.93212H86.0828C84.995 5.93212 84.1014 6.8782 84.1014 8.04161V28.9447H94.423C95.498 28.9447 96.3656 28.0114 96.3656 26.8608V23.0126H89.6313V5.93212H89.6443Z" fill="#1B3281"/>
<path d="M129.752 28.1392L132.122 12.3245C132.187 11.877 132.589 11.5191 133.016 11.5191H135.23C135.658 11.5191 136.085 11.8642 136.189 12.2861L138.727 22.6546L141.265 12.2861C141.369 11.8642 141.796 11.5191 142.224 11.5191H144.438C144.866 11.5191 145.267 11.877 145.332 12.3245L147.702 28.1392C147.767 28.5739 147.482 28.9447 147.054 28.9447H145.539C145.112 28.9447 144.71 28.5867 144.646 28.1392L143.053 17.4768L140.437 28.1776C140.359 28.51 140.074 28.7913 139.75 28.9063C139.673 28.9319 139.595 28.9575 139.504 28.9575H137.963C137.872 28.9575 137.782 28.9447 137.717 28.9063C137.393 28.804 137.108 28.51 137.031 28.1776L134.415 17.4768L132.822 28.1392C132.757 28.5739 132.355 28.9447 131.928 28.9447H130.413C129.985 28.9447 129.701 28.5867 129.765 28.1392M196.513 20.6218H193.547L195.024 15.0604L196.5 20.6218H196.513ZM192.524 12.9893L188.522 27.9986C188.38 28.5228 188.704 28.9447 189.235 28.9447H190.374C190.905 28.9447 191.449 28.5228 191.592 27.9986L192.692 23.8947H197.394L198.494 27.9986C198.637 28.5228 199.181 28.9447 199.712 28.9447H200.851C201.382 28.9447 201.693 28.5228 201.551 27.9986L197.549 12.9893C197.005 10.9565 193.068 11.0077 192.55 12.9893M181.348 11.5191H181.982H182.008C182.461 11.5191 182.915 11.583 183.355 11.698C183.886 11.8259 184.391 12.0432 184.87 12.3373C185.388 12.6569 185.829 13.0916 186.204 13.6158C186.632 14.2039 186.929 14.9198 187.137 15.6613C187.396 16.5946 187.486 17.6174 187.486 18.6018V21.8747C187.486 22.8464 187.396 23.8563 187.137 24.7768C186.929 25.5184 186.632 26.2215 186.204 26.8224C185.829 27.3466 185.388 27.7813 184.87 28.1137C184.391 28.4205 183.886 28.6378 183.355 28.7785C182.863 28.9063 182.371 28.9702 181.866 28.9702H181.438C180.933 28.9702 180.441 28.9063 179.949 28.7785C179.418 28.6506 178.913 28.4205 178.434 28.1137C177.916 27.794 177.475 27.3466 177.1 26.8224C176.673 26.2343 176.375 25.5184 176.154 24.7768C175.895 23.8563 175.805 22.8464 175.805 21.8747V18.6018C175.805 17.6174 175.895 16.6074 176.154 15.6613C176.362 14.9198 176.66 14.2039 177.1 13.6158C177.475 13.1044 177.916 12.6569 178.434 12.3373C178.913 12.0432 179.418 11.8259 179.949 11.698C180.389 11.5958 180.843 11.5318 181.296 11.5191H181.322M181.412 25.6846C181.412 25.6846 181.451 25.6846 181.477 25.6846H181.71C181.71 25.6846 181.736 25.6846 181.762 25.6846H181.853C182.306 25.6846 182.759 25.659 183.161 25.4033C183.575 25.1476 183.847 24.7001 184.028 24.2143C184.3 23.5112 184.365 22.629 184.365 21.8747V18.6018C184.365 17.9754 184.326 17.2978 184.171 16.6969C183.834 15.3801 183.122 14.8175 181.982 14.792H181.348C180.208 14.8175 179.496 15.3801 179.159 16.6969C179.004 17.2978 178.965 17.9754 178.965 18.6018V21.8747C178.965 22.6418 179.03 23.5112 179.301 24.2143C179.496 24.7001 179.768 25.1348 180.169 25.4033C180.558 25.6462 180.972 25.6846 181.412 25.6846ZM168.281 28.9447H174.044C174.471 28.9447 174.808 28.5739 174.808 28.1265V26.5156C174.808 26.0681 174.458 25.6974 174.044 25.6974H169.07C168.617 25.6974 168.242 25.301 168.242 24.8024V12.3501C168.242 11.9026 167.892 11.5318 167.478 11.5318H165.962C165.548 11.5318 165.198 11.9026 165.198 12.3501V25.6462C165.198 27.4616 166.584 28.9447 168.293 28.9447M212.351 28.9447C212.092 28.9447 211.872 28.8935 211.678 28.7913C211.458 28.6762 211.277 28.4972 211.173 28.2543L205.941 17.7069V28.1265C205.941 28.5739 205.591 28.9447 205.177 28.9447H203.662C203.234 28.9447 202.885 28.5739 202.885 28.1265V12.3501C202.885 11.9026 203.234 11.5318 203.662 11.5318H205.268C205.669 11.5318 205.967 11.5958 206.161 11.7364C206.265 11.8003 206.355 11.8898 206.433 11.9921C206.498 12.0816 206.563 12.1839 206.627 12.2989L211.795 22.7441V12.3501C211.795 11.9026 212.144 11.5318 212.559 11.5318H214.074C214.501 11.5318 214.838 11.9026 214.838 12.3501V28.1265C214.838 28.5739 214.488 28.9447 214.074 28.9447H212.351ZM122.28 11.5191H122.914H122.94C123.394 11.5191 123.847 11.583 124.287 11.698C124.818 11.8259 125.323 12.0432 125.802 12.3373C126.32 12.6569 126.761 13.0916 127.136 13.6158C127.564 14.2039 127.862 14.9198 128.069 15.6613C128.328 16.5946 128.418 17.6174 128.418 18.6018V21.8747C128.418 22.8464 128.328 23.8563 128.069 24.7768C127.862 25.5184 127.564 26.2215 127.136 26.8224C126.761 27.3466 126.32 27.7813 125.802 28.1137C125.323 28.4205 124.818 28.6378 124.287 28.7785C123.795 28.9063 123.303 28.9702 122.798 28.9702H122.383C121.878 28.9702 121.386 28.9063 120.894 28.7785C120.363 28.6506 119.858 28.4205 119.379 28.1137C118.861 27.794 118.421 27.3466 118.045 26.8224C117.618 26.2343 117.32 25.5184 117.113 24.7768C116.854 23.8563 116.763 22.8464 116.763 21.8747V18.6018C116.763 17.6174 116.854 16.6074 117.113 15.6613C117.32 14.9198 117.618 14.2039 118.045 13.6158C118.421 13.1044 118.861 12.6569 119.379 12.3373C119.858 12.0432 120.363 11.8259 120.894 11.698C121.334 11.5958 121.788 11.5318 122.241 11.5191C122.241 11.5191 122.254 11.5191 122.267 11.5191M122.345 25.6846C122.345 25.6846 122.383 25.6846 122.409 25.6846H122.642C122.642 25.6846 122.668 25.6846 122.694 25.6846H122.785C123.238 25.6846 123.691 25.659 124.093 25.4033C124.507 25.1476 124.779 24.7001 124.961 24.2143C125.233 23.5112 125.297 22.629 125.297 21.8747V18.6018C125.297 17.9754 125.259 17.2978 125.103 16.6969C124.766 15.3801 124.054 14.8175 122.914 14.792H122.28C121.14 14.8175 120.428 15.3801 120.091 16.6969C119.936 17.2978 119.897 17.9754 119.897 18.6018V21.8747C119.897 22.6418 119.962 23.5112 120.234 24.2143C120.428 24.7001 120.7 25.1348 121.101 25.4033C121.49 25.6462 121.904 25.6846 122.345 25.6846ZM102.815 12.3373V28.1137C102.815 28.5611 103.165 28.9319 103.579 28.9319H105.081C105.509 28.9319 105.846 28.5611 105.846 28.1137V21.5423H111.492V28.1137C111.492 28.5611 111.842 28.9319 112.256 28.9319H113.771C114.186 28.9319 114.535 28.5611 114.535 28.1137V12.3373C114.535 11.8898 114.186 11.5191 113.771 11.5191H112.256C111.829 11.5191 111.492 11.8898 111.492 12.3373V18.295H105.846V12.3373C105.846 11.8898 105.496 11.5191 105.081 11.5191H103.579C103.152 11.5191 102.815 11.8898 102.815 12.3373ZM152.105 11.5191H157.868C158.296 11.5191 158.632 11.8898 158.632 12.3373V13.9482C158.632 14.3956 158.283 14.7664 157.868 14.7664H152.895C152.442 14.7664 152.066 15.1627 152.066 15.6613V18.5635H157.868C158.296 18.5635 158.632 18.9342 158.632 19.3817V20.9926C158.632 21.44 158.283 21.8108 157.868 21.8108H152.066V24.7896C152.066 25.2755 152.442 25.6846 152.895 25.6846H157.868C158.296 25.6846 158.632 26.0553 158.632 26.5028V28.1137C158.632 28.5611 158.283 28.9319 157.868 28.9319H152.105C150.409 28.9319 149.01 27.4489 149.01 25.6334V14.8175C149.01 13.0021 150.396 11.5191 152.105 11.5191Z" fill="#1B3281"/>
</g>
<path d="M12.7175 51.3052L14.2845 44.0179H15.0745L13.5075 51.3052H12.7175Z" fill="#231F20"/>
<path d="M18.4676 51.3052L19.141 48.2113C19.3353 47.3164 18.9468 46.8689 18.1697 46.8689C17.3927 46.8689 16.8099 47.3291 16.6157 48.2113L15.9422 51.3052H15.1911L16.2789 46.268H17.0301L16.9135 46.8178C17.3668 46.4086 17.9107 46.2041 18.4805 46.2041C19.0504 46.2041 19.4389 46.3703 19.685 46.6771C19.9699 47.0223 20.0346 47.4954 19.9051 48.0835L19.2058 51.3052H18.4546H18.4676Z" fill="#231F20"/>
<path d="M23.7774 51.3052L23.9069 50.7043C23.3759 51.2413 22.8708 51.3691 22.3139 51.3691C21.7959 51.3691 21.3815 51.1901 21.1613 50.9344C20.7599 50.4231 20.8376 49.5793 21.0059 48.7994C21.1743 48.0195 21.4592 47.1757 22.0808 46.6643C22.4046 46.3959 22.8967 46.2297 23.4147 46.2297C23.9716 46.2297 24.4119 46.3575 24.7098 46.8689L25.3185 44.0307H26.0696L24.5026 51.318H23.7644L23.7774 51.3052ZM23.4536 46.8561C22.3398 46.8561 21.9643 47.8022 21.7571 48.7738C21.5498 49.7583 21.5239 50.6915 22.6247 50.6915C23.7255 50.6915 24.1011 49.7455 24.3083 48.7738C24.5155 47.7894 24.5544 46.8561 23.4536 46.8561Z" fill="#231F20"/>
<path d="M26.0826 51.3052L27.1704 46.268H27.9216L26.8337 51.3052H26.0826ZM27.4294 44.8361L27.6107 44.0051H28.4525L28.2712 44.8361H27.4294Z" fill="#231F20"/>
<path d="M31.2887 51.3052L31.3923 50.8194C30.8872 51.2285 30.4858 51.3563 29.8123 51.3563C29.1389 51.3563 28.7245 51.2285 28.4655 50.8961C28.2712 50.6532 28.2194 50.2696 28.2971 49.8733C28.4914 48.9912 29.2296 48.4159 30.3692 48.4159H31.8974L32.001 47.93C32.1564 47.1885 31.8715 46.8305 30.939 46.8305C30.2915 46.8305 29.9159 46.984 29.5274 47.4059L29.113 46.9456C29.6958 46.3575 30.2527 46.2041 31.0815 46.2041C32.4543 46.2041 32.9982 46.7922 32.7651 47.8789L32.0269 51.2924H31.2758L31.2887 51.3052ZM31.7808 48.9784H30.3563C29.5922 48.9784 29.1519 49.2852 29.0224 49.8733C28.8929 50.4614 29.2037 50.7299 30.0066 50.7299C30.4469 50.7299 30.8354 50.7043 31.224 50.3975C31.4312 50.2313 31.5736 49.95 31.6643 49.5281L31.7808 48.9912V48.9784Z" fill="#231F20"/>
<path d="M34.7336 45.6799L35.0962 44.0179H36.0027L35.8214 44.8745L34.7465 45.6799H34.7336Z" fill="#231F20"/>
<path d="M36.9352 51.3691C36.0805 51.3691 35.4459 51.1774 34.9926 50.6404L35.6013 50.1546C35.9121 50.5765 36.4301 50.7427 37.0647 50.7427C37.9065 50.7427 38.4893 50.4486 38.6058 49.8477C38.6965 49.4131 38.5022 49.1574 37.9194 49.1062L37.0906 49.0295C36.1193 48.9528 35.679 48.5053 35.8603 47.6743C36.0546 46.7538 36.9611 46.2041 38.0489 46.2041C38.7742 46.2041 39.3829 46.3831 39.7584 46.7411L39.1627 47.2269C38.8648 46.9456 38.4245 46.8305 37.8935 46.8305C37.1424 46.8305 36.6891 47.1502 36.5726 47.6616C36.4819 48.0962 36.6762 48.3519 37.2978 48.4031L38.1007 48.4798C38.9684 48.5565 39.5124 48.9017 39.3052 49.835C39.0979 50.8066 38.1396 51.3691 36.9093 51.3691H36.9352Z" fill="#231F20"/>
<path d="M43.7343 51.3052C42.8407 51.3052 42.5687 50.7299 42.7241 49.9628L44.0062 44.0179H44.7574L43.4882 49.9245C43.3846 50.4103 43.4882 50.666 44.0062 50.666H44.4077L44.2653 51.3052H43.7213H43.7343Z" fill="#231F20"/>
<path d="M45.9488 48.9784C45.7157 50.0779 46.1042 50.7171 47.0755 50.7171C47.6713 50.7171 48.0468 50.5381 48.539 50.1418L48.9534 50.5765C48.3188 51.0879 47.7878 51.3563 46.9201 51.3563C45.5733 51.3563 44.861 50.5637 45.2495 48.7738C45.5992 47.1502 46.5964 46.1913 47.8914 46.1913C49.1865 46.1913 49.7822 47.1374 49.4585 48.6204L49.3808 48.9528H45.9359L45.9488 48.9784ZM48.785 47.5848C48.6944 47.1246 48.2929 46.8305 47.7619 46.8305C47.2309 46.8305 46.7 47.1246 46.4021 47.5848C46.2337 47.8661 46.1819 48.0195 46.0654 48.4286H48.7591C48.8239 48.0195 48.8368 47.8661 48.785 47.5848Z" fill="#231F20"/>
<path d="M53.0587 51.3052L53.1623 50.8194C52.6572 51.2285 52.2558 51.3563 51.5823 51.3563C50.9089 51.3563 50.4945 51.2285 50.2355 50.8961C50.0412 50.6532 49.9894 50.2696 50.0801 49.8733C50.2743 48.9912 51.0125 48.4159 52.1522 48.4159H53.6803L53.784 47.93C53.9394 47.1885 53.6544 46.8305 52.722 46.8305C52.0745 46.8305 51.6989 46.984 51.3104 47.4059L50.896 46.9456C51.4787 46.3575 52.0356 46.2041 52.8645 46.2041C54.2243 46.2041 54.7811 46.7922 54.548 47.8789L53.8099 51.2924H53.0587V51.3052ZM53.5508 48.9784H52.1263C51.3622 48.9784 50.9219 49.2852 50.7924 49.8733C50.6629 50.4614 50.9737 50.7299 51.7766 50.7299C52.2169 50.7299 52.6054 50.7043 52.994 50.3975C53.2012 50.2313 53.3566 49.95 53.4343 49.5281L53.5508 48.9912V48.9784Z" fill="#231F20"/>
<path d="M58.3555 51.3052L58.485 50.7043C57.9541 51.2413 57.449 51.3691 56.8921 51.3691C56.3741 51.3691 55.9597 51.1901 55.7395 50.9344C55.338 50.4231 55.4157 49.5793 55.5841 48.7994C55.7525 48.0195 56.0374 47.1757 56.659 46.6643C56.9828 46.3959 57.4749 46.2297 57.9929 46.2297C58.5498 46.2297 58.9901 46.3575 59.288 46.8689L59.8967 44.0307H60.6478L59.0808 51.318H58.3426L58.3555 51.3052ZM58.0318 46.8561C56.918 46.8561 56.5425 47.8022 56.3352 48.7738C56.128 49.7583 56.1021 50.6915 57.2029 50.6915C58.3037 50.6915 58.6793 49.7455 58.8865 48.7738C59.0937 47.7894 59.1326 46.8561 58.0318 46.8561Z" fill="#231F20"/>
<path d="M60.6607 51.3052L61.7486 46.268H62.4997L61.4119 51.3052H60.6607ZM62.0076 44.8361L62.1889 44.0051H63.0307L62.8494 44.8361H62.0076Z" fill="#231F20"/>
<path d="M66.2425 51.3052L66.9159 48.2113C67.1102 47.3164 66.7216 46.8689 65.9446 46.8689C65.1676 46.8689 64.5848 47.3291 64.3905 48.2113L63.7171 51.3052H62.966L64.0538 46.268H64.8049L64.6884 46.8178C65.1417 46.4086 65.6856 46.2041 66.2554 46.2041C66.8252 46.2041 67.2138 46.3703 67.4598 46.6771C67.7447 47.0223 67.8095 47.4954 67.68 48.0835L66.9807 51.3052H66.2295H66.2425Z" fill="#231F20"/>
<path d="M69.6355 53.6065C68.8714 53.6065 68.4829 53.4147 68.0556 52.9289L68.6383 52.4558C68.9362 52.7882 69.1564 52.9544 69.7521 52.9544C70.7363 52.9544 71.2932 52.2641 71.4875 51.4075L71.6558 50.6148C71.1249 51.139 70.6327 51.2668 70.0888 51.2668C69.5708 51.2668 69.1693 51.0879 68.9492 50.8194C68.5477 50.3208 68.5995 49.5409 68.7808 48.7227C68.9621 47.9045 69.2341 47.1246 69.8557 46.626C70.1795 46.3575 70.6716 46.1913 71.1896 46.1913C71.7465 46.1913 72.1739 46.3192 72.4717 46.8433L72.6012 46.2552H73.3394L72.2257 51.4458C71.9537 52.6987 70.9695 53.6065 69.6355 53.6065ZM71.2026 46.8561C70.0888 46.8561 69.7262 47.8022 69.519 48.7355C69.3118 49.6815 69.2859 50.6148 70.3867 50.6148C71.4875 50.6148 71.8501 49.6688 72.0573 48.7355C72.2645 47.7894 72.3034 46.8561 71.2026 46.8561Z" fill="#231F20"/>
<path d="M78.9729 51.3052L79.0765 50.8194C78.5715 51.2285 78.17 51.3563 77.4966 51.3563C76.8231 51.3563 76.4087 51.2285 76.1497 50.8961C75.9554 50.6532 75.9036 50.2696 75.9943 49.8733C76.1885 48.9912 76.9267 48.4159 78.0664 48.4159H79.5946L79.6982 47.93C79.8536 47.1885 79.5687 46.8305 78.6362 46.8305C77.9887 46.8305 77.6131 46.984 77.2246 47.4059L76.8102 46.9456C77.393 46.3575 77.9498 46.2041 78.7787 46.2041C80.1385 46.2041 80.6954 46.7922 80.4623 47.8789L79.7241 51.2924H78.9729V51.3052ZM79.478 48.9784H78.0534C77.2893 48.9784 76.849 49.2852 76.7195 49.8733C76.59 50.4614 76.9008 50.7299 77.7038 50.7299C78.1441 50.7299 78.5326 50.7043 78.9211 50.3975C79.1283 50.2313 79.2837 49.95 79.3614 49.5281L79.478 48.9912V48.9784Z" fill="#231F20"/>
<path d="M83.1042 46.8561L82.1458 51.2924H81.3947L82.353 46.8561H81.7055L81.8221 46.2936H82.4696L82.6768 45.3475C82.8322 44.606 83.3891 43.9923 84.2568 43.9923H84.8007L84.6583 44.6316H84.2568C83.7776 44.6316 83.5186 44.9128 83.415 45.3731L83.2207 46.3064H84.3086L84.192 46.8689H83.1042V46.8561Z" fill="#231F20"/>
<path d="M86.0569 46.8561L85.0986 51.2924H84.3474L85.3058 46.8561H84.6583L84.7748 46.2936H85.4223L85.6296 45.3475C85.785 44.606 86.3418 43.9923 87.2095 43.9923H87.7535L87.611 44.6316H87.2095C86.7304 44.6316 86.4714 44.9128 86.3677 45.3731L86.1735 46.3064H87.2613L87.1448 46.8689H86.0569V46.8561Z" fill="#231F20"/>
<path d="M90.3306 50.7938C89.9033 51.139 89.3723 51.3691 88.7507 51.3691C88.129 51.3691 87.6887 51.139 87.4167 50.7938C87.0153 50.2696 87.0541 49.5665 87.2225 48.7866C87.3908 48.0067 87.6499 47.3036 88.2715 46.7794C88.6989 46.4342 89.2298 46.2041 89.8515 46.2041C90.4731 46.2041 90.9134 46.4342 91.1854 46.7794C91.5869 47.3036 91.548 48.0067 91.3796 48.7866C91.2113 49.5665 90.9523 50.2696 90.3306 50.7938ZM90.5637 47.2269C90.3695 46.9967 90.0716 46.8561 89.709 46.8561C89.3464 46.8561 88.9967 46.984 88.7118 47.2269C88.2585 47.5976 88.0772 48.2241 87.9607 48.7866C87.8441 49.3491 87.7405 49.9756 88.0384 50.3464C88.2197 50.5765 88.5175 50.7171 88.8802 50.7171C89.2428 50.7171 89.6054 50.5893 89.8903 50.3464C90.3436 49.9756 90.512 49.3491 90.6285 48.7866C90.7451 48.2241 90.8487 47.5976 90.5637 47.2269Z" fill="#231F20"/>
<path d="M95.8476 47.2269C95.6275 46.9456 95.4461 46.8561 95.0447 46.8561C94.2935 46.8561 93.6978 47.4442 93.5295 48.2113L92.869 51.3052H92.1178L93.2057 46.268H93.9568L93.8273 46.8817C94.2029 46.4598 94.8116 46.2041 95.4073 46.2041C95.8994 46.2041 96.2491 46.3192 96.521 46.6771L95.8476 47.2269Z" fill="#231F20"/>
<path d="M98.8651 51.3052L98.9946 50.7043C98.4636 51.2413 97.9585 51.3691 97.4017 51.3691C96.8836 51.3691 96.4692 51.1901 96.2491 50.9344C95.8476 50.4231 95.9253 49.5793 96.0937 48.7994C96.262 48.0195 96.5469 47.1757 97.1686 46.6643C97.4923 46.3959 97.9844 46.2297 98.5025 46.2297C99.0593 46.2297 99.4997 46.3575 99.7975 46.8689L100.406 44.0307H101.157L99.5903 51.318H98.8521L98.8651 51.3052ZM98.5413 46.8561C97.4276 46.8561 97.052 47.8022 96.8448 48.7738C96.6376 49.7583 96.6117 50.6915 97.7125 50.6915C98.8133 50.6915 99.1889 49.7455 99.3961 48.7738C99.6033 47.7894 99.6421 46.8561 98.5413 46.8561Z" fill="#231F20"/>
<path d="M104.058 51.3052L104.162 50.8194C103.657 51.2285 103.255 51.3563 102.582 51.3563C101.909 51.3563 101.494 51.2285 101.235 50.8961C101.041 50.6532 100.989 50.2696 101.08 49.8733C101.274 48.9912 102.012 48.4159 103.152 48.4159H104.68L104.784 47.93C104.939 47.1885 104.654 46.8305 103.722 46.8305C103.074 46.8305 102.699 46.984 102.31 47.4059L101.896 46.9456C102.478 46.3575 103.035 46.2041 103.864 46.2041C105.224 46.2041 105.781 46.7922 105.548 47.8789L104.809 51.2924H104.058V51.3052ZM104.563 48.9784H103.139C102.375 48.9784 101.934 49.2852 101.805 49.8733C101.675 50.4614 101.986 50.7299 102.789 50.7299C103.229 50.7299 103.618 50.7043 104.007 50.3975C104.214 50.2313 104.369 49.95 104.447 49.5281L104.563 48.9912V48.9784Z" fill="#231F20"/>
<path d="M109.821 50.9217C109.498 51.1901 109.005 51.3563 108.487 51.3563C107.931 51.3563 107.49 51.2285 107.192 50.6915L107.063 51.2924H106.312L107.879 44.0051H108.63L108.021 46.8433C108.552 46.3192 109.044 46.2041 109.601 46.2041C110.119 46.2041 110.534 46.3831 110.754 46.6388C111.155 47.1502 111.078 47.994 110.909 48.7738C110.741 49.5537 110.456 50.3975 109.834 50.9089L109.821 50.9217ZM109.303 46.8561C108.19 46.8561 107.814 47.8022 107.607 48.7738C107.4 49.7583 107.374 50.6915 108.474 50.6915C109.575 50.6915 109.951 49.7455 110.158 48.7738C110.365 47.7894 110.404 46.8561 109.303 46.8561Z" fill="#231F20"/>
<path d="M112.942 51.3052C112.049 51.3052 111.777 50.7299 111.932 49.9628L113.214 44.0179H113.966L112.696 49.9245C112.593 50.4103 112.696 50.666 113.214 50.666H113.616L113.473 51.3052H112.929H112.942Z" fill="#231F20"/>
<path d="M115.131 48.9784C114.898 50.0779 115.286 50.7171 116.258 50.7171C116.854 50.7171 117.229 50.5381 117.721 50.1418L118.136 50.5765C117.514 51.0879 116.97 51.3563 116.102 51.3563C114.756 51.3563 114.043 50.5637 114.432 48.7738C114.781 47.1502 115.779 46.1913 117.074 46.1913C118.369 46.1913 118.964 47.1374 118.641 48.6204L118.563 48.9528H115.118L115.131 48.9784ZM117.967 47.5848C117.877 47.1246 117.475 46.8305 116.944 46.8305C116.413 46.8305 115.882 47.1246 115.584 47.5848C115.416 47.8661 115.364 48.0195 115.248 48.4286H117.941C118.006 48.0195 118.019 47.8661 117.967 47.5848Z" fill="#231F20"/>
<path d="M124.909 51.3052L125.582 48.1985C125.777 47.3164 125.388 46.8689 124.624 46.8689C123.86 46.8689 123.251 47.3291 123.07 48.1985L122.396 51.3052H121.645L123.212 44.0179H123.963L123.355 46.8178C123.821 46.3959 124.352 46.2041 124.922 46.2041C126.074 46.2041 126.592 46.9328 126.346 48.0707L125.647 51.3052H124.896H124.909Z" fill="#231F20"/>
<path d="M130.542 50.7938C130.115 51.139 129.584 51.3691 128.962 51.3691C128.341 51.3691 127.9 51.139 127.628 50.7938C127.227 50.2696 127.266 49.5665 127.434 48.7866C127.603 48.0067 127.862 47.3036 128.483 46.7794C128.911 46.4342 129.442 46.2041 130.063 46.2041C130.685 46.2041 131.125 46.4342 131.397 46.7794C131.799 47.3036 131.76 48.0067 131.591 48.7866C131.423 49.5665 131.164 50.2696 130.542 50.7938ZM130.788 47.2269C130.594 46.9967 130.296 46.8561 129.934 46.8561C129.571 46.8561 129.221 46.984 128.936 47.2269C128.483 47.5976 128.315 48.2241 128.185 48.7866C128.069 49.3491 127.965 49.9756 128.263 50.3464C128.444 50.5765 128.742 50.7171 129.105 50.7171C129.467 50.7171 129.83 50.5893 130.115 50.3464C130.568 49.9756 130.737 49.3491 130.853 48.7866C130.97 48.2241 131.073 47.5976 130.788 47.2269Z" fill="#231F20"/>
<path d="M135.567 51.3052L135.684 50.7427C135.23 51.1518 134.674 51.3691 134.117 51.3691C133.56 51.3691 133.145 51.2029 132.899 50.8961C132.614 50.5509 132.563 50.0651 132.679 49.4898L133.366 46.2808H134.117L133.443 49.3747C133.249 50.2696 133.638 50.7171 134.402 50.7171C135.166 50.7171 135.774 50.2569 135.969 49.3747L136.642 46.2808H137.393L136.305 51.318H135.567V51.3052Z" fill="#231F20"/>
<path d="M139.465 51.3691C138.611 51.3691 137.976 51.1774 137.523 50.6404L138.131 50.1546C138.442 50.5765 138.96 50.7427 139.595 50.7427C140.437 50.7427 141.019 50.4486 141.136 49.8477C141.227 49.4131 141.032 49.1574 140.45 49.1062L139.621 49.0295C138.649 48.9528 138.209 48.5053 138.39 47.6743C138.585 46.7538 139.491 46.2041 140.579 46.2041C141.304 46.2041 141.913 46.3831 142.289 46.7411L141.693 47.2269C141.395 46.9456 140.955 46.8305 140.424 46.8305C139.673 46.8305 139.219 47.1502 139.103 47.6616C139.012 48.0962 139.206 48.3519 139.828 48.4031L140.631 48.4798C141.499 48.5565 142.042 48.9017 141.835 49.835C141.628 50.8066 140.67 51.3691 139.439 51.3691H139.465Z" fill="#231F20"/>
<path d="M142.716 51.3052L143.804 46.268H144.555L143.467 51.3052H142.716ZM144.063 44.8361L144.244 44.0051H145.086L144.905 44.8361H144.063Z" fill="#231F20"/>
<path d="M148.298 51.3052L148.971 48.2113C149.165 47.3164 148.777 46.8689 148 46.8689C147.223 46.8689 146.64 47.3291 146.446 48.2113L145.772 51.3052H145.021L146.109 46.268H146.86L146.744 46.8178C147.197 46.4086 147.741 46.2041 148.311 46.2041C148.88 46.2041 149.269 46.3703 149.515 46.6771C149.8 47.0223 149.865 47.4954 149.735 48.0835L149.036 51.3052H148.285H148.298Z" fill="#231F20"/>
<path d="M151.691 53.6065C150.927 53.6065 150.538 53.4147 150.111 52.9289L150.694 52.4558C150.991 52.7882 151.212 52.9544 151.807 52.9544C152.792 52.9544 153.348 52.2641 153.543 51.4075L153.711 50.6148C153.18 51.139 152.688 51.2668 152.144 51.2668C151.626 51.2668 151.224 51.0879 151.004 50.8194C150.603 50.3208 150.655 49.5409 150.836 48.7227C151.017 47.9045 151.289 47.1246 151.911 46.626C152.235 46.3575 152.727 46.1913 153.245 46.1913C153.802 46.1913 154.229 46.3192 154.527 46.8433L154.656 46.2552H155.395L154.281 51.4458C154.009 52.6987 153.025 53.6065 151.691 53.6065ZM153.258 46.8561C152.144 46.8561 151.781 47.8022 151.574 48.7355C151.367 49.6815 151.341 50.6148 152.442 50.6148C153.543 50.6148 153.905 49.6688 154.112 48.7355C154.32 47.7894 154.359 46.8561 153.258 46.8561Z" fill="#231F20"/>
<path d="M160.018 46.8561L159.06 51.2924H158.308L159.267 46.8561H158.619L158.736 46.2936H159.383L159.591 45.3475C159.746 44.606 160.303 43.9923 161.171 43.9923H161.714L161.572 44.6316H161.171C160.691 44.6316 160.432 44.9128 160.329 45.3731L160.135 46.3064H161.222L161.106 46.8689H160.018V46.8561ZM161.365 51.3052L162.44 46.3064H163.191L162.116 51.3052H161.365ZM162.712 44.7594L162.88 44.0051H163.735L163.566 44.7594H162.712Z" fill="#231F20"/>
<path d="M166.947 51.3052L167.62 48.2113C167.814 47.3164 167.426 46.8689 166.649 46.8689C165.872 46.8689 165.289 47.3291 165.095 48.2113L164.421 51.3052H163.67L164.758 46.268H165.509L165.392 46.8178C165.846 46.4086 166.39 46.2041 166.96 46.2041C167.529 46.2041 167.918 46.3703 168.164 46.6771C168.449 47.0223 168.514 47.4954 168.384 48.0835L167.685 51.3052H166.934H166.947Z" fill="#231F20"/>
<path d="M172.088 51.3052L172.192 50.8194C171.686 51.2285 171.285 51.3563 170.612 51.3563C169.938 51.3563 169.524 51.2285 169.265 50.8961C169.07 50.6532 169.019 50.2696 169.109 49.8733C169.304 48.9912 170.042 48.4159 171.181 48.4159H172.71L172.813 47.93C172.969 47.1885 172.684 46.8305 171.751 46.8305C171.104 46.8305 170.728 46.984 170.34 47.4059L169.925 46.9456C170.508 46.3575 171.065 46.2041 171.894 46.2041C173.254 46.2041 173.81 46.7922 173.577 47.8789L172.839 51.2924H172.088V51.3052ZM172.58 48.9784H171.156C170.391 48.9784 169.951 49.2852 169.822 49.8733C169.692 50.4614 170.003 50.7299 170.806 50.7299C171.246 50.7299 171.635 50.7043 172.023 50.3975C172.23 50.2313 172.386 49.95 172.464 49.5281L172.58 48.9912V48.9784Z" fill="#231F20"/>
<path d="M177.605 51.3052L178.278 48.2113C178.473 47.3164 178.084 46.8689 177.307 46.8689C176.53 46.8689 175.947 47.3291 175.753 48.2113L175.08 51.3052H174.328L175.416 46.268H176.167L176.051 46.8178C176.504 46.4086 177.048 46.2041 177.618 46.2041C178.188 46.2041 178.576 46.3703 178.822 46.6771C179.107 47.0223 179.172 47.4954 179.042 48.0835L178.343 51.3052H177.592H177.605Z" fill="#231F20"/>
<path d="M181.827 51.3691C180.545 51.3691 179.755 50.5126 180.13 48.7866C180.506 47.0607 181.658 46.2041 182.941 46.2041C183.64 46.2041 184.054 46.3831 184.456 46.9456L183.847 47.4186C183.549 46.9967 183.29 46.8561 182.798 46.8561C182.306 46.8561 181.84 47.0479 181.49 47.4314C181.179 47.7638 180.998 48.1474 180.868 48.7866C180.726 49.4258 180.739 49.8094 180.907 50.1418C181.089 50.5253 181.464 50.7171 181.969 50.7171C182.474 50.7171 182.785 50.5637 183.264 50.1418L183.666 50.6276C183.018 51.1901 182.526 51.3691 181.827 51.3691Z" fill="#231F20"/>
<path d="M185.44 48.9784C185.207 50.0779 185.595 50.7171 186.567 50.7171C187.162 50.7171 187.538 50.5381 188.03 50.1418L188.445 50.5765C187.823 51.0879 187.279 51.3563 186.411 51.3563C185.064 51.3563 184.352 50.5637 184.741 48.7738C185.09 47.1502 186.088 46.1913 187.383 46.1913C188.678 46.1913 189.273 47.1374 188.95 48.6204L188.872 48.9528H185.427L185.44 48.9784ZM188.276 47.5848C188.186 47.1246 187.784 46.8305 187.253 46.8305C186.722 46.8305 186.191 47.1246 185.893 47.5848C185.725 47.8661 185.673 48.0195 185.557 48.4286H188.25C188.315 48.0195 188.328 47.8661 188.276 47.5848Z" fill="#231F20"/>
<path d="M193.897 51.3691C192.615 51.3691 191.825 50.5126 192.2 48.7866C192.576 47.0607 193.728 46.2041 195.011 46.2041C195.71 46.2041 196.124 46.3831 196.526 46.9456L195.917 47.4186C195.619 46.9967 195.36 46.8561 194.868 46.8561C194.376 46.8561 193.91 47.0479 193.56 47.4314C193.249 47.7638 193.068 48.1474 192.938 48.7866C192.796 49.4258 192.809 49.8094 192.977 50.1418C193.159 50.5253 193.534 50.7171 194.039 50.7171C194.544 50.7171 194.855 50.5637 195.334 50.1418L195.736 50.6276C195.088 51.1901 194.596 51.3691 193.897 51.3691Z" fill="#231F20"/>
<path d="M199.932 50.7938C199.504 51.139 198.974 51.3691 198.352 51.3691C197.73 51.3691 197.29 51.139 197.018 50.7938C196.616 50.2696 196.655 49.5665 196.824 48.7866C196.992 48.0067 197.251 47.3036 197.873 46.7794C198.3 46.4342 198.831 46.2041 199.453 46.2041C200.074 46.2041 200.515 46.4342 200.787 46.7794C201.188 47.3036 201.149 48.0067 200.981 48.7866C200.812 49.5665 200.553 50.2696 199.932 50.7938ZM200.165 47.2269C199.971 46.9967 199.673 46.8561 199.31 46.8561C198.948 46.8561 198.598 46.984 198.313 47.2269C197.86 47.5976 197.678 48.2241 197.562 48.7866C197.445 49.3491 197.342 49.9756 197.64 50.3464C197.821 50.5765 198.119 50.7171 198.481 50.7171C198.844 50.7171 199.207 50.5893 199.492 50.3464C199.945 49.9756 200.113 49.3491 200.23 48.7866C200.346 48.2241 200.45 47.5976 200.165 47.2269Z" fill="#231F20"/>
<path d="M208.272 51.3052L208.945 48.2113C209.14 47.3164 208.751 46.8689 207.987 46.8689C207.223 46.8689 206.614 47.3291 206.446 48.1218L205.76 51.3052H205.008L205.682 48.2113C205.876 47.3164 205.488 46.8689 204.711 46.8689C203.934 46.8689 203.338 47.3291 203.144 48.2113L202.47 51.3052H201.719L202.807 46.268H203.558L203.441 46.8178C203.895 46.4086 204.439 46.2041 205.008 46.2041C205.708 46.2041 206.2 46.4854 206.394 47.0479C206.912 46.4981 207.534 46.2041 208.246 46.2041C208.79 46.2041 209.217 46.3831 209.463 46.6771C209.748 47.0223 209.839 47.4954 209.71 48.0835L209.01 51.3052H208.259H208.272Z" fill="#231F20"/>
<path d="M214.035 50.9217C213.711 51.1901 213.219 51.3563 212.701 51.3563C212.144 51.3563 211.704 51.2285 211.406 50.7043L210.797 53.5425H210.046L211.613 46.2552H212.364L212.235 46.8433C212.766 46.3064 213.258 46.1913 213.815 46.1913C214.333 46.1913 214.747 46.3703 214.968 46.626C215.369 47.1374 215.291 47.9812 215.123 48.761C214.955 49.5409 214.67 50.3847 214.048 50.8961L214.035 50.9217ZM213.504 46.8561C212.39 46.8561 212.015 47.8022 211.808 48.7738C211.6 49.7583 211.574 50.6915 212.675 50.6915C213.776 50.6915 214.152 49.7455 214.359 48.7738C214.566 47.7894 214.605 46.8561 213.504 46.8561Z" fill="#231F20"/>
<path d="M218.749 51.3052L218.853 50.8194C218.348 51.2285 217.946 51.3563 217.273 51.3563C216.599 51.3563 216.185 51.2285 215.926 50.8961C215.732 50.6532 215.68 50.2696 215.757 49.8733C215.952 48.9912 216.69 48.4159 217.83 48.4159H219.358L219.461 47.93C219.617 47.1885 219.332 46.8305 218.399 46.8305C217.752 46.8305 217.376 46.984 216.988 47.4059L216.573 46.9456C217.156 46.3575 217.713 46.2041 218.542 46.2041C219.915 46.2041 220.459 46.7922 220.225 47.8789L219.487 51.2924H218.736L218.749 51.3052ZM219.241 48.9784H217.817C217.053 48.9784 216.612 49.2852 216.483 49.8733C216.353 50.4614 216.664 50.7299 217.467 50.7299C217.907 50.7299 218.296 50.7043 218.684 50.3975C218.892 50.2313 219.034 49.95 219.125 49.5281L219.241 48.9912V48.9784Z" fill="#231F20"/>
<path d="M224.266 51.3052L224.94 48.2113C225.134 47.3164 224.745 46.8689 223.968 46.8689C223.191 46.8689 222.608 47.3291 222.414 48.2113L221.741 51.3052H220.99L222.077 46.268H222.829L222.712 46.8178C223.165 46.4086 223.709 46.2041 224.279 46.2041C224.849 46.2041 225.237 46.3703 225.483 46.6771C225.768 47.0223 225.833 47.4954 225.704 48.0835L225.004 51.3052H224.253H224.266Z" fill="#231F20"/>
<path d="M227.517 52.5198C227.348 52.801 227.206 52.98 227.025 53.1079C226.701 53.3636 226.325 53.453 225.95 53.453H225.626L225.768 52.801H226.001C226.519 52.801 226.714 52.6348 226.973 52.1746L227.543 51.1901L226.766 46.2552H227.568L228.099 50.2952L230.353 46.2552H231.156L227.491 52.507L227.517 52.5198Z" fill="#231F20"/>
</g>
<defs>
<clipPath id="clip0_2_17">
<rect width="245" height="55" fill="white"/>
</clipPath>
</defs>
</svg>
