<?xml version="1.0" encoding="UTF-8"?>
<svg id="Layer_1" data-name="Layer 1" xmlns="http://www.w3.org/2000/svg" viewBox="0 0 3731.1 56.3">
  <defs>
    <style>
      .cls-1 {
        fill: #dda291;
        stroke-width: 0px;
      }
    </style>
  </defs>
  <g>
    <path class="cls-1" d="M2313.15,18.95c-1.73,2.37-5.12,2.93-7.51.55-2.19-2.38-2.37-6.04-.86-8.82,1.64-2.81,4.54-3.88,7.13-3.53,2.71.37,4.87,2.27,6.2,4.49,1.5,2.48,1.98,5.42,1.9,8.1-.08,2.71-.69,5.31-1.66,7.7-1.94,4.8-5.35,8.66-9.37,11.05-6.85,3.98-14.69,3.31-21.12.31-6.52-3.08-11.82-8.5-16.19-14.96-.5-.74-.04-1.35.47-.88,4.5,4.23,9.14,9.26,14.99,12.54,5.73,3.3,12.93,4.34,18.43,1.93,3.78-1.63,7.13-4.7,9.29-8.62,2.13-3.85,3.19-8.77,2.05-13.05-.58-2.09-1.86-3.96-3.56-4.92-1.66-.97-3.84-.83-5.34.41-1.52,1.17-2.03,3.72-1.16,5.6.78,1.95,3.35,2.47,4.96,1.15.56-.44,1.02-.79,1.41-.77.34-.02.66.59-.05,1.69"/>
    <path class="cls-1" d="M2345.47,41.06c1.92.06,3.8-.03,5.05-.75,1.26-.71,1.82-1.87,1.94-3.47.04-1.62-.41-3.09-1.54-4.17-1.09-1.1-2.7-1.77-4.35-1.84-3.66-.19-7.36,2.46-10.46,5.7-3.12,3.3-6.48,7.09-10.41,9.73-6.46,4.54-13.9,6.9-21.21,6.41-7.25-.57-14.39-3.63-19.82-9.66-.62-.69-.24-1.36.34-.95,5.05,3.69,10.99,6.77,17.76,7.76,6.67,1.01,13.96-.71,19.36-4.14,3.81-2.35,7.15-5.48,10.25-9.04,3.12-3.47,6.63-7.26,11.34-8.52,2.32-.63,4.86-.43,7.06.74,2.2,1.1,4.04,3.49,4.35,6.26.4,2.66-.53,5.75-2.74,7.13-2.18,1.38-4.63,1.06-6.77.59-1.54-.37-1.8-1.84-.14-1.76"/>
    <path class="cls-1" d="M2368.56,29.55c-.28.45-.38,1.2-.24,1.75.12.48.47.98.98,1.37,1.04.81,2.58,1.03,4.01.64,1.45-.37,2.85-1.37,3.85-2.69.98-1.28,1.57-3.07,1.69-4.91.32-4.13-1.66-8.27-4.76-11.1-3.09-2.88-7.07-4.64-11.16-5.34-6.88-1.17-14.04.5-20.14,4.36-6.15,3.83-11.27,9.64-15.2,16.44-.44.77-1.13.54-.9-.18,2.01-6.38,6.77-12.94,13.15-17.4,6.34-4.58,14.14-6.41,20.56-6.03,4.51.18,9.04,1.49,12.96,4.13,3.86,2.59,7.27,6.81,8.05,12.08.4,2.57.17,5.32-.84,7.73-1.02,2.43-2.88,4.34-5.06,5.34-2.17.99-4.79,1.04-6.86-.35-1.01-.68-1.9-1.74-2.22-3.07-.31-1.34.01-2.77.82-3.74.6-.71,1.32-.51,1.46-.17.17.36.05.77-.16,1.14"/>
    <path class="cls-1" d="M2447.03,18.95c-1.73,2.37-5.12,2.93-7.51.55-2.19-2.38-2.37-6.04-.86-8.82,1.64-2.81,4.54-3.88,7.13-3.53,2.71.37,4.87,2.27,6.2,4.49,1.5,2.48,1.98,5.42,1.89,8.1-.08,2.71-.69,5.31-1.66,7.7-1.94,4.8-5.35,8.66-9.37,11.05-6.85,3.98-14.69,3.31-21.12.31-6.52-3.08-11.82-8.5-16.19-14.96-.5-.74-.05-1.35.47-.88,4.5,4.23,9.14,9.26,15,12.54,5.73,3.3,12.93,4.34,18.43,1.93,3.78-1.63,7.13-4.7,9.29-8.62,2.13-3.85,3.19-8.77,2.05-13.05-.58-2.09-1.86-3.96-3.56-4.92-1.66-.97-3.84-.83-5.34.41-1.52,1.17-2.03,3.72-1.16,5.6.78,1.95,3.35,2.47,4.96,1.15.56-.44,1.02-.79,1.41-.77.34-.02.66.59-.05,1.69"/>
    <path class="cls-1" d="M2479.35,41.06c1.92.06,3.8-.03,5.05-.75,1.26-.71,1.82-1.87,1.94-3.47.04-1.62-.41-3.09-1.54-4.17-1.09-1.1-2.71-1.77-4.36-1.84-3.66-.19-7.36,2.46-10.46,5.7-3.12,3.3-6.48,7.09-10.41,9.73-6.46,4.54-13.9,6.9-21.21,6.41-7.25-.57-14.39-3.63-19.82-9.66-.62-.69-.24-1.36.34-.95,5.05,3.69,10.99,6.77,17.76,7.76,6.67,1.01,13.96-.71,19.36-4.14,3.81-2.35,7.15-5.48,10.25-9.04,3.12-3.47,6.63-7.26,11.34-8.52,2.32-.63,4.86-.43,7.06.74,2.19,1.1,4.04,3.49,4.35,6.26.4,2.66-.53,5.75-2.74,7.13-2.18,1.38-4.63,1.06-6.77.59-1.54-.37-1.8-1.84-.14-1.76"/>
    <path class="cls-1" d="M2502.44,29.55c-.28.45-.38,1.2-.24,1.75.12.48.47.98.98,1.37,1.04.81,2.58,1.03,4.01.64,1.45-.37,2.85-1.37,3.85-2.69.98-1.28,1.57-3.07,1.69-4.91.32-4.13-1.66-8.27-4.76-11.1-3.09-2.88-7.07-4.64-11.16-5.34-6.88-1.17-14.04.5-20.14,4.36-6.15,3.83-11.27,9.64-15.19,16.44-.44.77-1.13.54-.9-.18,2.01-6.38,6.77-12.94,13.15-17.4,6.34-4.58,14.14-6.41,20.56-6.03,4.51.18,9.04,1.49,12.96,4.13,3.86,2.59,7.27,6.81,8.05,12.08.4,2.57.17,5.32-.84,7.73-1.02,2.43-2.88,4.34-5.06,5.34-2.17.99-4.79,1.04-6.86-.35-1.01-.68-1.9-1.74-2.22-3.07-.31-1.34.01-2.77.82-3.74.6-.71,1.32-.51,1.46-.17.17.36.05.77-.16,1.14"/>
    <path class="cls-1" d="M2380.5,5.26c6.96,2.33,13.46,7.26,18.43,13.71,2.7,3.53,4.92,7.57,6.32,12.02,1.37,4.42,1.83,9.53.18,14.13-1.36,3.73-4.04,6.89-7.46,8.02-3.44,1.14-7.17-.16-9.41-2.98-2.25-2.76-2.47-7.66.35-10.08,1.35-1.11,3.31-1.47,4.89-.45,1.55,1.07,2.35,3.37,1.6,5.5-.46.97-1.11.52-.91-.09.31-1.4-.3-2.71-1.06-3.36-.72-.59-1.63-.56-2.48-.15-.86.45-1.35,1.15-1.63,2.23-.25,1.08-.18,2.37.32,3.45.91,2.26,3.64,3.95,6.2,3.8,2.58-.11,5.07-2.1,6.42-4.54,2-3.42,2.21-7.89,1.29-11.99-.92-4.13-2.83-8-5.17-11.42-4.77-6.87-11.4-11.87-18.23-16.07-1.2-.73-1.14-2.22.34-1.72"/>
    <path class="cls-1" d="M2580.91,18.95c-1.73,2.37-5.12,2.93-7.51.55-2.19-2.38-2.37-6.04-.86-8.82,1.64-2.81,4.54-3.88,7.13-3.53,2.72.37,4.87,2.27,6.2,4.49,1.5,2.48,1.98,5.42,1.9,8.1-.08,2.71-.69,5.31-1.66,7.7-1.94,4.8-5.35,8.66-9.37,11.05-6.85,3.98-14.69,3.31-21.12.31-6.52-3.08-11.82-8.5-16.19-14.96-.5-.74-.05-1.35.47-.88,4.5,4.23,9.14,9.26,14.99,12.54,5.73,3.3,12.93,4.34,18.43,1.93,3.78-1.63,7.13-4.7,9.29-8.62,2.13-3.85,3.19-8.77,2.05-13.05-.58-2.09-1.86-3.96-3.56-4.92-1.66-.97-3.84-.83-5.34.41-1.52,1.17-2.03,3.72-1.16,5.6.78,1.95,3.35,2.47,4.96,1.15.56-.44,1.02-.79,1.41-.77.34-.02.66.59-.05,1.69"/>
    <path class="cls-1" d="M2613.23,41.06c1.92.06,3.8-.03,5.05-.75,1.26-.71,1.82-1.87,1.94-3.47.04-1.62-.41-3.09-1.54-4.17-1.09-1.1-2.71-1.77-4.35-1.84-3.66-.19-7.36,2.46-10.46,5.7-3.12,3.3-6.48,7.09-10.41,9.73-6.46,4.54-13.9,6.9-21.21,6.41-7.25-.57-14.39-3.63-19.82-9.66-.62-.69-.24-1.36.34-.95,5.05,3.69,10.99,6.77,17.76,7.76,6.67,1.01,13.96-.71,19.36-4.14,3.81-2.35,7.15-5.48,10.25-9.04,3.12-3.47,6.63-7.26,11.34-8.52,2.32-.63,4.86-.43,7.06.74,2.2,1.1,4.04,3.49,4.35,6.26.4,2.66-.53,5.75-2.74,7.13-2.17,1.38-4.63,1.06-6.77.59-1.54-.37-1.8-1.84-.14-1.76"/>
    <path class="cls-1" d="M2636.32,29.55c-.28.45-.38,1.2-.24,1.75.12.48.47.98.98,1.37,1.04.81,2.58,1.03,4.01.64,1.45-.37,2.85-1.37,3.84-2.69.98-1.28,1.57-3.07,1.69-4.91.32-4.13-1.66-8.27-4.76-11.1-3.09-2.88-7.07-4.64-11.16-5.34-6.88-1.17-14.04.5-20.14,4.36-6.15,3.83-11.27,9.64-15.19,16.44-.44.77-1.13.54-.9-.18,2.01-6.38,6.77-12.94,13.15-17.4,6.34-4.58,14.14-6.41,20.56-6.03,4.51.18,9.04,1.49,12.96,4.13,3.86,2.59,7.27,6.81,8.05,12.08.4,2.57.17,5.32-.84,7.73-1.02,2.43-2.88,4.34-5.06,5.34-2.17.99-4.79,1.04-6.86-.35-1.01-.68-1.9-1.74-2.22-3.07-.31-1.34.01-2.77.82-3.74.6-.71,1.32-.51,1.46-.17.17.36.05.77-.16,1.14"/>
    <path class="cls-1" d="M2514.38,5.26c6.96,2.33,13.46,7.26,18.43,13.71,2.7,3.53,4.92,7.57,6.32,12.02,1.36,4.42,1.83,9.53.18,14.13-1.36,3.73-4.04,6.89-7.46,8.02-3.44,1.14-7.17-.16-9.41-2.98-2.25-2.76-2.47-7.66.35-10.08,1.35-1.11,3.31-1.47,4.89-.45,1.55,1.07,2.35,3.37,1.6,5.5-.46.97-1.11.52-.91-.09.31-1.4-.3-2.71-1.06-3.36-.72-.59-1.63-.56-2.47-.15-.86.45-1.35,1.15-1.63,2.23-.25,1.08-.18,2.37.32,3.45.91,2.26,3.64,3.95,6.2,3.8,2.58-.11,5.07-2.1,6.42-4.54,2-3.42,2.21-7.89,1.29-11.99-.92-4.13-2.83-8-5.17-11.42-4.77-6.87-11.4-11.87-18.23-16.07-1.2-.73-1.14-2.22.34-1.72"/>
    <path class="cls-1" d="M2648.14,5.26c7.7,2.33,14.9,7.26,20.39,13.71,2.99,3.53,5.45,7.57,7,12.02,1.51,4.42,2.02,9.53.2,14.13-1.5,3.73-4.47,6.89-8.26,8.02-3.81,1.14-7.94-.16-10.41-2.98-2.49-2.76-2.74-7.66.38-10.08,1.49-1.11,3.66-1.47,5.41-.45,1.71,1.07,2.61,3.37,1.77,5.5-.51.97-1.23.52-1-.09.34-1.4-.34-2.71-1.17-3.36-.8-.59-1.8-.56-2.74-.15-.95.45-1.5,1.15-1.81,2.23-.27,1.08-.2,2.37.36,3.45,1.01,2.26,4.03,3.95,6.86,3.8,2.85-.11,5.61-2.1,7.1-4.54,2.21-3.42,2.45-7.89,1.43-11.99-1.02-4.13-3.13-8-5.72-11.42-5.28-6.87-12.61-11.87-20.18-16.07-1.33-.73-1.26-2.22.38-1.72"/>
    <path class="cls-1" d="M2096.25,18.95c1.77,2.37,5.26,2.93,7.71.55,2.25-2.38,2.43-6.04.88-8.82-1.68-2.81-4.66-3.88-7.32-3.53-2.79.37-5,2.27-6.36,4.49-1.54,2.48-2.03,5.42-1.95,8.1.08,2.71.71,5.31,1.7,7.7,1.99,4.8,5.49,8.66,9.62,11.05,7.03,3.98,15.08,3.31,21.68.31,6.69-3.08,12.14-8.5,16.62-14.96.51-.74.05-1.35-.48-.88-4.62,4.23-9.38,9.26-15.39,12.54-5.88,3.3-13.27,4.34-18.92,1.93-3.88-1.63-7.32-4.7-9.53-8.62-2.18-3.85-3.27-8.77-2.11-13.05.59-2.09,1.91-3.96,3.66-4.92,1.7-.97,3.94-.83,5.48.41,1.56,1.17,2.08,3.72,1.19,5.6-.8,1.95-3.43,2.47-5.1,1.15-.57-.44-1.05-.79-1.45-.77-.35-.02-.68.59.05,1.69"/>
    <path class="cls-1" d="M2063.08,41.06c-1.97.06-3.91-.03-5.18-.75-1.29-.71-1.86-1.87-1.99-3.47-.04-1.62.42-3.09,1.58-4.17,1.12-1.1,2.78-1.77,4.47-1.84,3.76-.19,7.55,2.46,10.74,5.7,3.21,3.3,6.65,7.09,10.68,9.73,6.63,4.54,14.27,6.9,21.77,6.41,7.44-.57,14.78-3.63,20.35-9.66.63-.69.25-1.36-.35-.95-5.18,3.69-11.28,6.77-18.23,7.76-6.85,1.01-14.33-.71-19.87-4.14-3.91-2.35-7.34-5.48-10.52-9.04-3.2-3.47-6.8-7.26-11.64-8.52-2.38-.63-4.99-.43-7.24.74-2.25,1.1-4.15,3.49-4.47,6.26-.41,2.66.55,5.75,2.82,7.13,2.23,1.38,4.75,1.06,6.95.59,1.58-.37,1.85-1.84.14-1.76"/>
    <path class="cls-1" d="M2039.38,29.55c.29.45.39,1.2.25,1.75-.12.48-.48.98-1,1.37-1.07.81-2.65,1.03-4.12.64-1.49-.37-2.93-1.37-3.95-2.69-1.01-1.28-1.61-3.07-1.74-4.91-.33-4.13,1.7-8.27,4.88-11.1,3.17-2.88,7.26-4.64,11.46-5.34,7.06-1.17,14.41.5,20.67,4.36,6.31,3.83,11.57,9.64,15.6,16.44.46.77,1.16.54.92-.18-2.06-6.38-6.95-12.94-13.5-17.4-6.51-4.58-14.52-6.41-21.11-6.03-4.63.18-9.28,1.49-13.3,4.13-3.97,2.59-7.46,6.81-8.27,12.08-.41,2.57-.18,5.32.87,7.73,1.04,2.43,2.95,4.34,5.19,5.34,2.23.99,4.92,1.04,7.04-.35,1.04-.68,1.95-1.74,2.28-3.07.32-1.34-.01-2.77-.84-3.74-.62-.71-1.36-.51-1.5-.17-.18.36-.05.77.16,1.14"/>
    <path class="cls-1" d="M2212.74,18.95c1.73,2.37,5.12,2.93,7.51.55,2.19-2.38,2.37-6.04.86-8.82-1.64-2.81-4.54-3.88-7.13-3.53-2.71.37-4.87,2.27-6.2,4.49-1.5,2.48-1.98,5.42-1.9,8.1.08,2.71.69,5.31,1.66,7.7,1.94,4.8,5.35,8.66,9.37,11.05,6.85,3.98,14.69,3.31,21.12.31,6.52-3.08,11.82-8.5,16.19-14.96.5-.74.04-1.35-.47-.88-4.5,4.23-9.14,9.26-14.99,12.54-5.73,3.3-12.93,4.34-18.43,1.93-3.78-1.63-7.13-4.7-9.29-8.62-2.13-3.85-3.19-8.77-2.05-13.05.58-2.09,1.86-3.96,3.56-4.92,1.66-.97,3.84-.83,5.34.41,1.52,1.17,2.03,3.72,1.16,5.6-.78,1.95-3.35,2.47-4.96,1.15-.56-.44-1.02-.79-1.41-.77-.34-.02-.66.59.05,1.69"/>
    <path class="cls-1" d="M2180.43,41.06c-1.92.06-3.8-.03-5.05-.75-1.26-.71-1.82-1.87-1.94-3.47-.04-1.62.41-3.09,1.54-4.17,1.09-1.1,2.7-1.77,4.35-1.84,3.66-.19,7.36,2.46,10.46,5.7,3.12,3.3,6.48,7.09,10.41,9.73,6.46,4.54,13.9,6.9,21.21,6.41,7.25-.57,14.39-3.63,19.82-9.66.62-.69.24-1.36-.34-.95-5.05,3.69-10.99,6.77-17.76,7.76-6.67,1.01-13.96-.71-19.36-4.14-3.81-2.35-7.15-5.48-10.25-9.04-3.12-3.47-6.63-7.26-11.34-8.52-2.32-.63-4.86-.43-7.06.74-2.19,1.1-4.04,3.49-4.35,6.26-.4,2.66.53,5.75,2.74,7.13,2.18,1.38,4.63,1.06,6.77.59,1.54-.37,1.8-1.84.14-1.76"/>
    <path class="cls-1" d="M2157.34,29.55c.28.45.38,1.2.24,1.75-.12.48-.47.98-.98,1.37-1.04.81-2.58,1.03-4.02.64-1.45-.37-2.85-1.37-3.84-2.69-.98-1.28-1.57-3.07-1.69-4.91-.32-4.13,1.66-8.27,4.76-11.1,3.09-2.88,7.07-4.64,11.16-5.34,6.88-1.17,14.04.5,20.14,4.36,6.15,3.83,11.27,9.64,15.2,16.44.44.77,1.13.54.9-.18-2.01-6.38-6.77-12.94-13.15-17.4-6.34-4.58-14.14-6.41-20.56-6.03-4.51.18-9.04,1.49-12.96,4.13-3.86,2.59-7.27,6.81-8.05,12.08-.4,2.57-.17,5.32.84,7.73,1.02,2.43,2.88,4.34,5.06,5.34,2.17.99,4.79,1.04,6.86-.35,1.01-.68,1.9-1.74,2.22-3.07.31-1.34-.01-2.77-.82-3.74-.6-.71-1.32-.51-1.46-.17-.17.36-.05.77.16,1.14"/>
    <path class="cls-1" d="M2279.27,5.26c-6.96,2.33-13.46,7.26-18.43,13.71-2.7,3.53-4.92,7.57-6.32,12.02-1.37,4.42-1.83,9.53-.18,14.13,1.36,3.73,4.04,6.89,7.46,8.02,3.44,1.14,7.17-.16,9.41-2.98,2.25-2.76,2.47-7.66-.35-10.08-1.35-1.11-3.31-1.47-4.89-.45-1.55,1.07-2.35,3.37-1.6,5.5.46.97,1.11.52.91-.09-.31-1.4.3-2.71,1.06-3.36.72-.59,1.63-.56,2.48-.15.86.45,1.35,1.15,1.63,2.23.25,1.08.18,2.37-.32,3.45-.91,2.26-3.64,3.95-6.2,3.8-2.58-.11-5.07-2.1-6.42-4.54-2-3.42-2.21-7.89-1.29-11.99.92-4.13,2.83-8,5.17-11.42,4.77-6.87,11.4-11.87,18.23-16.07,1.2-.73,1.14-2.22-.34-1.72"/>
    <path class="cls-1" d="M1958.83,18.95c1.77,2.37,5.26,2.93,7.71.55,2.25-2.38,2.43-6.04.88-8.82-1.68-2.81-4.66-3.88-7.32-3.53-2.79.37-5,2.27-6.36,4.49-1.54,2.48-2.03,5.42-1.95,8.1.08,2.71.71,5.31,1.7,7.7,1.99,4.8,5.49,8.66,9.62,11.05,7.03,3.98,15.08,3.31,21.68.31,6.69-3.08,12.14-8.5,16.62-14.96.51-.74.05-1.35-.48-.88-4.62,4.23-9.38,9.26-15.39,12.54-5.88,3.3-13.27,4.34-18.92,1.93-3.88-1.63-7.32-4.7-9.53-8.62-2.18-3.85-3.27-8.77-2.11-13.05.59-2.09,1.91-3.96,3.66-4.92,1.7-.97,3.94-.83,5.48.41,1.56,1.17,2.08,3.72,1.19,5.6-.8,1.95-3.43,2.47-5.09,1.15-.57-.44-1.05-.79-1.45-.77-.35-.02-.68.59.05,1.69"/>
    <path class="cls-1" d="M1925.66,41.06c-1.97.06-3.9-.03-5.18-.75-1.29-.71-1.86-1.87-1.99-3.47-.04-1.62.42-3.09,1.58-4.17,1.12-1.1,2.78-1.77,4.47-1.84,3.76-.19,7.55,2.46,10.74,5.7,3.21,3.3,6.65,7.09,10.68,9.73,6.63,4.54,14.27,6.9,21.77,6.41,7.44-.57,14.78-3.63,20.35-9.66.63-.69.25-1.36-.35-.95-5.18,3.69-11.28,6.77-18.23,7.76-6.85,1.01-14.33-.71-19.87-4.14-3.91-2.35-7.34-5.48-10.53-9.04-3.2-3.47-6.8-7.26-11.64-8.52-2.38-.63-4.99-.43-7.24.74-2.25,1.1-4.15,3.49-4.47,6.26-.41,2.66.55,5.75,2.82,7.13,2.23,1.38,4.75,1.06,6.95.59,1.58-.37,1.85-1.84.14-1.76"/>
    <path class="cls-1" d="M1901.96,29.55c.29.45.39,1.2.25,1.75-.12.48-.48.98-1,1.37-1.07.81-2.65,1.03-4.12.64-1.49-.37-2.93-1.37-3.95-2.69-1.01-1.28-1.61-3.07-1.74-4.91-.33-4.13,1.7-8.27,4.88-11.1,3.17-2.88,7.26-4.64,11.46-5.34,7.06-1.17,14.41.5,20.67,4.36,6.31,3.83,11.57,9.64,15.6,16.44.46.77,1.16.54.92-.18-2.06-6.38-6.95-12.94-13.5-17.4-6.51-4.58-14.52-6.41-21.11-6.03-4.63.18-9.28,1.49-13.3,4.13-3.97,2.59-7.46,6.81-8.27,12.08-.41,2.57-.18,5.32.87,7.73,1.04,2.43,2.95,4.34,5.19,5.34,2.23.99,4.92,1.04,7.04-.35,1.04-.68,1.95-1.74,2.28-3.07.32-1.34-.01-2.77-.84-3.74-.62-.71-1.36-.51-1.5-.17-.18.36-.05.77.16,1.14"/>
    <path class="cls-1" d="M2027.12,5.26c-7.14,2.33-13.82,7.26-18.92,13.71-2.77,3.53-5.05,7.57-6.49,12.02-1.4,4.42-1.88,9.53-.18,14.13,1.39,3.73,4.15,6.89,7.66,8.02,3.53,1.14,7.36-.16,9.66-2.98,2.31-2.76,2.54-7.66-.35-10.08-1.39-1.11-3.39-1.47-5.02-.45-1.59,1.07-2.42,3.37-1.64,5.5.47.97,1.14.52.93-.09-.32-1.4.31-2.71,1.08-3.36.74-.59,1.67-.56,2.54-.15.88.45,1.39,1.15,1.68,2.23.25,1.08.18,2.37-.33,3.45-.94,2.26-3.74,3.95-6.36,3.8-2.65-.11-5.2-2.1-6.59-4.54-2.05-3.42-2.27-7.89-1.33-11.99.94-4.13,2.9-8,5.3-11.42,4.89-6.87,11.7-11.87,18.71-16.07,1.23-.73,1.17-2.22-.35-1.72"/>
    <path class="cls-1" d="M1889.82,5.26c-7.9,2.33-15.29,7.26-20.93,13.71-3.07,3.53-5.59,7.57-7.18,12.02-1.55,4.42-2.08,9.53-.2,14.13,1.54,3.73,4.59,6.89,8.48,8.02,3.91,1.14,8.15-.16,10.69-2.98,2.56-2.76,2.81-7.66-.39-10.08-1.53-1.11-3.75-1.47-5.56-.45-1.76,1.07-2.67,3.37-1.82,5.5.52.97,1.26.52,1.03-.09-.35-1.4.34-2.71,1.2-3.36.82-.59,1.85-.56,2.81-.15.98.45,1.54,1.15,1.85,2.23.28,1.08.2,2.37-.37,3.45-1.04,2.26-4.14,3.95-7.04,3.8-2.93-.11-5.76-2.1-7.29-4.54-2.27-3.42-2.51-7.89-1.47-11.99,1.04-4.13,3.21-8,5.87-11.42,5.41-6.87,12.95-11.87,20.71-16.07,1.37-.73,1.3-2.22-.39-1.72"/>
  </g>
  <g>
    <path class="cls-1" d="M363.74,21.7c1.73,2.37,5.12,2.93,7.51.55,2.19-2.38,2.37-6.04.86-8.82-1.64-2.81-4.54-3.88-7.13-3.53-2.71.37-4.87,2.27-6.2,4.49-1.5,2.48-1.98,5.42-1.9,8.11.08,2.71.69,5.31,1.66,7.7,1.94,4.8,5.35,8.66,9.37,11.05,6.85,3.99,14.69,3.31,21.12.31,6.52-3.08,11.82-8.5,16.19-14.96.5-.74.04-1.35-.47-.88-4.5,4.24-9.14,9.26-14.99,12.54-5.73,3.3-12.93,4.34-18.43,1.93-3.78-1.63-7.13-4.7-9.29-8.62-2.13-3.85-3.19-8.77-2.05-13.05.58-2.09,1.86-3.96,3.56-4.92,1.66-.97,3.84-.83,5.34.41,1.52,1.16,2.03,3.72,1.16,5.6-.78,1.95-3.35,2.47-4.96,1.14-.56-.43-1.02-.79-1.41-.77-.34-.02-.66.59.05,1.69"/>
    <path class="cls-1" d="M331.42,43.81c-1.92.06-3.8-.03-5.05-.75-1.26-.71-1.82-1.87-1.94-3.47-.04-1.62.41-3.09,1.54-4.17,1.09-1.1,2.7-1.77,4.35-1.84,3.66-.19,7.36,2.47,10.46,5.7,3.12,3.29,6.48,7.08,10.41,9.72,6.46,4.54,13.9,6.9,21.21,6.41,7.25-.57,14.39-3.63,19.82-9.66.62-.69.24-1.36-.34-.95-5.05,3.69-10.99,6.76-17.76,7.76-6.67,1.01-13.96-.71-19.36-4.14-3.81-2.35-7.15-5.48-10.25-9.04-3.12-3.47-6.63-7.26-11.34-8.52-2.32-.63-4.86-.43-7.06.74-2.2,1.1-4.04,3.49-4.35,6.26-.4,2.66.53,5.75,2.74,7.13,2.18,1.38,4.63,1.06,6.77.59,1.54-.37,1.8-1.84.14-1.76"/>
    <path class="cls-1" d="M308.34,32.3c.28.45.38,1.2.24,1.75-.12.48-.47.98-.98,1.37-1.04.81-2.58,1.03-4.01.64-1.45-.37-2.85-1.37-3.85-2.69-.98-1.28-1.57-3.07-1.69-4.91-.32-4.13,1.66-8.27,4.76-11.1,3.09-2.88,7.07-4.64,11.16-5.34,6.88-1.17,14.04.5,20.14,4.36,6.15,3.83,11.27,9.64,15.2,16.44.44.77,1.13.54.9-.18-2.01-6.38-6.77-12.94-13.15-17.4-6.34-4.58-14.14-6.4-20.56-6.03-4.51.18-9.04,1.49-12.96,4.13-3.86,2.59-7.27,6.81-8.05,12.08-.4,2.57-.17,5.32.84,7.73,1.02,2.43,2.88,4.34,5.06,5.34,2.17.99,4.79,1.04,6.86-.35,1.01-.68,1.9-1.74,2.22-3.07.31-1.34-.01-2.77-.82-3.74-.6-.71-1.32-.51-1.46-.17-.17.36-.05.77.16,1.14"/>
    <path class="cls-1" d="M229.86,21.7c1.73,2.37,5.12,2.93,7.51.55,2.19-2.38,2.37-6.04.86-8.82-1.64-2.81-4.54-3.88-7.13-3.53-2.71.37-4.87,2.27-6.2,4.49-1.5,2.48-1.98,5.42-1.89,8.11.08,2.71.69,5.31,1.66,7.7,1.94,4.8,5.35,8.66,9.37,11.05,6.85,3.99,14.69,3.31,21.12.31,6.52-3.08,11.82-8.5,16.19-14.96.5-.74.05-1.35-.47-.88-4.5,4.24-9.14,9.26-15,12.54-5.73,3.3-12.93,4.34-18.43,1.93-3.78-1.63-7.13-4.7-9.29-8.62-2.13-3.85-3.19-8.77-2.05-13.05.58-2.09,1.86-3.96,3.56-4.92,1.66-.97,3.84-.83,5.34.41,1.52,1.16,2.03,3.72,1.16,5.6-.78,1.95-3.35,2.47-4.96,1.14-.56-.43-1.02-.79-1.41-.77-.34-.02-.66.59.05,1.69"/>
    <path class="cls-1" d="M197.55,43.81c-1.92.06-3.8-.03-5.05-.75-1.26-.71-1.82-1.87-1.94-3.47-.04-1.62.41-3.09,1.54-4.17,1.09-1.1,2.71-1.77,4.36-1.84,3.66-.19,7.36,2.47,10.46,5.7,3.12,3.29,6.48,7.08,10.41,9.72,6.46,4.54,13.9,6.9,21.21,6.41,7.25-.57,14.39-3.63,19.82-9.66.62-.69.24-1.36-.34-.95-5.05,3.69-10.99,6.76-17.76,7.76-6.67,1.01-13.96-.71-19.36-4.14-3.81-2.35-7.15-5.48-10.25-9.04-3.12-3.47-6.63-7.26-11.34-8.52-2.32-.63-4.86-.43-7.06.74-2.19,1.1-4.04,3.49-4.35,6.26-.4,2.66.53,5.75,2.74,7.13,2.18,1.38,4.63,1.06,6.77.59,1.54-.37,1.8-1.84.14-1.76"/>
    <path class="cls-1" d="M174.46,32.3c.28.45.38,1.2.24,1.75-.12.48-.47.98-.98,1.37-1.04.81-2.58,1.03-4.01.64-1.45-.37-2.85-1.37-3.85-2.69-.98-1.28-1.57-3.07-1.69-4.91-.32-4.13,1.66-8.27,4.76-11.1,3.09-2.88,7.07-4.64,11.16-5.34,6.88-1.17,14.04.5,20.14,4.36,6.15,3.83,11.27,9.64,15.19,16.44.44.77,1.13.54.9-.18-2.01-6.38-6.77-12.94-13.15-17.4-6.34-4.58-14.14-6.4-20.56-6.03-4.51.18-9.04,1.49-12.96,4.13-3.86,2.59-7.27,6.81-8.05,12.08-.4,2.57-.17,5.32.84,7.73,1.02,2.43,2.88,4.34,5.06,5.34,2.17.99,4.79,1.04,6.86-.35,1.01-.68,1.9-1.74,2.22-3.07.31-1.34-.01-2.77-.82-3.74-.6-.71-1.32-.51-1.46-.17-.17.36-.05.77.16,1.14"/>
    <path class="cls-1" d="M296.39,8.01c-6.96,2.33-13.46,7.26-18.43,13.71-2.7,3.53-4.92,7.57-6.32,12.02-1.37,4.42-1.83,9.53-.18,14.13,1.36,3.73,4.04,6.89,7.46,8.02,3.44,1.14,7.17-.16,9.41-2.98,2.25-2.77,2.47-7.66-.35-10.08-1.35-1.11-3.31-1.47-4.89-.45-1.55,1.07-2.35,3.37-1.6,5.5.46.97,1.11.51.91-.09-.31-1.4.3-2.72,1.06-3.36.72-.59,1.63-.56,2.48-.15.86.44,1.35,1.15,1.63,2.23.25,1.08.18,2.37-.32,3.45-.91,2.26-3.64,3.95-6.2,3.8-2.58-.11-5.07-2.1-6.42-4.54-2-3.42-2.21-7.89-1.29-11.99.92-4.13,2.83-8,5.17-11.42,4.77-6.87,11.4-11.87,18.23-16.07,1.2-.73,1.14-2.22-.34-1.72"/>
    <path class="cls-1" d="M95.99,21.7c1.73,2.37,5.12,2.93,7.51.55,2.19-2.38,2.37-6.04.86-8.82-1.64-2.81-4.54-3.88-7.13-3.53-2.72.37-4.87,2.27-6.2,4.49-1.5,2.48-1.98,5.42-1.9,8.11.08,2.71.69,5.31,1.66,7.7,1.94,4.8,5.35,8.66,9.37,11.05,6.85,3.99,14.69,3.31,21.12.31,6.52-3.08,11.82-8.5,16.19-14.96.5-.74.05-1.35-.47-.88-4.5,4.24-9.14,9.26-14.99,12.54-5.73,3.3-12.93,4.34-18.43,1.93-3.78-1.63-7.13-4.7-9.29-8.62-2.13-3.85-3.19-8.77-2.05-13.05.58-2.09,1.86-3.96,3.56-4.92,1.66-.97,3.84-.83,5.34.41,1.52,1.16,2.03,3.72,1.16,5.6-.78,1.95-3.35,2.47-4.96,1.14-.56-.43-1.02-.79-1.41-.77-.34-.02-.66.59.05,1.69"/>
    <path class="cls-1" d="M63.67,43.81c-1.92.06-3.8-.03-5.05-.75-1.26-.71-1.82-1.87-1.94-3.47-.04-1.62.41-3.09,1.54-4.17,1.09-1.1,2.71-1.77,4.35-1.84,3.66-.19,7.36,2.47,10.46,5.7,3.12,3.29,6.48,7.08,10.41,9.72,6.46,4.54,13.9,6.9,21.21,6.41,7.25-.57,14.39-3.63,19.82-9.66.62-.69.24-1.36-.34-.95-5.05,3.69-10.99,6.76-17.76,7.76-6.67,1.01-13.96-.71-19.36-4.14-3.81-2.35-7.15-5.48-10.25-9.04-3.12-3.47-6.63-7.26-11.34-8.52-2.32-.63-4.86-.43-7.06.74-2.2,1.1-4.04,3.49-4.35,6.26-.4,2.66.53,5.75,2.74,7.13,2.17,1.38,4.63,1.06,6.77.59,1.54-.37,1.8-1.84.14-1.76"/>
    <path class="cls-1" d="M40.58,32.3c.28.45.38,1.2.24,1.75-.12.48-.47.98-.98,1.37-1.04.81-2.58,1.03-4.01.64-1.45-.37-2.85-1.37-3.84-2.69-.98-1.28-1.57-3.07-1.69-4.91-.32-4.13,1.66-8.27,4.76-11.1,3.09-2.88,7.07-4.64,11.16-5.34,6.88-1.17,14.04.5,20.14,4.36,6.15,3.83,11.27,9.64,15.19,16.44.44.77,1.13.54.9-.18-2.01-6.38-6.77-12.94-13.15-17.4-6.34-4.58-14.14-6.4-20.56-6.03-4.51.18-9.04,1.49-12.96,4.13-3.86,2.59-7.27,6.81-8.05,12.08-.4,2.57-.17,5.32.84,7.73,1.02,2.43,2.88,4.34,5.06,5.34,2.17.99,4.79,1.04,6.86-.35,1.01-.68,1.9-1.74,2.22-3.07.31-1.34-.01-2.77-.82-3.74-.6-.71-1.32-.51-1.46-.17-.17.36-.05.77.16,1.14"/>
    <path class="cls-1" d="M162.51,8.01c-6.96,2.33-13.46,7.26-18.43,13.71-2.7,3.53-4.92,7.57-6.32,12.02-1.36,4.42-1.83,9.53-.18,14.13,1.36,3.73,4.04,6.89,7.46,8.02,3.44,1.14,7.17-.16,9.41-2.98,2.25-2.77,2.47-7.66-.35-10.08-1.35-1.11-3.31-1.47-4.89-.45-1.55,1.07-2.35,3.37-1.6,5.5.46.97,1.11.51.91-.09-.31-1.4.3-2.72,1.06-3.36.72-.59,1.63-.56,2.47-.15.86.44,1.35,1.15,1.63,2.23.25,1.08.18,2.37-.32,3.45-.91,2.26-3.64,3.95-6.2,3.8-2.58-.11-5.07-2.1-6.42-4.54-2-3.42-2.21-7.89-1.29-11.99.92-4.13,2.83-8,5.17-11.42,4.77-6.87,11.4-11.87,18.23-16.07,1.2-.73,1.14-2.22-.34-1.72"/>
    <path class="cls-1" d="M28.75,8.01c-7.7,2.33-14.9,7.26-20.39,13.71-2.99,3.53-5.45,7.57-7,12.02-1.51,4.42-2.02,9.53-.2,14.13,1.5,3.73,4.47,6.89,8.26,8.02,3.81,1.14,7.94-.16,10.41-2.98,2.49-2.77,2.74-7.66-.38-10.08-1.49-1.11-3.66-1.47-5.41-.45-1.71,1.07-2.61,3.37-1.77,5.5.51.97,1.23.51,1-.09-.34-1.4.34-2.72,1.17-3.36.8-.59,1.8-.56,2.74-.15.95.44,1.5,1.15,1.81,2.23.27,1.08.2,2.37-.36,3.45-1.01,2.26-4.03,3.95-6.86,3.8-2.85-.11-5.61-2.1-7.1-4.54-2.21-3.42-2.45-7.89-1.43-11.99,1.02-4.13,3.13-8,5.72-11.42,5.28-6.87,12.61-11.87,20.18-16.07,1.33-.73,1.26-2.22-.38-1.72"/>
    <path class="cls-1" d="M580.64,21.7c-1.77,2.37-5.26,2.93-7.71.55-2.25-2.38-2.43-6.04-.88-8.82,1.68-2.81,4.66-3.88,7.32-3.53,2.79.37,5,2.27,6.36,4.49,1.54,2.48,2.03,5.42,1.95,8.11-.08,2.71-.71,5.31-1.7,7.7-1.99,4.8-5.49,8.66-9.62,11.05-7.03,3.99-15.08,3.31-21.68.31-6.69-3.08-12.14-8.5-16.62-14.96-.51-.74-.05-1.35.48-.88,4.62,4.24,9.38,9.26,15.39,12.54,5.88,3.3,13.27,4.34,18.92,1.93,3.88-1.63,7.32-4.7,9.53-8.62,2.18-3.85,3.27-8.77,2.11-13.05-.59-2.09-1.91-3.96-3.66-4.92-1.7-.97-3.94-.83-5.48.41-1.56,1.16-2.08,3.72-1.19,5.6.8,1.95,3.43,2.47,5.1,1.14.57-.43,1.05-.79,1.45-.77.35-.02.68.59-.05,1.69"/>
    <path class="cls-1" d="M613.82,43.81c1.97.06,3.91-.03,5.18-.75,1.29-.71,1.86-1.87,1.99-3.47.04-1.62-.42-3.09-1.58-4.17-1.12-1.1-2.78-1.77-4.47-1.84-3.76-.19-7.55,2.47-10.74,5.7-3.21,3.29-6.65,7.08-10.68,9.72-6.63,4.54-14.27,6.9-21.77,6.41-7.44-.57-14.78-3.63-20.35-9.66-.63-.69-.25-1.36.35-.95,5.18,3.69,11.28,6.76,18.23,7.76,6.85,1.01,14.33-.71,19.87-4.14,3.91-2.35,7.34-5.48,10.52-9.04,3.2-3.47,6.8-7.26,11.64-8.52,2.38-.63,4.99-.43,7.24.74,2.25,1.1,4.15,3.49,4.47,6.26.41,2.66-.55,5.75-2.82,7.13-2.23,1.38-4.75,1.06-6.95.59-1.58-.37-1.85-1.84-.14-1.76"/>
    <path class="cls-1" d="M637.52,32.3c-.29.45-.39,1.2-.25,1.75.12.48.48.98,1,1.37,1.07.81,2.65,1.03,4.12.64,1.49-.37,2.93-1.37,3.95-2.69,1.01-1.28,1.61-3.07,1.74-4.91.33-4.13-1.7-8.27-4.88-11.1-3.17-2.88-7.26-4.64-11.46-5.34-7.06-1.17-14.41.5-20.67,4.36-6.31,3.83-11.57,9.64-15.6,16.44-.46.77-1.16.54-.92-.18,2.06-6.38,6.95-12.94,13.5-17.4,6.51-4.58,14.52-6.4,21.11-6.03,4.63.18,9.28,1.49,13.3,4.13,3.97,2.59,7.46,6.81,8.27,12.08.41,2.57.18,5.32-.87,7.73-1.04,2.43-2.95,4.34-5.19,5.34-2.23.99-4.92,1.04-7.04-.35-1.04-.68-1.95-1.74-2.28-3.07-.32-1.34.01-2.77.84-3.74.62-.71,1.36-.51,1.5-.17.18.36.05.77-.16,1.14"/>
    <path class="cls-1" d="M464.15,21.7c-1.73,2.37-5.12,2.93-7.51.55-2.19-2.38-2.37-6.04-.86-8.82,1.64-2.81,4.54-3.88,7.13-3.53,2.71.37,4.87,2.27,6.2,4.49,1.5,2.48,1.98,5.42,1.9,8.11-.08,2.71-.69,5.31-1.66,7.7-1.94,4.8-5.35,8.66-9.37,11.05-6.85,3.99-14.69,3.31-21.12.31-6.52-3.08-11.82-8.5-16.19-14.96-.5-.74-.04-1.35.47-.88,4.5,4.24,9.14,9.26,14.99,12.54,5.73,3.3,12.93,4.34,18.43,1.93,3.78-1.63,7.13-4.7,9.29-8.62,2.13-3.85,3.19-8.77,2.05-13.05-.58-2.09-1.86-3.96-3.56-4.92-1.66-.97-3.84-.83-5.34.41-1.52,1.16-2.03,3.72-1.16,5.6.78,1.95,3.35,2.47,4.96,1.14.56-.43,1.02-.79,1.41-.77.34-.02.66.59-.05,1.69"/>
    <path class="cls-1" d="M496.47,43.81c1.92.06,3.8-.03,5.05-.75,1.26-.71,1.82-1.87,1.94-3.47.04-1.62-.41-3.09-1.54-4.17-1.09-1.1-2.7-1.77-4.35-1.84-3.66-.19-7.36,2.47-10.46,5.7-3.12,3.29-6.48,7.08-10.41,9.72-6.46,4.54-13.9,6.9-21.21,6.41-7.25-.57-14.39-3.63-19.82-9.66-.62-.69-.24-1.36.34-.95,5.05,3.69,10.99,6.76,17.76,7.76,6.67,1.01,13.96-.71,19.36-4.14,3.81-2.35,7.15-5.48,10.25-9.04,3.12-3.47,6.63-7.26,11.34-8.52,2.32-.63,4.86-.43,7.06.74,2.19,1.1,4.04,3.49,4.35,6.26.4,2.66-.53,5.75-2.74,7.13-2.18,1.38-4.63,1.06-6.77.59-1.54-.37-1.8-1.84-.14-1.76"/>
    <path class="cls-1" d="M519.56,32.3c-.28.45-.38,1.2-.24,1.75.12.48.47.98.98,1.37,1.04.81,2.58,1.03,4.02.64,1.45-.37,2.85-1.37,3.84-2.69.98-1.28,1.57-3.07,1.69-4.91.32-4.13-1.66-8.27-4.76-11.1-3.09-2.88-7.07-4.64-11.16-5.34-6.88-1.17-14.04.5-20.14,4.36-6.15,3.83-11.27,9.64-15.2,16.44-.44.77-1.13.54-.9-.18,2.01-6.38,6.77-12.94,13.15-17.4,6.34-4.58,14.14-6.4,20.56-6.03,4.51.18,9.04,1.49,12.96,4.13,3.86,2.59,7.27,6.81,8.05,12.08.4,2.57.17,5.32-.84,7.73-1.02,2.43-2.88,4.34-5.06,5.34-2.17.99-4.79,1.04-6.86-.35-1.01-.68-1.9-1.74-2.22-3.07-.31-1.34.01-2.77.82-3.74.6-.71,1.32-.51,1.46-.17.17.36.05.77-.16,1.14"/>
    <path class="cls-1" d="M397.62,8.01c6.96,2.33,13.46,7.26,18.43,13.71,2.7,3.53,4.92,7.57,6.32,12.02,1.37,4.42,1.83,9.53.18,14.13-1.36,3.73-4.04,6.89-7.46,8.02-3.44,1.14-7.17-.16-9.41-2.98-2.25-2.77-2.47-7.66.35-10.08,1.35-1.11,3.31-1.47,4.89-.45,1.55,1.07,2.35,3.37,1.6,5.5-.46.97-1.11.51-.91-.09.31-1.4-.3-2.72-1.06-3.36-.72-.59-1.63-.56-2.48-.15-.86.44-1.35,1.15-1.63,2.23-.25,1.08-.18,2.37.32,3.45.91,2.26,3.64,3.95,6.2,3.8,2.58-.11,5.07-2.1,6.42-4.54,2-3.42,2.21-7.89,1.29-11.99-.92-4.13-2.83-8-5.17-11.42-4.77-6.87-11.4-11.87-18.23-16.07-1.2-.73-1.14-2.22.34-1.72"/>
    <path class="cls-1" d="M718.06,21.7c-1.77,2.37-5.26,2.93-7.71.55-2.25-2.38-2.43-6.04-.88-8.82,1.68-2.81,4.66-3.88,7.32-3.53,2.79.37,5,2.27,6.36,4.49,1.54,2.48,2.03,5.42,1.95,8.11-.08,2.71-.71,5.31-1.7,7.7-1.99,4.8-5.49,8.66-9.62,11.05-7.03,3.99-15.08,3.31-21.68.31-6.69-3.08-12.14-8.5-16.62-14.96-.51-.74-.05-1.35.48-.88,4.62,4.24,9.38,9.26,15.39,12.54,5.88,3.3,13.27,4.34,18.92,1.93,3.88-1.63,7.32-4.7,9.53-8.62,2.18-3.85,3.27-8.77,2.11-13.05-.59-2.09-1.91-3.96-3.66-4.92-1.7-.97-3.94-.83-5.48.41-1.56,1.16-2.08,3.72-1.19,5.6.8,1.95,3.43,2.47,5.09,1.14.57-.43,1.05-.79,1.45-.77.35-.02.68.59-.05,1.69"/>
    <path class="cls-1" d="M751.24,43.81c1.97.06,3.9-.03,5.18-.75,1.29-.71,1.86-1.87,1.99-3.47.04-1.62-.42-3.09-1.58-4.17-1.12-1.1-2.78-1.77-4.47-1.84-3.76-.19-7.55,2.47-10.74,5.7-3.21,3.29-6.65,7.08-10.68,9.72-6.63,4.54-14.27,6.9-21.77,6.41-7.44-.57-14.78-3.63-20.35-9.66-.63-.69-.25-1.36.35-.95,5.18,3.69,11.28,6.76,18.23,7.76,6.85,1.01,14.33-.71,19.87-4.14,3.91-2.35,7.34-5.48,10.53-9.04,3.2-3.47,6.8-7.26,11.64-8.52,2.38-.63,4.99-.43,7.24.74,2.25,1.1,4.15,3.49,4.47,6.26.41,2.66-.55,5.75-2.82,7.13-2.23,1.38-4.75,1.06-6.95.59-1.58-.37-1.85-1.84-.14-1.76"/>
    <path class="cls-1" d="M774.94,32.3c-.29.45-.39,1.2-.25,1.75.12.48.48.98,1,1.37,1.07.81,2.65,1.03,4.12.64,1.49-.37,2.93-1.37,3.95-2.69,1.01-1.28,1.61-3.07,1.74-4.91.33-4.13-1.7-8.27-4.88-11.1-3.17-2.88-7.26-4.64-11.46-5.34-7.06-1.17-14.41.5-20.67,4.36-6.31,3.83-11.57,9.64-15.6,16.44-.46.77-1.16.54-.92-.18,2.06-6.38,6.95-12.94,13.5-17.4,6.51-4.58,14.52-6.4,21.11-6.03,4.63.18,9.28,1.49,13.3,4.13,3.97,2.59,7.46,6.81,8.27,12.08.41,2.57.18,5.32-.87,7.73-1.04,2.43-2.95,4.34-5.19,5.34-2.23.99-4.92,1.04-7.04-.35-1.04-.68-1.95-1.74-2.28-3.07-.32-1.34.01-2.77.84-3.74.62-.71,1.36-.51,1.5-.17.18.36.05.77-.16,1.14"/>
    <path class="cls-1" d="M649.78,8.01c7.14,2.33,13.82,7.26,18.92,13.71,2.77,3.53,5.05,7.57,6.49,12.02,1.4,4.42,1.88,9.53.18,14.13-1.39,3.73-4.15,6.89-7.66,8.02-3.53,1.14-7.36-.16-9.66-2.98-2.31-2.77-2.54-7.66.35-10.08,1.39-1.11,3.39-1.47,5.02-.45,1.59,1.07,2.42,3.37,1.64,5.5-.47.97-1.14.51-.93-.09.32-1.4-.31-2.72-1.08-3.36-.74-.59-1.67-.56-2.54-.15-.88.44-1.39,1.15-1.68,2.23-.25,1.08-.18,2.37.33,3.45.94,2.26,3.74,3.95,6.36,3.8,2.65-.11,5.2-2.1,6.59-4.54,2.05-3.42,2.27-7.89,1.33-11.99-.94-4.13-2.9-8-5.3-11.42-4.89-6.87-11.7-11.87-18.71-16.07-1.23-.73-1.17-2.22.35-1.72"/>
  </g>
  <g>
    <path class="cls-1" d="M1160.68,18.95c1.73,2.37,5.12,2.93,7.51.55,2.19-2.38,2.37-6.04.86-8.82-1.64-2.81-4.54-3.88-7.13-3.53-2.71.37-4.87,2.27-6.2,4.49-1.5,2.48-1.98,5.42-1.9,8.1.08,2.71.69,5.31,1.66,7.7,1.94,4.8,5.35,8.66,9.37,11.05,6.85,3.98,14.69,3.31,21.12.32,6.52-3.08,11.82-8.5,16.19-14.96.5-.74.05-1.35-.47-.88-4.5,4.23-9.14,9.26-14.99,12.54-5.73,3.3-12.93,4.34-18.43,1.93-3.78-1.63-7.13-4.7-9.29-8.62-2.13-3.85-3.19-8.77-2.05-13.04.58-2.09,1.86-3.96,3.56-4.92,1.66-.97,3.84-.83,5.34.41,1.52,1.16,2.03,3.72,1.16,5.6-.78,1.95-3.35,2.47-4.96,1.15-.56-.43-1.02-.79-1.41-.77-.34-.02-.66.59.05,1.69"/>
    <path class="cls-1" d="M1128.36,41.06c-1.92.06-3.8-.03-5.05-.75-1.26-.71-1.82-1.87-1.94-3.47-.04-1.62.41-3.09,1.54-4.17,1.09-1.1,2.7-1.77,4.35-1.84,3.66-.19,7.36,2.47,10.46,5.7,3.12,3.29,6.48,7.09,10.41,9.72,6.46,4.54,13.9,6.9,21.21,6.41,7.25-.57,14.39-3.63,19.82-9.66.62-.69.24-1.36-.34-.95-5.05,3.69-10.99,6.76-17.76,7.76-6.67,1.01-13.96-.71-19.36-4.14-3.81-2.35-7.15-5.48-10.25-9.04-3.12-3.47-6.63-7.26-11.34-8.52-2.32-.63-4.86-.43-7.06.74-2.2,1.1-4.04,3.49-4.35,6.26-.4,2.66.53,5.75,2.74,7.13,2.18,1.38,4.63,1.06,6.77.59,1.54-.37,1.8-1.84.14-1.76"/>
    <path class="cls-1" d="M1105.27,29.55c.28.45.38,1.2.24,1.75-.12.48-.47.98-.98,1.37-1.04.8-2.58,1.03-4.01.64-1.45-.37-2.85-1.37-3.85-2.69-.98-1.28-1.57-3.07-1.69-4.91-.32-4.13,1.66-8.27,4.76-11.1,3.09-2.88,7.07-4.64,11.16-5.34,6.88-1.17,14.04.5,20.14,4.36,6.15,3.83,11.27,9.64,15.2,16.44.44.77,1.13.54.9-.18-2.01-6.38-6.77-12.94-13.15-17.4-6.34-4.58-14.14-6.41-20.56-6.03-4.51.18-9.04,1.49-12.96,4.13-3.86,2.59-7.27,6.81-8.05,12.08-.4,2.57-.17,5.32.84,7.73,1.02,2.43,2.88,4.34,5.06,5.34,2.17.99,4.79,1.04,6.86-.35,1.01-.68,1.9-1.74,2.22-3.07.31-1.34-.01-2.77-.82-3.74-.6-.71-1.32-.51-1.46-.17-.17.36-.05.77.16,1.14"/>
    <path class="cls-1" d="M1026.8,18.95c1.73,2.37,5.12,2.93,7.51.55,2.19-2.38,2.37-6.04.86-8.82-1.64-2.81-4.54-3.88-7.13-3.53-2.71.37-4.87,2.27-6.2,4.49-1.5,2.48-1.98,5.42-1.9,8.1.08,2.71.69,5.31,1.66,7.7,1.94,4.8,5.35,8.66,9.37,11.05,6.85,3.98,14.69,3.31,21.12.32,6.52-3.08,11.82-8.5,16.19-14.96.5-.74.05-1.35-.47-.88-4.5,4.23-9.14,9.26-14.99,12.54-5.73,3.3-12.93,4.34-18.43,1.93-3.78-1.63-7.13-4.7-9.29-8.62-2.13-3.85-3.19-8.77-2.05-13.04.58-2.09,1.86-3.96,3.56-4.92,1.66-.97,3.84-.83,5.34.41,1.52,1.16,2.03,3.72,1.16,5.6-.78,1.95-3.35,2.47-4.96,1.15-.56-.43-1.02-.79-1.41-.77-.34-.02-.66.59.05,1.69"/>
    <path class="cls-1" d="M994.48,41.06c-1.92.06-3.8-.03-5.05-.75-1.26-.71-1.82-1.87-1.94-3.47-.04-1.62.41-3.09,1.54-4.17,1.09-1.1,2.71-1.77,4.36-1.84,3.66-.19,7.36,2.47,10.46,5.7,3.12,3.29,6.48,7.09,10.41,9.72,6.46,4.54,13.9,6.9,21.21,6.41,7.25-.57,14.39-3.63,19.82-9.66.62-.69.24-1.36-.34-.95-5.05,3.69-10.99,6.76-17.76,7.76-6.67,1.01-13.96-.71-19.36-4.14-3.81-2.35-7.15-5.48-10.25-9.04-3.12-3.47-6.63-7.26-11.34-8.52-2.32-.63-4.86-.43-7.06.74-2.19,1.1-4.04,3.49-4.35,6.26-.4,2.66.53,5.75,2.74,7.13,2.18,1.38,4.63,1.06,6.77.59,1.54-.37,1.8-1.84.14-1.76"/>
    <path class="cls-1" d="M971.39,29.55c.28.45.38,1.2.24,1.75-.12.48-.47.98-.98,1.37-1.04.8-2.58,1.03-4.01.64-1.45-.37-2.85-1.37-3.85-2.69-.98-1.28-1.57-3.07-1.69-4.91-.32-4.13,1.66-8.27,4.76-11.1,3.09-2.88,7.07-4.64,11.16-5.34,6.88-1.17,14.04.5,20.14,4.36,6.15,3.83,11.27,9.64,15.19,16.44.44.77,1.13.54.9-.18-2.01-6.38-6.77-12.94-13.15-17.4-6.34-4.58-14.14-6.41-20.56-6.03-4.51.18-9.04,1.49-12.96,4.13-3.86,2.59-7.27,6.81-8.05,12.08-.4,2.57-.17,5.32.84,7.73,1.02,2.43,2.88,4.34,5.06,5.34,2.17.99,4.79,1.04,6.86-.35,1.01-.68,1.9-1.74,2.22-3.07.31-1.34-.01-2.77-.82-3.74-.6-.71-1.32-.51-1.46-.17-.17.36-.05.77.16,1.14"/>
    <path class="cls-1" d="M1093.33,5.26c-6.96,2.33-13.46,7.26-18.43,13.71-2.7,3.53-4.92,7.57-6.32,12.02-1.37,4.42-1.83,9.53-.18,14.13,1.36,3.73,4.04,6.89,7.46,8.02,3.44,1.14,7.17-.16,9.41-2.98,2.25-2.77,2.47-7.66-.35-10.08-1.35-1.11-3.31-1.47-4.89-.45-1.55,1.07-2.35,3.37-1.6,5.5.46.97,1.11.52.91-.09-.31-1.4.3-2.72,1.06-3.36.72-.59,1.63-.56,2.48-.15.86.45,1.35,1.15,1.63,2.23.25,1.08.18,2.37-.32,3.45-.91,2.26-3.64,3.95-6.2,3.8-2.58-.11-5.07-2.1-6.42-4.54-2-3.42-2.21-7.89-1.29-11.99.92-4.13,2.83-8,5.17-11.42,4.77-6.87,11.4-11.87,18.23-16.07,1.2-.73,1.14-2.22-.34-1.72"/>
    <path class="cls-1" d="M892.92,18.95c1.73,2.37,5.12,2.93,7.51.55,2.19-2.38,2.37-6.04.86-8.82-1.64-2.81-4.54-3.88-7.13-3.53-2.71.37-4.87,2.27-6.2,4.49-1.5,2.48-1.98,5.42-1.89,8.1.08,2.71.69,5.31,1.66,7.7,1.94,4.8,5.35,8.66,9.37,11.05,6.85,3.98,14.69,3.31,21.12.32,6.52-3.08,11.82-8.5,16.19-14.96.5-.74.04-1.35-.47-.88-4.5,4.23-9.14,9.26-14.99,12.54-5.73,3.3-12.93,4.34-18.43,1.93-3.78-1.63-7.13-4.7-9.29-8.62-2.13-3.85-3.19-8.77-2.05-13.04.58-2.09,1.86-3.96,3.56-4.92,1.66-.97,3.84-.83,5.34.41,1.52,1.16,2.03,3.72,1.16,5.6-.78,1.95-3.35,2.47-4.96,1.15-.56-.43-1.02-.79-1.41-.77-.34-.02-.66.59.05,1.69"/>
    <path class="cls-1" d="M860.6,41.06c-1.92.06-3.8-.03-5.05-.75-1.26-.71-1.82-1.87-1.94-3.47-.04-1.62.41-3.09,1.54-4.17,1.09-1.1,2.71-1.77,4.36-1.84,3.66-.19,7.36,2.47,10.46,5.7,3.12,3.29,6.48,7.09,10.41,9.72,6.46,4.54,13.9,6.9,21.21,6.41,7.25-.57,14.39-3.63,19.82-9.66.62-.69.24-1.36-.34-.95-5.05,3.69-10.99,6.76-17.76,7.76-6.67,1.01-13.96-.71-19.36-4.14-3.81-2.35-7.15-5.48-10.25-9.04-3.12-3.47-6.63-7.26-11.34-8.52-2.32-.63-4.86-.43-7.06.74-2.19,1.1-4.04,3.49-4.35,6.26-.4,2.66.53,5.75,2.74,7.13,2.18,1.38,4.63,1.06,6.77.59,1.54-.37,1.8-1.84.14-1.76"/>
    <path class="cls-1" d="M837.52,29.55c.28.45.38,1.2.24,1.75-.12.48-.47.98-.98,1.37-1.04.8-2.58,1.03-4.01.64-1.45-.37-2.85-1.37-3.85-2.69-.98-1.28-1.57-3.07-1.69-4.91-.32-4.13,1.66-8.27,4.76-11.1,3.09-2.88,7.07-4.64,11.16-5.34,6.88-1.17,14.04.5,20.14,4.36,6.15,3.83,11.27,9.64,15.2,16.44.44.77,1.13.54.9-.18-2.01-6.38-6.77-12.94-13.15-17.4-6.34-4.58-14.14-6.41-20.56-6.03-4.51.18-9.04,1.49-12.96,4.13-3.86,2.59-7.27,6.81-8.05,12.08-.4,2.57-.17,5.32.84,7.73,1.02,2.43,2.88,4.34,5.06,5.34,2.17.99,4.79,1.04,6.86-.35,1.01-.68,1.9-1.74,2.22-3.07.31-1.34-.01-2.77-.82-3.74-.6-.71-1.32-.51-1.46-.17-.17.36-.05.77.16,1.14"/>
    <path class="cls-1" d="M959.45,5.26c-6.96,2.33-13.46,7.26-18.43,13.71-2.7,3.53-4.92,7.57-6.32,12.02-1.36,4.42-1.83,9.53-.18,14.13,1.36,3.73,4.04,6.89,7.46,8.02,3.44,1.14,7.17-.16,9.41-2.98,2.25-2.77,2.47-7.66-.35-10.08-1.35-1.11-3.31-1.47-4.89-.45-1.55,1.07-2.35,3.37-1.6,5.5.46.97,1.11.52.91-.09-.31-1.4.3-2.72,1.06-3.36.72-.59,1.63-.56,2.47-.15.86.45,1.35,1.15,1.63,2.23.25,1.08.18,2.37-.32,3.45-.91,2.26-3.64,3.95-6.2,3.8-2.58-.11-5.07-2.1-6.42-4.54-2-3.42-2.21-7.89-1.29-11.99.92-4.13,2.83-8,5.17-11.42,4.77-6.87,11.4-11.87,18.23-16.07,1.2-.73,1.14-2.22-.34-1.72"/>
    <path class="cls-1" d="M825.69,5.26c-7.7,2.33-14.9,7.26-20.39,13.71-2.99,3.53-5.45,7.57-7,12.02-1.51,4.42-2.03,9.53-.2,14.13,1.5,3.73,4.47,6.89,8.26,8.02,3.81,1.14,7.94-.16,10.41-2.98,2.49-2.77,2.74-7.66-.38-10.08-1.49-1.11-3.66-1.47-5.41-.45-1.71,1.07-2.61,3.37-1.77,5.5.51.97,1.23.52,1-.09-.34-1.4.33-2.72,1.17-3.36.79-.59,1.8-.56,2.74-.15.95.45,1.5,1.15,1.81,2.23.27,1.08.2,2.37-.36,3.45-1.01,2.26-4.03,3.95-6.86,3.8-2.86-.11-5.61-2.1-7.1-4.54-2.21-3.42-2.45-7.89-1.43-11.99,1.02-4.13,3.13-8,5.72-11.42,5.28-6.87,12.61-11.87,20.17-16.07,1.33-.73,1.26-2.22-.38-1.72"/>
    <path class="cls-1" d="M1261.09,18.95c-1.73,2.37-5.12,2.93-7.51.55-2.19-2.38-2.37-6.04-.86-8.82,1.64-2.81,4.54-3.88,7.13-3.53,2.71.37,4.87,2.27,6.2,4.49,1.5,2.48,1.98,5.42,1.9,8.1-.08,2.71-.69,5.31-1.66,7.7-1.94,4.8-5.35,8.66-9.37,11.05-6.85,3.98-14.69,3.31-21.12.32-6.52-3.08-11.82-8.5-16.19-14.96-.5-.74-.05-1.35.47-.88,4.5,4.23,9.14,9.26,14.99,12.54,5.73,3.3,12.93,4.34,18.43,1.93,3.78-1.63,7.13-4.7,9.29-8.62,2.13-3.85,3.19-8.77,2.05-13.04-.58-2.09-1.86-3.96-3.56-4.92-1.66-.97-3.84-.83-5.34.41-1.52,1.16-2.03,3.72-1.16,5.6.78,1.95,3.35,2.47,4.96,1.15.56-.43,1.02-.79,1.41-.77.34-.02.66.59-.05,1.69"/>
    <path class="cls-1" d="M1293.4,41.06c1.92.06,3.8-.03,5.05-.75,1.26-.71,1.82-1.87,1.94-3.47.04-1.62-.41-3.09-1.54-4.17-1.09-1.1-2.7-1.77-4.35-1.84-3.66-.19-7.36,2.47-10.46,5.7-3.12,3.29-6.48,7.09-10.41,9.72-6.46,4.54-13.9,6.9-21.2,6.41-7.25-.57-14.39-3.63-19.82-9.66-.62-.69-.24-1.36.34-.95,5.05,3.69,10.99,6.76,17.76,7.76,6.67,1.01,13.96-.71,19.36-4.14,3.81-2.35,7.15-5.48,10.25-9.04,3.12-3.47,6.63-7.26,11.34-8.52,2.32-.63,4.86-.43,7.06.74,2.19,1.1,4.04,3.49,4.35,6.26.4,2.66-.53,5.75-2.74,7.13-2.18,1.38-4.63,1.06-6.77.59-1.54-.37-1.8-1.84-.14-1.76"/>
    <path class="cls-1" d="M1316.49,29.55c-.28.45-.38,1.2-.24,1.75.12.48.47.98.98,1.37,1.04.8,2.58,1.03,4.02.64,1.45-.37,2.85-1.37,3.84-2.69.98-1.28,1.57-3.07,1.69-4.91.32-4.13-1.66-8.27-4.76-11.1-3.09-2.88-7.07-4.64-11.16-5.34-6.88-1.17-14.04.5-20.14,4.36-6.15,3.83-11.27,9.64-15.2,16.44-.44.77-1.13.54-.9-.18,2.01-6.38,6.77-12.94,13.15-17.4,6.34-4.58,14.14-6.41,20.56-6.03,4.51.18,9.04,1.49,12.96,4.13,3.86,2.59,7.27,6.81,8.05,12.08.4,2.57.17,5.32-.84,7.73-1.02,2.43-2.88,4.34-5.06,5.34-2.17.99-4.79,1.04-6.86-.35-1.01-.68-1.9-1.74-2.22-3.07-.31-1.34.01-2.77.82-3.74.6-.71,1.32-.51,1.46-.17.17.36.05.77-.16,1.14"/>
    <path class="cls-1" d="M1194.56,5.26c6.96,2.33,13.46,7.26,18.43,13.71,2.7,3.53,4.92,7.57,6.32,12.02,1.37,4.42,1.83,9.53.18,14.13-1.36,3.73-4.04,6.89-7.46,8.02-3.44,1.14-7.17-.16-9.41-2.98-2.25-2.77-2.47-7.66.35-10.08,1.35-1.11,3.31-1.47,4.89-.45,1.55,1.07,2.35,3.37,1.6,5.5-.46.97-1.11.52-.91-.09.31-1.4-.3-2.72-1.06-3.36-.72-.59-1.63-.56-2.48-.15-.86.45-1.35,1.15-1.63,2.23-.25,1.08-.18,2.37.32,3.45.91,2.26,3.64,3.95,6.2,3.8,2.58-.11,5.07-2.1,6.42-4.54,2-3.42,2.21-7.89,1.29-11.99-.92-4.13-2.83-8-5.17-11.42-4.77-6.87-11.4-11.87-18.23-16.07-1.2-.73-1.14-2.22.34-1.72"/>
    <path class="cls-1" d="M1682.28,18.95c1.73,2.37,5.12,2.93,7.51.55,2.19-2.38,2.37-6.04.86-8.82-1.64-2.81-4.54-3.88-7.13-3.53-2.71.37-4.87,2.27-6.2,4.49-1.5,2.48-1.98,5.42-1.9,8.1.08,2.71.69,5.31,1.66,7.7,1.94,4.8,5.35,8.66,9.37,11.05,6.85,3.98,14.69,3.31,21.12.32,6.52-3.08,11.82-8.5,16.19-14.96.5-.74.05-1.35-.47-.88-4.5,4.23-9.14,9.26-14.99,12.54-5.73,3.3-12.93,4.34-18.43,1.93-3.78-1.63-7.13-4.7-9.29-8.62-2.13-3.85-3.19-8.77-2.05-13.04.58-2.09,1.86-3.96,3.56-4.92,1.66-.97,3.84-.83,5.34.41,1.52,1.16,2.03,3.72,1.16,5.6-.78,1.95-3.35,2.47-4.96,1.15-.56-.43-1.02-.79-1.41-.77-.34-.02-.66.59.05,1.69"/>
    <path class="cls-1" d="M1649.96,41.06c-1.92.06-3.8-.03-5.05-.75-1.26-.71-1.82-1.87-1.94-3.47-.04-1.62.41-3.09,1.54-4.17,1.09-1.1,2.71-1.77,4.35-1.84,3.66-.19,7.36,2.47,10.46,5.7,3.12,3.29,6.48,7.09,10.41,9.72,6.46,4.54,13.9,6.9,21.2,6.41,7.25-.57,14.39-3.63,19.82-9.66.62-.69.24-1.36-.34-.95-5.05,3.69-10.99,6.76-17.76,7.76-6.67,1.01-13.96-.71-19.36-4.14-3.81-2.35-7.15-5.48-10.25-9.04-3.12-3.47-6.63-7.26-11.34-8.52-2.32-.63-4.86-.43-7.06.74-2.2,1.1-4.04,3.49-4.35,6.26-.4,2.66.53,5.75,2.74,7.13,2.17,1.38,4.63,1.06,6.77.59,1.54-.37,1.8-1.84.14-1.76"/>
    <path class="cls-1" d="M1626.88,29.55c.28.45.38,1.2.24,1.75-.12.48-.47.98-.98,1.37-1.04.8-2.58,1.03-4.02.64-1.45-.37-2.85-1.37-3.84-2.69-.98-1.28-1.57-3.07-1.69-4.91-.32-4.13,1.66-8.27,4.76-11.1,3.09-2.88,7.07-4.64,11.16-5.34,6.88-1.17,14.04.5,20.14,4.36,6.15,3.83,11.27,9.64,15.2,16.44.44.77,1.13.54.9-.18-2.01-6.38-6.77-12.94-13.15-17.4-6.34-4.58-14.14-6.41-20.57-6.03-4.51.18-9.04,1.49-12.96,4.13-3.86,2.59-7.27,6.81-8.05,12.08-.4,2.57-.17,5.32.84,7.73,1.02,2.43,2.88,4.34,5.06,5.34,2.17.99,4.79,1.04,6.86-.35,1.01-.68,1.9-1.74,2.22-3.07.31-1.34-.01-2.77-.82-3.74-.6-.71-1.32-.51-1.46-.17-.17.36-.05.77.16,1.14"/>
    <path class="cls-1" d="M1548.4,18.95c1.73,2.37,5.12,2.93,7.51.55,2.19-2.38,2.37-6.04.86-8.82-1.64-2.81-4.54-3.88-7.13-3.53-2.71.37-4.87,2.27-6.2,4.49-1.5,2.48-1.98,5.42-1.9,8.1.08,2.71.69,5.31,1.66,7.7,1.94,4.8,5.35,8.66,9.37,11.05,6.85,3.98,14.69,3.31,21.12.32,6.52-3.08,11.82-8.5,16.19-14.96.5-.74.05-1.35-.47-.88-4.5,4.23-9.14,9.26-14.99,12.54-5.73,3.3-12.93,4.34-18.43,1.93-3.78-1.63-7.13-4.7-9.29-8.62-2.13-3.85-3.19-8.77-2.05-13.04.58-2.09,1.86-3.96,3.56-4.92,1.66-.97,3.84-.83,5.34.41,1.52,1.16,2.03,3.72,1.16,5.6-.78,1.95-3.35,2.47-4.96,1.15-.56-.43-1.02-.79-1.41-.77-.34-.02-.66.59.05,1.69"/>
    <path class="cls-1" d="M1516.09,41.06c-1.92.06-3.8-.03-5.05-.75-1.26-.71-1.82-1.87-1.94-3.47-.04-1.62.41-3.09,1.54-4.17,1.09-1.1,2.71-1.77,4.35-1.84,3.66-.19,7.36,2.47,10.46,5.7,3.12,3.29,6.48,7.09,10.41,9.72,6.46,4.54,13.9,6.9,21.2,6.41,7.25-.57,14.39-3.63,19.82-9.66.62-.69.24-1.36-.34-.95-5.05,3.69-10.99,6.76-17.76,7.76-6.67,1.01-13.96-.71-19.36-4.14-3.81-2.35-7.15-5.48-10.25-9.04-3.12-3.47-6.63-7.26-11.34-8.52-2.32-.63-4.86-.43-7.06.74-2.2,1.1-4.04,3.49-4.35,6.26-.4,2.66.53,5.75,2.74,7.13,2.17,1.38,4.63,1.06,6.77.59,1.54-.37,1.8-1.84.14-1.76"/>
    <path class="cls-1" d="M1493,29.55c.28.45.38,1.2.24,1.75-.12.48-.47.98-.98,1.37-1.04.8-2.58,1.03-4.02.64-1.45-.37-2.85-1.37-3.84-2.69-.98-1.28-1.57-3.07-1.69-4.91-.32-4.13,1.66-8.27,4.76-11.1,3.09-2.88,7.07-4.64,11.16-5.34,6.88-1.17,14.04.5,20.14,4.36,6.15,3.83,11.27,9.64,15.2,16.44.44.77,1.13.54.9-.18-2.01-6.38-6.77-12.94-13.15-17.4-6.34-4.58-14.14-6.41-20.57-6.03-4.51.18-9.04,1.49-12.96,4.13-3.86,2.59-7.27,6.81-8.05,12.08-.4,2.57-.17,5.32.84,7.73,1.02,2.43,2.88,4.34,5.06,5.34,2.17.99,4.79,1.04,6.86-.35,1.01-.68,1.9-1.74,2.22-3.07.31-1.34-.01-2.77-.82-3.74-.6-.71-1.32-.51-1.46-.17-.17.36-.05.77.16,1.14"/>
    <path class="cls-1" d="M1614.93,5.26c-6.96,2.33-13.46,7.26-18.43,13.71-2.7,3.53-4.92,7.57-6.32,12.02-1.36,4.42-1.83,9.53-.18,14.13,1.36,3.73,4.04,6.89,7.46,8.02,3.44,1.14,7.17-.16,9.41-2.98,2.25-2.77,2.47-7.66-.35-10.08-1.35-1.11-3.31-1.47-4.89-.45-1.55,1.07-2.35,3.37-1.6,5.5.46.97,1.11.52.91-.09-.31-1.4.3-2.72,1.06-3.36.72-.59,1.63-.56,2.48-.15.86.45,1.35,1.15,1.63,2.23.25,1.08.18,2.37-.32,3.45-.91,2.26-3.64,3.95-6.2,3.8-2.58-.11-5.07-2.1-6.42-4.54-2-3.42-2.21-7.89-1.29-11.99.92-4.13,2.83-8,5.17-11.42,4.77-6.87,11.4-11.87,18.23-16.07,1.2-.73,1.14-2.22-.34-1.72"/>
    <path class="cls-1" d="M1414.53,18.95c1.73,2.37,5.12,2.93,7.51.55,2.19-2.38,2.37-6.04.86-8.82-1.64-2.81-4.54-3.88-7.13-3.53-2.71.37-4.87,2.27-6.2,4.49-1.5,2.48-1.98,5.42-1.9,8.1.08,2.71.69,5.31,1.66,7.7,1.94,4.8,5.35,8.66,9.37,11.05,6.85,3.98,14.69,3.31,21.12.32,6.52-3.08,11.82-8.5,16.19-14.96.5-.74.05-1.35-.47-.88-4.5,4.23-9.14,9.26-14.99,12.54-5.73,3.3-12.93,4.34-18.43,1.93-3.78-1.63-7.13-4.7-9.29-8.62-2.13-3.85-3.19-8.77-2.05-13.04.58-2.09,1.86-3.96,3.56-4.92,1.66-.97,3.84-.83,5.34.41,1.52,1.16,2.03,3.72,1.16,5.6-.78,1.95-3.35,2.47-4.96,1.15-.56-.43-1.02-.79-1.41-.77-.34-.02-.66.59.05,1.69"/>
    <path class="cls-1" d="M1382.21,41.06c-1.92.06-3.8-.03-5.05-.75-1.26-.71-1.82-1.87-1.94-3.47-.04-1.62.41-3.09,1.54-4.17,1.09-1.1,2.71-1.77,4.35-1.84,3.66-.19,7.36,2.47,10.46,5.7,3.12,3.29,6.48,7.09,10.41,9.72,6.46,4.54,13.9,6.9,21.2,6.41,7.25-.57,14.39-3.63,19.82-9.66.62-.69.24-1.36-.34-.95-5.05,3.69-10.99,6.76-17.76,7.76-6.67,1.01-13.96-.71-19.36-4.14-3.81-2.35-7.15-5.48-10.25-9.04-3.12-3.47-6.63-7.26-11.34-8.52-2.32-.63-4.86-.43-7.06.74-2.2,1.1-4.04,3.49-4.35,6.26-.4,2.66.53,5.75,2.74,7.13,2.17,1.38,4.63,1.06,6.77.59,1.54-.37,1.8-1.84.14-1.76"/>
    <path class="cls-1" d="M1359.12,29.55c.28.45.38,1.2.24,1.75-.12.48-.47.98-.98,1.37-1.04.8-2.58,1.03-4.02.64-1.45-.37-2.85-1.37-3.84-2.69-.98-1.28-1.57-3.07-1.69-4.91-.32-4.13,1.66-8.27,4.76-11.1,3.09-2.88,7.07-4.64,11.16-5.34,6.88-1.17,14.04.5,20.14,4.36,6.15,3.83,11.27,9.64,15.2,16.44.44.77,1.13.54.9-.18-2.01-6.38-6.77-12.94-13.15-17.4-6.34-4.58-14.14-6.41-20.56-6.03-4.51.18-9.04,1.49-12.96,4.13-3.86,2.59-7.27,6.81-8.05,12.08-.4,2.57-.17,5.32.84,7.73,1.02,2.43,2.88,4.34,5.06,5.34,2.17.99,4.79,1.04,6.86-.35,1.01-.68,1.9-1.74,2.22-3.07.31-1.34-.01-2.77-.82-3.74-.6-.71-1.32-.51-1.46-.17-.17.36-.05.77.16,1.14"/>
    <path class="cls-1" d="M1481.05,5.26c-6.96,2.33-13.46,7.26-18.43,13.71-2.7,3.53-4.92,7.57-6.32,12.02-1.36,4.42-1.83,9.53-.18,14.13,1.36,3.73,4.04,6.89,7.46,8.02,3.44,1.14,7.17-.16,9.41-2.98,2.25-2.77,2.47-7.66-.35-10.08-1.35-1.11-3.31-1.47-4.89-.45-1.55,1.07-2.35,3.37-1.6,5.5.46.97,1.11.52.91-.09-.31-1.4.3-2.72,1.06-3.36.72-.59,1.63-.56,2.47-.15.86.45,1.35,1.15,1.63,2.23.25,1.08.18,2.37-.32,3.45-.91,2.26-3.64,3.95-6.2,3.8-2.58-.11-5.07-2.1-6.42-4.54-2-3.42-2.21-7.89-1.29-11.99.92-4.13,2.83-8,5.17-11.42,4.77-6.87,11.4-11.87,18.23-16.07,1.2-.73,1.14-2.22-.34-1.72"/>
    <path class="cls-1" d="M1347.29,5.26c-7.7,2.33-14.9,7.26-20.39,13.71-2.99,3.53-5.45,7.57-6.99,12.02-1.51,4.42-2.03,9.53-.2,14.13,1.5,3.73,4.47,6.89,8.26,8.02,3.81,1.14,7.94-.16,10.41-2.98,2.49-2.77,2.74-7.66-.38-10.08-1.49-1.11-3.66-1.47-5.41-.45-1.71,1.07-2.61,3.37-1.77,5.5.51.97,1.23.52,1-.09-.34-1.4.34-2.72,1.17-3.36.8-.59,1.8-.56,2.74-.15.95.45,1.5,1.15,1.81,2.23.27,1.08.2,2.37-.36,3.45-1.01,2.26-4.03,3.95-6.86,3.8-2.85-.11-5.61-2.1-7.1-4.54-2.21-3.42-2.45-7.89-1.43-11.99,1.02-4.13,3.13-8,5.72-11.42,5.28-6.87,12.61-11.87,20.17-16.07,1.33-.73,1.26-2.22-.38-1.72"/>
    <path class="cls-1" d="M1782.69,18.95c-1.73,2.37-5.12,2.93-7.51.55-2.19-2.38-2.37-6.04-.86-8.82,1.64-2.81,4.54-3.88,7.13-3.53,2.71.37,4.87,2.27,6.2,4.49,1.5,2.48,1.98,5.42,1.9,8.1-.08,2.71-.69,5.31-1.66,7.7-1.94,4.8-5.35,8.66-9.37,11.05-6.85,3.98-14.69,3.31-21.12.32-6.52-3.08-11.82-8.5-16.19-14.96-.5-.74-.05-1.35.47-.88,4.5,4.23,9.14,9.26,14.99,12.54,5.73,3.3,12.93,4.34,18.43,1.93,3.78-1.63,7.13-4.7,9.29-8.62,2.13-3.85,3.19-8.77,2.05-13.04-.58-2.09-1.86-3.96-3.56-4.92-1.66-.97-3.84-.83-5.34.41-1.52,1.16-2.03,3.72-1.16,5.6.78,1.95,3.34,2.47,4.96,1.15.56-.43,1.02-.79,1.41-.77.34-.02.66.59-.05,1.69"/>
    <path class="cls-1" d="M1815.01,41.06c1.92.06,3.8-.03,5.05-.75,1.26-.71,1.82-1.87,1.94-3.47.04-1.62-.41-3.09-1.54-4.17-1.09-1.1-2.7-1.77-4.36-1.84-3.66-.19-7.36,2.47-10.46,5.7-3.12,3.29-6.48,7.09-10.41,9.72-6.46,4.54-13.9,6.9-21.2,6.41-7.25-.57-14.39-3.63-19.82-9.66-.62-.69-.24-1.36.34-.95,5.05,3.69,10.99,6.76,17.76,7.76,6.67,1.01,13.96-.71,19.36-4.14,3.81-2.35,7.15-5.48,10.25-9.04,3.12-3.47,6.63-7.26,11.34-8.52,2.32-.63,4.86-.43,7.06.74,2.19,1.1,4.04,3.49,4.35,6.26.4,2.66-.53,5.75-2.74,7.13-2.18,1.38-4.63,1.06-6.77.59-1.54-.37-1.8-1.84-.14-1.76"/>
    <path class="cls-1" d="M1838.1,29.55c-.28.45-.38,1.2-.24,1.75.12.48.47.98.98,1.37,1.04.8,2.58,1.03,4.02.64,1.45-.37,2.85-1.37,3.84-2.69.98-1.28,1.57-3.07,1.69-4.91.32-4.13-1.66-8.27-4.76-11.1-3.09-2.88-7.07-4.64-11.16-5.34-6.88-1.17-14.04.5-20.14,4.36-6.15,3.83-11.27,9.64-15.19,16.44-.44.77-1.13.54-.9-.18,2.01-6.38,6.77-12.94,13.15-17.4,6.34-4.58,14.14-6.41,20.56-6.03,4.51.18,9.04,1.49,12.96,4.13,3.86,2.59,7.27,6.81,8.05,12.08.4,2.57.17,5.32-.84,7.73-1.02,2.43-2.88,4.34-5.06,5.34-2.17.99-4.79,1.04-6.86-.35-1.01-.68-1.9-1.74-2.22-3.07-.31-1.34.01-2.77.82-3.74.6-.71,1.32-.51,1.46-.17.17.36.05.77-.16,1.14"/>
    <path class="cls-1" d="M1716.16,5.26c6.96,2.33,13.46,7.26,18.43,13.71,2.7,3.53,4.92,7.57,6.32,12.02,1.36,4.42,1.83,9.53.18,14.13-1.36,3.73-4.04,6.89-7.46,8.02-3.44,1.14-7.17-.16-9.41-2.98-2.25-2.77-2.47-7.66.35-10.08,1.35-1.11,3.31-1.47,4.89-.45,1.55,1.07,2.35,3.37,1.6,5.5-.46.97-1.11.52-.91-.09.31-1.4-.3-2.72-1.06-3.36-.72-.59-1.63-.56-2.48-.15-.86.45-1.35,1.15-1.63,2.23-.25,1.08-.18,2.37.32,3.45.91,2.26,3.64,3.95,6.2,3.8,2.58-.11,5.07-2.1,6.42-4.54,2-3.42,2.21-7.89,1.29-11.99-.92-4.13-2.83-8-5.17-11.42-4.77-6.87-11.4-11.87-18.23-16.07-1.2-.73-1.14-2.22.34-1.72"/>
  </g>
  <path class="cls-1" d="M3040.64,34.6c1.73-2.37,5.12-2.93,7.51-.55,2.19,2.38,2.37,6.04.86,8.82-1.64,2.81-4.54,3.88-7.13,3.53-2.71-.37-4.87-2.27-6.2-4.49-1.5-2.48-1.98-5.42-1.9-8.1.08-2.71.69-5.31,1.66-7.7,1.94-4.8,5.35-8.66,9.37-11.05,6.85-3.99,14.69-3.31,21.12-.31,6.52,3.08,11.82,8.5,16.19,14.96.5.74.05,1.35-.47.88-4.5-4.24-9.14-9.26-14.99-12.54-5.73-3.3-12.93-4.34-18.43-1.93-3.78,1.63-7.13,4.7-9.29,8.62-2.13,3.85-3.19,8.77-2.05,13.05.58,2.09,1.86,3.96,3.56,4.92,1.66.97,3.84.83,5.34-.41,1.52-1.16,2.03-3.72,1.16-5.6-.78-1.95-3.35-2.47-4.96-1.14-.56.43-1.02.79-1.41.77-.34.02-.66-.59.05-1.69"/>
  <path class="cls-1" d="M3008.32,12.49c-1.92-.06-3.8.03-5.05.75-1.26.71-1.82,1.87-1.94,3.47-.04,1.62.41,3.09,1.54,4.17,1.09,1.1,2.7,1.77,4.35,1.84,3.66.19,7.36-2.47,10.46-5.7,3.12-3.29,6.48-7.08,10.41-9.72,6.46-4.54,13.9-6.9,21.21-6.41,7.25.57,14.39,3.63,19.82,9.66.62.69.24,1.36-.34.95-5.05-3.69-10.99-6.76-17.76-7.76-6.67-1.01-13.96.71-19.36,4.14-3.81,2.35-7.15,5.48-10.25,9.04-3.12,3.47-6.63,7.26-11.34,8.52-2.32.63-4.86.43-7.06-.74-2.2-1.1-4.04-3.49-4.35-6.26-.4-2.66.53-5.75,2.74-7.13,2.18-1.38,4.63-1.06,6.77-.59,1.54.37,1.8,1.84.14,1.76"/>
  <path class="cls-1" d="M2985.23,24c.28-.45.38-1.2.24-1.75-.12-.48-.47-.98-.98-1.37-1.04-.81-2.58-1.03-4.01-.64-1.45.37-2.85,1.37-3.85,2.69-.98,1.28-1.57,3.07-1.69,4.91-.32,4.13,1.66,8.27,4.76,11.1,3.09,2.88,7.07,4.64,11.16,5.34,6.88,1.17,14.04-.5,20.14-4.36,6.15-3.83,11.27-9.64,15.2-16.44.44-.77,1.13-.54.9.18-2.01,6.38-6.77,12.94-13.15,17.4-6.34,4.58-14.14,6.4-20.56,6.03-4.51-.18-9.04-1.49-12.96-4.13-3.86-2.59-7.27-6.81-8.05-12.08-.4-2.57-.17-5.32.84-7.73,1.02-2.43,2.88-4.34,5.06-5.34,2.17-.99,4.79-1.04,6.86.35,1.01.68,1.9,1.74,2.22,3.07.31,1.34-.01,2.77-.82,3.74-.6.71-1.32.51-1.46.17-.17-.36-.05-.77.16-1.14"/>
  <path class="cls-1" d="M2906.76,34.6c1.73-2.37,5.12-2.93,7.51-.55,2.19,2.38,2.37,6.04.86,8.82-1.64,2.81-4.54,3.88-7.13,3.53-2.71-.37-4.87-2.27-6.2-4.49-1.5-2.48-1.98-5.42-1.9-8.1.08-2.71.69-5.31,1.66-7.7,1.94-4.8,5.35-8.66,9.37-11.05,6.85-3.99,14.69-3.31,21.12-.31,6.52,3.08,11.82,8.5,16.19,14.96.5.74.05,1.35-.47.88-4.5-4.24-9.14-9.26-14.99-12.54-5.73-3.3-12.93-4.34-18.43-1.93-3.78,1.63-7.13,4.7-9.29,8.62-2.13,3.85-3.19,8.77-2.05,13.05.58,2.09,1.86,3.96,3.56,4.92,1.66.97,3.84.83,5.34-.41,1.52-1.16,2.03-3.72,1.16-5.6-.78-1.95-3.35-2.47-4.96-1.14-.56.43-1.02.79-1.41.77-.34.02-.66-.59.05-1.69"/>
  <path class="cls-1" d="M2874.44,12.49c-1.92-.06-3.8.03-5.05.75-1.26.71-1.82,1.87-1.94,3.47-.04,1.62.41,3.09,1.54,4.17,1.09,1.1,2.71,1.77,4.36,1.84,3.66.19,7.36-2.47,10.46-5.7,3.12-3.29,6.48-7.08,10.41-9.72,6.46-4.54,13.9-6.9,21.21-6.41,7.25.57,14.39,3.63,19.82,9.66.62.69.24,1.36-.34.95-5.05-3.69-10.99-6.76-17.76-7.76-6.67-1.01-13.96.71-19.36,4.14-3.81,2.35-7.15,5.48-10.25,9.04-3.12,3.47-6.63,7.26-11.34,8.52-2.32.63-4.86.43-7.06-.74-2.19-1.1-4.04-3.49-4.35-6.26-.4-2.66.53-5.75,2.74-7.13,2.18-1.38,4.63-1.06,6.77-.59,1.54.37,1.8,1.84.14,1.76"/>
  <path class="cls-1" d="M2851.35,24c.28-.45.38-1.2.24-1.75-.12-.48-.47-.98-.98-1.37-1.04-.81-2.58-1.03-4.01-.64-1.45.37-2.85,1.37-3.85,2.69-.98,1.28-1.57,3.07-1.69,4.91-.32,4.13,1.66,8.27,4.76,11.1,3.09,2.88,7.07,4.64,11.16,5.34,6.88,1.17,14.04-.5,20.14-4.36,6.15-3.83,11.27-9.64,15.19-16.44.44-.77,1.13-.54.9.18-2.01,6.38-6.77,12.94-13.15,17.4-6.34,4.58-14.14,6.4-20.56,6.03-4.51-.18-9.04-1.49-12.96-4.13-3.86-2.59-7.27-6.81-8.05-12.08-.4-2.57-.17-5.32.84-7.73,1.02-2.43,2.88-4.34,5.06-5.34,2.17-.99,4.79-1.04,6.86.35,1.01.68,1.9,1.74,2.22,3.07.31,1.34-.01,2.77-.82,3.74-.6.71-1.32.51-1.46.17-.17-.36-.05-.77.16-1.14"/>
  <path class="cls-1" d="M2973.29,48.29c-6.96-2.33-13.46-7.26-18.43-13.71-2.7-3.53-4.92-7.57-6.32-12.02-1.37-4.42-1.83-9.53-.18-14.13,1.36-3.73,4.04-6.89,7.46-8.02,3.44-1.14,7.17.16,9.41,2.98,2.25,2.77,2.47,7.66-.35,10.08-1.35,1.11-3.31,1.47-4.89.45-1.55-1.07-2.35-3.37-1.6-5.5.46-.97,1.11-.51.91.09-.31,1.4.3,2.72,1.06,3.36.72.59,1.63.56,2.48.15.86-.44,1.35-1.15,1.63-2.23.25-1.08.18-2.37-.32-3.45-.91-2.26-3.64-3.95-6.2-3.8-2.58.11-5.07,2.1-6.42,4.54-2,3.42-2.21,7.89-1.29,11.99.92,4.13,2.83,8,5.17,11.42,4.77,6.87,11.4,11.87,18.23,16.07,1.2.73,1.14,2.22-.34,1.72"/>
  <path class="cls-1" d="M2772.88,34.6c1.73-2.37,5.12-2.93,7.51-.55,2.19,2.38,2.37,6.04.86,8.82-1.64,2.81-4.54,3.88-7.13,3.53-2.71-.37-4.87-2.27-6.2-4.49-1.5-2.48-1.98-5.42-1.89-8.1.08-2.71.69-5.31,1.66-7.7,1.94-4.8,5.35-8.66,9.37-11.05,6.85-3.99,14.69-3.31,21.12-.31,6.52,3.08,11.82,8.5,16.19,14.96.5.74.04,1.35-.47.88-4.5-4.24-9.14-9.26-14.99-12.54-5.73-3.3-12.93-4.34-18.43-1.93-3.78,1.63-7.13,4.7-9.29,8.62-2.13,3.85-3.19,8.77-2.05,13.05.58,2.09,1.86,3.96,3.56,4.92,1.66.97,3.84.83,5.34-.41,1.52-1.16,2.03-3.72,1.16-5.6-.78-1.95-3.35-2.47-4.96-1.14-.56.43-1.02.79-1.41.77-.34.02-.66-.59.05-1.69"/>
  <path class="cls-1" d="M2740.56,12.49c-1.92-.06-3.8.03-5.05.75-1.26.71-1.82,1.87-1.94,3.47-.04,1.62.41,3.09,1.54,4.17,1.09,1.1,2.71,1.77,4.36,1.84,3.66.19,7.36-2.47,10.46-5.7,3.12-3.29,6.48-7.08,10.41-9.72,6.46-4.54,13.9-6.9,21.21-6.41,7.25.57,14.39,3.63,19.82,9.66.62.69.24,1.36-.34.95-5.05-3.69-10.99-6.76-17.76-7.76-6.67-1.01-13.96.71-19.36,4.14-3.81,2.35-7.15,5.48-10.25,9.04-3.12,3.47-6.63,7.26-11.34,8.52-2.32.63-4.86.43-7.06-.74-2.19-1.1-4.04-3.49-4.35-6.26-.4-2.66.53-5.75,2.74-7.13,2.18-1.38,4.63-1.06,6.77-.59,1.54.37,1.8,1.84.14,1.76"/>
  <path class="cls-1" d="M2717.47,24c.28-.45.38-1.2.24-1.75-.12-.48-.47-.98-.98-1.37-1.04-.81-2.58-1.03-4.01-.64-1.45.37-2.85,1.37-3.85,2.69-.98,1.28-1.57,3.07-1.69,4.91-.32,4.13,1.66,8.27,4.76,11.1,3.09,2.88,7.07,4.64,11.16,5.34,6.88,1.17,14.04-.5,20.14-4.36,6.15-3.83,11.27-9.64,15.2-16.44.44-.77,1.13-.54.9.18-2.01,6.38-6.77,12.94-13.15,17.4-6.34,4.58-14.14,6.4-20.56,6.03-4.51-.18-9.04-1.49-12.96-4.13-3.86-2.59-7.27-6.81-8.05-12.08-.4-2.57-.17-5.32.84-7.73,1.02-2.43,2.88-4.34,5.06-5.34,2.17-.99,4.79-1.04,6.86.35,1.01.68,1.9,1.74,2.22,3.07.31,1.34-.01,2.77-.82,3.74-.6.71-1.32.51-1.46.17-.17-.36-.05-.77.16-1.14"/>
  <path class="cls-1" d="M2839.41,48.29c-6.96-2.33-13.46-7.26-18.43-13.71-2.7-3.53-4.92-7.57-6.32-12.02-1.36-4.42-1.83-9.53-.18-14.13,1.36-3.73,4.04-6.89,7.46-8.02,3.44-1.14,7.17.16,9.41,2.98,2.25,2.77,2.47,7.66-.35,10.08-1.35,1.11-3.31,1.47-4.89.45-1.55-1.07-2.35-3.37-1.6-5.5.46-.97,1.11-.51.91.09-.31,1.4.3,2.72,1.06,3.36.72.59,1.63.56,2.47.15.86-.44,1.35-1.15,1.63-2.23.25-1.08.18-2.37-.32-3.45-.91-2.26-3.64-3.95-6.2-3.8-2.58.11-5.07,2.1-6.42,4.54-2,3.42-2.21,7.89-1.29,11.99.92,4.13,2.83,8,5.17,11.42,4.77,6.87,11.4,11.87,18.23,16.07,1.2.73,1.14,2.22-.34,1.72"/>
  <path class="cls-1" d="M2705.65,48.29c-7.7-2.33-14.9-7.26-20.39-13.71-2.99-3.53-5.45-7.57-7-12.02-1.51-4.42-2.03-9.53-.2-14.13,1.5-3.73,4.47-6.89,8.26-8.02,3.81-1.14,7.94.16,10.41,2.98,2.49,2.77,2.74,7.66-.38,10.08-1.49,1.11-3.66,1.47-5.41.45-1.71-1.07-2.61-3.37-1.77-5.5.51-.97,1.23-.51,1,.09-.34,1.4.33,2.72,1.17,3.36.79.59,1.8.56,2.74.15.95-.44,1.5-1.15,1.81-2.23.27-1.08.2-2.37-.36-3.45-1.01-2.26-4.03-3.95-6.86-3.8-2.86.11-5.61,2.1-7.1,4.54-2.21,3.42-2.45,7.89-1.43,11.99,1.02,4.13,3.13,8,5.72,11.42,5.28,6.87,12.61,11.87,20.17,16.07,1.33.73,1.26,2.22-.38,1.72"/>
  <path class="cls-1" d="M3141.05,34.6c-1.73-2.37-5.12-2.93-7.51-.55-2.19,2.38-2.37,6.04-.86,8.82,1.64,2.81,4.54,3.88,7.13,3.53,2.71-.37,4.87-2.27,6.2-4.49,1.5-2.48,1.98-5.42,1.9-8.1-.08-2.71-.69-5.31-1.66-7.7-1.94-4.8-5.35-8.66-9.37-11.05-6.85-3.99-14.69-3.31-21.12-.31-6.52,3.08-11.82,8.5-16.19,14.96-.5.74-.05,1.35.47.88,4.5-4.24,9.14-9.26,14.99-12.54,5.73-3.3,12.93-4.34,18.43-1.93,3.78,1.63,7.13,4.7,9.29,8.62,2.13,3.85,3.19,8.77,2.05,13.05-.58,2.09-1.86,3.96-3.56,4.92-1.66.97-3.84.83-5.34-.41-1.52-1.16-2.03-3.72-1.16-5.6.78-1.95,3.35-2.47,4.96-1.14.56.43,1.02.79,1.41.77.34.02.66-.59-.05-1.69"/>
  <path class="cls-1" d="M3173.36,12.49c1.92-.06,3.8.03,5.05.75,1.26.71,1.82,1.87,1.94,3.47.04,1.62-.41,3.09-1.54,4.17-1.09,1.1-2.7,1.77-4.35,1.84-3.66.19-7.36-2.47-10.46-5.7-3.12-3.29-6.48-7.08-10.41-9.72-6.46-4.54-13.9-6.9-21.2-6.41-7.25.57-14.39,3.63-19.82,9.66-.62.69-.24,1.36.34.95,5.05-3.69,10.99-6.76,17.76-7.76,6.67-1.01,13.96.71,19.36,4.14,3.81,2.35,7.15,5.48,10.25,9.04,3.12,3.47,6.63,7.26,11.34,8.52,2.32.63,4.86.43,7.06-.74,2.19-1.1,4.04-3.49,4.35-6.26.4-2.66-.53-5.75-2.74-7.13-2.18-1.38-4.63-1.06-6.77-.59-1.54.37-1.8,1.84-.14,1.76"/>
  <path class="cls-1" d="M3196.45,24c-.28-.45-.38-1.2-.24-1.75.12-.48.47-.98.98-1.37,1.04-.81,2.58-1.03,4.02-.64,1.45.37,2.85,1.37,3.84,2.69.98,1.28,1.57,3.07,1.69,4.91.32,4.13-1.66,8.27-4.76,11.1-3.09,2.88-7.07,4.64-11.16,5.34-6.88,1.17-14.04-.5-20.14-4.36-6.15-3.83-11.27-9.64-15.2-16.44-.44-.77-1.13-.54-.9.18,2.01,6.38,6.77,12.94,13.15,17.4,6.34,4.58,14.14,6.4,20.56,6.03,4.51-.18,9.04-1.49,12.96-4.13,3.86-2.59,7.27-6.81,8.05-12.08.4-2.57.17-5.32-.84-7.73-1.02-2.43-2.88-4.34-5.06-5.34-2.17-.99-4.79-1.04-6.86.35-1.01.68-1.9,1.74-2.22,3.07-.31,1.34.01,2.77.82,3.74.6.71,1.32.51,1.46.17.17-.36.05-.77-.16-1.14"/>
  <path class="cls-1" d="M3074.52,48.29c6.96-2.33,13.46-7.26,18.43-13.71,2.7-3.53,4.92-7.57,6.32-12.02,1.37-4.42,1.83-9.53.18-14.13-1.36-3.73-4.04-6.89-7.46-8.02-3.44-1.14-7.17.16-9.41,2.98-2.25,2.77-2.47,7.66.35,10.08,1.35,1.11,3.31,1.47,4.89.45,1.55-1.07,2.35-3.37,1.6-5.5-.46-.97-1.11-.51-.91.09.31,1.4-.3,2.72-1.06,3.36-.72.59-1.63.56-2.48.15-.86-.44-1.35-1.15-1.63-2.23-.25-1.08-.18-2.37.32-3.45.91-2.26,3.64-3.95,6.2-3.8,2.58.11,5.07,2.1,6.42,4.54,2,3.42,2.21,7.89,1.29,11.99-.92,4.13-2.83,8-5.17,11.42-4.77,6.87-11.4,11.87-18.23,16.07-1.2.73-1.14,2.22.34,1.72"/>
  <path class="cls-1" d="M3562.24,34.6c1.73-2.37,5.12-2.93,7.51-.55,2.19,2.38,2.37,6.04.86,8.82-1.64,2.81-4.54,3.88-7.13,3.53-2.71-.37-4.87-2.27-6.2-4.49-1.5-2.48-1.98-5.42-1.9-8.1.08-2.71.69-5.31,1.66-7.7,1.94-4.8,5.35-8.66,9.37-11.05,6.85-3.99,14.69-3.31,21.12-.31,6.52,3.08,11.82,8.5,16.19,14.96.5.74.05,1.35-.47.88-4.5-4.24-9.14-9.26-14.99-12.54-5.73-3.3-12.93-4.34-18.43-1.93-3.78,1.63-7.13,4.7-9.29,8.62-2.13,3.85-3.19,8.77-2.05,13.05.58,2.09,1.86,3.96,3.56,4.92,1.66.97,3.84.83,5.34-.41,1.52-1.16,2.03-3.72,1.16-5.6-.78-1.95-3.35-2.47-4.96-1.14-.56.43-1.02.79-1.41.77-.34.02-.66-.59.05-1.69"/>
  <path class="cls-1" d="M3529.92,12.49c-1.92-.06-3.8.03-5.05.75-1.26.71-1.82,1.87-1.94,3.47-.04,1.62.41,3.09,1.54,4.17,1.09,1.1,2.71,1.77,4.35,1.84,3.66.19,7.36-2.47,10.46-5.7,3.12-3.29,6.48-7.08,10.41-9.72,6.46-4.54,13.9-6.9,21.2-6.41,7.25.57,14.39,3.63,19.82,9.66.62.69.24,1.36-.34.95-5.05-3.69-10.99-6.76-17.76-7.76-6.67-1.01-13.96.71-19.36,4.14-3.81,2.35-7.15,5.48-10.25,9.04-3.12,3.47-6.63,7.26-11.34,8.52-2.32.63-4.86.43-7.06-.74-2.2-1.1-4.04-3.49-4.35-6.26-.4-2.66.53-5.75,2.74-7.13,2.17-1.38,4.63-1.06,6.77-.59,1.54.37,1.8,1.84.14,1.76"/>
  <path class="cls-1" d="M3506.83,24c.28-.45.38-1.2.24-1.75-.12-.48-.47-.98-.98-1.37-1.04-.81-2.58-1.03-4.02-.64-1.45.37-2.85,1.37-3.84,2.69-.98,1.28-1.57,3.07-1.69,4.91-.32,4.13,1.66,8.27,4.76,11.1,3.09,2.88,7.07,4.64,11.16,5.34,6.88,1.17,14.04-.5,20.14-4.36,6.15-3.83,11.27-9.64,15.2-16.44.44-.77,1.13-.54.9.18-2.01,6.38-6.77,12.94-13.15,17.4-6.34,4.58-14.14,6.4-20.57,6.03-4.51-.18-9.04-1.49-12.96-4.13-3.86-2.59-7.27-6.81-8.05-12.08-.4-2.57-.17-5.32.84-7.73,1.02-2.43,2.88-4.34,5.06-5.34,2.17-.99,4.79-1.04,6.86.35,1.01.68,1.9,1.74,2.22,3.07.31,1.34-.01,2.77-.82,3.74-.6.71-1.32.51-1.46.17-.17-.36-.05-.77.16-1.14"/>
  <path class="cls-1" d="M3428.36,34.6c1.73-2.37,5.12-2.93,7.51-.55,2.19,2.38,2.37,6.04.86,8.82-1.64,2.81-4.54,3.88-7.13,3.53-2.71-.37-4.87-2.27-6.2-4.49-1.5-2.48-1.98-5.42-1.9-8.1.08-2.71.69-5.31,1.66-7.7,1.94-4.8,5.35-8.66,9.37-11.05,6.85-3.99,14.69-3.31,21.12-.31,6.52,3.08,11.82,8.5,16.19,14.96.5.74.05,1.35-.47.88-4.5-4.24-9.14-9.26-14.99-12.54-5.73-3.3-12.93-4.34-18.43-1.93-3.78,1.63-7.13,4.7-9.29,8.62-2.13,3.85-3.19,8.77-2.05,13.05.58,2.09,1.86,3.96,3.56,4.92,1.66.97,3.84.83,5.34-.41,1.52-1.16,2.03-3.72,1.16-5.6-.78-1.95-3.35-2.47-4.96-1.14-.56.43-1.02.79-1.41.77-.34.02-.66-.59.05-1.69"/>
  <path class="cls-1" d="M3396.05,12.49c-1.92-.06-3.8.03-5.05.75-1.26.71-1.82,1.87-1.94,3.47-.04,1.62.41,3.09,1.54,4.17,1.09,1.1,2.71,1.77,4.35,1.84,3.66.19,7.36-2.47,10.46-5.7,3.12-3.29,6.48-7.08,10.41-9.72,6.46-4.54,13.9-6.9,21.2-6.41,7.25.57,14.39,3.63,19.82,9.66.62.69.24,1.36-.34.95-5.05-3.69-10.99-6.76-17.76-7.76-6.67-1.01-13.96.71-19.36,4.14-3.81,2.35-7.15,5.48-10.25,9.04-3.12,3.47-6.63,7.26-11.34,8.52-2.32.63-4.86.43-7.06-.74-2.2-1.1-4.04-3.49-4.35-6.26-.4-2.66.53-5.75,2.74-7.13,2.17-1.38,4.63-1.06,6.77-.59,1.54.37,1.8,1.84.14,1.76"/>
  <path class="cls-1" d="M3372.96,24c.28-.45.38-1.2.24-1.75-.12-.48-.47-.98-.98-1.37-1.04-.81-2.58-1.03-4.02-.64-1.45.37-2.85,1.37-3.84,2.69-.98,1.28-1.57,3.07-1.69,4.91-.32,4.13,1.66,8.27,4.76,11.1,3.09,2.88,7.07,4.64,11.16,5.34,6.88,1.17,14.04-.5,20.14-4.36,6.15-3.83,11.27-9.64,15.2-16.44.44-.77,1.13-.54.9.18-2.01,6.38-6.77,12.94-13.15,17.4-6.34,4.58-14.14,6.4-20.57,6.03-4.51-.18-9.04-1.49-12.96-4.13-3.86-2.59-7.27-6.81-8.05-12.08-.4-2.57-.17-5.32.84-7.73,1.02-2.43,2.88-4.34,5.06-5.34,2.17-.99,4.79-1.04,6.86.35,1.01.68,1.9,1.74,2.22,3.07.31,1.34-.01,2.77-.82,3.74-.6.71-1.32.51-1.46.17-.17-.36-.05-.77.16-1.14"/>
  <path class="cls-1" d="M3494.89,48.29c-6.96-2.33-13.46-7.26-18.43-13.71-2.7-3.53-4.92-7.57-6.32-12.02-1.36-4.42-1.83-9.53-.18-14.13,1.36-3.73,4.04-6.89,7.46-8.02,3.44-1.14,7.17.16,9.41,2.98,2.25,2.77,2.47,7.66-.35,10.08-1.35,1.11-3.31,1.47-4.89.45-1.55-1.07-2.35-3.37-1.6-5.5.46-.97,1.11-.51.91.09-.31,1.4.3,2.72,1.06,3.36.72.59,1.63.56,2.48.15.86-.44,1.35-1.15,1.63-2.23.25-1.08.18-2.37-.32-3.45-.91-2.26-3.64-3.95-6.2-3.8-2.58.11-5.07,2.1-6.42,4.54-2,3.42-2.21,7.89-1.29,11.99.92,4.13,2.83,8,5.17,11.42,4.77,6.87,11.4,11.87,18.23,16.07,1.2.73,1.14,2.22-.34,1.72"/>
  <path class="cls-1" d="M3294.49,34.6c1.73-2.37,5.12-2.93,7.51-.55,2.19,2.38,2.37,6.04.86,8.82-1.64,2.81-4.54,3.88-7.13,3.53-2.71-.37-4.87-2.27-6.2-4.49-1.5-2.48-1.98-5.42-1.9-8.1.08-2.71.69-5.31,1.66-7.7,1.94-4.8,5.35-8.66,9.37-11.05,6.85-3.99,14.69-3.31,21.12-.31,6.52,3.08,11.82,8.5,16.19,14.96.5.74.05,1.35-.47.88-4.5-4.24-9.14-9.26-14.99-12.54-5.73-3.3-12.93-4.34-18.43-1.93-3.78,1.63-7.13,4.7-9.29,8.62-2.13,3.85-3.19,8.77-2.05,13.05.58,2.09,1.86,3.96,3.56,4.92,1.66.97,3.84.83,5.34-.41,1.52-1.16,2.03-3.72,1.16-5.6-.78-1.95-3.35-2.47-4.96-1.14-.56.43-1.02.79-1.41.77-.34.02-.66-.59.05-1.69"/>
  <path class="cls-1" d="M3262.17,12.49c-1.92-.06-3.8.03-5.05.75-1.26.71-1.82,1.87-1.94,3.47-.04,1.62.41,3.09,1.54,4.17,1.09,1.1,2.71,1.77,4.35,1.84,3.66.19,7.36-2.47,10.46-5.7,3.12-3.29,6.48-7.08,10.41-9.72,6.46-4.54,13.9-6.9,21.2-6.41,7.25.57,14.39,3.63,19.82,9.66.62.69.24,1.36-.34.95-5.05-3.69-10.99-6.76-17.76-7.76-6.67-1.01-13.96.71-19.36,4.14-3.81,2.35-7.15,5.48-10.25,9.04-3.12,3.47-6.63,7.26-11.34,8.52-2.32.63-4.86.43-7.06-.74-2.2-1.1-4.04-3.49-4.35-6.26-.4-2.66.53-5.75,2.74-7.13,2.17-1.38,4.63-1.06,6.77-.59,1.54.37,1.8,1.84.14,1.76"/>
  <path class="cls-1" d="M3239.08,24c.28-.45.38-1.2.24-1.75-.12-.48-.47-.98-.98-1.37-1.04-.81-2.58-1.03-4.02-.64-1.45.37-2.85,1.37-3.84,2.69-.98,1.28-1.57,3.07-1.69,4.91-.32,4.13,1.66,8.27,4.76,11.1,3.09,2.88,7.07,4.64,11.16,5.34,6.88,1.17,14.04-.5,20.14-4.36,6.15-3.83,11.27-9.64,15.2-16.44.44-.77,1.13-.54.9.18-2.01,6.38-6.77,12.94-13.15,17.4-6.34,4.58-14.14,6.4-20.56,6.03-4.51-.18-9.04-1.49-12.96-4.13-3.86-2.59-7.27-6.81-8.05-12.08-.4-2.57-.17-5.32.84-7.73,1.02-2.43,2.88-4.34,5.06-5.34,2.17-.99,4.79-1.04,6.86.35,1.01.68,1.9,1.74,2.22,3.07.31,1.34-.01,2.77-.82,3.74-.6.71-1.32.51-1.46.17-.17-.36-.05-.77.16-1.14"/>
  <path class="cls-1" d="M3361.01,48.29c-6.96-2.33-13.46-7.26-18.43-13.71-2.7-3.53-4.92-7.57-6.32-12.02-1.36-4.42-1.83-9.53-.18-14.13,1.36-3.73,4.04-6.89,7.46-8.02,3.44-1.14,7.17.16,9.41,2.98,2.25,2.77,2.47,7.66-.35,10.08-1.35,1.11-3.31,1.47-4.89.45-1.55-1.07-2.35-3.37-1.6-5.5.46-.97,1.11-.51.91.09-.31,1.4.3,2.72,1.06,3.36.72.59,1.63.56,2.47.15.86-.44,1.35-1.15,1.63-2.23.25-1.08.18-2.37-.32-3.45-.91-2.26-3.64-3.95-6.2-3.8-2.58.11-5.07,2.1-6.42,4.54-2,3.42-2.21,7.89-1.29,11.99.92,4.13,2.83,8,5.17,11.42,4.77,6.87,11.4,11.87,18.23,16.07,1.2.73,1.14,2.22-.34,1.72"/>
  <path class="cls-1" d="M3227.25,48.29c-7.7-2.33-14.9-7.26-20.39-13.71-2.99-3.53-5.45-7.57-6.99-12.02-1.51-4.42-2.03-9.53-.2-14.13,1.5-3.73,4.47-6.89,8.26-8.02,3.81-1.14,7.94.16,10.41,2.98,2.49,2.77,2.74,7.66-.38,10.08-1.49,1.11-3.66,1.47-5.41.45-1.71-1.07-2.61-3.37-1.77-5.5.51-.97,1.23-.51,1,.09-.34,1.4.34,2.72,1.17,3.36.8.59,1.8.56,2.74.15.95-.44,1.5-1.15,1.81-2.23.27-1.08.2-2.37-.36-3.45-1.01-2.26-4.03-3.95-6.86-3.8-2.85.11-5.61,2.1-7.1,4.54-2.21,3.42-2.45,7.89-1.43,11.99,1.02,4.13,3.13,8,5.72,11.42,5.28,6.87,12.61,11.87,20.17,16.07,1.33.73,1.26,2.22-.38,1.72"/>
  <path class="cls-1" d="M3662.65,34.6c-1.73-2.37-5.12-2.93-7.51-.55-2.19,2.38-2.37,6.04-.86,8.82,1.64,2.81,4.54,3.88,7.13,3.53,2.71-.37,4.87-2.27,6.2-4.49,1.5-2.48,1.98-5.42,1.9-8.1-.08-2.71-.69-5.31-1.66-7.7-1.94-4.8-5.35-8.66-9.37-11.05-6.85-3.99-14.69-3.31-21.12-.31-6.52,3.08-11.82,8.5-16.19,14.96-.5.74-.05,1.35.47.88,4.5-4.24,9.14-9.26,14.99-12.54,5.73-3.3,12.93-4.34,18.43-1.93,3.78,1.63,7.13,4.7,9.29,8.62,2.13,3.85,3.19,8.77,2.05,13.05-.58,2.09-1.86,3.96-3.56,4.92-1.66.97-3.84.83-5.34-.41-1.52-1.16-2.03-3.72-1.16-5.6.78-1.95,3.34-2.47,4.96-1.14.56.43,1.02.79,1.41.77.34.02.66-.59-.05-1.69"/>
  <path class="cls-1" d="M3694.97,12.49c1.92-.06,3.8.03,5.05.75,1.26.71,1.82,1.87,1.94,3.47.04,1.62-.41,3.09-1.54,4.17-1.09,1.1-2.7,1.77-4.36,1.84-3.66.19-7.36-2.47-10.46-5.7-3.12-3.29-6.48-7.08-10.41-9.72-6.46-4.54-13.9-6.9-21.2-6.41-7.25.57-14.39,3.63-19.82,9.66-.62.69-.24,1.36.34.95,5.05-3.69,10.99-6.76,17.76-7.76,6.67-1.01,13.96.71,19.36,4.14,3.81,2.35,7.15,5.48,10.25,9.04,3.12,3.47,6.63,7.26,11.34,8.52,2.32.63,4.86.43,7.06-.74,2.19-1.1,4.04-3.49,4.35-6.26.4-2.66-.53-5.75-2.74-7.13-2.18-1.38-4.63-1.06-6.77-.59-1.54.37-1.8,1.84-.14,1.76"/>
  <path class="cls-1" d="M3718.06,24c-.28-.45-.38-1.2-.24-1.75.12-.48.47-.98.98-1.37,1.04-.81,2.58-1.03,4.02-.64,1.45.37,2.85,1.37,3.84,2.69.98,1.28,1.57,3.07,1.69,4.91.32,4.13-1.66,8.27-4.76,11.1-3.09,2.88-7.07,4.64-11.16,5.34-6.88,1.17-14.04-.5-20.14-4.36-6.15-3.83-11.27-9.64-15.19-16.44-.44-.77-1.13-.54-.9.18,2.01,6.38,6.77,12.94,13.15,17.4,6.34,4.58,14.14,6.4,20.56,6.03,4.51-.18,9.04-1.49,12.96-4.13,3.86-2.59,7.27-6.81,8.05-12.08.4-2.57.17-5.32-.84-7.73-1.02-2.43-2.88-4.34-5.06-5.34-2.17-.99-4.79-1.04-6.86.35-1.01.68-1.9,1.74-2.22,3.07-.31,1.34.01,2.77.82,3.74.6.71,1.32.51,1.46.17.17-.36.05-.77-.16-1.14"/>
  <path class="cls-1" d="M3596.12,48.29c6.96-2.33,13.46-7.26,18.43-13.71,2.7-3.53,4.92-7.57,6.32-12.02,1.36-4.42,1.83-9.53.18-14.13-1.36-3.73-4.04-6.89-7.46-8.02-3.44-1.14-7.17.16-9.41,2.98-2.25,2.77-2.47,7.66.35,10.08,1.35,1.11,3.31,1.47,4.89.45,1.55-1.07,2.35-3.37,1.6-5.5-.46-.97-1.11-.51-.91.09.31,1.4-.3,2.72-1.06,3.36-.72.59-1.63.56-2.48.15-.86-.44-1.35-1.15-1.63-2.23-.25-1.08-.18-2.37.32-3.45.91-2.26,3.64-3.95,6.2-3.8,2.58.11,5.07,2.1,6.42,4.54,2,3.42,2.21,7.89,1.29,11.99-.92,4.13-2.83,8-5.17,11.42-4.77,6.87-11.4,11.87-18.23,16.07-1.2.73-1.14,2.22.34,1.72"/>
</svg>