<?xml version="1.0" encoding="UTF-8"?>
<svg id="Layer_1" data-name="Layer 1" xmlns="http://www.w3.org/2000/svg" viewBox="0 0 229.04 200.63">
  <defs>
    <style>
      .cls-1 {
        fill: #f3e7ed;
      }

      .cls-1, .cls-2, .cls-3, .cls-4 {
        stroke-width: 0px;
      }

      .cls-2 {
        fill: #ded4d6;
      }

      .cls-3 {
        fill: #878687;
      }

      .cls-4 {
        fill: #f0efef;
      }
    </style>
  </defs>
  <path class="cls-3" d="M227.89,99.3c1.19.41,1.67,2.23.38,2.87-10.19,5.15-14.02,20.56-26.7,20.96,3.51,8.09,3.69,17.34-1.53,26.49-4.81,8.43-13.51,12.87-22.9,13.88.22.12.41.27.54.53,2.38,4.75,3.27,9.96,2.51,15.24-.93,6.37-7.24,13.17-5.15,19.39.36,1.06-.8,2.29-1.89,1.89-10.72-3.97-27.19-3.69-33.6-14.71-4.61,8.58-12.33,14.5-24.35,14.06-10.92-.4-19.02-5.93-24.18-13.78-3.09,3.42-6.8,5.89-11.27,7.3-6.31,2.01-13.26,1.9-18.4,6.64-.96.88-2.7.31-2.65-1.1.39-13.01-10.08-23.8-6.03-36.7-9.73-1.4-18.64-7.72-23.07-16.51-4.39-8.68-4.04-17.62-.65-25.34-12.81-2.65-17.49-14.33-28.24-20.3-1.1-.61-.94-2.54.36-2.78,7.99-1.51,10.39-9.95,15.87-14.83,3.54-3.14,7.98-4.94,12.68-5.01-4.27-8.45-5.11-18.19-.09-27.56,4.68-8.75,14.14-13.66,23.82-14.4-.91-4.79-1.37-9.59-.19-14.39,1.69-6.91,4.88-12.26,4.68-19.66-.03-1.14,1.31-1.86,2.26-1.29,10.3,6.07,26.59,1.58,32.73,13.84,5.03-7.14,12.73-12.25,22.65-13.07,10.21-.84,19.81,3.52,25.77,11.58,8.1-8.16,22.74-2.06,30.65-11.11,1.13-1.28,2.81.13,2.57,1.49-1.29,7.89,4,14.5,5.11,22.04.63,4.23,0,8.23-1.49,12.1,9.11.4,17.87,3.82,23.61,11.41,7.36,9.78,5.54,20.58-.44,29.99,4.66.61,9.17,2.87,12.77,5.77,4.95,4,7.81,12.98,13.83,15.06ZM222.97,101.96c-.85.03-1.73-.01-2.6-.08-3.93,1.19-7.75,2.52-11.35,4.66-2.52,1.49-4.88,3.26-7.01,5.27-.79.75-1.47,1.71-2.32,2.39-.36.43-.72.84-1.09,1.27-.38-.01-.75-.01-1.13-.03.54.28.88.89.61,1.53,1,1.45,1.91,2.95,2.69,4.5,10.65-1.46,14.53-13.05,22.19-19.51ZM222.61,99.58c-1.73-1.67-3.04-3.76-4.55-6.02-4.88-7.23-10.74-10.12-18.64-12.38-.81,1.1-1.68,2.16-2.59,3.21,3.74,4.41,7.35,8.4,12.6,11.19,4.26,2.26,8.62,3.26,13.18,4ZM206.17,104.96c2.7-1.68,5.63-3.08,8.68-4.02-8.16-2.17-15.87-7.63-19.86-14.55-5.77,6.03-12.91,10.98-19.57,13.89,7.85,2.61,15.15,7.5,20.41,13.75,2.24-3.75,7.01-7.01,10.34-9.07ZM197.77,78.53c5.85-7.92,8.41-17.1,3.04-26.07-4.83-8.09-14.17-12.19-23.96-12.7-.53.5-1.31.39-1.85-.06-11.54-.08-23.38,4.75-28.98,13.88-.16.25-.39.34-.62.34,1.91,1.15,3.76,2.41,5.46,3.83.03.01.04.03.06.05-.01-.23.05-.47.22-.69,10.22-12.98,34.49-14.59,44.27.01,4.98,7.41,3.17,16.86-2.04,23.65-5.73,7.49-15.07,11.31-23.89,13.84.13,1.41.23,2.82.27,4.24.13-.01.27,0,.41.03.19.04.38.09.57.13.12-.09.23-.18.39-.23,8.28-3.35,19.31-10.63,26.2-19.64.09-.23.25-.44.45-.61ZM197.79,147.19c11.01-20.98-8.37-41.13-28.05-45.19-.06,2.55-.31,5.1-.71,7.62,14.58,1.27,31.89,18.42,23.2,33.38-9.39,16.18-32.45,12.89-44.01,1.18-1.29.96-2.61,1.86-3.98,2.69.06.12.13.23.14.39.1.61.19,1.22.27,1.84,7.97,6.27,16.38,10.54,26.82,11.37,11.07.87,21.02-3.16,26.33-13.27ZM193.23,75.7c2.61-5.05,3.13-10.97.28-16.08-6.92,4.09-14.04,8.07-21.24,11.76,7.48-1.06,15.63-.43,20.96,4.32ZM191.68,78.26c-.06-.05-.13-.09-.19-.16-6.29-5.99-17.63-4.81-25.9-3.44-.45.22-.91.45-1.35.66,2.43,5.19,4.08,10.75,4.9,16.46,7.24-2.45,14.49-5.03,20.04-10.54.92-.92,1.75-1.91,2.5-2.98ZM190.83,138.7c.98-3.23.69-6.55-.49-9.7-4.11,2.51-8.97,4.06-13.83,4.32,4.67,1.8,9.44,3.34,14.08,5.21.1.05.17.1.25.17ZM186.98,145.01c1.2-1.24,2.13-2.54,2.82-3.86-5.06-1.32-10.75-3.1-16.15-5.42,3.03,4.27,4.48,9.66,3.67,14.93,3.47-.85,6.74-2.64,9.65-5.65ZM189.05,126.22c-3.98-7.18-12.37-12.94-20.13-13.66-.16-.01-.28-.08-.41-.12-.53,2.51-1.23,5.01-2.11,7.43-1,2.77-2.25,5.39-3.69,7.92,9.07,3.39,17.89,3.76,26.34-1.57ZM191.99,57.37c-4.4-5.55-10.91-7.87-17.62-7.81.09.13.16.3.19.48,1.37,7.5-1.38,15.14-6.39,20.7,7.75-4.76,15.8-9.2,23.82-13.36ZM175.5,163.66c-.75.04-1.51.06-2.29.08-4.88,9.28-4.64,18.98-1.14,28.47.43-1.41,1.05-2.83,1.76-4.35,3.7-7.94,4.36-14.49,1.15-22.69-.26-.65.04-1.19.52-1.51ZM174.93,37.03c4.26-10.03-1.47-18.09-3.17-27.19-1.06,3.2-2.35,6.3-2.87,9.66-.96,6.26.3,12.12,3.25,17.67,0,.01,0,.03.01.04.92-.09,1.85-.16,2.78-.18ZM174.32,151.17c.63-10.04-3.76-17.21-12.76-21.45-3.21,5.12-7.24,9.64-11.91,13.35,7.09,4.88,16.21,8.91,24.67,8.1ZM171.81,50.41c0-.3.1-.54.26-.75-7.34.63-14.67,3.95-19.55,8.84-.16.16-.34.23-.5.26,4.51,4.04,8.18,8.85,10.98,14.13,6.57-6.08,8.93-13.62,8.81-22.47ZM166.16,22.5c.16-3.93,1.44-7.52,2.63-11.15-5.89,6.35-14.54,10.22-23.23,9.12,3.42,8.99,3,18.89,1.09,28.34,4.71-7.13,14.94-10.14,22.99-11.31-2.34-4.71-3.67-9.69-3.47-15.01ZM168.81,189.93c-3.47-8.38-2.65-18.06,1.25-26.31-9.43-.66-18.8-4.53-25.05-11.14.75,8.47.12,18.06-2.56,26.39,9.51.58,19.87,4,26.35,11.06ZM165.66,110.69c1.45-7.63,1.2-15.69-.61-23.36-3.67.75-7.35,1.5-11.01,2.29,4.32.7,8.11,3.16,8.71,8.12.56,4.68-2.16,8.59-5.99,10.49,3.07.4,6.13,1.2,8.9,2.46ZM152.92,135.66c5.82-6.21,10.1-13.93,12.2-22.59-3.47-1.27-6.8-2.29-10.39-2.98,3.38,3.29,4.37,9.31,2.01,13.39-2.77,4.79-8.54,6.25-13.09,4.23.04.12.06.25.1.38,3.2,2.34,6.31,4.83,9.17,7.57ZM164.46,85.04c-2.16-7.7-5.95-14.93-11.29-20.76-3.35,2.82-6.95,5.29-10.27,8.15,4.53-1.72,9.57-1.25,12.06,3.92,1.98,4.13.87,8.29-1.71,11.51,3.7-1.11,7.44-2.08,11.22-2.82ZM149.13,107.39c5.45-.3,12.26-3.21,10.71-10-1.16-5.05-6.82-5.59-11.16-5.06.14.56.26,1.13.39,1.69,3.49-.61,8.46-.28,8.86,4.15.38,4.13-4.86,7.01-8.42,7.01-.1.74-.22,1.47-.38,2.2ZM144.75,18.5c9.35-.48,17.4-3.53,23.33-10.48-7.79,3.51-17.81,2.25-25.65,6.18.25.38.49.74.71,1.13.61,1.04,1.13,2.1,1.62,3.17ZM171.19,196.67c-7.34-10.32-17.68-13.08-29.69-15.15-.27.7-.53,1.41-.84,2.1,7.65,9.57,19.56,9.74,30.53,13.05ZM155.78,98.83c.26-3.3-3.84-3.2-6.39-2.94.27,1.75.43,3.52.41,5.33,0,.84-.05,1.67-.12,2.5,2.38-.67,5.87-2.08,6.09-4.89ZM154.33,122.09c1.45-2.52,1.46-5.54-.09-8-1.41-2.24-3.53-3-5.81-3.95-.19.65-.41,1.28-.66,1.91,3.92,1.32,5.55,6.65,3.03,10.04-2.34,3.13-6.8,2.95-8.99.14-.31.38-.63.75-.96,1.11.22.19.44.39.67.58.08.04.16.09.23.16,4.02,2.98,9.79,2.85,12.57-2.01ZM148.16,89.68c3.3-2.65,6.12-6.53,4.83-10.97-2.01-6.8-8.65-4.44-13.03-1.75.34.34.65.69.96,1.03,2.6-1.95,6.9-4,9.13-.41,2.24,3.57-.66,7.17-3.25,9.47.39.88.76,1.76,1.07,2.68.09-.03.19-.03.28-.05ZM151.3,137.32s-.03-.01-.03-.01c-2.34-2.33-4.68-4.61-7.13-6.78.27,4.7-2.17,9.43-6.91,11.33-3.04,1.22-6.39.74-8.95-.91,1.03,2.78,1.8,5.69,2.23,8.6,7.87-2.34,14.98-6.58,20.79-12.24ZM149.52,120.15c1.35-2.83-.41-4.73-2.57-6.07-1.11,2.45-2.5,4.76-4.13,6.9,1.85,2.21,5.34,1.99,6.7-.83ZM146.23,85.83c1.51-1.8,3.39-4.17,2.57-6.61-1.13-3.31-4.73-1.24-6.69.18,1.59,1.98,2.98,4.14,4.11,6.43ZM116.36,132.34c16.57-2.23,31.13-14.15,30.52-32.07-.57-16.7-13.75-30.03-30.54-30.31-17.06-.3-30.84,13.47-31.32,30.4-.47,16.64,13.36,30.14,29.53,31.35.65.04,1.09.4,1.32.85.13-.1.3-.19.49-.22ZM143.43,69.39c2.55-2.47,5.3-4.86,8.29-6.62-2.55-2.52-5.37-4.77-8.54-6.62-4.02-2.35-8.47-4.04-13.13-5.12-1.24,3.36-2.2,6.56-2.91,9.99,2.91-2.51,7.53-3.26,11.11-1.27,3.78,2.11,5.43,5.9,5.17,9.65ZM142.99,52c2.61-11.02,3.76-22.91-1.45-33.39-4.76-9.59-14.27-15.34-25.01-14.74-10.4.6-19.41,7.23-24.18,16.33-5.28,10.04-4.32,21.26-1.03,31.72,1.94-.89,3.95-1.68,6.02-2.35-4.8-15.17-.22-38.56,19.2-39.25,7.62-.27,14.72,3.87,18.89,10.17,5.69,8.6,4.23,19.74,4.23,29.52,0,.38-.13.65-.32.87,1.24.52,2.46,1.06,3.64,1.68-.01-.18-.03-.36.03-.56ZM141.82,148.46s-.04-.05-.06-.09c-.01-.03-.01-.04-.03-.06-1.06.57-2.13,1.11-3.22,1.6.66,8.98.08,20.7-4.01,29.37-.04.35-.21.67-.45.94-3.58,6.96-9.6,11.72-19.33,11.06-21.64-1.47-24.13-23.42-20.01-40.4.05-.19.16-.32.28-.43-2.06-.89-4.06-1.9-6-3.03-.08.13-.17.26-.28.38-2.43,11.48-2.94,23.65,3.27,34.1,5.14,8.65,13.97,14.77,24.22,14.88,26.25.3,25.51-29.68,25.63-48.32ZM136.35,139.31c5.72-2.45,5.99-8.8,3.45-13.67-.19-.39-.19-.75-.08-1.05,0-.01-.01-.03-.01-.03-.97.96-1.98,1.86-3.04,2.72,1.82,2.95,3.16,9.24-1.29,10.52-3.4.98-7.17-2.02-7.97-5.33-.53.19-1.06.38-1.59.54,0,.01.01.03.01.04.92,4.97,5.56,8.37,10.52,6.26ZM137.75,74.88c3.73-3.45,4.2-9.53-.53-12.48-4.8-3.01-9.37.23-10.93,4.83-.05.19-.12.4-.18.6-.05.17-.1.32-.14.49t-.01.03c.69.21,1.35.45,1.99.7,1.58-2.96,5.52-7.39,9.07-4.99,3.64,2.45,1.51,7.17-.41,9.9.39.31.78.62,1.15.94ZM136.91,49.92c0-7.17.21-16.47-2.25-23.93-4.05,1.97-7.7,3.62-10.78,7.15-3.31,3.79-4.93,8.19-6.13,12.98,0,.04-.03.05-.03.08,0,.12.01.23.01.35,6.58.09,13.14,1.19,19.17,3.38ZM135.11,72.84c1.23-1.9,3.51-5.64.7-7.21-2.29-1.27-4.9,2.1-6.48,3.97,2.04.89,3.97,1.98,5.78,3.23ZM132.3,177.33c3.45-7.83,3.86-18.29,3.43-26.24-6.34,2.48-13.2,3.79-20.21,3.66.36.13.7.39.87.8,3.52,8.6,7.43,17.35,15.91,21.77ZM133.94,135.92c3.76.06,2.26-5.17,1.06-7.4-1.91,1.35-3.96,2.46-6.11,3.36,1.03,1.98,2.6,3.98,5.05,4.04ZM133.68,23.43c-2.55-5.72-7.1-9.88-15.25-10.31-.41-.03-.8-.03-1.2-.03.13.19.22.4.21.66-.19,8.33-.39,16.44-.12,24.67,2.63-7.22,9.09-13.65,16.37-14.99ZM128.26,150.18c-.7-3.66-1.6-7.17-2.73-10.69-1.37,5.59-6.53,9.95-12.81,8.93-3.92-.63-7.23-3.97-8.19-7.71-.58,1.27-1.2,2.51-1.75,3.79-.66,1.54-1.15,3.2-1.84,4.73,4.15,1.41,8.46,2.42,12.85,2.99.25-.38.65-.63,1.23-.62,4.54.13,8.99-.38,13.23-1.42ZM116.45,188.4c6.99-.01,11.57-3.43,14.52-8.45-7.09-3.62-11.2-10-14.37-17,.25,8.49.53,17.04-.14,25.45ZM125.13,59.93c.34-3.25,1.28-6.53,2.69-9.38-8.2-1.54-16.93-1.22-25.14.84.05.17.09.35.05.56-.32,2.06,1.19,4.94,1.73,6.96.31,1.15.63,2.32.89,3.49.96-4.39,5.64-7.99,10.3-8.1,3.95-.1,7.56,2.3,9.47,5.63ZM123.46,67.66c.75-4.92-1.73-10.35-7.34-10.47-5.39-.12-8.91,4.46-8.36,9.48.21.31.41.63.6.97.4-.1.83-.17,1.24-.25v-.08c.75-3.54,2.77-7.83,6.99-7.8,4.09.03,6.57,4.08,5.3,7.79,0,.01-.01.01-.01.03.53.09,1.06.19,1.58.32ZM114.67,145.95c6.42-.06,9.07-6.26,8.5-11.77-.01-.19.01-.35.06-.49-1.23.25-2.47.41-3.74.5.35.13.62.44.62.94-.08,3.62-1.6,9.2-6.38,8.34-4.42-.79-5.25-5.73-4.35-9.42-.47-.12-.93-.22-1.4-.35-.01.08-.03.16-.05.22-2.48,5.5-.14,12.1,6.73,12.02ZM120.2,66.85c1.24-3.67-2.5-7.05-5.93-4.79-1.69,1.13-2.47,3.23-3.23,5.1,1.72-.25,3.49-.39,5.29-.36,1.31.01,2.59.12,3.84.27.01-.06,0-.13.03-.22ZM118.69,134.24c-.76.03-1.54.04-2.33.01-.18-.01-.34-.06-.47-.13-.22.44-.66.76-1.35.71-1.27-.09-2.52-.26-3.75-.49-.08,2.56-.03,5.93,2.78,6.96,3.66,1.33,4.24-3.91,4.45-6.17.05-.47.32-.75.66-.89ZM115.31,46.56c-.04-.05-.08-.08-.1-.14-2.01-3.93-3.74-8.02-5.87-11.89-2.23-4.05-5.06-7.18-8.18-10.48-3.21,7.5-3.27,17.44-2.12,25.01,5.21-1.54,10.74-2.37,16.27-2.5ZM114.95,13.42c.01-.09.06-.16.09-.22-6,.61-10.03,3.83-12.61,8.32,5.63,3.6,9.33,10,11.88,16.51-.97-8.2-.89-16.73.65-24.61ZM114.77,188.34c-.98-8.95-.89-18.11-.93-27.15-1.63,7.34-6.16,13.74-12.35,18.22.05.5-.16,1.02-.7,1.31-.22.12-.41.21-.6.28,3.54,4.3,8.85,6.92,14.58,7.35ZM98.09,177.87c8.33-5.27,13.17-13.78,14.84-23.36-5.64-.18-11.18-1.41-16.4-3.45,0,.03.01.04.01.06-.81,7.87-2.29,16.15.3,23.84.34,1.02.76,1.99,1.25,2.91ZM104.59,68.75c.43-.14.85-.3,1.28-.44-3.2-3.29-6.78-6.36-11.76-4.58-6.22,2.24-4.14,7.94-2.19,12.43.1.12.19.25.26.39.66-.65,1.35-1.25,2.06-1.85-2.9-2.21-2.52-6.84.53-8.93,3.47-2.35,8.19-.72,9.82,2.98ZM105.33,132.91c-1.06-.38-2.1-.8-3.12-1.27-.01.09-.03.18-.06.27-1.16,2.73-4.64,4.75-7.52,3.43-3.38-1.54-2.3-5.45-.53-7.81.27-.35.63-.39.92-.23-1.07-.84-2.11-1.73-3.08-2.68-.01.01-.01.04-.04.05-3.44,3.52-3.61,9.41.89,12.19,4.23,2.64,10.92,1.07,12.54-3.95ZM103.5,62.57c-.69-1.81-1.22-3.7-1.79-5.51-.47-1.49-1.54-3.48-1.13-5.1-7.8,2.25-15.02,6.09-20.69,11.38-.16.16-.3.31-.45.47,2.68,2.54,5.3,5.17,7.83,7.89-.78-3.75.49-7.79,4.24-9.91,3.84-2.17,8.38-1.49,11.98.78ZM99.27,148.62c.43-2.82,1.58-5.9,2.92-8.49-3.4,1.46-7.9,1.25-10.98-.58-3.6-2.13-5.3-6.25-4.86-10.1-2.81,1.76-5.64,3.51-8.55,5.07,5.91,6.35,13.32,11.05,21.48,14.1ZM103,69.37c-1.53-2.25-4.09-3.79-6.8-2.26-2.64,1.47-2.68,4.64-.89,6.71,2.35-1.81,4.94-3.3,7.7-4.45ZM96.05,133.64c2.13.41,3.29-1.45,4.51-2.81-1.91-1-3.75-2.16-5.46-3.48.23.18.35.5.19.87-.74,1.71-2.08,4.88.75,5.42ZM91.13,16.74c-.27-.17-.5-.41-.65-.76-3.96-9.52-16.34-8.62-25.87-10.93.22.34.41.7.62,1.05h.01c.74.83,1.51,1.64,2.3,2.42,1.91,1.86,3.98,3.57,6.21,5.05,4.76,3.13,9.81,4.73,15.45,5.2.3.03.52.14.71.28.38-.78.78-1.55,1.22-2.3ZM90.63,78.2c-.05-.03-.12-.03-.18-.06-4.17-2.24-10.35-3.95-13.57.84-3.03,4.52,1.98,10.62,6.64,11.48.01,0,.04.01.05.03.22-.67.45-1.32.72-1.97,1.02-2.63,2.37-5.07,3.97-7.32-2.74-1.27-6.51-2.72-8.46.63-1.82,3.14,1.71,4.94,4.11,5.95.32.14.41.47.32.71-.08.21-.28.38-.61.3-3.62-.78-7.75-3.36-5.5-7.63,2.17-4.11,7.79-3.82,10.97-1.09.49-.65,1-1.27,1.53-1.86ZM89.88,122.98c.1-.08.18-.16.28-.23-.62-.7-1.19-1.42-1.75-2.16-3.07,1.73-7.59,2.55-9.6-1.06-1.89-3.39,1.77-5.95,4.71-6.47.28-.05.53.13.62.35.1.22.06.47-.22.61-1.67.83-5.11,2.61-3.16,4.92,1.77,2.07,4.35.96,6.44-.06-1.14-1.73-2.13-3.58-2.94-5.51-.44-1.06-.83-2.16-1.15-3.27-3.6,2.37-8.23,4.41-5.67,9.68,2.34,4.8,8.02,4.39,12.42,3.22ZM89.45,52.79c.12-.06.23-.1.35-.17-4.8-9.77-4.84-21.41-.93-31.19-6.49-.18-12.64-2.63-17.81-6.51-.84-.63-2.02-1.54-3.27-2.63,2.04,8.11.18,17.49-4.85,23.87,10.05,2.03,18.91,8.15,26.13,15.36.39.4.48.85.39,1.27ZM89.39,183.36c-.79-1.45-1.47-2.98-2.07-4.53-.05.01-.09.05-.14.06-8.77,2.55-15.91,7.5-20.97,14.8,1.67-.61,3.42-1.06,5.25-1.47,7.13-1.57,12.98-3.27,17.93-8.86ZM87.47,53.85c-.16-.06-.3-.16-.44-.3-7.57-7.53-16.97-13.93-27.88-15.02-10.53-1.03-21.89,3.26-27.09,12.89-5.06,9.37-3,21.5,2.96,29.92,6.43,9.09,16.18,13.31,26.11,17.46.03,0,.04.03.06.04.06-2.88.38-5.74.89-8.56-.1.32-.41.58-.79.47-14.22-4.4-34.05-20.25-24.81-37.19,9.11-16.73,34.68-5.59,44.39,4.3.1.12.17.23.22.35,1.24-.98,2.52-1.94,3.87-2.83.81-.53,1.66-1.02,2.51-1.51ZM87.36,125.97c-4.68,1.6-10.25-.03-12.64-4.84-2.01-4.06-.74-8.07,2.13-10.71-1.58.38-3.17.74-4.73,1.18-1.95.54-4,1.51-6.04,1.62.91,3.42,2.16,6.77,3.79,9.96,1.85,3.64,4.11,6.92,6.68,9.9,3.48-2.54,7.18-4.81,10.82-7.1ZM86.53,176.59c-2.78-8.56-2.96-18.24-.43-26.81-7.54,5.65-15.95,11.15-25.25,12.46,5.89,7.79,7.49,17.72,5.58,27.13,5.17-6.2,12.06-10.7,20.1-12.78ZM73.73,78.64c2.55-5.29,8.16-6.33,13.21-4.89-3.1-2.68-6.12-5.51-9.02-8.41-5.89,6.21-9.91,13.78-11.97,21.86,3.61.94,7.22,1.75,10.88,2.45-3.18-2.68-4.94-7.23-3.1-11.01ZM82.38,95.34c.13-.76.28-1.53.45-2.26-4.64.03-9.91.89-10.75,6.51-.91,6.05,5.58,7.85,10.36,7.59-.19-.97-.32-1.95-.43-2.95-3.35.43-8.16-.08-8.03-4.45.1-3.65,5.06-4.64,8.4-4.44ZM86.32,145.76c-1.8-1.18-3.52-2.48-5.17-3.87-.04.26-.14.5-.35.74-10.48,12.38-32.78,17.94-42.28,1.01-8.76-15.6,8.34-33.87,23.03-37.5-.22-1.94-.35-3.88-.36-5.81-.09.04-.21.05-.32.05-.1.09-.23.16-.39.18-10.66,2.02-20.84,6.99-26.56,16.6-5.34,8.98-5.87,20.56-.23,29.5,5.54,8.77,16.04,13.82,26.3,12.55,10.04-1.25,18.49-7.45,26.34-13.44ZM81.87,100.36c.03-1.33.14-2.63.32-3.92-.96.12-1.9.28-2.83.61-1.14.4-3.08,1.07-3.44,2.37-.38,1.37.89,2.57,2.1,2.95,1.24.39,2.59.19,3.87-.01-.03-.66-.04-1.32-.01-1.99ZM79.12,59.85c-.05-.04-.1-.05-.14-.09-3.95-4.05-11.57-8.73-19.26-10.92.74,3.88,1.5,7.46,3.26,11.05,1.63,3.31,3.92,6.03,6.18,8.86.39.04.8.12,1.27.32.12.05.22.16.31.26,2.38-3.45,5.17-6.65,8.38-9.48ZM78.69,140.53c.16-.17.31-.28.47-.36-3.91-3.57-7.31-7.68-10.08-12.16-.04.08-.1.14-.16.22-.1.17-.25.34-.44.47-.12.08-.22.17-.34.26-1.05.93-2.13,1.85-3.25,2.74-5.01,5.07-7.34,11.9-6.84,19.28,0,.16-.04.27-.06.4,7.72-.49,15.77-4.99,20.7-10.84ZM71.1,109.76c1.23-.41,2.48-.82,3.75-1.16-3.47-1.33-6.09-4.36-5.76-8.76.28-3.91,2.9-6.87,6.24-8.42-3.32-.61-6.56-1.54-9.72-2.74-1.69,7.65-1.66,15.67.17,23.36,1.53-1.15,3.52-1.67,5.32-2.28ZM67.28,125.82c.17-.06.34-.09.49-.1-1.97-3.54-3.56-7.28-4.63-11.18-.6-2.16-1.03-4.35-1.36-6.53-7.41,3.17-16.57,10.05-20.61,18.19-2.51,5.02-3.07,10.53-.06,15.94.22.41.45.79.69,1.16,6.57-3.96,12.83-8.15,19.08-12.47-7.04,1.25-15.46,1.01-19.34-3.98-.13-.17-.16-.36-.1-.52.06-.16.21-.27.43-.28,4-.17,7.93,1.86,11.99,2.08,4.66.25,9.11-.62,13.43-2.3ZM64.85,70.81c-.1-.05-.21-.12-.3-.17-8.72-5.03-17.65-9.79-25.99-15.41-.26.54-.49,1.11-.71,1.73-2.21,6.52-.5,12.28,3.09,17.17,1.99-4.52,16.16-4.01,23.91-3.32ZM60.44,35.27c5.81-9.37,6.3-17.98,2.9-27.45-1.02-1.28-1.8-2.57-2.08-3.79-.14-.05-.28-.1-.41-.16-.23,4.61-1.45,8.67-3.14,13.14-2.34,6.21-2.48,11.95-2.23,18.42.57,0,1.14,0,1.71.01,1.05.04,2.07.14,3.09.27.03-.16.08-.31.17-.45ZM61.96,195.74c4.81-11.29,3.01-22.86-2.9-33.29-1.42.1-2.86.13-4.32.03-.82,8.34,1.38,14.08,4.61,21.9,1.54,3.75,2.28,7.53,2.45,11.46.05-.04.12-.06.17-.1ZM62.13,90.07c1.06-5.67,3.01-11.13,5.78-16.17-3.83-.3-7.65-.56-11.51-.47-3.04.06-11.98-.45-14.3,2.19,5.2,6.18,13.26,10.89,19.7,13.93.23.1.32.31.32.52ZM65.88,68.38c-5.27-4.77-8.6-12.5-8.8-19.29-.01-.35.12-.62.31-.83-7.52-1.63-14.76-.57-18.4,6.12,5.08,2.35,10.03,5.02,14.93,7.72,1.32.71,7.83,3.78,11.95,6.27ZM55.08,151.35c-.05-.13-.1-.25-.12-.39-.48-4.9.44-9.65,2.45-13.88-4.66,3-9.6,5.61-14.54,7.74,3.26,4.22,7.59,6.18,12.21,6.53ZM33.69,112.68c5.38-6.74,13.23-11.75,21.92-13.53-8.62-2.68-16.71-8.41-22.24-15.72-5.52,8.85-14.83,14.85-25.19,15.67,9.81,1.11,19.11,6.02,25.51,13.58ZM31.86,81.3c-.3-.45-.6-.92-.88-1.38-.09.05-.19.1-.32.13-4.58.78-8.84,1.95-12.29,5.32-2.55,2.48-4.23,5.71-6.47,8.45-1.02,1.27-2.11,2.35-3.27,3.29,9.64-1.73,17.96-7.06,23.16-15.72.03-.04.05-.05.08-.08ZM29.7,118.87c.79-1.57,1.71-3.08,2.73-4.51-7.3-7.84-15.98-12.54-26.39-14.19,2.59,2.13,4.81,4.59,7.14,7.17,4.79,5.3,9.94,8.86,16.52,11.54Z"/>
  <path class="cls-2" d="M220.37,101.88c.87.06,1.75.1,2.6.08-7.66,6.46-11.54,18.05-22.19,19.51-.78-1.55-1.69-3.05-2.69-4.5.27-.63-.06-1.24-.61-1.53.38.01.75.01,1.13.03.36-.43.72-.84,1.09-1.27.84-.69,1.53-1.64,2.32-2.39,2.13-2.01,4.49-3.78,7.01-5.27,3.6-2.13,7.41-3.47,11.35-4.66Z"/>
  <path class="cls-2" d="M218.06,93.56c1.51,2.25,2.82,4.35,4.55,6.02-4.57-.74-8.93-1.73-13.18-4-5.25-2.79-8.86-6.78-12.6-11.19.91-1.05,1.77-2.11,2.59-3.21,7.9,2.26,13.76,5.15,18.64,12.38Z"/>
  <path class="cls-4" d="M214.85,100.94c-3.05.94-5.98,2.34-8.68,4.02-3.32,2.06-8.1,5.32-10.34,9.07-5.27-6.25-12.56-11.14-20.41-13.75,6.66-2.91,13.8-7.87,19.57-13.89,3.98,6.92,11.69,12.38,19.86,14.55ZM198.21,103.09c2.02-1.46,2.77-4.89.57-6.55-1.41-1.06-3.93-.91-4.98.56-1.71.57-2.77,2.77-2.01,4.52,1.05,2.39,4.42,2.92,6.42,1.47Z"/>
  <path class="cls-1" d="M200.81,52.46c5.37,8.97,2.81,18.15-3.04,26.07-.21.17-.36.38-.45.61-6.88,9-17.92,16.29-26.2,19.64-.16.05-.27.14-.39.23-.19-.04-.38-.09-.57-.13-.14-.03-.28-.04-.41-.03-.04-1.42-.14-2.83-.27-4.24,8.82-2.54,18.16-6.35,23.89-13.84,5.21-6.79,7.02-16.24,2.04-23.65-9.78-14.61-34.05-12.99-44.27-.01-.17.22-.23.45-.22.69-.03-.03-.04-.04-.06-.05-1.69-1.42-3.54-2.68-5.46-3.83.23,0,.47-.09.62-.34,5.6-9.13,17.44-13.96,28.98-13.88.54.45,1.32.57,1.85.06,9.79.52,19.13,4.62,23.96,12.7Z"/>
  <path class="cls-3" d="M198.78,96.54c2.2,1.66,1.45,5.08-.57,6.55-1.99,1.45-5.37.92-6.42-1.47-.76-1.75.3-3.95,2.01-4.52,1.05-1.46,3.57-1.62,4.98-.56ZM197.04,101.07c.72-.66,1.19-2.17.19-2.82-.78-.52-1.71-.09-2.1.65-.32.61-.92.6-1.33.28-.32.57-.35,1.29.16,1.82.78.83,2.26.82,3.08.06Z"/>
  <path class="cls-1" d="M169.74,102c19.68,4.06,39.06,24.2,28.05,45.19-5.3,10.12-15.25,14.14-26.33,13.27-10.44-.83-18.85-5.1-26.82-11.37-.08-.62-.17-1.23-.27-1.84-.01-.16-.08-.27-.14-.39,1.37-.83,2.69-1.73,3.98-2.69,11.57,11.71,34.62,15.01,44.01-1.18,8.69-14.96-8.62-32.11-23.2-33.38.4-2.52.65-5.07.71-7.62Z"/>
  <path class="cls-1" d="M197.23,98.25c1,.65.53,2.16-.19,2.82-.81.75-2.3.76-3.08-.06-.5-.53-.48-1.25-.16-1.82.41.31,1.01.32,1.33-.28.39-.74,1.32-1.16,2.1-.65Z"/>
  <path class="cls-4" d="M193.52,59.62c2.85,5.11,2.33,11.04-.28,16.08-5.33-4.75-13.48-5.38-20.96-4.32,7.21-3.69,14.32-7.67,21.24-11.76Z"/>
  <path class="cls-2" d="M191.49,78.1c.06.06.13.1.19.16-.75,1.06-1.58,2.06-2.5,2.98-5.55,5.51-12.79,8.1-20.04,10.54-.83-5.71-2.47-11.27-4.9-16.46.44-.21.89-.44,1.35-.66,8.27-1.37,19.61-2.55,25.9,3.44Z"/>
  <path class="cls-4" d="M190.34,129c1.18,3.16,1.47,6.47.49,9.7-.08-.06-.14-.12-.25-.17-4.63-1.88-9.41-3.42-14.08-5.21,4.86-.26,9.72-1.81,13.83-4.32Z"/>
  <path class="cls-4" d="M189.8,141.16c-.69,1.32-1.62,2.61-2.82,3.86-2.91,3.01-6.18,4.8-9.65,5.65.8-5.27-.65-10.66-3.67-14.93,5.39,2.32,11.09,4.1,16.15,5.42Z"/>
  <path class="cls-2" d="M168.92,112.56c7.76.72,16.15,6.48,20.13,13.66-8.45,5.33-17.27,4.95-26.34,1.57,1.44-2.52,2.69-5.15,3.69-7.92.88-2.42,1.58-4.92,2.11-7.43.13.04.26.1.41.12Z"/>
  <path class="cls-4" d="M174.37,49.55c6.71-.05,13.22,2.26,17.62,7.81-8.02,4.17-16.07,8.6-23.82,13.36,5.01-5.56,7.76-13.2,6.39-20.7-.04-.18-.1-.35-.19-.48Z"/>
  <path class="cls-2" d="M173.21,163.73c.78-.01,1.54-.04,2.29-.08-.48.32-.78.87-.52,1.51,3.21,8.2,2.55,14.75-1.15,22.69-.71,1.51-1.33,2.94-1.76,4.35-3.51-9.5-3.74-19.2,1.14-28.47Z"/>
  <path class="cls-2" d="M171.76,9.84c1.69,9.11,7.43,17.17,3.17,27.19-.93.03-1.86.09-2.78.18-.01-.01-.01-.03-.01-.04-2.95-5.55-4.2-11.41-3.25-17.67.52-3.36,1.81-6.47,2.87-9.66Z"/>
  <path class="cls-2" d="M161.56,129.72c8.99,4.24,13.39,11.41,12.76,21.45-8.46.82-17.58-3.22-24.67-8.1,4.67-3.71,8.71-8.23,11.91-13.35Z"/>
  <path class="cls-2" d="M172.07,49.66c-.16.21-.26.45-.26.75.12,8.85-2.24,16.39-8.81,22.47-2.81-5.28-6.47-10.09-10.98-14.13.17-.03.35-.1.5-.26,4.88-4.89,12.21-8.2,19.55-8.84Z"/>
  <path class="cls-4" d="M168.78,11.35c-1.19,3.64-2.47,7.22-2.63,11.15-.21,5.32,1.13,10.3,3.47,15.01-8.05,1.16-18.28,4.18-22.99,11.31,1.91-9.46,2.33-19.35-1.09-28.34,8.69,1.1,17.35-2.77,23.23-9.12ZM161.01,31.13c.19-1.63-.79-3.93-2.59-4.23-.08-.13-.19-.26-.35-.35-2.07-1.31-4.62,1.22-5.01,3.14-.48,2.32,1.25,4.3,3.49,4.62,2.12.32,4.18-.98,4.45-3.18Z"/>
  <path class="cls-4" d="M170.06,163.62c-3.91,8.25-4.72,17.93-1.25,26.31-6.48-7.06-16.84-10.48-26.35-11.06,2.68-8.33,3.31-17.92,2.56-26.39,6.25,6.61,15.61,10.48,25.05,11.14ZM158.76,171.95c.58-1.72-.12-3.65-1.53-4.68-.06-.17-.18-.32-.4-.38-.14-.04-.28-.06-.43-.09-.14-.05-.27-.13-.41-.17-.22-.06-.43-.03-.62.04-1.82-.09-3.64.57-4.37,2.44-.8,2.07.23,4.62,2.37,5.36,2.11.74,4.66-.39,5.39-2.52Z"/>
  <path class="cls-4" d="M165.06,87.33c1.81,7.67,2.06,15.73.61,23.36-2.77-1.25-5.83-2.06-8.9-2.46,3.83-1.9,6.55-5.81,5.99-10.49-.6-4.97-4.39-7.43-8.71-8.12,3.66-.79,7.34-1.54,11.01-2.29Z"/>
  <path class="cls-4" d="M165.12,113.07c-2.1,8.65-6.38,16.38-12.2,22.59-2.86-2.74-5.98-5.23-9.17-7.57-.04-.13-.06-.26-.1-.38,4.55,2.02,10.32.56,13.09-4.23,2.37-4.08,1.37-10.1-2.01-13.39,3.58.69,6.92,1.71,10.39,2.98Z"/>
  <path class="cls-3" d="M158.42,26.9c1.8.3,2.78,2.6,2.59,4.23-.27,2.2-2.33,3.51-4.45,3.18-2.24-.32-3.97-2.3-3.49-4.62.39-1.93,2.94-4.45,5.01-3.14.16.09.27.22.35.35ZM158.81,30.54c.1-.93-.34-1.55-.92-2.12-.03.01-.04.03-.06.04-.53.19-1.06.16-1.53.52-.4.3-.76.79-.83,1.29-.14.96.74,1.57,1.59,1.64.92.1,1.64-.44,1.75-1.37Z"/>
  <path class="cls-4" d="M153.17,64.28c5.34,5.83,9.13,13.07,11.29,20.76-3.78.74-7.52,1.71-11.22,2.82,2.57-3.22,3.69-7.39,1.71-11.51-2.48-5.17-7.53-5.64-12.06-3.92,3.32-2.86,6.92-5.33,10.27-8.15Z"/>
  <path class="cls-2" d="M159.84,97.39c1.55,6.79-5.27,9.7-10.71,10,.16-.72.27-1.46.38-2.2,3.56,0,8.8-2.88,8.42-7.01-.4-4.44-5.37-4.76-8.86-4.15-.13-.57-.25-1.14-.39-1.69,4.35-.53,10,.01,11.16,5.06Z"/>
  <path class="cls-2" d="M168.07,8.03c-5.93,6.95-13.97,10-23.33,10.48-.49-1.07-1.01-2.13-1.62-3.17-.22-.39-.47-.75-.71-1.13,7.84-3.93,17.87-2.68,25.65-6.18Z"/>
  <path class="cls-2" d="M141.5,181.52c12.01,2.07,22.36,4.83,29.69,15.15-10.97-3.31-22.89-3.48-30.53-13.05.31-.69.57-1.4.84-2.1Z"/>
  <path class="cls-3" d="M157.23,167.27c1.41,1.03,2.11,2.96,1.53,4.68-.74,2.13-3.29,3.26-5.39,2.52-2.13-.74-3.17-3.29-2.37-5.36.74-1.88,2.55-2.54,4.37-2.44.19-.06.4-.1.62-.04.14.04.27.12.41.17.14.03.28.05.43.09.22.05.34.21.4.38ZM156.44,171.04c.25-1.02-.47-1.93-1.33-2.33-.17-.09-.28-.19-.38-.32-.66.22-1.23.58-1.51,1.22-.39.87-.1,2.12.81,2.51.89.38,2.17-.1,2.41-1.07Z"/>
  <path class="cls-1" d="M157.89,28.41c.58.57,1.02,1.19.92,2.12s-.83,1.47-1.75,1.37c-.85-.08-1.73-.69-1.59-1.64.06-.5.43-1,.83-1.29.47-.36,1-.32,1.53-.52.03-.01.04-.03.06-.04Z"/>
  <path class="cls-1" d="M155.11,168.71c.87.4,1.58,1.31,1.33,2.33-.23.97-1.51,1.45-2.41,1.07-.92-.39-1.2-1.64-.81-2.51.28-.63.85-1,1.51-1.22.09.13.21.23.38.32Z"/>
  <path class="cls-4" d="M149.39,95.89c2.55-.26,6.65-.36,6.39,2.94-.22,2.81-3.71,4.22-6.09,4.89.06-.83.12-1.66.12-2.5.01-1.81-.14-3.58-.41-5.33Z"/>
  <path class="cls-2" d="M154.24,114.1c1.55,2.46,1.54,5.47.09,8-2.78,4.85-8.55,4.98-12.57,2.01-.08-.06-.16-.12-.23-.16-.23-.19-.45-.39-.67-.58.32-.36.65-.74.96-1.11,2.19,2.81,6.65,2.99,8.99-.14,2.52-3.39.89-8.72-3.03-10.04.25-.63.47-1.27.66-1.91,2.28.94,4.4,1.71,5.81,3.95Z"/>
  <path class="cls-2" d="M152.99,78.71c1.29,4.44-1.53,8.32-4.83,10.97-.09.03-.19.03-.28.05-.31-.92-.69-1.8-1.07-2.68,2.59-2.3,5.49-5.9,3.25-9.47-2.24-3.58-6.53-1.54-9.13.41-.31-.35-.62-.7-.96-1.03,4.37-2.69,11.02-5.06,13.03,1.75Z"/>
  <path class="cls-4" d="M151.28,137.3s.01,0,.03.01c-5.81,5.65-12.92,9.9-20.79,12.24-.43-2.91-1.19-5.82-2.23-8.6,2.56,1.64,5.91,2.12,8.95.91,4.73-1.9,7.18-6.64,6.91-11.33,2.45,2.17,4.79,4.45,7.13,6.78Z"/>
  <path class="cls-4" d="M146.94,114.08c2.16,1.33,3.92,3.23,2.57,6.07-1.36,2.82-4.85,3.04-6.7.83,1.63-2.13,3.01-4.45,4.13-6.9Z"/>
  <path class="cls-4" d="M148.81,79.22c.81,2.45-1.06,4.81-2.57,6.61-1.14-2.29-2.52-4.45-4.11-6.43,1.95-1.42,5.56-3.49,6.69-.18Z"/>
  <path class="cls-1" d="M146.88,100.27c.61,17.92-13.95,29.85-30.52,32.07-.19.03-.36.12-.49.22-.23-.45-.67-.82-1.32-.85-16.17-1.2-30-14.71-29.53-31.35.48-16.93,14.26-30.7,31.32-30.4,16.79.28,29.97,13.61,30.54,30.31Z"/>
  <path class="cls-4" d="M151.72,62.76c-2.99,1.76-5.74,4.15-8.29,6.62.26-3.75-1.4-7.54-5.17-9.65-3.58-1.99-8.2-1.24-11.11,1.27.71-3.43,1.67-6.62,2.91-9.99,4.66,1.09,9.11,2.77,13.13,5.12,3.17,1.85,5.99,4.1,8.54,6.62Z"/>
  <path class="cls-1" d="M141.54,18.61c5.21,10.48,4.06,22.37,1.45,33.39-.05.19-.04.38-.03.56-1.18-.62-2.39-1.16-3.64-1.68.19-.22.32-.49.32-.87,0-9.78,1.46-20.92-4.23-29.52-4.17-6.3-11.27-10.44-18.89-10.17-19.42.69-24,24.08-19.2,39.25-2.07.67-4.08,1.46-6.02,2.35-3.29-10.47-4.24-21.68,1.03-31.72,4.77-9.09,13.78-15.73,24.18-16.33,10.74-.61,20.25,5.15,25.01,14.74Z"/>
  <path class="cls-1" d="M141.76,148.36s.04.06.06.09c-.12,18.64.62,48.62-25.63,48.32-10.25-.1-19.08-6.22-24.22-14.88-6.21-10.45-5.71-22.63-3.27-34.1.12-.12.21-.25.28-.38,1.94,1.13,3.95,2.13,6,3.03-.13.1-.23.23-.28.43-4.11,16.99-1.63,38.93,20.01,40.4,9.73.66,15.74-4.1,19.33-11.06.25-.27.41-.6.45-.94,4.09-8.67,4.67-20.39,4.01-29.37,1.09-.49,2.16-1.03,3.22-1.6.01.03.01.04.03.06Z"/>
  <path class="cls-2" d="M139.8,125.63c2.54,4.88,2.26,11.23-3.45,13.67-4.95,2.11-9.6-1.29-10.52-6.26,0-.01-.01-.03-.01-.04.53-.17,1.06-.35,1.59-.54.8,3.31,4.57,6.31,7.97,5.33,4.45-1.28,3.12-7.57,1.29-10.52,1.06-.85,2.07-1.76,3.04-2.72,0,0,.01.01.01.03-.12.3-.12.66.08,1.05Z"/>
  <path class="cls-2" d="M137.22,62.4c4.73,2.95,4.26,9.03.53,12.48-.38-.32-.76-.63-1.15-.94,1.93-2.73,4.05-7.45.41-9.9-3.54-2.39-7.49,2.03-9.07,4.99-.65-.25-1.31-.49-1.99-.7t.01-.03c.04-.17.09-.32.14-.49.06-.19.13-.4.18-.6,1.57-4.59,6.13-7.84,10.93-4.83Z"/>
  <path class="cls-2" d="M134.65,25.98c2.46,7.46,2.25,16.77,2.25,23.93-6.03-2.19-12.59-3.29-19.17-3.38,0-.12-.01-.23-.01-.35,0-.03.03-.04.03-.08,1.2-4.79,2.82-9.19,6.13-12.98,3.08-3.53,6.73-5.19,10.78-7.15Z"/>
  <path class="cls-4" d="M135.81,65.63c2.81,1.57.53,5.3-.7,7.21-1.81-1.25-3.74-2.34-5.78-3.23,1.58-1.88,4.19-5.24,6.48-3.97Z"/>
  <path class="cls-2" d="M135.73,151.09c.43,7.94.03,18.41-3.43,26.24-8.49-4.42-12.39-13.17-15.91-21.77-.17-.41-.5-.67-.87-.8,7.01.13,13.87-1.18,20.21-3.66Z"/>
  <path class="cls-4" d="M135,128.52c1.2,2.23,2.7,7.46-1.06,7.4-2.45-.05-4.01-2.06-5.05-4.04,2.15-.91,4.19-2.02,6.11-3.36Z"/>
  <path class="cls-4" d="M118.43,13.12c8.15.43,12.7,4.59,15.25,10.31-7.27,1.35-13.74,7.78-16.37,14.99-.27-8.23-.08-16.34.12-24.67.01-.26-.08-.47-.21-.66.4,0,.79,0,1.2.03Z"/>
  <path class="cls-4" d="M125.53,139.49c1.13,3.52,2.03,7.02,2.73,10.69-4.24,1.05-8.69,1.55-13.23,1.42-.58-.01-.98.25-1.23.62-4.39-.57-8.69-1.58-12.85-2.99.69-1.54,1.18-3.2,1.84-4.73.54-1.28,1.16-2.52,1.75-3.79.96,3.74,4.27,7.08,8.19,7.71,6.27,1.02,11.44-3.34,12.81-8.93Z"/>
  <path class="cls-4" d="M130.97,179.96c-2.95,5.02-7.53,8.43-14.52,8.45.67-8.41.39-16.96.14-25.45,3.17,7,7.28,13.38,14.37,17Z"/>
  <path class="cls-4" d="M127.82,50.55c-1.41,2.85-2.35,6.13-2.69,9.38-1.91-3.32-5.52-5.73-9.47-5.63-4.66.1-9.34,3.71-10.3,8.1-.26-1.18-.58-2.34-.89-3.49-.54-2.02-2.06-4.9-1.73-6.96.04-.21,0-.39-.05-.56,8.2-2.06,16.93-2.38,25.14-.84Z"/>
  <path class="cls-2" d="M116.13,57.2c5.6.12,8.09,5.55,7.34,10.47-.52-.13-1.05-.23-1.58-.32,0-.01.01-.01.01-.03,1.27-3.71-1.22-7.76-5.3-7.79-4.22-.03-6.24,4.26-6.99,7.8v.08c-.41.08-.84.14-1.24.25-.18-.34-.39-.66-.6-.97-.56-5.02,2.96-9.6,8.36-9.48Z"/>
  <path class="cls-2" d="M123.17,134.17c.57,5.51-2.08,11.71-8.5,11.77-6.87.08-9.21-6.52-6.73-12.02.03-.06.04-.14.05-.22.47.13.93.23,1.4.35-.91,3.69-.08,8.63,4.35,9.42,4.77.85,6.3-4.72,6.38-8.34,0-.5-.27-.82-.62-.94,1.27-.09,2.51-.26,3.74-.5-.05.14-.08.3-.06.49Z"/>
  <path class="cls-4" d="M114.28,62.06c3.43-2.26,7.17,1.11,5.93,4.79-.03.09-.01.16-.03.22-1.25-.16-2.54-.26-3.84-.27-1.8-.03-3.57.12-5.29.36.76-1.86,1.54-3.97,3.23-5.1Z"/>
  <path class="cls-4" d="M116.36,134.25c.79.03,1.57.01,2.33-.01-.34.14-.61.43-.66.89-.21,2.26-.79,7.5-4.45,6.17-2.81-1.03-2.86-4.4-2.78-6.96,1.23.23,2.48.4,3.75.49.69.05,1.13-.27,1.35-.71.13.06.28.12.47.13Z"/>
  <path class="cls-2" d="M115.21,46.42c.03.06.06.09.1.14-5.54.13-11.06.96-16.27,2.5-1.15-7.57-1.09-17.5,2.12-25.01,3.12,3.3,5.95,6.43,8.18,10.48,2.13,3.87,3.87,7.96,5.87,11.89Z"/>
  <path class="cls-4" d="M115.04,13.2c-.03.06-.08.13-.09.22-1.54,7.88-1.62,16.4-.65,24.61-2.55-6.51-6.25-12.91-11.88-16.51,2.59-4.49,6.61-7.71,12.61-8.32Z"/>
  <path class="cls-4" d="M113.84,161.19c.04,9.04-.05,18.2.93,27.15-5.73-.43-11.04-3.05-14.58-7.35.18-.08.38-.17.6-.28.54-.28.75-.8.7-1.31,6.2-4.48,10.72-10.88,12.35-18.22Z"/>
  <path class="cls-2" d="M112.93,154.51c-1.67,9.59-6.51,18.1-14.84,23.36-.49-.92-.92-1.89-1.25-2.91-2.59-7.7-1.11-15.98-.3-23.84,0-.03-.01-.04-.01-.06,5.23,2.04,10.76,3.27,16.4,3.45Z"/>
  <path class="cls-2" d="M105.87,68.31c-.43.14-.85.3-1.28.44-1.63-3.7-6.35-5.33-9.82-2.98-3.05,2.08-3.43,6.71-.53,8.93-.71.6-1.4,1.2-2.06,1.85-.06-.14-.16-.27-.26-.39-1.95-4.49-4.04-10.19,2.19-12.43,4.98-1.79,8.56,1.29,11.76,4.58Z"/>
  <path class="cls-2" d="M102.21,131.64c1.02.47,2.06.89,3.12,1.27-1.62,5.02-8.31,6.58-12.54,3.95-4.5-2.78-4.33-8.67-.89-12.19.03-.01.03-.04.04-.05.97.94,2.01,1.84,3.08,2.68-.28-.16-.65-.12-.92.23-1.77,2.37-2.85,6.27.53,7.81,2.87,1.32,6.35-.7,7.52-3.43.04-.09.05-.18.06-.27Z"/>
  <path class="cls-4" d="M101.72,57.06c.57,1.81,1.1,3.7,1.79,5.51-3.6-2.26-8.14-2.95-11.98-.78-3.75,2.12-5.02,6.16-4.24,9.91-2.52-2.72-5.15-5.36-7.83-7.89.16-.16.3-.31.45-.47,5.67-5.29,12.89-9.13,20.69-11.38-.41,1.62.66,3.61,1.13,5.1Z"/>
  <path class="cls-4" d="M102.2,140.14c-1.35,2.59-2.5,5.67-2.92,8.49-8.15-3.05-15.56-7.75-21.48-14.1,2.91-1.57,5.74-3.31,8.55-5.07-.44,3.86,1.27,7.97,4.86,10.1,3.08,1.84,7.58,2.04,10.98.58Z"/>
  <path class="cls-4" d="M96.19,67.11c2.72-1.53,5.28.01,6.8,2.26-2.76,1.15-5.34,2.64-7.7,4.45-1.79-2.07-1.75-5.24.89-6.71Z"/>
  <path class="cls-4" d="M100.57,130.84c-1.23,1.36-2.38,3.22-4.51,2.81-2.83-.54-1.49-3.71-.75-5.42.16-.36.04-.69-.19-.87,1.71,1.32,3.54,2.48,5.46,3.48Z"/>
  <path class="cls-2" d="M90.49,15.98c.14.35.38.6.65.76-.44.75-.84,1.53-1.22,2.3-.19-.14-.41-.26-.71-.28-5.64-.47-10.69-2.07-15.45-5.2-2.23-1.47-4.29-3.18-6.21-5.05-.79-.78-1.57-1.59-2.3-2.42h-.01c-.21-.35-.4-.71-.62-1.05,9.53,2.32,21.92,1.41,25.87,10.93Z"/>
  <path class="cls-2" d="M90.45,78.13c.06.04.13.04.18.06-.53.6-1.03,1.22-1.53,1.86-3.18-2.73-8.8-3.03-10.97,1.09-2.25,4.27,1.88,6.86,5.5,7.63.32.08.53-.09.61-.3l.05.03c-.27.65-.5,1.29-.72,1.97-.01-.01-.04-.03-.05-.03-4.66-.85-9.66-6.96-6.64-11.48,3.22-4.79,9.41-3.08,13.57-.84Z"/>
  <path class="cls-2" d="M90.16,122.75c-.1.08-.18.16-.28.23-4.4,1.16-10.08,1.58-12.42-3.22-2.56-5.27,2.07-7.31,5.67-9.68.32,1.11.71,2.21,1.15,3.27l-.13.05c-.09-.22-.34-.4-.62-.35-2.94.52-6.6,3.08-4.71,6.47,2.01,3.61,6.53,2.79,9.6,1.06.56.74,1.13,1.46,1.75,2.16Z"/>
  <path class="cls-4" d="M89.8,52.62c-.12.06-.23.1-.35.17.09-.41,0-.87-.39-1.27-7.22-7.21-16.08-13.33-26.13-15.36,5.03-6.38,6.9-15.76,4.85-23.87,1.25,1.09,2.43,1.99,3.27,2.63,5.17,3.88,11.32,6.33,17.81,6.51-3.91,9.78-3.87,21.42.93,31.19ZM80.1,33.37c2.04-1.32,2.72-4.04,1.03-5.94-1.35-1.53-3.93-2.11-5.51-.79-1.72,1.11-2.32,3.56-1.42,5.41,1.09,2.23,3.92,2.59,5.9,1.32Z"/>
  <path class="cls-2" d="M87.32,178.83c.6,1.55,1.28,3.08,2.07,4.53-4.95,5.59-10.8,7.3-17.93,8.86-1.84.41-3.58.87-5.25,1.47,5.06-7.3,12.2-12.25,20.97-14.8.05-.01.09-.05.14-.06Z"/>
  <path class="cls-1" d="M87.03,53.55c.14.14.28.23.44.3-.85.49-1.69.98-2.51,1.51-1.35.89-2.63,1.85-3.87,2.83-.05-.12-.12-.23-.22-.35-9.7-9.88-35.28-21.02-44.39-4.3-9.24,16.95,10.6,32.8,24.81,37.19.38.12.69-.14.79-.47-.52,2.82-.83,5.68-.89,8.56-.03-.01-.04-.04-.06-.04-9.92-4.15-19.68-8.37-26.11-17.46-5.96-8.42-8.02-20.56-2.96-29.92,5.2-9.63,16.56-13.92,27.09-12.89,10.91,1.09,20.31,7.49,27.88,15.02Z"/>
  <path class="cls-4" d="M74.72,121.13c2.39,4.81,7.96,6.44,12.64,4.84-3.64,2.29-7.34,4.57-10.82,7.1-2.56-2.98-4.83-6.26-6.68-9.9-1.63-3.2-2.88-6.55-3.79-9.96,2.04-.1,4.09-1.07,6.04-1.62,1.57-.44,3.16-.8,4.73-1.18-2.87,2.64-4.14,6.65-2.13,10.71Z"/>
  <path class="cls-4" d="M88.26,81.18c-1.6,2.25-2.95,4.7-3.97,7.32l-.05-.03c.09-.25,0-.57-.32-.71-2.41-1.01-5.94-2.81-4.11-5.95,1.95-3.35,5.72-1.9,8.46-.63Z"/>
  <path class="cls-4" d="M84.28,113.36c.8,1.93,1.8,3.78,2.94,5.51-2.1,1.02-4.67,2.13-6.44.06-1.95-2.3,1.49-4.09,3.16-4.92.28-.14.32-.39.22-.61l.13-.05Z"/>
  <path class="cls-4" d="M86.1,149.79c-2.54,8.56-2.35,18.24.43,26.81-8.05,2.08-14.93,6.58-20.1,12.78,1.91-9.41.31-19.34-5.58-27.13,9.3-1.31,17.71-6.8,25.25-12.46ZM79.66,168.84c.34-1.95-.83-4.63-3.05-4.76-.32-.01-.57.09-.74.25-1.89-.25-3.71,1.29-4.09,3.18-.43,2.19,1.36,4.08,3.44,4.37,2.08.31,4.08-.91,4.44-3.04Z"/>
  <path class="cls-4" d="M86.94,73.74c-5.05-1.44-10.66-.4-13.21,4.89-1.84,3.78-.08,8.33,3.1,11.01-3.66-.7-7.27-1.5-10.88-2.45,2.06-8.09,6.08-15.65,11.97-21.86,2.9,2.9,5.91,5.73,9.02,8.41Z"/>
  <path class="cls-2" d="M82.83,93.07c-.17.74-.32,1.5-.45,2.26-3.34-.21-8.29.79-8.4,4.44-.13,4.37,4.68,4.88,8.03,4.45.1,1,.23,1.98.43,2.95-4.79.26-11.27-1.54-10.36-7.59.84-5.61,6.11-6.48,10.75-6.51Z"/>
  <path class="cls-1" d="M81.15,141.9c1.66,1.38,3.38,2.69,5.17,3.87-7.85,5.99-16.3,12.19-26.34,13.44-10.26,1.27-20.76-3.78-26.3-12.55-5.64-8.94-5.11-20.52.23-29.5,5.72-9.61,15.9-14.58,26.56-16.6.16-.03.28-.09.39-.18.12,0,.23-.01.32-.05.01,1.93.14,3.87.36,5.81-14.68,3.64-31.79,21.9-23.03,37.5,9.5,16.93,31.8,11.37,42.28-1.01.21-.23.31-.48.35-.74Z"/>
  <path class="cls-4" d="M82.2,96.44c-.18,1.29-.3,2.59-.32,3.92-.03.67-.01,1.33.01,1.99-1.28.21-2.63.4-3.87.01-1.2-.38-2.47-1.58-2.1-2.95.36-1.29,2.3-1.97,3.44-2.37.93-.32,1.88-.49,2.83-.61Z"/>
  <path class="cls-3" d="M81.13,27.43c1.68,1.9,1.01,4.62-1.03,5.94-1.98,1.27-4.81.91-5.9-1.32-.89-1.85-.3-4.3,1.42-5.41,1.58-1.32,4.17-.74,5.51.79ZM78.69,31.48c.93-.54,1.42-1.68.6-2.55-.79-.84-1.9-.87-2.9-.44-.12.05-.26.08-.39.08-.69,1.69.62,4.11,2.69,2.91Z"/>
  <path class="cls-3" d="M76.61,164.08c2.23.13,3.39,2.81,3.05,4.76-.36,2.13-2.35,3.35-4.44,3.04-2.08-.3-3.87-2.19-3.44-4.37.38-1.89,2.2-3.43,4.09-3.18.17-.16.41-.26.74-.25ZM77.34,168.31c.13-1.09-.53-1.6-1.29-2.17-.1-.06-.17-.14-.25-.23-.92.27-1.75,1.06-1.79,2.03-.04.94.81,1.54,1.68,1.63.84.09,1.55-.4,1.64-1.25Z"/>
  <path class="cls-1" d="M79.28,28.93c.83.87.34,2.01-.6,2.55-2.07,1.2-3.38-1.22-2.69-2.91.13,0,.27-.03.39-.08,1-.43,2.11-.4,2.9.44Z"/>
  <path class="cls-2" d="M78.97,59.76s.09.05.14.09c-3.21,2.83-6,6.03-8.38,9.48-.09-.1-.19-.21-.31-.26-.47-.21-.88-.28-1.27-.32-2.26-2.83-4.55-5.55-6.18-8.86-1.76-3.58-2.52-7.17-3.26-11.05,7.7,2.19,15.32,6.87,19.26,10.92Z"/>
  <path class="cls-2" d="M79.16,140.16c-.16.08-.31.19-.47.36-4.93,5.85-12.98,10.35-20.7,10.84.03-.13.06-.25.06-.4-.49-7.37,1.84-14.2,6.84-19.28,1.11-.89,2.2-1.81,3.25-2.74.12-.09.22-.18.34-.26.19-.13.34-.3.44-.47.05-.08.12-.14.16-.22,2.77,4.48,6.17,8.59,10.08,12.16Z"/>
  <path class="cls-1" d="M76.05,166.14c.76.57,1.42,1.09,1.29,2.17-.09.85-.8,1.35-1.64,1.25-.87-.09-1.72-.69-1.68-1.63.04-.97.87-1.76,1.79-2.03.08.09.14.17.25.23Z"/>
  <path class="cls-4" d="M74.85,108.6c-1.27.35-2.52.75-3.75,1.16-1.8.61-3.79,1.13-5.32,2.28-1.82-7.7-1.86-15.72-.17-23.36,3.16,1.2,6.39,2.13,9.72,2.74-3.34,1.55-5.95,4.52-6.24,8.42-.34,4.4,2.29,7.43,5.76,8.76Z"/>
  <path class="cls-2" d="M67.77,125.71c-.16.01-.32.04-.49.1-4.32,1.68-8.77,2.55-13.43,2.3-4.06-.22-7.99-2.25-11.99-2.08-.22.01-.36.13-.43.28l-.26-.13c4.04-8.14,13.2-15.02,20.61-18.19.32,2.19.76,4.37,1.36,6.53,1.07,3.89,2.66,7.63,4.63,11.18Z"/>
  <path class="cls-4" d="M64.55,70.64c.09.05.19.12.3.17-7.75-.69-21.92-1.19-23.91,3.32-3.6-4.89-5.3-10.65-3.09-17.17.22-.62.45-1.19.71-1.73,8.34,5.61,17.27,10.38,25.99,15.41Z"/>
  <path class="cls-2" d="M63.33,7.82c3.4,9.47,2.91,18.09-2.9,27.45-.09.14-.14.3-.17.45-1.02-.13-2.04-.23-3.09-.27-.57-.01-1.14-.01-1.71-.01-.26-6.47-.12-12.21,2.23-18.42,1.69-4.48,2.91-8.54,3.14-13.14.13.05.27.1.41.16.28,1.22,1.06,2.51,2.08,3.79Z"/>
  <path class="cls-2" d="M59.06,162.45c5.91,10.43,7.71,21.99,2.9,33.29-.05.04-.12.06-.17.1-.17-3.93-.91-7.71-2.45-11.46-3.22-7.83-5.42-13.56-4.61-21.9,1.46.1,2.9.08,4.32-.03Z"/>
  <path class="cls-2" d="M67.91,73.9c-2.77,5.05-4.72,10.5-5.78,16.17,0-.21-.09-.41-.32-.52-6.44-3.04-14.5-7.75-19.7-13.93,2.32-2.64,11.26-2.12,14.3-2.19,3.87-.09,7.68.17,11.51.47Z"/>
  <path class="cls-4" d="M57.08,49.09c.19,6.79,3.53,14.52,8.8,19.29-4.13-2.5-10.63-5.56-11.95-6.27-4.9-2.7-9.85-5.37-14.93-7.72,3.64-6.69,10.88-7.75,18.4-6.12-.19.21-.32.48-.31.83Z"/>
  <path class="cls-4" d="M41.53,126.84c3.88,4.99,12.3,5.24,19.34,3.98-6.25,4.32-12.51,8.51-19.08,12.47-.23-.38-.47-.75-.69-1.16-3-5.41-2.45-10.92.06-15.94l.26.13c-.05.16-.03.35.1.52Z"/>
  <path class="cls-4" d="M54.96,150.97c.01.14.06.26.12.39-4.62-.35-8.95-2.32-12.21-6.53,4.94-2.12,9.88-4.73,14.54-7.74-2.01,4.23-2.92,8.98-2.45,13.88Z"/>
  <path class="cls-4" d="M55.61,99.15c-8.68,1.79-16.53,6.79-21.92,13.53-6.4-7.57-15.71-12.47-25.51-13.58,10.36-.82,19.66-6.82,25.19-15.67,5.52,7.31,13.62,13.04,22.24,15.72ZM35.03,102.36c2.1-1.14,3.01-4.01,1.68-6.05-1.32-2.01-4.44-2.6-6.27-1-.26.22-.36.48-.38.74-.71.7-1.1,1.64-1.1,2.6,0,.28.03.56.09.83.57,2.56,3.62,4.18,5.98,2.89Z"/>
  <path class="cls-3" d="M36.71,96.31c1.33,2.04.41,4.92-1.68,6.05-2.35,1.29-5.41-.32-5.98-2.89-.06-.27-.09-.54-.09-.83,0-.96.39-1.9,1.1-2.6.01-.26.12-.52.38-.74,1.84-1.6,4.95-1.01,6.27,1ZM34.13,100.27c.88-.63,1.25-2.03.48-2.86-.76-.83-1.86-.75-2.78-.28-.08.04-.17.04-.25.06-.43.54-.63,1.22-.41,1.88.39,1.18,1.88,1.97,2.96,1.2Z"/>
  <path class="cls-1" d="M34.61,97.41c.78.83.4,2.23-.48,2.86-1.09.76-2.57-.03-2.96-1.2-.22-.66-.01-1.33.41-1.88.08-.03.17-.03.25-.06.92-.47,2.02-.54,2.78.28Z"/>
  <path class="cls-2" d="M30.98,79.92c.28.47.58.93.88,1.38-.03.03-.05.04-.08.08-5.2,8.65-13.52,13.98-23.16,15.72,1.16-.93,2.25-2.02,3.27-3.29,2.24-2.74,3.92-5.96,6.47-8.45,3.45-3.36,7.71-4.54,12.29-5.32.13-.03.23-.08.32-.13Z"/>
  <path class="cls-2" d="M32.43,114.35c-1.02,1.44-1.94,2.95-2.73,4.51-6.58-2.68-11.73-6.24-16.52-11.54-2.33-2.57-4.55-5.03-7.14-7.17,10.41,1.66,19.09,6.35,26.39,14.19Z"/>
</svg>