<?xml version="1.0" encoding="UTF-8"?>
<svg id="Layer_1" data-name="Layer 1" xmlns="http://www.w3.org/2000/svg" xmlns:xlink="http://www.w3.org/1999/xlink" viewBox="0 0 34.97 27.8">
  <defs>
    <style>
      .cls-1 {
        clip-path: url(#clippath);
      }

      .cls-2 {
        fill: none;
      }

      .cls-2, .cls-3, .cls-4 {
        stroke-width: 0px;
      }

      .cls-3 {
        fill: #e3b2a3;
      }

      .cls-4 {
        fill: #f48272;
      }
    </style>
    <clipPath id="clippath">
      <rect class="cls-2" x="0" y="0" width="34.97" height="27.8"/>
    </clipPath>
  </defs>
  <g class="cls-1">
    <path class="cls-3" d="M31.46,22.49h-1.65v1.69c0,.22-.18.4-.39.4h-2.07c-.22,0-.39-.18-.39-.4v-1.68h-1.65c-.22,0-.39-.18-.39-.4v-2.12c0-.22.18-.4.39-.4h1.63v-1.7c0-.22.18-.4.39-.4h2.06c.22,0,.39.18.39.4v1.68h1.65c.22,0,.39.18.39.4l.04,2.13c0,.22-.18.4-.39.4M28.38,14.26c-3.64,0-6.6,3.03-6.6,6.77s2.95,6.77,6.6,6.77,6.6-3.03,6.6-6.77-2.95-6.77-6.6-6.77"/>
    <path class="cls-4" d="M8.83,11.68c.05-.08.11-.14.2-.17.22-.1.47,0,.57.24l2.9,6.69,4.25-9.69c.04-.09.11-.17.2-.21.22-.11.48-.01.58.21l2.43,6.13h3.93c1.2-.91,2.63-1.44,4.12-1.51.72-1.94.99-4.02.79-6.08-.35-2.91-1.7-5.57-4.42-6.67-4.51-1.82-7.8.52-9.94,4.69C12.3,1.14,9.02-1.19,4.5.62,1.78,1.72.43,4.38.08,7.29c-.3,2.51.26,5.11,1.37,7.59h5.35l2.03-3.2Z"/>
    <path class="cls-4" d="M22.92,15.79h-3.27c-.17,0-.33-.11-.39-.28l-2.17-5.46-4.23,9.64c-.04.09-.11.17-.2.21-.22.11-.48.01-.58-.21l-2.95-6.83-1.7,2.68c-.08.15-.23.24-.39.23H1.88c.71,1.38,1.55,2.69,2.51,3.91,2.83,3.62,6.6,6.54,10.05,7.89,2.49-1.04,4.78-2.51,6.77-4.36-.2-.71-.31-1.44-.31-2.18,0-1.95.72-3.82,2.02-5.24"/>
  </g>
</svg>