<?xml version="1.0" encoding="UTF-8"?>
<svg id="Layer_1" data-name="Layer 1" xmlns="http://www.w3.org/2000/svg" xmlns:xlink="http://www.w3.org/1999/xlink" viewBox="0 0 37.52 34.56">
  <defs>
    <style>
      .cls-1 {
        fill: #f7a394;
      }

      .cls-1, .cls-2, .cls-3 {
        stroke-width: 0px;
      }

      .cls-4 {
        clip-path: url(#clippath);
      }

      .cls-2 {
        fill: none;
      }

      .cls-3 {
        fill: #e3b2a3;
      }
    </style>
    <clipPath id="clippath">
      <rect class="cls-2" y="0" width="37.52" height="34.56"/>
    </clipPath>
  </defs>
  <g class="cls-4">
    <path class="cls-1" d="M34.01,31.52v-1.44c0-1.73-1.39-3.13-3.1-3.13h-3.31c-1.71,0-3.1,1.41-3.1,3.13v1.44c-1.43-1.31-2.34-3.21-2.34-5.31,0-3.95,3.18-7.17,7.09-7.17s7.09,3.22,7.09,7.17c0,2.1-.9,4-2.34,5.31M16.35,24.46c-.42-1.98-1.53-3.7-3.07-4.88l2.07-3.62c1.04.48,2.2.75,3.42.75s2.37-.27,3.42-.75l2.07,3.62c-1.54,1.19-2.65,2.91-3.07,4.88h-4.82ZM13.02,31.52v-1.44c0-1.73-1.39-3.13-3.1-3.13h-3.31c-1.71,0-3.1,1.41-3.1,3.13v1.44c-1.43-1.31-2.34-3.21-2.34-5.31,0-3.95,3.18-7.17,7.09-7.17s7.09,3.22,7.09,7.17c0,2.1-.9,4-2.34,5.31M14,12.22v1.44c-1.43-1.31-2.33-3.21-2.33-5.31,0-3.95,3.18-7.17,7.09-7.17s7.09,3.21,7.09,7.17c0,2.1-.9,4-2.34,5.31v-1.44c0-1.73-1.39-3.13-3.1-3.13h-3.31c-1.71,0-3.1,1.41-3.1,3.13M29.25,17.86c-1.46,0-2.83.39-4.03,1.06l-2.02-3.53s.06-.04.09-.06c2.25-1.49,3.73-4.06,3.73-6.98,0-4.6-3.71-8.35-8.26-8.35s-8.26,3.75-8.26,8.35c0,2.91,1.49,5.48,3.73,6.98.03.02.06.04.09.06l-2.02,3.53c-1.19-.68-2.57-1.06-4.03-1.06C3.71,17.86,0,21.6,0,26.21,0,29.12,1.49,31.69,3.73,33.19c.03.02.06.05.1.06,1.28.83,2.8,1.31,4.43,1.31s3.15-.48,4.43-1.31c.04-.02.07-.04.1-.07,2.25-1.49,3.73-4.06,3.73-6.98,0-.19,0-.38-.02-.57h4.5c-.01.19-.02.38-.02.57,0,2.91,1.48,5.48,3.73,6.98.03.03.07.05.1.07,1.28.83,2.8,1.31,4.43,1.31s3.15-.48,4.43-1.31c.03-.02.07-.04.1-.06,2.24-1.49,3.73-4.06,3.73-6.98,0-4.6-3.71-8.35-8.26-8.35"/>
    <path class="cls-3" d="M18.74,8.76c1.28,0,2.31-1.28,2.31-2.86,0-1.48-.91-2.48-2.26-2.48s-2.37,1.02-2.37,2.48c0,1.57,1.04,2.86,2.31,2.86"/>
    <path class="cls-3" d="M8.3,21.29c-1.39,0-2.37,1.02-2.37,2.48,0,1.58,1.04,2.86,2.32,2.86s2.31-1.28,2.31-2.86c0-1.48-.91-2.48-2.26-2.48"/>
    <path class="cls-3" d="M29.28,21.29c-1.39,0-2.37,1.02-2.37,2.48,0,1.57,1.04,2.86,2.31,2.86s2.31-1.28,2.31-2.86c0-1.48-.91-2.48-2.26-2.48"/>
  </g>
</svg>