<?xml version="1.0" encoding="UTF-8"?>
<svg id="Layer_1" data-name="Layer 1" xmlns="http://www.w3.org/2000/svg" xmlns:xlink="http://www.w3.org/1999/xlink" viewBox="0 0 34.17 21">
  <defs>
    <style>
      .cls-1 {
        fill: #f7a394;
      }

      .cls-1, .cls-2, .cls-3, .cls-4 {
        stroke-width: 0px;
      }

      .cls-5 {
        clip-path: url(#clippath);
      }

      .cls-2 {
        fill: none;
      }

      .cls-3 {
        fill: #e3b2a3;
      }

      .cls-4 {
        fill: #f48272;
      }
    </style>
    <clipPath id="clippath">
      <rect class="cls-2" y="0" width="34.17" height="21"/>
    </clipPath>
  </defs>
  <g class="cls-5">
    <path class="cls-4" d="M33.38,15.41v-6.78l-1.14.42v6.36c-.48.22-.79.71-.8,1.24v2.18c0,.46.37.83.82.83h1.08c.45,0,.82-.37.83-.83v-2.18c0-.53-.31-1.02-.79-1.24"/>
    <path class="cls-3" d="M15.72,14.19l-10.14-3.69v4.73c-.01.76.34,1.48.94,1.94,6.46,5.12,14.41,5.12,20.88,0,.6-.46.95-1.18.94-1.94v-4.73l-10.13,3.69c-.8.3-1.69.3-2.49,0"/>
    <path class="cls-1" d="M17.83,13.11l13.68-4.99-14.59-.92c-.31-.02-.55-.29-.53-.6.02-.31.29-.55.6-.53h0l15.84,1.01c.23.02.42.17.5.38.45-.1.73-.54.63-.98-.06-.29-.28-.53-.56-.62L17.83.16c-.55-.21-1.15-.21-1.7,0L.54,5.86c-.43.16-.65.63-.49,1.06.08.23.26.41.49.49l15.6,5.7c.54.21,1.14.21,1.68,0"/>
  </g>
</svg>