<?xml version="1.0" encoding="UTF-8"?>
<svg id="Layer_1" data-name="Layer 1" xmlns="http://www.w3.org/2000/svg" xmlns:xlink="http://www.w3.org/1999/xlink" viewBox="0 0 29.56 27.8">
  <defs>
    <style>
      .cls-1 {
        fill: #f7a394;
      }

      .cls-1, .cls-2, .cls-3, .cls-4, .cls-5, .cls-6 {
        stroke-width: 0px;
      }

      .cls-7 {
        clip-path: url(#clippath);
      }

      .cls-2 {
        fill: none;
      }

      .cls-3 {
        fill: #e3b2a3;
      }

      .cls-4 {
        fill: #f48272;
      }

      .cls-5 {
        fill: #f0d6cc;
      }

      .cls-6 {
        fill: #fdf0e6;
      }
    </style>
    <clipPath id="clippath">
      <rect class="cls-2" width="29.56" height="27.8"/>
    </clipPath>
  </defs>
  <g class="cls-7">
    <path class="cls-4" d="M11.65,22.22c.11,0,.21-.09.21-.19v-2.1c0-.11-.09-.19-.21-.19h-1.02c-.11,0-.21.09-.21.19v2.1c0,.1.09.19.21.19h1.02Z"/>
    <path class="cls-3" d="M.85,18.99s0-.05,0,8.04c0,.43.37.77.83.77h18.98c.45,0,.83-.34.83-.77v-8.04l-8.77,2.08v.96c0,.55-.48.99-1.06.99h-1.02c-.59,0-1.06-.45-1.06-.99v-.97L.85,18.99h0Z"/>
    <path class="cls-5" d="M29.56,6h-4.17c-1.22,0-2.21-.93-2.21-2.08V0h-12.81C8.85,0,7.62,1.16,7.62,2.59v5.54c.65-.19.61-.14,6.07-.14,1.77,0,3.2,1.35,3.2,3.01v.9h4.61c.93,0,1.69.71,1.69,1.58v4.8c0,.39-.43.41-.85.52,0,8.69.09,8.5-.22,9.01h4.68c1.52,0,2.75-1.16,2.75-2.59V6Z"/>
    <path class="cls-1" d="M24.04,3.92c0,.71.61,1.28,1.36,1.28h3.56L24.04.57v3.35Z"/>
    <path class="cls-6" d="M13.69,10.38h-5.1c-.36,0-.65.27-.65.61v.9h6.41v-.9c0-.34-.29-.61-.65-.61h0Z"/>
    <path class="cls-3" d="M7.08,12.3v-1.3c0-.78.68-1.42,1.51-1.42h5.1c.83,0,1.51.64,1.51,1.42v1.3s-.03.4-.43.4h-7.26c-.24,0-.43-.18-.43-.4h0ZM0,13.48v3.98c0,.3.21.56.52.63l9.05,2.14v-.3c0-.55.48-.99,1.06-.99h1.02c.59,0,1.06.45,1.06.99v.31l9.09-2.15c.31-.07.53-.34.53-.63v-3.98c0-.43-.37-.77-.83-.77h-5.04c-.24,0-.43-.18-.43-.4,0-1.35,0-1.37-.01-1.53-.12-1.11-1.12-1.98-2.33-1.98-5.54,0-5.56-.1-6.28.3-.71.4-1.16,1.13-1.16,1.9v1.3c0,.22-.19.4-.43.4H.83c-.46,0-.83.35-.83.78h0Z"/>
  </g>
</svg>