<?xml version="1.0" encoding="UTF-8"?>
<svg id="Layer_1" data-name="Layer 1" xmlns="http://www.w3.org/2000/svg" xmlns:xlink="http://www.w3.org/1999/xlink" viewBox="0 0 154.91 620.59">
  <defs>
    <style>
      .cls-1 {
        clip-path: url(#clippath);
      }

      .cls-2 {
        fill: none;
      }

      .cls-2, .cls-3, .cls-4, .cls-5, .cls-6, .cls-7, .cls-8, .cls-9 {
        stroke-width: 0px;
      }

      .cls-3 {
        fill: #f7f1f1;
      }

      .cls-4 {
        fill: #1b3281;
      }

      .cls-5 {
        fill: #f8a494;
      }

      .cls-6 {
        fill: #231f20;
      }

      .cls-7 {
        fill: #f48172;
      }

      .cls-8 {
        fill: #efd5cc;
      }

      .cls-9 {
        fill: #dda291;
      }
    </style>
    <clipPath id="clippath">
      <rect class="cls-2" y="0" width="154.91" height="620.59"/>
    </clipPath>
  </defs>
  <rect class="cls-3" x="9" y="62.13" width="136.91" height="558.46"/>
  <g>
    <path class="cls-4" d="M11.22,44.76v1.75h2.81v1.24h-2.81v2.89h-1.39v-7.12h4.69v1.24h-3.3Z"/>
    <path class="cls-4" d="M18.34,50.64v-.48c-.34.36-.82.54-1.3.54-.52,0-.94-.17-1.23-.46-.42-.42-.53-.91-.53-1.48v-3.33h1.3v3.15c0,.71.45.95.86.95s.87-.24.87-.95v-3.15h1.3v5.21h-1.27Z"/>
    <path class="cls-4" d="M22.7,50.64c-1.06,0-1.51-.75-1.51-1.49v-2.58h-.55v-.99h.55v-1.54h1.3v1.54h.92v.99h-.92v2.5c0,.3.14.47.45.47h.47v1.1h-.71Z"/>
    <path class="cls-4" d="M27.59,50.64v-.48c-.34.36-.82.54-1.3.54-.52,0-.94-.17-1.23-.46-.42-.42-.53-.91-.53-1.48v-3.33h1.3v3.15c0,.71.45.95.86.95s.87-.24.87-.95v-3.15h1.3v5.21h-1.27Z"/>
    <path class="cls-4" d="M33.15,46.85c-.2-.2-.37-.31-.69-.31-.4,0-.84.3-.84.96v3.14h-1.3v-5.21h1.27v.5c.25-.3.75-.56,1.31-.56.51,0,.87.13,1.23.49l-.98.99Z"/>
    <path class="cls-4" d="M35.59,48.44c0,.67.41,1.16,1.14,1.16.57,0,.85-.16,1.18-.49l.79.77c-.53.53-1.04.82-1.98.82-1.23,0-2.41-.56-2.41-2.67,0-1.7.92-2.66,2.27-2.66,1.45,0,2.27,1.06,2.27,2.49v.58h-3.26ZM37.45,46.99c-.14-.31-.43-.54-.87-.54s-.73.23-.87.54c-.08.19-.11.33-.12.56h1.98c0-.23-.04-.37-.12-.56Z"/>
    <path class="cls-4" d="M45.06,50.64h-1.04l-2.35-7.12h1.44l1.43,4.64,1.43-4.64h1.45l-2.36,7.12Z"/>
    <path class="cls-4" d="M48.16,44.54v-1.06h1.33v1.06h-1.33ZM48.18,50.64v-5.21h1.3v5.21h-1.3Z"/>
    <path class="cls-4" d="M52.64,50.7c-.82,0-1.56-.09-2.22-.75l.85-.85c.43.43.99.49,1.39.49.45,0,.92-.15.92-.54,0-.26-.14-.44-.55-.48l-.82-.08c-.94-.09-1.52-.5-1.52-1.46,0-1.08.95-1.66,2.01-1.66.81,0,1.49.14,1.99.61l-.8.81c-.3-.27-.76-.35-1.21-.35-.52,0-.74.24-.74.5,0,.19.08.41.54.45l.82.08c1.03.1,1.55.65,1.55,1.53,0,1.15-.98,1.7-2.21,1.7Z"/>
    <path class="cls-4" d="M55.92,44.54v-1.06h1.33v1.06h-1.33ZM55.94,50.64v-5.21h1.3v5.21h-1.3Z"/>
    <path class="cls-4" d="M62.29,50.06c-.32.34-.85.64-1.62.64s-1.29-.3-1.61-.64c-.47-.49-.59-1.08-.59-2.03s.12-1.53.59-2.02c.32-.34.84-.64,1.61-.64s1.3.3,1.62.64c.47.49.59,1.08.59,2.02s-.12,1.54-.59,2.03ZM61.28,46.77c-.15-.15-.35-.23-.61-.23s-.45.08-.6.23c-.27.27-.3.72-.3,1.26s.03,1,.3,1.27c.15.15.34.23.6.23s.46-.08.61-.23c.27-.27.3-.73.3-1.27s-.03-.99-.3-1.26Z"/>
    <path class="cls-4" d="M67.15,50.64v-3.15c0-.71-.45-.95-.86-.95s-.87.24-.87.95v3.15h-1.3v-5.21h1.27v.48c.34-.36.82-.54,1.3-.54.52,0,.94.17,1.23.46.42.42.53.91.53,1.48v3.33h-1.3Z"/>
  </g>
  <g>
    <path class="cls-6" d="M20.27,76.64c-.37.36-.89.58-1.51.58s-1.15-.22-1.52-.58c-.58-.56-.62-1.03-.62-2.5s.04-1.94.62-2.5c.37-.36.89-.58,1.52-.58s1.15.22,1.51.58c.58.56.62,1.03.62,2.5s-.04,1.94-.62,2.5ZM19.93,71.94c-.32-.31-.73-.47-1.18-.47s-.86.15-1.18.47c-.45.43-.48.93-.48,2.2s.03,1.77.48,2.2c.32.31.73.47,1.18.47s.86-.15,1.18-.47c.45-.43.48-.93.48-2.2s-.04-1.77-.48-2.2Z"/>
    <path class="cls-6" d="M25.46,77.17v-2.54c0-.79-.4-1.22-1.17-1.22s-1.19.44-1.19,1.22v2.54h-.45v-4.1h.45v.48c.32-.36.73-.54,1.24-.54.46,0,.84.13,1.12.39.29.27.44.65.44,1.14v2.62h-.45Z"/>
    <path class="cls-6" d="M27.95,75.21c0,1.05.47,1.61,1.38,1.61.5,0,.81-.14,1.17-.49l.33.25c-.43.42-.82.63-1.52.63-1.17,0-1.79-.73-1.79-2.1s.63-2.1,1.69-2.1,1.69.74,1.69,2v.2h-2.94ZM30.29,74.09c-.18-.43-.61-.69-1.1-.69s-.89.26-1.09.69c-.11.25-.12.38-.15.77h2.49c-.03-.39-.04-.53-.15-.77Z"/>
    <path class="cls-6" d="M42.21,77.17v-2.85h-3.25v2.85h-.47v-6.05h.47v2.8h3.25v-2.8h.47v6.05h-.47Z"/>
    <path class="cls-6" d="M47.32,76.77c-.31.3-.7.45-1.17.45s-.87-.15-1.17-.45c-.45-.43-.53-1.06-.53-1.65s.08-1.22.53-1.65c.31-.3.7-.45,1.17-.45s.87.15,1.17.45c.45.43.53,1.06.53,1.65s-.08,1.22-.53,1.65ZM47.02,73.75c-.24-.23-.53-.35-.88-.35s-.64.12-.88.35c-.35.34-.38.89-.38,1.37s.03,1.03.38,1.37c.24.23.53.35.88.35s.64-.12.88-.35c.35-.34.38-.89.38-1.37s-.03-1.03-.38-1.37Z"/>
    <path class="cls-6" d="M55.1,77.17v-2.54c0-.79-.4-1.22-1.17-1.22s-1.19.44-1.19,1.15v2.62h-.45v-2.54c0-.79-.4-1.22-1.17-1.22s-1.19.44-1.19,1.22v2.54h-.45v-4.1h.45v.48c.32-.36.74-.54,1.25-.54.63,0,1.1.26,1.36.75.31-.48.8-.75,1.44-.75.46,0,.84.14,1.11.39.29.27.45.65.45,1.14v2.62h-.45Z"/>
    <path class="cls-6" d="M57.59,75.21c0,1.05.47,1.61,1.38,1.61.5,0,.8-.14,1.16-.49l.33.25c-.43.42-.82.63-1.52.63-1.16,0-1.79-.73-1.79-2.1s.63-2.1,1.69-2.1,1.69.74,1.69,2v.2h-2.93ZM59.93,74.09c-.18-.43-.6-.69-1.09-.69s-.89.26-1.09.69c-.11.25-.12.38-.15.77h2.49c-.03-.39-.04-.53-.15-.77Z"/>
    <path class="cls-6" d="M67.94,71.65v-.54h.55v.54h-.55ZM68,77.17v-4.1h.45v4.1h-.45Z"/>
    <path class="cls-6" d="M71.64,77.22c-.74,0-1.28-.19-1.71-.59l.31-.3c.32.33.79.5,1.38.5.83,0,1.27-.28,1.27-.83,0-.43-.25-.64-.81-.69l-.7-.06c-.85-.07-1.27-.43-1.27-1.07,0-.71.6-1.16,1.52-1.16.59,0,1.1.16,1.48.43l-.3.29c-.32-.23-.72-.35-1.18-.35-.7,0-1.08.28-1.08.79,0,.43.26.63.86.69l.68.06c.7.07,1.24.27,1.24,1.07,0,.75-.65,1.22-1.69,1.22Z"/>
    <path class="cls-6" d="M81.95,72.15l-.93-1.25h.59l.85,1.25h-.51Z"/>
    <path class="cls-6" d="M89.19,77.17h-.46l-1.19-3.42-1.19,3.42h-.46l-1.35-4.1h.49l1.08,3.59,1.21-3.59h.44l1.21,3.59,1.08-3.59h.49l-1.35,4.1Z"/>
    <path class="cls-6" d="M91.66,71.65v-.54h.55v.54h-.55ZM91.71,77.17v-4.1h.45v4.1h-.45Z"/>
    <path class="cls-6" d="M95.06,77.17c-.69,0-1.02-.42-1.02-1.06v-4.99h.45v4.98c0,.47.15.69.65.69h.31v.38h-.38Z"/>
    <path class="cls-6" d="M97.77,77.17c-.69,0-1.02-.42-1.02-1.06v-4.99h.45v4.98c0,.47.15.69.65.69h.31v.38h-.39Z"/>
    <path class="cls-6" d="M106.94,77.22c-1.16,0-1.86-.8-1.86-2.1s.7-2.1,1.86-2.1c.58,0,.95.14,1.39.63l-.31.27c-.36-.39-.64-.52-1.09-.52-.48,0-.87.18-1.12.54-.21.3-.29.62-.29,1.17s.08.88.29,1.17c.25.37.64.54,1.12.54.45,0,.73-.14,1.09-.52l.31.27c-.45.48-.82.63-1.39.63Z"/>
    <path class="cls-6" d="M112.34,76.77c-.31.3-.7.45-1.17.45s-.87-.15-1.17-.45c-.45-.43-.53-1.06-.53-1.65s.08-1.22.53-1.65c.31-.3.7-.45,1.17-.45s.87.15,1.17.45c.45.43.53,1.06.53,1.65s-.08,1.22-.53,1.65ZM112.04,73.75c-.24-.23-.53-.35-.88-.35s-.64.12-.88.35c-.35.34-.38.89-.38,1.37s.03,1.03.38,1.37c.24.23.54.35.88.35s.64-.12.88-.35c.35-.34.38-.89.38-1.37s-.03-1.03-.38-1.37Z"/>
    <path class="cls-6" d="M117.32,77.17v-2.54c0-.79-.4-1.22-1.17-1.22s-1.19.44-1.19,1.22v2.54h-.45v-4.1h.45v.48c.31-.36.73-.54,1.24-.54.46,0,.84.13,1.12.39.29.27.44.65.44,1.14v2.62h-.45Z"/>
    <path class="cls-6" d="M120.74,77.17c-.67,0-1.02-.45-1.02-1.07v-2.7h-.58v-.32h.58v-1.31h.45v1.31h.95v.32h-.95v2.71c0,.43.2.68.65.68h.31v.38h-.38Z"/>
    <path class="cls-6" d="M122.6,71.65v-.54h.55v.54h-.55ZM122.65,77.17v-4.1h.45v4.1h-.45Z"/>
    <path class="cls-6" d="M127.8,77.17v-2.54c0-.79-.4-1.22-1.17-1.22s-1.19.44-1.19,1.22v2.54h-.45v-4.1h.45v.48c.32-.36.73-.54,1.24-.54.46,0,.84.13,1.12.39.29.27.44.65.44,1.14v2.62h-.45Z"/>
    <path class="cls-6" d="M132.84,77.17v-.48c-.32.36-.73.54-1.24.54-.46,0-.84-.13-1.12-.39-.29-.27-.44-.65-.44-1.14v-2.62h.45v2.54c0,.79.4,1.22,1.17,1.22s1.19-.44,1.19-1.22v-2.54h.45v4.1h-.45Z"/>
    <path class="cls-6" d="M135.39,75.21c0,1.05.47,1.61,1.38,1.61.5,0,.81-.14,1.17-.49l.33.25c-.43.42-.82.63-1.52.63-1.17,0-1.79-.73-1.79-2.1s.63-2.1,1.69-2.1,1.69.74,1.69,2v.2h-2.94ZM137.73,74.09c-.18-.43-.61-.69-1.1-.69s-.89.26-1.09.69c-.11.25-.12.38-.15.77h2.49c-.03-.39-.04-.53-.15-.77Z"/>
  </g>
  <g>
    <path class="cls-6" d="M17.87,89.17c-.67,0-1.02-.45-1.02-1.07v-2.7h-.58v-.32h.58v-1.31h.45v1.31h.96v.32h-.96v2.71c0,.43.2.68.65.68h.31v.38h-.38Z"/>
    <path class="cls-6" d="M22.38,88.77c-.31.3-.7.45-1.17.45s-.87-.15-1.17-.45c-.45-.43-.53-1.06-.53-1.65s.08-1.22.53-1.65c.31-.3.7-.45,1.17-.45s.87.15,1.17.45c.45.43.53,1.06.53,1.65s-.08,1.22-.53,1.65ZM22.08,85.75c-.24-.23-.53-.35-.88-.35s-.64.12-.88.35c-.35.34-.38.89-.38,1.37s.03,1.03.38,1.37c.24.23.54.35.88.35s.64-.12.88-.35c.35-.34.38-.89.38-1.37s-.03-1.03-.38-1.37Z"/>
    <path class="cls-6" d="M31.96,89.22c-1.16,0-1.86-.8-1.86-2.1s.7-2.1,1.86-2.1c.58,0,.95.14,1.39.63l-.31.27c-.36-.39-.64-.52-1.09-.52-.48,0-.87.18-1.12.54-.21.3-.29.62-.29,1.17s.08.88.29,1.17c.25.37.64.54,1.12.54.45,0,.73-.14,1.09-.52l.31.27c-.45.48-.82.63-1.39.63Z"/>
    <path class="cls-6" d="M36.44,85.4c-.73,0-1.13.59-1.13,1.24v2.52h-.45v-4.1h.45v.54c.25-.38.74-.59,1.24-.59.41,0,.71.09,1.02.39l-.32.31c-.25-.25-.45-.32-.8-.32Z"/>
    <path class="cls-6" d="M38.6,87.21c0,1.05.47,1.61,1.38,1.61.5,0,.81-.14,1.17-.49l.33.25c-.43.42-.82.63-1.52.63-1.17,0-1.8-.73-1.8-2.1s.63-2.1,1.69-2.1,1.69.74,1.69,2v.2h-2.93ZM40.94,86.09c-.18-.43-.6-.69-1.09-.69s-.89.26-1.1.69c-.11.25-.12.38-.15.77h2.49c-.03-.39-.04-.53-.15-.77Z"/>
    <path class="cls-6" d="M45.65,89.17v-.41c-.36.35-.69.46-1.29.46-.63,0-.97-.1-1.24-.37-.2-.2-.31-.49-.31-.8,0-.75.55-1.18,1.47-1.18h1.37v-.46c0-.65-.32-1-1.19-1-.6,0-.89.14-1.16.52l-.32-.27c.36-.48.8-.63,1.49-.63,1.12,0,1.64.48,1.64,1.34v2.8h-.45ZM45.65,87.21h-1.31c-.72,0-1.08.27-1.08.82s.33.8,1.1.8c.38,0,.74-.03,1.05-.31.16-.14.24-.41.24-.78v-.53Z"/>
    <path class="cls-6" d="M49.08,89.17c-.67,0-1.02-.45-1.02-1.07v-2.7h-.58v-.32h.58v-1.31h.45v1.31h.96v.32h-.96v2.71c0,.43.2.68.65.68h.31v.38h-.38Z"/>
    <path class="cls-6" d="M51.16,87.21c0,1.05.47,1.61,1.38,1.61.5,0,.81-.14,1.17-.49l.33.25c-.43.42-.82.63-1.52.63-1.17,0-1.79-.73-1.79-2.1s.63-2.1,1.69-2.1,1.69.74,1.69,2v.2h-2.94ZM53.5,86.09c-.18-.43-.61-.69-1.1-.69s-.89.26-1.09.69c-.11.25-.12.38-.15.77h2.49c-.03-.39-.04-.53-.15-.77Z"/>
    <path class="cls-6" d="M64.01,89.17v-.41c-.36.35-.69.46-1.29.46-.63,0-.97-.1-1.24-.37-.2-.2-.31-.49-.31-.8,0-.75.55-1.18,1.47-1.18h1.37v-.46c0-.65-.32-1-1.19-1-.6,0-.89.14-1.17.52l-.32-.27c.36-.48.8-.63,1.49-.63,1.12,0,1.64.48,1.64,1.34v2.8h-.45ZM64.01,87.21h-1.31c-.72,0-1.08.27-1.08.82s.33.8,1.1.8c.39,0,.74-.03,1.05-.31.16-.14.24-.41.24-.78v-.53Z"/>
    <path class="cls-6" d="M73.24,89.17c-.67,0-1.02-.45-1.02-1.07v-2.7h-.58v-.32h.58v-1.31h.45v1.31h.96v.32h-.96v2.71c0,.43.2.68.65.68h.31v.38h-.39Z"/>
    <path class="cls-6" d="M76.74,85.4c-.73,0-1.13.59-1.13,1.24v2.52h-.45v-4.1h.45v.54c.25-.38.74-.59,1.23-.59.41,0,.71.09,1.02.39l-.32.31c-.25-.25-.45-.32-.8-.32Z"/>
    <path class="cls-6" d="M81.33,89.17v-.41c-.36.35-.69.46-1.29.46-.63,0-.97-.1-1.24-.37-.2-.2-.31-.49-.31-.8,0-.75.55-1.18,1.47-1.18h1.37v-.46c0-.65-.32-1-1.19-1-.6,0-.89.14-1.17.52l-.32-.27c.36-.48.8-.63,1.49-.63,1.12,0,1.64.48,1.64,1.34v2.8h-.45ZM81.33,87.21h-1.31c-.72,0-1.08.27-1.08.82s.33.8,1.1.8c.39,0,.75-.03,1.05-.31.16-.14.24-.41.24-.78v-.53Z"/>
    <path class="cls-6" d="M86.44,89.17v-2.54c0-.79-.4-1.22-1.17-1.22s-1.19.44-1.19,1.22v2.54h-.45v-4.1h.45v.48c.32-.36.73-.54,1.24-.54.46,0,.84.13,1.12.39.29.27.44.65.44,1.14v2.62h-.45Z"/>
    <path class="cls-6" d="M90.03,89.22c-.74,0-1.28-.19-1.71-.59l.31-.3c.32.33.79.5,1.38.5.83,0,1.27-.28,1.27-.83,0-.43-.24-.64-.8-.69l-.7-.06c-.85-.07-1.27-.43-1.27-1.07,0-.71.59-1.16,1.51-1.16.59,0,1.1.16,1.48.43l-.3.29c-.32-.23-.72-.35-1.18-.35-.7,0-1.08.28-1.08.79,0,.43.26.63.86.69l.68.06c.7.07,1.24.27,1.24,1.07,0,.75-.65,1.22-1.69,1.22Z"/>
    <path class="cls-6" d="M96,88.86c-.22.21-.59.36-1.03.36-.48,0-.88-.1-1.25-.58v2.48h-.45v-6.05h.45v.53c.38-.48.77-.58,1.25-.58.45,0,.81.14,1.03.36.43.42.54,1.1.54,1.74s-.11,1.33-.54,1.74ZM94.9,85.4c-1.03,0-1.19.87-1.19,1.72s.16,1.72,1.19,1.72,1.19-.87,1.19-1.72-.16-1.72-1.19-1.72Z"/>
    <path class="cls-6" d="M100.67,89.17v-.41c-.36.35-.69.46-1.29.46-.63,0-.97-.1-1.24-.37-.2-.2-.31-.49-.31-.8,0-.75.55-1.18,1.47-1.18h1.37v-.46c0-.65-.32-1-1.19-1-.6,0-.89.14-1.17.52l-.32-.27c.36-.48.8-.63,1.49-.63,1.12,0,1.64.48,1.64,1.34v2.8h-.45ZM100.67,87.21h-1.31c-.72,0-1.08.27-1.08.82s.33.8,1.1.8c.39,0,.74-.03,1.05-.31.16-.14.24-.41.24-.78v-.53Z"/>
    <path class="cls-6" d="M104.56,85.4c-.73,0-1.13.59-1.13,1.24v2.52h-.45v-4.1h.45v.54c.25-.38.74-.59,1.23-.59.41,0,.71.09,1.02.39l-.32.31c-.25-.25-.45-.32-.8-.32Z"/>
    <path class="cls-6" d="M106.71,87.21c0,1.05.47,1.61,1.38,1.61.5,0,.81-.14,1.16-.49l.33.25c-.43.42-.82.63-1.52.63-1.17,0-1.8-.73-1.8-2.1s.63-2.1,1.69-2.1,1.69.74,1.69,2v.2h-2.93ZM109.05,86.09c-.18-.43-.6-.69-1.09-.69s-.89.26-1.1.69c-.11.25-.12.38-.15.77h2.49c-.03-.39-.04-.53-.15-.77Z"/>
    <path class="cls-6" d="M114.08,89.17v-2.54c0-.79-.4-1.22-1.17-1.22s-1.19.44-1.19,1.22v2.54h-.45v-4.1h.45v.48c.32-.36.73-.54,1.24-.54.46,0,.84.13,1.12.39.29.27.44.65.44,1.14v2.62h-.45Z"/>
    <path class="cls-6" d="M117.5,89.17c-.67,0-1.02-.45-1.02-1.07v-2.7h-.58v-.32h.58v-1.31h.45v1.31h.96v.32h-.96v2.71c0,.43.2.68.65.68h.31v.38h-.39Z"/>
    <path class="cls-6" d="M127.7,89.17v-.41c-.36.35-.69.46-1.29.46-.63,0-.97-.1-1.24-.37-.2-.2-.31-.49-.31-.8,0-.75.55-1.18,1.47-1.18h1.37v-.46c0-.65-.32-1-1.19-1-.6,0-.89.14-1.17.52l-.32-.27c.36-.48.8-.63,1.49-.63,1.12,0,1.64.48,1.64,1.34v2.8h-.45ZM127.7,87.21h-1.31c-.72,0-1.08.27-1.08.82s.33.8,1.1.8c.39,0,.75-.03,1.05-.31.16-.14.24-.41.24-.78v-.53Z"/>
    <path class="cls-6" d="M132.81,89.17v-2.54c0-.79-.4-1.22-1.17-1.22s-1.19.44-1.19,1.22v2.54h-.45v-4.1h.45v.48c.32-.36.73-.54,1.24-.54.46,0,.84.13,1.12.39.29.27.44.65.44,1.14v2.62h-.45Z"/>
    <path class="cls-6" d="M137.69,89.17v-.53c-.38.48-.77.58-1.25.58-.45,0-.81-.14-1.03-.36-.43-.42-.54-1.1-.54-1.74s.11-1.33.54-1.74c.22-.21.59-.36,1.03-.36.48,0,.88.1,1.25.58v-2.48h.45v6.05h-.45ZM136.49,85.4c-1.03,0-1.19.87-1.19,1.72s.16,1.72,1.19,1.72,1.19-.87,1.19-1.72-.16-1.72-1.19-1.72Z"/>
  </g>
  <g>
    <path class="cls-6" d="M19.33,101.17v-.53c-.38.48-.77.58-1.25.58-.45,0-.81-.14-1.03-.36-.43-.42-.54-1.1-.54-1.74s.11-1.33.54-1.74c.22-.21.59-.36,1.03-.36.48,0,.88.1,1.25.58v-2.48h.45v6.05h-.45ZM18.14,97.41c-1.03,0-1.19.87-1.19,1.72s.16,1.72,1.19,1.72,1.19-.87,1.19-1.72-.16-1.72-1.19-1.72Z"/>
    <path class="cls-6" d="M21.63,95.65v-.54h.55v.54h-.55ZM21.68,101.17v-4.1h.45v4.1h-.45Z"/>
    <path class="cls-6" d="M25.35,103.18c-.63,0-.96-.16-1.39-.54l.3-.29c.33.3.56.45,1.09.45.88,0,1.28-.6,1.28-1.42v-.73c-.38.48-.77.58-1.25.58-.45,0-.81-.14-1.03-.36-.43-.42-.54-1.1-.54-1.74s.11-1.33.54-1.74c.22-.21.59-.36,1.03-.36.48,0,.88.1,1.25.58v-.53h.45v4.33c0,1.03-.63,1.78-1.73,1.78ZM25.44,97.41c-1.03,0-1.19.87-1.19,1.72s.16,1.72,1.19,1.72,1.19-.87,1.19-1.72-.16-1.72-1.19-1.72Z"/>
    <path class="cls-6" d="M28.93,95.65v-.54h.55v.54h-.55ZM28.98,101.17v-4.1h.45v4.1h-.45Z"/>
    <path class="cls-6" d="M32.47,101.17c-.67,0-1.02-.45-1.02-1.07v-2.7h-.58v-.32h.58v-1.31h.45v1.31h.96v.32h-.96v2.71c0,.43.2.68.65.68h.31v.38h-.39Z"/>
    <path class="cls-6" d="M34.35,95.65v-.54h.55v.54h-.55ZM34.4,101.17v-4.1h.45v4.1h-.45Z"/>
    <path class="cls-6" d="M38.06,101.22c-.74,0-1.28-.19-1.71-.59l.31-.3c.32.33.79.5,1.38.5.83,0,1.27-.28,1.27-.83,0-.43-.24-.64-.8-.69l-.7-.06c-.85-.07-1.27-.43-1.27-1.07,0-.71.59-1.16,1.51-1.16.59,0,1.1.16,1.48.43l-.3.29c-.32-.23-.72-.35-1.18-.35-.7,0-1.08.28-1.08.79,0,.43.26.63.86.69l.68.06c.7.07,1.24.27,1.24,1.07,0,.75-.65,1.22-1.69,1.22Z"/>
    <path class="cls-6" d="M41.51,99.22c0,1.05.47,1.61,1.38,1.61.5,0,.8-.14,1.16-.49l.33.25c-.43.42-.82.63-1.52.63-1.16,0-1.79-.73-1.79-2.1s.63-2.1,1.69-2.1,1.69.74,1.69,2v.2h-2.93ZM43.85,98.09c-.18-.43-.6-.69-1.09-.69s-.89.26-1.09.69c-.11.25-.12.38-.15.77h2.49c-.03-.39-.04-.53-.15-.77Z"/>
    <path class="cls-6" d="M48.69,101.17v-.53c-.38.48-.77.58-1.25.58-.45,0-.81-.14-1.03-.36-.43-.42-.54-1.1-.54-1.74s.11-1.33.54-1.74c.22-.21.59-.36,1.03-.36.48,0,.88.1,1.25.58v-2.48h.45v6.05h-.45ZM47.5,97.41c-1.03,0-1.19.87-1.19,1.72s.16,1.72,1.19,1.72,1.19-.87,1.19-1.72-.16-1.72-1.19-1.72Z"/>
    <path class="cls-6" d="M58.49,101.22c-.74,0-1.28-.19-1.71-.59l.31-.3c.32.33.79.5,1.38.5.83,0,1.27-.28,1.27-.83,0-.43-.25-.64-.81-.69l-.7-.06c-.85-.07-1.27-.43-1.27-1.07,0-.71.6-1.16,1.52-1.16.59,0,1.1.16,1.48.43l-.3.29c-.32-.23-.72-.35-1.18-.35-.7,0-1.08.28-1.08.79,0,.43.26.63.86.69l.68.06c.7.07,1.24.27,1.24,1.07,0,.75-.65,1.22-1.69,1.22Z"/>
    <path class="cls-6" d="M62.48,102.28c-.08.22-.17.38-.29.48-.21.2-.52.26-.8.26h-.21v-.38h.17c.48,0,.62-.15.77-.56l.34-.91-1.54-4.1h.49l1.27,3.59,1.27-3.59h.49l-1.96,5.21Z"/>
    <path class="cls-6" d="M66.84,101.22c-.74,0-1.28-.19-1.71-.59l.31-.3c.32.33.79.5,1.38.5.83,0,1.27-.28,1.27-.83,0-.43-.25-.64-.81-.69l-.7-.06c-.85-.07-1.27-.43-1.27-1.07,0-.71.59-1.16,1.51-1.16.59,0,1.1.16,1.48.43l-.3.29c-.32-.23-.72-.35-1.18-.35-.7,0-1.08.28-1.08.79,0,.43.26.63.86.69l.68.06c.7.07,1.23.27,1.23,1.07,0,.75-.65,1.22-1.69,1.22Z"/>
    <path class="cls-6" d="M71.12,101.17c-.67,0-1.02-.45-1.02-1.07v-2.7h-.58v-.32h.58v-1.31h.45v1.31h.96v.32h-.96v2.71c0,.43.2.68.65.68h.31v.38h-.38Z"/>
    <path class="cls-6" d="M73.22,99.22c0,1.05.47,1.61,1.38,1.61.5,0,.81-.14,1.17-.49l.33.25c-.43.42-.82.63-1.52.63-1.17,0-1.79-.73-1.79-2.1s.63-2.1,1.69-2.1,1.69.74,1.69,2v.2h-2.94ZM75.56,98.09c-.18-.43-.61-.69-1.1-.69s-.89.26-1.09.69c-.11.25-.12.38-.15.77h2.49c-.03-.39-.04-.53-.15-.77Z"/>
    <path class="cls-6" d="M83.42,101.17v-2.54c0-.79-.4-1.22-1.17-1.22s-1.19.44-1.19,1.15v2.62h-.45v-2.54c0-.79-.4-1.22-1.17-1.22s-1.19.44-1.19,1.22v2.54h-.45v-4.1h.45v.48c.32-.36.74-.54,1.25-.54.63,0,1.1.26,1.36.75.32-.48.81-.75,1.44-.75.46,0,.84.14,1.11.39.29.27.45.65.45,1.14v2.62h-.45Z"/>
    <path class="cls-6" d="M92.98,101.17c-.67,0-1.02-.45-1.02-1.07v-2.7h-.58v-.32h.58v-1.31h.45v1.31h.96v.32h-.96v2.71c0,.43.2.68.65.68h.31v.38h-.39Z"/>
    <path class="cls-6" d="M97.72,101.17v-2.54c0-.79-.4-1.22-1.17-1.22s-1.19.43-1.19,1.22v2.54h-.45v-6.05h.45v2.44c.31-.36.73-.54,1.24-.54.97,0,1.56.58,1.56,1.53v2.62h-.45Z"/>
    <path class="cls-6" d="M102.51,101.17v-.41c-.36.35-.69.46-1.29.46-.63,0-.97-.1-1.24-.37-.2-.2-.31-.49-.31-.8,0-.75.55-1.18,1.47-1.18h1.37v-.46c0-.65-.32-1-1.19-1-.6,0-.89.14-1.17.52l-.32-.27c.36-.48.8-.63,1.49-.63,1.12,0,1.64.48,1.64,1.34v2.8h-.45ZM102.51,99.22h-1.31c-.72,0-1.08.27-1.08.82s.33.8,1.1.8c.39,0,.75-.03,1.05-.31.16-.14.24-.41.24-.78v-.53Z"/>
    <path class="cls-6" d="M105.96,101.17c-.67,0-1.02-.45-1.02-1.07v-2.7h-.58v-.32h.58v-1.31h.45v1.31h.96v.32h-.96v2.71c0,.43.2.68.65.68h.31v.38h-.39Z"/>
    <path class="cls-6" d="M116.51,101.17v-.41c-.36.35-.69.46-1.29.46-.63,0-.97-.1-1.24-.37-.2-.2-.31-.49-.31-.8,0-.75.55-1.18,1.47-1.18h1.37v-.46c0-.65-.32-1-1.19-1-.6,0-.89.14-1.17.52l-.32-.27c.36-.48.8-.63,1.49-.63,1.12,0,1.64.48,1.64,1.34v2.8h-.45ZM116.51,99.22h-1.31c-.72,0-1.08.27-1.08.82s.33.8,1.1.8c.39,0,.74-.03,1.05-.31.16-.14.24-.41.24-.78v-.53Z"/>
    <path class="cls-6" d="M119.83,101.17c-.69,0-1.02-.42-1.02-1.06v-4.99h.45v4.98c0,.47.15.69.65.69h.31v.38h-.39Z"/>
    <path class="cls-6" d="M122.57,101.17c-.69,0-1.02-.42-1.02-1.06v-4.99h.45v4.98c0,.47.15.69.65.69h.31v.38h-.38Z"/>
    <path class="cls-6" d="M126.84,100.77c-.31.3-.7.45-1.17.45s-.87-.15-1.17-.45c-.45-.43-.53-1.06-.53-1.65s.08-1.22.53-1.65c.31-.3.7-.45,1.17-.45s.87.15,1.17.45c.45.43.53,1.06.53,1.65s-.08,1.22-.53,1.65ZM126.54,97.75c-.24-.23-.53-.35-.88-.35s-.64.12-.88.35c-.35.34-.38.89-.38,1.37s.03,1.03.38,1.37c.24.23.54.35.88.35s.64-.12.88-.35c.35-.34.38-.89.38-1.37s-.03-1.03-.38-1.37Z"/>
    <path class="cls-6" d="M132.91,101.17h-.46l-1.19-3.42-1.19,3.42h-.46l-1.35-4.1h.49l1.08,3.59,1.21-3.59h.44l1.21,3.59,1.08-3.59h.49l-1.35,4.1Z"/>
    <path class="cls-6" d="M136.74,101.22c-.74,0-1.28-.19-1.71-.59l.31-.3c.32.33.79.5,1.38.5.83,0,1.27-.28,1.27-.83,0-.43-.24-.64-.8-.69l-.7-.06c-.85-.07-1.27-.43-1.27-1.07,0-.71.59-1.16,1.51-1.16.59,0,1.1.16,1.48.43l-.3.29c-.32-.23-.72-.35-1.18-.35-.7,0-1.08.28-1.08.79,0,.43.26.63.86.69l.68.06c.7.07,1.24.27,1.24,1.07,0,.75-.65,1.22-1.69,1.22Z"/>
  </g>
  <g>
    <path class="cls-6" d="M18.36,113.22c-1.16,0-1.86-.8-1.86-2.1s.7-2.1,1.86-2.1c.58,0,.95.14,1.39.63l-.31.27c-.36-.39-.64-.52-1.09-.52-.48,0-.87.18-1.12.54-.21.3-.29.62-.29,1.17s.08.88.29,1.17c.25.37.64.54,1.12.54.45,0,.73-.14,1.09-.52l.31.27c-.45.48-.81.63-1.39.63Z"/>
    <path class="cls-6" d="M23.87,113.17v-.48c-.31.36-.73.54-1.24.54-.46,0-.84-.13-1.12-.39-.29-.27-.44-.65-.44-1.14v-2.62h.45v2.54c0,.79.4,1.22,1.16,1.22s1.19-.44,1.19-1.22v-2.54h.45v4.1h-.45Z"/>
    <path class="cls-6" d="M27.38,113.22c-.74,0-1.28-.19-1.71-.59l.31-.3c.32.33.79.5,1.38.5.83,0,1.27-.28,1.27-.83,0-.43-.25-.64-.81-.69l-.7-.06c-.85-.07-1.27-.43-1.27-1.07,0-.71.6-1.16,1.52-1.16.59,0,1.1.16,1.48.43l-.3.29c-.32-.23-.72-.35-1.18-.35-.7,0-1.08.28-1.08.79,0,.43.26.63.86.69l.68.06c.7.07,1.24.27,1.24,1.07,0,.75-.65,1.22-1.69,1.22Z"/>
    <path class="cls-6" d="M31.52,113.17c-.67,0-1.02-.45-1.02-1.07v-2.7h-.58v-.32h.58v-1.31h.45v1.31h.96v.32h-.96v2.71c0,.43.2.68.65.68h.31v.38h-.39Z"/>
    <path class="cls-6" d="M35.9,112.77c-.31.3-.7.45-1.17.45s-.87-.15-1.17-.45c-.45-.43-.53-1.06-.53-1.65s.08-1.22.53-1.65c.31-.3.7-.45,1.17-.45s.87.15,1.17.45c.45.43.53,1.06.53,1.65s-.08,1.22-.53,1.65ZM35.6,109.76c-.24-.23-.53-.35-.88-.35s-.64.12-.88.35c-.35.34-.38.89-.38,1.37s.03,1.03.38,1.37c.24.23.53.35.88.35s.64-.12.88-.35c.35-.34.38-.89.38-1.37s-.03-1.03-.38-1.37Z"/>
    <path class="cls-6" d="M43.55,113.17v-2.54c0-.79-.4-1.22-1.16-1.22s-1.19.44-1.19,1.15v2.62h-.45v-2.54c0-.79-.4-1.22-1.16-1.22s-1.19.44-1.19,1.22v2.54h-.45v-4.1h.45v.48c.31-.36.74-.54,1.25-.54.63,0,1.1.26,1.36.75.32-.48.81-.75,1.44-.75.46,0,.84.14,1.11.39.29.27.45.65.45,1.14v2.62h-.45Z"/>
    <path class="cls-6" d="M45.91,111.22c0,1.05.47,1.61,1.38,1.61.5,0,.81-.14,1.16-.49l.33.25c-.43.42-.82.63-1.52.63-1.17,0-1.8-.73-1.8-2.1s.63-2.1,1.69-2.1,1.69.74,1.69,2v.2h-2.93ZM48.25,110.1c-.18-.43-.6-.69-1.09-.69s-.89.26-1.1.69c-.11.25-.12.38-.15.77h2.49c-.03-.39-.04-.53-.15-.77Z"/>
    <path class="cls-6" d="M51.92,109.41c-.73,0-1.13.59-1.13,1.24v2.52h-.45v-4.1h.45v.54c.25-.38.74-.59,1.24-.59.41,0,.71.09,1.02.39l-.32.31c-.25-.25-.45-.32-.8-.32Z"/>
    <path class="cls-6" d="M55.21,113.22c-.74,0-1.28-.19-1.71-.59l.31-.3c.32.33.79.5,1.38.5.83,0,1.27-.28,1.27-.83,0-.43-.25-.64-.81-.69l-.7-.06c-.85-.07-1.27-.43-1.27-1.07,0-.71.6-1.16,1.52-1.16.59,0,1.1.16,1.48.43l-.3.29c-.32-.23-.72-.35-1.18-.35-.7,0-1.08.28-1.08.79,0,.43.26.63.86.69l.68.06c.7.07,1.24.27,1.24,1.07,0,.75-.65,1.22-1.69,1.22Z"/>
    <path class="cls-6" d="M62.91,113.17c-.67,0-1.02-.45-1.02-1.07v-2.7h-.58v-.32h.58v-1.31h.45v1.31h.95v.32h-.95v2.71c0,.43.2.68.65.68h.31v.38h-.38Z"/>
    <path class="cls-6" d="M67.29,112.77c-.31.3-.7.45-1.17.45s-.87-.15-1.17-.45c-.45-.43-.53-1.06-.53-1.65s.08-1.22.53-1.65c.31-.3.7-.45,1.17-.45s.87.15,1.17.45c.45.43.53,1.06.53,1.65s-.08,1.22-.53,1.65ZM66.99,109.76c-.24-.23-.53-.35-.88-.35s-.64.12-.88.35c-.35.34-.38.89-.38,1.37s.03,1.03.38,1.37c.24.23.54.35.88.35s.64-.12.88-.35c.35-.34.38-.89.38-1.37s-.03-1.03-.38-1.37Z"/>
    <path class="cls-6" d="M74.12,113.22c-.74,0-1.28-.19-1.71-.59l.31-.3c.32.33.79.5,1.38.5.83,0,1.27-.28,1.27-.83,0-.43-.25-.64-.81-.69l-.7-.06c-.85-.07-1.27-.43-1.27-1.07,0-.71.59-1.16,1.51-1.16.59,0,1.1.16,1.48.43l-.3.29c-.32-.23-.72-.35-1.18-.35-.7,0-1.08.28-1.08.79,0,.43.26.63.86.69l.68.06c.7.07,1.23.27,1.23,1.07,0,.75-.65,1.22-1.69,1.22Z"/>
    <path class="cls-6" d="M77.42,111.22c0,1.05.47,1.61,1.38,1.61.5,0,.81-.14,1.17-.49l.33.25c-.43.42-.82.63-1.52.63-1.17,0-1.79-.73-1.79-2.1s.63-2.1,1.69-2.1,1.69.74,1.69,2v.2h-2.94ZM79.76,110.1c-.18-.43-.61-.69-1.1-.69s-.89.26-1.09.69c-.11.25-.12.38-.15.77h2.49c-.03-.39-.04-.53-.15-.77Z"/>
    <path class="cls-6" d="M82.86,113.17c-.69,0-1.02-.42-1.02-1.06v-4.99h.45v4.98c0,.47.15.69.65.69h.31v.38h-.38Z"/>
    <path class="cls-6" d="M84.57,111.22c0,1.05.47,1.61,1.38,1.61.5,0,.81-.14,1.17-.49l.33.25c-.43.42-.82.63-1.52.63-1.17,0-1.79-.73-1.79-2.1s.63-2.1,1.69-2.1,1.69.74,1.69,2v.2h-2.94ZM86.91,110.1c-.18-.43-.61-.69-1.1-.69s-.89.26-1.09.69c-.11.25-.12.38-.15.77h2.49c-.03-.39-.04-.53-.15-.77Z"/>
    <path class="cls-6" d="M90.62,113.22c-1.16,0-1.86-.8-1.86-2.1s.7-2.1,1.86-2.1c.58,0,.95.14,1.39.63l-.31.27c-.36-.39-.64-.52-1.09-.52-.48,0-.87.18-1.12.54-.21.3-.29.62-.29,1.17s.08.88.29,1.17c.25.37.64.54,1.12.54.45,0,.73-.14,1.09-.52l.31.27c-.45.48-.81.63-1.39.63Z"/>
    <path class="cls-6" d="M94.52,113.17c-.67,0-1.02-.45-1.02-1.07v-2.7h-.58v-.32h.58v-1.31h.45v1.31h.96v.32h-.96v2.71c0,.43.2.68.65.68h.31v.38h-.38Z"/>
    <path class="cls-6" d="M102.52,112.87c-.22.21-.59.36-1.03.36-.48,0-.88-.1-1.25-.58v2.48h-.45v-6.05h.45v.53c.38-.48.77-.58,1.25-.58.45,0,.81.14,1.03.36.43.42.54,1.1.54,1.74s-.11,1.33-.54,1.74ZM101.42,109.41c-1.03,0-1.19.87-1.19,1.72s.16,1.72,1.19,1.72,1.19-.87,1.19-1.72-.16-1.72-1.19-1.72Z"/>
    <path class="cls-6" d="M106.16,109.41c-.73,0-1.13.59-1.13,1.24v2.52h-.45v-4.1h.45v.54c.25-.38.74-.59,1.24-.59.41,0,.71.09,1.02.39l-.32.31c-.25-.25-.45-.32-.8-.32Z"/>
    <path class="cls-6" d="M110.61,112.77c-.31.3-.7.45-1.17.45s-.87-.15-1.17-.45c-.45-.43-.53-1.06-.53-1.65s.08-1.22.53-1.65c.31-.3.7-.45,1.17-.45s.87.15,1.17.45c.45.43.53,1.06.53,1.65s-.08,1.22-.53,1.65ZM110.31,109.76c-.24-.23-.53-.35-.88-.35s-.64.12-.88.35c-.35.34-.38.89-.38,1.37s.03,1.03.38,1.37c.24.23.53.35.88.35s.64-.12.88-.35c.35-.34.38-.89.38-1.37s-.03-1.03-.38-1.37Z"/>
    <path class="cls-6" d="M115.39,112.87c-.22.21-.59.36-1.03.36-.48,0-.88-.1-1.25-.58v2.48h-.45v-6.05h.45v.53c.38-.48.77-.58,1.25-.58.45,0,.81.14,1.03.36.43.42.54,1.1.54,1.74s-.11,1.33-.54,1.74ZM114.29,109.41c-1.03,0-1.19.87-1.19,1.72s.16,1.72,1.19,1.72,1.19-.87,1.19-1.72-.16-1.72-1.19-1.72Z"/>
    <path class="cls-6" d="M117.65,111.22c0,1.05.47,1.61,1.38,1.61.5,0,.81-.14,1.16-.49l.33.25c-.43.42-.82.63-1.52.63-1.17,0-1.8-.73-1.8-2.1s.63-2.1,1.69-2.1,1.69.74,1.69,2v.2h-2.93ZM119.99,110.1c-.18-.43-.6-.69-1.09-.69s-.89.26-1.1.69c-.11.25-.12.38-.15.77h2.49c-.03-.39-.04-.53-.15-.77Z"/>
    <path class="cls-6" d="M123.68,109.41c-.73,0-1.13.59-1.13,1.24v2.52h-.45v-4.1h.45v.54c.24-.38.73-.59,1.23-.59.41,0,.71.09,1.02.39l-.32.31c-.25-.25-.45-.32-.8-.32Z"/>
    <path class="cls-6" d="M126.87,113.17c-.67,0-1.02-.45-1.02-1.07v-2.7h-.58v-.32h.58v-1.31h.45v1.31h.95v.32h-.95v2.71c0,.43.2.68.65.68h.31v.38h-.38Z"/>
    <path class="cls-6" d="M128.61,107.66v-.54h.55v.54h-.55ZM128.67,113.17v-4.1h.45v4.1h-.45Z"/>
    <path class="cls-6" d="M131.08,111.22c0,1.05.47,1.61,1.38,1.61.5,0,.81-.14,1.16-.49l.33.25c-.43.42-.82.63-1.52.63-1.17,0-1.8-.73-1.8-2.1s.63-2.1,1.69-2.1,1.69.74,1.69,2v.2h-2.93ZM133.42,110.1c-.18-.43-.6-.69-1.09-.69s-.89.26-1.1.69c-.11.25-.12.38-.15.77h2.49c-.03-.39-.04-.53-.15-.77Z"/>
    <path class="cls-6" d="M136.83,113.22c-.74,0-1.28-.19-1.71-.59l.31-.3c.32.33.79.5,1.38.5.83,0,1.27-.28,1.27-.83,0-.43-.25-.64-.81-.69l-.7-.06c-.85-.07-1.27-.43-1.27-1.07,0-.71.59-1.16,1.51-1.16.59,0,1.1.16,1.48.43l-.3.29c-.32-.23-.72-.35-1.18-.35-.7,0-1.08.28-1.08.79,0,.43.26.63.86.69l.68.06c.7.07,1.23.27,1.23,1.07,0,.75-.65,1.22-1.69,1.22Z"/>
  </g>
  <g>
    <path class="cls-6" d="M20.64,125.17h-.45l-1.18-3.42-1.19,3.42h-.45l-1.34-4.1h.49l1.07,3.59,1.2-3.59h.44l1.2,3.59,1.07-3.59h.49l-1.34,4.1Z"/>
    <path class="cls-6" d="M22.94,119.65v-.54h.55v.54h-.55ZM22.99,125.17v-4.1h.44v4.1h-.44Z"/>
    <path class="cls-6" d="M26.29,125.17c-.66,0-1.01-.45-1.01-1.07v-2.7h-.58v-.32h.58v-1.31h.44v1.31h.95v.32h-.95v2.71c0,.43.2.68.64.68h.31v.38h-.38Z"/>
    <path class="cls-6" d="M30.84,125.17v-2.54c0-.79-.4-1.22-1.16-1.22s-1.18.43-1.18,1.22v2.54h-.45v-6.05h.45v2.44c.31-.36.72-.54,1.24-.54.97,0,1.55.58,1.55,1.53v2.62h-.44Z"/>
    <path class="cls-6" d="M37.93,125.22c-1.15,0-1.85-.8-1.85-2.1s.7-2.1,1.85-2.1c.58,0,.94.14,1.38.63l-.3.27c-.36-.39-.64-.52-1.08-.52-.48,0-.86.18-1.12.54-.21.3-.29.62-.29,1.17s.08.88.29,1.17c.25.37.64.54,1.12.54.44,0,.72-.14,1.08-.52l.3.27c-.44.48-.81.63-1.38.63Z"/>
    <path class="cls-6" d="M43.17,124.77c-.31.3-.7.45-1.17.45s-.86-.15-1.17-.45c-.44-.43-.52-1.06-.52-1.65s.08-1.22.52-1.65c.3-.3.7-.45,1.17-.45s.86.15,1.17.45c.44.43.52,1.06.52,1.65s-.08,1.22-.52,1.65ZM42.87,121.75c-.24-.23-.53-.35-.87-.35s-.64.12-.87.35c-.35.34-.38.89-.38,1.37s.03,1.03.38,1.37c.23.23.53.35.87.35s.63-.12.87-.35c.35-.34.38-.89.38-1.37s-.03-1.03-.38-1.37Z"/>
    <path class="cls-6" d="M50.77,125.17v-2.54c0-.79-.4-1.22-1.16-1.22s-1.18.44-1.18,1.15v2.62h-.45v-2.54c0-.79-.4-1.22-1.16-1.22s-1.19.44-1.19,1.22v2.54h-.44v-4.1h.44v.48c.31-.36.73-.54,1.25-.54.63,0,1.1.26,1.35.75.31-.48.8-.75,1.43-.75.46,0,.84.14,1.11.39.29.27.44.65.44,1.14v2.62h-.44Z"/>
    <path class="cls-6" d="M55.61,124.86c-.22.21-.58.36-1.03.36-.48,0-.87-.1-1.25-.58v2.48h-.45v-6.05h.45v.53c.37-.48.77-.58,1.25-.58.44,0,.81.14,1.03.36.43.42.54,1.1.54,1.74s-.11,1.33-.54,1.74ZM54.52,121.4c-1.03,0-1.18.87-1.18,1.72s.16,1.72,1.18,1.72,1.18-.87,1.18-1.72-.16-1.72-1.18-1.72Z"/>
    <path class="cls-6" d="M59.21,121.4c-.72,0-1.12.59-1.12,1.24v2.52h-.45v-4.1h.45v.54c.24-.38.73-.59,1.23-.59.41,0,.71.09,1.01.39l-.32.31c-.25-.25-.44-.32-.79-.32Z"/>
    <path class="cls-6" d="M61.21,123.21c0,1.05.47,1.61,1.37,1.61.5,0,.8-.14,1.16-.49l.33.25c-.43.42-.82.63-1.52.63-1.16,0-1.79-.73-1.79-2.1s.63-2.1,1.68-2.1,1.68.74,1.68,2v.2h-2.92ZM63.53,122.09c-.18-.43-.6-.69-1.09-.69s-.89.26-1.09.69c-.11.25-.12.38-.15.77h2.47c-.03-.39-.04-.53-.15-.77Z"/>
    <path class="cls-6" d="M68.4,125.17v-2.54c0-.79-.4-1.22-1.16-1.22s-1.18.43-1.18,1.22v2.54h-.44v-6.05h.44v2.44c.31-.36.72-.54,1.24-.54.97,0,1.55.58,1.55,1.53v2.62h-.44Z"/>
    <path class="cls-6" d="M70.74,123.21c0,1.05.47,1.61,1.37,1.61.5,0,.8-.14,1.16-.49l.33.25c-.43.42-.82.63-1.52.63-1.16,0-1.79-.73-1.79-2.1s.63-2.1,1.68-2.1,1.68.74,1.68,2v.2h-2.92ZM73.06,122.09c-.18-.43-.6-.69-1.09-.69s-.89.26-1.09.69c-.11.25-.12.38-.15.77h2.47c-.03-.39-.04-.53-.15-.77Z"/>
    <path class="cls-6" d="M77.93,125.17v-2.54c0-.79-.4-1.22-1.16-1.22s-1.19.44-1.19,1.22v2.54h-.44v-4.1h.44v.48c.31-.36.72-.54,1.24-.54.46,0,.84.13,1.12.39.29.27.44.65.44,1.14v2.62h-.45Z"/>
    <path class="cls-6" d="M81.35,125.22c-.73,0-1.27-.19-1.7-.59l.3-.3c.32.33.78.5,1.38.5.83,0,1.26-.28,1.26-.83,0-.43-.24-.64-.8-.69l-.7-.06c-.84-.07-1.26-.43-1.26-1.07,0-.71.59-1.16,1.51-1.16.58,0,1.1.16,1.47.43l-.3.29c-.32-.23-.71-.35-1.18-.35-.7,0-1.07.28-1.07.79,0,.43.26.63.85.69l.68.06c.7.07,1.23.27,1.23,1.07,0,.75-.65,1.22-1.68,1.22Z"/>
    <path class="cls-6" d="M84.37,119.65v-.54h.55v.54h-.55ZM84.42,125.17v-4.1h.45v4.1h-.45Z"/>
    <path class="cls-6" d="M87.85,125.17h-.44l-1.53-4.1h.49l1.26,3.59,1.26-3.59h.49l-1.53,4.1Z"/>
    <path class="cls-6" d="M90.53,123.21c0,1.05.47,1.61,1.37,1.61.5,0,.8-.14,1.16-.49l.33.25c-.43.42-.82.63-1.52.63-1.16,0-1.79-.73-1.79-2.1s.63-2.1,1.68-2.1,1.68.74,1.68,2v.2h-2.92ZM92.85,122.09c-.18-.43-.6-.69-1.09-.69s-.89.26-1.09.69c-.11.25-.12.38-.15.77h2.47c-.03-.39-.03-.53-.15-.77Z"/>
    <path class="cls-6" d="M100.75,125.17v-.41c-.36.35-.69.46-1.28.46-.63,0-.97-.1-1.24-.37-.2-.2-.31-.49-.31-.8,0-.75.55-1.18,1.46-1.18h1.36v-.46c0-.65-.32-1-1.19-1-.59,0-.89.14-1.16.52l-.32-.27c.36-.48.79-.63,1.48-.63,1.12,0,1.63.48,1.63,1.34v2.8h-.44ZM100.75,123.21h-1.31c-.71,0-1.07.27-1.07.82s.33.8,1.1.8c.38,0,.74-.03,1.04-.31.16-.14.24-.41.24-.78v-.53Z"/>
    <path class="cls-6" d="M106.8,125.17h-.45l-1.19-3.42-1.18,3.42h-.45l-1.34-4.1h.49l1.07,3.59,1.2-3.59h.44l1.2,3.59,1.07-3.59h.49l-1.34,4.1Z"/>
    <path class="cls-6" d="M111.58,125.17v-.41c-.36.35-.69.46-1.28.46-.63,0-.97-.1-1.24-.37-.2-.2-.31-.49-.31-.8,0-.75.55-1.18,1.46-1.18h1.36v-.46c0-.65-.32-1-1.19-1-.59,0-.89.14-1.16.52l-.32-.27c.36-.48.79-.63,1.48-.63,1.12,0,1.63.48,1.63,1.34v2.8h-.44ZM111.58,123.21h-1.31c-.71,0-1.07.27-1.07.82s.33.8,1.1.8c.38,0,.74-.03,1.05-.31.16-.14.24-.41.24-.78v-.53Z"/>
    <path class="cls-6" d="M115.3,121.4c-.72,0-1.12.59-1.12,1.24v2.52h-.45v-4.1h.45v.54c.24-.38.73-.59,1.23-.59.41,0,.71.09,1.01.39l-.32.31c-.25-.25-.44-.32-.79-.32Z"/>
    <path class="cls-6" d="M117.29,123.21c0,1.05.47,1.61,1.37,1.61.5,0,.8-.14,1.16-.49l.33.25c-.43.42-.82.63-1.52.63-1.16,0-1.79-.73-1.79-2.1s.63-2.1,1.68-2.1,1.68.74,1.68,2v.2h-2.92ZM119.62,122.09c-.18-.43-.6-.69-1.09-.69s-.89.26-1.09.69c-.11.25-.12.38-.15.77h2.47c-.03-.39-.04-.53-.15-.77Z"/>
    <path class="cls-6" d="M124.49,125.17v-2.54c0-.79-.4-1.22-1.16-1.22s-1.19.44-1.19,1.22v2.54h-.44v-4.1h.44v.48c.31-.36.72-.54,1.24-.54.46,0,.84.13,1.12.39.29.27.44.65.44,1.14v2.62h-.45Z"/>
    <path class="cls-6" d="M126.82,123.21c0,1.05.47,1.61,1.37,1.61.5,0,.8-.14,1.16-.49l.33.25c-.43.42-.82.63-1.52.63-1.16,0-1.79-.73-1.79-2.1s.63-2.1,1.68-2.1,1.68.74,1.68,2v.2h-2.92ZM129.15,122.09c-.18-.43-.6-.69-1.09-.69s-.89.26-1.09.69c-.11.25-.12.38-.15.77h2.47c-.03-.39-.04-.53-.15-.77Z"/>
    <path class="cls-6" d="M132.51,125.22c-.73,0-1.27-.19-1.7-.59l.31-.3c.32.33.78.5,1.38.5.83,0,1.26-.28,1.26-.83,0-.43-.24-.64-.8-.69l-.7-.06c-.85-.07-1.26-.43-1.26-1.07,0-.71.59-1.16,1.51-1.16.58,0,1.1.16,1.47.43l-.3.29c-.32-.23-.71-.35-1.18-.35-.7,0-1.07.28-1.07.79,0,.43.26.63.85.69l.68.06c.7.07,1.23.27,1.23,1.07,0,.75-.65,1.22-1.68,1.22Z"/>
    <path class="cls-6" d="M136.82,125.22c-.73,0-1.27-.19-1.7-.59l.3-.3c.32.33.79.5,1.38.5.83,0,1.26-.28,1.26-.83,0-.43-.24-.64-.8-.69l-.7-.06c-.84-.07-1.26-.43-1.26-1.07,0-.71.59-1.16,1.51-1.16.58,0,1.1.16,1.47.43l-.29.29c-.32-.23-.71-.35-1.18-.35-.7,0-1.07.28-1.07.79,0,.43.26.63.85.69l.68.06c.7.07,1.23.27,1.23,1.07,0,.75-.64,1.22-1.68,1.22Z"/>
  </g>
  <g>
    <path class="cls-6" d="M19.37,136.77c-.31.3-.7.45-1.17.45s-.87-.15-1.17-.45c-.45-.43-.53-1.06-.53-1.65s.08-1.22.53-1.65c.31-.3.7-.45,1.17-.45s.87.15,1.17.45c.45.43.53,1.06.53,1.65s-.08,1.22-.53,1.65ZM19.07,133.75c-.24-.23-.53-.35-.88-.35s-.64.12-.88.35c-.35.34-.38.89-.38,1.37s.03,1.03.38,1.37c.24.23.53.35.88.35s.64-.12.88-.35c.35-.34.38-.89.38-1.37s-.03-1.03-.38-1.37Z"/>
    <path class="cls-6" d="M22.05,133.39v3.77h-.45v-3.77h-.58v-.32h.58v-.88c0-.62.35-1.07,1.02-1.07h.38v.38h-.31c-.45,0-.65.25-.65.68v.89h.96v.32h-.96Z"/>
    <path class="cls-6" d="M29.61,137.17c-.69,0-1.02-.42-1.02-1.06v-4.99h.45v4.98c0,.47.15.69.65.69h.31v.38h-.38Z"/>
    <path class="cls-6" d="M31.35,135.21c0,1.05.47,1.61,1.38,1.61.5,0,.81-.14,1.17-.49l.33.25c-.43.42-.82.63-1.52.63-1.17,0-1.79-.73-1.79-2.1s.63-2.1,1.69-2.1,1.69.74,1.69,2v.2h-2.94ZM33.69,134.09c-.18-.43-.61-.69-1.1-.69s-.89.26-1.09.69c-.11.25-.12.38-.15.77h2.49c-.03-.39-.04-.53-.15-.77Z"/>
    <path class="cls-6" d="M37.14,139.17c-.63,0-.96-.16-1.39-.54l.3-.29c.33.3.56.45,1.09.45.88,0,1.28-.6,1.28-1.42v-.73c-.38.48-.77.58-1.25.58-.45,0-.81-.14-1.03-.36-.43-.42-.54-1.1-.54-1.74s.11-1.33.54-1.74c.22-.21.59-.36,1.03-.36.48,0,.88.1,1.25.58v-.53h.45v4.33c0,1.03-.63,1.78-1.73,1.78ZM37.23,133.4c-1.03,0-1.19.87-1.19,1.72s.16,1.72,1.19,1.72,1.19-.87,1.19-1.72-.16-1.72-1.19-1.72Z"/>
    <path class="cls-6" d="M43.17,137.17v-.41c-.36.35-.69.46-1.29.46-.63,0-.97-.1-1.24-.37-.2-.2-.31-.49-.31-.8,0-.75.55-1.18,1.47-1.18h1.37v-.46c0-.65-.32-1-1.19-1-.6,0-.89.14-1.17.52l-.32-.27c.36-.48.8-.63,1.49-.63,1.12,0,1.64.48,1.64,1.34v2.8h-.45ZM43.17,135.21h-1.31c-.72,0-1.08.27-1.08.82s.33.8,1.1.8c.39,0,.74-.03,1.05-.31.16-.14.24-.41.24-.78v-.53Z"/>
    <path class="cls-6" d="M46.4,137.17c-.69,0-1.02-.42-1.02-1.06v-4.99h.45v4.98c0,.47.15.69.65.69h.31v.38h-.38Z"/>
    <path class="cls-6" d="M53.51,137.17c-.67,0-1.02-.45-1.02-1.07v-2.7h-.58v-.32h.58v-1.31h.45v1.31h.96v.32h-.96v2.71c0,.43.2.68.65.68h.31v.38h-.38Z"/>
    <path class="cls-6" d="M55.3,131.65v-.54h.55v.54h-.55ZM55.35,137.17v-4.1h.45v4.1h-.45Z"/>
    <path class="cls-6" d="M58.73,137.17c-.67,0-1.02-.45-1.02-1.07v-2.7h-.58v-.32h.58v-1.31h.45v1.31h.96v.32h-.96v2.71c0,.43.2.68.65.68h.31v.38h-.38Z"/>
    <path class="cls-6" d="M61.58,137.17c-.69,0-1.02-.42-1.02-1.06v-4.99h.45v4.98c0,.47.15.69.65.69h.31v.38h-.38Z"/>
    <path class="cls-6" d="M63.32,135.21c0,1.05.47,1.61,1.38,1.61.5,0,.81-.14,1.17-.49l.33.25c-.43.42-.82.63-1.52.63-1.17,0-1.79-.73-1.79-2.1s.63-2.1,1.69-2.1,1.69.74,1.69,2v.2h-2.94ZM65.66,134.09c-.18-.43-.61-.69-1.1-.69s-.89.26-1.09.69c-.11.25-.12.38-.15.77h2.49c-.03-.39-.04-.53-.15-.77Z"/>
    <path class="cls-6" d="M69.11,137.22c-.74,0-1.28-.19-1.71-.59l.31-.3c.32.33.79.5,1.38.5.83,0,1.27-.28,1.27-.83,0-.43-.25-.64-.81-.69l-.7-.06c-.85-.07-1.27-.43-1.27-1.07,0-.71.59-1.16,1.51-1.16.59,0,1.1.16,1.48.43l-.3.29c-.32-.23-.72-.35-1.18-.35-.7,0-1.08.28-1.08.79,0,.43.26.63.86.69l.68.06c.7.07,1.23.27,1.23,1.07,0,.75-.65,1.22-1.69,1.22Z"/>
    <path class="cls-6" d="M72.24,138.32v-1.73h.6v1.16l-.6.58Z"/>
    <path class="cls-6" d="M79.19,135.21c0,1.05.47,1.61,1.38,1.61.5,0,.81-.14,1.17-.49l.33.25c-.43.42-.82.63-1.52.63-1.17,0-1.8-.73-1.8-2.1s.63-2.1,1.69-2.1,1.69.74,1.69,2v.2h-2.93ZM81.53,134.09c-.18-.43-.6-.69-1.09-.69s-.89.26-1.1.69c-.11.25-.12.38-.15.77h2.49c-.03-.39-.04-.53-.15-.77Z"/>
    <path class="cls-6" d="M86.5,137.17v-2.54c0-.79-.4-1.22-1.17-1.22s-1.19.44-1.19,1.22v2.54h-.45v-4.1h.45v.48c.31-.36.73-.54,1.24-.54.46,0,.84.13,1.12.39.29.27.44.65.44,1.14v2.62h-.45Z"/>
    <path class="cls-6" d="M90.32,137.22c-1.16,0-1.86-.8-1.86-2.1s.7-2.1,1.86-2.1c.58,0,.95.14,1.39.63l-.31.27c-.36-.39-.64-.52-1.09-.52-.48,0-.87.18-1.12.54-.21.3-.29.62-.29,1.17s.08.88.29,1.17c.25.37.64.54,1.12.54.45,0,.73-.14,1.09-.52l.31.27c-.45.48-.82.63-1.39.63Z"/>
    <path class="cls-6" d="M95.89,137.17v-.48c-.32.36-.73.54-1.24.54-.46,0-.84-.13-1.12-.39-.29-.27-.44-.65-.44-1.14v-2.62h.45v2.54c0,.79.4,1.22,1.17,1.22s1.19-.44,1.19-1.22v-2.54h.45v4.1h-.45Z"/>
    <path class="cls-6" d="M103.76,137.17v-2.54c0-.79-.4-1.22-1.16-1.22s-1.19.44-1.19,1.15v2.62h-.45v-2.54c0-.79-.4-1.22-1.16-1.22s-1.19.44-1.19,1.22v2.54h-.45v-4.1h.45v.48c.31-.36.74-.54,1.25-.54.63,0,1.1.26,1.36.75.32-.48.81-.75,1.44-.75.46,0,.84.14,1.11.39.29.27.45.65.45,1.14v2.62h-.45Z"/>
    <path class="cls-6" d="M108.7,136.86c-.22.21-.59.36-1.03.36-.48,0-.88-.1-1.25-.58v.53h-.45v-6.05h.45v2.48c.38-.48.77-.58,1.25-.58.45,0,.81.14,1.03.36.43.42.54,1.1.54,1.74s-.12,1.33-.54,1.74ZM107.6,133.4c-1.03,0-1.19.87-1.19,1.72s.16,1.72,1.19,1.72,1.19-.87,1.19-1.72-.16-1.72-1.19-1.72Z"/>
    <path class="cls-6" d="M112.39,133.4c-.73,0-1.13.59-1.13,1.24v2.52h-.45v-4.1h.45v.54c.25-.38.74-.59,1.24-.59.41,0,.71.09,1.02.39l-.32.31c-.25-.25-.45-.32-.8-.32Z"/>
    <path class="cls-6" d="M116.9,137.17v-.41c-.36.35-.69.46-1.29.46-.63,0-.97-.1-1.24-.37-.2-.2-.31-.49-.31-.8,0-.75.55-1.18,1.47-1.18h1.37v-.46c0-.65-.32-1-1.19-1-.6,0-.89.14-1.17.52l-.32-.27c.36-.48.8-.63,1.49-.63,1.12,0,1.64.48,1.64,1.34v2.8h-.45ZM116.9,135.21h-1.31c-.72,0-1.08.27-1.08.82s.33.8,1.1.8c.39,0,.75-.03,1.05-.31.16-.14.24-.41.24-.78v-.53Z"/>
    <path class="cls-6" d="M121.94,137.17v-2.54c0-.79-.4-1.22-1.16-1.22s-1.19.44-1.19,1.22v2.54h-.45v-4.1h.45v.48c.31-.36.73-.54,1.24-.54.46,0,.84.13,1.12.39.29.27.44.65.44,1.14v2.62h-.45Z"/>
    <path class="cls-6" d="M125.76,137.22c-1.16,0-1.86-.8-1.86-2.1s.7-2.1,1.86-2.1c.58,0,.95.14,1.39.63l-.31.27c-.36-.39-.64-.52-1.09-.52-.48,0-.87.18-1.12.54-.21.3-.29.62-.29,1.17s.08.88.29,1.17c.25.37.64.54,1.12.54.45,0,.73-.14,1.09-.52l.31.27c-.45.48-.81.63-1.39.63Z"/>
    <path class="cls-6" d="M128.66,135.21c0,1.05.47,1.61,1.38,1.61.5,0,.81-.14,1.17-.49l.33.25c-.43.42-.82.63-1.52.63-1.17,0-1.8-.73-1.8-2.1s.63-2.1,1.69-2.1,1.69.74,1.69,2v.2h-2.93ZM131,134.09c-.18-.43-.6-.69-1.09-.69s-.89.26-1.1.69c-.11.25-.12.38-.15.77h2.49c-.03-.39-.04-.53-.15-.77Z"/>
    <path class="cls-6" d="M134.45,137.22c-.74,0-1.28-.19-1.71-.59l.31-.3c.32.33.79.5,1.38.5.83,0,1.27-.28,1.27-.83,0-.43-.25-.64-.81-.69l-.7-.06c-.85-.07-1.27-.43-1.27-1.07,0-.71.6-1.16,1.52-1.16.59,0,1.1.16,1.48.43l-.3.29c-.32-.23-.72-.35-1.18-.35-.7,0-1.08.28-1.08.79,0,.43.26.63.86.69l.68.06c.7.07,1.24.27,1.24,1.07,0,.75-.65,1.22-1.69,1.22Z"/>
    <path class="cls-6" d="M137.58,138.32v-1.73h.6v1.16l-.6.58Z"/>
  </g>
  <g>
    <path class="cls-6" d="M17.9,149.17h-.42l-1.47-4.1h.47l1.21,3.59,1.21-3.59h.47l-1.47,4.1Z"/>
    <path class="cls-6" d="M22.56,149.17v-.41c-.34.35-.66.46-1.23.46-.6,0-.93-.1-1.18-.37-.19-.2-.29-.49-.29-.8,0-.75.53-1.18,1.4-1.18h1.3v-.46c0-.65-.31-1-1.14-1-.57,0-.85.14-1.11.52l-.31-.27c.34-.48.76-.63,1.42-.63,1.07,0,1.56.48,1.56,1.34v2.8h-.42ZM22.56,147.21h-1.25c-.69,0-1.03.27-1.03.82s.32.8,1.05.8c.37,0,.71-.03,1-.31.15-.14.23-.41.23-.78v-.53Z"/>
    <path class="cls-6" d="M25.46,149.17c-.66,0-.97-.42-.97-1.06v-4.99h.43v4.98c0,.47.14.69.62.69h.29v.38h-.37Z"/>
    <path class="cls-6" d="M29.47,149.17v-.48c-.3.36-.69.54-1.19.54-.44,0-.8-.13-1.07-.39-.28-.27-.42-.65-.42-1.14v-2.62h.43v2.54c0,.79.38,1.22,1.11,1.22s1.14-.44,1.14-1.22v-2.54h.42v4.1h-.42Z"/>
    <path class="cls-6" d="M31.64,147.21c0,1.05.45,1.61,1.31,1.61.48,0,.77-.14,1.11-.49l.32.25c-.41.42-.79.63-1.45.63-1.11,0-1.71-.73-1.71-2.1s.6-2.1,1.61-2.1,1.61.74,1.61,2v.2h-2.8ZM33.87,146.09c-.17-.43-.58-.69-1.04-.69s-.85.26-1.04.69c-.11.25-.12.38-.14.77h2.37c-.03-.39-.03-.53-.14-.77Z"/>
    <path class="cls-6" d="M36.98,149.22c-.7,0-1.22-.19-1.63-.59l.29-.3c.31.33.75.5,1.32.5.79,0,1.21-.28,1.21-.83,0-.43-.23-.64-.77-.69l-.67-.06c-.81-.07-1.21-.43-1.21-1.07,0-.71.57-1.16,1.44-1.16.56,0,1.05.16,1.41.43l-.28.29c-.31-.23-.69-.35-1.13-.35-.67,0-1.03.28-1.03.79,0,.43.25.63.82.69l.65.06c.67.07,1.18.27,1.18,1.07,0,.75-.62,1.22-1.61,1.22Z"/>
    <path class="cls-6" d="M39.8,150.32v-1.73h.57v1.16l-.57.58Z"/>
    <path class="cls-6" d="M46.35,148.86c-.21.21-.56.36-.98.36-.46,0-.83-.1-1.19-.58v2.48h-.43v-6.05h.43v.53c.36-.48.73-.58,1.19-.58.43,0,.78.14.98.36.41.42.52,1.1.52,1.74s-.11,1.33-.52,1.74ZM45.31,145.4c-.98,0-1.13.87-1.13,1.72s.15,1.72,1.13,1.72,1.13-.87,1.13-1.72-.15-1.72-1.13-1.72Z"/>
    <path class="cls-6" d="M48.39,147.21c0,1.05.45,1.61,1.31,1.61.48,0,.77-.14,1.11-.49l.32.25c-.41.42-.78.63-1.45.63-1.11,0-1.71-.73-1.71-2.1s.6-2.1,1.61-2.1,1.61.74,1.61,2v.2h-2.8ZM50.62,146.09c-.17-.43-.58-.69-1.04-.69s-.85.26-1.04.69c-.11.25-.12.38-.14.77h2.37c-.02-.39-.03-.53-.14-.77Z"/>
    <path class="cls-6" d="M55.18,149.17v-2.54c0-.79-.38-1.22-1.11-1.22s-1.13.44-1.13,1.22v2.54h-.43v-4.1h.43v.48c.3-.36.69-.54,1.19-.54.44,0,.8.13,1.07.39.28.27.42.65.42,1.14v2.62h-.43Z"/>
    <path class="cls-6" d="M59.57,149.17v-.53c-.36.48-.73.58-1.19.58-.43,0-.78-.14-.98-.36-.41-.42-.52-1.1-.52-1.74s.11-1.33.52-1.74c.21-.21.56-.36.98-.36.46,0,.83.1,1.19.58v-2.48h.43v6.05h-.43ZM58.44,145.4c-.98,0-1.13.87-1.13,1.72s.15,1.72,1.13,1.72,1.13-.87,1.13-1.72-.15-1.72-1.13-1.72Z"/>
    <path class="cls-6" d="M61.51,143.65v-.54h.53v.54h-.53ZM61.56,149.17v-4.1h.43v4.1h-.43Z"/>
    <path class="cls-6" d="M66.22,149.17v-2.54c0-.79-.38-1.22-1.11-1.22s-1.13.44-1.13,1.22v2.54h-.43v-4.1h.43v.48c.3-.36.69-.54,1.18-.54.44,0,.8.13,1.07.39.28.27.42.65.42,1.14v2.62h-.43Z"/>
    <path class="cls-6" d="M69.4,151.17c-.6,0-.91-.16-1.33-.54l.28-.29c.32.3.53.45,1.04.45.84,0,1.22-.6,1.22-1.42v-.73c-.36.48-.73.58-1.19.58-.43,0-.78-.14-.99-.36-.41-.42-.52-1.1-.52-1.74s.11-1.33.52-1.74c.21-.21.56-.36.99-.36.46,0,.83.1,1.19.58v-.53h.43v4.33c0,1.03-.6,1.78-1.64,1.78ZM69.48,145.4c-.99,0-1.14.87-1.14,1.72s.15,1.72,1.14,1.72,1.13-.87,1.13-1.72-.15-1.72-1.13-1.72Z"/>
    <path class="cls-6" d="M76.92,149.17v-.53c-.36.48-.73.58-1.19.58-.42,0-.78-.14-.99-.36-.41-.42-.52-1.1-.52-1.74s.11-1.33.52-1.74c.21-.21.56-.36.99-.36.46,0,.83.1,1.19.58v-2.48h.43v6.05h-.43ZM75.78,145.4c-.99,0-1.14.87-1.14,1.72s.15,1.72,1.14,1.72,1.14-.87,1.14-1.72-.15-1.72-1.14-1.72Z"/>
    <path class="cls-6" d="M81.52,149.17v-.48c-.3.36-.69.54-1.19.54-.44,0-.8-.13-1.07-.39-.28-.27-.42-.65-.42-1.14v-2.62h.42v2.54c0,.79.38,1.22,1.11,1.22s1.13-.44,1.13-1.22v-2.54h.43v4.1h-.43Z"/>
    <path class="cls-6" d="M83.7,147.21c0,1.05.45,1.61,1.31,1.61.48,0,.77-.14,1.11-.49l.32.25c-.41.42-.79.63-1.45.63-1.11,0-1.71-.73-1.71-2.1s.6-2.1,1.61-2.1,1.61.74,1.61,2v.2h-2.8ZM85.93,146.09c-.18-.43-.58-.69-1.04-.69s-.85.26-1.04.69c-.11.25-.12.38-.14.77h2.37c-.03-.39-.03-.53-.14-.77Z"/>
    <path class="cls-6" d="M89.05,149.22c-.7,0-1.22-.19-1.63-.59l.29-.3c.31.33.75.5,1.32.5.79,0,1.21-.28,1.21-.83,0-.43-.23-.64-.77-.69l-.67-.06c-.81-.07-1.21-.43-1.21-1.07,0-.71.57-1.16,1.44-1.16.56,0,1.05.16,1.41.43l-.28.29c-.31-.23-.69-.35-1.13-.35-.67,0-1.03.28-1.03.79,0,.43.25.63.82.69l.65.06c.67.07,1.18.27,1.18,1.07,0,.75-.62,1.22-1.61,1.22Z"/>
    <path class="cls-6" d="M91.86,150.32v-1.73h.57v1.16l-.57.58Z"/>
    <path class="cls-6" d="M97.06,149.22c-.7,0-1.22-.19-1.63-.59l.29-.3c.31.33.75.5,1.32.5.79,0,1.21-.28,1.21-.83,0-.43-.23-.64-.77-.69l-.67-.06c-.81-.07-1.21-.43-1.21-1.07,0-.71.57-1.16,1.44-1.16.56,0,1.05.16,1.41.43l-.28.29c-.31-.23-.68-.35-1.13-.35-.67,0-1.03.28-1.03.79,0,.43.25.63.82.69l.65.06c.67.07,1.18.27,1.18,1.07,0,.75-.62,1.22-1.61,1.22Z"/>
    <path class="cls-6" d="M102.51,149.17v-.48c-.3.36-.69.54-1.19.54-.44,0-.8-.13-1.07-.39-.28-.27-.42-.65-.42-1.14v-2.62h.42v2.54c0,.79.38,1.22,1.11,1.22s1.13-.44,1.13-1.22v-2.54h.43v4.1h-.43Z"/>
    <path class="cls-6" d="M106,145.4c-.69,0-1.08.59-1.08,1.24v2.52h-.43v-4.1h.43v.54c.23-.38.7-.59,1.18-.59.39,0,.68.09.97.39l-.31.31c-.24-.25-.43-.32-.76-.32Z"/>
    <path class="cls-6" d="M109.34,145.4c-.69,0-1.08.59-1.08,1.24v2.52h-.43v-4.1h.43v.54c.23-.38.7-.59,1.18-.59.39,0,.68.09.97.39l-.31.31c-.24-.25-.43-.32-.76-.32Z"/>
    <path class="cls-6" d="M113.45,148.77c-.29.3-.67.45-1.12.45s-.83-.15-1.12-.45c-.43-.43-.5-1.06-.5-1.65s.08-1.22.5-1.65c.29-.3.67-.45,1.12-.45s.83.15,1.12.45c.43.43.5,1.06.5,1.65s-.08,1.22-.5,1.65ZM113.17,145.75c-.22-.23-.51-.35-.83-.35s-.61.12-.84.35c-.33.34-.36.89-.36,1.37s.03,1.03.36,1.37c.23.23.51.35.84.35s.61-.12.83-.35c.33-.34.36-.89.36-1.37s-.03-1.03-.36-1.37Z"/>
    <path class="cls-6" d="M117.9,149.17v-.48c-.3.36-.69.54-1.19.54-.44,0-.8-.13-1.07-.39-.28-.27-.42-.65-.42-1.14v-2.62h.43v2.54c0,.79.38,1.22,1.11,1.22s1.14-.44,1.14-1.22v-2.54h.42v4.1h-.42Z"/>
    <path class="cls-6" d="M122.55,149.17v-2.54c0-.79-.38-1.22-1.11-1.22s-1.14.44-1.14,1.22v2.54h-.43v-4.1h.43v.48c.3-.36.69-.54,1.19-.54.44,0,.8.13,1.07.39.28.27.42.65.42,1.14v2.62h-.43Z"/>
    <path class="cls-6" d="M126.95,149.17v-.53c-.36.48-.74.58-1.19.58-.42,0-.78-.14-.98-.36-.41-.42-.52-1.1-.52-1.74s.11-1.33.52-1.74c.21-.21.56-.36.98-.36.46,0,.84.1,1.19.58v-2.48h.43v6.05h-.43ZM125.82,145.4c-.98,0-1.13.87-1.13,1.72s.15,1.72,1.13,1.72,1.14-.87,1.14-1.72-.15-1.72-1.14-1.72Z"/>
    <path class="cls-6" d="M128.89,143.65v-.54h.53v.54h-.53ZM128.94,149.17v-4.1h.43v4.1h-.43Z"/>
    <path class="cls-6" d="M133.59,149.17v-2.54c0-.79-.38-1.22-1.11-1.22s-1.13.44-1.13,1.22v2.54h-.43v-4.1h.43v.48c.3-.36.69-.54,1.18-.54.44,0,.8.13,1.07.39.28.27.42.65.42,1.14v2.62h-.43Z"/>
    <path class="cls-6" d="M136.77,151.17c-.6,0-.91-.16-1.33-.54l.28-.29c.32.3.53.45,1.04.45.84,0,1.22-.6,1.22-1.42v-.73c-.36.48-.73.58-1.19.58-.43,0-.78-.14-.99-.36-.41-.42-.52-1.1-.52-1.74s.11-1.33.52-1.74c.21-.21.56-.36.99-.36.46,0,.83.1,1.19.58v-.53h.43v4.33c0,1.03-.6,1.78-1.64,1.78ZM136.85,145.4c-.99,0-1.14.87-1.14,1.72s.15,1.72,1.14,1.72,1.13-.87,1.13-1.72-.15-1.72-1.13-1.72Z"/>
  </g>
  <g>
    <path class="cls-6" d="M19.22,161.17v-.53c-.36.48-.75.58-1.21.58-.43,0-.79-.14-1-.36-.42-.42-.53-1.1-.53-1.74s.11-1.33.53-1.74c.21-.21.57-.36,1-.36.47,0,.85.1,1.21.58v-2.48h.43v6.05h-.43ZM18.07,157.4c-1,0-1.15.87-1.15,1.72s.15,1.72,1.15,1.72,1.15-.87,1.15-1.72-.15-1.72-1.15-1.72Z"/>
    <path class="cls-6" d="M21.49,159.21c0,1.05.46,1.61,1.33,1.61.48,0,.78-.14,1.13-.49l.32.25c-.42.42-.8.63-1.48.63-1.13,0-1.74-.73-1.74-2.1s.61-2.1,1.64-2.1,1.64.74,1.64,2v.2h-2.84ZM23.76,158.09c-.18-.43-.58-.69-1.06-.69s-.87.26-1.06.69c-.11.25-.12.38-.14.77h2.41c-.03-.39-.03-.53-.14-.77Z"/>
    <path class="cls-6" d="M26.86,161.17h-.42l-1.49-4.1h.47l1.23,3.59,1.23-3.59h.47l-1.49,4.1Z"/>
    <path class="cls-6" d="M29.41,159.21c0,1.05.46,1.61,1.33,1.61.48,0,.78-.14,1.13-.49l.32.25c-.42.42-.8.63-1.48.63-1.13,0-1.74-.73-1.74-2.1s.61-2.1,1.64-2.1,1.64.74,1.64,2v.2h-2.84ZM31.67,158.09c-.18-.43-.58-.69-1.06-.69s-.87.26-1.06.69c-.11.25-.12.38-.14.77h2.41c-.03-.39-.03-.53-.14-.77Z"/>
    <path class="cls-6" d="M34.62,161.17c-.67,0-.98-.42-.98-1.06v-4.99h.43v4.98c0,.47.14.69.63.69h.3v.38h-.37Z"/>
    <path class="cls-6" d="M38.55,160.77c-.3.3-.68.45-1.14.45s-.84-.15-1.14-.45c-.43-.43-.51-1.06-.51-1.65s.08-1.22.51-1.65c.3-.3.68-.45,1.14-.45s.84.15,1.14.45c.43.43.51,1.06.51,1.65s-.08,1.22-.51,1.65ZM38.26,157.75c-.23-.23-.52-.35-.85-.35s-.62.12-.85.35c-.34.34-.37.89-.37,1.37s.03,1.03.37,1.37c.23.23.52.35.85.35s.62-.12.85-.35c.34-.34.36-.89.36-1.37s-.03-1.03-.36-1.37Z"/>
    <path class="cls-6" d="M43.11,160.86c-.21.21-.57.36-1,.36-.47,0-.85-.1-1.21-.58v2.48h-.43v-6.05h.43v.53c.36-.48.75-.58,1.21-.58.43,0,.79.14,1,.36.42.42.53,1.1.53,1.74s-.11,1.33-.53,1.74ZM42.05,157.4c-1,0-1.15.87-1.15,1.72s.15,1.72,1.15,1.72,1.15-.87,1.15-1.72-.15-1.72-1.15-1.72Z"/>
    <path class="cls-6" d="M50.46,161.17v-2.54c0-.79-.39-1.22-1.13-1.22s-1.15.44-1.15,1.15v2.62h-.43v-2.54c0-.79-.39-1.22-1.13-1.22s-1.15.44-1.15,1.22v2.54h-.43v-4.1h.43v.48c.3-.36.71-.54,1.21-.54.61,0,1.07.26,1.31.75.31-.48.78-.75,1.39-.75.45,0,.81.14,1.08.39.28.27.43.65.43,1.14v2.62h-.43Z"/>
    <path class="cls-6" d="M52.68,159.21c0,1.05.46,1.61,1.33,1.61.48,0,.78-.14,1.13-.49l.32.25c-.42.42-.8.63-1.48.63-1.13,0-1.74-.73-1.74-2.1s.61-2.1,1.64-2.1,1.64.74,1.64,2v.2h-2.84ZM54.94,158.09c-.18-.43-.58-.69-1.06-.69s-.87.26-1.06.69c-.11.25-.12.38-.14.77h2.41c-.03-.39-.03-.53-.14-.77Z"/>
    <path class="cls-6" d="M59.63,161.17v-2.54c0-.79-.39-1.22-1.13-1.22s-1.15.44-1.15,1.22v2.54h-.43v-4.1h.43v.48c.3-.36.7-.54,1.2-.54.45,0,.81.13,1.09.39.28.27.42.65.42,1.14v2.62h-.43Z"/>
    <path class="cls-6" d="M62.75,161.17c-.64,0-.98-.45-.98-1.07v-2.7h-.56v-.32h.56v-1.31h.43v1.31h.92v.32h-.92v2.71c0,.43.2.68.63.68h.3v.38h-.37Z"/>
    <path class="cls-6" d="M65.63,161.22c-.71,0-1.24-.19-1.65-.59l.3-.3c.31.33.76.5,1.34.5.81,0,1.23-.28,1.23-.83,0-.43-.24-.64-.78-.69l-.68-.06c-.82-.07-1.23-.43-1.23-1.07,0-.71.58-1.16,1.47-1.16.57,0,1.07.16,1.43.43l-.29.29c-.31-.23-.7-.35-1.15-.35-.68,0-1.04.28-1.04.79,0,.43.25.63.83.69l.66.06c.68.07,1.2.27,1.2,1.07,0,.75-.63,1.22-1.64,1.22Z"/>
    <path class="cls-6" d="M68.55,162.32v-1.73h.58v1.16l-.58.58Z"/>
    <path class="cls-6" d="M75.11,161.17v-.41c-.35.35-.67.46-1.25.46-.61,0-.94-.1-1.21-.37-.2-.2-.3-.49-.3-.8,0-.75.54-1.18,1.43-1.18h1.32v-.46c0-.65-.31-1-1.15-1-.58,0-.87.14-1.13.52l-.31-.27c.35-.48.77-.63,1.44-.63,1.09,0,1.59.48,1.59,1.34v2.8h-.43ZM75.11,159.21h-1.27c-.7,0-1.04.27-1.04.82s.32.8,1.07.8c.37,0,.72-.03,1.02-.31.15-.14.23-.41.23-.78v-.53Z"/>
    <path class="cls-6" d="M79.87,161.17v-2.54c0-.79-.39-1.22-1.13-1.22s-1.15.44-1.15,1.22v2.54h-.43v-4.1h.43v.48c.31-.36.71-.54,1.21-.54.45,0,.81.13,1.09.39.28.27.42.65.42,1.14v2.62h-.43Z"/>
    <path class="cls-6" d="M84.4,161.17v-.53c-.36.48-.75.58-1.21.58-.43,0-.79-.14-1-.36-.42-.42-.53-1.1-.53-1.74s.11-1.33.53-1.74c.21-.21.57-.36,1-.36.47,0,.85.1,1.21.58v-2.48h.43v6.05h-.43ZM83.24,157.4c-1,0-1.15.87-1.15,1.72s.15,1.72,1.15,1.72,1.15-.87,1.15-1.72-.15-1.72-1.15-1.72Z"/>
    <path class="cls-6" d="M88.37,155.65v-.54h.53v.54h-.53ZM88.42,161.17v-4.1h.43v4.1h-.43Z"/>
    <path class="cls-6" d="M93.2,161.17v-2.54c0-.79-.39-1.22-1.13-1.22s-1.15.44-1.15,1.22v2.54h-.43v-4.1h.43v.48c.31-.36.71-.54,1.21-.54.45,0,.81.13,1.09.39.28.27.42.65.42,1.14v2.62h-.43Z"/>
    <path class="cls-6" d="M95.79,157.39v3.77h-.43v-3.77h-.56v-.32h.56v-.88c0-.62.34-1.07.98-1.07h.37v.38h-.3c-.43,0-.63.25-.63.68v.89h.92v.32h-.92Z"/>
    <path class="cls-6" d="M99.34,157.4c-.71,0-1.1.59-1.1,1.24v2.52h-.43v-4.1h.43v.54c.24-.38.71-.59,1.2-.59.4,0,.69.09.98.39l-.31.31c-.25-.25-.43-.32-.77-.32Z"/>
    <path class="cls-6" d="M103.59,161.17v-.41c-.35.35-.67.46-1.25.46-.61,0-.94-.1-1.2-.37-.2-.2-.3-.49-.3-.8,0-.75.53-1.18,1.42-1.18h1.32v-.46c0-.65-.31-1-1.15-1-.58,0-.87.14-1.13.52l-.31-.27c.35-.48.77-.63,1.44-.63,1.09,0,1.59.48,1.59,1.34v2.8h-.43ZM103.59,159.21h-1.27c-.7,0-1.04.27-1.04.82s.32.8,1.07.8c.37,0,.72-.03,1.02-.31.15-.14.23-.41.23-.78v-.53Z"/>
    <path class="cls-6" d="M106.89,161.22c-.71,0-1.24-.19-1.65-.59l.3-.3c.31.33.76.5,1.34.5.81,0,1.23-.28,1.23-.83,0-.43-.24-.64-.78-.69l-.68-.06c-.82-.07-1.23-.43-1.23-1.07,0-.71.58-1.16,1.47-1.16.57,0,1.07.16,1.43.43l-.29.29c-.31-.23-.7-.35-1.15-.35-.68,0-1.04.28-1.04.79,0,.43.25.63.83.69l.66.06c.68.07,1.2.27,1.2,1.07,0,.75-.63,1.22-1.64,1.22Z"/>
    <path class="cls-6" d="M110.83,161.17c-.64,0-.98-.45-.98-1.07v-2.7h-.56v-.32h.56v-1.31h.43v1.31h.92v.32h-.92v2.71c0,.43.2.68.63.68h.3v.38h-.37Z"/>
    <path class="cls-6" d="M114.02,157.4c-.7,0-1.09.59-1.09,1.24v2.52h-.43v-4.1h.43v.54c.24-.38.71-.59,1.2-.59.4,0,.69.09.98.39l-.31.31c-.25-.25-.43-.32-.77-.32Z"/>
    <path class="cls-6" d="M118.62,161.17v-.48c-.3.36-.7.54-1.21.54-.45,0-.81-.13-1.09-.39-.28-.27-.42-.65-.42-1.14v-2.62h.43v2.54c0,.79.39,1.22,1.13,1.22s1.15-.44,1.15-1.22v-2.54h.43v4.1h-.43Z"/>
    <path class="cls-6" d="M122.26,161.22c-1.12,0-1.8-.8-1.8-2.1s.68-2.1,1.8-2.1c.56,0,.92.14,1.35.63l-.3.27c-.35-.39-.62-.52-1.05-.52-.47,0-.84.18-1.09.54-.2.3-.28.62-.28,1.17s.08.88.28,1.17c.25.37.62.54,1.09.54.43,0,.71-.14,1.05-.52l.3.27c-.43.48-.79.63-1.35.63Z"/>
    <path class="cls-6" d="M125.95,161.17c-.64,0-.98-.45-.98-1.07v-2.7h-.56v-.32h.56v-1.31h.43v1.31h.92v.32h-.92v2.71c0,.43.2.68.63.68h.3v.38h-.37Z"/>
    <path class="cls-6" d="M130.28,161.17v-.48c-.3.36-.7.54-1.21.54-.45,0-.81-.13-1.09-.39-.28-.27-.42-.65-.42-1.14v-2.62h.43v2.54c0,.79.39,1.22,1.13,1.22s1.15-.44,1.15-1.22v-2.54h.43v4.1h-.43Z"/>
    <path class="cls-6" d="M133.89,157.4c-.7,0-1.09.59-1.09,1.24v2.52h-.43v-4.1h.43v.54c.24-.38.71-.59,1.2-.59.4,0,.69.09.98.39l-.31.31c-.25-.25-.43-.32-.77-.32Z"/>
    <path class="cls-6" d="M135.77,159.21c0,1.05.46,1.61,1.33,1.61.48,0,.78-.14,1.13-.49l.32.25c-.42.42-.8.63-1.48.63-1.13,0-1.74-.73-1.74-2.1s.61-2.1,1.64-2.1,1.64.74,1.64,2v.2h-2.84ZM138.03,158.09c-.18-.43-.59-.69-1.06-.69s-.87.26-1.06.69c-.11.25-.12.38-.14.77h2.41c-.03-.39-.03-.53-.14-.77Z"/>
  </g>
  <g>
    <path class="cls-6" d="M17.32,169.39v3.77h-.45v-3.77h-.58v-.32h.58v-.88c0-.62.35-1.07,1.02-1.07h.39v.38h-.31c-.45,0-.65.25-.65.68v.89h.95v.32h-.95Z"/>
    <path class="cls-6" d="M21.92,173.17v-.41c-.36.35-.69.46-1.29.46-.63,0-.97-.1-1.24-.37-.2-.2-.31-.49-.31-.8,0-.75.55-1.18,1.47-1.18h1.37v-.46c0-.65-.32-1-1.19-1-.6,0-.89.14-1.17.52l-.32-.27c.36-.48.8-.63,1.49-.63,1.12,0,1.64.48,1.64,1.34v2.8h-.45ZM21.92,171.21h-1.31c-.72,0-1.08.27-1.08.82s.33.8,1.1.8c.39,0,.74-.03,1.05-.31.16-.14.24-.41.24-.78v-.53Z"/>
    <path class="cls-6" d="M25.81,173.22c-1.16,0-1.86-.8-1.86-2.1s.7-2.1,1.86-2.1c.58,0,.95.14,1.39.63l-.31.27c-.36-.39-.64-.52-1.09-.52-.48,0-.87.18-1.12.54-.21.3-.29.62-.29,1.17s.08.88.29,1.17c.25.37.64.54,1.12.54.45,0,.73-.14,1.09-.52l.31.27c-.45.48-.81.63-1.39.63Z"/>
    <path class="cls-6" d="M28.62,167.65v-.54h.55v.54h-.55ZM28.67,173.17v-4.1h.45v4.1h-.45Z"/>
    <path class="cls-6" d="M31.98,173.17c-.69,0-1.02-.42-1.02-1.06v-4.99h.45v4.98c0,.47.15.69.65.69h.31v.38h-.39Z"/>
    <path class="cls-6" d="M33.61,167.65v-.54h.55v.54h-.55ZM33.66,173.17v-4.1h.45v4.1h-.45Z"/>
    <path class="cls-6" d="M37.09,173.17c-.67,0-1.02-.45-1.02-1.07v-2.7h-.58v-.32h.58v-1.31h.45v1.31h.95v.32h-.95v2.71c0,.43.2.68.65.68h.31v.38h-.39Z"/>
    <path class="cls-6" d="M38.92,167.65v-.54h.55v.54h-.55ZM38.97,173.17v-4.1h.45v4.1h-.45Z"/>
    <path class="cls-6" d="M41.49,171.21c0,1.05.47,1.61,1.38,1.61.5,0,.81-.14,1.17-.49l.33.25c-.43.42-.82.63-1.52.63-1.17,0-1.8-.73-1.8-2.1s.63-2.1,1.69-2.1,1.69.74,1.69,2v.2h-2.93ZM43.82,170.09c-.18-.43-.6-.69-1.09-.69s-.89.26-1.1.69c-.11.25-.12.38-.15.77h2.49c-.03-.39-.04-.53-.15-.77Z"/>
    <path class="cls-6" d="M47.33,173.22c-.74,0-1.28-.19-1.71-.59l.31-.3c.32.33.79.5,1.38.5.83,0,1.27-.28,1.27-.83,0-.43-.25-.64-.81-.69l-.7-.06c-.85-.07-1.27-.43-1.27-1.07,0-.71.6-1.16,1.52-1.16.59,0,1.1.16,1.48.43l-.3.29c-.32-.23-.72-.35-1.18-.35-.7,0-1.08.28-1.08.79,0,.43.26.63.86.69l.68.06c.7.07,1.24.27,1.24,1.07,0,.75-.65,1.22-1.69,1.22Z"/>
    <path class="cls-6" d="M50.5,173.17v-.63h.65v.63h-.65Z"/>
    <path class="cls-6" d="M63,173.17h-.48l-1.47-5.27-1.47,5.27h-.48l-1.56-6.05h.5l1.31,5.26,1.45-5.26h.49l1.46,5.26,1.31-5.26h.5l-1.56,6.05Z"/>
    <path class="cls-6" d="M65.6,171.21c0,1.05.47,1.61,1.38,1.61.5,0,.81-.14,1.17-.49l.33.25c-.43.42-.82.63-1.52.63-1.17,0-1.79-.73-1.79-2.1s.63-2.1,1.69-2.1,1.69.74,1.69,2v.2h-2.94ZM67.94,170.09c-.18-.43-.61-.69-1.1-.69s-.89.26-1.09.69c-.11.25-.12.38-.15.77h2.49c-.03-.39-.04-.53-.15-.77Z"/>
    <path class="cls-6" d="M79.27,173.17h-.46l-1.19-3.42-1.19,3.42h-.46l-1.35-4.1h.49l1.08,3.59,1.21-3.59h.44l1.21,3.59,1.08-3.59h.49l-1.35,4.1Z"/>
    <path class="cls-6" d="M81.71,167.65v-.54h.55v.54h-.55ZM81.76,173.17v-4.1h.45v4.1h-.45Z"/>
    <path class="cls-6" d="M85.07,173.17c-.69,0-1.02-.42-1.02-1.06v-4.99h.45v4.98c0,.47.15.69.65.69h.31v.38h-.39Z"/>
    <path class="cls-6" d="M87.75,173.17c-.69,0-1.02-.42-1.02-1.06v-4.99h.45v4.98c0,.47.15.69.65.69h.31v.38h-.38Z"/>
    <path class="cls-6" d="M97.11,173.17v-.41c-.36.35-.69.46-1.29.46-.63,0-.97-.1-1.24-.37-.2-.2-.31-.49-.31-.8,0-.75.55-1.18,1.47-1.18h1.37v-.46c0-.65-.32-1-1.19-1-.6,0-.89.14-1.17.52l-.32-.27c.36-.48.8-.63,1.49-.63,1.12,0,1.64.48,1.64,1.34v2.8h-.45ZM97.11,171.21h-1.31c-.72,0-1.08.27-1.08.82s.33.8,1.1.8c.39,0,.74-.03,1.05-.31.16-.14.24-.41.24-.78v-.53Z"/>
    <path class="cls-6" d="M100.39,173.17c-.69,0-1.02-.42-1.02-1.06v-4.99h.45v4.98c0,.47.15.69.65.69h.31v.38h-.39Z"/>
    <path class="cls-6" d="M103.37,173.22c-.74,0-1.28-.19-1.71-.59l.31-.3c.32.33.79.5,1.38.5.83,0,1.27-.28,1.27-.83,0-.43-.25-.64-.81-.69l-.7-.06c-.85-.07-1.27-.43-1.27-1.07,0-.71.6-1.16,1.52-1.16.59,0,1.1.16,1.48.43l-.3.29c-.32-.23-.72-.35-1.18-.35-.7,0-1.08.28-1.08.79,0,.43.26.63.86.69l.68.06c.7.07,1.24.27,1.24,1.07,0,.75-.65,1.22-1.69,1.22Z"/>
    <path class="cls-6" d="M109.19,172.77c-.31.3-.7.45-1.17.45s-.87-.15-1.17-.45c-.45-.43-.53-1.06-.53-1.65s.08-1.22.53-1.65c.31-.3.7-.45,1.17-.45s.87.15,1.17.45c.45.43.53,1.06.53,1.65s-.08,1.22-.53,1.65ZM108.89,169.75c-.24-.23-.53-.35-.88-.35s-.64.12-.88.35c-.35.34-.38.89-.38,1.37s.03,1.03.38,1.37c.24.23.54.35.88.35s.64-.12.88-.35c.35-.34.38-.89.38-1.37s-.03-1.03-.38-1.37Z"/>
    <path class="cls-6" d="M119.02,173.17v-.41c-.36.35-.69.46-1.29.46-.63,0-.97-.1-1.24-.37-.2-.2-.31-.49-.31-.8,0-.75.55-1.18,1.47-1.18h1.37v-.46c0-.65-.32-1-1.19-1-.6,0-.89.14-1.17.52l-.32-.27c.36-.48.8-.63,1.49-.63,1.12,0,1.64.48,1.64,1.34v2.8h-.45ZM119.02,171.21h-1.31c-.72,0-1.08.27-1.08.82s.33.8,1.1.8c.39,0,.74-.03,1.05-.31.16-.14.24-.41.24-.78v-.53Z"/>
    <path class="cls-6" d="M122.59,173.22c-.74,0-1.28-.19-1.71-.59l.31-.3c.32.33.79.5,1.38.5.83,0,1.27-.28,1.27-.83,0-.43-.24-.64-.8-.69l-.7-.06c-.85-.07-1.27-.43-1.27-1.07,0-.71.59-1.16,1.51-1.16.59,0,1.1.16,1.48.43l-.3.29c-.32-.23-.72-.35-1.18-.35-.7,0-1.08.28-1.08.79,0,.43.26.63.86.69l.68.06c.7.07,1.24.27,1.24,1.07,0,.75-.65,1.22-1.69,1.22Z"/>
    <path class="cls-6" d="M127.04,173.22c-.74,0-1.28-.19-1.71-.59l.31-.3c.32.33.79.5,1.38.5.83,0,1.27-.28,1.27-.83,0-.43-.25-.64-.81-.69l-.7-.06c-.85-.07-1.27-.43-1.27-1.07,0-.71.6-1.16,1.52-1.16.59,0,1.1.16,1.48.43l-.3.29c-.32-.23-.72-.35-1.18-.35-.7,0-1.08.28-1.08.79,0,.43.26.63.86.69l.68.06c.7.07,1.24.27,1.24,1.07,0,.75-.65,1.22-1.69,1.22Z"/>
    <path class="cls-6" d="M130.18,167.65v-.54h.55v.54h-.55ZM130.23,173.17v-4.1h.45v4.1h-.45Z"/>
    <path class="cls-6" d="M133.84,173.22c-.74,0-1.28-.19-1.71-.59l.31-.3c.32.33.79.5,1.38.5.83,0,1.27-.28,1.27-.83,0-.43-.24-.64-.8-.69l-.7-.06c-.85-.07-1.27-.43-1.27-1.07,0-.71.59-1.16,1.51-1.16.59,0,1.1.16,1.48.43l-.3.29c-.32-.23-.72-.35-1.18-.35-.7,0-1.08.28-1.08.79,0,.43.26.63.86.69l.68.06c.7.07,1.24.27,1.24,1.07,0,.75-.65,1.22-1.69,1.22Z"/>
    <path class="cls-6" d="M138.07,173.17c-.67,0-1.02-.45-1.02-1.07v-2.7h-.58v-.32h.58v-1.31h.45v1.31h.95v.32h-.95v2.71c0,.43.2.68.65.68h.31v.38h-.38Z"/>
  </g>
  <g>
    <path class="cls-6" d="M19.37,184.86c-.21.21-.57.36-1,.36-.47,0-.85-.1-1.21-.58v2.48h-.43v-6.05h.43v.53c.37-.48.75-.58,1.21-.58.43,0,.79.14,1,.36.42.42.53,1.1.53,1.74s-.11,1.33-.53,1.74ZM18.31,181.4c-1,0-1.16.87-1.16,1.72s.15,1.72,1.16,1.72,1.16-.87,1.16-1.72-.15-1.72-1.16-1.72Z"/>
    <path class="cls-6" d="M23.71,185.17v-.41c-.35.35-.67.46-1.25.46-.61,0-.94-.1-1.21-.37-.2-.2-.3-.49-.3-.8,0-.75.54-1.18,1.43-1.18h1.33v-.46c0-.65-.31-1-1.16-1-.58,0-.87.14-1.13.52l-.31-.27c.35-.48.77-.63,1.44-.63,1.09,0,1.59.48,1.59,1.34v2.8h-.43ZM23.71,183.21h-1.27c-.7,0-1.05.27-1.05.82s.32.8,1.07.8c.37,0,.72-.03,1.02-.31.15-.14.23-.41.23-.78v-.53Z"/>
    <path class="cls-6" d="M27.29,181.4c-.71,0-1.1.59-1.1,1.24v2.52h-.43v-4.1h.43v.54c.24-.38.71-.59,1.2-.59.4,0,.69.09.99.39l-.31.31c-.25-.25-.43-.32-.77-.32Z"/>
    <path class="cls-6" d="M30.33,185.17c-.64,0-.99-.45-.99-1.07v-2.7h-.56v-.32h.56v-1.31h.43v1.31h.93v.32h-.93v2.71c0,.43.2.68.63.68h.3v.38h-.38Z"/>
    <path class="cls-6" d="M34.72,185.17v-2.54c0-.79-.39-1.22-1.13-1.22s-1.16.44-1.16,1.22v2.54h-.43v-4.1h.43v.48c.31-.36.71-.54,1.21-.54.45,0,.82.13,1.09.39.28.27.42.65.42,1.14v2.62h-.43Z"/>
    <path class="cls-6" d="M36.95,183.21c0,1.05.46,1.61,1.33,1.61.48,0,.78-.14,1.13-.49l.32.25c-.42.42-.8.63-1.48.63-1.13,0-1.74-.73-1.74-2.1s.61-2.1,1.64-2.1,1.64.74,1.64,2v.2h-2.85ZM39.22,182.09c-.18-.43-.59-.69-1.06-.69s-.87.26-1.06.69c-.11.25-.12.38-.14.77h2.41c-.03-.39-.03-.53-.14-.77Z"/>
    <path class="cls-6" d="M42.73,181.4c-.71,0-1.1.59-1.1,1.24v2.52h-.43v-4.1h.43v.54c.24-.38.71-.59,1.2-.59.4,0,.69.09.99.39l-.31.31c-.25-.25-.43-.32-.77-.32Z"/>
    <path class="cls-6" d="M45.86,185.22c-.71,0-1.24-.19-1.66-.59l.3-.3c.31.33.76.5,1.34.5.81,0,1.23-.28,1.23-.83,0-.43-.24-.64-.78-.69l-.68-.06c-.82-.07-1.23-.43-1.23-1.07,0-.71.58-1.16,1.47-1.16.57,0,1.07.16,1.44.43l-.29.29c-.31-.23-.7-.35-1.15-.35-.68,0-1.05.28-1.05.79,0,.43.25.63.83.69l.66.06c.68.07,1.2.27,1.2,1.07,0,.75-.63,1.22-1.64,1.22Z"/>
    <path class="cls-6" d="M51.22,179.65v-.54h.54v.54h-.54ZM51.27,185.17v-4.1h.43v4.1h-.43Z"/>
    <path class="cls-6" d="M56.07,185.17v-2.54c0-.79-.39-1.22-1.13-1.22s-1.16.44-1.16,1.22v2.54h-.43v-4.1h.43v.48c.31-.36.71-.54,1.21-.54.45,0,.82.13,1.09.39.28.27.42.65.42,1.14v2.62h-.43Z"/>
    <path class="cls-6" d="M60.77,183.21c0,1.05.46,1.61,1.33,1.61.48,0,.78-.14,1.13-.49l.32.25c-.42.42-.8.63-1.48.63-1.13,0-1.74-.73-1.74-2.1s.61-2.1,1.64-2.1,1.64.74,1.64,2v.2h-2.85ZM63.04,182.09c-.18-.43-.59-.69-1.06-.69s-.87.26-1.06.69c-.11.25-.12.38-.14.77h2.41c-.03-.39-.04-.53-.14-.77Z"/>
    <path class="cls-6" d="M65.59,181.39v3.77h-.43v-3.77h-.56v-.32h.56v-.88c0-.62.34-1.07.99-1.07h.37v.38h-.3c-.43,0-.63.25-.63.68v.89h.93v.32h-.93Z"/>
    <path class="cls-6" d="M68.17,181.39v3.77h-.43v-3.77h-.56v-.32h.56v-.88c0-.62.34-1.07.99-1.07h.37v.38h-.3c-.43,0-.63.25-.63.68v.89h.93v.32h-.93Z"/>
    <path class="cls-6" d="M70.14,179.65v-.54h.54v.54h-.54ZM70.19,185.17v-4.1h.43v4.1h-.43Z"/>
    <path class="cls-6" d="M73.84,185.22c-1.12,0-1.8-.8-1.8-2.1s.68-2.1,1.8-2.1c.56,0,.92.14,1.35.63l-.3.27c-.35-.39-.62-.52-1.05-.52-.47,0-.84.18-1.09.54-.2.3-.28.62-.28,1.17s.08.88.28,1.17c.25.37.62.54,1.09.54.43,0,.71-.14,1.05-.52l.3.27c-.43.48-.79.63-1.35.63Z"/>
    <path class="cls-6" d="M76.41,179.65v-.54h.54v.54h-.54ZM76.46,185.17v-4.1h.43v4.1h-.43Z"/>
    <path class="cls-6" d="M78.74,183.21c0,1.05.46,1.61,1.33,1.61.48,0,.78-.14,1.13-.49l.32.25c-.42.42-.8.63-1.48.63-1.13,0-1.74-.73-1.74-2.1s.61-2.1,1.64-2.1,1.64.74,1.64,2v.2h-2.85ZM81.01,182.09c-.18-.43-.59-.69-1.06-.69s-.87.26-1.06.69c-.11.25-.12.38-.14.77h2.41c-.03-.39-.03-.53-.14-.77Z"/>
    <path class="cls-6" d="M85.71,185.17v-2.54c0-.79-.39-1.22-1.13-1.22s-1.16.44-1.16,1.22v2.54h-.43v-4.1h.43v.48c.31-.36.71-.54,1.21-.54.45,0,.82.13,1.09.39.28.27.42.65.42,1.14v2.62h-.43Z"/>
    <path class="cls-6" d="M88.83,185.17c-.64,0-.99-.45-.99-1.07v-2.7h-.56v-.32h.56v-1.31h.43v1.31h.93v.32h-.93v2.71c0,.43.2.68.63.68h.3v.38h-.38Z"/>
    <path class="cls-6" d="M91.48,185.17c-.67,0-.99-.42-.99-1.06v-4.99h.43v4.98c0,.47.14.69.63.69h.3v.38h-.37Z"/>
    <path class="cls-6" d="M93.51,186.28c-.08.22-.17.38-.28.48-.2.2-.5.26-.77.26h-.2v-.38h.16c.47,0,.6-.15.75-.56l.33-.91-1.5-4.1h.48l1.23,3.59,1.23-3.59h.48l-1.9,5.21Z"/>
    <path class="cls-6" d="M101.48,184.86c-.21.21-.57.36-1,.36-.47,0-.85-.1-1.22-.58v2.48h-.43v-6.05h.43v.53c.37-.48.75-.58,1.22-.58.43,0,.79.14,1,.36.42.42.53,1.1.53,1.74s-.11,1.33-.53,1.74ZM100.42,181.4c-1,0-1.16.87-1.16,1.72s.15,1.72,1.16,1.72,1.16-.87,1.16-1.72-.15-1.72-1.16-1.72Z"/>
    <path class="cls-6" d="M106.09,185.17v-.48c-.31.36-.71.54-1.21.54-.45,0-.82-.13-1.09-.39-.28-.27-.43-.65-.43-1.14v-2.62h.43v2.54c0,.79.39,1.22,1.13,1.22s1.16-.44,1.16-1.22v-2.54h.43v4.1h-.43Z"/>
    <path class="cls-6" d="M110.82,184.86c-.21.21-.57.36-1,.36-.47,0-.85-.1-1.21-.58v.53h-.43v-6.05h.43v2.48c.37-.48.75-.58,1.21-.58.43,0,.79.14,1,.36.42.42.53,1.1.53,1.74s-.11,1.33-.53,1.74ZM109.76,181.4c-1,0-1.16.87-1.16,1.72s.15,1.72,1.16,1.72,1.16-.87,1.16-1.72-.15-1.72-1.16-1.72Z"/>
    <path class="cls-6" d="M113.73,185.17c-.67,0-.99-.42-.99-1.06v-4.99h.43v4.98c0,.47.14.69.63.69h.3v.38h-.38Z"/>
    <path class="cls-6" d="M115.15,179.65v-.54h.54v.54h-.54ZM115.2,185.17v-4.1h.43v4.1h-.43Z"/>
    <path class="cls-6" d="M118.54,185.22c-.71,0-1.24-.19-1.66-.59l.3-.3c.31.33.77.5,1.34.5.81,0,1.23-.28,1.23-.83,0-.43-.24-.64-.78-.69l-.68-.06c-.82-.07-1.23-.43-1.23-1.07,0-.71.58-1.16,1.47-1.16.57,0,1.07.16,1.44.43l-.29.29c-.31-.23-.7-.35-1.15-.35-.68,0-1.04.28-1.04.79,0,.43.25.63.83.69l.66.06c.68.07,1.2.27,1.2,1.07,0,.75-.63,1.22-1.64,1.22Z"/>
    <path class="cls-6" d="M124.2,185.17v-2.54c0-.79-.39-1.22-1.13-1.22s-1.16.43-1.16,1.22v2.54h-.43v-6.05h.43v2.44c.31-.36.71-.54,1.21-.54.94,0,1.51.58,1.51,1.53v2.62h-.43Z"/>
    <path class="cls-6" d="M126.18,179.65v-.54h.54v.54h-.54ZM126.23,185.17v-4.1h.43v4.1h-.43Z"/>
    <path class="cls-6" d="M131.03,185.17v-2.54c0-.79-.39-1.22-1.13-1.22s-1.16.44-1.16,1.22v2.54h-.43v-4.1h.43v.48c.31-.36.71-.54,1.21-.54.45,0,.82.13,1.09.39.28.27.42.65.42,1.14v2.62h-.43Z"/>
    <path class="cls-6" d="M134.33,187.17c-.61,0-.93-.16-1.35-.54l.29-.29c.32.3.54.45,1.06.45.86,0,1.24-.6,1.24-1.42v-.73c-.37.48-.75.58-1.22.58-.43,0-.79-.14-1-.36-.42-.42-.53-1.1-.53-1.74s.11-1.33.53-1.74c.21-.21.57-.36,1-.36.47,0,.85.1,1.22.58v-.53h.43v4.33c0,1.03-.61,1.78-1.67,1.78ZM134.42,181.4c-1,0-1.16.87-1.16,1.72s.15,1.72,1.16,1.72,1.16-.87,1.16-1.72-.15-1.72-1.16-1.72Z"/>
    <path class="cls-6" d="M137.64,186.32v-1.73h.58v1.16l-.58.58Z"/>
  </g>
  <g>
    <path class="cls-6" d="M22.16,197.17v-2.54c0-.79-.39-1.22-1.13-1.22s-1.16.44-1.16,1.15v2.62h-.43v-2.54c0-.79-.39-1.22-1.13-1.22s-1.16.44-1.16,1.22v2.54h-.43v-4.1h.43v.48c.31-.36.71-.54,1.21-.54.61,0,1.07.26,1.32.75.31-.48.78-.75,1.39-.75.45,0,.82.14,1.08.39.28.27.43.65.43,1.14v2.62h-.43Z"/>
    <path class="cls-6" d="M26.59,197.17v-.41c-.35.35-.67.46-1.25.46-.61,0-.94-.1-1.21-.37-.2-.2-.3-.49-.3-.8,0-.75.54-1.18,1.43-1.18h1.33v-.46c0-.65-.31-1-1.16-1-.58,0-.87.14-1.13.52l-.31-.27c.35-.48.77-.63,1.44-.63,1.09,0,1.59.48,1.59,1.34v2.8h-.43ZM26.59,195.21h-1.27c-.7,0-1.05.27-1.05.82s.32.8,1.07.8c.37,0,.72-.03,1.02-.31.15-.14.23-.41.23-.78v-.53Z"/>
    <path class="cls-6" d="M31.36,197.17v-2.54c0-.79-.39-1.22-1.13-1.22s-1.16.44-1.16,1.22v2.54h-.43v-4.1h.43v.48c.31-.36.71-.54,1.21-.54.45,0,.82.13,1.09.39.28.27.43.65.43,1.14v2.62h-.43Z"/>
    <path class="cls-6" d="M35.79,197.17v-.41c-.35.35-.67.46-1.25.46-.61,0-.94-.1-1.21-.37-.2-.2-.3-.49-.3-.8,0-.75.54-1.18,1.43-1.18h1.33v-.46c0-.65-.31-1-1.16-1-.58,0-.87.14-1.13.52l-.31-.27c.35-.48.77-.63,1.45-.63,1.09,0,1.59.48,1.59,1.34v2.8h-.43ZM35.79,195.21h-1.27c-.7,0-1.05.27-1.05.82s.32.8,1.07.8c.37,0,.72-.03,1.02-.31.15-.14.23-.41.23-.78v-.53Z"/>
    <path class="cls-6" d="M39.11,199.17c-.61,0-.93-.16-1.35-.54l.29-.29c.32.3.54.45,1.06.45.86,0,1.24-.6,1.24-1.42v-.73c-.37.48-.75.58-1.21.58-.43,0-.79-.14-1-.36-.42-.42-.53-1.1-.53-1.74s.11-1.33.53-1.74c.21-.21.57-.36,1-.36.47,0,.85.1,1.21.58v-.53h.43v4.33c0,1.03-.61,1.78-1.67,1.78ZM39.19,193.4c-1,0-1.16.87-1.16,1.72s.15,1.72,1.16,1.72,1.16-.87,1.16-1.72-.15-1.72-1.16-1.72Z"/>
    <path class="cls-6" d="M42.38,191.65v-.54h.54v.54h-.54ZM42.43,197.17v-4.1h.43v4.1h-.43Z"/>
    <path class="cls-6" d="M47.23,197.17v-2.54c0-.79-.39-1.22-1.13-1.22s-1.16.44-1.16,1.22v2.54h-.43v-4.1h.43v.48c.31-.36.71-.54,1.21-.54.45,0,.82.13,1.09.39.28.27.42.65.42,1.14v2.62h-.43Z"/>
    <path class="cls-6" d="M50.53,199.17c-.61,0-.93-.16-1.35-.54l.29-.29c.32.3.54.45,1.06.45.86,0,1.24-.6,1.24-1.42v-.73c-.37.48-.75.58-1.21.58-.43,0-.79-.14-1-.36-.42-.42-.53-1.1-.53-1.74s.11-1.33.53-1.74c.21-.21.57-.36,1-.36.47,0,.85.1,1.21.58v-.53h.43v4.33c0,1.03-.61,1.78-1.67,1.78ZM50.62,193.4c-1,0-1.16.87-1.16,1.72s.15,1.72,1.16,1.72,1.16-.87,1.16-1.72-.15-1.72-1.16-1.72Z"/>
    <path class="cls-6" d="M53.84,198.32v-1.73h.58v1.16l-.58.58Z"/>
    <path class="cls-6" d="M61.56,197.17v-.41c-.35.35-.67.46-1.25.46-.61,0-.94-.1-1.21-.37-.2-.2-.3-.49-.3-.8,0-.75.54-1.18,1.43-1.18h1.33v-.46c0-.65-.31-1-1.16-1-.58,0-.87.14-1.13.52l-.31-.27c.35-.48.77-.63,1.44-.63,1.09,0,1.59.48,1.59,1.34v2.8h-.43ZM61.56,195.21h-1.28c-.7,0-1.04.27-1.04.82s.32.8,1.07.8c.37,0,.72-.03,1.02-.31.15-.14.23-.41.23-.78v-.53Z"/>
    <path class="cls-6" d="M66.32,197.17v-2.54c0-.79-.39-1.22-1.13-1.22s-1.16.44-1.16,1.22v2.54h-.43v-4.1h.43v.48c.31-.36.71-.54,1.21-.54.45,0,.82.13,1.09.39.28.27.42.65.42,1.14v2.62h-.43Z"/>
    <path class="cls-6" d="M70.86,197.17v-.53c-.37.48-.75.58-1.22.58-.43,0-.79-.14-1-.36-.42-.42-.53-1.1-.53-1.74s.11-1.33.53-1.74c.21-.21.57-.36,1-.36.47,0,.85.1,1.22.58v-2.48h.43v6.05h-.43ZM69.71,193.4c-1,0-1.16.87-1.16,1.72s.15,1.72,1.16,1.72,1.16-.87,1.16-1.72-.15-1.72-1.16-1.72Z"/>
    <path class="cls-6" d="M77.58,193.4c-.71,0-1.1.59-1.1,1.24v2.52h-.43v-4.1h.43v.54c.24-.38.71-.59,1.2-.59.4,0,.69.09.99.39l-.31.31c-.25-.25-.43-.32-.77-.32Z"/>
    <path class="cls-6" d="M79.47,195.21c0,1.05.46,1.61,1.33,1.61.48,0,.78-.14,1.13-.49l.32.25c-.42.42-.8.63-1.48.63-1.13,0-1.74-.73-1.74-2.1s.61-2.1,1.64-2.1,1.64.74,1.64,2v.2h-2.85ZM81.73,194.09c-.18-.43-.59-.69-1.06-.69s-.87.26-1.06.69c-.11.25-.12.38-.14.77h2.41c-.03-.39-.03-.53-.14-.77Z"/>
    <path class="cls-6" d="M86.12,197.17v-.41c-.35.35-.67.46-1.25.46-.61,0-.94-.1-1.21-.37-.2-.2-.3-.49-.3-.8,0-.75.54-1.18,1.43-1.18h1.33v-.46c0-.65-.31-1-1.16-1-.58,0-.87.14-1.13.52l-.31-.27c.35-.48.77-.63,1.44-.63,1.09,0,1.59.48,1.59,1.34v2.8h-.43ZM86.12,195.21h-1.28c-.7,0-1.04.27-1.04.82s.32.8,1.07.8c.37,0,.72-.03,1.02-.31.15-.14.23-.41.23-.78v-.53Z"/>
    <path class="cls-6" d="M89.73,197.22c-1.12,0-1.8-.8-1.8-2.1s.68-2.1,1.8-2.1c.56,0,.92.14,1.35.63l-.3.27c-.35-.39-.62-.52-1.05-.52-.47,0-.84.18-1.09.54-.21.3-.28.62-.28,1.17s.08.88.28,1.17c.25.37.62.54,1.09.54.43,0,.71-.14,1.05-.52l.3.27c-.43.48-.79.63-1.35.63Z"/>
    <path class="cls-6" d="M95.08,197.17v-2.54c0-.79-.39-1.22-1.13-1.22s-1.16.43-1.16,1.22v2.54h-.43v-6.05h.43v2.44c.31-.36.71-.54,1.21-.54.94,0,1.51.58,1.51,1.53v2.62h-.43Z"/>
    <path class="cls-6" d="M97.06,191.65v-.54h.54v.54h-.54ZM97.11,197.17v-4.1h.43v4.1h-.43Z"/>
    <path class="cls-6" d="M101.91,197.17v-2.54c0-.79-.39-1.22-1.13-1.22s-1.16.44-1.16,1.22v2.54h-.43v-4.1h.43v.48c.31-.36.71-.54,1.21-.54.45,0,.82.13,1.09.39.28.27.42.65.42,1.14v2.62h-.43Z"/>
    <path class="cls-6" d="M105.21,199.17c-.61,0-.93-.16-1.35-.54l.29-.29c.32.3.54.45,1.06.45.86,0,1.24-.6,1.24-1.42v-.73c-.37.48-.75.58-1.21.58-.43,0-.79-.14-1-.36-.42-.42-.53-1.1-.53-1.74s.11-1.33.53-1.74c.21-.21.57-.36,1-.36.47,0,.85.1,1.21.58v-.53h.43v4.33c0,1.03-.61,1.78-1.67,1.78ZM105.3,193.4c-1,0-1.16.87-1.16,1.72s.15,1.72,1.16,1.72,1.16-.87,1.16-1.72-.15-1.72-1.16-1.72Z"/>
    <path class="cls-6" d="M114.04,197.17v-.41c-.35.35-.67.46-1.25.46-.61,0-.94-.1-1.21-.37-.2-.2-.3-.49-.3-.8,0-.75.54-1.18,1.43-1.18h1.33v-.46c0-.65-.31-1-1.16-1-.58,0-.87.14-1.13.52l-.31-.27c.35-.48.77-.63,1.44-.63,1.09,0,1.59.48,1.59,1.34v2.8h-.43ZM114.04,195.21h-1.27c-.7,0-1.05.27-1.05.82s.32.8,1.07.8c.37,0,.72-.03,1.02-.31.15-.14.23-.41.23-.78v-.53Z"/>
    <path class="cls-6" d="M122.99,197.17h-.44l-1.16-3.42-1.16,3.42h-.44l-1.31-4.1h.48l1.04,3.59,1.17-3.59h.42l1.17,3.59,1.04-3.59h.48l-1.31,4.1Z"/>
    <path class="cls-6" d="M125.19,191.65v-.54h.54v.54h-.54ZM125.25,197.17v-4.1h.43v4.1h-.43Z"/>
    <path class="cls-6" d="M129.84,197.17v-.53c-.37.48-.75.58-1.21.58-.43,0-.79-.14-1-.36-.42-.42-.53-1.1-.53-1.74s.11-1.33.53-1.74c.21-.21.57-.36,1-.36.47,0,.85.1,1.21.58v-2.48h.43v6.05h-.43ZM128.68,193.4c-1,0-1.16.87-1.16,1.72s.15,1.72,1.16,1.72,1.16-.87,1.16-1.72-.15-1.72-1.16-1.72Z"/>
    <path class="cls-6" d="M132.11,195.21c0,1.05.46,1.61,1.33,1.61.48,0,.78-.14,1.13-.49l.32.25c-.42.42-.8.63-1.48.63-1.13,0-1.74-.73-1.74-2.1s.61-2.1,1.64-2.1,1.64.74,1.64,2v.2h-2.85ZM134.38,194.09c-.18-.43-.59-.69-1.06-.69s-.87.26-1.06.69c-.11.25-.12.38-.14.77h2.41c-.03-.39-.03-.53-.14-.77Z"/>
    <path class="cls-6" d="M137.89,193.4c-.71,0-1.1.59-1.1,1.24v2.52h-.43v-4.1h.43v.54c.24-.38.71-.59,1.2-.59.4,0,.69.09.99.39l-.31.31c-.25-.25-.43-.32-.77-.32Z"/>
  </g>
  <g>
    <path class="cls-6" d="M19.43,209.17v-2.54c0-.79-.39-1.22-1.13-1.22s-1.15.44-1.15,1.22v2.54h-.43v-4.1h.43v.48c.3-.36.7-.54,1.2-.54.45,0,.81.13,1.09.39.28.27.42.65.42,1.14v2.62h-.43Z"/>
    <path class="cls-6" d="M21.65,207.21c0,1.05.46,1.61,1.33,1.61.48,0,.78-.14,1.13-.49l.32.25c-.42.42-.8.63-1.48.63-1.13,0-1.74-.73-1.74-2.1s.61-2.1,1.64-2.1,1.64.74,1.64,2v.2h-2.84ZM23.92,206.09c-.18-.43-.58-.69-1.06-.69s-.87.26-1.06.69c-.11.25-.12.38-.14.77h2.41c-.03-.39-.03-.53-.14-.77Z"/>
    <path class="cls-6" d="M26.97,209.17c-.64,0-.98-.45-.98-1.07v-2.7h-.56v-.32h.56v-1.31h.43v1.31h.92v.32h-.92v2.71c0,.43.2.68.63.68h.3v.38h-.37Z"/>
    <path class="cls-6" d="M32.42,209.17h-.44l-1.15-3.42-1.15,3.42h-.44l-1.31-4.1h.47l1.04,3.59,1.17-3.59h.42l1.17,3.59,1.04-3.59h.47l-1.31,4.1Z"/>
    <path class="cls-6" d="M37.17,208.77c-.3.3-.68.45-1.14.45s-.84-.15-1.14-.45c-.43-.43-.51-1.06-.51-1.65s.08-1.22.51-1.65c.3-.3.68-.45,1.14-.45s.84.15,1.14.45c.43.43.51,1.06.51,1.65s-.08,1.22-.51,1.65ZM36.88,205.75c-.23-.23-.52-.35-.85-.35s-.62.12-.85.35c-.34.34-.36.89-.36,1.37s.03,1.03.36,1.37c.23.23.52.35.85.35s.62-.12.85-.35c.34-.34.37-.89.37-1.37s-.03-1.03-.37-1.37Z"/>
    <path class="cls-6" d="M40.61,205.4c-.71,0-1.1.59-1.1,1.24v2.52h-.43v-4.1h.43v.54c.24-.38.71-.59,1.2-.59.4,0,.69.09.98.39l-.31.31c-.25-.25-.43-.32-.77-.32Z"/>
    <path class="cls-6" d="M45.33,209.17l-1.41-2.25-.93,1.08v1.17h-.43v-6.05h.43v4.27l2.03-2.31h.55l-1.35,1.53,1.65,2.57h-.53Z"/>
    <path class="cls-6" d="M52.76,209.17h-.44l-1.15-3.42-1.15,3.42h-.44l-1.31-4.1h.48l1.04,3.59,1.17-3.59h.42l1.17,3.59,1.04-3.59h.48l-1.31,4.1Z"/>
    <path class="cls-6" d="M54.95,203.65v-.54h.54v.54h-.54ZM55,209.17v-4.1h.43v4.1h-.43Z"/>
    <path class="cls-6" d="M58.16,209.17c-.64,0-.98-.45-.98-1.07v-2.7h-.56v-.32h.56v-1.31h.43v1.31h.93v.32h-.93v2.71c0,.43.2.68.63.68h.3v.38h-.37Z"/>
    <path class="cls-6" d="M62.54,209.17v-2.54c0-.79-.39-1.22-1.13-1.22s-1.15.43-1.15,1.22v2.54h-.43v-6.05h.43v2.44c.3-.36.7-.54,1.2-.54.94,0,1.51.58,1.51,1.53v2.62h-.43Z"/>
    <path class="cls-6" d="M69.01,209.17v-.53c-.36.48-.75.58-1.21.58-.43,0-.79-.14-1-.36-.42-.42-.53-1.1-.53-1.74s.11-1.33.53-1.74c.21-.21.57-.36,1-.36.47,0,.85.1,1.21.58v-2.48h.43v6.05h-.43ZM67.85,205.4c-1,0-1.15.87-1.15,1.72s.15,1.72,1.15,1.72,1.15-.87,1.15-1.72-.15-1.72-1.15-1.72Z"/>
    <path class="cls-6" d="M71.02,203.65v-.54h.53v.54h-.53ZM71.07,209.17v-4.1h.43v4.1h-.43Z"/>
    <path class="cls-6" d="M74.42,211.17c-.61,0-.92-.16-1.35-.54l.29-.29c.32.3.54.45,1.06.45.86,0,1.24-.6,1.24-1.42v-.73c-.37.48-.75.58-1.21.58-.43,0-.79-.14-1-.36-.42-.42-.53-1.1-.53-1.74s.11-1.33.53-1.74c.21-.21.57-.36,1-.36.47,0,.85.1,1.21.58v-.53h.43v4.33c0,1.03-.61,1.78-1.67,1.78ZM74.5,205.4c-1,0-1.15.87-1.15,1.72s.15,1.72,1.15,1.72,1.15-.87,1.15-1.72-.15-1.72-1.15-1.72Z"/>
    <path class="cls-6" d="M77.68,203.65v-.54h.54v.54h-.54ZM77.73,209.17v-4.1h.43v4.1h-.43Z"/>
    <path class="cls-6" d="M80.89,209.17c-.64,0-.98-.45-.98-1.07v-2.7h-.56v-.32h.56v-1.31h.43v1.31h.92v.32h-.92v2.71c0,.43.2.68.63.68h.3v.38h-.37Z"/>
    <path class="cls-6" d="M84.91,209.17v-.41c-.35.35-.67.46-1.25.46-.61,0-.94-.1-1.2-.37-.2-.2-.3-.49-.3-.8,0-.75.53-1.18,1.42-1.18h1.32v-.46c0-.65-.31-1-1.15-1-.58,0-.87.14-1.13.52l-.31-.27c.35-.48.77-.63,1.44-.63,1.09,0,1.59.48,1.59,1.34v2.8h-.43ZM84.91,207.21h-1.27c-.7,0-1.04.27-1.04.82s.32.8,1.07.8c.37,0,.72-.03,1.02-.31.15-.14.23-.41.23-.78v-.53Z"/>
    <path class="cls-6" d="M87.92,209.17c-.67,0-.98-.42-.98-1.06v-4.99h.43v4.98c0,.47.14.69.63.69h.3v.38h-.37Z"/>
    <path class="cls-6" d="M92.42,209.17c-.64,0-.98-.45-.98-1.07v-2.7h-.56v-.32h.56v-1.31h.43v1.31h.92v.32h-.92v2.71c0,.43.2.68.63.68h.3v.38h-.37Z"/>
    <path class="cls-6" d="M95.6,205.4c-.71,0-1.1.59-1.1,1.24v2.52h-.43v-4.1h.43v.54c.24-.38.71-.59,1.2-.59.4,0,.69.09.98.39l-.31.31c-.25-.25-.43-.32-.77-.32Z"/>
    <path class="cls-6" d="M99.86,209.17v-.41c-.35.35-.67.46-1.25.46-.61,0-.94-.1-1.21-.37-.2-.2-.3-.49-.3-.8,0-.75.54-1.18,1.43-1.18h1.32v-.46c0-.65-.31-1-1.15-1-.58,0-.87.14-1.13.52l-.31-.27c.35-.48.77-.63,1.44-.63,1.09,0,1.59.48,1.59,1.34v2.8h-.43ZM99.86,207.21h-1.27c-.7,0-1.04.27-1.04.82s.32.8,1.07.8c.37,0,.72-.03,1.02-.31.15-.14.23-.41.23-.78v-.53Z"/>
    <path class="cls-6" d="M104.62,209.17v-2.54c0-.79-.39-1.22-1.13-1.22s-1.15.44-1.15,1.22v2.54h-.43v-4.1h.43v.48c.31-.36.71-.54,1.21-.54.45,0,.81.13,1.09.39.28.27.42.65.42,1.14v2.62h-.43Z"/>
    <path class="cls-6" d="M107.9,209.22c-.71,0-1.24-.19-1.65-.59l.3-.3c.31.33.76.5,1.34.5.81,0,1.23-.28,1.23-.83,0-.43-.24-.64-.78-.69l-.68-.06c-.82-.07-1.23-.43-1.23-1.07,0-.71.58-1.16,1.47-1.16.57,0,1.07.16,1.43.43l-.29.29c-.31-.23-.7-.35-1.14-.35-.68,0-1.04.28-1.04.79,0,.43.25.63.83.69l.66.06c.68.07,1.2.27,1.2,1.07,0,.75-.63,1.22-1.64,1.22Z"/>
    <path class="cls-6" d="M113.48,208.86c-.21.21-.57.36-1,.36-.47,0-.85-.1-1.21-.58v2.48h-.43v-6.05h.43v.53c.37-.48.75-.58,1.21-.58.43,0,.79.14,1,.36.42.42.53,1.1.53,1.74s-.11,1.33-.53,1.74ZM112.42,205.4c-1,0-1.15.87-1.15,1.72s.15,1.72,1.15,1.72,1.15-.87,1.15-1.72-.15-1.72-1.15-1.72Z"/>
    <path class="cls-6" d="M117.8,209.17v-.41c-.35.35-.67.46-1.25.46-.61,0-.94-.1-1.2-.37-.19-.2-.3-.49-.3-.8,0-.75.53-1.18,1.42-1.18h1.32v-.46c0-.65-.31-1-1.15-1-.58,0-.87.14-1.13.52l-.31-.27c.35-.48.77-.63,1.44-.63,1.09,0,1.59.48,1.59,1.34v2.8h-.43ZM117.8,207.21h-1.27c-.7,0-1.04.27-1.04.82s.32.8,1.07.8c.37,0,.72-.03,1.02-.31.15-.14.23-.41.23-.78v-.53Z"/>
    <path class="cls-6" d="M121.37,205.4c-.7,0-1.09.59-1.09,1.24v2.52h-.43v-4.1h.43v.54c.24-.38.71-.59,1.2-.59.4,0,.69.09.98.39l-.31.31c-.25-.25-.43-.32-.77-.32Z"/>
    <path class="cls-6" d="M123.24,207.21c0,1.05.46,1.61,1.33,1.61.48,0,.78-.14,1.13-.49l.32.25c-.42.42-.8.63-1.48.63-1.13,0-1.74-.73-1.74-2.1s.61-2.1,1.64-2.1,1.64.74,1.64,2v.2h-2.84ZM125.51,206.09c-.18-.43-.59-.69-1.06-.69s-.87.26-1.06.69c-.11.25-.12.38-.14.77h2.41c-.03-.39-.03-.53-.14-.77Z"/>
    <path class="cls-6" d="M130.19,209.17v-2.54c0-.79-.39-1.22-1.13-1.22s-1.15.44-1.15,1.22v2.54h-.43v-4.1h.43v.48c.3-.36.7-.54,1.21-.54.45,0,.81.13,1.09.39.28.27.42.65.42,1.14v2.62h-.43Z"/>
    <path class="cls-6" d="M133.77,209.22c-1.12,0-1.8-.8-1.8-2.1s.68-2.1,1.8-2.1c.56,0,.92.14,1.35.63l-.3.27c-.35-.39-.62-.52-1.05-.52-.47,0-.84.18-1.09.54-.2.3-.28.62-.28,1.17s.08.88.28,1.17c.25.37.62.54,1.09.54.43,0,.71-.14,1.05-.52l.3.27c-.43.48-.79.63-1.35.63Z"/>
    <path class="cls-6" d="M137.2,210.28c-.08.22-.17.38-.28.48-.2.2-.5.26-.77.26h-.2v-.38h.16c.47,0,.6-.15.75-.56l.33-.91-1.49-4.1h.47l1.23,3.59,1.23-3.59h.47l-1.9,5.21Z"/>
  </g>
  <g>
    <path class="cls-6" d="M16.67,215.65v-.54h.54v.54h-.54ZM16.72,221.17v-4.1h.43v4.1h-.43Z"/>
    <path class="cls-6" d="M21.52,221.17v-2.54c0-.79-.39-1.22-1.13-1.22s-1.16.44-1.16,1.22v2.54h-.43v-4.1h.43v.48c.31-.36.71-.54,1.21-.54.45,0,.82.13,1.09.39.28.27.42.65.42,1.14v2.62h-.43Z"/>
    <path class="cls-6" d="M27.25,217.4c-.71,0-1.1.59-1.1,1.24v2.52h-.43v-4.1h.43v.54c.24-.38.71-.59,1.2-.59.4,0,.69.09.99.39l-.31.31c-.25-.25-.43-.32-.77-.32Z"/>
    <path class="cls-6" d="M29.14,219.21c0,1.05.46,1.61,1.33,1.61.48,0,.78-.14,1.13-.49l.32.25c-.42.42-.8.63-1.48.63-1.13,0-1.74-.73-1.74-2.1s.61-2.1,1.64-2.1,1.64.74,1.64,2v.2h-2.85ZM31.41,218.09c-.18-.43-.59-.69-1.06-.69s-.87.26-1.06.69c-.11.25-.12.38-.14.77h2.41c-.03-.39-.04-.53-.14-.77Z"/>
    <path class="cls-6" d="M34.65,223.17c-.61,0-.93-.16-1.35-.54l.29-.29c.32.3.54.45,1.06.45.86,0,1.24-.6,1.24-1.42v-.73c-.37.48-.75.58-1.22.58-.43,0-.79-.14-1-.36-.42-.42-.53-1.1-.53-1.74s.11-1.33.53-1.74c.21-.21.57-.36,1-.36.47,0,.85.1,1.22.58v-.53h.43v4.33c0,1.03-.61,1.78-1.67,1.78ZM34.74,217.4c-1,0-1.16.87-1.16,1.72s.15,1.72,1.16,1.72,1.16-.87,1.16-1.72-.15-1.72-1.16-1.72Z"/>
    <path class="cls-6" d="M40.65,221.17v-.48c-.31.36-.71.54-1.21.54-.45,0-.82-.13-1.09-.39-.28-.27-.42-.65-.42-1.14v-2.62h.43v2.54c0,.79.39,1.22,1.13,1.22s1.16-.44,1.16-1.22v-2.54h.43v4.1h-.43Z"/>
    <path class="cls-6" d="M43.7,221.17c-.67,0-.99-.42-.99-1.06v-4.99h.43v4.98c0,.47.14.69.63.69h.3v.38h-.37Z"/>
    <path class="cls-6" d="M47.57,221.17v-.41c-.35.35-.67.46-1.25.46-.61,0-.94-.1-1.21-.37-.2-.2-.3-.49-.3-.8,0-.75.54-1.18,1.43-1.18h1.33v-.46c0-.65-.31-1-1.16-1-.58,0-.87.14-1.13.52l-.31-.27c.35-.48.77-.63,1.44-.63,1.09,0,1.59.48,1.59,1.34v2.8h-.43ZM47.57,219.21h-1.28c-.7,0-1.04.27-1.04.82s.32.8,1.07.8c.37,0,.72-.03,1.02-.31.15-.14.23-.41.23-.78v-.53Z"/>
    <path class="cls-6" d="M50.71,221.17c-.65,0-.99-.45-.99-1.07v-2.7h-.56v-.32h.56v-1.31h.43v1.31h.93v.32h-.93v2.71c0,.43.2.68.63.68h.3v.38h-.37Z"/>
    <path class="cls-6" d="M54.89,220.77c-.3.3-.68.45-1.14.45s-.84-.15-1.14-.45c-.43-.43-.51-1.06-.51-1.65s.08-1.22.51-1.65c.3-.3.68-.45,1.14-.45s.84.15,1.14.45c.43.43.51,1.06.51,1.65s-.08,1.22-.51,1.65ZM54.6,217.75c-.23-.23-.52-.35-.85-.35s-.62.12-.85.35c-.34.34-.37.89-.37,1.37s.03,1.03.37,1.37c.23.23.52.35.85.35s.62-.12.85-.35c.34-.34.37-.89.37-1.37s-.03-1.03-.37-1.37Z"/>
    <path class="cls-6" d="M58.34,217.4c-.71,0-1.1.59-1.1,1.24v2.52h-.43v-4.1h.43v.54c.24-.38.71-.59,1.2-.59.4,0,.69.09.99.39l-.31.31c-.25-.25-.43-.32-.77-.32Z"/>
    <path class="cls-6" d="M61.1,222.28c-.08.22-.17.38-.28.48-.21.2-.5.26-.77.26h-.21v-.38h.16c.47,0,.6-.15.75-.56l.33-.91-1.5-4.1h.47l1.23,3.59,1.23-3.59h.48l-1.9,5.21Z"/>
    <path class="cls-6" d="M67.68,221.22c-1.12,0-1.8-.8-1.8-2.1s.68-2.1,1.8-2.1c.56,0,.92.14,1.35.63l-.3.27c-.35-.39-.62-.52-1.05-.52-.47,0-.84.18-1.09.54-.2.3-.28.62-.28,1.17s.08.88.28,1.17c.25.37.62.54,1.09.54.43,0,.71-.14,1.05-.52l.3.27c-.43.48-.79.63-1.35.63Z"/>
    <path class="cls-6" d="M72.73,220.77c-.3.3-.68.45-1.14.45s-.84-.15-1.14-.45c-.43-.43-.51-1.06-.51-1.65s.08-1.22.51-1.65c.3-.3.68-.45,1.14-.45s.84.15,1.14.45c.43.43.51,1.06.51,1.65s-.08,1.22-.51,1.65ZM72.44,217.75c-.23-.23-.52-.35-.85-.35s-.62.12-.85.35c-.34.34-.37.89-.37,1.37s.03,1.03.37,1.37c.23.23.52.35.85.35s.62-.12.85-.35c.34-.34.37-.89.37-1.37s-.03-1.03-.37-1.37Z"/>
    <path class="cls-6" d="M80.09,221.17v-2.54c0-.79-.39-1.22-1.13-1.22s-1.16.44-1.16,1.15v2.62h-.43v-2.54c0-.79-.39-1.22-1.13-1.22s-1.16.44-1.16,1.22v2.54h-.43v-4.1h.43v.48c.31-.36.71-.54,1.22-.54.61,0,1.07.26,1.32.75.31-.48.78-.75,1.39-.75.45,0,.82.14,1.08.39.28.27.43.65.43,1.14v2.62h-.43Z"/>
    <path class="cls-6" d="M84.77,220.86c-.21.21-.57.36-1,.36-.47,0-.85-.1-1.22-.58v2.48h-.43v-6.05h.43v.53c.37-.48.75-.58,1.22-.58.43,0,.79.14,1,.36.42.42.53,1.1.53,1.74s-.11,1.33-.53,1.74ZM83.71,217.4c-1,0-1.16.87-1.16,1.72s.15,1.72,1.16,1.72,1.16-.87,1.16-1.72-.15-1.72-1.16-1.72Z"/>
    <path class="cls-6" d="M87.68,221.17c-.67,0-.99-.42-.99-1.06v-4.99h.43v4.98c0,.47.14.69.63.69h.3v.38h-.37Z"/>
    <path class="cls-6" d="M89.1,215.65v-.54h.54v.54h-.54ZM89.15,221.17v-4.1h.43v4.1h-.43Z"/>
    <path class="cls-6" d="M93.63,221.17v-.41c-.35.35-.67.46-1.25.46-.61,0-.94-.1-1.21-.37-.2-.2-.3-.49-.3-.8,0-.75.54-1.18,1.43-1.18h1.33v-.46c0-.65-.31-1-1.16-1-.58,0-.87.14-1.13.52l-.31-.27c.35-.48.77-.63,1.44-.63,1.09,0,1.59.48,1.59,1.34v2.8h-.43ZM93.63,219.21h-1.27c-.7,0-1.05.27-1.05.82s.32.8,1.07.8c.37,0,.72-.03,1.02-.31.15-.14.23-.41.23-.78v-.53Z"/>
    <path class="cls-6" d="M98.4,221.17v-2.54c0-.79-.39-1.22-1.13-1.22s-1.16.44-1.16,1.22v2.54h-.43v-4.1h.43v.48c.31-.36.71-.54,1.21-.54.45,0,.82.13,1.09.39.28.27.42.65.42,1.14v2.62h-.43Z"/>
    <path class="cls-6" d="M102,221.22c-1.12,0-1.8-.8-1.8-2.1s.68-2.1,1.8-2.1c.56,0,.92.14,1.35.63l-.3.27c-.35-.39-.62-.52-1.05-.52-.47,0-.84.18-1.09.54-.2.3-.28.62-.28,1.17s.08.88.28,1.17c.25.37.62.54,1.09.54.43,0,.71-.14,1.05-.52l.3.27c-.43.48-.79.63-1.35.63Z"/>
    <path class="cls-6" d="M104.69,219.21c0,1.05.46,1.61,1.33,1.61.48,0,.78-.14,1.13-.49l.32.25c-.42.42-.8.63-1.48.63-1.13,0-1.74-.73-1.74-2.1s.61-2.1,1.64-2.1,1.64.74,1.64,2v.2h-2.85ZM106.96,218.09c-.18-.43-.59-.69-1.06-.69s-.87.26-1.06.69c-.11.25-.12.38-.14.77h2.41c-.03-.39-.03-.53-.14-.77Z"/>
    <path class="cls-6" d="M108.93,221.17v-.63h.63v.63h-.63Z"/>
  </g>
  <g class="cls-1">
    <path class="cls-5" d="M31.83,21.84v4.04c0,.39.31.7.7.7h2.45c.35,1.05,1.41,1.7,2.5,1.53,1.1-.18,1.9-1.12,1.9-2.23s-.81-2.05-1.9-2.23c-1.1-.17-2.15.47-2.5,1.53h-1.75v-3.83"/>
    <path class="cls-8" d="M25.39,22.68v2.47c-1.05.34-1.7,1.41-1.52,2.5.17,1.09,1.12,1.9,2.23,1.9s2.05-.81,2.23-1.9c.18-1.1-.47-2.16-1.52-2.5v-2.47"/>
    <path class="cls-7" d="M18.98,21.36s-.02.09-.03.13v3.68h-1.75c-.35-1.05-1.41-1.7-2.5-1.52-1.09.17-1.9,1.12-1.9,2.23s.81,2.05,1.9,2.23c1.1.17,2.16-.47,2.5-1.52h2.45c.39,0,.7-.32.7-.7v-4.03"/>
    <path class="cls-5" d="M20.36,7.71V3.67c0-.39-.32-.7-.7-.7h-2.45c-.35-1.05-1.41-1.7-2.5-1.53-1.1.17-1.9,1.12-1.9,2.23s.81,2.06,1.9,2.23c1.09.17,2.15-.47,2.5-1.53h1.75v3.68s.01.09.03.13"/>
    <path class="cls-8" d="M26.8,6.88v-2.47c1.05-.35,1.7-1.41,1.52-2.5-.17-1.1-1.12-1.9-2.23-1.9s-2.05.81-2.23,1.9c-.18,1.09.47,2.16,1.52,2.5v2.47"/>
    <path class="cls-7" d="M33.24,8.21v-3.83h1.75c.35,1.05,1.4,1.7,2.5,1.52,1.09-.17,1.9-1.12,1.9-2.23s-.81-2.05-1.9-2.23c-1.1-.17-2.16.47-2.5,1.53h-2.45c-.39,0-.7.32-.7.7v4.04"/>
    <path class="cls-5" d="M23.75,13.13c.55,0,1-.42,1-.94,0-.19-.06-.37-.17-.52,0,0,0,0-.01-.01-.18-.25-.48-.41-.82-.41-.55,0-1,.42-1,.94,0,.52.45.94,1,.94"/>
    <path class="cls-7" d="M26,15.63c0-.23-.2-.42-.46-.42s-.46.19-.46.42.21.42.46.42.46-.19.46-.42M27.04,15.63c0,.8-.67,1.46-1.5,1.46s-1.5-.66-1.5-1.46.67-1.46,1.5-1.46,1.5.65,1.5,1.46M29.43,14.83c0-1.72-1.47-3.12-3.27-3.12-.14,0-.28.01-.41.03.03.15.06.3.06.46,0,1.09-.92,1.98-2.05,1.98-.27,0-.53-.05-.77-.14-.07.26-.11.52-.11.8,0,1.72,1.47,3.12,3.28,3.12s3.28-1.4,3.28-3.12"/>
    <path class="cls-9" d="M30.46,14.83c0,2.29-1.94,4.16-4.31,4.16s-4.32-1.87-4.32-4.16c0-.5.1-.99.27-1.45-.26-.33-.4-.74-.4-1.18,0-1.09.92-1.98,2.05-1.98.55,0,1.06.22,1.42.57.32-.07.65-.11.98-.11,2.38,0,4.31,1.87,4.31,4.16M32.65,14.83c0-3.43-2.92-6.22-6.5-6.22s-6.5,2.79-6.5,6.22,2.92,6.22,6.5,6.22,6.5-2.79,6.5-6.22"/>
    <path class="cls-8" d="M33.7,14.83c0,4-3.39,7.26-7.55,7.26s-7.55-3.26-7.55-7.26,3.39-7.26,7.55-7.26,7.55,3.26,7.55,7.26M43.3,14.83c-.69-.7-2.42-2.36-4.83-3.99-2.89-1.96-7.37-4.3-12.32-4.3s-9.44,2.34-12.32,4.3c-2.4,1.64-4.13,3.29-4.83,3.99.69.7,2.42,2.36,4.83,3.99,2.89,1.96,7.37,4.3,12.32,4.3s9.44-2.34,12.32-4.3c2.4-1.64,4.13-3.29,4.83-3.99"/>
  </g>
</svg>